<svg width="38" height="37" viewBox="0 0 38 37" fill="none" xmlns="http://www.w3.org/2000/svg">
<path d="M4.65527 18.3873C4.65527 11.5333 4.65527 8.10478 6.78433 5.97573C8.91338 3.84668 12.3404 3.84668 19.1959 3.84668C26.0499 3.84668 29.4784 3.84668 31.6075 5.97573C33.7365 8.10478 33.7365 11.5318 33.7365 18.3873C33.7365 25.2413 33.7365 28.6698 31.6075 30.7989C29.4784 32.9279 26.0514 32.9279 19.1959 32.9279C12.3419 32.9279 8.91338 32.9279 6.78433 30.7989C4.65527 28.6698 4.65527 25.2428 4.65527 18.3873Z" stroke="black" stroke-width="2.29589" stroke-linecap="round" stroke-linejoin="round"/>
<path d="M11.1606 18.3647V13.8036C11.1606 13.3719 11.5157 13.0229 11.9535 13.0229H14.981C15.6545 13.0229 16.3463 13.1377 16.8483 13.5816C17.384 14.0561 17.9044 14.7908 17.8799 15.7704C17.8493 16.9183 17.0136 18.2698 15.7876 18.3647C14.5631 18.4596 13.4106 18.3647 11.1606 18.3647ZM11.1606 18.3647L11.1622 22.9305C11.1622 23.3621 11.5173 23.7111 11.955 23.7157C13.6999 23.731 14.7162 23.7937 15.7892 23.7111C17.0136 23.6177 17.8509 22.2631 17.8815 21.1182C17.906 20.1371 17.3856 19.4025 16.8499 18.928C16.3478 18.4841 15.656 18.3678 14.9825 18.3678L11.1606 18.3647ZM26.537 22.9259C25.8666 23.5764 22.6003 24.8605 21.4233 21.481C21.3008 21.1427 21.2029 20.4142 21.2595 19.8524M21.2595 19.8524C21.3574 18.8943 21.7799 17.552 23.3472 17.004C25.5941 16.2188 27.0069 18.3969 27.3727 19.8524H21.2595ZM23.1605 13.7974H25.2421" stroke="black" stroke-width="2.29589" stroke-linecap="round" stroke-linejoin="round"/>
</svg>
