<svg width="38" height="38" viewBox="0 0 38 38" fill="none" xmlns="http://www.w3.org/2000/svg">
<path d="M4.65527 19.3321C4.65527 12.4781 4.65527 9.04961 6.78433 6.92056C8.91338 4.7915 12.3404 4.7915 19.1959 4.7915C26.0499 4.7915 29.4784 4.7915 31.6075 6.92056C33.7365 9.04961 33.7365 12.4766 33.7365 19.3321C33.7365 26.1861 33.7365 29.6146 31.6075 31.7437C29.4784 33.8727 26.0514 33.8727 19.1959 33.8727C12.3419 33.8727 8.91338 33.8727 6.78433 31.7437C4.65527 29.6146 4.65527 26.1876 4.65527 19.3321Z" stroke="#8A8A8A" stroke-width="2.29589" stroke-linecap="round" stroke-linejoin="round"/>
<path d="M11.1606 19.3095V14.7484C11.1606 14.3167 11.5157 13.9678 11.9535 13.9678H14.981C15.6545 13.9678 16.3463 14.0826 16.8483 14.5264C17.384 15.0009 17.9044 15.7356 17.8799 16.7152C17.8493 17.8631 17.0136 19.2146 15.7876 19.3095C14.5631 19.4044 13.4106 19.3095 11.1606 19.3095ZM11.1606 19.3095L11.1622 23.8753C11.1622 24.3069 11.5173 24.6559 11.955 24.6605C13.6999 24.6758 14.7162 24.7385 15.7892 24.6559C17.0136 24.5625 17.8509 23.208 17.8815 22.0631C17.906 21.082 17.3856 20.3473 16.8499 19.8728C16.3478 19.4289 15.656 19.3126 14.9825 19.3126L11.1606 19.3095ZM26.537 23.8707C25.8666 24.5212 22.6003 25.8054 21.4233 22.4258C21.3008 22.0876 21.2029 21.359 21.2595 20.7973M21.2595 20.7973C21.3574 19.8391 21.7799 18.4968 23.3472 17.9488C25.5941 17.1636 27.0069 19.3417 27.3727 20.7973H21.2595ZM23.1605 14.7423H25.2421" stroke="#8A8A8A" stroke-width="2.29589" stroke-linecap="round" stroke-linejoin="round"/>
</svg>
