<svg width="133" height="133" viewBox="0 0 133 133" fill="none" xmlns="http://www.w3.org/2000/svg">
<g filter="url(#filter0_b_234_1111)">
<path d="M133 66.5C133 103.227 103.227 133 66.5 133C29.7731 133 0 103.227 0 66.5C0 29.7731 29.7731 0 66.5 0C103.227 0 133 29.7731 133 66.5ZM33.3112 66.5C33.3112 84.8296 48.1704 99.6888 66.5 99.6888C84.8296 99.6888 99.6888 84.8296 99.6888 66.5C99.6888 48.1704 84.8296 33.3112 66.5 33.3112C48.1704 33.3112 33.3112 48.1704 33.3112 66.5Z" fill="#717680" fill-opacity="0.44"/>
</g>
<path d="M23.1666 81.6326C21.9693 81.8869 20.8379 81.845 19.7724 81.507C18.6952 81.1715 17.7881 80.5974 17.0512 79.7848C16.3118 78.9604 15.8212 77.9789 15.5794 76.8403C15.2951 75.5022 15.3699 74.2657 15.8036 73.1308C16.2372 71.9959 16.9982 71.0737 18.0866 70.3641L18.4942 72.2833C17.827 72.7808 17.3624 73.3947 17.1004 74.1251C16.836 74.8437 16.7985 75.6491 16.9879 76.5412C17.1699 77.398 17.5328 78.1245 18.0765 78.7206C18.6202 79.3166 19.3029 79.7298 20.1247 79.9601C20.9347 80.1928 21.8328 80.2045 22.8188 79.9951C23.793 79.7882 24.6088 79.4125 25.266 78.8681C25.9115 78.3261 26.3615 77.6724 26.616 76.9068C26.8705 76.1412 26.9067 75.33 26.7247 74.4731C26.5353 73.581 26.1795 72.8592 25.6575 72.3076C25.1213 71.7467 24.4473 71.3747 23.6355 71.1913L23.2279 69.2721C24.4989 69.4806 25.5632 70.0151 26.4207 70.8758C27.2665 71.7389 27.8315 72.8395 28.1157 74.1777C28.3575 75.3163 28.3141 76.4112 27.9853 77.4624C27.6423 78.5044 27.0528 79.3964 26.2167 80.1383C25.3805 80.8802 24.3638 81.3783 23.1666 81.6326Z" fill="white"/>
<path d="M28.4218 55.8573C28.1332 56.985 27.6084 57.947 26.8474 58.7432C26.0746 59.5364 25.1475 60.0857 24.0661 60.3912C22.976 60.6821 21.838 60.6759 20.6522 60.3725C19.4664 60.0691 18.4711 59.5295 17.6662 58.7539C16.8527 57.9636 16.3034 57.0365 16.0182 55.9726C15.7213 54.9057 15.7172 53.8084 16.0057 52.6808C16.2972 51.5415 16.8293 50.5752 17.602 49.782C18.3631 48.9858 19.2829 48.4407 20.3614 48.1469C21.4398 47.853 22.5778 47.8593 23.7752 48.1656C24.9727 48.472 25.9738 49.013 26.7787 49.7887C27.5835 50.5644 28.1343 51.4857 28.4312 52.5526C28.7164 53.6164 28.7132 54.718 28.4218 55.8573ZM27.0441 55.5049C27.2613 54.6562 27.2584 53.8442 27.0357 53.0688C26.8159 52.2817 26.3889 51.6027 25.7546 51.0317C25.1233 50.449 24.3252 50.0343 23.3603 49.7874C22.3838 49.5376 21.4845 49.5181 20.6626 49.7289C19.8321 49.9252 19.1329 50.3099 18.5651 50.8831C17.9973 51.4562 17.6034 52.1729 17.3833 53.0332C17.1632 53.8935 17.1645 54.7114 17.3873 55.4868C17.61 56.2622 18.0371 56.9412 18.6683 57.5239C19.291 58.0919 20.0906 58.5009 21.0671 58.7507C22.032 58.9976 22.9298 59.0229 23.7603 58.8266C24.5939 58.6187 25.2945 58.2282 25.8623 57.6551C26.4331 57.0703 26.827 56.3536 27.0441 55.5049Z" fill="white"/>
<path d="M39.8444 35.4502L38.7911 36.7047L26.9041 35.3263L34.5549 41.7501L33.5016 43.0046L23.8795 34.9256L24.9328 33.6712L36.8061 35.038L29.169 28.6258L30.2223 27.3713L39.8444 35.4502Z" fill="white"/>
<path d="M47.0371 16.0544L47.6561 17.2338L44.6279 18.8232L49.8394 28.7526L48.389 29.5139L43.1775 19.5844L40.1333 21.1822L39.5143 20.0027L47.0371 16.0544Z" fill="white"/>
<path d="M66.5696 21.5288L61.1219 22.0441L60.3811 24.9166L58.6608 25.0793L62.002 12.2336L63.8836 12.0556L69.5561 24.0487L67.8358 24.2114L66.5696 21.5288ZM65.9782 20.2468L63.1236 14.1525L61.4624 20.6739L65.9782 20.2468Z" fill="white"/>
<path d="M78.5214 18.7251C78.9317 17.572 79.5598 16.63 80.4058 15.8993C81.2557 15.1573 82.2198 14.6852 83.298 14.483C84.3875 14.2848 85.4805 14.3808 86.5772 14.771C87.866 15.2296 88.8803 15.9408 89.62 16.9046C90.3597 17.8683 90.7469 18.9996 90.7814 20.2983L88.933 19.6406C88.8586 18.8117 88.5789 18.0944 88.0938 17.4887C87.6201 16.8871 86.9536 16.4334 86.0944 16.1277C85.2691 15.834 84.4602 15.7627 83.6677 15.9137C82.8752 16.0648 82.1657 16.4301 81.5392 17.0095C80.9166 17.5777 80.4364 18.3367 80.0985 19.2863C79.7646 20.2247 79.6574 21.1164 79.7771 21.9614C79.9007 22.7951 80.222 23.5208 80.741 24.1385C81.2599 24.7562 81.932 25.2119 82.7574 25.5056C83.6166 25.8114 84.4178 25.8863 85.1611 25.7305C85.9197 25.5674 86.5896 25.188 87.1709 24.5924L89.0194 25.2502C88.1762 26.2238 87.1634 26.8506 85.9812 27.1304C84.803 27.399 83.5695 27.3039 82.2806 26.8453C81.184 26.4551 80.274 25.8447 79.5506 25.0141C78.8425 24.1762 78.3913 23.2069 78.1971 22.1061C78.0029 21.0053 78.111 19.8783 78.5214 18.7251Z" fill="white"/>
<path d="M107.88 28.7555L106.979 29.7367L104.46 27.4239L96.8762 35.6847L95.6696 34.577L103.253 26.3161L100.721 23.9911L101.621 23.0099L107.88 28.7555Z" fill="white"/>
<path d="M122.465 62.6916L110.184 64.7738L109.91 63.1588L119.067 61.6062L109.218 59.0771L109.025 57.9413L117.505 52.2862L108.33 53.8418L108.057 52.2268L120.337 50.1447L120.632 51.8838L111.251 58.1481L122.173 60.9702L122.465 62.6916Z" fill="white"/>
<path d="M119.741 77.0653L115.684 76.0015L114.524 80.424L113.218 80.0816L114.378 75.6591L110.199 74.5634L108.903 79.5082L107.597 79.1658L109.309 72.6366L121.462 75.8233L119.75 82.3525L118.444 82.0101L119.741 77.0653Z" fill="white"/>
<defs>
<filter id="filter0_b_234_1111" x="-9" y="-9" width="151" height="151" filterUnits="userSpaceOnUse" color-interpolation-filters="sRGB">
<feFlood flood-opacity="0" result="BackgroundImageFix"/>
<feGaussianBlur in="BackgroundImageFix" stdDeviation="4.5"/>
<feComposite in2="SourceAlpha" operator="in" result="effect1_backgroundBlur_234_1111"/>
<feBlend mode="normal" in="SourceGraphic" in2="effect1_backgroundBlur_234_1111" result="shape"/>
</filter>
</defs>
</svg>
