<svg width="38" height="38" viewBox="0 0 38 38" fill="none" xmlns="http://www.w3.org/2000/svg">
<g clip-path="url(#clip0_36_22092)">
<path d="M0.617188 16.9368C0.617188 16.545 0.695248 16.1532 0.851368 15.7766C1.208 14.9195 2.15849 14.1756 4.05796 12.6879L13.5568 5.25536C15.4563 3.76763 16.4068 3.02376 17.5011 2.74519C18.4654 2.5003 19.5032 2.5003 20.4674 2.74519C21.5618 3.02529 22.5123 3.76763 24.4118 5.25536L33.9106 12.6879C35.8101 14.1756 36.7606 14.9195 37.1172 15.7766C37.2733 16.1532 37.3514 16.545 37.3514 16.9368V21.7276C37.3514 22.1194 37.2733 22.5112 37.1172 22.8878C36.7606 23.7449 35.8101 24.4888 33.9106 25.975L24.4118 33.4091C22.5123 34.8968 21.5618 35.6391 20.4674 35.9192C19.5032 36.1641 18.4654 36.1641 17.5011 35.9192C16.4068 35.6391 15.4563 34.8968 13.5568 33.4091L4.05796 25.975C2.15849 24.4903 1.208 23.7449 0.851368 22.8878C0.698576 22.52 0.619029 22.1259 0.617188 21.7276L0.617188 16.9368ZM14.9129 11.9808L16.2705 13.043C17.2195 13.7853 17.694 14.1573 18.2435 14.2981C18.7256 14.4205 19.243 14.4205 19.7251 14.2981C20.273 14.1573 20.7475 13.7853 21.6996 13.043L23.0557 11.9808C24.0046 11.2369 24.4791 10.865 24.6582 10.4364C24.7352 10.2527 24.7749 10.0555 24.7749 9.85632C24.7749 9.65712 24.7352 9.45992 24.6582 9.27623C24.4806 8.84766 24.0046 8.47573 23.0557 7.73339L21.698 6.67116C20.7491 5.92729 20.2746 5.55536 19.7251 5.41608C19.2387 5.29476 18.7299 5.29476 18.2435 5.41608C17.6955 5.55536 17.221 5.92729 16.269 6.67116L14.9129 7.73339C13.9639 8.47573 13.4895 8.84766 13.3104 9.27623C13.2333 9.45992 13.1937 9.65712 13.1937 9.85632C13.1937 10.0555 13.2333 10.2527 13.3104 10.4364C13.4879 10.865 13.9639 11.2369 14.9129 11.9808ZM23.9587 19.0598L25.3163 20.122C26.2653 20.8659 26.7413 21.2378 27.2908 21.3771C27.7714 21.4995 28.2903 21.4995 28.7724 21.3771C29.3204 21.2378 29.7948 20.8659 30.7438 20.122L32.1014 19.0598C33.0504 18.3174 33.5264 17.9455 33.704 17.5169C33.781 17.3332 33.8207 17.136 33.8207 16.9368C33.8207 16.7376 33.781 16.5404 33.704 16.3567C33.5264 15.9282 33.0519 15.5562 32.1014 14.8124L30.7438 13.7501C29.7948 13.0078 29.3204 12.6359 28.7724 12.4951C28.2855 12.3735 27.7762 12.3735 27.2893 12.4951C26.7413 12.6359 26.2668 13.0078 25.3163 13.7501L23.9602 14.8124C23.0097 15.5562 22.5353 15.9282 22.3577 16.3567C22.2807 16.5404 22.241 16.7376 22.241 16.9368C22.241 17.136 22.2807 17.3332 22.3577 17.5169C22.5353 17.9455 23.0097 18.3174 23.9602 19.0598H23.9587ZM5.86712 19.0598L16.2705 27.2025C17.2195 27.9464 17.694 28.3168 18.2435 28.4576C18.7256 28.58 19.243 28.58 19.7251 28.4576C20.273 28.3168 20.7475 27.9464 21.6996 27.2025L23.0557 26.1403C24.0046 25.3964 24.4791 25.0245 24.6582 24.5959C24.7361 24.4124 24.7762 24.2151 24.7762 24.0158C24.7762 23.8165 24.7361 23.6192 24.6582 23.4357C24.4806 23.0072 24.0046 22.6352 23.0557 21.8929L12.6522 13.7501C11.7033 13.0078 11.2272 12.6359 10.6778 12.4951C10.1913 12.3737 9.68257 12.3737 9.19615 12.4951C8.6482 12.6359 8.17372 13.0078 7.22475 13.7501L5.86712 14.8124C4.91815 15.5562 4.44213 15.9282 4.26459 16.3567C4.18755 16.5404 4.14787 16.7376 4.14787 16.9368C4.14787 17.136 4.18755 17.3332 4.26459 17.5169C4.44213 17.9455 4.91662 18.3174 5.86712 19.0598Z" fill="#8A8A8A"/>
</g>
<defs>
<clipPath id="clip0_36_22092">
<rect width="36.7342" height="36.7342" fill="white" transform="translate(0.616211 0.965332)"/>
</clipPath>
</defs>
</svg>
