<svg width="38" height="37" viewBox="0 0 38 37" fill="none" xmlns="http://www.w3.org/2000/svg">
<g clip-path="url(#clip0_36_22094)">
<path d="M0.874512 15.9915C0.874512 15.5997 0.952572 15.2079 1.10869 14.8313C1.46532 13.9742 2.41582 13.2303 4.31528 11.7426L13.8141 4.31005C15.7136 2.82232 16.6641 2.07845 17.7585 1.79988C18.7227 1.55499 19.7605 1.55499 20.7247 1.79988C21.8191 2.07998 22.7696 2.82232 24.6691 4.31005L34.1679 11.7426C36.0674 13.2303 37.0179 13.9742 37.3745 14.8313C37.5306 15.2079 37.6087 15.5997 37.6087 15.9915V20.7823C37.6087 21.1741 37.5306 21.5659 37.3745 21.9425C37.0179 22.7996 36.0674 23.5435 34.1679 25.0297L24.6691 32.4637C22.7696 33.9515 21.8191 34.6938 20.7247 34.9739C19.7605 35.2188 18.7227 35.2188 17.7585 34.9739C16.6641 34.6938 15.7136 33.9515 13.8141 32.4637L4.31528 25.0297C2.41582 23.545 1.46532 22.7996 1.10869 21.9425C0.9559 21.5746 0.876353 21.1806 0.874512 20.7823L0.874512 15.9915ZM15.1702 11.0355L16.5279 12.0977C17.4768 12.84 17.9513 13.212 18.5008 13.3528C18.9829 13.4752 19.5003 13.4752 19.9824 13.3528C20.5304 13.212 21.0048 12.84 21.9569 12.0977L23.313 11.0355C24.2619 10.2916 24.7364 9.91967 24.9155 9.4911C24.9925 9.30741 25.0322 9.1102 25.0322 8.91101C25.0322 8.71181 24.9925 8.51461 24.9155 8.33091C24.738 7.90235 24.2619 7.53042 23.313 6.78808L21.9553 5.72585C21.0064 4.98198 20.5319 4.61005 19.9824 4.47076C19.496 4.34944 18.9872 4.34944 18.5008 4.47076C17.9528 4.61005 17.4784 4.98198 16.5263 5.72585L15.1702 6.78808C14.2213 7.53042 13.7468 7.90235 13.5677 8.33091C13.4907 8.51461 13.451 8.71181 13.451 8.91101C13.451 9.1102 13.4907 9.30741 13.5677 9.4911C13.7453 9.91967 14.2213 10.2916 15.1702 11.0355ZM24.216 18.1145L25.5737 19.1767C26.5226 19.9205 26.9986 20.2925 27.5481 20.4318C28.0287 20.5542 28.5476 20.5542 29.0297 20.4318C29.5777 20.2925 30.0522 19.9205 31.0011 19.1767L32.3588 18.1145C33.3077 17.3721 33.7838 17.0002 33.9613 16.5716C34.0383 16.3879 34.078 16.1907 34.078 15.9915C34.078 15.7923 34.0383 15.5951 33.9613 15.4114C33.7838 14.9829 33.3093 14.6109 32.3588 13.8671L31.0011 12.8048C30.0522 12.0625 29.5777 11.6906 29.0297 11.5497C28.5428 11.4282 28.0335 11.4282 27.5466 11.5497C26.9986 11.6906 26.5242 12.0625 25.5737 12.8048L24.2176 13.8671C23.2671 14.6109 22.7926 14.9829 22.615 15.4114C22.538 15.5951 22.4983 15.7923 22.4983 15.9915C22.4983 16.1907 22.538 16.3879 22.615 16.5716C22.7926 17.0002 23.2671 17.3721 24.2176 18.1145H24.216ZM6.12444 18.1145L16.5279 26.2572C17.4768 27.0011 17.9513 27.3715 18.5008 27.5123C18.9829 27.6347 19.5003 27.6347 19.9824 27.5123C20.5304 27.3715 21.0048 27.0011 21.9569 26.2572L23.313 25.195C24.2619 24.4511 24.7364 24.0792 24.9155 23.6506C24.9934 23.4671 25.0335 23.2698 25.0335 23.0705C25.0335 22.8712 24.9934 22.6739 24.9155 22.4904C24.738 22.0618 24.2619 21.6899 23.313 20.9476L12.9095 12.8048C11.9606 12.0625 11.4846 11.6906 10.9351 11.5497C10.4487 11.4284 9.9399 11.4284 9.45347 11.5497C8.90552 11.6906 8.43104 12.0625 7.48207 12.8048L6.12444 13.8671C5.17547 14.6109 4.69946 14.9829 4.52191 15.4114C4.44487 15.5951 4.4052 15.7923 4.4052 15.9915C4.4052 16.1907 4.44487 16.3879 4.52191 16.5716C4.69946 17.0002 5.17394 17.3721 6.12444 18.1145Z" fill="black"/>
</g>
<defs>
<clipPath id="clip0_36_22094">
<rect width="36.7342" height="36.7342" fill="white" transform="translate(0.874756 0.0200195)"/>
</clipPath>
</defs>
</svg>
