<svg width="702" height="303" viewBox="0 0 702 303" fill="none" xmlns="http://www.w3.org/2000/svg">
<rect x="170" y="161" width="116" height="41" rx="20" fill="white"/>
<path d="M182.058 176.214V182.374C182.058 183.345 182.287 184.063 182.744 184.53C183.211 184.997 183.845 185.23 184.648 185.23C185.451 185.23 186.076 185.001 186.524 184.544C186.981 184.077 187.21 183.354 187.21 182.374V176.214H188.19V182.36C188.19 183.601 187.859 184.535 187.196 185.16C186.543 185.785 185.689 186.098 184.634 186.098C183.579 186.098 182.721 185.785 182.058 185.16C181.405 184.535 181.078 183.601 181.078 182.36V176.214H182.058ZM192.072 176.214V186H191.092V176.214H192.072ZM199.362 172.84L195.498 188.324H194.532L198.368 172.84H199.362ZM202.842 176.214V182.374C202.842 183.345 203.071 184.063 203.528 184.53C203.995 184.997 204.629 185.23 205.432 185.23C206.235 185.23 206.86 185.001 207.308 184.544C207.765 184.077 207.994 183.354 207.994 182.374V176.214H208.974V182.36C208.974 183.601 208.643 184.535 207.98 185.16C207.327 185.785 206.473 186.098 205.418 186.098C204.363 186.098 203.505 185.785 202.842 185.16C202.189 184.535 201.862 183.601 201.862 182.36V176.214H202.842ZM215.404 181.114L218.372 186H217.28L214.788 181.912L212.422 186H211.33L214.284 181.072L211.33 176.214H212.422L214.9 180.288L217.294 176.214H218.386L215.404 181.114ZM228.238 176.214C229.321 176.214 230.25 176.41 231.024 176.802C231.799 177.194 232.392 177.759 232.802 178.496C233.213 179.233 233.418 180.111 233.418 181.128C233.418 182.136 233.213 183.009 232.802 183.746C232.392 184.474 231.799 185.034 231.024 185.426C230.25 185.809 229.321 186 228.238 186H225.34V176.214H228.238ZM228.238 185.188C229.601 185.188 230.637 184.833 231.346 184.124C232.065 183.405 232.424 182.407 232.424 181.128C232.424 179.84 232.065 178.837 231.346 178.118C230.637 177.39 229.601 177.026 228.238 177.026H226.32V185.188H228.238ZM242.857 181.786C242.857 182.122 242.848 182.379 242.829 182.556H236.487C236.515 183.135 236.655 183.629 236.907 184.04C237.159 184.451 237.491 184.763 237.901 184.978C238.312 185.183 238.76 185.286 239.245 185.286C239.88 185.286 240.412 185.132 240.841 184.824C241.28 184.516 241.569 184.101 241.709 183.578H242.745C242.559 184.325 242.157 184.936 241.541 185.412C240.935 185.879 240.169 186.112 239.245 186.112C238.527 186.112 237.883 185.953 237.313 185.636C236.744 185.309 236.296 184.852 235.969 184.264C235.652 183.667 235.493 182.971 235.493 182.178C235.493 181.385 235.652 180.689 235.969 180.092C236.287 179.495 236.73 179.037 237.299 178.72C237.869 178.403 238.517 178.244 239.245 178.244C239.973 178.244 240.608 178.403 241.149 178.72C241.7 179.037 242.12 179.467 242.409 180.008C242.708 180.54 242.857 181.133 242.857 181.786ZM241.863 181.758C241.873 181.189 241.756 180.703 241.513 180.302C241.28 179.901 240.958 179.597 240.547 179.392C240.137 179.187 239.689 179.084 239.203 179.084C238.475 179.084 237.855 179.317 237.341 179.784C236.828 180.251 236.543 180.909 236.487 181.758H241.863ZM247.999 186.112C247.121 186.112 246.403 185.911 245.843 185.51C245.292 185.099 244.984 184.544 244.919 183.844H245.927C245.973 184.273 246.174 184.623 246.529 184.894C246.893 185.155 247.378 185.286 247.985 185.286C248.517 185.286 248.932 185.16 249.231 184.908C249.539 184.656 249.693 184.343 249.693 183.97C249.693 183.709 249.609 183.494 249.441 183.326C249.273 183.158 249.058 183.027 248.797 182.934C248.545 182.831 248.199 182.724 247.761 182.612C247.191 182.463 246.729 182.313 246.375 182.164C246.02 182.015 245.717 181.795 245.465 181.506C245.222 181.207 245.101 180.811 245.101 180.316C245.101 179.943 245.213 179.597 245.437 179.28C245.661 178.963 245.978 178.711 246.389 178.524C246.799 178.337 247.266 178.244 247.789 178.244C248.61 178.244 249.273 178.454 249.777 178.874C250.281 179.285 250.551 179.854 250.589 180.582H249.609C249.581 180.134 249.403 179.775 249.077 179.504C248.759 179.224 248.321 179.084 247.761 179.084C247.266 179.084 246.865 179.201 246.557 179.434C246.249 179.667 246.095 179.957 246.095 180.302C246.095 180.601 246.183 180.848 246.361 181.044C246.547 181.231 246.776 181.38 247.047 181.492C247.317 181.595 247.681 181.711 248.139 181.842C248.689 181.991 249.128 182.136 249.455 182.276C249.781 182.416 250.061 182.621 250.295 182.892C250.528 183.163 250.649 183.522 250.659 183.97C250.659 184.381 250.547 184.749 250.323 185.076C250.099 185.393 249.786 185.645 249.385 185.832C248.983 186.019 248.521 186.112 247.999 186.112ZM253.71 176.914C253.514 176.914 253.346 176.844 253.206 176.704C253.066 176.564 252.996 176.391 252.996 176.186C252.996 175.981 253.066 175.813 253.206 175.682C253.346 175.542 253.514 175.472 253.71 175.472C253.906 175.472 254.074 175.542 254.214 175.682C254.354 175.813 254.424 175.981 254.424 176.186C254.424 176.391 254.354 176.564 254.214 176.704C254.074 176.844 253.906 176.914 253.71 176.914ZM254.2 178.356V186H253.22V178.356H254.2ZM260.341 178.244C261.06 178.244 261.685 178.412 262.217 178.748C262.749 179.084 263.132 179.509 263.365 180.022V178.356H264.345V186.196C264.345 186.896 264.191 187.517 263.883 188.058C263.585 188.599 263.165 189.015 262.623 189.304C262.082 189.603 261.466 189.752 260.775 189.752C259.795 189.752 258.979 189.519 258.325 189.052C257.681 188.585 257.28 187.951 257.121 187.148H258.087C258.255 187.68 258.573 188.105 259.039 188.422C259.515 188.739 260.094 188.898 260.775 188.898C261.27 188.898 261.713 188.791 262.105 188.576C262.497 188.371 262.805 188.063 263.029 187.652C263.253 187.241 263.365 186.756 263.365 186.196V184.306C263.123 184.829 262.735 185.263 262.203 185.608C261.681 185.944 261.06 186.112 260.341 186.112C259.641 186.112 259.011 185.949 258.451 185.622C257.901 185.295 257.467 184.833 257.149 184.236C256.841 183.639 256.687 182.948 256.687 182.164C256.687 181.38 256.841 180.694 257.149 180.106C257.467 179.509 257.901 179.051 258.451 178.734C259.011 178.407 259.641 178.244 260.341 178.244ZM263.365 182.178C263.365 181.562 263.239 181.021 262.987 180.554C262.735 180.087 262.39 179.728 261.951 179.476C261.522 179.224 261.046 179.098 260.523 179.098C259.982 179.098 259.497 179.219 259.067 179.462C258.638 179.705 258.297 180.059 258.045 180.526C257.803 180.983 257.681 181.529 257.681 182.164C257.681 182.789 257.803 183.34 258.045 183.816C258.297 184.283 258.638 184.642 259.067 184.894C259.497 185.137 259.982 185.258 260.523 185.258C261.046 185.258 261.522 185.132 261.951 184.88C262.39 184.628 262.735 184.269 262.987 183.802C263.239 183.335 263.365 182.794 263.365 182.178ZM270.883 178.216C271.798 178.216 272.544 178.501 273.123 179.07C273.702 179.63 273.991 180.447 273.991 181.52V186H273.025V181.632C273.025 180.801 272.815 180.167 272.395 179.728C271.984 179.289 271.42 179.07 270.701 179.07C269.964 179.07 269.376 179.303 268.937 179.77C268.498 180.237 268.279 180.923 268.279 181.828V186H267.299V178.356H268.279V179.658C268.522 179.191 268.872 178.837 269.329 178.594C269.786 178.342 270.304 178.216 270.883 178.216Z" fill="#5F5F5F"/>
<rect x="494" width="135" height="41" rx="20" fill="white"/>
<path d="M511.378 18.028C511.378 18.868 511.103 19.5447 510.552 20.058C510.001 20.5713 509.175 20.828 508.074 20.828H506.1V25H505.12V15.214H508.074C509.166 15.214 509.987 15.4707 510.538 15.984C511.098 16.4973 511.378 17.1787 511.378 18.028ZM508.074 19.988C509.605 19.988 510.37 19.3347 510.37 18.028C510.37 17.3747 510.188 16.88 509.824 16.544C509.46 16.208 508.877 16.04 508.074 16.04H506.1V19.988H508.074ZM514.719 18.714C514.933 18.238 515.26 17.8693 515.699 17.608C516.147 17.3467 516.693 17.216 517.337 17.216V18.238H517.071C516.361 18.238 515.792 18.4293 515.363 18.812C514.933 19.1947 514.719 19.834 514.719 20.73V25H513.739V17.356H514.719V18.714ZM522.873 25.112C522.155 25.112 521.506 24.9533 520.927 24.636C520.358 24.3093 519.905 23.852 519.569 23.264C519.243 22.6667 519.079 21.9713 519.079 21.178C519.079 20.3847 519.247 19.694 519.583 19.106C519.919 18.5087 520.377 18.0513 520.955 17.734C521.534 17.4073 522.183 17.244 522.901 17.244C523.62 17.244 524.269 17.4073 524.847 17.734C525.435 18.0513 525.893 18.5087 526.219 19.106C526.555 19.694 526.723 20.3847 526.723 21.178C526.723 21.962 526.555 22.6527 526.219 23.25C525.883 23.8473 525.421 24.3093 524.833 24.636C524.245 24.9533 523.592 25.112 522.873 25.112ZM522.873 24.258C523.377 24.258 523.844 24.146 524.273 23.922C524.703 23.6887 525.048 23.3433 525.309 22.886C525.58 22.4193 525.715 21.85 525.715 21.178C525.715 20.506 525.585 19.9413 525.323 19.484C525.062 19.0173 524.717 18.672 524.287 18.448C523.858 18.2147 523.391 18.098 522.887 18.098C522.383 18.098 521.917 18.2147 521.487 18.448C521.058 18.672 520.713 19.0173 520.451 19.484C520.199 19.9413 520.073 20.506 520.073 21.178C520.073 21.85 520.199 22.4193 520.451 22.886C520.713 23.3433 521.053 23.6887 521.473 23.922C521.903 24.146 522.369 24.258 522.873 24.258ZM528.778 21.164C528.778 20.38 528.937 19.694 529.254 19.106C529.572 18.5087 530.006 18.0513 530.556 17.734C531.116 17.4073 531.746 17.244 532.446 17.244C533.118 17.244 533.725 17.4073 534.266 17.734C534.808 18.0607 535.204 18.4853 535.456 19.008V14.64H536.436V25H535.456V23.292C535.223 23.824 534.84 24.2627 534.308 24.608C533.776 24.944 533.151 25.112 532.432 25.112C531.732 25.112 531.102 24.9487 530.542 24.622C529.992 24.2953 529.558 23.8333 529.24 23.236C528.932 22.6387 528.778 21.948 528.778 21.164ZM535.456 21.178C535.456 20.562 535.33 20.0207 535.078 19.554C534.826 19.0873 534.481 18.728 534.042 18.476C533.613 18.224 533.137 18.098 532.614 18.098C532.073 18.098 531.588 18.2193 531.158 18.462C530.729 18.7047 530.388 19.0593 530.136 19.526C529.894 19.9833 529.772 20.5293 529.772 21.164C529.772 21.7893 529.894 22.34 530.136 22.816C530.388 23.2827 530.729 23.642 531.158 23.894C531.588 24.1367 532.073 24.258 532.614 24.258C533.137 24.258 533.613 24.132 534.042 23.88C534.481 23.628 534.826 23.2687 535.078 22.802C535.33 22.3353 535.456 21.794 535.456 21.178ZM546.012 17.356V25H545.032V23.656C544.808 24.132 544.463 24.496 543.996 24.748C543.529 25 543.007 25.126 542.428 25.126C541.513 25.126 540.767 24.846 540.188 24.286C539.609 23.7167 539.32 22.8953 539.32 21.822V17.356H540.286V21.71C540.286 22.5407 540.491 23.1753 540.902 23.614C541.322 24.0527 541.891 24.272 542.61 24.272C543.347 24.272 543.935 24.0387 544.374 23.572C544.813 23.1053 545.032 22.4193 545.032 21.514V17.356H546.012ZM548.518 21.178C548.518 20.3847 548.676 19.694 548.994 19.106C549.311 18.5087 549.75 18.0513 550.31 17.734C550.87 17.4073 551.509 17.244 552.228 17.244C553.17 17.244 553.945 17.4773 554.552 17.944C555.168 18.4107 555.564 19.0453 555.742 19.848H554.692C554.561 19.2973 554.276 18.868 553.838 18.56C553.408 18.2427 552.872 18.084 552.228 18.084C551.714 18.084 551.252 18.2007 550.842 18.434C550.431 18.6673 550.104 19.0173 549.862 19.484C549.628 19.9413 549.512 20.506 549.512 21.178C549.512 21.85 549.628 22.4193 549.862 22.886C550.104 23.3527 550.431 23.7027 550.842 23.936C551.252 24.1693 551.714 24.286 552.228 24.286C552.872 24.286 553.408 24.132 553.838 23.824C554.276 23.5067 554.561 23.068 554.692 22.508H555.742C555.564 23.292 555.168 23.922 554.552 24.398C553.936 24.874 553.161 25.112 552.228 25.112C551.509 25.112 550.87 24.9533 550.31 24.636C549.75 24.3093 549.311 23.852 548.994 23.264C548.676 22.6667 548.518 21.9713 548.518 21.178ZM559.542 18.182V22.928C559.542 23.3947 559.631 23.7167 559.808 23.894C559.985 24.0713 560.298 24.16 560.746 24.16H561.642V25H560.592C559.901 25 559.388 24.8413 559.052 24.524C558.716 24.1973 558.548 23.6653 558.548 22.928V18.182H557.484V17.356H558.548V15.438H559.542V17.356H561.642V18.182H559.542ZM571.431 15.214C572.513 15.214 573.442 15.41 574.217 15.802C574.991 16.194 575.584 16.7587 575.995 17.496C576.405 18.2333 576.611 19.1107 576.611 20.128C576.611 21.136 576.405 22.0087 575.995 22.746C575.584 23.474 574.991 24.034 574.217 24.426C573.442 24.8087 572.513 25 571.431 25H568.533V15.214H571.431ZM571.431 24.188C572.793 24.188 573.829 23.8333 574.539 23.124C575.257 22.4053 575.617 21.4067 575.617 20.128C575.617 18.84 575.257 17.8367 574.539 17.118C573.829 16.39 572.793 16.026 571.431 16.026H569.513V24.188H571.431ZM586.05 20.786C586.05 21.122 586.041 21.3787 586.022 21.556H579.68C579.708 22.1347 579.848 22.6293 580.1 23.04C580.352 23.4507 580.683 23.7633 581.094 23.978C581.505 24.1833 581.953 24.286 582.438 24.286C583.073 24.286 583.605 24.132 584.034 23.824C584.473 23.516 584.762 23.1007 584.902 22.578H585.938C585.751 23.3247 585.35 23.936 584.734 24.412C584.127 24.8787 583.362 25.112 582.438 25.112C581.719 25.112 581.075 24.9533 580.506 24.636C579.937 24.3093 579.489 23.852 579.162 23.264C578.845 22.6667 578.686 21.9713 578.686 21.178C578.686 20.3847 578.845 19.6893 579.162 19.092C579.479 18.4947 579.923 18.0373 580.492 17.72C581.061 17.4027 581.71 17.244 582.438 17.244C583.166 17.244 583.801 17.4027 584.342 17.72C584.893 18.0373 585.313 18.4667 585.602 19.008C585.901 19.54 586.05 20.1327 586.05 20.786ZM585.056 20.758C585.065 20.1887 584.949 19.7033 584.706 19.302C584.473 18.9007 584.151 18.5973 583.74 18.392C583.329 18.1867 582.881 18.084 582.396 18.084C581.668 18.084 581.047 18.3173 580.534 18.784C580.021 19.2507 579.736 19.9087 579.68 20.758H585.056ZM591.191 25.112C590.314 25.112 589.595 24.9113 589.035 24.51C588.485 24.0993 588.177 23.544 588.111 22.844H589.119C589.166 23.2733 589.367 23.6233 589.721 23.894C590.085 24.1553 590.571 24.286 591.177 24.286C591.709 24.286 592.125 24.16 592.423 23.908C592.731 23.656 592.885 23.3433 592.885 22.97C592.885 22.7087 592.801 22.494 592.633 22.326C592.465 22.158 592.251 22.0273 591.989 21.934C591.737 21.8313 591.392 21.724 590.953 21.612C590.384 21.4627 589.922 21.3133 589.567 21.164C589.213 21.0147 588.909 20.7953 588.657 20.506C588.415 20.2073 588.293 19.8107 588.293 19.316C588.293 18.9427 588.405 18.5973 588.629 18.28C588.853 17.9627 589.171 17.7107 589.581 17.524C589.992 17.3373 590.459 17.244 590.981 17.244C591.803 17.244 592.465 17.454 592.969 17.874C593.473 18.2847 593.744 18.854 593.781 19.582H592.801C592.773 19.134 592.596 18.7747 592.269 18.504C591.952 18.224 591.513 18.084 590.953 18.084C590.459 18.084 590.057 18.2007 589.749 18.434C589.441 18.6673 589.287 18.9567 589.287 19.302C589.287 19.6007 589.376 19.848 589.553 20.044C589.74 20.2307 589.969 20.38 590.239 20.492C590.51 20.5947 590.874 20.7113 591.331 20.842C591.882 20.9913 592.321 21.136 592.647 21.276C592.974 21.416 593.254 21.6213 593.487 21.892C593.721 22.1627 593.842 22.522 593.851 22.97C593.851 23.3807 593.739 23.7493 593.515 24.076C593.291 24.3933 592.979 24.6453 592.577 24.832C592.176 25.0187 591.714 25.112 591.191 25.112ZM596.902 15.914C596.706 15.914 596.538 15.844 596.398 15.704C596.258 15.564 596.188 15.3913 596.188 15.186C596.188 14.9807 596.258 14.8127 596.398 14.682C596.538 14.542 596.706 14.472 596.902 14.472C597.098 14.472 597.266 14.542 597.406 14.682C597.546 14.8127 597.616 14.9807 597.616 15.186C597.616 15.3913 597.546 15.564 597.406 15.704C597.266 15.844 597.098 15.914 596.902 15.914ZM597.392 17.356V25H596.412V17.356H597.392ZM603.534 17.244C604.253 17.244 604.878 17.412 605.41 17.748C605.942 18.084 606.325 18.5087 606.558 19.022V17.356H607.538V25.196C607.538 25.896 607.384 26.5167 607.076 27.058C606.777 27.5993 606.357 28.0147 605.816 28.304C605.275 28.6027 604.659 28.752 603.968 28.752C602.988 28.752 602.171 28.5187 601.518 28.052C600.874 27.5853 600.473 26.9507 600.314 26.148H601.28C601.448 26.68 601.765 27.1047 602.232 27.422C602.708 27.7393 603.287 27.898 603.968 27.898C604.463 27.898 604.906 27.7907 605.298 27.576C605.69 27.3707 605.998 27.0627 606.222 26.652C606.446 26.2413 606.558 25.756 606.558 25.196V23.306C606.315 23.8287 605.928 24.2627 605.396 24.608C604.873 24.944 604.253 25.112 603.534 25.112C602.834 25.112 602.204 24.9487 601.644 24.622C601.093 24.2953 600.659 23.8333 600.342 23.236C600.034 22.6387 599.88 21.948 599.88 21.164C599.88 20.38 600.034 19.694 600.342 19.106C600.659 18.5087 601.093 18.0513 601.644 17.734C602.204 17.4073 602.834 17.244 603.534 17.244ZM606.558 21.178C606.558 20.562 606.432 20.0207 606.18 19.554C605.928 19.0873 605.583 18.728 605.144 18.476C604.715 18.224 604.239 18.098 603.716 18.098C603.175 18.098 602.689 18.2193 602.26 18.462C601.831 18.7047 601.49 19.0593 601.238 19.526C600.995 19.9833 600.874 20.5293 600.874 21.164C600.874 21.7893 600.995 22.34 601.238 22.816C601.49 23.2827 601.831 23.642 602.26 23.894C602.689 24.1367 603.175 24.258 603.716 24.258C604.239 24.258 604.715 24.132 605.144 23.88C605.583 23.628 605.928 23.2687 606.18 22.802C606.432 22.3353 606.558 21.794 606.558 21.178ZM614.076 17.216C614.99 17.216 615.737 17.5007 616.316 18.07C616.894 18.63 617.184 19.4467 617.184 20.52V25H616.218V20.632C616.218 19.8013 616.008 19.1667 615.588 18.728C615.177 18.2893 614.612 18.07 613.894 18.07C613.156 18.07 612.568 18.3033 612.13 18.77C611.691 19.2367 611.472 19.9227 611.472 20.828V25H610.492V17.356H611.472V18.658C611.714 18.1913 612.064 17.8367 612.522 17.594C612.979 17.342 613.497 17.216 614.076 17.216Z" fill="#5F5F5F"/>
<rect x="376" y="246" width="93" height="41" rx="20" fill="white"/>
<path d="M394.386 261.214V271H393.406V266.422H388.1V271H387.12V261.214H388.1V265.61H393.406V261.214H394.386ZM403.064 261.214V262.026H400.348V271H399.368V262.026H396.638V261.214H403.064ZM414.89 261.34V271H413.91V263.286L410.466 271H409.752L406.308 263.314V271H405.328V261.34H406.364L410.102 269.712L413.84 261.34H414.89ZM418.81 270.202H422.324V271H417.83V261.214H418.81V270.202ZM428.793 257.84L424.929 273.324H423.963L427.799 257.84H428.793ZM430.887 266.1C430.887 265.139 431.097 264.28 431.517 263.524C431.937 262.759 432.511 262.166 433.239 261.746C433.967 261.317 434.779 261.102 435.675 261.102C436.767 261.102 437.7 261.363 438.475 261.886C439.259 262.399 439.828 263.127 440.183 264.07H439.035C438.755 263.407 438.325 262.889 437.747 262.516C437.177 262.143 436.487 261.956 435.675 261.956C434.956 261.956 434.307 262.124 433.729 262.46C433.159 262.796 432.711 263.281 432.385 263.916C432.058 264.541 431.895 265.269 431.895 266.1C431.895 266.931 432.058 267.659 432.385 268.284C432.711 268.909 433.159 269.39 433.729 269.726C434.307 270.062 434.956 270.23 435.675 270.23C436.487 270.23 437.177 270.048 437.747 269.684C438.325 269.311 438.755 268.797 439.035 268.144H440.183C439.828 269.077 439.259 269.801 438.475 270.314C437.691 270.827 436.757 271.084 435.675 271.084C434.779 271.084 433.967 270.874 433.239 270.454C432.511 270.025 431.937 269.432 431.517 268.676C431.097 267.92 430.887 267.061 430.887 266.1ZM445.82 271.098C445.176 271.098 444.607 270.986 444.112 270.762C443.627 270.538 443.244 270.225 442.964 269.824C442.684 269.423 442.535 268.975 442.516 268.48H443.552C443.599 268.956 443.809 269.376 444.182 269.74C444.555 270.095 445.101 270.272 445.82 270.272C446.483 270.272 447.005 270.104 447.388 269.768C447.78 269.423 447.976 268.989 447.976 268.466C447.976 268.046 447.869 267.71 447.654 267.458C447.439 267.197 447.173 267.005 446.856 266.884C446.539 266.753 446.1 266.613 445.54 266.464C444.887 266.287 444.369 266.114 443.986 265.946C443.603 265.778 443.277 265.517 443.006 265.162C442.735 264.807 442.6 264.327 442.6 263.72C442.6 263.216 442.731 262.768 442.992 262.376C443.253 261.975 443.622 261.662 444.098 261.438C444.574 261.214 445.12 261.102 445.736 261.102C446.641 261.102 447.369 261.326 447.92 261.774C448.48 262.213 448.802 262.782 448.886 263.482H447.822C447.757 263.081 447.537 262.726 447.164 262.418C446.791 262.101 446.287 261.942 445.652 261.942C445.064 261.942 444.574 262.101 444.182 262.418C443.79 262.726 443.594 263.151 443.594 263.692C443.594 264.103 443.701 264.434 443.916 264.686C444.131 264.938 444.397 265.129 444.714 265.26C445.041 265.391 445.479 265.531 446.03 265.68C446.665 265.857 447.178 266.035 447.57 266.212C447.962 266.38 448.293 266.641 448.564 266.996C448.835 267.351 448.97 267.827 448.97 268.424C448.97 268.881 448.849 269.315 448.606 269.726C448.363 270.137 448.004 270.468 447.528 270.72C447.052 270.972 446.483 271.098 445.82 271.098ZM454.548 271.098C453.904 271.098 453.335 270.986 452.84 270.762C452.355 270.538 451.972 270.225 451.692 269.824C451.412 269.423 451.263 268.975 451.244 268.48H452.28C452.327 268.956 452.537 269.376 452.91 269.74C453.283 270.095 453.829 270.272 454.548 270.272C455.211 270.272 455.733 270.104 456.116 269.768C456.508 269.423 456.704 268.989 456.704 268.466C456.704 268.046 456.597 267.71 456.382 267.458C456.167 267.197 455.901 267.005 455.584 266.884C455.267 266.753 454.828 266.613 454.268 266.464C453.615 266.287 453.097 266.114 452.714 265.946C452.331 265.778 452.005 265.517 451.734 265.162C451.463 264.807 451.328 264.327 451.328 263.72C451.328 263.216 451.459 262.768 451.72 262.376C451.981 261.975 452.35 261.662 452.826 261.438C453.302 261.214 453.848 261.102 454.464 261.102C455.369 261.102 456.097 261.326 456.648 261.774C457.208 262.213 457.53 262.782 457.614 263.482H456.55C456.485 263.081 456.265 262.726 455.892 262.418C455.519 262.101 455.015 261.942 454.38 261.942C453.792 261.942 453.302 262.101 452.91 262.418C452.518 262.726 452.322 263.151 452.322 263.692C452.322 264.103 452.429 264.434 452.644 264.686C452.859 264.938 453.125 265.129 453.442 265.26C453.769 265.391 454.207 265.531 454.758 265.68C455.393 265.857 455.906 266.035 456.298 266.212C456.69 266.38 457.021 266.641 457.292 266.996C457.563 267.351 457.698 267.827 457.698 268.424C457.698 268.881 457.577 269.315 457.334 269.726C457.091 270.137 456.732 270.468 456.256 270.72C455.78 270.972 455.211 271.098 454.548 271.098Z" fill="#5F5F5F"/>
<rect y="262" width="128" height="41" rx="20" fill="white"/>
<path d="M12.058 277.214V283.374C12.058 284.345 12.2867 285.063 12.744 285.53C13.2107 285.997 13.8453 286.23 14.648 286.23C15.4507 286.23 16.076 286.001 16.524 285.544C16.9813 285.077 17.21 284.354 17.21 283.374V277.214H18.19V283.36C18.19 284.601 17.8587 285.535 17.196 286.16C16.5427 286.785 15.6887 287.098 14.634 287.098C13.5793 287.098 12.7207 286.785 12.058 286.16C11.4047 285.535 11.078 284.601 11.078 283.36V277.214H12.058ZM23.7242 287.112C22.8469 287.112 22.1282 286.911 21.5682 286.51C21.0176 286.099 20.7096 285.544 20.6442 284.844H21.6522C21.6989 285.273 21.8996 285.623 22.2542 285.894C22.6182 286.155 23.1036 286.286 23.7102 286.286C24.2422 286.286 24.6576 286.16 24.9562 285.908C25.2642 285.656 25.4182 285.343 25.4182 284.97C25.4182 284.709 25.3342 284.494 25.1662 284.326C24.9982 284.158 24.7836 284.027 24.5222 283.934C24.2702 283.831 23.9249 283.724 23.4862 283.612C22.9169 283.463 22.4549 283.313 22.1002 283.164C21.7456 283.015 21.4422 282.795 21.1902 282.506C20.9476 282.207 20.8262 281.811 20.8262 281.316C20.8262 280.943 20.9382 280.597 21.1622 280.28C21.3862 279.963 21.7036 279.711 22.1142 279.524C22.5249 279.337 22.9916 279.244 23.5142 279.244C24.3356 279.244 24.9982 279.454 25.5022 279.874C26.0062 280.285 26.2769 280.854 26.3142 281.582H25.3342C25.3062 281.134 25.1289 280.775 24.8022 280.504C24.4849 280.224 24.0462 280.084 23.4862 280.084C22.9916 280.084 22.5902 280.201 22.2822 280.434C21.9742 280.667 21.8202 280.957 21.8202 281.302C21.8202 281.601 21.9089 281.848 22.0862 282.044C22.2729 282.231 22.5016 282.38 22.7722 282.492C23.0429 282.595 23.4069 282.711 23.8642 282.842C24.4149 282.991 24.8536 283.136 25.1802 283.276C25.5069 283.416 25.7869 283.621 26.0202 283.892C26.2536 284.163 26.3749 284.522 26.3842 284.97C26.3842 285.381 26.2722 285.749 26.0482 286.076C25.8242 286.393 25.5116 286.645 25.1102 286.832C24.7089 287.019 24.2469 287.112 23.7242 287.112ZM35.8613 282.786C35.8613 283.122 35.852 283.379 35.8333 283.556H29.4913C29.5193 284.135 29.6593 284.629 29.9113 285.04C30.1633 285.451 30.4947 285.763 30.9053 285.978C31.316 286.183 31.764 286.286 32.2493 286.286C32.884 286.286 33.416 286.132 33.8453 285.824C34.284 285.516 34.5733 285.101 34.7133 284.578H35.7493C35.5627 285.325 35.1613 285.936 34.5453 286.412C33.9387 286.879 33.1733 287.112 32.2493 287.112C31.5307 287.112 30.8867 286.953 30.3173 286.636C29.748 286.309 29.3 285.852 28.9733 285.264C28.656 284.667 28.4973 283.971 28.4973 283.178C28.4973 282.385 28.656 281.689 28.9733 281.092C29.2907 280.495 29.734 280.037 30.3033 279.72C30.8727 279.403 31.5213 279.244 32.2493 279.244C32.9773 279.244 33.612 279.403 34.1533 279.72C34.704 280.037 35.124 280.467 35.4133 281.008C35.712 281.54 35.8613 282.133 35.8613 282.786ZM34.8673 282.758C34.8767 282.189 34.76 281.703 34.5173 281.302C34.284 280.901 33.962 280.597 33.5513 280.392C33.1407 280.187 32.6927 280.084 32.2073 280.084C31.4793 280.084 30.8587 280.317 30.3453 280.784C29.832 281.251 29.5473 281.909 29.4913 282.758H34.8673ZM39.3507 280.714C39.5654 280.238 39.8921 279.869 40.3307 279.608C40.7787 279.347 41.3247 279.216 41.9687 279.216V280.238H41.7027C40.9934 280.238 40.4241 280.429 39.9947 280.812C39.5654 281.195 39.3507 281.834 39.3507 282.73V287H38.3707V279.356H39.3507V280.714ZM53.9255 287L51.5035 282.912H49.6975V287H48.7175V277.214H51.6575C52.7495 277.214 53.5755 277.475 54.1355 277.998C54.7049 278.521 54.9895 279.207 54.9895 280.056C54.9895 280.765 54.7842 281.372 54.3735 281.876C53.9722 282.371 53.3749 282.693 52.5815 282.842L55.1015 287H53.9255ZM49.6975 282.114H51.6715C52.4369 282.114 53.0109 281.927 53.3935 281.554C53.7855 281.181 53.9815 280.681 53.9815 280.056C53.9815 279.412 53.7949 278.917 53.4215 278.572C53.0482 278.217 52.4602 278.04 51.6575 278.04H49.6975V282.114ZM64.5667 282.786C64.5667 283.122 64.5574 283.379 64.5387 283.556H58.1967C58.2247 284.135 58.3647 284.629 58.6167 285.04C58.8687 285.451 59.2001 285.763 59.6107 285.978C60.0214 286.183 60.4694 286.286 60.9547 286.286C61.5894 286.286 62.1214 286.132 62.5507 285.824C62.9894 285.516 63.2787 285.101 63.4187 284.578H64.4547C64.2681 285.325 63.8667 285.936 63.2507 286.412C62.6441 286.879 61.8787 287.112 60.9547 287.112C60.2361 287.112 59.5921 286.953 59.0227 286.636C58.4534 286.309 58.0054 285.852 57.6787 285.264C57.3614 284.667 57.2027 283.971 57.2027 283.178C57.2027 282.385 57.3614 281.689 57.6787 281.092C57.9961 280.495 58.4394 280.037 59.0087 279.72C59.5781 279.403 60.2267 279.244 60.9547 279.244C61.6827 279.244 62.3174 279.403 62.8587 279.72C63.4094 280.037 63.8294 280.467 64.1187 281.008C64.4174 281.54 64.5667 282.133 64.5667 282.786ZM63.5727 282.758C63.5821 282.189 63.4654 281.703 63.2227 281.302C62.9894 280.901 62.6674 280.597 62.2567 280.392C61.8461 280.187 61.3981 280.084 60.9127 280.084C60.1847 280.084 59.5641 280.317 59.0507 280.784C58.5374 281.251 58.2527 281.909 58.1967 282.758H63.5727ZM69.7081 287.112C68.8308 287.112 68.1121 286.911 67.5521 286.51C67.0014 286.099 66.6934 285.544 66.6281 284.844H67.6361C67.6828 285.273 67.8834 285.623 68.2381 285.894C68.6021 286.155 69.0874 286.286 69.6941 286.286C70.2261 286.286 70.6414 286.16 70.9401 285.908C71.2481 285.656 71.4021 285.343 71.4021 284.97C71.4021 284.709 71.3181 284.494 71.1501 284.326C70.9821 284.158 70.7674 284.027 70.5061 283.934C70.2541 283.831 69.9088 283.724 69.4701 283.612C68.9008 283.463 68.4388 283.313 68.0841 283.164C67.7294 283.015 67.4261 282.795 67.1741 282.506C66.9314 282.207 66.8101 281.811 66.8101 281.316C66.8101 280.943 66.9221 280.597 67.1461 280.28C67.3701 279.963 67.6874 279.711 68.0981 279.524C68.5088 279.337 68.9754 279.244 69.4981 279.244C70.3194 279.244 70.9821 279.454 71.4861 279.874C71.9901 280.285 72.2608 280.854 72.2981 281.582H71.3181C71.2901 281.134 71.1128 280.775 70.7861 280.504C70.4688 280.224 70.0301 280.084 69.4701 280.084C68.9754 280.084 68.5741 280.201 68.2661 280.434C67.9581 280.667 67.8041 280.957 67.8041 281.302C67.8041 281.601 67.8928 281.848 68.0701 282.044C68.2568 282.231 68.4854 282.38 68.7561 282.492C69.0268 282.595 69.3908 282.711 69.8481 282.842C70.3988 282.991 70.8374 283.136 71.1641 283.276C71.4908 283.416 71.7708 283.621 72.0041 283.892C72.2374 284.163 72.3588 284.522 72.3681 284.97C72.3681 285.381 72.2561 285.749 72.0321 286.076C71.8081 286.393 71.4954 286.645 71.0941 286.832C70.6928 287.019 70.2308 287.112 69.7081 287.112ZM81.8452 282.786C81.8452 283.122 81.8359 283.379 81.8172 283.556H75.4752C75.5032 284.135 75.6432 284.629 75.8952 285.04C76.1472 285.451 76.4785 285.763 76.8892 285.978C77.2999 286.183 77.7479 286.286 78.2332 286.286C78.8679 286.286 79.3999 286.132 79.8292 285.824C80.2679 285.516 80.5572 285.101 80.6972 284.578H81.7332C81.5465 285.325 81.1452 285.936 80.5292 286.412C79.9225 286.879 79.1572 287.112 78.2332 287.112C77.5145 287.112 76.8705 286.953 76.3012 286.636C75.7319 286.309 75.2839 285.852 74.9572 285.264C74.6399 284.667 74.4812 283.971 74.4812 283.178C74.4812 282.385 74.6399 281.689 74.9572 281.092C75.2745 280.495 75.7179 280.037 76.2872 279.72C76.8565 279.403 77.5052 279.244 78.2332 279.244C78.9612 279.244 79.5959 279.403 80.1372 279.72C80.6879 280.037 81.1079 280.467 81.3972 281.008C81.6959 281.54 81.8452 282.133 81.8452 282.786ZM80.8512 282.758C80.8605 282.189 80.7439 281.703 80.5012 281.302C80.2679 280.901 79.9459 280.597 79.5352 280.392C79.1245 280.187 78.6765 280.084 78.1912 280.084C77.4632 280.084 76.8425 280.317 76.3292 280.784C75.8159 281.251 75.5312 281.909 75.4752 282.758H80.8512ZM83.9066 283.164C83.9066 282.38 84.0606 281.694 84.3686 281.106C84.6859 280.509 85.1199 280.051 85.6706 279.734C86.2306 279.407 86.8606 279.244 87.5606 279.244C88.2886 279.244 88.9139 279.412 89.4366 279.748C89.9686 280.084 90.3512 280.513 90.5846 281.036V279.356H91.5646V287H90.5846V285.306C90.3419 285.829 89.9546 286.263 89.4226 286.608C88.8999 286.944 88.2746 287.112 87.5466 287.112C86.8559 287.112 86.2306 286.949 85.6706 286.622C85.1199 286.295 84.6859 285.833 84.3686 285.236C84.0606 284.639 83.9066 283.948 83.9066 283.164ZM90.5846 283.178C90.5846 282.562 90.4586 282.021 90.2066 281.554C89.9546 281.087 89.6092 280.728 89.1706 280.476C88.7412 280.224 88.2652 280.098 87.7426 280.098C87.2012 280.098 86.7159 280.219 86.2866 280.462C85.8572 280.705 85.5166 281.059 85.2646 281.526C85.0219 281.983 84.9006 282.529 84.9006 283.164C84.9006 283.789 85.0219 284.34 85.2646 284.816C85.5166 285.283 85.8572 285.642 86.2866 285.894C86.7159 286.137 87.2012 286.258 87.7426 286.258C88.2652 286.258 88.7412 286.132 89.1706 285.88C89.6092 285.628 89.9546 285.269 90.2066 284.802C90.4586 284.335 90.5846 283.794 90.5846 283.178ZM95.4982 280.714C95.7129 280.238 96.0396 279.869 96.4782 279.608C96.9262 279.347 97.4722 279.216 98.1162 279.216V280.238H97.8502C97.1409 280.238 96.5716 280.429 96.1422 280.812C95.7129 281.195 95.4982 281.834 95.4982 282.73V287H94.5182V279.356H95.4982V280.714ZM99.8589 283.178C99.8589 282.385 100.018 281.694 100.335 281.106C100.652 280.509 101.091 280.051 101.651 279.734C102.211 279.407 102.85 279.244 103.569 279.244C104.512 279.244 105.286 279.477 105.893 279.944C106.509 280.411 106.906 281.045 107.083 281.848H106.033C105.902 281.297 105.618 280.868 105.179 280.56C104.75 280.243 104.213 280.084 103.569 280.084C103.056 280.084 102.594 280.201 102.183 280.434C101.772 280.667 101.446 281.017 101.203 281.484C100.97 281.941 100.853 282.506 100.853 283.178C100.853 283.85 100.97 284.419 101.203 284.886C101.446 285.353 101.772 285.703 102.183 285.936C102.594 286.169 103.056 286.286 103.569 286.286C104.213 286.286 104.75 286.132 105.179 285.824C105.618 285.507 105.902 285.068 106.033 284.508H107.083C106.906 285.292 106.509 285.922 105.893 286.398C105.277 286.874 104.502 287.112 103.569 287.112C102.85 287.112 102.211 286.953 101.651 286.636C101.091 286.309 100.652 285.852 100.335 285.264C100.018 284.667 99.8589 283.971 99.8589 283.178ZM113.249 279.216C113.828 279.216 114.346 279.337 114.803 279.58C115.27 279.823 115.634 280.196 115.895 280.7C116.166 281.195 116.301 281.801 116.301 282.52V287H115.335V282.632C115.335 281.801 115.125 281.167 114.705 280.728C114.295 280.289 113.73 280.07 113.011 280.07C112.274 280.07 111.686 280.303 111.247 280.77C110.809 281.237 110.589 281.923 110.589 282.828V287H109.609V276.64H110.589V280.658C110.832 280.201 111.187 279.846 111.653 279.594C112.129 279.342 112.661 279.216 113.249 279.216Z" fill="#5F5F5F"/>
<rect x="550" y="120" width="136" height="41" rx="20" fill="white"/>
<path d="M568.82 138.07C568.54 137.426 568.111 136.922 567.532 136.558C566.963 136.185 566.291 135.998 565.516 135.998C564.788 135.998 564.135 136.166 563.556 136.502C562.977 136.838 562.52 137.319 562.184 137.944C561.848 138.56 561.68 139.279 561.68 140.1C561.68 140.921 561.848 141.645 562.184 142.27C562.52 142.895 562.977 143.376 563.556 143.712C564.135 144.048 564.788 144.216 565.516 144.216C566.197 144.216 566.809 144.071 567.35 143.782C567.901 143.483 568.339 143.063 568.666 142.522C569.002 141.971 569.193 141.332 569.24 140.604H565.124V139.806H570.276V140.52C570.229 141.379 569.996 142.158 569.576 142.858C569.156 143.549 568.591 144.095 567.882 144.496C567.182 144.897 566.393 145.098 565.516 145.098C564.611 145.098 563.789 144.888 563.052 144.468C562.315 144.039 561.731 143.446 561.302 142.69C560.882 141.925 560.672 141.061 560.672 140.1C560.672 139.139 560.882 138.28 561.302 137.524C561.731 136.759 562.315 136.166 563.052 135.746C563.789 135.317 564.611 135.102 565.516 135.102C566.561 135.102 567.476 135.363 568.26 135.886C569.044 136.409 569.613 137.137 569.968 138.07H568.82ZM573.768 138.714C573.982 138.238 574.309 137.869 574.748 137.608C575.196 137.347 575.742 137.216 576.386 137.216V138.238H576.12C575.41 138.238 574.841 138.429 574.412 138.812C573.982 139.195 573.768 139.834 573.768 140.73V145H572.788V137.356H573.768V138.714ZM578.128 141.164C578.128 140.38 578.282 139.694 578.59 139.106C578.908 138.509 579.342 138.051 579.892 137.734C580.452 137.407 581.082 137.244 581.782 137.244C582.51 137.244 583.136 137.412 583.658 137.748C584.19 138.084 584.573 138.513 584.806 139.036V137.356H585.786V145H584.806V143.306C584.564 143.829 584.176 144.263 583.644 144.608C583.122 144.944 582.496 145.112 581.768 145.112C581.078 145.112 580.452 144.949 579.892 144.622C579.342 144.295 578.908 143.833 578.59 143.236C578.282 142.639 578.128 141.948 578.128 141.164ZM584.806 141.178C584.806 140.562 584.68 140.021 584.428 139.554C584.176 139.087 583.831 138.728 583.392 138.476C582.963 138.224 582.487 138.098 581.964 138.098C581.423 138.098 580.938 138.219 580.508 138.462C580.079 138.705 579.738 139.059 579.486 139.526C579.244 139.983 579.122 140.529 579.122 141.164C579.122 141.789 579.244 142.34 579.486 142.816C579.738 143.283 580.079 143.642 580.508 143.894C580.938 144.137 581.423 144.258 581.964 144.258C582.487 144.258 582.963 144.132 583.392 143.88C583.831 143.628 584.176 143.269 584.428 142.802C584.68 142.335 584.806 141.794 584.806 141.178ZM589.706 139.036C589.949 138.523 590.331 138.098 590.854 137.762C591.386 137.417 592.016 137.244 592.744 137.244C593.435 137.244 594.055 137.407 594.606 137.734C595.166 138.051 595.6 138.509 595.908 139.106C596.225 139.694 596.384 140.38 596.384 141.164C596.384 141.948 596.225 142.639 595.908 143.236C595.6 143.833 595.166 144.295 594.606 144.622C594.055 144.949 593.435 145.112 592.744 145.112C592.025 145.112 591.4 144.944 590.868 144.608C590.336 144.263 589.949 143.833 589.706 143.32V148.612H588.74V137.356H589.706V139.036ZM595.39 141.164C595.39 140.529 595.264 139.983 595.012 139.526C594.769 139.059 594.433 138.705 594.004 138.462C593.575 138.219 593.089 138.098 592.548 138.098C592.025 138.098 591.545 138.224 591.106 138.476C590.677 138.728 590.336 139.087 590.084 139.554C589.832 140.021 589.706 140.562 589.706 141.178C589.706 141.794 589.832 142.335 590.084 142.802C590.336 143.269 590.677 143.628 591.106 143.88C591.545 144.132 592.025 144.258 592.548 144.258C593.089 144.258 593.575 144.137 594.004 143.894C594.433 143.642 594.769 143.283 595.012 142.816C595.264 142.34 595.39 141.789 595.39 141.164ZM602.544 137.216C603.122 137.216 603.64 137.337 604.098 137.58C604.564 137.823 604.928 138.196 605.19 138.7C605.46 139.195 605.596 139.801 605.596 140.52V145H604.63V140.632C604.63 139.801 604.42 139.167 604 138.728C603.589 138.289 603.024 138.07 602.306 138.07C601.568 138.07 600.98 138.303 600.542 138.77C600.103 139.237 599.884 139.923 599.884 140.828V145H598.904V134.64H599.884V138.658C600.126 138.201 600.481 137.846 600.948 137.594C601.424 137.342 601.956 137.216 602.544 137.216ZM608.969 135.914C608.773 135.914 608.605 135.844 608.465 135.704C608.325 135.564 608.255 135.391 608.255 135.186C608.255 134.981 608.325 134.813 608.465 134.682C608.605 134.542 608.773 134.472 608.969 134.472C609.165 134.472 609.333 134.542 609.473 134.682C609.613 134.813 609.683 134.981 609.683 135.186C609.683 135.391 609.613 135.564 609.473 135.704C609.333 135.844 609.165 135.914 608.969 135.914ZM609.459 137.356V145H608.479V137.356H609.459ZM611.947 141.178C611.947 140.385 612.106 139.694 612.423 139.106C612.74 138.509 613.179 138.051 613.739 137.734C614.299 137.407 614.938 137.244 615.657 137.244C616.6 137.244 617.374 137.477 617.981 137.944C618.597 138.411 618.994 139.045 619.171 139.848H618.121C617.99 139.297 617.706 138.868 617.267 138.56C616.838 138.243 616.301 138.084 615.657 138.084C615.144 138.084 614.682 138.201 614.271 138.434C613.86 138.667 613.534 139.017 613.291 139.484C613.058 139.941 612.941 140.506 612.941 141.178C612.941 141.85 613.058 142.419 613.291 142.886C613.534 143.353 613.86 143.703 614.271 143.936C614.682 144.169 615.144 144.286 615.657 144.286C616.301 144.286 616.838 144.132 617.267 143.824C617.706 143.507 617.99 143.068 618.121 142.508H619.171C618.994 143.292 618.597 143.922 617.981 144.398C617.365 144.874 616.59 145.112 615.657 145.112C614.938 145.112 614.299 144.953 613.739 144.636C613.179 144.309 612.74 143.852 612.423 143.264C612.106 142.667 611.947 141.971 611.947 141.178ZM629.153 135.214C630.236 135.214 631.165 135.41 631.939 135.802C632.714 136.194 633.307 136.759 633.717 137.496C634.128 138.233 634.333 139.111 634.333 140.128C634.333 141.136 634.128 142.009 633.717 142.746C633.307 143.474 632.714 144.034 631.939 144.426C631.165 144.809 630.236 145 629.153 145H626.255V135.214H629.153ZM629.153 144.188C630.516 144.188 631.552 143.833 632.261 143.124C632.98 142.405 633.339 141.407 633.339 140.128C633.339 138.84 632.98 137.837 632.261 137.118C631.552 136.39 630.516 136.026 629.153 136.026H627.235V144.188H629.153ZM643.773 140.786C643.773 141.122 643.763 141.379 643.745 141.556H637.403C637.431 142.135 637.571 142.629 637.823 143.04C638.075 143.451 638.406 143.763 638.817 143.978C639.227 144.183 639.675 144.286 640.161 144.286C640.795 144.286 641.327 144.132 641.757 143.824C642.195 143.516 642.485 143.101 642.625 142.578H643.661C643.474 143.325 643.073 143.936 642.457 144.412C641.85 144.879 641.085 145.112 640.161 145.112C639.442 145.112 638.798 144.953 638.229 144.636C637.659 144.309 637.211 143.852 636.885 143.264C636.567 142.667 636.409 141.971 636.409 141.178C636.409 140.385 636.567 139.689 636.885 139.092C637.202 138.495 637.645 138.037 638.215 137.72C638.784 137.403 639.433 137.244 640.161 137.244C640.889 137.244 641.523 137.403 642.065 137.72C642.615 138.037 643.035 138.467 643.325 139.008C643.623 139.54 643.773 140.133 643.773 140.786ZM642.779 140.758C642.788 140.189 642.671 139.703 642.429 139.302C642.195 138.901 641.873 138.597 641.463 138.392C641.052 138.187 640.604 138.084 640.119 138.084C639.391 138.084 638.77 138.317 638.257 138.784C637.743 139.251 637.459 139.909 637.403 140.758H642.779ZM648.914 145.112C648.037 145.112 647.318 144.911 646.758 144.51C646.207 144.099 645.899 143.544 645.834 142.844H646.842C646.889 143.273 647.089 143.623 647.444 143.894C647.808 144.155 648.293 144.286 648.9 144.286C649.432 144.286 649.847 144.16 650.146 143.908C650.454 143.656 650.608 143.343 650.608 142.97C650.608 142.709 650.524 142.494 650.356 142.326C650.188 142.158 649.973 142.027 649.712 141.934C649.46 141.831 649.115 141.724 648.676 141.612C648.107 141.463 647.645 141.313 647.29 141.164C646.935 141.015 646.632 140.795 646.38 140.506C646.137 140.207 646.016 139.811 646.016 139.316C646.016 138.943 646.128 138.597 646.352 138.28C646.576 137.963 646.893 137.711 647.304 137.524C647.715 137.337 648.181 137.244 648.704 137.244C649.525 137.244 650.188 137.454 650.692 137.874C651.196 138.285 651.467 138.854 651.504 139.582H650.524C650.496 139.134 650.319 138.775 649.992 138.504C649.675 138.224 649.236 138.084 648.676 138.084C648.181 138.084 647.78 138.201 647.472 138.434C647.164 138.667 647.01 138.957 647.01 139.302C647.01 139.601 647.099 139.848 647.276 140.044C647.463 140.231 647.691 140.38 647.962 140.492C648.233 140.595 648.597 140.711 649.054 140.842C649.605 140.991 650.043 141.136 650.37 141.276C650.697 141.416 650.977 141.621 651.21 141.892C651.443 142.163 651.565 142.522 651.574 142.97C651.574 143.381 651.462 143.749 651.238 144.076C651.014 144.393 650.701 144.645 650.3 144.832C649.899 145.019 649.437 145.112 648.914 145.112ZM654.625 135.914C654.429 135.914 654.261 135.844 654.121 135.704C653.981 135.564 653.911 135.391 653.911 135.186C653.911 134.981 653.981 134.813 654.121 134.682C654.261 134.542 654.429 134.472 654.625 134.472C654.821 134.472 654.989 134.542 655.129 134.682C655.269 134.813 655.339 134.981 655.339 135.186C655.339 135.391 655.269 135.564 655.129 135.704C654.989 135.844 654.821 135.914 654.625 135.914ZM655.115 137.356V145H654.135V137.356H655.115ZM661.257 137.244C661.975 137.244 662.601 137.412 663.133 137.748C663.665 138.084 664.047 138.509 664.281 139.022V137.356H665.261V145.196C665.261 145.896 665.107 146.517 664.799 147.058C664.5 147.599 664.08 148.015 663.539 148.304C662.997 148.603 662.381 148.752 661.691 148.752C660.711 148.752 659.894 148.519 659.241 148.052C658.597 147.585 658.195 146.951 658.037 146.148H659.003C659.171 146.68 659.488 147.105 659.955 147.422C660.431 147.739 661.009 147.898 661.691 147.898C662.185 147.898 662.629 147.791 663.021 147.576C663.413 147.371 663.721 147.063 663.945 146.652C664.169 146.241 664.281 145.756 664.281 145.196V143.306C664.038 143.829 663.651 144.263 663.119 144.608C662.596 144.944 661.975 145.112 661.257 145.112C660.557 145.112 659.927 144.949 659.367 144.622C658.816 144.295 658.382 143.833 658.065 143.236C657.757 142.639 657.603 141.948 657.603 141.164C657.603 140.38 657.757 139.694 658.065 139.106C658.382 138.509 658.816 138.051 659.367 137.734C659.927 137.407 660.557 137.244 661.257 137.244ZM664.281 141.178C664.281 140.562 664.155 140.021 663.903 139.554C663.651 139.087 663.305 138.728 662.867 138.476C662.437 138.224 661.961 138.098 661.439 138.098C660.897 138.098 660.412 138.219 659.983 138.462C659.553 138.705 659.213 139.059 658.961 139.526C658.718 139.983 658.597 140.529 658.597 141.164C658.597 141.789 658.718 142.34 658.961 142.816C659.213 143.283 659.553 143.642 659.983 143.894C660.412 144.137 660.897 144.258 661.439 144.258C661.961 144.258 662.437 144.132 662.867 143.88C663.305 143.628 663.651 143.269 663.903 142.802C664.155 142.335 664.281 141.794 664.281 141.178ZM671.798 137.216C672.713 137.216 673.46 137.501 674.038 138.07C674.617 138.63 674.906 139.447 674.906 140.52V145H673.94V140.632C673.94 139.801 673.73 139.167 673.31 138.728C672.9 138.289 672.335 138.07 671.616 138.07C670.879 138.07 670.291 138.303 669.852 138.77C669.414 139.237 669.194 139.923 669.194 140.828V145H668.214V137.356H669.194V138.658C669.437 138.191 669.787 137.837 670.244 137.594C670.702 137.342 671.22 137.216 671.798 137.216Z" fill="#5F5F5F"/>
</svg>
