<svg width="702" height="303" viewBox="0 0 702 303" fill="none" xmlns="http://www.w3.org/2000/svg">
<rect x="144" y="262" width="116" height="41" rx="20" fill="white"/>
<path d="M156.058 277.214V283.374C156.058 284.345 156.287 285.063 156.744 285.53C157.211 285.997 157.845 286.23 158.648 286.23C159.451 286.23 160.076 286.001 160.524 285.544C160.981 285.077 161.21 284.354 161.21 283.374V277.214H162.19V283.36C162.19 284.601 161.859 285.535 161.196 286.16C160.543 286.785 159.689 287.098 158.634 287.098C157.579 287.098 156.721 286.785 156.058 286.16C155.405 285.535 155.078 284.601 155.078 283.36V277.214H156.058ZM166.072 277.214V287H165.092V277.214H166.072ZM173.362 273.84L169.498 289.324H168.532L172.368 273.84H173.362ZM176.842 277.214V283.374C176.842 284.345 177.071 285.063 177.528 285.53C177.995 285.997 178.629 286.23 179.432 286.23C180.235 286.23 180.86 286.001 181.308 285.544C181.765 285.077 181.994 284.354 181.994 283.374V277.214H182.974V283.36C182.974 284.601 182.643 285.535 181.98 286.16C181.327 286.785 180.473 287.098 179.418 287.098C178.363 287.098 177.505 286.785 176.842 286.16C176.189 285.535 175.862 284.601 175.862 283.36V277.214H176.842ZM189.404 282.114L192.372 287H191.28L188.788 282.912L186.422 287H185.33L188.284 282.072L185.33 277.214H186.422L188.9 281.288L191.294 277.214H192.386L189.404 282.114ZM202.238 277.214C203.321 277.214 204.25 277.41 205.024 277.802C205.799 278.194 206.392 278.759 206.802 279.496C207.213 280.233 207.418 281.111 207.418 282.128C207.418 283.136 207.213 284.009 206.802 284.746C206.392 285.474 205.799 286.034 205.024 286.426C204.25 286.809 203.321 287 202.238 287H199.34V277.214H202.238ZM202.238 286.188C203.601 286.188 204.637 285.833 205.346 285.124C206.065 284.405 206.424 283.407 206.424 282.128C206.424 280.84 206.065 279.837 205.346 279.118C204.637 278.39 203.601 278.026 202.238 278.026H200.32V286.188H202.238ZM216.857 282.786C216.857 283.122 216.848 283.379 216.829 283.556H210.487C210.515 284.135 210.655 284.629 210.907 285.04C211.159 285.451 211.491 285.763 211.901 285.978C212.312 286.183 212.76 286.286 213.245 286.286C213.88 286.286 214.412 286.132 214.841 285.824C215.28 285.516 215.569 285.101 215.709 284.578H216.745C216.559 285.325 216.157 285.936 215.541 286.412C214.935 286.879 214.169 287.112 213.245 287.112C212.527 287.112 211.883 286.953 211.313 286.636C210.744 286.309 210.296 285.852 209.969 285.264C209.652 284.667 209.493 283.971 209.493 283.178C209.493 282.385 209.652 281.689 209.969 281.092C210.287 280.495 210.73 280.037 211.299 279.72C211.869 279.403 212.517 279.244 213.245 279.244C213.973 279.244 214.608 279.403 215.149 279.72C215.7 280.037 216.12 280.467 216.409 281.008C216.708 281.54 216.857 282.133 216.857 282.786ZM215.863 282.758C215.873 282.189 215.756 281.703 215.513 281.302C215.28 280.901 214.958 280.597 214.547 280.392C214.137 280.187 213.689 280.084 213.203 280.084C212.475 280.084 211.855 280.317 211.341 280.784C210.828 281.251 210.543 281.909 210.487 282.758H215.863ZM221.999 287.112C221.121 287.112 220.403 286.911 219.843 286.51C219.292 286.099 218.984 285.544 218.919 284.844H219.927C219.973 285.273 220.174 285.623 220.529 285.894C220.893 286.155 221.378 286.286 221.985 286.286C222.517 286.286 222.932 286.16 223.231 285.908C223.539 285.656 223.693 285.343 223.693 284.97C223.693 284.709 223.609 284.494 223.441 284.326C223.273 284.158 223.058 284.027 222.797 283.934C222.545 283.831 222.199 283.724 221.761 283.612C221.191 283.463 220.729 283.313 220.375 283.164C220.02 283.015 219.717 282.795 219.465 282.506C219.222 282.207 219.101 281.811 219.101 281.316C219.101 280.943 219.213 280.597 219.437 280.28C219.661 279.963 219.978 279.711 220.389 279.524C220.799 279.337 221.266 279.244 221.789 279.244C222.61 279.244 223.273 279.454 223.777 279.874C224.281 280.285 224.551 280.854 224.589 281.582H223.609C223.581 281.134 223.403 280.775 223.077 280.504C222.759 280.224 222.321 280.084 221.761 280.084C221.266 280.084 220.865 280.201 220.557 280.434C220.249 280.667 220.095 280.957 220.095 281.302C220.095 281.601 220.183 281.848 220.361 282.044C220.547 282.231 220.776 282.38 221.047 282.492C221.317 282.595 221.681 282.711 222.139 282.842C222.689 282.991 223.128 283.136 223.455 283.276C223.781 283.416 224.061 283.621 224.295 283.892C224.528 284.163 224.649 284.522 224.659 284.97C224.659 285.381 224.547 285.749 224.323 286.076C224.099 286.393 223.786 286.645 223.385 286.832C222.983 287.019 222.521 287.112 221.999 287.112ZM227.71 277.914C227.514 277.914 227.346 277.844 227.206 277.704C227.066 277.564 226.996 277.391 226.996 277.186C226.996 276.981 227.066 276.813 227.206 276.682C227.346 276.542 227.514 276.472 227.71 276.472C227.906 276.472 228.074 276.542 228.214 276.682C228.354 276.813 228.424 276.981 228.424 277.186C228.424 277.391 228.354 277.564 228.214 277.704C228.074 277.844 227.906 277.914 227.71 277.914ZM228.2 279.356V287H227.22V279.356H228.2ZM234.341 279.244C235.06 279.244 235.685 279.412 236.217 279.748C236.749 280.084 237.132 280.509 237.365 281.022V279.356H238.345V287.196C238.345 287.896 238.191 288.517 237.883 289.058C237.585 289.599 237.165 290.015 236.623 290.304C236.082 290.603 235.466 290.752 234.775 290.752C233.795 290.752 232.979 290.519 232.325 290.052C231.681 289.585 231.28 288.951 231.121 288.148H232.087C232.255 288.68 232.573 289.105 233.039 289.422C233.515 289.739 234.094 289.898 234.775 289.898C235.27 289.898 235.713 289.791 236.105 289.576C236.497 289.371 236.805 289.063 237.029 288.652C237.253 288.241 237.365 287.756 237.365 287.196V285.306C237.123 285.829 236.735 286.263 236.203 286.608C235.681 286.944 235.06 287.112 234.341 287.112C233.641 287.112 233.011 286.949 232.451 286.622C231.901 286.295 231.467 285.833 231.149 285.236C230.841 284.639 230.687 283.948 230.687 283.164C230.687 282.38 230.841 281.694 231.149 281.106C231.467 280.509 231.901 280.051 232.451 279.734C233.011 279.407 233.641 279.244 234.341 279.244ZM237.365 283.178C237.365 282.562 237.239 282.021 236.987 281.554C236.735 281.087 236.39 280.728 235.951 280.476C235.522 280.224 235.046 280.098 234.523 280.098C233.982 280.098 233.497 280.219 233.067 280.462C232.638 280.705 232.297 281.059 232.045 281.526C231.803 281.983 231.681 282.529 231.681 283.164C231.681 283.789 231.803 284.34 232.045 284.816C232.297 285.283 232.638 285.642 233.067 285.894C233.497 286.137 233.982 286.258 234.523 286.258C235.046 286.258 235.522 286.132 235.951 285.88C236.39 285.628 236.735 285.269 236.987 284.802C237.239 284.335 237.365 283.794 237.365 283.178ZM244.883 279.216C245.798 279.216 246.544 279.501 247.123 280.07C247.702 280.63 247.991 281.447 247.991 282.52V287H247.025V282.632C247.025 281.801 246.815 281.167 246.395 280.728C245.984 280.289 245.42 280.07 244.701 280.07C243.964 280.07 243.376 280.303 242.937 280.77C242.498 281.237 242.279 281.923 242.279 282.828V287H241.299V279.356H242.279V280.658C242.522 280.191 242.872 279.837 243.329 279.594C243.786 279.342 244.304 279.216 244.883 279.216Z" fill="#5F5F5F"/>
<rect x="387" y="261.235" width="135" height="41" rx="20" fill="white"/>
<path d="M404.378 279.263C404.378 280.103 404.103 280.78 403.552 281.293C403.001 281.807 402.175 282.063 401.074 282.063H399.1V286.235H398.12V276.449H401.074C402.166 276.449 402.987 276.706 403.538 277.219C404.098 277.733 404.378 278.414 404.378 279.263ZM401.074 281.223C402.605 281.223 403.37 280.57 403.37 279.263C403.37 278.61 403.188 278.115 402.824 277.779C402.46 277.443 401.877 277.275 401.074 277.275H399.1V281.223H401.074ZM407.719 279.949C407.933 279.473 408.26 279.105 408.699 278.843C409.147 278.582 409.693 278.451 410.337 278.451V279.473H410.071C409.361 279.473 408.792 279.665 408.363 280.047C407.933 280.43 407.719 281.069 407.719 281.965V286.235H406.739V278.591H407.719V279.949ZM415.873 286.347C415.155 286.347 414.506 286.189 413.927 285.871C413.358 285.545 412.905 285.087 412.569 284.499C412.243 283.902 412.079 283.207 412.079 282.413C412.079 281.62 412.247 280.929 412.583 280.341C412.919 279.744 413.377 279.287 413.955 278.969C414.534 278.643 415.183 278.479 415.901 278.479C416.62 278.479 417.269 278.643 417.847 278.969C418.435 279.287 418.893 279.744 419.219 280.341C419.555 280.929 419.723 281.62 419.723 282.413C419.723 283.197 419.555 283.888 419.219 284.485C418.883 285.083 418.421 285.545 417.833 285.871C417.245 286.189 416.592 286.347 415.873 286.347ZM415.873 285.493C416.377 285.493 416.844 285.381 417.273 285.157C417.703 284.924 418.048 284.579 418.309 284.121C418.58 283.655 418.715 283.085 418.715 282.413C418.715 281.741 418.585 281.177 418.323 280.719C418.062 280.253 417.717 279.907 417.287 279.683C416.858 279.45 416.391 279.333 415.887 279.333C415.383 279.333 414.917 279.45 414.487 279.683C414.058 279.907 413.713 280.253 413.451 280.719C413.199 281.177 413.073 281.741 413.073 282.413C413.073 283.085 413.199 283.655 413.451 284.121C413.713 284.579 414.053 284.924 414.473 285.157C414.903 285.381 415.369 285.493 415.873 285.493ZM421.778 282.399C421.778 281.615 421.937 280.929 422.254 280.341C422.572 279.744 423.006 279.287 423.556 278.969C424.116 278.643 424.746 278.479 425.446 278.479C426.118 278.479 426.725 278.643 427.266 278.969C427.808 279.296 428.204 279.721 428.456 280.243V275.875H429.436V286.235H428.456V284.527C428.223 285.059 427.84 285.498 427.308 285.843C426.776 286.179 426.151 286.347 425.432 286.347C424.732 286.347 424.102 286.184 423.542 285.857C422.992 285.531 422.558 285.069 422.24 284.471C421.932 283.874 421.778 283.183 421.778 282.399ZM428.456 282.413C428.456 281.797 428.33 281.256 428.078 280.789C427.826 280.323 427.481 279.963 427.042 279.711C426.613 279.459 426.137 279.333 425.614 279.333C425.073 279.333 424.588 279.455 424.158 279.697C423.729 279.94 423.388 280.295 423.136 280.761C422.894 281.219 422.772 281.765 422.772 282.399C422.772 283.025 422.894 283.575 423.136 284.051C423.388 284.518 423.729 284.877 424.158 285.129C424.588 285.372 425.073 285.493 425.614 285.493C426.137 285.493 426.613 285.367 427.042 285.115C427.481 284.863 427.826 284.504 428.078 284.037C428.33 283.571 428.456 283.029 428.456 282.413ZM439.012 278.591V286.235H438.032V284.891C437.808 285.367 437.463 285.731 436.996 285.983C436.529 286.235 436.007 286.361 435.428 286.361C434.513 286.361 433.767 286.081 433.188 285.521C432.609 284.952 432.32 284.131 432.32 283.057V278.591H433.286V282.945C433.286 283.776 433.491 284.411 433.902 284.849C434.322 285.288 434.891 285.507 435.61 285.507C436.347 285.507 436.935 285.274 437.374 284.807C437.813 284.341 438.032 283.655 438.032 282.749V278.591H439.012ZM441.518 282.413C441.518 281.62 441.676 280.929 441.994 280.341C442.311 279.744 442.75 279.287 443.31 278.969C443.87 278.643 444.509 278.479 445.228 278.479C446.17 278.479 446.945 278.713 447.552 279.179C448.168 279.646 448.564 280.281 448.742 281.083H447.692C447.561 280.533 447.276 280.103 446.838 279.795C446.408 279.478 445.872 279.319 445.228 279.319C444.714 279.319 444.252 279.436 443.842 279.669C443.431 279.903 443.104 280.253 442.862 280.719C442.628 281.177 442.512 281.741 442.512 282.413C442.512 283.085 442.628 283.655 442.862 284.121C443.104 284.588 443.431 284.938 443.842 285.171C444.252 285.405 444.714 285.521 445.228 285.521C445.872 285.521 446.408 285.367 446.838 285.059C447.276 284.742 447.561 284.303 447.692 283.743H448.742C448.564 284.527 448.168 285.157 447.552 285.633C446.936 286.109 446.161 286.347 445.228 286.347C444.509 286.347 443.87 286.189 443.31 285.871C442.75 285.545 442.311 285.087 441.994 284.499C441.676 283.902 441.518 283.207 441.518 282.413ZM452.542 279.417V284.163C452.542 284.63 452.631 284.952 452.808 285.129C452.985 285.307 453.298 285.395 453.746 285.395H454.642V286.235H453.592C452.901 286.235 452.388 286.077 452.052 285.759C451.716 285.433 451.548 284.901 451.548 284.163V279.417H450.484V278.591H451.548V276.673H452.542V278.591H454.642V279.417H452.542ZM464.431 276.449C465.513 276.449 466.442 276.645 467.217 277.037C467.991 277.429 468.584 277.994 468.995 278.731C469.405 279.469 469.611 280.346 469.611 281.363C469.611 282.371 469.405 283.244 468.995 283.981C468.584 284.709 467.991 285.269 467.217 285.661C466.442 286.044 465.513 286.235 464.431 286.235H461.533V276.449H464.431ZM464.431 285.423C465.793 285.423 466.829 285.069 467.539 284.359C468.257 283.641 468.617 282.642 468.617 281.363C468.617 280.075 468.257 279.072 467.539 278.353C466.829 277.625 465.793 277.261 464.431 277.261H462.513V285.423H464.431ZM479.05 282.021C479.05 282.357 479.041 282.614 479.022 282.791H472.68C472.708 283.37 472.848 283.865 473.1 284.275C473.352 284.686 473.683 284.999 474.094 285.213C474.505 285.419 474.953 285.521 475.438 285.521C476.073 285.521 476.605 285.367 477.034 285.059C477.473 284.751 477.762 284.336 477.902 283.813H478.938C478.751 284.56 478.35 285.171 477.734 285.647C477.127 286.114 476.362 286.347 475.438 286.347C474.719 286.347 474.075 286.189 473.506 285.871C472.937 285.545 472.489 285.087 472.162 284.499C471.845 283.902 471.686 283.207 471.686 282.413C471.686 281.62 471.845 280.925 472.162 280.327C472.479 279.73 472.923 279.273 473.492 278.955C474.061 278.638 474.71 278.479 475.438 278.479C476.166 278.479 476.801 278.638 477.342 278.955C477.893 279.273 478.313 279.702 478.602 280.243C478.901 280.775 479.05 281.368 479.05 282.021ZM478.056 281.993C478.065 281.424 477.949 280.939 477.706 280.537C477.473 280.136 477.151 279.833 476.74 279.627C476.329 279.422 475.881 279.319 475.396 279.319C474.668 279.319 474.047 279.553 473.534 280.019C473.021 280.486 472.736 281.144 472.68 281.993H478.056ZM484.191 286.347C483.314 286.347 482.595 286.147 482.035 285.745C481.485 285.335 481.177 284.779 481.111 284.079H482.119C482.166 284.509 482.367 284.859 482.721 285.129C483.085 285.391 483.571 285.521 484.177 285.521C484.709 285.521 485.125 285.395 485.423 285.143C485.731 284.891 485.885 284.579 485.885 284.205C485.885 283.944 485.801 283.729 485.633 283.561C485.465 283.393 485.251 283.263 484.989 283.169C484.737 283.067 484.392 282.959 483.953 282.847C483.384 282.698 482.922 282.549 482.567 282.399C482.213 282.25 481.909 282.031 481.657 281.741C481.415 281.443 481.293 281.046 481.293 280.551C481.293 280.178 481.405 279.833 481.629 279.515C481.853 279.198 482.171 278.946 482.581 278.759C482.992 278.573 483.459 278.479 483.981 278.479C484.803 278.479 485.465 278.689 485.969 279.109C486.473 279.52 486.744 280.089 486.781 280.817H485.801C485.773 280.369 485.596 280.01 485.269 279.739C484.952 279.459 484.513 279.319 483.953 279.319C483.459 279.319 483.057 279.436 482.749 279.669C482.441 279.903 482.287 280.192 482.287 280.537C482.287 280.836 482.376 281.083 482.553 281.279C482.74 281.466 482.969 281.615 483.239 281.727C483.51 281.83 483.874 281.947 484.331 282.077C484.882 282.227 485.321 282.371 485.647 282.511C485.974 282.651 486.254 282.857 486.487 283.127C486.721 283.398 486.842 283.757 486.851 284.205C486.851 284.616 486.739 284.985 486.515 285.311C486.291 285.629 485.979 285.881 485.577 286.067C485.176 286.254 484.714 286.347 484.191 286.347ZM489.902 277.149C489.706 277.149 489.538 277.079 489.398 276.939C489.258 276.799 489.188 276.627 489.188 276.421C489.188 276.216 489.258 276.048 489.398 275.917C489.538 275.777 489.706 275.707 489.902 275.707C490.098 275.707 490.266 275.777 490.406 275.917C490.546 276.048 490.616 276.216 490.616 276.421C490.616 276.627 490.546 276.799 490.406 276.939C490.266 277.079 490.098 277.149 489.902 277.149ZM490.392 278.591V286.235H489.412V278.591H490.392ZM496.534 278.479C497.253 278.479 497.878 278.647 498.41 278.983C498.942 279.319 499.325 279.744 499.558 280.257V278.591H500.538V286.431C500.538 287.131 500.384 287.752 500.076 288.293C499.777 288.835 499.357 289.25 498.816 289.539C498.275 289.838 497.659 289.987 496.968 289.987C495.988 289.987 495.171 289.754 494.518 289.287C493.874 288.821 493.473 288.186 493.314 287.383H494.28C494.448 287.915 494.765 288.34 495.232 288.657C495.708 288.975 496.287 289.133 496.968 289.133C497.463 289.133 497.906 289.026 498.298 288.811C498.69 288.606 498.998 288.298 499.222 287.887C499.446 287.477 499.558 286.991 499.558 286.431V284.541C499.315 285.064 498.928 285.498 498.396 285.843C497.873 286.179 497.253 286.347 496.534 286.347C495.834 286.347 495.204 286.184 494.644 285.857C494.093 285.531 493.659 285.069 493.342 284.471C493.034 283.874 492.88 283.183 492.88 282.399C492.88 281.615 493.034 280.929 493.342 280.341C493.659 279.744 494.093 279.287 494.644 278.969C495.204 278.643 495.834 278.479 496.534 278.479ZM499.558 282.413C499.558 281.797 499.432 281.256 499.18 280.789C498.928 280.323 498.583 279.963 498.144 279.711C497.715 279.459 497.239 279.333 496.716 279.333C496.175 279.333 495.689 279.455 495.26 279.697C494.831 279.94 494.49 280.295 494.238 280.761C493.995 281.219 493.874 281.765 493.874 282.399C493.874 283.025 493.995 283.575 494.238 284.051C494.49 284.518 494.831 284.877 495.26 285.129C495.689 285.372 496.175 285.493 496.716 285.493C497.239 285.493 497.715 285.367 498.144 285.115C498.583 284.863 498.928 284.504 499.18 284.037C499.432 283.571 499.558 283.029 499.558 282.413ZM507.076 278.451C507.99 278.451 508.737 278.736 509.316 279.305C509.894 279.865 510.184 280.682 510.184 281.755V286.235H509.218V281.867C509.218 281.037 509.008 280.402 508.588 279.963C508.177 279.525 507.612 279.305 506.894 279.305C506.156 279.305 505.568 279.539 505.13 280.005C504.691 280.472 504.472 281.158 504.472 282.063V286.235H503.492V278.591H504.472V279.893C504.714 279.427 505.064 279.072 505.522 278.829C505.979 278.577 506.497 278.451 507.076 278.451Z" fill="#5F5F5F"/>
<rect x="277" y="262" width="93" height="41" rx="20" fill="white"/>
<path d="M295.386 277.214V287H294.406V282.422H289.1V287H288.12V277.214H289.1V281.61H294.406V277.214H295.386ZM304.064 277.214V278.026H301.348V287H300.368V278.026H297.638V277.214H304.064ZM315.89 277.34V287H314.91V279.286L311.466 287H310.752L307.308 279.314V287H306.328V277.34H307.364L311.102 285.712L314.84 277.34H315.89ZM319.81 286.202H323.324V287H318.83V277.214H319.81V286.202ZM329.793 273.84L325.929 289.324H324.963L328.799 273.84H329.793ZM331.887 282.1C331.887 281.139 332.097 280.28 332.517 279.524C332.937 278.759 333.511 278.166 334.239 277.746C334.967 277.317 335.779 277.102 336.675 277.102C337.767 277.102 338.7 277.363 339.475 277.886C340.259 278.399 340.828 279.127 341.183 280.07H340.035C339.755 279.407 339.325 278.889 338.747 278.516C338.177 278.143 337.487 277.956 336.675 277.956C335.956 277.956 335.307 278.124 334.729 278.46C334.159 278.796 333.711 279.281 333.385 279.916C333.058 280.541 332.895 281.269 332.895 282.1C332.895 282.931 333.058 283.659 333.385 284.284C333.711 284.909 334.159 285.39 334.729 285.726C335.307 286.062 335.956 286.23 336.675 286.23C337.487 286.23 338.177 286.048 338.747 285.684C339.325 285.311 339.755 284.797 340.035 284.144H341.183C340.828 285.077 340.259 285.801 339.475 286.314C338.691 286.827 337.757 287.084 336.675 287.084C335.779 287.084 334.967 286.874 334.239 286.454C333.511 286.025 332.937 285.432 332.517 284.676C332.097 283.92 331.887 283.061 331.887 282.1ZM346.82 287.098C346.176 287.098 345.607 286.986 345.112 286.762C344.627 286.538 344.244 286.225 343.964 285.824C343.684 285.423 343.535 284.975 343.516 284.48H344.552C344.599 284.956 344.809 285.376 345.182 285.74C345.555 286.095 346.101 286.272 346.82 286.272C347.483 286.272 348.005 286.104 348.388 285.768C348.78 285.423 348.976 284.989 348.976 284.466C348.976 284.046 348.869 283.71 348.654 283.458C348.439 283.197 348.173 283.005 347.856 282.884C347.539 282.753 347.1 282.613 346.54 282.464C345.887 282.287 345.369 282.114 344.986 281.946C344.603 281.778 344.277 281.517 344.006 281.162C343.735 280.807 343.6 280.327 343.6 279.72C343.6 279.216 343.731 278.768 343.992 278.376C344.253 277.975 344.622 277.662 345.098 277.438C345.574 277.214 346.12 277.102 346.736 277.102C347.641 277.102 348.369 277.326 348.92 277.774C349.48 278.213 349.802 278.782 349.886 279.482H348.822C348.757 279.081 348.537 278.726 348.164 278.418C347.791 278.101 347.287 277.942 346.652 277.942C346.064 277.942 345.574 278.101 345.182 278.418C344.79 278.726 344.594 279.151 344.594 279.692C344.594 280.103 344.701 280.434 344.916 280.686C345.131 280.938 345.397 281.129 345.714 281.26C346.041 281.391 346.479 281.531 347.03 281.68C347.665 281.857 348.178 282.035 348.57 282.212C348.962 282.38 349.293 282.641 349.564 282.996C349.835 283.351 349.97 283.827 349.97 284.424C349.97 284.881 349.849 285.315 349.606 285.726C349.363 286.137 349.004 286.468 348.528 286.72C348.052 286.972 347.483 287.098 346.82 287.098ZM355.548 287.098C354.904 287.098 354.335 286.986 353.84 286.762C353.355 286.538 352.972 286.225 352.692 285.824C352.412 285.423 352.263 284.975 352.244 284.48H353.28C353.327 284.956 353.537 285.376 353.91 285.74C354.283 286.095 354.829 286.272 355.548 286.272C356.211 286.272 356.733 286.104 357.116 285.768C357.508 285.423 357.704 284.989 357.704 284.466C357.704 284.046 357.597 283.71 357.382 283.458C357.167 283.197 356.901 283.005 356.584 282.884C356.267 282.753 355.828 282.613 355.268 282.464C354.615 282.287 354.097 282.114 353.714 281.946C353.331 281.778 353.005 281.517 352.734 281.162C352.463 280.807 352.328 280.327 352.328 279.72C352.328 279.216 352.459 278.768 352.72 278.376C352.981 277.975 353.35 277.662 353.826 277.438C354.302 277.214 354.848 277.102 355.464 277.102C356.369 277.102 357.097 277.326 357.648 277.774C358.208 278.213 358.53 278.782 358.614 279.482H357.55C357.485 279.081 357.265 278.726 356.892 278.418C356.519 278.101 356.015 277.942 355.38 277.942C354.792 277.942 354.302 278.101 353.91 278.418C353.518 278.726 353.322 279.151 353.322 279.692C353.322 280.103 353.429 280.434 353.644 280.686C353.859 280.938 354.125 281.129 354.442 281.26C354.769 281.391 355.207 281.531 355.758 281.68C356.393 281.857 356.906 282.035 357.298 282.212C357.69 282.38 358.021 282.641 358.292 282.996C358.563 283.351 358.698 283.827 358.698 284.424C358.698 284.881 358.577 285.315 358.334 285.726C358.091 286.137 357.732 286.468 357.256 286.72C356.78 286.972 356.211 287.098 355.548 287.098Z" fill="#5F5F5F"/>
<rect y="262" width="128" height="41" rx="20" fill="white"/>
<path d="M12.058 277.214V283.374C12.058 284.345 12.2867 285.063 12.744 285.53C13.2107 285.997 13.8453 286.23 14.648 286.23C15.4507 286.23 16.076 286.001 16.524 285.544C16.9813 285.077 17.21 284.354 17.21 283.374V277.214H18.19V283.36C18.19 284.601 17.8587 285.535 17.196 286.16C16.5427 286.785 15.6887 287.098 14.634 287.098C13.5793 287.098 12.7207 286.785 12.058 286.16C11.4047 285.535 11.078 284.601 11.078 283.36V277.214H12.058ZM23.7242 287.112C22.8469 287.112 22.1282 286.911 21.5682 286.51C21.0176 286.099 20.7096 285.544 20.6442 284.844H21.6522C21.6989 285.273 21.8996 285.623 22.2542 285.894C22.6182 286.155 23.1036 286.286 23.7102 286.286C24.2422 286.286 24.6576 286.16 24.9562 285.908C25.2642 285.656 25.4182 285.343 25.4182 284.97C25.4182 284.709 25.3342 284.494 25.1662 284.326C24.9982 284.158 24.7836 284.027 24.5222 283.934C24.2702 283.831 23.9249 283.724 23.4862 283.612C22.9169 283.463 22.4549 283.313 22.1002 283.164C21.7456 283.015 21.4422 282.795 21.1902 282.506C20.9476 282.207 20.8262 281.811 20.8262 281.316C20.8262 280.943 20.9382 280.597 21.1622 280.28C21.3862 279.963 21.7036 279.711 22.1142 279.524C22.5249 279.337 22.9916 279.244 23.5142 279.244C24.3356 279.244 24.9982 279.454 25.5022 279.874C26.0062 280.285 26.2769 280.854 26.3142 281.582H25.3342C25.3062 281.134 25.1289 280.775 24.8022 280.504C24.4849 280.224 24.0462 280.084 23.4862 280.084C22.9916 280.084 22.5902 280.201 22.2822 280.434C21.9742 280.667 21.8202 280.957 21.8202 281.302C21.8202 281.601 21.9089 281.848 22.0862 282.044C22.2729 282.231 22.5016 282.38 22.7722 282.492C23.0429 282.595 23.4069 282.711 23.8642 282.842C24.4149 282.991 24.8536 283.136 25.1802 283.276C25.5069 283.416 25.7869 283.621 26.0202 283.892C26.2536 284.163 26.3749 284.522 26.3842 284.97C26.3842 285.381 26.2722 285.749 26.0482 286.076C25.8242 286.393 25.5116 286.645 25.1102 286.832C24.7089 287.019 24.2469 287.112 23.7242 287.112ZM35.8613 282.786C35.8613 283.122 35.852 283.379 35.8333 283.556H29.4913C29.5193 284.135 29.6593 284.629 29.9113 285.04C30.1633 285.451 30.4947 285.763 30.9053 285.978C31.316 286.183 31.764 286.286 32.2493 286.286C32.884 286.286 33.416 286.132 33.8453 285.824C34.284 285.516 34.5733 285.101 34.7133 284.578H35.7493C35.5627 285.325 35.1613 285.936 34.5453 286.412C33.9387 286.879 33.1733 287.112 32.2493 287.112C31.5307 287.112 30.8867 286.953 30.3173 286.636C29.748 286.309 29.3 285.852 28.9733 285.264C28.656 284.667 28.4973 283.971 28.4973 283.178C28.4973 282.385 28.656 281.689 28.9733 281.092C29.2907 280.495 29.734 280.037 30.3033 279.72C30.8727 279.403 31.5213 279.244 32.2493 279.244C32.9773 279.244 33.612 279.403 34.1533 279.72C34.704 280.037 35.124 280.467 35.4133 281.008C35.712 281.54 35.8613 282.133 35.8613 282.786ZM34.8673 282.758C34.8767 282.189 34.76 281.703 34.5173 281.302C34.284 280.901 33.962 280.597 33.5513 280.392C33.1407 280.187 32.6927 280.084 32.2073 280.084C31.4793 280.084 30.8587 280.317 30.3453 280.784C29.832 281.251 29.5473 281.909 29.4913 282.758H34.8673ZM39.3507 280.714C39.5654 280.238 39.8921 279.869 40.3307 279.608C40.7787 279.347 41.3247 279.216 41.9687 279.216V280.238H41.7027C40.9934 280.238 40.4241 280.429 39.9947 280.812C39.5654 281.195 39.3507 281.834 39.3507 282.73V287H38.3707V279.356H39.3507V280.714ZM53.9255 287L51.5035 282.912H49.6975V287H48.7175V277.214H51.6575C52.7495 277.214 53.5755 277.475 54.1355 277.998C54.7049 278.521 54.9895 279.207 54.9895 280.056C54.9895 280.765 54.7842 281.372 54.3735 281.876C53.9722 282.371 53.3749 282.693 52.5815 282.842L55.1015 287H53.9255ZM49.6975 282.114H51.6715C52.4369 282.114 53.0109 281.927 53.3935 281.554C53.7855 281.181 53.9815 280.681 53.9815 280.056C53.9815 279.412 53.7949 278.917 53.4215 278.572C53.0482 278.217 52.4602 278.04 51.6575 278.04H49.6975V282.114ZM64.5667 282.786C64.5667 283.122 64.5574 283.379 64.5387 283.556H58.1967C58.2247 284.135 58.3647 284.629 58.6167 285.04C58.8687 285.451 59.2001 285.763 59.6107 285.978C60.0214 286.183 60.4694 286.286 60.9547 286.286C61.5894 286.286 62.1214 286.132 62.5507 285.824C62.9894 285.516 63.2787 285.101 63.4187 284.578H64.4547C64.2681 285.325 63.8667 285.936 63.2507 286.412C62.6441 286.879 61.8787 287.112 60.9547 287.112C60.2361 287.112 59.5921 286.953 59.0227 286.636C58.4534 286.309 58.0054 285.852 57.6787 285.264C57.3614 284.667 57.2027 283.971 57.2027 283.178C57.2027 282.385 57.3614 281.689 57.6787 281.092C57.9961 280.495 58.4394 280.037 59.0087 279.72C59.5781 279.403 60.2267 279.244 60.9547 279.244C61.6827 279.244 62.3174 279.403 62.8587 279.72C63.4094 280.037 63.8294 280.467 64.1187 281.008C64.4174 281.54 64.5667 282.133 64.5667 282.786ZM63.5727 282.758C63.5821 282.189 63.4654 281.703 63.2227 281.302C62.9894 280.901 62.6674 280.597 62.2567 280.392C61.8461 280.187 61.3981 280.084 60.9127 280.084C60.1847 280.084 59.5641 280.317 59.0507 280.784C58.5374 281.251 58.2527 281.909 58.1967 282.758H63.5727ZM69.7081 287.112C68.8308 287.112 68.1121 286.911 67.5521 286.51C67.0014 286.099 66.6934 285.544 66.6281 284.844H67.6361C67.6828 285.273 67.8834 285.623 68.2381 285.894C68.6021 286.155 69.0874 286.286 69.6941 286.286C70.2261 286.286 70.6414 286.16 70.9401 285.908C71.2481 285.656 71.4021 285.343 71.4021 284.97C71.4021 284.709 71.3181 284.494 71.1501 284.326C70.9821 284.158 70.7674 284.027 70.5061 283.934C70.2541 283.831 69.9088 283.724 69.4701 283.612C68.9008 283.463 68.4388 283.313 68.0841 283.164C67.7294 283.015 67.4261 282.795 67.1741 282.506C66.9314 282.207 66.8101 281.811 66.8101 281.316C66.8101 280.943 66.9221 280.597 67.1461 280.28C67.3701 279.963 67.6874 279.711 68.0981 279.524C68.5088 279.337 68.9754 279.244 69.4981 279.244C70.3194 279.244 70.9821 279.454 71.4861 279.874C71.9901 280.285 72.2608 280.854 72.2981 281.582H71.3181C71.2901 281.134 71.1128 280.775 70.7861 280.504C70.4688 280.224 70.0301 280.084 69.4701 280.084C68.9754 280.084 68.5741 280.201 68.2661 280.434C67.9581 280.667 67.8041 280.957 67.8041 281.302C67.8041 281.601 67.8928 281.848 68.0701 282.044C68.2568 282.231 68.4854 282.38 68.7561 282.492C69.0268 282.595 69.3908 282.711 69.8481 282.842C70.3988 282.991 70.8374 283.136 71.1641 283.276C71.4908 283.416 71.7708 283.621 72.0041 283.892C72.2374 284.163 72.3588 284.522 72.3681 284.97C72.3681 285.381 72.2561 285.749 72.0321 286.076C71.8081 286.393 71.4954 286.645 71.0941 286.832C70.6928 287.019 70.2308 287.112 69.7081 287.112ZM81.8452 282.786C81.8452 283.122 81.8359 283.379 81.8172 283.556H75.4752C75.5032 284.135 75.6432 284.629 75.8952 285.04C76.1472 285.451 76.4785 285.763 76.8892 285.978C77.2999 286.183 77.7479 286.286 78.2332 286.286C78.8679 286.286 79.3999 286.132 79.8292 285.824C80.2679 285.516 80.5572 285.101 80.6972 284.578H81.7332C81.5465 285.325 81.1452 285.936 80.5292 286.412C79.9225 286.879 79.1572 287.112 78.2332 287.112C77.5145 287.112 76.8705 286.953 76.3012 286.636C75.7319 286.309 75.2839 285.852 74.9572 285.264C74.6399 284.667 74.4812 283.971 74.4812 283.178C74.4812 282.385 74.6399 281.689 74.9572 281.092C75.2745 280.495 75.7179 280.037 76.2872 279.72C76.8565 279.403 77.5052 279.244 78.2332 279.244C78.9612 279.244 79.5959 279.403 80.1372 279.72C80.6879 280.037 81.1079 280.467 81.3972 281.008C81.6959 281.54 81.8452 282.133 81.8452 282.786ZM80.8512 282.758C80.8605 282.189 80.7439 281.703 80.5012 281.302C80.2679 280.901 79.9459 280.597 79.5352 280.392C79.1245 280.187 78.6765 280.084 78.1912 280.084C77.4632 280.084 76.8425 280.317 76.3292 280.784C75.8159 281.251 75.5312 281.909 75.4752 282.758H80.8512ZM83.9066 283.164C83.9066 282.38 84.0606 281.694 84.3686 281.106C84.6859 280.509 85.1199 280.051 85.6706 279.734C86.2306 279.407 86.8606 279.244 87.5606 279.244C88.2886 279.244 88.9139 279.412 89.4366 279.748C89.9686 280.084 90.3512 280.513 90.5846 281.036V279.356H91.5646V287H90.5846V285.306C90.3419 285.829 89.9546 286.263 89.4226 286.608C88.8999 286.944 88.2746 287.112 87.5466 287.112C86.8559 287.112 86.2306 286.949 85.6706 286.622C85.1199 286.295 84.6859 285.833 84.3686 285.236C84.0606 284.639 83.9066 283.948 83.9066 283.164ZM90.5846 283.178C90.5846 282.562 90.4586 282.021 90.2066 281.554C89.9546 281.087 89.6092 280.728 89.1706 280.476C88.7412 280.224 88.2652 280.098 87.7426 280.098C87.2012 280.098 86.7159 280.219 86.2866 280.462C85.8572 280.705 85.5166 281.059 85.2646 281.526C85.0219 281.983 84.9006 282.529 84.9006 283.164C84.9006 283.789 85.0219 284.34 85.2646 284.816C85.5166 285.283 85.8572 285.642 86.2866 285.894C86.7159 286.137 87.2012 286.258 87.7426 286.258C88.2652 286.258 88.7412 286.132 89.1706 285.88C89.6092 285.628 89.9546 285.269 90.2066 284.802C90.4586 284.335 90.5846 283.794 90.5846 283.178ZM95.4982 280.714C95.7129 280.238 96.0396 279.869 96.4782 279.608C96.9262 279.347 97.4722 279.216 98.1162 279.216V280.238H97.8502C97.1409 280.238 96.5716 280.429 96.1422 280.812C95.7129 281.195 95.4982 281.834 95.4982 282.73V287H94.5182V279.356H95.4982V280.714ZM99.8589 283.178C99.8589 282.385 100.018 281.694 100.335 281.106C100.652 280.509 101.091 280.051 101.651 279.734C102.211 279.407 102.85 279.244 103.569 279.244C104.512 279.244 105.286 279.477 105.893 279.944C106.509 280.411 106.906 281.045 107.083 281.848H106.033C105.902 281.297 105.618 280.868 105.179 280.56C104.75 280.243 104.213 280.084 103.569 280.084C103.056 280.084 102.594 280.201 102.183 280.434C101.772 280.667 101.446 281.017 101.203 281.484C100.97 281.941 100.853 282.506 100.853 283.178C100.853 283.85 100.97 284.419 101.203 284.886C101.446 285.353 101.772 285.703 102.183 285.936C102.594 286.169 103.056 286.286 103.569 286.286C104.213 286.286 104.75 286.132 105.179 285.824C105.618 285.507 105.902 285.068 106.033 284.508H107.083C106.906 285.292 106.509 285.922 105.893 286.398C105.277 286.874 104.502 287.112 103.569 287.112C102.85 287.112 102.211 286.953 101.651 286.636C101.091 286.309 100.652 285.852 100.335 285.264C100.018 284.667 99.8589 283.971 99.8589 283.178ZM113.249 279.216C113.828 279.216 114.346 279.337 114.803 279.58C115.27 279.823 115.634 280.196 115.895 280.7C116.166 281.195 116.301 281.801 116.301 282.52V287H115.335V282.632C115.335 281.801 115.125 281.167 114.705 280.728C114.295 280.289 113.73 280.07 113.011 280.07C112.274 280.07 111.686 280.303 111.247 280.77C110.809 281.237 110.589 281.923 110.589 282.828V287H109.609V276.64H110.589V280.658C110.832 280.201 111.187 279.846 111.653 279.594C112.129 279.342 112.661 279.216 113.249 279.216Z" fill="#5F5F5F"/>
<rect x="539" y="262" width="136" height="41" rx="20" fill="white"/>
<path d="M557.82 280.07C557.54 279.426 557.111 278.922 556.532 278.558C555.963 278.185 555.291 277.998 554.516 277.998C553.788 277.998 553.135 278.166 552.556 278.502C551.977 278.838 551.52 279.319 551.184 279.944C550.848 280.56 550.68 281.279 550.68 282.1C550.68 282.921 550.848 283.645 551.184 284.27C551.52 284.895 551.977 285.376 552.556 285.712C553.135 286.048 553.788 286.216 554.516 286.216C555.197 286.216 555.809 286.071 556.35 285.782C556.901 285.483 557.339 285.063 557.666 284.522C558.002 283.971 558.193 283.332 558.24 282.604H554.124V281.806H559.276V282.52C559.229 283.379 558.996 284.158 558.576 284.858C558.156 285.549 557.591 286.095 556.882 286.496C556.182 286.897 555.393 287.098 554.516 287.098C553.611 287.098 552.789 286.888 552.052 286.468C551.315 286.039 550.731 285.446 550.302 284.69C549.882 283.925 549.672 283.061 549.672 282.1C549.672 281.139 549.882 280.28 550.302 279.524C550.731 278.759 551.315 278.166 552.052 277.746C552.789 277.317 553.611 277.102 554.516 277.102C555.561 277.102 556.476 277.363 557.26 277.886C558.044 278.409 558.613 279.137 558.968 280.07H557.82ZM562.768 280.714C562.982 280.238 563.309 279.869 563.748 279.608C564.196 279.347 564.742 279.216 565.386 279.216V280.238H565.12C564.41 280.238 563.841 280.429 563.412 280.812C562.982 281.195 562.768 281.834 562.768 282.73V287H561.788V279.356H562.768V280.714ZM567.128 283.164C567.128 282.38 567.282 281.694 567.59 281.106C567.908 280.509 568.342 280.051 568.892 279.734C569.452 279.407 570.082 279.244 570.782 279.244C571.51 279.244 572.136 279.412 572.658 279.748C573.19 280.084 573.573 280.513 573.806 281.036V279.356H574.786V287H573.806V285.306C573.564 285.829 573.176 286.263 572.644 286.608C572.122 286.944 571.496 287.112 570.768 287.112C570.078 287.112 569.452 286.949 568.892 286.622C568.342 286.295 567.908 285.833 567.59 285.236C567.282 284.639 567.128 283.948 567.128 283.164ZM573.806 283.178C573.806 282.562 573.68 282.021 573.428 281.554C573.176 281.087 572.831 280.728 572.392 280.476C571.963 280.224 571.487 280.098 570.964 280.098C570.423 280.098 569.938 280.219 569.508 280.462C569.079 280.705 568.738 281.059 568.486 281.526C568.244 281.983 568.122 282.529 568.122 283.164C568.122 283.789 568.244 284.34 568.486 284.816C568.738 285.283 569.079 285.642 569.508 285.894C569.938 286.137 570.423 286.258 570.964 286.258C571.487 286.258 571.963 286.132 572.392 285.88C572.831 285.628 573.176 285.269 573.428 284.802C573.68 284.335 573.806 283.794 573.806 283.178ZM578.706 281.036C578.949 280.523 579.331 280.098 579.854 279.762C580.386 279.417 581.016 279.244 581.744 279.244C582.435 279.244 583.055 279.407 583.606 279.734C584.166 280.051 584.6 280.509 584.908 281.106C585.225 281.694 585.384 282.38 585.384 283.164C585.384 283.948 585.225 284.639 584.908 285.236C584.6 285.833 584.166 286.295 583.606 286.622C583.055 286.949 582.435 287.112 581.744 287.112C581.025 287.112 580.4 286.944 579.868 286.608C579.336 286.263 578.949 285.833 578.706 285.32V290.612H577.74V279.356H578.706V281.036ZM584.39 283.164C584.39 282.529 584.264 281.983 584.012 281.526C583.769 281.059 583.433 280.705 583.004 280.462C582.575 280.219 582.089 280.098 581.548 280.098C581.025 280.098 580.545 280.224 580.106 280.476C579.677 280.728 579.336 281.087 579.084 281.554C578.832 282.021 578.706 282.562 578.706 283.178C578.706 283.794 578.832 284.335 579.084 284.802C579.336 285.269 579.677 285.628 580.106 285.88C580.545 286.132 581.025 286.258 581.548 286.258C582.089 286.258 582.575 286.137 583.004 285.894C583.433 285.642 583.769 285.283 584.012 284.816C584.264 284.34 584.39 283.789 584.39 283.164ZM591.544 279.216C592.122 279.216 592.64 279.337 593.098 279.58C593.564 279.823 593.928 280.196 594.19 280.7C594.46 281.195 594.596 281.801 594.596 282.52V287H593.63V282.632C593.63 281.801 593.42 281.167 593 280.728C592.589 280.289 592.024 280.07 591.306 280.07C590.568 280.07 589.98 280.303 589.542 280.77C589.103 281.237 588.884 281.923 588.884 282.828V287H587.904V276.64H588.884V280.658C589.126 280.201 589.481 279.846 589.948 279.594C590.424 279.342 590.956 279.216 591.544 279.216ZM597.969 277.914C597.773 277.914 597.605 277.844 597.465 277.704C597.325 277.564 597.255 277.391 597.255 277.186C597.255 276.981 597.325 276.813 597.465 276.682C597.605 276.542 597.773 276.472 597.969 276.472C598.165 276.472 598.333 276.542 598.473 276.682C598.613 276.813 598.683 276.981 598.683 277.186C598.683 277.391 598.613 277.564 598.473 277.704C598.333 277.844 598.165 277.914 597.969 277.914ZM598.459 279.356V287H597.479V279.356H598.459ZM600.947 283.178C600.947 282.385 601.106 281.694 601.423 281.106C601.74 280.509 602.179 280.051 602.739 279.734C603.299 279.407 603.938 279.244 604.657 279.244C605.6 279.244 606.374 279.477 606.981 279.944C607.597 280.411 607.994 281.045 608.171 281.848H607.121C606.99 281.297 606.706 280.868 606.267 280.56C605.838 280.243 605.301 280.084 604.657 280.084C604.144 280.084 603.682 280.201 603.271 280.434C602.86 280.667 602.534 281.017 602.291 281.484C602.058 281.941 601.941 282.506 601.941 283.178C601.941 283.85 602.058 284.419 602.291 284.886C602.534 285.353 602.86 285.703 603.271 285.936C603.682 286.169 604.144 286.286 604.657 286.286C605.301 286.286 605.838 286.132 606.267 285.824C606.706 285.507 606.99 285.068 607.121 284.508H608.171C607.994 285.292 607.597 285.922 606.981 286.398C606.365 286.874 605.59 287.112 604.657 287.112C603.938 287.112 603.299 286.953 602.739 286.636C602.179 286.309 601.74 285.852 601.423 285.264C601.106 284.667 600.947 283.971 600.947 283.178ZM618.153 277.214C619.236 277.214 620.165 277.41 620.939 277.802C621.714 278.194 622.307 278.759 622.717 279.496C623.128 280.233 623.333 281.111 623.333 282.128C623.333 283.136 623.128 284.009 622.717 284.746C622.307 285.474 621.714 286.034 620.939 286.426C620.165 286.809 619.236 287 618.153 287H615.255V277.214H618.153ZM618.153 286.188C619.516 286.188 620.552 285.833 621.261 285.124C621.98 284.405 622.339 283.407 622.339 282.128C622.339 280.84 621.98 279.837 621.261 279.118C620.552 278.39 619.516 278.026 618.153 278.026H616.235V286.188H618.153ZM632.773 282.786C632.773 283.122 632.763 283.379 632.745 283.556H626.403C626.431 284.135 626.571 284.629 626.823 285.04C627.075 285.451 627.406 285.763 627.817 285.978C628.227 286.183 628.675 286.286 629.161 286.286C629.795 286.286 630.327 286.132 630.757 285.824C631.195 285.516 631.485 285.101 631.625 284.578H632.661C632.474 285.325 632.073 285.936 631.457 286.412C630.85 286.879 630.085 287.112 629.161 287.112C628.442 287.112 627.798 286.953 627.229 286.636C626.659 286.309 626.211 285.852 625.885 285.264C625.567 284.667 625.409 283.971 625.409 283.178C625.409 282.385 625.567 281.689 625.885 281.092C626.202 280.495 626.645 280.037 627.215 279.72C627.784 279.403 628.433 279.244 629.161 279.244C629.889 279.244 630.523 279.403 631.065 279.72C631.615 280.037 632.035 280.467 632.325 281.008C632.623 281.54 632.773 282.133 632.773 282.786ZM631.779 282.758C631.788 282.189 631.671 281.703 631.429 281.302C631.195 280.901 630.873 280.597 630.463 280.392C630.052 280.187 629.604 280.084 629.119 280.084C628.391 280.084 627.77 280.317 627.257 280.784C626.743 281.251 626.459 281.909 626.403 282.758H631.779ZM637.914 287.112C637.037 287.112 636.318 286.911 635.758 286.51C635.207 286.099 634.899 285.544 634.834 284.844H635.842C635.889 285.273 636.089 285.623 636.444 285.894C636.808 286.155 637.293 286.286 637.9 286.286C638.432 286.286 638.847 286.16 639.146 285.908C639.454 285.656 639.608 285.343 639.608 284.97C639.608 284.709 639.524 284.494 639.356 284.326C639.188 284.158 638.973 284.027 638.712 283.934C638.46 283.831 638.115 283.724 637.676 283.612C637.107 283.463 636.645 283.313 636.29 283.164C635.935 283.015 635.632 282.795 635.38 282.506C635.137 282.207 635.016 281.811 635.016 281.316C635.016 280.943 635.128 280.597 635.352 280.28C635.576 279.963 635.893 279.711 636.304 279.524C636.715 279.337 637.181 279.244 637.704 279.244C638.525 279.244 639.188 279.454 639.692 279.874C640.196 280.285 640.467 280.854 640.504 281.582H639.524C639.496 281.134 639.319 280.775 638.992 280.504C638.675 280.224 638.236 280.084 637.676 280.084C637.181 280.084 636.78 280.201 636.472 280.434C636.164 280.667 636.01 280.957 636.01 281.302C636.01 281.601 636.099 281.848 636.276 282.044C636.463 282.231 636.691 282.38 636.962 282.492C637.233 282.595 637.597 282.711 638.054 282.842C638.605 282.991 639.043 283.136 639.37 283.276C639.697 283.416 639.977 283.621 640.21 283.892C640.443 284.163 640.565 284.522 640.574 284.97C640.574 285.381 640.462 285.749 640.238 286.076C640.014 286.393 639.701 286.645 639.3 286.832C638.899 287.019 638.437 287.112 637.914 287.112ZM643.625 277.914C643.429 277.914 643.261 277.844 643.121 277.704C642.981 277.564 642.911 277.391 642.911 277.186C642.911 276.981 642.981 276.813 643.121 276.682C643.261 276.542 643.429 276.472 643.625 276.472C643.821 276.472 643.989 276.542 644.129 276.682C644.269 276.813 644.339 276.981 644.339 277.186C644.339 277.391 644.269 277.564 644.129 277.704C643.989 277.844 643.821 277.914 643.625 277.914ZM644.115 279.356V287H643.135V279.356H644.115ZM650.257 279.244C650.975 279.244 651.601 279.412 652.133 279.748C652.665 280.084 653.047 280.509 653.281 281.022V279.356H654.261V287.196C654.261 287.896 654.107 288.517 653.799 289.058C653.5 289.599 653.08 290.015 652.539 290.304C651.997 290.603 651.381 290.752 650.691 290.752C649.711 290.752 648.894 290.519 648.241 290.052C647.597 289.585 647.195 288.951 647.037 288.148H648.003C648.171 288.68 648.488 289.105 648.955 289.422C649.431 289.739 650.009 289.898 650.691 289.898C651.185 289.898 651.629 289.791 652.021 289.576C652.413 289.371 652.721 289.063 652.945 288.652C653.169 288.241 653.281 287.756 653.281 287.196V285.306C653.038 285.829 652.651 286.263 652.119 286.608C651.596 286.944 650.975 287.112 650.257 287.112C649.557 287.112 648.927 286.949 648.367 286.622C647.816 286.295 647.382 285.833 647.065 285.236C646.757 284.639 646.603 283.948 646.603 283.164C646.603 282.38 646.757 281.694 647.065 281.106C647.382 280.509 647.816 280.051 648.367 279.734C648.927 279.407 649.557 279.244 650.257 279.244ZM653.281 283.178C653.281 282.562 653.155 282.021 652.903 281.554C652.651 281.087 652.305 280.728 651.867 280.476C651.437 280.224 650.961 280.098 650.439 280.098C649.897 280.098 649.412 280.219 648.983 280.462C648.553 280.705 648.213 281.059 647.961 281.526C647.718 281.983 647.597 282.529 647.597 283.164C647.597 283.789 647.718 284.34 647.961 284.816C648.213 285.283 648.553 285.642 648.983 285.894C649.412 286.137 649.897 286.258 650.439 286.258C650.961 286.258 651.437 286.132 651.867 285.88C652.305 285.628 652.651 285.269 652.903 284.802C653.155 284.335 653.281 283.794 653.281 283.178ZM660.798 279.216C661.713 279.216 662.46 279.501 663.038 280.07C663.617 280.63 663.906 281.447 663.906 282.52V287H662.94V282.632C662.94 281.801 662.73 281.167 662.31 280.728C661.9 280.289 661.335 280.07 660.616 280.07C659.879 280.07 659.291 280.303 658.852 280.77C658.414 281.237 658.194 281.923 658.194 282.828V287H657.214V279.356H658.194V280.658C658.437 280.191 658.787 279.837 659.244 279.594C659.702 279.342 660.22 279.216 660.798 279.216Z" fill="#5F5F5F"/>
</svg>
