<svg width="702" height="303" viewBox="0 0 702 303" fill="none" xmlns="http://www.w3.org/2000/svg">
<rect x="170" y="252" width="116" height="41" rx="20" fill="white"/>
<path d="M182.058 267.214V273.374C182.058 274.345 182.287 275.063 182.744 275.53C183.211 275.997 183.845 276.23 184.648 276.23C185.451 276.23 186.076 276.001 186.524 275.544C186.981 275.077 187.21 274.354 187.21 273.374V267.214H188.19V273.36C188.19 274.601 187.859 275.535 187.196 276.16C186.543 276.785 185.689 277.098 184.634 277.098C183.579 277.098 182.721 276.785 182.058 276.16C181.405 275.535 181.078 274.601 181.078 273.36V267.214H182.058ZM192.072 267.214V277H191.092V267.214H192.072ZM199.362 263.84L195.498 279.324H194.532L198.368 263.84H199.362ZM202.842 267.214V273.374C202.842 274.345 203.071 275.063 203.528 275.53C203.995 275.997 204.629 276.23 205.432 276.23C206.235 276.23 206.86 276.001 207.308 275.544C207.765 275.077 207.994 274.354 207.994 273.374V267.214H208.974V273.36C208.974 274.601 208.643 275.535 207.98 276.16C207.327 276.785 206.473 277.098 205.418 277.098C204.363 277.098 203.505 276.785 202.842 276.16C202.189 275.535 201.862 274.601 201.862 273.36V267.214H202.842ZM215.404 272.114L218.372 277H217.28L214.788 272.912L212.422 277H211.33L214.284 272.072L211.33 267.214H212.422L214.9 271.288L217.294 267.214H218.386L215.404 272.114ZM228.238 267.214C229.321 267.214 230.25 267.41 231.024 267.802C231.799 268.194 232.392 268.759 232.802 269.496C233.213 270.233 233.418 271.111 233.418 272.128C233.418 273.136 233.213 274.009 232.802 274.746C232.392 275.474 231.799 276.034 231.024 276.426C230.25 276.809 229.321 277 228.238 277H225.34V267.214H228.238ZM228.238 276.188C229.601 276.188 230.637 275.833 231.346 275.124C232.065 274.405 232.424 273.407 232.424 272.128C232.424 270.84 232.065 269.837 231.346 269.118C230.637 268.39 229.601 268.026 228.238 268.026H226.32V276.188H228.238ZM242.857 272.786C242.857 273.122 242.848 273.379 242.829 273.556H236.487C236.515 274.135 236.655 274.629 236.907 275.04C237.159 275.451 237.491 275.763 237.901 275.978C238.312 276.183 238.76 276.286 239.245 276.286C239.88 276.286 240.412 276.132 240.841 275.824C241.28 275.516 241.569 275.101 241.709 274.578H242.745C242.559 275.325 242.157 275.936 241.541 276.412C240.935 276.879 240.169 277.112 239.245 277.112C238.527 277.112 237.883 276.953 237.313 276.636C236.744 276.309 236.296 275.852 235.969 275.264C235.652 274.667 235.493 273.971 235.493 273.178C235.493 272.385 235.652 271.689 235.969 271.092C236.287 270.495 236.73 270.037 237.299 269.72C237.869 269.403 238.517 269.244 239.245 269.244C239.973 269.244 240.608 269.403 241.149 269.72C241.7 270.037 242.12 270.467 242.409 271.008C242.708 271.54 242.857 272.133 242.857 272.786ZM241.863 272.758C241.873 272.189 241.756 271.703 241.513 271.302C241.28 270.901 240.958 270.597 240.547 270.392C240.137 270.187 239.689 270.084 239.203 270.084C238.475 270.084 237.855 270.317 237.341 270.784C236.828 271.251 236.543 271.909 236.487 272.758H241.863ZM247.999 277.112C247.121 277.112 246.403 276.911 245.843 276.51C245.292 276.099 244.984 275.544 244.919 274.844H245.927C245.973 275.273 246.174 275.623 246.529 275.894C246.893 276.155 247.378 276.286 247.985 276.286C248.517 276.286 248.932 276.16 249.231 275.908C249.539 275.656 249.693 275.343 249.693 274.97C249.693 274.709 249.609 274.494 249.441 274.326C249.273 274.158 249.058 274.027 248.797 273.934C248.545 273.831 248.199 273.724 247.761 273.612C247.191 273.463 246.729 273.313 246.375 273.164C246.02 273.015 245.717 272.795 245.465 272.506C245.222 272.207 245.101 271.811 245.101 271.316C245.101 270.943 245.213 270.597 245.437 270.28C245.661 269.963 245.978 269.711 246.389 269.524C246.799 269.337 247.266 269.244 247.789 269.244C248.61 269.244 249.273 269.454 249.777 269.874C250.281 270.285 250.551 270.854 250.589 271.582H249.609C249.581 271.134 249.403 270.775 249.077 270.504C248.759 270.224 248.321 270.084 247.761 270.084C247.266 270.084 246.865 270.201 246.557 270.434C246.249 270.667 246.095 270.957 246.095 271.302C246.095 271.601 246.183 271.848 246.361 272.044C246.547 272.231 246.776 272.38 247.047 272.492C247.317 272.595 247.681 272.711 248.139 272.842C248.689 272.991 249.128 273.136 249.455 273.276C249.781 273.416 250.061 273.621 250.295 273.892C250.528 274.163 250.649 274.522 250.659 274.97C250.659 275.381 250.547 275.749 250.323 276.076C250.099 276.393 249.786 276.645 249.385 276.832C248.983 277.019 248.521 277.112 247.999 277.112ZM253.71 267.914C253.514 267.914 253.346 267.844 253.206 267.704C253.066 267.564 252.996 267.391 252.996 267.186C252.996 266.981 253.066 266.813 253.206 266.682C253.346 266.542 253.514 266.472 253.71 266.472C253.906 266.472 254.074 266.542 254.214 266.682C254.354 266.813 254.424 266.981 254.424 267.186C254.424 267.391 254.354 267.564 254.214 267.704C254.074 267.844 253.906 267.914 253.71 267.914ZM254.2 269.356V277H253.22V269.356H254.2ZM260.341 269.244C261.06 269.244 261.685 269.412 262.217 269.748C262.749 270.084 263.132 270.509 263.365 271.022V269.356H264.345V277.196C264.345 277.896 264.191 278.517 263.883 279.058C263.585 279.599 263.165 280.015 262.623 280.304C262.082 280.603 261.466 280.752 260.775 280.752C259.795 280.752 258.979 280.519 258.325 280.052C257.681 279.585 257.28 278.951 257.121 278.148H258.087C258.255 278.68 258.573 279.105 259.039 279.422C259.515 279.739 260.094 279.898 260.775 279.898C261.27 279.898 261.713 279.791 262.105 279.576C262.497 279.371 262.805 279.063 263.029 278.652C263.253 278.241 263.365 277.756 263.365 277.196V275.306C263.123 275.829 262.735 276.263 262.203 276.608C261.681 276.944 261.06 277.112 260.341 277.112C259.641 277.112 259.011 276.949 258.451 276.622C257.901 276.295 257.467 275.833 257.149 275.236C256.841 274.639 256.687 273.948 256.687 273.164C256.687 272.38 256.841 271.694 257.149 271.106C257.467 270.509 257.901 270.051 258.451 269.734C259.011 269.407 259.641 269.244 260.341 269.244ZM263.365 273.178C263.365 272.562 263.239 272.021 262.987 271.554C262.735 271.087 262.39 270.728 261.951 270.476C261.522 270.224 261.046 270.098 260.523 270.098C259.982 270.098 259.497 270.219 259.067 270.462C258.638 270.705 258.297 271.059 258.045 271.526C257.803 271.983 257.681 272.529 257.681 273.164C257.681 273.789 257.803 274.34 258.045 274.816C258.297 275.283 258.638 275.642 259.067 275.894C259.497 276.137 259.982 276.258 260.523 276.258C261.046 276.258 261.522 276.132 261.951 275.88C262.39 275.628 262.735 275.269 262.987 274.802C263.239 274.335 263.365 273.794 263.365 273.178ZM270.883 269.216C271.798 269.216 272.544 269.501 273.123 270.07C273.702 270.63 273.991 271.447 273.991 272.52V277H273.025V272.632C273.025 271.801 272.815 271.167 272.395 270.728C271.984 270.289 271.42 270.07 270.701 270.07C269.964 270.07 269.376 270.303 268.937 270.77C268.498 271.237 268.279 271.923 268.279 272.828V277H267.299V269.356H268.279V270.658C268.522 270.191 268.872 269.837 269.329 269.594C269.786 269.342 270.304 269.216 270.883 269.216Z" fill="#5F5F5F"/>
<rect x="494" y="219.713" width="135" height="41" rx="20" fill="white"/>
<path d="M511.378 237.741C511.378 238.581 511.103 239.258 510.552 239.771C510.001 240.284 509.175 240.541 508.074 240.541H506.1V244.713H505.12V234.927H508.074C509.166 234.927 509.987 235.184 510.538 235.697C511.098 236.21 511.378 236.892 511.378 237.741ZM508.074 239.701C509.605 239.701 510.37 239.048 510.37 237.741C510.37 237.088 510.188 236.593 509.824 236.257C509.46 235.921 508.877 235.753 508.074 235.753H506.1V239.701H508.074ZM514.719 238.427C514.933 237.951 515.26 237.582 515.699 237.321C516.147 237.06 516.693 236.929 517.337 236.929V237.951H517.071C516.361 237.951 515.792 238.142 515.363 238.525C514.933 238.908 514.719 239.547 514.719 240.443V244.713H513.739V237.069H514.719V238.427ZM522.873 244.825C522.155 244.825 521.506 244.666 520.927 244.349C520.358 244.022 519.905 243.565 519.569 242.977C519.243 242.38 519.079 241.684 519.079 240.891C519.079 240.098 519.247 239.407 519.583 238.819C519.919 238.222 520.377 237.764 520.955 237.447C521.534 237.12 522.183 236.957 522.901 236.957C523.62 236.957 524.269 237.12 524.847 237.447C525.435 237.764 525.893 238.222 526.219 238.819C526.555 239.407 526.723 240.098 526.723 240.891C526.723 241.675 526.555 242.366 526.219 242.963C525.883 243.56 525.421 244.022 524.833 244.349C524.245 244.666 523.592 244.825 522.873 244.825ZM522.873 243.971C523.377 243.971 523.844 243.859 524.273 243.635C524.703 243.402 525.048 243.056 525.309 242.599C525.58 242.132 525.715 241.563 525.715 240.891C525.715 240.219 525.585 239.654 525.323 239.197C525.062 238.73 524.717 238.385 524.287 238.161C523.858 237.928 523.391 237.811 522.887 237.811C522.383 237.811 521.917 237.928 521.487 238.161C521.058 238.385 520.713 238.73 520.451 239.197C520.199 239.654 520.073 240.219 520.073 240.891C520.073 241.563 520.199 242.132 520.451 242.599C520.713 243.056 521.053 243.402 521.473 243.635C521.903 243.859 522.369 243.971 522.873 243.971ZM528.778 240.877C528.778 240.093 528.937 239.407 529.254 238.819C529.572 238.222 530.006 237.764 530.556 237.447C531.116 237.12 531.746 236.957 532.446 236.957C533.118 236.957 533.725 237.12 534.266 237.447C534.808 237.774 535.204 238.198 535.456 238.721V234.353H536.436V244.713H535.456V243.005C535.223 243.537 534.84 243.976 534.308 244.321C533.776 244.657 533.151 244.825 532.432 244.825C531.732 244.825 531.102 244.662 530.542 244.335C529.992 244.008 529.558 243.546 529.24 242.949C528.932 242.352 528.778 241.661 528.778 240.877ZM535.456 240.891C535.456 240.275 535.33 239.734 535.078 239.267C534.826 238.8 534.481 238.441 534.042 238.189C533.613 237.937 533.137 237.811 532.614 237.811C532.073 237.811 531.588 237.932 531.158 238.175C530.729 238.418 530.388 238.772 530.136 239.239C529.894 239.696 529.772 240.242 529.772 240.877C529.772 241.502 529.894 242.053 530.136 242.529C530.388 242.996 530.729 243.355 531.158 243.607C531.588 243.85 532.073 243.971 532.614 243.971C533.137 243.971 533.613 243.845 534.042 243.593C534.481 243.341 534.826 242.982 535.078 242.515C535.33 242.048 535.456 241.507 535.456 240.891ZM546.012 237.069V244.713H545.032V243.369C544.808 243.845 544.463 244.209 543.996 244.461C543.529 244.713 543.007 244.839 542.428 244.839C541.513 244.839 540.767 244.559 540.188 243.999C539.609 243.43 539.32 242.608 539.32 241.535V237.069H540.286V241.423C540.286 242.254 540.491 242.888 540.902 243.327C541.322 243.766 541.891 243.985 542.61 243.985C543.347 243.985 543.935 243.752 544.374 243.285C544.813 242.818 545.032 242.132 545.032 241.227V237.069H546.012ZM548.518 240.891C548.518 240.098 548.676 239.407 548.994 238.819C549.311 238.222 549.75 237.764 550.31 237.447C550.87 237.12 551.509 236.957 552.228 236.957C553.17 236.957 553.945 237.19 554.552 237.657C555.168 238.124 555.564 238.758 555.742 239.561H554.692C554.561 239.01 554.276 238.581 553.838 238.273C553.408 237.956 552.872 237.797 552.228 237.797C551.714 237.797 551.252 237.914 550.842 238.147C550.431 238.38 550.104 238.73 549.862 239.197C549.628 239.654 549.512 240.219 549.512 240.891C549.512 241.563 549.628 242.132 549.862 242.599C550.104 243.066 550.431 243.416 550.842 243.649C551.252 243.882 551.714 243.999 552.228 243.999C552.872 243.999 553.408 243.845 553.838 243.537C554.276 243.22 554.561 242.781 554.692 242.221H555.742C555.564 243.005 555.168 243.635 554.552 244.111C553.936 244.587 553.161 244.825 552.228 244.825C551.509 244.825 550.87 244.666 550.31 244.349C549.75 244.022 549.311 243.565 548.994 242.977C548.676 242.38 548.518 241.684 548.518 240.891ZM559.542 237.895V242.641C559.542 243.108 559.631 243.43 559.808 243.607C559.985 243.784 560.298 243.873 560.746 243.873H561.642V244.713H560.592C559.901 244.713 559.388 244.554 559.052 244.237C558.716 243.91 558.548 243.378 558.548 242.641V237.895H557.484V237.069H558.548V235.151H559.542V237.069H561.642V237.895H559.542ZM571.431 234.927C572.513 234.927 573.442 235.123 574.217 235.515C574.991 235.907 575.584 236.472 575.995 237.209C576.405 237.946 576.611 238.824 576.611 239.841C576.611 240.849 576.405 241.722 575.995 242.459C575.584 243.187 574.991 243.747 574.217 244.139C573.442 244.522 572.513 244.713 571.431 244.713H568.533V234.927H571.431ZM571.431 243.901C572.793 243.901 573.829 243.546 574.539 242.837C575.257 242.118 575.617 241.12 575.617 239.841C575.617 238.553 575.257 237.55 574.539 236.831C573.829 236.103 572.793 235.739 571.431 235.739H569.513V243.901H571.431ZM586.05 240.499C586.05 240.835 586.041 241.092 586.022 241.269H579.68C579.708 241.848 579.848 242.342 580.1 242.753C580.352 243.164 580.683 243.476 581.094 243.691C581.505 243.896 581.953 243.999 582.438 243.999C583.073 243.999 583.605 243.845 584.034 243.537C584.473 243.229 584.762 242.814 584.902 242.291H585.938C585.751 243.038 585.35 243.649 584.734 244.125C584.127 244.592 583.362 244.825 582.438 244.825C581.719 244.825 581.075 244.666 580.506 244.349C579.937 244.022 579.489 243.565 579.162 242.977C578.845 242.38 578.686 241.684 578.686 240.891C578.686 240.098 578.845 239.402 579.162 238.805C579.479 238.208 579.923 237.75 580.492 237.433C581.061 237.116 581.71 236.957 582.438 236.957C583.166 236.957 583.801 237.116 584.342 237.433C584.893 237.75 585.313 238.18 585.602 238.721C585.901 239.253 586.05 239.846 586.05 240.499ZM585.056 240.471C585.065 239.902 584.949 239.416 584.706 239.015C584.473 238.614 584.151 238.31 583.74 238.105C583.329 237.9 582.881 237.797 582.396 237.797C581.668 237.797 581.047 238.03 580.534 238.497C580.021 238.964 579.736 239.622 579.68 240.471H585.056ZM591.191 244.825C590.314 244.825 589.595 244.624 589.035 244.223C588.485 243.812 588.177 243.257 588.111 242.557H589.119C589.166 242.986 589.367 243.336 589.721 243.607C590.085 243.868 590.571 243.999 591.177 243.999C591.709 243.999 592.125 243.873 592.423 243.621C592.731 243.369 592.885 243.056 592.885 242.683C592.885 242.422 592.801 242.207 592.633 242.039C592.465 241.871 592.251 241.74 591.989 241.647C591.737 241.544 591.392 241.437 590.953 241.325C590.384 241.176 589.922 241.026 589.567 240.877C589.213 240.728 588.909 240.508 588.657 240.219C588.415 239.92 588.293 239.524 588.293 239.029C588.293 238.656 588.405 238.31 588.629 237.993C588.853 237.676 589.171 237.424 589.581 237.237C589.992 237.05 590.459 236.957 590.981 236.957C591.803 236.957 592.465 237.167 592.969 237.587C593.473 237.998 593.744 238.567 593.781 239.295H592.801C592.773 238.847 592.596 238.488 592.269 238.217C591.952 237.937 591.513 237.797 590.953 237.797C590.459 237.797 590.057 237.914 589.749 238.147C589.441 238.38 589.287 238.67 589.287 239.015C589.287 239.314 589.376 239.561 589.553 239.757C589.74 239.944 589.969 240.093 590.239 240.205C590.51 240.308 590.874 240.424 591.331 240.555C591.882 240.704 592.321 240.849 592.647 240.989C592.974 241.129 593.254 241.334 593.487 241.605C593.721 241.876 593.842 242.235 593.851 242.683C593.851 243.094 593.739 243.462 593.515 243.789C593.291 244.106 592.979 244.358 592.577 244.545C592.176 244.732 591.714 244.825 591.191 244.825ZM596.902 235.627C596.706 235.627 596.538 235.557 596.398 235.417C596.258 235.277 596.188 235.104 596.188 234.899C596.188 234.694 596.258 234.526 596.398 234.395C596.538 234.255 596.706 234.185 596.902 234.185C597.098 234.185 597.266 234.255 597.406 234.395C597.546 234.526 597.616 234.694 597.616 234.899C597.616 235.104 597.546 235.277 597.406 235.417C597.266 235.557 597.098 235.627 596.902 235.627ZM597.392 237.069V244.713H596.412V237.069H597.392ZM603.534 236.957C604.253 236.957 604.878 237.125 605.41 237.461C605.942 237.797 606.325 238.222 606.558 238.735V237.069H607.538V244.909C607.538 245.609 607.384 246.23 607.076 246.771C606.777 247.312 606.357 247.728 605.816 248.017C605.275 248.316 604.659 248.465 603.968 248.465C602.988 248.465 602.171 248.232 601.518 247.765C600.874 247.298 600.473 246.664 600.314 245.861H601.28C601.448 246.393 601.765 246.818 602.232 247.135C602.708 247.452 603.287 247.611 603.968 247.611C604.463 247.611 604.906 247.504 605.298 247.289C605.69 247.084 605.998 246.776 606.222 246.365C606.446 245.954 606.558 245.469 606.558 244.909V243.019C606.315 243.542 605.928 243.976 605.396 244.321C604.873 244.657 604.253 244.825 603.534 244.825C602.834 244.825 602.204 244.662 601.644 244.335C601.093 244.008 600.659 243.546 600.342 242.949C600.034 242.352 599.88 241.661 599.88 240.877C599.88 240.093 600.034 239.407 600.342 238.819C600.659 238.222 601.093 237.764 601.644 237.447C602.204 237.12 602.834 236.957 603.534 236.957ZM606.558 240.891C606.558 240.275 606.432 239.734 606.18 239.267C605.928 238.8 605.583 238.441 605.144 238.189C604.715 237.937 604.239 237.811 603.716 237.811C603.175 237.811 602.689 237.932 602.26 238.175C601.831 238.418 601.49 238.772 601.238 239.239C600.995 239.696 600.874 240.242 600.874 240.877C600.874 241.502 600.995 242.053 601.238 242.529C601.49 242.996 601.831 243.355 602.26 243.607C602.689 243.85 603.175 243.971 603.716 243.971C604.239 243.971 604.715 243.845 605.144 243.593C605.583 243.341 605.928 242.982 606.18 242.515C606.432 242.048 606.558 241.507 606.558 240.891ZM614.076 236.929C614.99 236.929 615.737 237.214 616.316 237.783C616.894 238.343 617.184 239.16 617.184 240.233V244.713H616.218V240.345C616.218 239.514 616.008 238.88 615.588 238.441C615.177 238.002 614.612 237.783 613.894 237.783C613.156 237.783 612.568 238.016 612.13 238.483C611.691 238.95 611.472 239.636 611.472 240.541V244.713H610.492V237.069H611.472V238.371C611.714 237.904 612.064 237.55 612.522 237.307C612.979 237.055 613.497 236.929 614.076 236.929Z" fill="#5F5F5F"/>
<rect x="376" y="253" width="93" height="41" rx="20" fill="white"/>
<path d="M394.386 268.214V278H393.406V273.422H388.1V278H387.12V268.214H388.1V272.61H393.406V268.214H394.386ZM403.064 268.214V269.026H400.348V278H399.368V269.026H396.638V268.214H403.064ZM414.89 268.34V278H413.91V270.286L410.466 278H409.752L406.308 270.314V278H405.328V268.34H406.364L410.102 276.712L413.84 268.34H414.89ZM418.81 277.202H422.324V278H417.83V268.214H418.81V277.202ZM428.793 264.84L424.929 280.324H423.963L427.799 264.84H428.793ZM430.887 273.1C430.887 272.139 431.097 271.28 431.517 270.524C431.937 269.759 432.511 269.166 433.239 268.746C433.967 268.317 434.779 268.102 435.675 268.102C436.767 268.102 437.7 268.363 438.475 268.886C439.259 269.399 439.828 270.127 440.183 271.07H439.035C438.755 270.407 438.325 269.889 437.747 269.516C437.177 269.143 436.487 268.956 435.675 268.956C434.956 268.956 434.307 269.124 433.729 269.46C433.159 269.796 432.711 270.281 432.385 270.916C432.058 271.541 431.895 272.269 431.895 273.1C431.895 273.931 432.058 274.659 432.385 275.284C432.711 275.909 433.159 276.39 433.729 276.726C434.307 277.062 434.956 277.23 435.675 277.23C436.487 277.23 437.177 277.048 437.747 276.684C438.325 276.311 438.755 275.797 439.035 275.144H440.183C439.828 276.077 439.259 276.801 438.475 277.314C437.691 277.827 436.757 278.084 435.675 278.084C434.779 278.084 433.967 277.874 433.239 277.454C432.511 277.025 431.937 276.432 431.517 275.676C431.097 274.92 430.887 274.061 430.887 273.1ZM445.82 278.098C445.176 278.098 444.607 277.986 444.112 277.762C443.627 277.538 443.244 277.225 442.964 276.824C442.684 276.423 442.535 275.975 442.516 275.48H443.552C443.599 275.956 443.809 276.376 444.182 276.74C444.555 277.095 445.101 277.272 445.82 277.272C446.483 277.272 447.005 277.104 447.388 276.768C447.78 276.423 447.976 275.989 447.976 275.466C447.976 275.046 447.869 274.71 447.654 274.458C447.439 274.197 447.173 274.005 446.856 273.884C446.539 273.753 446.1 273.613 445.54 273.464C444.887 273.287 444.369 273.114 443.986 272.946C443.603 272.778 443.277 272.517 443.006 272.162C442.735 271.807 442.6 271.327 442.6 270.72C442.6 270.216 442.731 269.768 442.992 269.376C443.253 268.975 443.622 268.662 444.098 268.438C444.574 268.214 445.12 268.102 445.736 268.102C446.641 268.102 447.369 268.326 447.92 268.774C448.48 269.213 448.802 269.782 448.886 270.482H447.822C447.757 270.081 447.537 269.726 447.164 269.418C446.791 269.101 446.287 268.942 445.652 268.942C445.064 268.942 444.574 269.101 444.182 269.418C443.79 269.726 443.594 270.151 443.594 270.692C443.594 271.103 443.701 271.434 443.916 271.686C444.131 271.938 444.397 272.129 444.714 272.26C445.041 272.391 445.479 272.531 446.03 272.68C446.665 272.857 447.178 273.035 447.57 273.212C447.962 273.38 448.293 273.641 448.564 273.996C448.835 274.351 448.97 274.827 448.97 275.424C448.97 275.881 448.849 276.315 448.606 276.726C448.363 277.137 448.004 277.468 447.528 277.72C447.052 277.972 446.483 278.098 445.82 278.098ZM454.548 278.098C453.904 278.098 453.335 277.986 452.84 277.762C452.355 277.538 451.972 277.225 451.692 276.824C451.412 276.423 451.263 275.975 451.244 275.48H452.28C452.327 275.956 452.537 276.376 452.91 276.74C453.283 277.095 453.829 277.272 454.548 277.272C455.211 277.272 455.733 277.104 456.116 276.768C456.508 276.423 456.704 275.989 456.704 275.466C456.704 275.046 456.597 274.71 456.382 274.458C456.167 274.197 455.901 274.005 455.584 273.884C455.267 273.753 454.828 273.613 454.268 273.464C453.615 273.287 453.097 273.114 452.714 272.946C452.331 272.778 452.005 272.517 451.734 272.162C451.463 271.807 451.328 271.327 451.328 270.72C451.328 270.216 451.459 269.768 451.72 269.376C451.981 268.975 452.35 268.662 452.826 268.438C453.302 268.214 453.848 268.102 454.464 268.102C455.369 268.102 456.097 268.326 456.648 268.774C457.208 269.213 457.53 269.782 457.614 270.482H456.55C456.485 270.081 456.265 269.726 455.892 269.418C455.519 269.101 455.015 268.942 454.38 268.942C453.792 268.942 453.302 269.101 452.91 269.418C452.518 269.726 452.322 270.151 452.322 270.692C452.322 271.103 452.429 271.434 452.644 271.686C452.859 271.938 453.125 272.129 453.442 272.26C453.769 272.391 454.207 272.531 454.758 272.68C455.393 272.857 455.906 273.035 456.298 273.212C456.69 273.38 457.021 273.641 457.292 273.996C457.563 274.351 457.698 274.827 457.698 275.424C457.698 275.881 457.577 276.315 457.334 276.726C457.091 277.137 456.732 277.468 456.256 277.72C455.78 277.972 455.211 278.098 454.548 278.098Z" fill="#5F5F5F"/>
<rect y="262" width="128" height="41" rx="20" fill="white"/>
<path d="M12.058 277.214V283.374C12.058 284.345 12.2867 285.063 12.744 285.53C13.2107 285.997 13.8453 286.23 14.648 286.23C15.4507 286.23 16.076 286.001 16.524 285.544C16.9813 285.077 17.21 284.354 17.21 283.374V277.214H18.19V283.36C18.19 284.601 17.8587 285.535 17.196 286.16C16.5427 286.785 15.6887 287.098 14.634 287.098C13.5793 287.098 12.7207 286.785 12.058 286.16C11.4047 285.535 11.078 284.601 11.078 283.36V277.214H12.058ZM23.7242 287.112C22.8469 287.112 22.1282 286.911 21.5682 286.51C21.0176 286.099 20.7096 285.544 20.6442 284.844H21.6522C21.6989 285.273 21.8996 285.623 22.2542 285.894C22.6182 286.155 23.1036 286.286 23.7102 286.286C24.2422 286.286 24.6576 286.16 24.9562 285.908C25.2642 285.656 25.4182 285.343 25.4182 284.97C25.4182 284.709 25.3342 284.494 25.1662 284.326C24.9982 284.158 24.7836 284.027 24.5222 283.934C24.2702 283.831 23.9249 283.724 23.4862 283.612C22.9169 283.463 22.4549 283.313 22.1002 283.164C21.7456 283.015 21.4422 282.795 21.1902 282.506C20.9476 282.207 20.8262 281.811 20.8262 281.316C20.8262 280.943 20.9382 280.597 21.1622 280.28C21.3862 279.963 21.7036 279.711 22.1142 279.524C22.5249 279.337 22.9916 279.244 23.5142 279.244C24.3356 279.244 24.9982 279.454 25.5022 279.874C26.0062 280.285 26.2769 280.854 26.3142 281.582H25.3342C25.3062 281.134 25.1289 280.775 24.8022 280.504C24.4849 280.224 24.0462 280.084 23.4862 280.084C22.9916 280.084 22.5902 280.201 22.2822 280.434C21.9742 280.667 21.8202 280.957 21.8202 281.302C21.8202 281.601 21.9089 281.848 22.0862 282.044C22.2729 282.231 22.5016 282.38 22.7722 282.492C23.0429 282.595 23.4069 282.711 23.8642 282.842C24.4149 282.991 24.8536 283.136 25.1802 283.276C25.5069 283.416 25.7869 283.621 26.0202 283.892C26.2536 284.163 26.3749 284.522 26.3842 284.97C26.3842 285.381 26.2722 285.749 26.0482 286.076C25.8242 286.393 25.5116 286.645 25.1102 286.832C24.7089 287.019 24.2469 287.112 23.7242 287.112ZM35.8613 282.786C35.8613 283.122 35.852 283.379 35.8333 283.556H29.4913C29.5193 284.135 29.6593 284.629 29.9113 285.04C30.1633 285.451 30.4947 285.763 30.9053 285.978C31.316 286.183 31.764 286.286 32.2493 286.286C32.884 286.286 33.416 286.132 33.8453 285.824C34.284 285.516 34.5733 285.101 34.7133 284.578H35.7493C35.5627 285.325 35.1613 285.936 34.5453 286.412C33.9387 286.879 33.1733 287.112 32.2493 287.112C31.5307 287.112 30.8867 286.953 30.3173 286.636C29.748 286.309 29.3 285.852 28.9733 285.264C28.656 284.667 28.4973 283.971 28.4973 283.178C28.4973 282.385 28.656 281.689 28.9733 281.092C29.2907 280.495 29.734 280.037 30.3033 279.72C30.8727 279.403 31.5213 279.244 32.2493 279.244C32.9773 279.244 33.612 279.403 34.1533 279.72C34.704 280.037 35.124 280.467 35.4133 281.008C35.712 281.54 35.8613 282.133 35.8613 282.786ZM34.8673 282.758C34.8767 282.189 34.76 281.703 34.5173 281.302C34.284 280.901 33.962 280.597 33.5513 280.392C33.1407 280.187 32.6927 280.084 32.2073 280.084C31.4793 280.084 30.8587 280.317 30.3453 280.784C29.832 281.251 29.5473 281.909 29.4913 282.758H34.8673ZM39.3507 280.714C39.5654 280.238 39.8921 279.869 40.3307 279.608C40.7787 279.347 41.3247 279.216 41.9687 279.216V280.238H41.7027C40.9934 280.238 40.4241 280.429 39.9947 280.812C39.5654 281.195 39.3507 281.834 39.3507 282.73V287H38.3707V279.356H39.3507V280.714ZM53.9255 287L51.5035 282.912H49.6975V287H48.7175V277.214H51.6575C52.7495 277.214 53.5755 277.475 54.1355 277.998C54.7049 278.521 54.9895 279.207 54.9895 280.056C54.9895 280.765 54.7842 281.372 54.3735 281.876C53.9722 282.371 53.3749 282.693 52.5815 282.842L55.1015 287H53.9255ZM49.6975 282.114H51.6715C52.4369 282.114 53.0109 281.927 53.3935 281.554C53.7855 281.181 53.9815 280.681 53.9815 280.056C53.9815 279.412 53.7949 278.917 53.4215 278.572C53.0482 278.217 52.4602 278.04 51.6575 278.04H49.6975V282.114ZM64.5667 282.786C64.5667 283.122 64.5574 283.379 64.5387 283.556H58.1967C58.2247 284.135 58.3647 284.629 58.6167 285.04C58.8687 285.451 59.2001 285.763 59.6107 285.978C60.0214 286.183 60.4694 286.286 60.9547 286.286C61.5894 286.286 62.1214 286.132 62.5507 285.824C62.9894 285.516 63.2787 285.101 63.4187 284.578H64.4547C64.2681 285.325 63.8667 285.936 63.2507 286.412C62.6441 286.879 61.8787 287.112 60.9547 287.112C60.2361 287.112 59.5921 286.953 59.0227 286.636C58.4534 286.309 58.0054 285.852 57.6787 285.264C57.3614 284.667 57.2027 283.971 57.2027 283.178C57.2027 282.385 57.3614 281.689 57.6787 281.092C57.9961 280.495 58.4394 280.037 59.0087 279.72C59.5781 279.403 60.2267 279.244 60.9547 279.244C61.6827 279.244 62.3174 279.403 62.8587 279.72C63.4094 280.037 63.8294 280.467 64.1187 281.008C64.4174 281.54 64.5667 282.133 64.5667 282.786ZM63.5727 282.758C63.5821 282.189 63.4654 281.703 63.2227 281.302C62.9894 280.901 62.6674 280.597 62.2567 280.392C61.8461 280.187 61.3981 280.084 60.9127 280.084C60.1847 280.084 59.5641 280.317 59.0507 280.784C58.5374 281.251 58.2527 281.909 58.1967 282.758H63.5727ZM69.7081 287.112C68.8308 287.112 68.1121 286.911 67.5521 286.51C67.0014 286.099 66.6934 285.544 66.6281 284.844H67.6361C67.6828 285.273 67.8834 285.623 68.2381 285.894C68.6021 286.155 69.0874 286.286 69.6941 286.286C70.2261 286.286 70.6414 286.16 70.9401 285.908C71.2481 285.656 71.4021 285.343 71.4021 284.97C71.4021 284.709 71.3181 284.494 71.1501 284.326C70.9821 284.158 70.7674 284.027 70.5061 283.934C70.2541 283.831 69.9088 283.724 69.4701 283.612C68.9008 283.463 68.4388 283.313 68.0841 283.164C67.7294 283.015 67.4261 282.795 67.1741 282.506C66.9314 282.207 66.8101 281.811 66.8101 281.316C66.8101 280.943 66.9221 280.597 67.1461 280.28C67.3701 279.963 67.6874 279.711 68.0981 279.524C68.5088 279.337 68.9754 279.244 69.4981 279.244C70.3194 279.244 70.9821 279.454 71.4861 279.874C71.9901 280.285 72.2608 280.854 72.2981 281.582H71.3181C71.2901 281.134 71.1128 280.775 70.7861 280.504C70.4688 280.224 70.0301 280.084 69.4701 280.084C68.9754 280.084 68.5741 280.201 68.2661 280.434C67.9581 280.667 67.8041 280.957 67.8041 281.302C67.8041 281.601 67.8928 281.848 68.0701 282.044C68.2568 282.231 68.4854 282.38 68.7561 282.492C69.0268 282.595 69.3908 282.711 69.8481 282.842C70.3988 282.991 70.8374 283.136 71.1641 283.276C71.4908 283.416 71.7708 283.621 72.0041 283.892C72.2374 284.163 72.3588 284.522 72.3681 284.97C72.3681 285.381 72.2561 285.749 72.0321 286.076C71.8081 286.393 71.4954 286.645 71.0941 286.832C70.6928 287.019 70.2308 287.112 69.7081 287.112ZM81.8452 282.786C81.8452 283.122 81.8359 283.379 81.8172 283.556H75.4752C75.5032 284.135 75.6432 284.629 75.8952 285.04C76.1472 285.451 76.4785 285.763 76.8892 285.978C77.2999 286.183 77.7479 286.286 78.2332 286.286C78.8679 286.286 79.3999 286.132 79.8292 285.824C80.2679 285.516 80.5572 285.101 80.6972 284.578H81.7332C81.5465 285.325 81.1452 285.936 80.5292 286.412C79.9225 286.879 79.1572 287.112 78.2332 287.112C77.5145 287.112 76.8705 286.953 76.3012 286.636C75.7319 286.309 75.2839 285.852 74.9572 285.264C74.6399 284.667 74.4812 283.971 74.4812 283.178C74.4812 282.385 74.6399 281.689 74.9572 281.092C75.2745 280.495 75.7179 280.037 76.2872 279.72C76.8565 279.403 77.5052 279.244 78.2332 279.244C78.9612 279.244 79.5959 279.403 80.1372 279.72C80.6879 280.037 81.1079 280.467 81.3972 281.008C81.6959 281.54 81.8452 282.133 81.8452 282.786ZM80.8512 282.758C80.8605 282.189 80.7439 281.703 80.5012 281.302C80.2679 280.901 79.9459 280.597 79.5352 280.392C79.1245 280.187 78.6765 280.084 78.1912 280.084C77.4632 280.084 76.8425 280.317 76.3292 280.784C75.8159 281.251 75.5312 281.909 75.4752 282.758H80.8512ZM83.9066 283.164C83.9066 282.38 84.0606 281.694 84.3686 281.106C84.6859 280.509 85.1199 280.051 85.6706 279.734C86.2306 279.407 86.8606 279.244 87.5606 279.244C88.2886 279.244 88.9139 279.412 89.4366 279.748C89.9686 280.084 90.3512 280.513 90.5846 281.036V279.356H91.5646V287H90.5846V285.306C90.3419 285.829 89.9546 286.263 89.4226 286.608C88.8999 286.944 88.2746 287.112 87.5466 287.112C86.8559 287.112 86.2306 286.949 85.6706 286.622C85.1199 286.295 84.6859 285.833 84.3686 285.236C84.0606 284.639 83.9066 283.948 83.9066 283.164ZM90.5846 283.178C90.5846 282.562 90.4586 282.021 90.2066 281.554C89.9546 281.087 89.6092 280.728 89.1706 280.476C88.7412 280.224 88.2652 280.098 87.7426 280.098C87.2012 280.098 86.7159 280.219 86.2866 280.462C85.8572 280.705 85.5166 281.059 85.2646 281.526C85.0219 281.983 84.9006 282.529 84.9006 283.164C84.9006 283.789 85.0219 284.34 85.2646 284.816C85.5166 285.283 85.8572 285.642 86.2866 285.894C86.7159 286.137 87.2012 286.258 87.7426 286.258C88.2652 286.258 88.7412 286.132 89.1706 285.88C89.6092 285.628 89.9546 285.269 90.2066 284.802C90.4586 284.335 90.5846 283.794 90.5846 283.178ZM95.4982 280.714C95.7129 280.238 96.0396 279.869 96.4782 279.608C96.9262 279.347 97.4722 279.216 98.1162 279.216V280.238H97.8502C97.1409 280.238 96.5716 280.429 96.1422 280.812C95.7129 281.195 95.4982 281.834 95.4982 282.73V287H94.5182V279.356H95.4982V280.714ZM99.8589 283.178C99.8589 282.385 100.018 281.694 100.335 281.106C100.652 280.509 101.091 280.051 101.651 279.734C102.211 279.407 102.85 279.244 103.569 279.244C104.512 279.244 105.286 279.477 105.893 279.944C106.509 280.411 106.906 281.045 107.083 281.848H106.033C105.902 281.297 105.618 280.868 105.179 280.56C104.75 280.243 104.213 280.084 103.569 280.084C103.056 280.084 102.594 280.201 102.183 280.434C101.772 280.667 101.446 281.017 101.203 281.484C100.97 281.941 100.853 282.506 100.853 283.178C100.853 283.85 100.97 284.419 101.203 284.886C101.446 285.353 101.772 285.703 102.183 285.936C102.594 286.169 103.056 286.286 103.569 286.286C104.213 286.286 104.75 286.132 105.179 285.824C105.618 285.507 105.902 285.068 106.033 284.508H107.083C106.906 285.292 106.509 285.922 105.893 286.398C105.277 286.874 104.502 287.112 103.569 287.112C102.85 287.112 102.211 286.953 101.651 286.636C101.091 286.309 100.652 285.852 100.335 285.264C100.018 284.667 99.8589 283.971 99.8589 283.178ZM113.249 279.216C113.828 279.216 114.346 279.337 114.803 279.58C115.27 279.823 115.634 280.196 115.895 280.7C116.166 281.195 116.301 281.801 116.301 282.52V287H115.335V282.632C115.335 281.801 115.125 281.167 114.705 280.728C114.295 280.289 113.73 280.07 113.011 280.07C112.274 280.07 111.686 280.303 111.247 280.77C110.809 281.237 110.589 281.923 110.589 282.828V287H109.609V276.64H110.589V280.658C110.832 280.201 111.187 279.846 111.653 279.594C112.129 279.342 112.661 279.216 113.249 279.216Z" fill="#5F5F5F"/>
<rect x="540" y="262" width="136" height="41" rx="20" fill="white"/>
<path d="M558.82 280.07C558.54 279.426 558.111 278.922 557.532 278.558C556.963 278.185 556.291 277.998 555.516 277.998C554.788 277.998 554.135 278.166 553.556 278.502C552.977 278.838 552.52 279.319 552.184 279.944C551.848 280.56 551.68 281.279 551.68 282.1C551.68 282.921 551.848 283.645 552.184 284.27C552.52 284.895 552.977 285.376 553.556 285.712C554.135 286.048 554.788 286.216 555.516 286.216C556.197 286.216 556.809 286.071 557.35 285.782C557.901 285.483 558.339 285.063 558.666 284.522C559.002 283.971 559.193 283.332 559.24 282.604H555.124V281.806H560.276V282.52C560.229 283.379 559.996 284.158 559.576 284.858C559.156 285.549 558.591 286.095 557.882 286.496C557.182 286.897 556.393 287.098 555.516 287.098C554.611 287.098 553.789 286.888 553.052 286.468C552.315 286.039 551.731 285.446 551.302 284.69C550.882 283.925 550.672 283.061 550.672 282.1C550.672 281.139 550.882 280.28 551.302 279.524C551.731 278.759 552.315 278.166 553.052 277.746C553.789 277.317 554.611 277.102 555.516 277.102C556.561 277.102 557.476 277.363 558.26 277.886C559.044 278.409 559.613 279.137 559.968 280.07H558.82ZM563.768 280.714C563.982 280.238 564.309 279.869 564.748 279.608C565.196 279.347 565.742 279.216 566.386 279.216V280.238H566.12C565.41 280.238 564.841 280.429 564.412 280.812C563.982 281.195 563.768 281.834 563.768 282.73V287H562.788V279.356H563.768V280.714ZM568.128 283.164C568.128 282.38 568.282 281.694 568.59 281.106C568.908 280.509 569.342 280.051 569.892 279.734C570.452 279.407 571.082 279.244 571.782 279.244C572.51 279.244 573.136 279.412 573.658 279.748C574.19 280.084 574.573 280.513 574.806 281.036V279.356H575.786V287H574.806V285.306C574.564 285.829 574.176 286.263 573.644 286.608C573.122 286.944 572.496 287.112 571.768 287.112C571.078 287.112 570.452 286.949 569.892 286.622C569.342 286.295 568.908 285.833 568.59 285.236C568.282 284.639 568.128 283.948 568.128 283.164ZM574.806 283.178C574.806 282.562 574.68 282.021 574.428 281.554C574.176 281.087 573.831 280.728 573.392 280.476C572.963 280.224 572.487 280.098 571.964 280.098C571.423 280.098 570.938 280.219 570.508 280.462C570.079 280.705 569.738 281.059 569.486 281.526C569.244 281.983 569.122 282.529 569.122 283.164C569.122 283.789 569.244 284.34 569.486 284.816C569.738 285.283 570.079 285.642 570.508 285.894C570.938 286.137 571.423 286.258 571.964 286.258C572.487 286.258 572.963 286.132 573.392 285.88C573.831 285.628 574.176 285.269 574.428 284.802C574.68 284.335 574.806 283.794 574.806 283.178ZM579.706 281.036C579.949 280.523 580.331 280.098 580.854 279.762C581.386 279.417 582.016 279.244 582.744 279.244C583.435 279.244 584.055 279.407 584.606 279.734C585.166 280.051 585.6 280.509 585.908 281.106C586.225 281.694 586.384 282.38 586.384 283.164C586.384 283.948 586.225 284.639 585.908 285.236C585.6 285.833 585.166 286.295 584.606 286.622C584.055 286.949 583.435 287.112 582.744 287.112C582.025 287.112 581.4 286.944 580.868 286.608C580.336 286.263 579.949 285.833 579.706 285.32V290.612H578.74V279.356H579.706V281.036ZM585.39 283.164C585.39 282.529 585.264 281.983 585.012 281.526C584.769 281.059 584.433 280.705 584.004 280.462C583.575 280.219 583.089 280.098 582.548 280.098C582.025 280.098 581.545 280.224 581.106 280.476C580.677 280.728 580.336 281.087 580.084 281.554C579.832 282.021 579.706 282.562 579.706 283.178C579.706 283.794 579.832 284.335 580.084 284.802C580.336 285.269 580.677 285.628 581.106 285.88C581.545 286.132 582.025 286.258 582.548 286.258C583.089 286.258 583.575 286.137 584.004 285.894C584.433 285.642 584.769 285.283 585.012 284.816C585.264 284.34 585.39 283.789 585.39 283.164ZM592.544 279.216C593.122 279.216 593.64 279.337 594.098 279.58C594.564 279.823 594.928 280.196 595.19 280.7C595.46 281.195 595.596 281.801 595.596 282.52V287H594.63V282.632C594.63 281.801 594.42 281.167 594 280.728C593.589 280.289 593.024 280.07 592.306 280.07C591.568 280.07 590.98 280.303 590.542 280.77C590.103 281.237 589.884 281.923 589.884 282.828V287H588.904V276.64H589.884V280.658C590.126 280.201 590.481 279.846 590.948 279.594C591.424 279.342 591.956 279.216 592.544 279.216ZM598.969 277.914C598.773 277.914 598.605 277.844 598.465 277.704C598.325 277.564 598.255 277.391 598.255 277.186C598.255 276.981 598.325 276.813 598.465 276.682C598.605 276.542 598.773 276.472 598.969 276.472C599.165 276.472 599.333 276.542 599.473 276.682C599.613 276.813 599.683 276.981 599.683 277.186C599.683 277.391 599.613 277.564 599.473 277.704C599.333 277.844 599.165 277.914 598.969 277.914ZM599.459 279.356V287H598.479V279.356H599.459ZM601.947 283.178C601.947 282.385 602.106 281.694 602.423 281.106C602.74 280.509 603.179 280.051 603.739 279.734C604.299 279.407 604.938 279.244 605.657 279.244C606.6 279.244 607.374 279.477 607.981 279.944C608.597 280.411 608.994 281.045 609.171 281.848H608.121C607.99 281.297 607.706 280.868 607.267 280.56C606.838 280.243 606.301 280.084 605.657 280.084C605.144 280.084 604.682 280.201 604.271 280.434C603.86 280.667 603.534 281.017 603.291 281.484C603.058 281.941 602.941 282.506 602.941 283.178C602.941 283.85 603.058 284.419 603.291 284.886C603.534 285.353 603.86 285.703 604.271 285.936C604.682 286.169 605.144 286.286 605.657 286.286C606.301 286.286 606.838 286.132 607.267 285.824C607.706 285.507 607.99 285.068 608.121 284.508H609.171C608.994 285.292 608.597 285.922 607.981 286.398C607.365 286.874 606.59 287.112 605.657 287.112C604.938 287.112 604.299 286.953 603.739 286.636C603.179 286.309 602.74 285.852 602.423 285.264C602.106 284.667 601.947 283.971 601.947 283.178ZM619.153 277.214C620.236 277.214 621.165 277.41 621.939 277.802C622.714 278.194 623.307 278.759 623.717 279.496C624.128 280.233 624.333 281.111 624.333 282.128C624.333 283.136 624.128 284.009 623.717 284.746C623.307 285.474 622.714 286.034 621.939 286.426C621.165 286.809 620.236 287 619.153 287H616.255V277.214H619.153ZM619.153 286.188C620.516 286.188 621.552 285.833 622.261 285.124C622.98 284.405 623.339 283.407 623.339 282.128C623.339 280.84 622.98 279.837 622.261 279.118C621.552 278.39 620.516 278.026 619.153 278.026H617.235V286.188H619.153ZM633.773 282.786C633.773 283.122 633.763 283.379 633.745 283.556H627.403C627.431 284.135 627.571 284.629 627.823 285.04C628.075 285.451 628.406 285.763 628.817 285.978C629.227 286.183 629.675 286.286 630.161 286.286C630.795 286.286 631.327 286.132 631.757 285.824C632.195 285.516 632.485 285.101 632.625 284.578H633.661C633.474 285.325 633.073 285.936 632.457 286.412C631.85 286.879 631.085 287.112 630.161 287.112C629.442 287.112 628.798 286.953 628.229 286.636C627.659 286.309 627.211 285.852 626.885 285.264C626.567 284.667 626.409 283.971 626.409 283.178C626.409 282.385 626.567 281.689 626.885 281.092C627.202 280.495 627.645 280.037 628.215 279.72C628.784 279.403 629.433 279.244 630.161 279.244C630.889 279.244 631.523 279.403 632.065 279.72C632.615 280.037 633.035 280.467 633.325 281.008C633.623 281.54 633.773 282.133 633.773 282.786ZM632.779 282.758C632.788 282.189 632.671 281.703 632.429 281.302C632.195 280.901 631.873 280.597 631.463 280.392C631.052 280.187 630.604 280.084 630.119 280.084C629.391 280.084 628.77 280.317 628.257 280.784C627.743 281.251 627.459 281.909 627.403 282.758H632.779ZM638.914 287.112C638.037 287.112 637.318 286.911 636.758 286.51C636.207 286.099 635.899 285.544 635.834 284.844H636.842C636.889 285.273 637.089 285.623 637.444 285.894C637.808 286.155 638.293 286.286 638.9 286.286C639.432 286.286 639.847 286.16 640.146 285.908C640.454 285.656 640.608 285.343 640.608 284.97C640.608 284.709 640.524 284.494 640.356 284.326C640.188 284.158 639.973 284.027 639.712 283.934C639.46 283.831 639.115 283.724 638.676 283.612C638.107 283.463 637.645 283.313 637.29 283.164C636.935 283.015 636.632 282.795 636.38 282.506C636.137 282.207 636.016 281.811 636.016 281.316C636.016 280.943 636.128 280.597 636.352 280.28C636.576 279.963 636.893 279.711 637.304 279.524C637.715 279.337 638.181 279.244 638.704 279.244C639.525 279.244 640.188 279.454 640.692 279.874C641.196 280.285 641.467 280.854 641.504 281.582H640.524C640.496 281.134 640.319 280.775 639.992 280.504C639.675 280.224 639.236 280.084 638.676 280.084C638.181 280.084 637.78 280.201 637.472 280.434C637.164 280.667 637.01 280.957 637.01 281.302C637.01 281.601 637.099 281.848 637.276 282.044C637.463 282.231 637.691 282.38 637.962 282.492C638.233 282.595 638.597 282.711 639.054 282.842C639.605 282.991 640.043 283.136 640.37 283.276C640.697 283.416 640.977 283.621 641.21 283.892C641.443 284.163 641.565 284.522 641.574 284.97C641.574 285.381 641.462 285.749 641.238 286.076C641.014 286.393 640.701 286.645 640.3 286.832C639.899 287.019 639.437 287.112 638.914 287.112ZM644.625 277.914C644.429 277.914 644.261 277.844 644.121 277.704C643.981 277.564 643.911 277.391 643.911 277.186C643.911 276.981 643.981 276.813 644.121 276.682C644.261 276.542 644.429 276.472 644.625 276.472C644.821 276.472 644.989 276.542 645.129 276.682C645.269 276.813 645.339 276.981 645.339 277.186C645.339 277.391 645.269 277.564 645.129 277.704C644.989 277.844 644.821 277.914 644.625 277.914ZM645.115 279.356V287H644.135V279.356H645.115ZM651.257 279.244C651.975 279.244 652.601 279.412 653.133 279.748C653.665 280.084 654.047 280.509 654.281 281.022V279.356H655.261V287.196C655.261 287.896 655.107 288.517 654.799 289.058C654.5 289.599 654.08 290.015 653.539 290.304C652.997 290.603 652.381 290.752 651.691 290.752C650.711 290.752 649.894 290.519 649.241 290.052C648.597 289.585 648.195 288.951 648.037 288.148H649.003C649.171 288.68 649.488 289.105 649.955 289.422C650.431 289.739 651.009 289.898 651.691 289.898C652.185 289.898 652.629 289.791 653.021 289.576C653.413 289.371 653.721 289.063 653.945 288.652C654.169 288.241 654.281 287.756 654.281 287.196V285.306C654.038 285.829 653.651 286.263 653.119 286.608C652.596 286.944 651.975 287.112 651.257 287.112C650.557 287.112 649.927 286.949 649.367 286.622C648.816 286.295 648.382 285.833 648.065 285.236C647.757 284.639 647.603 283.948 647.603 283.164C647.603 282.38 647.757 281.694 648.065 281.106C648.382 280.509 648.816 280.051 649.367 279.734C649.927 279.407 650.557 279.244 651.257 279.244ZM654.281 283.178C654.281 282.562 654.155 282.021 653.903 281.554C653.651 281.087 653.305 280.728 652.867 280.476C652.437 280.224 651.961 280.098 651.439 280.098C650.897 280.098 650.412 280.219 649.983 280.462C649.553 280.705 649.213 281.059 648.961 281.526C648.718 281.983 648.597 282.529 648.597 283.164C648.597 283.789 648.718 284.34 648.961 284.816C649.213 285.283 649.553 285.642 649.983 285.894C650.412 286.137 650.897 286.258 651.439 286.258C651.961 286.258 652.437 286.132 652.867 285.88C653.305 285.628 653.651 285.269 653.903 284.802C654.155 284.335 654.281 283.794 654.281 283.178ZM661.798 279.216C662.713 279.216 663.46 279.501 664.038 280.07C664.617 280.63 664.906 281.447 664.906 282.52V287H663.94V282.632C663.94 281.801 663.73 281.167 663.31 280.728C662.9 280.289 662.335 280.07 661.616 280.07C660.879 280.07 660.291 280.303 659.852 280.77C659.414 281.237 659.194 281.923 659.194 282.828V287H658.214V279.356H659.194V280.658C659.437 280.191 659.787 279.837 660.244 279.594C660.702 279.342 661.22 279.216 661.798 279.216Z" fill="#5F5F5F"/>
</svg>
