<svg width="702" height="309" viewBox="0 0 702 309" fill="none" xmlns="http://www.w3.org/2000/svg">
<rect x="170" y="256" width="116" height="41" rx="20" fill="white"/>
<path d="M182.058 271.214V277.374C182.058 278.345 182.287 279.063 182.744 279.53C183.211 279.997 183.845 280.23 184.648 280.23C185.451 280.23 186.076 280.001 186.524 279.544C186.981 279.077 187.21 278.354 187.21 277.374V271.214H188.19V277.36C188.19 278.601 187.859 279.535 187.196 280.16C186.543 280.785 185.689 281.098 184.634 281.098C183.579 281.098 182.721 280.785 182.058 280.16C181.405 279.535 181.078 278.601 181.078 277.36V271.214H182.058ZM192.072 271.214V281H191.092V271.214H192.072ZM199.362 267.84L195.498 283.324H194.532L198.368 267.84H199.362ZM202.842 271.214V277.374C202.842 278.345 203.071 279.063 203.528 279.53C203.995 279.997 204.629 280.23 205.432 280.23C206.235 280.23 206.86 280.001 207.308 279.544C207.765 279.077 207.994 278.354 207.994 277.374V271.214H208.974V277.36C208.974 278.601 208.643 279.535 207.98 280.16C207.327 280.785 206.473 281.098 205.418 281.098C204.363 281.098 203.505 280.785 202.842 280.16C202.189 279.535 201.862 278.601 201.862 277.36V271.214H202.842ZM215.404 276.114L218.372 281H217.28L214.788 276.912L212.422 281H211.33L214.284 276.072L211.33 271.214H212.422L214.9 275.288L217.294 271.214H218.386L215.404 276.114ZM228.238 271.214C229.321 271.214 230.25 271.41 231.024 271.802C231.799 272.194 232.392 272.759 232.802 273.496C233.213 274.233 233.418 275.111 233.418 276.128C233.418 277.136 233.213 278.009 232.802 278.746C232.392 279.474 231.799 280.034 231.024 280.426C230.25 280.809 229.321 281 228.238 281H225.34V271.214H228.238ZM228.238 280.188C229.601 280.188 230.637 279.833 231.346 279.124C232.065 278.405 232.424 277.407 232.424 276.128C232.424 274.84 232.065 273.837 231.346 273.118C230.637 272.39 229.601 272.026 228.238 272.026H226.32V280.188H228.238ZM242.857 276.786C242.857 277.122 242.848 277.379 242.829 277.556H236.487C236.515 278.135 236.655 278.629 236.907 279.04C237.159 279.451 237.491 279.763 237.901 279.978C238.312 280.183 238.76 280.286 239.245 280.286C239.88 280.286 240.412 280.132 240.841 279.824C241.28 279.516 241.569 279.101 241.709 278.578H242.745C242.559 279.325 242.157 279.936 241.541 280.412C240.935 280.879 240.169 281.112 239.245 281.112C238.527 281.112 237.883 280.953 237.313 280.636C236.744 280.309 236.296 279.852 235.969 279.264C235.652 278.667 235.493 277.971 235.493 277.178C235.493 276.385 235.652 275.689 235.969 275.092C236.287 274.495 236.73 274.037 237.299 273.72C237.869 273.403 238.517 273.244 239.245 273.244C239.973 273.244 240.608 273.403 241.149 273.72C241.7 274.037 242.12 274.467 242.409 275.008C242.708 275.54 242.857 276.133 242.857 276.786ZM241.863 276.758C241.873 276.189 241.756 275.703 241.513 275.302C241.28 274.901 240.958 274.597 240.547 274.392C240.137 274.187 239.689 274.084 239.203 274.084C238.475 274.084 237.855 274.317 237.341 274.784C236.828 275.251 236.543 275.909 236.487 276.758H241.863ZM247.999 281.112C247.121 281.112 246.403 280.911 245.843 280.51C245.292 280.099 244.984 279.544 244.919 278.844H245.927C245.973 279.273 246.174 279.623 246.529 279.894C246.893 280.155 247.378 280.286 247.985 280.286C248.517 280.286 248.932 280.16 249.231 279.908C249.539 279.656 249.693 279.343 249.693 278.97C249.693 278.709 249.609 278.494 249.441 278.326C249.273 278.158 249.058 278.027 248.797 277.934C248.545 277.831 248.199 277.724 247.761 277.612C247.191 277.463 246.729 277.313 246.375 277.164C246.02 277.015 245.717 276.795 245.465 276.506C245.222 276.207 245.101 275.811 245.101 275.316C245.101 274.943 245.213 274.597 245.437 274.28C245.661 273.963 245.978 273.711 246.389 273.524C246.799 273.337 247.266 273.244 247.789 273.244C248.61 273.244 249.273 273.454 249.777 273.874C250.281 274.285 250.551 274.854 250.589 275.582H249.609C249.581 275.134 249.403 274.775 249.077 274.504C248.759 274.224 248.321 274.084 247.761 274.084C247.266 274.084 246.865 274.201 246.557 274.434C246.249 274.667 246.095 274.957 246.095 275.302C246.095 275.601 246.183 275.848 246.361 276.044C246.547 276.231 246.776 276.38 247.047 276.492C247.317 276.595 247.681 276.711 248.139 276.842C248.689 276.991 249.128 277.136 249.455 277.276C249.781 277.416 250.061 277.621 250.295 277.892C250.528 278.163 250.649 278.522 250.659 278.97C250.659 279.381 250.547 279.749 250.323 280.076C250.099 280.393 249.786 280.645 249.385 280.832C248.983 281.019 248.521 281.112 247.999 281.112ZM253.71 271.914C253.514 271.914 253.346 271.844 253.206 271.704C253.066 271.564 252.996 271.391 252.996 271.186C252.996 270.981 253.066 270.813 253.206 270.682C253.346 270.542 253.514 270.472 253.71 270.472C253.906 270.472 254.074 270.542 254.214 270.682C254.354 270.813 254.424 270.981 254.424 271.186C254.424 271.391 254.354 271.564 254.214 271.704C254.074 271.844 253.906 271.914 253.71 271.914ZM254.2 273.356V281H253.22V273.356H254.2ZM260.341 273.244C261.06 273.244 261.685 273.412 262.217 273.748C262.749 274.084 263.132 274.509 263.365 275.022V273.356H264.345V281.196C264.345 281.896 264.191 282.517 263.883 283.058C263.585 283.599 263.165 284.015 262.623 284.304C262.082 284.603 261.466 284.752 260.775 284.752C259.795 284.752 258.979 284.519 258.325 284.052C257.681 283.585 257.28 282.951 257.121 282.148H258.087C258.255 282.68 258.573 283.105 259.039 283.422C259.515 283.739 260.094 283.898 260.775 283.898C261.27 283.898 261.713 283.791 262.105 283.576C262.497 283.371 262.805 283.063 263.029 282.652C263.253 282.241 263.365 281.756 263.365 281.196V279.306C263.123 279.829 262.735 280.263 262.203 280.608C261.681 280.944 261.06 281.112 260.341 281.112C259.641 281.112 259.011 280.949 258.451 280.622C257.901 280.295 257.467 279.833 257.149 279.236C256.841 278.639 256.687 277.948 256.687 277.164C256.687 276.38 256.841 275.694 257.149 275.106C257.467 274.509 257.901 274.051 258.451 273.734C259.011 273.407 259.641 273.244 260.341 273.244ZM263.365 277.178C263.365 276.562 263.239 276.021 262.987 275.554C262.735 275.087 262.39 274.728 261.951 274.476C261.522 274.224 261.046 274.098 260.523 274.098C259.982 274.098 259.497 274.219 259.067 274.462C258.638 274.705 258.297 275.059 258.045 275.526C257.803 275.983 257.681 276.529 257.681 277.164C257.681 277.789 257.803 278.34 258.045 278.816C258.297 279.283 258.638 279.642 259.067 279.894C259.497 280.137 259.982 280.258 260.523 280.258C261.046 280.258 261.522 280.132 261.951 279.88C262.39 279.628 262.735 279.269 262.987 278.802C263.239 278.335 263.365 277.794 263.365 277.178ZM270.883 273.216C271.798 273.216 272.544 273.501 273.123 274.07C273.702 274.63 273.991 275.447 273.991 276.52V281H273.025V276.632C273.025 275.801 272.815 275.167 272.395 274.728C271.984 274.289 271.42 274.07 270.701 274.07C269.964 274.07 269.376 274.303 268.937 274.77C268.498 275.237 268.279 275.923 268.279 276.828V281H267.299V273.356H268.279V274.658C268.522 274.191 268.872 273.837 269.329 273.594C269.786 273.342 270.304 273.216 270.883 273.216Z" fill="#5F5F5F"/>
<rect x="440" y="246.94" width="135" height="41" rx="20" transform="rotate(-15 440 246.94)" fill="white"/>
<path d="M461.452 259.857C461.669 260.668 461.579 261.393 461.18 262.031C460.78 262.67 460.049 263.131 458.985 263.416L457.078 263.927L458.158 267.957L457.212 268.211L454.679 258.758L457.532 257.994C458.587 257.711 459.447 257.746 460.112 258.1C460.785 258.451 461.232 259.036 461.452 259.857ZM458.768 262.605C460.246 262.209 460.816 261.38 460.478 260.117C460.309 259.486 460.005 259.056 459.567 258.825C459.128 258.595 458.521 258.584 457.746 258.791L455.839 259.302L456.861 263.116L458.768 262.605ZM464.856 259.655C464.941 259.139 465.161 258.699 465.517 258.333C465.882 257.964 466.375 257.697 466.997 257.53L467.262 258.517L467.005 258.586C466.32 258.77 465.819 259.102 465.504 259.583C465.188 260.063 465.146 260.736 465.378 261.602L466.483 265.726L465.537 265.98L463.558 258.597L464.505 258.343L464.856 259.655ZM474.389 263.724C473.695 263.91 473.027 263.925 472.386 263.768C471.752 263.6 471.196 263.275 470.719 262.794C470.249 262.302 469.912 261.672 469.706 260.906C469.501 260.14 469.484 259.429 469.657 258.774C469.827 258.11 470.15 257.55 470.627 257.094C471.101 256.629 471.686 256.303 472.38 256.117C473.074 255.931 473.743 255.921 474.386 256.086C475.036 256.241 475.596 256.564 476.067 257.057C476.543 257.538 476.884 258.161 477.09 258.928C477.293 259.685 477.309 260.395 477.139 261.059C476.969 261.723 476.643 262.289 476.159 262.757C475.673 263.216 475.083 263.538 474.389 263.724ZM474.168 262.899C474.655 262.769 475.077 262.54 475.433 262.212C475.788 261.876 476.032 261.453 476.166 260.943C476.307 260.423 476.29 259.838 476.116 259.188C475.942 258.539 475.67 258.028 475.299 257.654C474.926 257.271 474.503 257.026 474.03 256.921C473.555 256.807 473.074 256.815 472.587 256.945C472.1 257.076 471.68 257.309 471.326 257.646C470.969 257.973 470.725 258.396 470.593 258.915C470.468 259.422 470.492 260 470.666 260.649C470.84 261.298 471.109 261.815 471.474 262.201C471.844 262.575 472.263 262.82 472.729 262.937C473.202 263.042 473.681 263.03 474.168 262.899ZM479.071 258.382C478.868 257.625 478.844 256.921 478.998 256.271C479.15 255.612 479.451 255.058 479.901 254.609C480.357 254.148 480.923 253.828 481.599 253.646C482.248 253.473 482.877 253.473 483.484 253.649C484.092 253.824 484.585 254.132 484.963 254.571L483.833 250.352L484.779 250.099L487.461 260.106L486.514 260.359L486.072 258.709C485.984 259.284 485.728 259.806 485.304 260.278C484.877 260.74 484.316 261.064 483.622 261.25C482.946 261.431 482.295 261.436 481.67 261.266C481.053 261.093 480.515 260.759 480.053 260.264C479.601 259.767 479.274 259.14 479.071 258.382ZM485.525 256.667C485.366 256.072 485.104 255.582 484.74 255.197C484.375 254.811 483.949 254.553 483.46 254.423C482.98 254.291 482.488 254.293 481.983 254.428C481.46 254.568 481.022 254.811 480.67 255.156C480.319 255.502 480.081 255.933 479.959 256.449C479.843 256.953 479.867 257.512 480.031 258.125C480.193 258.729 480.453 259.23 480.81 259.626C481.174 260.012 481.596 260.271 482.076 260.403C482.554 260.527 483.054 260.518 483.577 260.378C484.082 260.243 484.509 259.998 484.858 259.643C485.217 259.286 485.458 258.85 485.58 258.334C485.703 257.818 485.684 257.262 485.525 256.667ZM494.732 250.244L496.71 257.627L495.764 257.881L495.416 256.583C495.323 257.1 495.083 257.541 494.698 257.906C494.312 258.27 493.84 258.527 493.281 258.676C492.397 258.913 491.604 258.836 490.9 258.445C490.194 258.045 489.701 257.326 489.424 256.289L488.268 251.976L489.201 251.726L490.328 255.931C490.543 256.734 490.905 257.294 491.416 257.611C491.935 257.926 492.541 257.99 493.236 257.804C493.948 257.614 494.455 257.236 494.758 256.672C495.061 256.107 495.096 255.388 494.861 254.514L493.785 250.497L494.732 250.244ZM498.141 253.287C497.936 252.521 497.911 251.812 498.065 251.162C498.217 250.503 498.522 249.948 498.981 249.496C499.437 249.036 500.013 248.713 500.707 248.527C501.617 248.283 502.426 248.308 503.133 248.601C503.849 248.893 504.396 249.403 504.775 250.132L503.761 250.404C503.492 249.906 503.106 249.565 502.602 249.381C502.106 249.186 501.546 249.171 500.924 249.338C500.428 249.471 500.012 249.703 499.676 250.035C499.34 250.367 499.115 250.789 499.001 251.303C498.894 251.805 498.928 252.38 499.101 253.03C499.275 253.679 499.535 254.198 499.882 254.589C500.237 254.977 500.643 255.23 501.1 255.349C501.557 255.468 502.033 255.462 502.529 255.329C503.151 255.162 503.63 254.874 503.965 254.466C504.306 254.046 504.468 253.548 504.449 252.974L505.463 252.702C505.495 253.505 505.275 254.216 504.803 254.835C504.331 255.455 503.645 255.885 502.743 256.127C502.049 256.313 501.39 256.325 500.767 256.163C500.142 255.993 499.6 255.664 499.141 255.179C498.68 254.684 498.347 254.053 498.141 253.287ZM508.015 247.54L509.243 252.124C509.364 252.575 509.533 252.863 509.75 252.988C509.967 253.114 510.292 253.118 510.725 253.002L511.59 252.77L511.808 253.582L510.793 253.854C510.126 254.032 509.589 254.012 509.183 253.792C508.774 253.564 508.474 253.093 508.283 252.381L507.054 247.797L506.027 248.072L505.813 247.274L506.841 246.999L506.344 245.146L507.304 244.889L507.801 246.742L509.829 246.198L510.043 246.996L508.015 247.54ZM518.73 241.596C519.776 241.315 520.724 241.264 521.573 241.443C522.423 241.621 523.142 242.013 523.729 242.619C524.317 243.225 524.742 244.019 525.005 245.002C525.266 245.975 525.294 246.871 525.088 247.69C524.88 248.499 524.452 249.194 523.805 249.773C523.156 250.343 522.309 250.768 521.263 251.048L518.464 251.798L515.931 242.346L518.73 241.596ZM521.053 250.264C522.369 249.911 523.278 249.301 523.779 248.432C524.288 247.552 524.376 246.494 524.045 245.259C523.712 244.015 523.105 243.139 522.225 242.63C521.351 242.111 520.257 242.027 518.94 242.38L517.088 242.876L519.2 250.76L521.053 250.264ZM534.293 243.194C534.38 243.519 534.438 243.769 534.466 243.945L528.34 245.587C528.516 246.138 528.78 246.58 529.129 246.911C529.479 247.243 529.88 247.459 530.332 247.56C530.782 247.652 531.241 247.635 531.71 247.51C532.323 247.345 532.797 247.059 533.132 246.65C533.476 246.239 533.648 245.763 533.648 245.222L534.649 244.954C534.662 245.724 534.432 246.418 533.961 247.037C533.495 247.645 532.817 248.068 531.924 248.308C531.23 248.494 530.567 248.507 529.935 248.348C529.3 248.18 528.749 247.854 528.281 247.37C527.82 246.876 527.487 246.245 527.282 245.479C527.076 244.712 527.05 244 527.202 243.341C527.353 242.681 527.663 242.125 528.131 241.671C528.599 241.217 529.184 240.896 529.888 240.708C530.591 240.519 531.245 240.508 531.85 240.675C532.464 240.839 532.981 241.145 533.4 241.593C533.827 242.029 534.124 242.563 534.293 243.194ZM533.326 243.424C533.188 242.872 532.949 242.433 532.611 242.109C532.282 241.781 531.892 241.572 531.442 241.48C530.993 241.388 530.533 241.404 530.064 241.53C529.361 241.718 528.822 242.104 528.447 242.688C528.072 243.272 527.967 243.981 528.133 244.816L533.326 243.424ZM540.379 246.042C539.532 246.269 538.786 246.261 538.141 246.019C537.503 245.764 537.061 245.308 536.817 244.648L537.791 244.388C537.947 244.79 538.231 245.076 538.644 245.246C539.063 245.404 539.566 245.405 540.152 245.248C540.666 245.11 541.034 244.881 541.258 244.56C541.49 244.237 541.558 243.895 541.461 243.535C541.393 243.282 541.257 243.097 541.051 242.978C540.845 242.859 540.604 242.788 540.327 242.766C540.057 242.732 539.696 242.718 539.243 242.723C538.655 242.726 538.17 242.701 537.789 242.649C537.407 242.596 537.058 242.463 536.739 242.249C536.428 242.023 536.208 241.671 536.08 241.194C535.983 240.833 536.002 240.47 536.136 240.106C536.27 239.741 536.512 239.416 536.86 239.129C537.208 238.843 537.635 238.632 538.14 238.496C538.933 238.284 539.628 238.315 540.223 238.59C540.816 238.857 541.225 239.337 541.45 240.03L540.503 240.284C540.36 239.858 540.096 239.557 539.71 239.38C539.331 239.192 538.871 239.17 538.33 239.315C537.852 239.443 537.495 239.66 537.258 239.965C537.021 240.27 536.947 240.589 537.036 240.923C537.114 241.211 537.263 241.427 537.485 241.571C537.714 241.703 537.973 241.788 538.264 241.826C538.552 241.855 538.934 241.873 539.409 241.881C539.98 241.883 540.441 241.909 540.793 241.96C541.144 242.011 541.468 242.136 541.763 242.338C542.059 242.539 542.269 242.854 542.394 243.285C542.5 243.681 542.488 244.066 542.356 244.44C542.222 244.804 541.985 245.129 541.645 245.413C541.306 245.697 540.884 245.907 540.379 246.042ZM543.515 235.679C543.326 235.73 543.145 235.706 542.974 235.607C542.802 235.508 542.69 235.359 542.637 235.161C542.584 234.963 542.608 234.782 542.709 234.62C542.808 234.448 542.952 234.337 543.142 234.286C543.331 234.236 543.511 234.26 543.683 234.359C543.852 234.449 543.963 234.593 544.016 234.791C544.069 234.99 544.046 235.175 543.947 235.346C543.848 235.517 543.704 235.629 543.515 235.679ZM544.362 236.945L546.34 244.329L545.393 244.583L543.415 237.199L544.362 236.945ZM550.265 235.248C550.959 235.062 551.607 235.062 552.207 235.249C552.808 235.436 553.288 235.747 553.646 236.182L553.215 234.573L554.161 234.319L556.191 241.892C556.372 242.568 556.384 243.208 556.226 243.81C556.078 244.411 555.78 244.921 555.332 245.34C554.886 245.769 554.33 246.072 553.663 246.251C552.716 246.505 551.867 246.491 551.115 246.209C550.372 245.925 549.82 245.416 549.459 244.682L550.392 244.432C550.692 244.902 551.109 245.23 551.641 245.416C552.183 245.599 552.783 245.603 553.442 245.426C553.919 245.298 554.32 245.08 554.643 244.771C554.968 244.471 555.186 244.094 555.296 243.639C555.406 243.185 555.389 242.687 555.244 242.146L554.755 240.32C554.656 240.888 554.394 241.408 553.969 241.879C553.551 242.339 552.995 242.662 552.301 242.848C551.625 243.029 550.974 243.034 550.349 242.863C549.732 242.69 549.194 242.356 548.732 241.862C548.28 241.364 547.953 240.737 547.75 239.98C547.547 239.222 547.518 238.52 547.664 237.872C547.815 237.213 548.116 236.659 548.566 236.21C549.022 235.75 549.589 235.429 550.265 235.248ZM554.204 238.265C554.045 237.67 553.783 237.18 553.419 236.794C553.054 236.409 552.628 236.151 552.139 236.021C551.659 235.889 551.167 235.89 550.662 236.025C550.139 236.166 549.701 236.408 549.35 236.754C548.998 237.099 548.76 237.53 548.638 238.046C548.522 238.551 548.546 239.109 548.71 239.722C548.872 240.327 549.132 240.827 549.489 241.224C549.853 241.61 550.275 241.868 550.755 242.001C551.233 242.124 551.733 242.116 552.256 241.976C552.761 241.84 553.188 241.595 553.538 241.241C553.896 240.884 554.137 240.447 554.259 239.931C554.382 239.415 554.363 238.86 554.204 238.265ZM560.44 232.492C561.324 232.255 562.118 232.337 562.825 232.737C563.529 233.128 564.019 233.842 564.297 234.879L565.457 239.207L564.524 239.457L563.393 235.237C563.178 234.435 562.811 233.876 562.292 233.561C561.782 233.244 561.179 233.178 560.485 233.364C559.773 233.555 559.266 233.933 558.963 234.497C558.66 235.061 558.625 235.781 558.86 236.655L559.939 240.685L558.993 240.939L557.014 233.555L557.961 233.301L558.298 234.559C558.412 234.045 558.658 233.612 559.037 233.26C559.413 232.898 559.881 232.642 560.44 232.492Z" fill="#5F5F5F"/>
<rect x="364.623" y="245.099" width="93" height="41" rx="20" transform="rotate(15 364.623 245.099)" fill="white"/>
<path d="M378.445 264.553L375.912 274.006L374.965 273.752L376.15 269.33L371.025 267.957L369.84 272.379L368.893 272.125L371.426 262.672L372.373 262.926L371.235 267.172L376.36 268.546L377.498 264.299L378.445 264.553ZM386.827 266.799L386.617 267.583L383.994 266.88L381.671 275.549L380.724 275.295L383.047 266.627L380.41 265.92L380.62 265.136L386.827 266.799ZM398.218 269.982L395.717 279.312L394.771 279.059L396.767 271.608L391.444 278.167L390.754 277.983L389.417 269.667L387.428 277.091L386.481 276.838L388.981 267.507L389.982 267.775L391.426 276.829L397.203 269.71L398.218 269.982ZM399.71 279.556L403.104 280.466L402.898 281.236L398.557 280.073L401.089 270.621L402.036 270.874L399.71 279.556ZM412.552 270.199L404.812 284.155L403.879 283.905L411.592 269.942L412.552 270.199ZM412.437 278.72C412.686 277.791 413.111 277.016 413.712 276.394C414.316 275.764 415.024 275.34 415.836 275.123C416.65 274.896 417.49 274.899 418.355 275.131C419.41 275.414 420.244 275.908 420.857 276.613C421.482 277.312 421.843 278.162 421.942 279.165L420.833 278.868C420.734 278.155 420.453 277.544 419.991 277.033C419.538 276.525 418.919 276.166 418.134 275.956C417.44 275.77 416.77 275.764 416.124 275.939C415.487 276.116 414.929 276.469 414.449 276.998C413.972 277.517 413.626 278.178 413.411 278.98C413.196 279.783 413.165 280.528 413.319 281.217C413.472 281.905 413.781 282.486 414.244 282.958C414.716 283.432 415.299 283.762 415.993 283.948C416.777 284.158 417.492 284.161 418.136 283.957C418.791 283.746 419.339 283.361 419.778 282.803L420.887 283.1C420.303 283.91 419.566 284.461 418.676 284.754C417.786 285.047 416.818 285.053 415.772 284.773C414.906 284.541 414.176 284.128 413.582 283.534C412.99 282.931 412.589 282.21 412.379 281.371C412.169 280.532 412.188 279.648 412.437 278.72ZM425.568 287.412C424.946 287.246 424.425 286.99 424.005 286.646C423.594 286.304 423.305 285.903 423.139 285.442C422.972 284.982 422.944 284.511 423.054 284.028L424.055 284.296C423.977 284.768 424.071 285.228 424.337 285.677C424.606 286.116 425.087 286.428 425.782 286.614C426.422 286.786 426.97 286.759 427.427 286.533C427.895 286.301 428.196 285.933 428.332 285.428C428.44 285.022 428.424 284.67 428.281 284.371C428.142 284.063 427.934 283.809 427.659 283.61C427.386 283.402 426.999 283.153 426.497 282.864C425.912 282.523 425.456 282.222 425.13 281.961C424.804 281.7 424.556 281.363 424.386 280.95C424.216 280.538 424.21 280.038 424.367 279.452C424.498 278.965 424.74 278.567 425.094 278.256C425.45 277.936 425.887 277.729 426.405 277.636C426.922 277.543 427.479 277.576 428.074 277.735C428.948 277.969 429.594 278.374 430.009 278.949C430.437 279.518 430.601 280.151 430.5 280.849L429.473 280.574C429.514 280.169 429.393 279.77 429.113 279.376C428.834 278.973 428.388 278.689 427.775 278.525C427.207 278.373 426.693 278.399 426.232 278.604C425.774 278.8 425.475 279.16 425.334 279.682C425.228 280.079 425.246 280.427 425.388 280.726C425.53 281.025 425.738 281.279 426.01 281.487C426.292 281.698 426.68 281.946 427.173 282.233C427.74 282.569 428.19 282.873 428.523 283.146C428.858 283.409 429.11 283.748 429.28 284.16C429.45 284.573 429.457 285.068 429.303 285.645C429.184 286.086 428.955 286.474 428.614 286.808C428.273 287.142 427.84 287.369 427.315 287.489C426.79 287.609 426.208 287.584 425.568 287.412ZM433.998 289.671C433.376 289.505 432.855 289.249 432.436 288.905C432.025 288.563 431.736 288.162 431.57 287.701C431.403 287.241 431.375 286.77 431.485 286.287L432.485 286.555C432.407 287.027 432.501 287.487 432.768 287.936C433.037 288.375 433.518 288.687 434.212 288.873C434.852 289.045 435.401 289.018 435.857 288.792C436.325 288.56 436.627 288.192 436.762 287.687C436.871 287.281 436.854 286.929 436.712 286.63C436.572 286.322 436.365 286.068 436.09 285.869C435.817 285.661 435.43 285.412 434.927 285.123C434.342 284.782 433.887 284.481 433.56 284.22C433.234 283.959 432.986 283.622 432.817 283.209C432.647 282.797 432.641 282.297 432.798 281.711C432.928 281.224 433.17 280.826 433.524 280.515C433.881 280.195 434.318 279.988 434.835 279.895C435.353 279.802 435.909 279.835 436.505 279.994C437.379 280.228 438.024 280.633 438.44 281.208C438.868 281.777 439.031 282.41 438.931 283.108L437.903 282.833C437.944 282.428 437.824 282.029 437.543 281.635C437.265 281.232 436.819 280.948 436.206 280.784C435.638 280.632 435.124 280.658 434.663 280.863C434.204 281.059 433.905 281.419 433.765 281.941C433.659 282.338 433.677 282.686 433.819 282.985C433.961 283.284 434.168 283.538 434.441 283.746C434.723 283.957 435.11 284.205 435.604 284.492C436.171 284.828 436.621 285.132 436.953 285.405C437.289 285.668 437.541 286.007 437.711 286.419C437.88 286.832 437.888 287.327 437.733 287.904C437.615 288.345 437.385 288.733 437.045 289.067C436.704 289.401 436.271 289.628 435.746 289.748C435.221 289.868 434.639 289.843 433.998 289.671Z" fill="#5F5F5F"/>
<rect y="262" width="128" height="41" rx="20" fill="white"/>
<path d="M12.058 277.214V283.374C12.058 284.345 12.2867 285.063 12.744 285.53C13.2107 285.997 13.8453 286.23 14.648 286.23C15.4507 286.23 16.076 286.001 16.524 285.544C16.9813 285.077 17.21 284.354 17.21 283.374V277.214H18.19V283.36C18.19 284.601 17.8587 285.535 17.196 286.16C16.5427 286.785 15.6887 287.098 14.634 287.098C13.5793 287.098 12.7207 286.785 12.058 286.16C11.4047 285.535 11.078 284.601 11.078 283.36V277.214H12.058ZM23.7242 287.112C22.8469 287.112 22.1282 286.911 21.5682 286.51C21.0176 286.099 20.7096 285.544 20.6442 284.844H21.6522C21.6989 285.273 21.8996 285.623 22.2542 285.894C22.6182 286.155 23.1036 286.286 23.7102 286.286C24.2422 286.286 24.6576 286.16 24.9562 285.908C25.2642 285.656 25.4182 285.343 25.4182 284.97C25.4182 284.709 25.3342 284.494 25.1662 284.326C24.9982 284.158 24.7836 284.027 24.5222 283.934C24.2702 283.831 23.9249 283.724 23.4862 283.612C22.9169 283.463 22.4549 283.313 22.1002 283.164C21.7456 283.015 21.4422 282.795 21.1902 282.506C20.9476 282.207 20.8262 281.811 20.8262 281.316C20.8262 280.943 20.9382 280.597 21.1622 280.28C21.3862 279.963 21.7036 279.711 22.1142 279.524C22.5249 279.337 22.9916 279.244 23.5142 279.244C24.3356 279.244 24.9982 279.454 25.5022 279.874C26.0062 280.285 26.2769 280.854 26.3142 281.582H25.3342C25.3062 281.134 25.1289 280.775 24.8022 280.504C24.4849 280.224 24.0462 280.084 23.4862 280.084C22.9916 280.084 22.5902 280.201 22.2822 280.434C21.9742 280.667 21.8202 280.957 21.8202 281.302C21.8202 281.601 21.9089 281.848 22.0862 282.044C22.2729 282.231 22.5016 282.38 22.7722 282.492C23.0429 282.595 23.4069 282.711 23.8642 282.842C24.4149 282.991 24.8536 283.136 25.1802 283.276C25.5069 283.416 25.7869 283.621 26.0202 283.892C26.2536 284.163 26.3749 284.522 26.3842 284.97C26.3842 285.381 26.2722 285.749 26.0482 286.076C25.8242 286.393 25.5116 286.645 25.1102 286.832C24.7089 287.019 24.2469 287.112 23.7242 287.112ZM35.8613 282.786C35.8613 283.122 35.852 283.379 35.8333 283.556H29.4913C29.5193 284.135 29.6593 284.629 29.9113 285.04C30.1633 285.451 30.4947 285.763 30.9053 285.978C31.316 286.183 31.764 286.286 32.2493 286.286C32.884 286.286 33.416 286.132 33.8453 285.824C34.284 285.516 34.5733 285.101 34.7133 284.578H35.7493C35.5627 285.325 35.1613 285.936 34.5453 286.412C33.9387 286.879 33.1733 287.112 32.2493 287.112C31.5307 287.112 30.8867 286.953 30.3173 286.636C29.748 286.309 29.3 285.852 28.9733 285.264C28.656 284.667 28.4973 283.971 28.4973 283.178C28.4973 282.385 28.656 281.689 28.9733 281.092C29.2907 280.495 29.734 280.037 30.3033 279.72C30.8727 279.403 31.5213 279.244 32.2493 279.244C32.9773 279.244 33.612 279.403 34.1533 279.72C34.704 280.037 35.124 280.467 35.4133 281.008C35.712 281.54 35.8613 282.133 35.8613 282.786ZM34.8673 282.758C34.8767 282.189 34.76 281.703 34.5173 281.302C34.284 280.901 33.962 280.597 33.5513 280.392C33.1407 280.187 32.6927 280.084 32.2073 280.084C31.4793 280.084 30.8587 280.317 30.3453 280.784C29.832 281.251 29.5473 281.909 29.4913 282.758H34.8673ZM39.3507 280.714C39.5654 280.238 39.8921 279.869 40.3307 279.608C40.7787 279.347 41.3247 279.216 41.9687 279.216V280.238H41.7027C40.9934 280.238 40.4241 280.429 39.9947 280.812C39.5654 281.195 39.3507 281.834 39.3507 282.73V287H38.3707V279.356H39.3507V280.714ZM53.9255 287L51.5035 282.912H49.6975V287H48.7175V277.214H51.6575C52.7495 277.214 53.5755 277.475 54.1355 277.998C54.7049 278.521 54.9895 279.207 54.9895 280.056C54.9895 280.765 54.7842 281.372 54.3735 281.876C53.9722 282.371 53.3749 282.693 52.5815 282.842L55.1015 287H53.9255ZM49.6975 282.114H51.6715C52.4369 282.114 53.0109 281.927 53.3935 281.554C53.7855 281.181 53.9815 280.681 53.9815 280.056C53.9815 279.412 53.7949 278.917 53.4215 278.572C53.0482 278.217 52.4602 278.04 51.6575 278.04H49.6975V282.114ZM64.5667 282.786C64.5667 283.122 64.5574 283.379 64.5387 283.556H58.1967C58.2247 284.135 58.3647 284.629 58.6167 285.04C58.8687 285.451 59.2001 285.763 59.6107 285.978C60.0214 286.183 60.4694 286.286 60.9547 286.286C61.5894 286.286 62.1214 286.132 62.5507 285.824C62.9894 285.516 63.2787 285.101 63.4187 284.578H64.4547C64.2681 285.325 63.8667 285.936 63.2507 286.412C62.6441 286.879 61.8787 287.112 60.9547 287.112C60.2361 287.112 59.5921 286.953 59.0227 286.636C58.4534 286.309 58.0054 285.852 57.6787 285.264C57.3614 284.667 57.2027 283.971 57.2027 283.178C57.2027 282.385 57.3614 281.689 57.6787 281.092C57.9961 280.495 58.4394 280.037 59.0087 279.72C59.5781 279.403 60.2267 279.244 60.9547 279.244C61.6827 279.244 62.3174 279.403 62.8587 279.72C63.4094 280.037 63.8294 280.467 64.1187 281.008C64.4174 281.54 64.5667 282.133 64.5667 282.786ZM63.5727 282.758C63.5821 282.189 63.4654 281.703 63.2227 281.302C62.9894 280.901 62.6674 280.597 62.2567 280.392C61.8461 280.187 61.3981 280.084 60.9127 280.084C60.1847 280.084 59.5641 280.317 59.0507 280.784C58.5374 281.251 58.2527 281.909 58.1967 282.758H63.5727ZM69.7081 287.112C68.8308 287.112 68.1121 286.911 67.5521 286.51C67.0014 286.099 66.6934 285.544 66.6281 284.844H67.6361C67.6828 285.273 67.8834 285.623 68.2381 285.894C68.6021 286.155 69.0874 286.286 69.6941 286.286C70.2261 286.286 70.6414 286.16 70.9401 285.908C71.2481 285.656 71.4021 285.343 71.4021 284.97C71.4021 284.709 71.3181 284.494 71.1501 284.326C70.9821 284.158 70.7674 284.027 70.5061 283.934C70.2541 283.831 69.9088 283.724 69.4701 283.612C68.9008 283.463 68.4388 283.313 68.0841 283.164C67.7294 283.015 67.4261 282.795 67.1741 282.506C66.9314 282.207 66.8101 281.811 66.8101 281.316C66.8101 280.943 66.9221 280.597 67.1461 280.28C67.3701 279.963 67.6874 279.711 68.0981 279.524C68.5088 279.337 68.9754 279.244 69.4981 279.244C70.3194 279.244 70.9821 279.454 71.4861 279.874C71.9901 280.285 72.2608 280.854 72.2981 281.582H71.3181C71.2901 281.134 71.1128 280.775 70.7861 280.504C70.4688 280.224 70.0301 280.084 69.4701 280.084C68.9754 280.084 68.5741 280.201 68.2661 280.434C67.9581 280.667 67.8041 280.957 67.8041 281.302C67.8041 281.601 67.8928 281.848 68.0701 282.044C68.2568 282.231 68.4854 282.38 68.7561 282.492C69.0268 282.595 69.3908 282.711 69.8481 282.842C70.3988 282.991 70.8374 283.136 71.1641 283.276C71.4908 283.416 71.7708 283.621 72.0041 283.892C72.2374 284.163 72.3588 284.522 72.3681 284.97C72.3681 285.381 72.2561 285.749 72.0321 286.076C71.8081 286.393 71.4954 286.645 71.0941 286.832C70.6928 287.019 70.2308 287.112 69.7081 287.112ZM81.8452 282.786C81.8452 283.122 81.8359 283.379 81.8172 283.556H75.4752C75.5032 284.135 75.6432 284.629 75.8952 285.04C76.1472 285.451 76.4785 285.763 76.8892 285.978C77.2999 286.183 77.7479 286.286 78.2332 286.286C78.8679 286.286 79.3999 286.132 79.8292 285.824C80.2679 285.516 80.5572 285.101 80.6972 284.578H81.7332C81.5465 285.325 81.1452 285.936 80.5292 286.412C79.9225 286.879 79.1572 287.112 78.2332 287.112C77.5145 287.112 76.8705 286.953 76.3012 286.636C75.7319 286.309 75.2839 285.852 74.9572 285.264C74.6399 284.667 74.4812 283.971 74.4812 283.178C74.4812 282.385 74.6399 281.689 74.9572 281.092C75.2745 280.495 75.7179 280.037 76.2872 279.72C76.8565 279.403 77.5052 279.244 78.2332 279.244C78.9612 279.244 79.5959 279.403 80.1372 279.72C80.6879 280.037 81.1079 280.467 81.3972 281.008C81.6959 281.54 81.8452 282.133 81.8452 282.786ZM80.8512 282.758C80.8605 282.189 80.7439 281.703 80.5012 281.302C80.2679 280.901 79.9459 280.597 79.5352 280.392C79.1245 280.187 78.6765 280.084 78.1912 280.084C77.4632 280.084 76.8425 280.317 76.3292 280.784C75.8159 281.251 75.5312 281.909 75.4752 282.758H80.8512ZM83.9066 283.164C83.9066 282.38 84.0606 281.694 84.3686 281.106C84.6859 280.509 85.1199 280.051 85.6706 279.734C86.2306 279.407 86.8606 279.244 87.5606 279.244C88.2886 279.244 88.9139 279.412 89.4366 279.748C89.9686 280.084 90.3512 280.513 90.5846 281.036V279.356H91.5646V287H90.5846V285.306C90.3419 285.829 89.9546 286.263 89.4226 286.608C88.8999 286.944 88.2746 287.112 87.5466 287.112C86.8559 287.112 86.2306 286.949 85.6706 286.622C85.1199 286.295 84.6859 285.833 84.3686 285.236C84.0606 284.639 83.9066 283.948 83.9066 283.164ZM90.5846 283.178C90.5846 282.562 90.4586 282.021 90.2066 281.554C89.9546 281.087 89.6092 280.728 89.1706 280.476C88.7412 280.224 88.2652 280.098 87.7426 280.098C87.2012 280.098 86.7159 280.219 86.2866 280.462C85.8572 280.705 85.5166 281.059 85.2646 281.526C85.0219 281.983 84.9006 282.529 84.9006 283.164C84.9006 283.789 85.0219 284.34 85.2646 284.816C85.5166 285.283 85.8572 285.642 86.2866 285.894C86.7159 286.137 87.2012 286.258 87.7426 286.258C88.2652 286.258 88.7412 286.132 89.1706 285.88C89.6092 285.628 89.9546 285.269 90.2066 284.802C90.4586 284.335 90.5846 283.794 90.5846 283.178ZM95.4982 280.714C95.7129 280.238 96.0396 279.869 96.4782 279.608C96.9262 279.347 97.4722 279.216 98.1162 279.216V280.238H97.8502C97.1409 280.238 96.5716 280.429 96.1422 280.812C95.7129 281.195 95.4982 281.834 95.4982 282.73V287H94.5182V279.356H95.4982V280.714ZM99.8589 283.178C99.8589 282.385 100.018 281.694 100.335 281.106C100.652 280.509 101.091 280.051 101.651 279.734C102.211 279.407 102.85 279.244 103.569 279.244C104.512 279.244 105.286 279.477 105.893 279.944C106.509 280.411 106.906 281.045 107.083 281.848H106.033C105.902 281.297 105.618 280.868 105.179 280.56C104.75 280.243 104.213 280.084 103.569 280.084C103.056 280.084 102.594 280.201 102.183 280.434C101.772 280.667 101.446 281.017 101.203 281.484C100.97 281.941 100.853 282.506 100.853 283.178C100.853 283.85 100.97 284.419 101.203 284.886C101.446 285.353 101.772 285.703 102.183 285.936C102.594 286.169 103.056 286.286 103.569 286.286C104.213 286.286 104.75 286.132 105.179 285.824C105.618 285.507 105.902 285.068 106.033 284.508H107.083C106.906 285.292 106.509 285.922 105.893 286.398C105.277 286.874 104.502 287.112 103.569 287.112C102.85 287.112 102.211 286.953 101.651 286.636C101.091 286.309 100.652 285.852 100.335 285.264C100.018 284.667 99.8589 283.971 99.8589 283.178ZM113.249 279.216C113.828 279.216 114.346 279.337 114.803 279.58C115.27 279.823 115.634 280.196 115.895 280.7C116.166 281.195 116.301 281.801 116.301 282.52V287H115.335V282.632C115.335 281.801 115.125 281.167 114.705 280.728C114.295 280.289 113.73 280.07 113.011 280.07C112.274 280.07 111.686 280.303 111.247 280.77C110.809 281.237 110.589 281.923 110.589 282.828V287H109.609V276.64H110.589V280.658C110.832 280.201 111.187 279.846 111.653 279.594C112.129 279.342 112.661 279.216 113.249 279.216Z" fill="#5F5F5F"/>
<rect x="542" y="262" width="136" height="41" rx="20" fill="white"/>
<path d="M560.82 280.07C560.54 279.426 560.111 278.922 559.532 278.558C558.963 278.185 558.291 277.998 557.516 277.998C556.788 277.998 556.135 278.166 555.556 278.502C554.977 278.838 554.52 279.319 554.184 279.944C553.848 280.56 553.68 281.279 553.68 282.1C553.68 282.921 553.848 283.645 554.184 284.27C554.52 284.895 554.977 285.376 555.556 285.712C556.135 286.048 556.788 286.216 557.516 286.216C558.197 286.216 558.809 286.071 559.35 285.782C559.901 285.483 560.339 285.063 560.666 284.522C561.002 283.971 561.193 283.332 561.24 282.604H557.124V281.806H562.276V282.52C562.229 283.379 561.996 284.158 561.576 284.858C561.156 285.549 560.591 286.095 559.882 286.496C559.182 286.897 558.393 287.098 557.516 287.098C556.611 287.098 555.789 286.888 555.052 286.468C554.315 286.039 553.731 285.446 553.302 284.69C552.882 283.925 552.672 283.061 552.672 282.1C552.672 281.139 552.882 280.28 553.302 279.524C553.731 278.759 554.315 278.166 555.052 277.746C555.789 277.317 556.611 277.102 557.516 277.102C558.561 277.102 559.476 277.363 560.26 277.886C561.044 278.409 561.613 279.137 561.968 280.07H560.82ZM565.768 280.714C565.982 280.238 566.309 279.869 566.748 279.608C567.196 279.347 567.742 279.216 568.386 279.216V280.238H568.12C567.41 280.238 566.841 280.429 566.412 280.812C565.982 281.195 565.768 281.834 565.768 282.73V287H564.788V279.356H565.768V280.714ZM570.128 283.164C570.128 282.38 570.282 281.694 570.59 281.106C570.908 280.509 571.342 280.051 571.892 279.734C572.452 279.407 573.082 279.244 573.782 279.244C574.51 279.244 575.136 279.412 575.658 279.748C576.19 280.084 576.573 280.513 576.806 281.036V279.356H577.786V287H576.806V285.306C576.564 285.829 576.176 286.263 575.644 286.608C575.122 286.944 574.496 287.112 573.768 287.112C573.078 287.112 572.452 286.949 571.892 286.622C571.342 286.295 570.908 285.833 570.59 285.236C570.282 284.639 570.128 283.948 570.128 283.164ZM576.806 283.178C576.806 282.562 576.68 282.021 576.428 281.554C576.176 281.087 575.831 280.728 575.392 280.476C574.963 280.224 574.487 280.098 573.964 280.098C573.423 280.098 572.938 280.219 572.508 280.462C572.079 280.705 571.738 281.059 571.486 281.526C571.244 281.983 571.122 282.529 571.122 283.164C571.122 283.789 571.244 284.34 571.486 284.816C571.738 285.283 572.079 285.642 572.508 285.894C572.938 286.137 573.423 286.258 573.964 286.258C574.487 286.258 574.963 286.132 575.392 285.88C575.831 285.628 576.176 285.269 576.428 284.802C576.68 284.335 576.806 283.794 576.806 283.178ZM581.706 281.036C581.949 280.523 582.331 280.098 582.854 279.762C583.386 279.417 584.016 279.244 584.744 279.244C585.435 279.244 586.055 279.407 586.606 279.734C587.166 280.051 587.6 280.509 587.908 281.106C588.225 281.694 588.384 282.38 588.384 283.164C588.384 283.948 588.225 284.639 587.908 285.236C587.6 285.833 587.166 286.295 586.606 286.622C586.055 286.949 585.435 287.112 584.744 287.112C584.025 287.112 583.4 286.944 582.868 286.608C582.336 286.263 581.949 285.833 581.706 285.32V290.612H580.74V279.356H581.706V281.036ZM587.39 283.164C587.39 282.529 587.264 281.983 587.012 281.526C586.769 281.059 586.433 280.705 586.004 280.462C585.575 280.219 585.089 280.098 584.548 280.098C584.025 280.098 583.545 280.224 583.106 280.476C582.677 280.728 582.336 281.087 582.084 281.554C581.832 282.021 581.706 282.562 581.706 283.178C581.706 283.794 581.832 284.335 582.084 284.802C582.336 285.269 582.677 285.628 583.106 285.88C583.545 286.132 584.025 286.258 584.548 286.258C585.089 286.258 585.575 286.137 586.004 285.894C586.433 285.642 586.769 285.283 587.012 284.816C587.264 284.34 587.39 283.789 587.39 283.164ZM594.544 279.216C595.122 279.216 595.64 279.337 596.098 279.58C596.564 279.823 596.928 280.196 597.19 280.7C597.46 281.195 597.596 281.801 597.596 282.52V287H596.63V282.632C596.63 281.801 596.42 281.167 596 280.728C595.589 280.289 595.024 280.07 594.306 280.07C593.568 280.07 592.98 280.303 592.542 280.77C592.103 281.237 591.884 281.923 591.884 282.828V287H590.904V276.64H591.884V280.658C592.126 280.201 592.481 279.846 592.948 279.594C593.424 279.342 593.956 279.216 594.544 279.216ZM600.969 277.914C600.773 277.914 600.605 277.844 600.465 277.704C600.325 277.564 600.255 277.391 600.255 277.186C600.255 276.981 600.325 276.813 600.465 276.682C600.605 276.542 600.773 276.472 600.969 276.472C601.165 276.472 601.333 276.542 601.473 276.682C601.613 276.813 601.683 276.981 601.683 277.186C601.683 277.391 601.613 277.564 601.473 277.704C601.333 277.844 601.165 277.914 600.969 277.914ZM601.459 279.356V287H600.479V279.356H601.459ZM603.947 283.178C603.947 282.385 604.106 281.694 604.423 281.106C604.74 280.509 605.179 280.051 605.739 279.734C606.299 279.407 606.938 279.244 607.657 279.244C608.6 279.244 609.374 279.477 609.981 279.944C610.597 280.411 610.994 281.045 611.171 281.848H610.121C609.99 281.297 609.706 280.868 609.267 280.56C608.838 280.243 608.301 280.084 607.657 280.084C607.144 280.084 606.682 280.201 606.271 280.434C605.86 280.667 605.534 281.017 605.291 281.484C605.058 281.941 604.941 282.506 604.941 283.178C604.941 283.85 605.058 284.419 605.291 284.886C605.534 285.353 605.86 285.703 606.271 285.936C606.682 286.169 607.144 286.286 607.657 286.286C608.301 286.286 608.838 286.132 609.267 285.824C609.706 285.507 609.99 285.068 610.121 284.508H611.171C610.994 285.292 610.597 285.922 609.981 286.398C609.365 286.874 608.59 287.112 607.657 287.112C606.938 287.112 606.299 286.953 605.739 286.636C605.179 286.309 604.74 285.852 604.423 285.264C604.106 284.667 603.947 283.971 603.947 283.178ZM621.153 277.214C622.236 277.214 623.165 277.41 623.939 277.802C624.714 278.194 625.307 278.759 625.717 279.496C626.128 280.233 626.333 281.111 626.333 282.128C626.333 283.136 626.128 284.009 625.717 284.746C625.307 285.474 624.714 286.034 623.939 286.426C623.165 286.809 622.236 287 621.153 287H618.255V277.214H621.153ZM621.153 286.188C622.516 286.188 623.552 285.833 624.261 285.124C624.98 284.405 625.339 283.407 625.339 282.128C625.339 280.84 624.98 279.837 624.261 279.118C623.552 278.39 622.516 278.026 621.153 278.026H619.235V286.188H621.153ZM635.773 282.786C635.773 283.122 635.763 283.379 635.745 283.556H629.403C629.431 284.135 629.571 284.629 629.823 285.04C630.075 285.451 630.406 285.763 630.817 285.978C631.227 286.183 631.675 286.286 632.161 286.286C632.795 286.286 633.327 286.132 633.757 285.824C634.195 285.516 634.485 285.101 634.625 284.578H635.661C635.474 285.325 635.073 285.936 634.457 286.412C633.85 286.879 633.085 287.112 632.161 287.112C631.442 287.112 630.798 286.953 630.229 286.636C629.659 286.309 629.211 285.852 628.885 285.264C628.567 284.667 628.409 283.971 628.409 283.178C628.409 282.385 628.567 281.689 628.885 281.092C629.202 280.495 629.645 280.037 630.215 279.72C630.784 279.403 631.433 279.244 632.161 279.244C632.889 279.244 633.523 279.403 634.065 279.72C634.615 280.037 635.035 280.467 635.325 281.008C635.623 281.54 635.773 282.133 635.773 282.786ZM634.779 282.758C634.788 282.189 634.671 281.703 634.429 281.302C634.195 280.901 633.873 280.597 633.463 280.392C633.052 280.187 632.604 280.084 632.119 280.084C631.391 280.084 630.77 280.317 630.257 280.784C629.743 281.251 629.459 281.909 629.403 282.758H634.779ZM640.914 287.112C640.037 287.112 639.318 286.911 638.758 286.51C638.207 286.099 637.899 285.544 637.834 284.844H638.842C638.889 285.273 639.089 285.623 639.444 285.894C639.808 286.155 640.293 286.286 640.9 286.286C641.432 286.286 641.847 286.16 642.146 285.908C642.454 285.656 642.608 285.343 642.608 284.97C642.608 284.709 642.524 284.494 642.356 284.326C642.188 284.158 641.973 284.027 641.712 283.934C641.46 283.831 641.115 283.724 640.676 283.612C640.107 283.463 639.645 283.313 639.29 283.164C638.935 283.015 638.632 282.795 638.38 282.506C638.137 282.207 638.016 281.811 638.016 281.316C638.016 280.943 638.128 280.597 638.352 280.28C638.576 279.963 638.893 279.711 639.304 279.524C639.715 279.337 640.181 279.244 640.704 279.244C641.525 279.244 642.188 279.454 642.692 279.874C643.196 280.285 643.467 280.854 643.504 281.582H642.524C642.496 281.134 642.319 280.775 641.992 280.504C641.675 280.224 641.236 280.084 640.676 280.084C640.181 280.084 639.78 280.201 639.472 280.434C639.164 280.667 639.01 280.957 639.01 281.302C639.01 281.601 639.099 281.848 639.276 282.044C639.463 282.231 639.691 282.38 639.962 282.492C640.233 282.595 640.597 282.711 641.054 282.842C641.605 282.991 642.043 283.136 642.37 283.276C642.697 283.416 642.977 283.621 643.21 283.892C643.443 284.163 643.565 284.522 643.574 284.97C643.574 285.381 643.462 285.749 643.238 286.076C643.014 286.393 642.701 286.645 642.3 286.832C641.899 287.019 641.437 287.112 640.914 287.112ZM646.625 277.914C646.429 277.914 646.261 277.844 646.121 277.704C645.981 277.564 645.911 277.391 645.911 277.186C645.911 276.981 645.981 276.813 646.121 276.682C646.261 276.542 646.429 276.472 646.625 276.472C646.821 276.472 646.989 276.542 647.129 276.682C647.269 276.813 647.339 276.981 647.339 277.186C647.339 277.391 647.269 277.564 647.129 277.704C646.989 277.844 646.821 277.914 646.625 277.914ZM647.115 279.356V287H646.135V279.356H647.115ZM653.257 279.244C653.975 279.244 654.601 279.412 655.133 279.748C655.665 280.084 656.047 280.509 656.281 281.022V279.356H657.261V287.196C657.261 287.896 657.107 288.517 656.799 289.058C656.5 289.599 656.08 290.015 655.539 290.304C654.997 290.603 654.381 290.752 653.691 290.752C652.711 290.752 651.894 290.519 651.241 290.052C650.597 289.585 650.195 288.951 650.037 288.148H651.003C651.171 288.68 651.488 289.105 651.955 289.422C652.431 289.739 653.009 289.898 653.691 289.898C654.185 289.898 654.629 289.791 655.021 289.576C655.413 289.371 655.721 289.063 655.945 288.652C656.169 288.241 656.281 287.756 656.281 287.196V285.306C656.038 285.829 655.651 286.263 655.119 286.608C654.596 286.944 653.975 287.112 653.257 287.112C652.557 287.112 651.927 286.949 651.367 286.622C650.816 286.295 650.382 285.833 650.065 285.236C649.757 284.639 649.603 283.948 649.603 283.164C649.603 282.38 649.757 281.694 650.065 281.106C650.382 280.509 650.816 280.051 651.367 279.734C651.927 279.407 652.557 279.244 653.257 279.244ZM656.281 283.178C656.281 282.562 656.155 282.021 655.903 281.554C655.651 281.087 655.305 280.728 654.867 280.476C654.437 280.224 653.961 280.098 653.439 280.098C652.897 280.098 652.412 280.219 651.983 280.462C651.553 280.705 651.213 281.059 650.961 281.526C650.718 281.983 650.597 282.529 650.597 283.164C650.597 283.789 650.718 284.34 650.961 284.816C651.213 285.283 651.553 285.642 651.983 285.894C652.412 286.137 652.897 286.258 653.439 286.258C653.961 286.258 654.437 286.132 654.867 285.88C655.305 285.628 655.651 285.269 655.903 284.802C656.155 284.335 656.281 283.794 656.281 283.178ZM663.798 279.216C664.713 279.216 665.46 279.501 666.038 280.07C666.617 280.63 666.906 281.447 666.906 282.52V287H665.94V282.632C665.94 281.801 665.73 281.167 665.31 280.728C664.9 280.289 664.335 280.07 663.616 280.07C662.879 280.07 662.291 280.303 661.852 280.77C661.414 281.237 661.194 281.923 661.194 282.828V287H660.214V279.356H661.194V280.658C661.437 280.191 661.787 279.837 662.244 279.594C662.702 279.342 663.22 279.216 663.798 279.216Z" fill="#5F5F5F"/>
</svg>
