<svg width="702" height="303" viewBox="0 0 702 303" fill="none" xmlns="http://www.w3.org/2000/svg">
<rect x="170" y="188" width="116" height="41" rx="20" fill="white"/>
<path d="M182.058 203.214V209.374C182.058 210.345 182.287 211.063 182.744 211.53C183.211 211.997 183.845 212.23 184.648 212.23C185.451 212.23 186.076 212.001 186.524 211.544C186.981 211.077 187.21 210.354 187.21 209.374V203.214H188.19V209.36C188.19 210.601 187.859 211.535 187.196 212.16C186.543 212.785 185.689 213.098 184.634 213.098C183.579 213.098 182.721 212.785 182.058 212.16C181.405 211.535 181.078 210.601 181.078 209.36V203.214H182.058ZM192.072 203.214V213H191.092V203.214H192.072ZM199.362 199.84L195.498 215.324H194.532L198.368 199.84H199.362ZM202.842 203.214V209.374C202.842 210.345 203.071 211.063 203.528 211.53C203.995 211.997 204.629 212.23 205.432 212.23C206.235 212.23 206.86 212.001 207.308 211.544C207.765 211.077 207.994 210.354 207.994 209.374V203.214H208.974V209.36C208.974 210.601 208.643 211.535 207.98 212.16C207.327 212.785 206.473 213.098 205.418 213.098C204.363 213.098 203.505 212.785 202.842 212.16C202.189 211.535 201.862 210.601 201.862 209.36V203.214H202.842ZM215.404 208.114L218.372 213H217.28L214.788 208.912L212.422 213H211.33L214.284 208.072L211.33 203.214H212.422L214.9 207.288L217.294 203.214H218.386L215.404 208.114ZM228.238 203.214C229.321 203.214 230.25 203.41 231.024 203.802C231.799 204.194 232.392 204.759 232.802 205.496C233.213 206.233 233.418 207.111 233.418 208.128C233.418 209.136 233.213 210.009 232.802 210.746C232.392 211.474 231.799 212.034 231.024 212.426C230.25 212.809 229.321 213 228.238 213H225.34V203.214H228.238ZM228.238 212.188C229.601 212.188 230.637 211.833 231.346 211.124C232.065 210.405 232.424 209.407 232.424 208.128C232.424 206.84 232.065 205.837 231.346 205.118C230.637 204.39 229.601 204.026 228.238 204.026H226.32V212.188H228.238ZM242.857 208.786C242.857 209.122 242.848 209.379 242.829 209.556H236.487C236.515 210.135 236.655 210.629 236.907 211.04C237.159 211.451 237.491 211.763 237.901 211.978C238.312 212.183 238.76 212.286 239.245 212.286C239.88 212.286 240.412 212.132 240.841 211.824C241.28 211.516 241.569 211.101 241.709 210.578H242.745C242.559 211.325 242.157 211.936 241.541 212.412C240.935 212.879 240.169 213.112 239.245 213.112C238.527 213.112 237.883 212.953 237.313 212.636C236.744 212.309 236.296 211.852 235.969 211.264C235.652 210.667 235.493 209.971 235.493 209.178C235.493 208.385 235.652 207.689 235.969 207.092C236.287 206.495 236.73 206.037 237.299 205.72C237.869 205.403 238.517 205.244 239.245 205.244C239.973 205.244 240.608 205.403 241.149 205.72C241.7 206.037 242.12 206.467 242.409 207.008C242.708 207.54 242.857 208.133 242.857 208.786ZM241.863 208.758C241.873 208.189 241.756 207.703 241.513 207.302C241.28 206.901 240.958 206.597 240.547 206.392C240.137 206.187 239.689 206.084 239.203 206.084C238.475 206.084 237.855 206.317 237.341 206.784C236.828 207.251 236.543 207.909 236.487 208.758H241.863ZM247.999 213.112C247.121 213.112 246.403 212.911 245.843 212.51C245.292 212.099 244.984 211.544 244.919 210.844H245.927C245.973 211.273 246.174 211.623 246.529 211.894C246.893 212.155 247.378 212.286 247.985 212.286C248.517 212.286 248.932 212.16 249.231 211.908C249.539 211.656 249.693 211.343 249.693 210.97C249.693 210.709 249.609 210.494 249.441 210.326C249.273 210.158 249.058 210.027 248.797 209.934C248.545 209.831 248.199 209.724 247.761 209.612C247.191 209.463 246.729 209.313 246.375 209.164C246.02 209.015 245.717 208.795 245.465 208.506C245.222 208.207 245.101 207.811 245.101 207.316C245.101 206.943 245.213 206.597 245.437 206.28C245.661 205.963 245.978 205.711 246.389 205.524C246.799 205.337 247.266 205.244 247.789 205.244C248.61 205.244 249.273 205.454 249.777 205.874C250.281 206.285 250.551 206.854 250.589 207.582H249.609C249.581 207.134 249.403 206.775 249.077 206.504C248.759 206.224 248.321 206.084 247.761 206.084C247.266 206.084 246.865 206.201 246.557 206.434C246.249 206.667 246.095 206.957 246.095 207.302C246.095 207.601 246.183 207.848 246.361 208.044C246.547 208.231 246.776 208.38 247.047 208.492C247.317 208.595 247.681 208.711 248.139 208.842C248.689 208.991 249.128 209.136 249.455 209.276C249.781 209.416 250.061 209.621 250.295 209.892C250.528 210.163 250.649 210.522 250.659 210.97C250.659 211.381 250.547 211.749 250.323 212.076C250.099 212.393 249.786 212.645 249.385 212.832C248.983 213.019 248.521 213.112 247.999 213.112ZM253.71 203.914C253.514 203.914 253.346 203.844 253.206 203.704C253.066 203.564 252.996 203.391 252.996 203.186C252.996 202.981 253.066 202.813 253.206 202.682C253.346 202.542 253.514 202.472 253.71 202.472C253.906 202.472 254.074 202.542 254.214 202.682C254.354 202.813 254.424 202.981 254.424 203.186C254.424 203.391 254.354 203.564 254.214 203.704C254.074 203.844 253.906 203.914 253.71 203.914ZM254.2 205.356V213H253.22V205.356H254.2ZM260.341 205.244C261.06 205.244 261.685 205.412 262.217 205.748C262.749 206.084 263.132 206.509 263.365 207.022V205.356H264.345V213.196C264.345 213.896 264.191 214.517 263.883 215.058C263.585 215.599 263.165 216.015 262.623 216.304C262.082 216.603 261.466 216.752 260.775 216.752C259.795 216.752 258.979 216.519 258.325 216.052C257.681 215.585 257.28 214.951 257.121 214.148H258.087C258.255 214.68 258.573 215.105 259.039 215.422C259.515 215.739 260.094 215.898 260.775 215.898C261.27 215.898 261.713 215.791 262.105 215.576C262.497 215.371 262.805 215.063 263.029 214.652C263.253 214.241 263.365 213.756 263.365 213.196V211.306C263.123 211.829 262.735 212.263 262.203 212.608C261.681 212.944 261.06 213.112 260.341 213.112C259.641 213.112 259.011 212.949 258.451 212.622C257.901 212.295 257.467 211.833 257.149 211.236C256.841 210.639 256.687 209.948 256.687 209.164C256.687 208.38 256.841 207.694 257.149 207.106C257.467 206.509 257.901 206.051 258.451 205.734C259.011 205.407 259.641 205.244 260.341 205.244ZM263.365 209.178C263.365 208.562 263.239 208.021 262.987 207.554C262.735 207.087 262.39 206.728 261.951 206.476C261.522 206.224 261.046 206.098 260.523 206.098C259.982 206.098 259.497 206.219 259.067 206.462C258.638 206.705 258.297 207.059 258.045 207.526C257.803 207.983 257.681 208.529 257.681 209.164C257.681 209.789 257.803 210.34 258.045 210.816C258.297 211.283 258.638 211.642 259.067 211.894C259.497 212.137 259.982 212.258 260.523 212.258C261.046 212.258 261.522 212.132 261.951 211.88C262.39 211.628 262.735 211.269 262.987 210.802C263.239 210.335 263.365 209.794 263.365 209.178ZM270.883 205.216C271.798 205.216 272.544 205.501 273.123 206.07C273.702 206.63 273.991 207.447 273.991 208.52V213H273.025V208.632C273.025 207.801 272.815 207.167 272.395 206.728C271.984 206.289 271.42 206.07 270.701 206.07C269.964 206.07 269.376 206.303 268.937 206.77C268.498 207.237 268.279 207.923 268.279 208.828V213H267.299V205.356H268.279V206.658C268.522 206.191 268.872 205.837 269.329 205.594C269.786 205.342 270.304 205.216 270.883 205.216Z" fill="#5F5F5F"/>
<rect x="494" y="98" width="135" height="41" rx="20" fill="white"/>
<path d="M511.378 116.028C511.378 116.868 511.103 117.545 510.552 118.058C510.001 118.571 509.175 118.828 508.074 118.828H506.1V123H505.12V113.214H508.074C509.166 113.214 509.987 113.471 510.538 113.984C511.098 114.497 511.378 115.179 511.378 116.028ZM508.074 117.988C509.605 117.988 510.37 117.335 510.37 116.028C510.37 115.375 510.188 114.88 509.824 114.544C509.46 114.208 508.877 114.04 508.074 114.04H506.1V117.988H508.074ZM514.719 116.714C514.933 116.238 515.26 115.869 515.699 115.608C516.147 115.347 516.693 115.216 517.337 115.216V116.238H517.071C516.361 116.238 515.792 116.429 515.363 116.812C514.933 117.195 514.719 117.834 514.719 118.73V123H513.739V115.356H514.719V116.714ZM522.873 123.112C522.155 123.112 521.506 122.953 520.927 122.636C520.358 122.309 519.905 121.852 519.569 121.264C519.243 120.667 519.079 119.971 519.079 119.178C519.079 118.385 519.247 117.694 519.583 117.106C519.919 116.509 520.377 116.051 520.955 115.734C521.534 115.407 522.183 115.244 522.901 115.244C523.62 115.244 524.269 115.407 524.847 115.734C525.435 116.051 525.893 116.509 526.219 117.106C526.555 117.694 526.723 118.385 526.723 119.178C526.723 119.962 526.555 120.653 526.219 121.25C525.883 121.847 525.421 122.309 524.833 122.636C524.245 122.953 523.592 123.112 522.873 123.112ZM522.873 122.258C523.377 122.258 523.844 122.146 524.273 121.922C524.703 121.689 525.048 121.343 525.309 120.886C525.58 120.419 525.715 119.85 525.715 119.178C525.715 118.506 525.585 117.941 525.323 117.484C525.062 117.017 524.717 116.672 524.287 116.448C523.858 116.215 523.391 116.098 522.887 116.098C522.383 116.098 521.917 116.215 521.487 116.448C521.058 116.672 520.713 117.017 520.451 117.484C520.199 117.941 520.073 118.506 520.073 119.178C520.073 119.85 520.199 120.419 520.451 120.886C520.713 121.343 521.053 121.689 521.473 121.922C521.903 122.146 522.369 122.258 522.873 122.258ZM528.778 119.164C528.778 118.38 528.937 117.694 529.254 117.106C529.572 116.509 530.006 116.051 530.556 115.734C531.116 115.407 531.746 115.244 532.446 115.244C533.118 115.244 533.725 115.407 534.266 115.734C534.808 116.061 535.204 116.485 535.456 117.008V112.64H536.436V123H535.456V121.292C535.223 121.824 534.84 122.263 534.308 122.608C533.776 122.944 533.151 123.112 532.432 123.112C531.732 123.112 531.102 122.949 530.542 122.622C529.992 122.295 529.558 121.833 529.24 121.236C528.932 120.639 528.778 119.948 528.778 119.164ZM535.456 119.178C535.456 118.562 535.33 118.021 535.078 117.554C534.826 117.087 534.481 116.728 534.042 116.476C533.613 116.224 533.137 116.098 532.614 116.098C532.073 116.098 531.588 116.219 531.158 116.462C530.729 116.705 530.388 117.059 530.136 117.526C529.894 117.983 529.772 118.529 529.772 119.164C529.772 119.789 529.894 120.34 530.136 120.816C530.388 121.283 530.729 121.642 531.158 121.894C531.588 122.137 532.073 122.258 532.614 122.258C533.137 122.258 533.613 122.132 534.042 121.88C534.481 121.628 534.826 121.269 535.078 120.802C535.33 120.335 535.456 119.794 535.456 119.178ZM546.012 115.356V123H545.032V121.656C544.808 122.132 544.463 122.496 543.996 122.748C543.529 123 543.007 123.126 542.428 123.126C541.513 123.126 540.767 122.846 540.188 122.286C539.609 121.717 539.32 120.895 539.32 119.822V115.356H540.286V119.71C540.286 120.541 540.491 121.175 540.902 121.614C541.322 122.053 541.891 122.272 542.61 122.272C543.347 122.272 543.935 122.039 544.374 121.572C544.813 121.105 545.032 120.419 545.032 119.514V115.356H546.012ZM548.518 119.178C548.518 118.385 548.676 117.694 548.994 117.106C549.311 116.509 549.75 116.051 550.31 115.734C550.87 115.407 551.509 115.244 552.228 115.244C553.17 115.244 553.945 115.477 554.552 115.944C555.168 116.411 555.564 117.045 555.742 117.848H554.692C554.561 117.297 554.276 116.868 553.838 116.56C553.408 116.243 552.872 116.084 552.228 116.084C551.714 116.084 551.252 116.201 550.842 116.434C550.431 116.667 550.104 117.017 549.862 117.484C549.628 117.941 549.512 118.506 549.512 119.178C549.512 119.85 549.628 120.419 549.862 120.886C550.104 121.353 550.431 121.703 550.842 121.936C551.252 122.169 551.714 122.286 552.228 122.286C552.872 122.286 553.408 122.132 553.838 121.824C554.276 121.507 554.561 121.068 554.692 120.508H555.742C555.564 121.292 555.168 121.922 554.552 122.398C553.936 122.874 553.161 123.112 552.228 123.112C551.509 123.112 550.87 122.953 550.31 122.636C549.75 122.309 549.311 121.852 548.994 121.264C548.676 120.667 548.518 119.971 548.518 119.178ZM559.542 116.182V120.928C559.542 121.395 559.631 121.717 559.808 121.894C559.985 122.071 560.298 122.16 560.746 122.16H561.642V123H560.592C559.901 123 559.388 122.841 559.052 122.524C558.716 122.197 558.548 121.665 558.548 120.928V116.182H557.484V115.356H558.548V113.438H559.542V115.356H561.642V116.182H559.542ZM571.431 113.214C572.513 113.214 573.442 113.41 574.217 113.802C574.991 114.194 575.584 114.759 575.995 115.496C576.405 116.233 576.611 117.111 576.611 118.128C576.611 119.136 576.405 120.009 575.995 120.746C575.584 121.474 574.991 122.034 574.217 122.426C573.442 122.809 572.513 123 571.431 123H568.533V113.214H571.431ZM571.431 122.188C572.793 122.188 573.829 121.833 574.539 121.124C575.257 120.405 575.617 119.407 575.617 118.128C575.617 116.84 575.257 115.837 574.539 115.118C573.829 114.39 572.793 114.026 571.431 114.026H569.513V122.188H571.431ZM586.05 118.786C586.05 119.122 586.041 119.379 586.022 119.556H579.68C579.708 120.135 579.848 120.629 580.1 121.04C580.352 121.451 580.683 121.763 581.094 121.978C581.505 122.183 581.953 122.286 582.438 122.286C583.073 122.286 583.605 122.132 584.034 121.824C584.473 121.516 584.762 121.101 584.902 120.578H585.938C585.751 121.325 585.35 121.936 584.734 122.412C584.127 122.879 583.362 123.112 582.438 123.112C581.719 123.112 581.075 122.953 580.506 122.636C579.937 122.309 579.489 121.852 579.162 121.264C578.845 120.667 578.686 119.971 578.686 119.178C578.686 118.385 578.845 117.689 579.162 117.092C579.479 116.495 579.923 116.037 580.492 115.72C581.061 115.403 581.71 115.244 582.438 115.244C583.166 115.244 583.801 115.403 584.342 115.72C584.893 116.037 585.313 116.467 585.602 117.008C585.901 117.54 586.05 118.133 586.05 118.786ZM585.056 118.758C585.065 118.189 584.949 117.703 584.706 117.302C584.473 116.901 584.151 116.597 583.74 116.392C583.329 116.187 582.881 116.084 582.396 116.084C581.668 116.084 581.047 116.317 580.534 116.784C580.021 117.251 579.736 117.909 579.68 118.758H585.056ZM591.191 123.112C590.314 123.112 589.595 122.911 589.035 122.51C588.485 122.099 588.177 121.544 588.111 120.844H589.119C589.166 121.273 589.367 121.623 589.721 121.894C590.085 122.155 590.571 122.286 591.177 122.286C591.709 122.286 592.125 122.16 592.423 121.908C592.731 121.656 592.885 121.343 592.885 120.97C592.885 120.709 592.801 120.494 592.633 120.326C592.465 120.158 592.251 120.027 591.989 119.934C591.737 119.831 591.392 119.724 590.953 119.612C590.384 119.463 589.922 119.313 589.567 119.164C589.213 119.015 588.909 118.795 588.657 118.506C588.415 118.207 588.293 117.811 588.293 117.316C588.293 116.943 588.405 116.597 588.629 116.28C588.853 115.963 589.171 115.711 589.581 115.524C589.992 115.337 590.459 115.244 590.981 115.244C591.803 115.244 592.465 115.454 592.969 115.874C593.473 116.285 593.744 116.854 593.781 117.582H592.801C592.773 117.134 592.596 116.775 592.269 116.504C591.952 116.224 591.513 116.084 590.953 116.084C590.459 116.084 590.057 116.201 589.749 116.434C589.441 116.667 589.287 116.957 589.287 117.302C589.287 117.601 589.376 117.848 589.553 118.044C589.74 118.231 589.969 118.38 590.239 118.492C590.51 118.595 590.874 118.711 591.331 118.842C591.882 118.991 592.321 119.136 592.647 119.276C592.974 119.416 593.254 119.621 593.487 119.892C593.721 120.163 593.842 120.522 593.851 120.97C593.851 121.381 593.739 121.749 593.515 122.076C593.291 122.393 592.979 122.645 592.577 122.832C592.176 123.019 591.714 123.112 591.191 123.112ZM596.902 113.914C596.706 113.914 596.538 113.844 596.398 113.704C596.258 113.564 596.188 113.391 596.188 113.186C596.188 112.981 596.258 112.813 596.398 112.682C596.538 112.542 596.706 112.472 596.902 112.472C597.098 112.472 597.266 112.542 597.406 112.682C597.546 112.813 597.616 112.981 597.616 113.186C597.616 113.391 597.546 113.564 597.406 113.704C597.266 113.844 597.098 113.914 596.902 113.914ZM597.392 115.356V123H596.412V115.356H597.392ZM603.534 115.244C604.253 115.244 604.878 115.412 605.41 115.748C605.942 116.084 606.325 116.509 606.558 117.022V115.356H607.538V123.196C607.538 123.896 607.384 124.517 607.076 125.058C606.777 125.599 606.357 126.015 605.816 126.304C605.275 126.603 604.659 126.752 603.968 126.752C602.988 126.752 602.171 126.519 601.518 126.052C600.874 125.585 600.473 124.951 600.314 124.148H601.28C601.448 124.68 601.765 125.105 602.232 125.422C602.708 125.739 603.287 125.898 603.968 125.898C604.463 125.898 604.906 125.791 605.298 125.576C605.69 125.371 605.998 125.063 606.222 124.652C606.446 124.241 606.558 123.756 606.558 123.196V121.306C606.315 121.829 605.928 122.263 605.396 122.608C604.873 122.944 604.253 123.112 603.534 123.112C602.834 123.112 602.204 122.949 601.644 122.622C601.093 122.295 600.659 121.833 600.342 121.236C600.034 120.639 599.88 119.948 599.88 119.164C599.88 118.38 600.034 117.694 600.342 117.106C600.659 116.509 601.093 116.051 601.644 115.734C602.204 115.407 602.834 115.244 603.534 115.244ZM606.558 119.178C606.558 118.562 606.432 118.021 606.18 117.554C605.928 117.087 605.583 116.728 605.144 116.476C604.715 116.224 604.239 116.098 603.716 116.098C603.175 116.098 602.689 116.219 602.26 116.462C601.831 116.705 601.49 117.059 601.238 117.526C600.995 117.983 600.874 118.529 600.874 119.164C600.874 119.789 600.995 120.34 601.238 120.816C601.49 121.283 601.831 121.642 602.26 121.894C602.689 122.137 603.175 122.258 603.716 122.258C604.239 122.258 604.715 122.132 605.144 121.88C605.583 121.628 605.928 121.269 606.18 120.802C606.432 120.335 606.558 119.794 606.558 119.178ZM614.076 115.216C614.99 115.216 615.737 115.501 616.316 116.07C616.894 116.63 617.184 117.447 617.184 118.52V123H616.218V118.632C616.218 117.801 616.008 117.167 615.588 116.728C615.177 116.289 614.612 116.07 613.894 116.07C613.156 116.07 612.568 116.303 612.13 116.77C611.691 117.237 611.472 117.923 611.472 118.828V123H610.492V115.356H611.472V116.658C611.714 116.191 612.064 115.837 612.522 115.594C612.979 115.342 613.497 115.216 614.076 115.216Z" fill="#5F5F5F"/>
<rect x="376" y="251" width="93" height="41" rx="20" fill="white"/>
<path d="M394.386 266.214V276H393.406V271.422H388.1V276H387.12V266.214H388.1V270.61H393.406V266.214H394.386ZM403.064 266.214V267.026H400.348V276H399.368V267.026H396.638V266.214H403.064ZM414.89 266.34V276H413.91V268.286L410.466 276H409.752L406.308 268.314V276H405.328V266.34H406.364L410.102 274.712L413.84 266.34H414.89ZM418.81 275.202H422.324V276H417.83V266.214H418.81V275.202ZM428.793 262.84L424.929 278.324H423.963L427.799 262.84H428.793ZM430.887 271.1C430.887 270.139 431.097 269.28 431.517 268.524C431.937 267.759 432.511 267.166 433.239 266.746C433.967 266.317 434.779 266.102 435.675 266.102C436.767 266.102 437.7 266.363 438.475 266.886C439.259 267.399 439.828 268.127 440.183 269.07H439.035C438.755 268.407 438.325 267.889 437.747 267.516C437.177 267.143 436.487 266.956 435.675 266.956C434.956 266.956 434.307 267.124 433.729 267.46C433.159 267.796 432.711 268.281 432.385 268.916C432.058 269.541 431.895 270.269 431.895 271.1C431.895 271.931 432.058 272.659 432.385 273.284C432.711 273.909 433.159 274.39 433.729 274.726C434.307 275.062 434.956 275.23 435.675 275.23C436.487 275.23 437.177 275.048 437.747 274.684C438.325 274.311 438.755 273.797 439.035 273.144H440.183C439.828 274.077 439.259 274.801 438.475 275.314C437.691 275.827 436.757 276.084 435.675 276.084C434.779 276.084 433.967 275.874 433.239 275.454C432.511 275.025 431.937 274.432 431.517 273.676C431.097 272.92 430.887 272.061 430.887 271.1ZM445.82 276.098C445.176 276.098 444.607 275.986 444.112 275.762C443.627 275.538 443.244 275.225 442.964 274.824C442.684 274.423 442.535 273.975 442.516 273.48H443.552C443.599 273.956 443.809 274.376 444.182 274.74C444.555 275.095 445.101 275.272 445.82 275.272C446.483 275.272 447.005 275.104 447.388 274.768C447.78 274.423 447.976 273.989 447.976 273.466C447.976 273.046 447.869 272.71 447.654 272.458C447.439 272.197 447.173 272.005 446.856 271.884C446.539 271.753 446.1 271.613 445.54 271.464C444.887 271.287 444.369 271.114 443.986 270.946C443.603 270.778 443.277 270.517 443.006 270.162C442.735 269.807 442.6 269.327 442.6 268.72C442.6 268.216 442.731 267.768 442.992 267.376C443.253 266.975 443.622 266.662 444.098 266.438C444.574 266.214 445.12 266.102 445.736 266.102C446.641 266.102 447.369 266.326 447.92 266.774C448.48 267.213 448.802 267.782 448.886 268.482H447.822C447.757 268.081 447.537 267.726 447.164 267.418C446.791 267.101 446.287 266.942 445.652 266.942C445.064 266.942 444.574 267.101 444.182 267.418C443.79 267.726 443.594 268.151 443.594 268.692C443.594 269.103 443.701 269.434 443.916 269.686C444.131 269.938 444.397 270.129 444.714 270.26C445.041 270.391 445.479 270.531 446.03 270.68C446.665 270.857 447.178 271.035 447.57 271.212C447.962 271.38 448.293 271.641 448.564 271.996C448.835 272.351 448.97 272.827 448.97 273.424C448.97 273.881 448.849 274.315 448.606 274.726C448.363 275.137 448.004 275.468 447.528 275.72C447.052 275.972 446.483 276.098 445.82 276.098ZM454.548 276.098C453.904 276.098 453.335 275.986 452.84 275.762C452.355 275.538 451.972 275.225 451.692 274.824C451.412 274.423 451.263 273.975 451.244 273.48H452.28C452.327 273.956 452.537 274.376 452.91 274.74C453.283 275.095 453.829 275.272 454.548 275.272C455.211 275.272 455.733 275.104 456.116 274.768C456.508 274.423 456.704 273.989 456.704 273.466C456.704 273.046 456.597 272.71 456.382 272.458C456.167 272.197 455.901 272.005 455.584 271.884C455.267 271.753 454.828 271.613 454.268 271.464C453.615 271.287 453.097 271.114 452.714 270.946C452.331 270.778 452.005 270.517 451.734 270.162C451.463 269.807 451.328 269.327 451.328 268.72C451.328 268.216 451.459 267.768 451.72 267.376C451.981 266.975 452.35 266.662 452.826 266.438C453.302 266.214 453.848 266.102 454.464 266.102C455.369 266.102 456.097 266.326 456.648 266.774C457.208 267.213 457.53 267.782 457.614 268.482H456.55C456.485 268.081 456.265 267.726 455.892 267.418C455.519 267.101 455.015 266.942 454.38 266.942C453.792 266.942 453.302 267.101 452.91 267.418C452.518 267.726 452.322 268.151 452.322 268.692C452.322 269.103 452.429 269.434 452.644 269.686C452.859 269.938 453.125 270.129 453.442 270.26C453.769 270.391 454.207 270.531 454.758 270.68C455.393 270.857 455.906 271.035 456.298 271.212C456.69 271.38 457.021 271.641 457.292 271.996C457.563 272.351 457.698 272.827 457.698 273.424C457.698 273.881 457.577 274.315 457.334 274.726C457.091 275.137 456.732 275.468 456.256 275.72C455.78 275.972 455.211 276.098 454.548 276.098Z" fill="#5F5F5F"/>
<rect y="262" width="128" height="41" rx="20" fill="white"/>
<path d="M12.058 277.214V283.374C12.058 284.345 12.2867 285.063 12.744 285.53C13.2107 285.997 13.8453 286.23 14.648 286.23C15.4507 286.23 16.076 286.001 16.524 285.544C16.9813 285.077 17.21 284.354 17.21 283.374V277.214H18.19V283.36C18.19 284.601 17.8587 285.535 17.196 286.16C16.5427 286.785 15.6887 287.098 14.634 287.098C13.5793 287.098 12.7207 286.785 12.058 286.16C11.4047 285.535 11.078 284.601 11.078 283.36V277.214H12.058ZM23.7242 287.112C22.8469 287.112 22.1282 286.911 21.5682 286.51C21.0176 286.099 20.7096 285.544 20.6442 284.844H21.6522C21.6989 285.273 21.8996 285.623 22.2542 285.894C22.6182 286.155 23.1036 286.286 23.7102 286.286C24.2422 286.286 24.6576 286.16 24.9562 285.908C25.2642 285.656 25.4182 285.343 25.4182 284.97C25.4182 284.709 25.3342 284.494 25.1662 284.326C24.9982 284.158 24.7836 284.027 24.5222 283.934C24.2702 283.831 23.9249 283.724 23.4862 283.612C22.9169 283.463 22.4549 283.313 22.1002 283.164C21.7456 283.015 21.4422 282.795 21.1902 282.506C20.9476 282.207 20.8262 281.811 20.8262 281.316C20.8262 280.943 20.9382 280.597 21.1622 280.28C21.3862 279.963 21.7036 279.711 22.1142 279.524C22.5249 279.337 22.9916 279.244 23.5142 279.244C24.3356 279.244 24.9982 279.454 25.5022 279.874C26.0062 280.285 26.2769 280.854 26.3142 281.582H25.3342C25.3062 281.134 25.1289 280.775 24.8022 280.504C24.4849 280.224 24.0462 280.084 23.4862 280.084C22.9916 280.084 22.5902 280.201 22.2822 280.434C21.9742 280.667 21.8202 280.957 21.8202 281.302C21.8202 281.601 21.9089 281.848 22.0862 282.044C22.2729 282.231 22.5016 282.38 22.7722 282.492C23.0429 282.595 23.4069 282.711 23.8642 282.842C24.4149 282.991 24.8536 283.136 25.1802 283.276C25.5069 283.416 25.7869 283.621 26.0202 283.892C26.2536 284.163 26.3749 284.522 26.3842 284.97C26.3842 285.381 26.2722 285.749 26.0482 286.076C25.8242 286.393 25.5116 286.645 25.1102 286.832C24.7089 287.019 24.2469 287.112 23.7242 287.112ZM35.8613 282.786C35.8613 283.122 35.852 283.379 35.8333 283.556H29.4913C29.5193 284.135 29.6593 284.629 29.9113 285.04C30.1633 285.451 30.4947 285.763 30.9053 285.978C31.316 286.183 31.764 286.286 32.2493 286.286C32.884 286.286 33.416 286.132 33.8453 285.824C34.284 285.516 34.5733 285.101 34.7133 284.578H35.7493C35.5627 285.325 35.1613 285.936 34.5453 286.412C33.9387 286.879 33.1733 287.112 32.2493 287.112C31.5307 287.112 30.8867 286.953 30.3173 286.636C29.748 286.309 29.3 285.852 28.9733 285.264C28.656 284.667 28.4973 283.971 28.4973 283.178C28.4973 282.385 28.656 281.689 28.9733 281.092C29.2907 280.495 29.734 280.037 30.3033 279.72C30.8727 279.403 31.5213 279.244 32.2493 279.244C32.9773 279.244 33.612 279.403 34.1533 279.72C34.704 280.037 35.124 280.467 35.4133 281.008C35.712 281.54 35.8613 282.133 35.8613 282.786ZM34.8673 282.758C34.8767 282.189 34.76 281.703 34.5173 281.302C34.284 280.901 33.962 280.597 33.5513 280.392C33.1407 280.187 32.6927 280.084 32.2073 280.084C31.4793 280.084 30.8587 280.317 30.3453 280.784C29.832 281.251 29.5473 281.909 29.4913 282.758H34.8673ZM39.3507 280.714C39.5654 280.238 39.8921 279.869 40.3307 279.608C40.7787 279.347 41.3247 279.216 41.9687 279.216V280.238H41.7027C40.9934 280.238 40.4241 280.429 39.9947 280.812C39.5654 281.195 39.3507 281.834 39.3507 282.73V287H38.3707V279.356H39.3507V280.714ZM53.9255 287L51.5035 282.912H49.6975V287H48.7175V277.214H51.6575C52.7495 277.214 53.5755 277.475 54.1355 277.998C54.7049 278.521 54.9895 279.207 54.9895 280.056C54.9895 280.765 54.7842 281.372 54.3735 281.876C53.9722 282.371 53.3749 282.693 52.5815 282.842L55.1015 287H53.9255ZM49.6975 282.114H51.6715C52.4369 282.114 53.0109 281.927 53.3935 281.554C53.7855 281.181 53.9815 280.681 53.9815 280.056C53.9815 279.412 53.7949 278.917 53.4215 278.572C53.0482 278.217 52.4602 278.04 51.6575 278.04H49.6975V282.114ZM64.5667 282.786C64.5667 283.122 64.5574 283.379 64.5387 283.556H58.1967C58.2247 284.135 58.3647 284.629 58.6167 285.04C58.8687 285.451 59.2001 285.763 59.6107 285.978C60.0214 286.183 60.4694 286.286 60.9547 286.286C61.5894 286.286 62.1214 286.132 62.5507 285.824C62.9894 285.516 63.2787 285.101 63.4187 284.578H64.4547C64.2681 285.325 63.8667 285.936 63.2507 286.412C62.6441 286.879 61.8787 287.112 60.9547 287.112C60.2361 287.112 59.5921 286.953 59.0227 286.636C58.4534 286.309 58.0054 285.852 57.6787 285.264C57.3614 284.667 57.2027 283.971 57.2027 283.178C57.2027 282.385 57.3614 281.689 57.6787 281.092C57.9961 280.495 58.4394 280.037 59.0087 279.72C59.5781 279.403 60.2267 279.244 60.9547 279.244C61.6827 279.244 62.3174 279.403 62.8587 279.72C63.4094 280.037 63.8294 280.467 64.1187 281.008C64.4174 281.54 64.5667 282.133 64.5667 282.786ZM63.5727 282.758C63.5821 282.189 63.4654 281.703 63.2227 281.302C62.9894 280.901 62.6674 280.597 62.2567 280.392C61.8461 280.187 61.3981 280.084 60.9127 280.084C60.1847 280.084 59.5641 280.317 59.0507 280.784C58.5374 281.251 58.2527 281.909 58.1967 282.758H63.5727ZM69.7081 287.112C68.8308 287.112 68.1121 286.911 67.5521 286.51C67.0014 286.099 66.6934 285.544 66.6281 284.844H67.6361C67.6828 285.273 67.8834 285.623 68.2381 285.894C68.6021 286.155 69.0874 286.286 69.6941 286.286C70.2261 286.286 70.6414 286.16 70.9401 285.908C71.2481 285.656 71.4021 285.343 71.4021 284.97C71.4021 284.709 71.3181 284.494 71.1501 284.326C70.9821 284.158 70.7674 284.027 70.5061 283.934C70.2541 283.831 69.9088 283.724 69.4701 283.612C68.9008 283.463 68.4388 283.313 68.0841 283.164C67.7294 283.015 67.4261 282.795 67.1741 282.506C66.9314 282.207 66.8101 281.811 66.8101 281.316C66.8101 280.943 66.9221 280.597 67.1461 280.28C67.3701 279.963 67.6874 279.711 68.0981 279.524C68.5088 279.337 68.9754 279.244 69.4981 279.244C70.3194 279.244 70.9821 279.454 71.4861 279.874C71.9901 280.285 72.2608 280.854 72.2981 281.582H71.3181C71.2901 281.134 71.1128 280.775 70.7861 280.504C70.4688 280.224 70.0301 280.084 69.4701 280.084C68.9754 280.084 68.5741 280.201 68.2661 280.434C67.9581 280.667 67.8041 280.957 67.8041 281.302C67.8041 281.601 67.8928 281.848 68.0701 282.044C68.2568 282.231 68.4854 282.38 68.7561 282.492C69.0268 282.595 69.3908 282.711 69.8481 282.842C70.3988 282.991 70.8374 283.136 71.1641 283.276C71.4908 283.416 71.7708 283.621 72.0041 283.892C72.2374 284.163 72.3588 284.522 72.3681 284.97C72.3681 285.381 72.2561 285.749 72.0321 286.076C71.8081 286.393 71.4954 286.645 71.0941 286.832C70.6928 287.019 70.2308 287.112 69.7081 287.112ZM81.8452 282.786C81.8452 283.122 81.8359 283.379 81.8172 283.556H75.4752C75.5032 284.135 75.6432 284.629 75.8952 285.04C76.1472 285.451 76.4785 285.763 76.8892 285.978C77.2999 286.183 77.7479 286.286 78.2332 286.286C78.8679 286.286 79.3999 286.132 79.8292 285.824C80.2679 285.516 80.5572 285.101 80.6972 284.578H81.7332C81.5465 285.325 81.1452 285.936 80.5292 286.412C79.9225 286.879 79.1572 287.112 78.2332 287.112C77.5145 287.112 76.8705 286.953 76.3012 286.636C75.7319 286.309 75.2839 285.852 74.9572 285.264C74.6399 284.667 74.4812 283.971 74.4812 283.178C74.4812 282.385 74.6399 281.689 74.9572 281.092C75.2745 280.495 75.7179 280.037 76.2872 279.72C76.8565 279.403 77.5052 279.244 78.2332 279.244C78.9612 279.244 79.5959 279.403 80.1372 279.72C80.6879 280.037 81.1079 280.467 81.3972 281.008C81.6959 281.54 81.8452 282.133 81.8452 282.786ZM80.8512 282.758C80.8605 282.189 80.7439 281.703 80.5012 281.302C80.2679 280.901 79.9459 280.597 79.5352 280.392C79.1245 280.187 78.6765 280.084 78.1912 280.084C77.4632 280.084 76.8425 280.317 76.3292 280.784C75.8159 281.251 75.5312 281.909 75.4752 282.758H80.8512ZM83.9066 283.164C83.9066 282.38 84.0606 281.694 84.3686 281.106C84.6859 280.509 85.1199 280.051 85.6706 279.734C86.2306 279.407 86.8606 279.244 87.5606 279.244C88.2886 279.244 88.9139 279.412 89.4366 279.748C89.9686 280.084 90.3512 280.513 90.5846 281.036V279.356H91.5646V287H90.5846V285.306C90.3419 285.829 89.9546 286.263 89.4226 286.608C88.8999 286.944 88.2746 287.112 87.5466 287.112C86.8559 287.112 86.2306 286.949 85.6706 286.622C85.1199 286.295 84.6859 285.833 84.3686 285.236C84.0606 284.639 83.9066 283.948 83.9066 283.164ZM90.5846 283.178C90.5846 282.562 90.4586 282.021 90.2066 281.554C89.9546 281.087 89.6092 280.728 89.1706 280.476C88.7412 280.224 88.2652 280.098 87.7426 280.098C87.2012 280.098 86.7159 280.219 86.2866 280.462C85.8572 280.705 85.5166 281.059 85.2646 281.526C85.0219 281.983 84.9006 282.529 84.9006 283.164C84.9006 283.789 85.0219 284.34 85.2646 284.816C85.5166 285.283 85.8572 285.642 86.2866 285.894C86.7159 286.137 87.2012 286.258 87.7426 286.258C88.2652 286.258 88.7412 286.132 89.1706 285.88C89.6092 285.628 89.9546 285.269 90.2066 284.802C90.4586 284.335 90.5846 283.794 90.5846 283.178ZM95.4982 280.714C95.7129 280.238 96.0396 279.869 96.4782 279.608C96.9262 279.347 97.4722 279.216 98.1162 279.216V280.238H97.8502C97.1409 280.238 96.5716 280.429 96.1422 280.812C95.7129 281.195 95.4982 281.834 95.4982 282.73V287H94.5182V279.356H95.4982V280.714ZM99.8589 283.178C99.8589 282.385 100.018 281.694 100.335 281.106C100.652 280.509 101.091 280.051 101.651 279.734C102.211 279.407 102.85 279.244 103.569 279.244C104.512 279.244 105.286 279.477 105.893 279.944C106.509 280.411 106.906 281.045 107.083 281.848H106.033C105.902 281.297 105.618 280.868 105.179 280.56C104.75 280.243 104.213 280.084 103.569 280.084C103.056 280.084 102.594 280.201 102.183 280.434C101.772 280.667 101.446 281.017 101.203 281.484C100.97 281.941 100.853 282.506 100.853 283.178C100.853 283.85 100.97 284.419 101.203 284.886C101.446 285.353 101.772 285.703 102.183 285.936C102.594 286.169 103.056 286.286 103.569 286.286C104.213 286.286 104.75 286.132 105.179 285.824C105.618 285.507 105.902 285.068 106.033 284.508H107.083C106.906 285.292 106.509 285.922 105.893 286.398C105.277 286.874 104.502 287.112 103.569 287.112C102.85 287.112 102.211 286.953 101.651 286.636C101.091 286.309 100.652 285.852 100.335 285.264C100.018 284.667 99.8589 283.971 99.8589 283.178ZM113.249 279.216C113.828 279.216 114.346 279.337 114.803 279.58C115.27 279.823 115.634 280.196 115.895 280.7C116.166 281.195 116.301 281.801 116.301 282.52V287H115.335V282.632C115.335 281.801 115.125 281.167 114.705 280.728C114.295 280.289 113.73 280.07 113.011 280.07C112.274 280.07 111.686 280.303 111.247 280.77C110.809 281.237 110.589 281.923 110.589 282.828V287H109.609V276.64H110.589V280.658C110.832 280.201 111.187 279.846 111.653 279.594C112.129 279.342 112.661 279.216 113.249 279.216Z" fill="#5F5F5F"/>
<rect x="550" y="178" width="136" height="41" rx="20" fill="white"/>
<path d="M568.82 196.07C568.54 195.426 568.111 194.922 567.532 194.558C566.963 194.185 566.291 193.998 565.516 193.998C564.788 193.998 564.135 194.166 563.556 194.502C562.977 194.838 562.52 195.319 562.184 195.944C561.848 196.56 561.68 197.279 561.68 198.1C561.68 198.921 561.848 199.645 562.184 200.27C562.52 200.895 562.977 201.376 563.556 201.712C564.135 202.048 564.788 202.216 565.516 202.216C566.197 202.216 566.809 202.071 567.35 201.782C567.901 201.483 568.339 201.063 568.666 200.522C569.002 199.971 569.193 199.332 569.24 198.604H565.124V197.806H570.276V198.52C570.229 199.379 569.996 200.158 569.576 200.858C569.156 201.549 568.591 202.095 567.882 202.496C567.182 202.897 566.393 203.098 565.516 203.098C564.611 203.098 563.789 202.888 563.052 202.468C562.315 202.039 561.731 201.446 561.302 200.69C560.882 199.925 560.672 199.061 560.672 198.1C560.672 197.139 560.882 196.28 561.302 195.524C561.731 194.759 562.315 194.166 563.052 193.746C563.789 193.317 564.611 193.102 565.516 193.102C566.561 193.102 567.476 193.363 568.26 193.886C569.044 194.409 569.613 195.137 569.968 196.07H568.82ZM573.768 196.714C573.982 196.238 574.309 195.869 574.748 195.608C575.196 195.347 575.742 195.216 576.386 195.216V196.238H576.12C575.41 196.238 574.841 196.429 574.412 196.812C573.982 197.195 573.768 197.834 573.768 198.73V203H572.788V195.356H573.768V196.714ZM578.128 199.164C578.128 198.38 578.282 197.694 578.59 197.106C578.908 196.509 579.342 196.051 579.892 195.734C580.452 195.407 581.082 195.244 581.782 195.244C582.51 195.244 583.136 195.412 583.658 195.748C584.19 196.084 584.573 196.513 584.806 197.036V195.356H585.786V203H584.806V201.306C584.564 201.829 584.176 202.263 583.644 202.608C583.122 202.944 582.496 203.112 581.768 203.112C581.078 203.112 580.452 202.949 579.892 202.622C579.342 202.295 578.908 201.833 578.59 201.236C578.282 200.639 578.128 199.948 578.128 199.164ZM584.806 199.178C584.806 198.562 584.68 198.021 584.428 197.554C584.176 197.087 583.831 196.728 583.392 196.476C582.963 196.224 582.487 196.098 581.964 196.098C581.423 196.098 580.938 196.219 580.508 196.462C580.079 196.705 579.738 197.059 579.486 197.526C579.244 197.983 579.122 198.529 579.122 199.164C579.122 199.789 579.244 200.34 579.486 200.816C579.738 201.283 580.079 201.642 580.508 201.894C580.938 202.137 581.423 202.258 581.964 202.258C582.487 202.258 582.963 202.132 583.392 201.88C583.831 201.628 584.176 201.269 584.428 200.802C584.68 200.335 584.806 199.794 584.806 199.178ZM589.706 197.036C589.949 196.523 590.331 196.098 590.854 195.762C591.386 195.417 592.016 195.244 592.744 195.244C593.435 195.244 594.055 195.407 594.606 195.734C595.166 196.051 595.6 196.509 595.908 197.106C596.225 197.694 596.384 198.38 596.384 199.164C596.384 199.948 596.225 200.639 595.908 201.236C595.6 201.833 595.166 202.295 594.606 202.622C594.055 202.949 593.435 203.112 592.744 203.112C592.025 203.112 591.4 202.944 590.868 202.608C590.336 202.263 589.949 201.833 589.706 201.32V206.612H588.74V195.356H589.706V197.036ZM595.39 199.164C595.39 198.529 595.264 197.983 595.012 197.526C594.769 197.059 594.433 196.705 594.004 196.462C593.575 196.219 593.089 196.098 592.548 196.098C592.025 196.098 591.545 196.224 591.106 196.476C590.677 196.728 590.336 197.087 590.084 197.554C589.832 198.021 589.706 198.562 589.706 199.178C589.706 199.794 589.832 200.335 590.084 200.802C590.336 201.269 590.677 201.628 591.106 201.88C591.545 202.132 592.025 202.258 592.548 202.258C593.089 202.258 593.575 202.137 594.004 201.894C594.433 201.642 594.769 201.283 595.012 200.816C595.264 200.34 595.39 199.789 595.39 199.164ZM602.544 195.216C603.122 195.216 603.64 195.337 604.098 195.58C604.564 195.823 604.928 196.196 605.19 196.7C605.46 197.195 605.596 197.801 605.596 198.52V203H604.63V198.632C604.63 197.801 604.42 197.167 604 196.728C603.589 196.289 603.024 196.07 602.306 196.07C601.568 196.07 600.98 196.303 600.542 196.77C600.103 197.237 599.884 197.923 599.884 198.828V203H598.904V192.64H599.884V196.658C600.126 196.201 600.481 195.846 600.948 195.594C601.424 195.342 601.956 195.216 602.544 195.216ZM608.969 193.914C608.773 193.914 608.605 193.844 608.465 193.704C608.325 193.564 608.255 193.391 608.255 193.186C608.255 192.981 608.325 192.813 608.465 192.682C608.605 192.542 608.773 192.472 608.969 192.472C609.165 192.472 609.333 192.542 609.473 192.682C609.613 192.813 609.683 192.981 609.683 193.186C609.683 193.391 609.613 193.564 609.473 193.704C609.333 193.844 609.165 193.914 608.969 193.914ZM609.459 195.356V203H608.479V195.356H609.459ZM611.947 199.178C611.947 198.385 612.106 197.694 612.423 197.106C612.74 196.509 613.179 196.051 613.739 195.734C614.299 195.407 614.938 195.244 615.657 195.244C616.6 195.244 617.374 195.477 617.981 195.944C618.597 196.411 618.994 197.045 619.171 197.848H618.121C617.99 197.297 617.706 196.868 617.267 196.56C616.838 196.243 616.301 196.084 615.657 196.084C615.144 196.084 614.682 196.201 614.271 196.434C613.86 196.667 613.534 197.017 613.291 197.484C613.058 197.941 612.941 198.506 612.941 199.178C612.941 199.85 613.058 200.419 613.291 200.886C613.534 201.353 613.86 201.703 614.271 201.936C614.682 202.169 615.144 202.286 615.657 202.286C616.301 202.286 616.838 202.132 617.267 201.824C617.706 201.507 617.99 201.068 618.121 200.508H619.171C618.994 201.292 618.597 201.922 617.981 202.398C617.365 202.874 616.59 203.112 615.657 203.112C614.938 203.112 614.299 202.953 613.739 202.636C613.179 202.309 612.74 201.852 612.423 201.264C612.106 200.667 611.947 199.971 611.947 199.178ZM629.153 193.214C630.236 193.214 631.165 193.41 631.939 193.802C632.714 194.194 633.307 194.759 633.717 195.496C634.128 196.233 634.333 197.111 634.333 198.128C634.333 199.136 634.128 200.009 633.717 200.746C633.307 201.474 632.714 202.034 631.939 202.426C631.165 202.809 630.236 203 629.153 203H626.255V193.214H629.153ZM629.153 202.188C630.516 202.188 631.552 201.833 632.261 201.124C632.98 200.405 633.339 199.407 633.339 198.128C633.339 196.84 632.98 195.837 632.261 195.118C631.552 194.39 630.516 194.026 629.153 194.026H627.235V202.188H629.153ZM643.773 198.786C643.773 199.122 643.763 199.379 643.745 199.556H637.403C637.431 200.135 637.571 200.629 637.823 201.04C638.075 201.451 638.406 201.763 638.817 201.978C639.227 202.183 639.675 202.286 640.161 202.286C640.795 202.286 641.327 202.132 641.757 201.824C642.195 201.516 642.485 201.101 642.625 200.578H643.661C643.474 201.325 643.073 201.936 642.457 202.412C641.85 202.879 641.085 203.112 640.161 203.112C639.442 203.112 638.798 202.953 638.229 202.636C637.659 202.309 637.211 201.852 636.885 201.264C636.567 200.667 636.409 199.971 636.409 199.178C636.409 198.385 636.567 197.689 636.885 197.092C637.202 196.495 637.645 196.037 638.215 195.72C638.784 195.403 639.433 195.244 640.161 195.244C640.889 195.244 641.523 195.403 642.065 195.72C642.615 196.037 643.035 196.467 643.325 197.008C643.623 197.54 643.773 198.133 643.773 198.786ZM642.779 198.758C642.788 198.189 642.671 197.703 642.429 197.302C642.195 196.901 641.873 196.597 641.463 196.392C641.052 196.187 640.604 196.084 640.119 196.084C639.391 196.084 638.77 196.317 638.257 196.784C637.743 197.251 637.459 197.909 637.403 198.758H642.779ZM648.914 203.112C648.037 203.112 647.318 202.911 646.758 202.51C646.207 202.099 645.899 201.544 645.834 200.844H646.842C646.889 201.273 647.089 201.623 647.444 201.894C647.808 202.155 648.293 202.286 648.9 202.286C649.432 202.286 649.847 202.16 650.146 201.908C650.454 201.656 650.608 201.343 650.608 200.97C650.608 200.709 650.524 200.494 650.356 200.326C650.188 200.158 649.973 200.027 649.712 199.934C649.46 199.831 649.115 199.724 648.676 199.612C648.107 199.463 647.645 199.313 647.29 199.164C646.935 199.015 646.632 198.795 646.38 198.506C646.137 198.207 646.016 197.811 646.016 197.316C646.016 196.943 646.128 196.597 646.352 196.28C646.576 195.963 646.893 195.711 647.304 195.524C647.715 195.337 648.181 195.244 648.704 195.244C649.525 195.244 650.188 195.454 650.692 195.874C651.196 196.285 651.467 196.854 651.504 197.582H650.524C650.496 197.134 650.319 196.775 649.992 196.504C649.675 196.224 649.236 196.084 648.676 196.084C648.181 196.084 647.78 196.201 647.472 196.434C647.164 196.667 647.01 196.957 647.01 197.302C647.01 197.601 647.099 197.848 647.276 198.044C647.463 198.231 647.691 198.38 647.962 198.492C648.233 198.595 648.597 198.711 649.054 198.842C649.605 198.991 650.043 199.136 650.37 199.276C650.697 199.416 650.977 199.621 651.21 199.892C651.443 200.163 651.565 200.522 651.574 200.97C651.574 201.381 651.462 201.749 651.238 202.076C651.014 202.393 650.701 202.645 650.3 202.832C649.899 203.019 649.437 203.112 648.914 203.112ZM654.625 193.914C654.429 193.914 654.261 193.844 654.121 193.704C653.981 193.564 653.911 193.391 653.911 193.186C653.911 192.981 653.981 192.813 654.121 192.682C654.261 192.542 654.429 192.472 654.625 192.472C654.821 192.472 654.989 192.542 655.129 192.682C655.269 192.813 655.339 192.981 655.339 193.186C655.339 193.391 655.269 193.564 655.129 193.704C654.989 193.844 654.821 193.914 654.625 193.914ZM655.115 195.356V203H654.135V195.356H655.115ZM661.257 195.244C661.975 195.244 662.601 195.412 663.133 195.748C663.665 196.084 664.047 196.509 664.281 197.022V195.356H665.261V203.196C665.261 203.896 665.107 204.517 664.799 205.058C664.5 205.599 664.08 206.015 663.539 206.304C662.997 206.603 662.381 206.752 661.691 206.752C660.711 206.752 659.894 206.519 659.241 206.052C658.597 205.585 658.195 204.951 658.037 204.148H659.003C659.171 204.68 659.488 205.105 659.955 205.422C660.431 205.739 661.009 205.898 661.691 205.898C662.185 205.898 662.629 205.791 663.021 205.576C663.413 205.371 663.721 205.063 663.945 204.652C664.169 204.241 664.281 203.756 664.281 203.196V201.306C664.038 201.829 663.651 202.263 663.119 202.608C662.596 202.944 661.975 203.112 661.257 203.112C660.557 203.112 659.927 202.949 659.367 202.622C658.816 202.295 658.382 201.833 658.065 201.236C657.757 200.639 657.603 199.948 657.603 199.164C657.603 198.38 657.757 197.694 658.065 197.106C658.382 196.509 658.816 196.051 659.367 195.734C659.927 195.407 660.557 195.244 661.257 195.244ZM664.281 199.178C664.281 198.562 664.155 198.021 663.903 197.554C663.651 197.087 663.305 196.728 662.867 196.476C662.437 196.224 661.961 196.098 661.439 196.098C660.897 196.098 660.412 196.219 659.983 196.462C659.553 196.705 659.213 197.059 658.961 197.526C658.718 197.983 658.597 198.529 658.597 199.164C658.597 199.789 658.718 200.34 658.961 200.816C659.213 201.283 659.553 201.642 659.983 201.894C660.412 202.137 660.897 202.258 661.439 202.258C661.961 202.258 662.437 202.132 662.867 201.88C663.305 201.628 663.651 201.269 663.903 200.802C664.155 200.335 664.281 199.794 664.281 199.178ZM671.798 195.216C672.713 195.216 673.46 195.501 674.038 196.07C674.617 196.63 674.906 197.447 674.906 198.52V203H673.94V198.632C673.94 197.801 673.73 197.167 673.31 196.728C672.9 196.289 672.335 196.07 671.616 196.07C670.879 196.07 670.291 196.303 669.852 196.77C669.414 197.237 669.194 197.923 669.194 198.828V203H668.214V195.356H669.194V196.658C669.437 196.191 669.787 195.837 670.244 195.594C670.702 195.342 671.22 195.216 671.798 195.216Z" fill="#5F5F5F"/>
</svg>
