<svg width="38" height="38" viewBox="0 0 38 38" fill="none" xmlns="http://www.w3.org/2000/svg">
<path d="M25.2439 11.679C25.2439 11.2731 25.4052 10.8838 25.6922 10.5967C25.9792 10.3097 26.3685 10.1484 26.7745 10.1484C27.1804 10.1484 27.5697 10.3097 27.8568 10.5967C28.1438 10.8838 28.3051 11.2731 28.3051 11.679C28.3051 12.085 28.1438 12.4743 27.8568 12.7613C27.5697 13.0484 27.1804 13.2096 26.7745 13.2096C26.3685 13.2096 25.9792 13.0484 25.6922 12.7613C25.4052 12.4743 25.2439 12.085 25.2439 11.679Z" fill="#8A8A8A"/>
<path fill-rule="evenodd" clip-rule="evenodd" d="M19.1224 12.0615C17.1942 12.0615 15.3449 12.8275 13.9815 14.1909C12.618 15.5544 11.8521 17.4036 11.8521 19.3318C11.8521 21.26 12.618 23.1093 13.9815 24.4727C15.3449 25.8362 17.1942 26.6021 19.1224 26.6021C21.0506 26.6021 22.8998 25.8362 24.2632 24.4727C25.6267 23.1093 26.3927 21.26 26.3927 19.3318C26.3927 17.4036 25.6267 15.5544 24.2632 14.1909C22.8998 12.8275 21.0506 12.0615 19.1224 12.0615ZM14.1479 19.3318C14.1479 18.0125 14.672 16.7473 15.6049 15.8144C16.5378 14.8815 17.8031 14.3574 19.1224 14.3574C20.4417 14.3574 21.7069 14.8815 22.6398 15.8144C23.5727 16.7473 24.0968 18.0125 24.0968 19.3318C24.0968 20.6511 23.5727 21.9164 22.6398 22.8493C21.7069 23.7822 20.4417 24.3063 19.1224 24.3063C17.8031 24.3063 16.5378 23.7822 15.6049 22.8493C14.672 21.9164 14.1479 20.6511 14.1479 19.3318Z" fill="#8A8A8A"/>
<path fill-rule="evenodd" clip-rule="evenodd" d="M27.1697 5.30136C21.8209 4.70814 16.4228 4.70814 11.074 5.30136C7.99445 5.64574 5.50724 8.07173 5.14602 11.1666C4.51252 16.592 4.51252 22.0726 5.14602 27.498C5.50724 30.5928 7.99292 33.0188 11.074 33.3632C16.4229 33.9552 21.8208 33.9552 27.1697 33.3632C30.2492 33.0188 32.7365 30.5928 33.0977 27.498C33.7312 22.0726 33.7312 16.592 33.0977 11.1666C32.7365 8.07173 30.2508 5.64574 27.1697 5.30136ZM11.3281 7.58194C16.5081 7.00752 21.7356 7.00752 26.9156 7.58194C28.9513 7.81153 30.5814 9.41712 30.8186 11.4344C31.4326 16.6818 31.4326 21.9828 30.8186 27.2301C30.6959 28.2174 30.244 29.1345 29.5358 29.8333C28.8276 30.532 27.9045 30.9717 26.9156 31.0811C21.7356 31.6555 16.5081 31.6555 11.3281 31.0811C10.3392 30.9717 9.41615 30.532 8.70795 29.8333C7.99975 29.1345 7.54779 28.2174 7.42507 27.2301C6.81109 21.9828 6.81109 16.6818 7.42507 11.4344C7.54779 10.4471 7.99975 9.53005 8.70795 8.83129C9.41615 8.13253 10.3392 7.69139 11.3281 7.58194Z" fill="#8A8A8A"/>
</svg>
