<svg width="38" height="38" viewBox="0 0 38 38" fill="none" xmlns="http://www.w3.org/2000/svg">
<path d="M8.0435 5.35107C7.18635 5.35785 6.36623 5.70136 5.76011 6.30747C5.154 6.91359 4.81049 7.73371 4.80371 8.59086V30.6214C4.80371 32.3929 6.27198 33.8612 8.0435 33.8612H30.074C31.8456 33.8612 33.3138 32.3929 33.3138 30.6214V8.59086C33.3138 6.81935 31.8456 5.35107 30.074 5.35107H8.0435ZM8.0435 7.9429H30.074C30.4434 7.9429 30.722 8.22152 30.722 8.59086V30.6214C30.7238 30.707 30.7082 30.792 30.6763 30.8714C30.6443 30.9508 30.5967 31.023 30.5361 31.0835C30.4756 31.144 30.4035 31.1917 30.3241 31.2236C30.2447 31.2556 30.1596 31.2711 30.074 31.2694H8.0435C7.95792 31.2711 7.87287 31.2556 7.79346 31.2236C7.71405 31.1917 7.64191 31.144 7.58139 31.0835C7.52087 31.023 7.4732 30.9508 7.44127 30.8714C7.40933 30.792 7.39377 30.707 7.39554 30.6214V8.59086C7.39554 8.22152 7.67416 7.9429 8.0435 7.9429ZM11.8509 10.1706C11.5539 10.1634 11.2585 10.2157 10.982 10.3244C10.7056 10.4331 10.4536 10.596 10.2411 10.8035C10.0285 11.011 9.85957 11.259 9.74424 11.5327C9.62891 11.8065 9.56949 12.1005 9.56949 12.3976C9.56949 12.6947 9.62891 12.9887 9.74424 13.2625C9.85957 13.5363 10.0285 13.7842 10.2411 13.9917C10.4536 14.1992 10.7056 14.3621 10.982 14.4708C11.2585 14.5795 11.5539 14.6318 11.8509 14.6246C12.4322 14.6106 12.9851 14.3698 13.3913 13.9537C13.7975 13.5376 14.0248 12.9791 14.0248 12.3976C14.0248 11.8161 13.7975 11.2576 13.3913 10.8415C12.9851 10.4254 12.4322 10.1846 11.8509 10.1706ZM23.553 16.0825C21.696 16.0825 20.4609 17.0998 19.9504 18.0666H19.8687V16.3663H16.2233V28.6775H20.0307V22.6023C20.0307 20.9979 20.3495 19.4441 22.3387 19.4441C24.2981 19.4441 24.3241 21.2558 24.3241 22.6839V28.6775H28.1302V21.9142C28.1302 18.6044 27.4252 16.0825 23.553 16.0825ZM9.98737 16.3663V28.6775H13.8349V16.3663H9.98737Z" fill="#8A8A8A"/>
</svg>
