<svg width="1009" height="91" viewBox="0 0 1009 91" fill="none" xmlns="http://www.w3.org/2000/svg">
<g clip-path="url(#clip0_36_19669)">
<rect width="1009" height="91" fill="#F6F6F6"/>
<path d="M-10 0H1019" stroke="#F6F6F6" stroke-width="3"/>
<path d="M-10 91H1019" stroke="#F6F6F6" stroke-width="3"/>
<path d="M-9.71157 42.1899C-9.73408 42.1899 -9.75019 42.2117 -9.74361 42.2332L-6.07529 54.2358C-6.07099 54.2499 -6.05799 54.2595 -6.04326 54.2595H-3.90485C-3.89019 54.2595 -3.87723 54.25 -3.87287 54.236L-0.776534 44.307L2.32716 54.2595L6.0414 42.1899L3.31544 51.0481L2.32716 54.2595L-0.776534 44.307L-1.9594 42.2562C-1.97399 42.2309 -2.0117 42.2351 -2.02039 42.263L-4.91511 51.5481C-4.92503 51.5799 -4.97027 51.5793 -4.97932 51.5472L-7.61299 42.2143C-7.61706 42.1999 -7.63023 42.1899 -7.64523 42.1899H-9.71157Z" fill="#9B9B9B"/>
<path d="M-3.04361 42.1903C-3.06611 42.1903 -3.08222 42.2121 -3.07564 42.2336L0.592678 54.2362C0.596982 54.2503 0.609982 54.2599 0.62471 54.2599H2.76312C2.77778 54.2599 2.79073 54.2504 2.7951 54.2364L5.89143 44.3073L6.52901 42.2333C6.53563 42.2117 6.51952 42.1899 6.49699 42.19L4.69498 42.1903C4.68033 42.1903 4.66737 42.1998 4.66301 42.2138L1.75286 51.5485C1.74294 51.5803 1.6977 51.5797 1.68865 51.5476L-0.945024 42.2147C-0.949096 42.2003 -0.962264 42.1903 -0.97726 42.1903H-3.04361Z" fill="#9B9B9B"/>
<path d="M8.56633 39.1245C8.84214 39.384 9.18279 39.5138 9.58835 39.5138C9.97768 39.5138 10.3103 39.384 10.5861 39.1245C10.8619 38.8487 10.9997 38.508 10.9997 38.1024C10.9997 37.7131 10.8619 37.3886 10.5861 37.1291C10.3103 36.8695 9.97768 36.7397 9.58835 36.7397C9.18279 36.7397 8.84214 36.8695 8.56633 37.1291C8.30676 37.3886 8.177 37.7131 8.177 38.1024C8.177 38.508 8.30676 38.8487 8.56633 39.1245Z" fill="#9B9B9B"/>
<path d="M8.56633 42.224V54.2266C8.56633 54.2451 8.58133 54.2601 8.59983 54.2601H10.5769C10.5954 54.2601 10.6104 54.2451 10.6104 54.2266V42.224C10.6104 42.2055 10.5954 42.1905 10.5769 42.1905H8.59983C8.58133 42.1905 8.56633 42.2055 8.56633 42.224Z" fill="#9B9B9B"/>
<path d="M12.6331 42.2239V54.2265C12.6331 54.245 12.6481 54.26 12.6666 54.26H14.6436C14.6621 54.26 14.6771 54.245 14.6771 54.2265V48.0063C14.6771 46.6111 15.0177 45.5404 15.6991 44.7942C16.3967 44.0317 17.2646 43.6505 18.3028 43.6505C20.3793 43.6505 21.4176 44.9077 21.4176 47.4222V54.2265C21.4176 54.245 21.4326 54.26 21.4511 54.26H23.4281C23.4466 54.26 23.4616 54.245 23.4616 54.2265V47.2032C23.4616 45.4025 23.0317 44.0723 22.1719 43.2125C21.3283 42.3364 20.1927 41.8984 18.7652 41.8984C17.8405 41.8984 17.0132 42.1174 16.2831 42.5554C15.5885 42.9722 15.048 43.5359 14.6618 44.2465C14.6455 44.2766 14.5991 44.2666 14.5971 44.2325L14.4842 42.2221C14.4832 42.2043 14.4685 42.1904 14.4508 42.1904H12.6666C12.6481 42.1904 12.6331 42.2054 12.6331 42.2239Z" fill="#9B9B9B"/>
<path d="M25.0947 42.2239V54.2265C25.0947 54.245 25.1097 54.26 25.1282 54.26H27.1053C27.1238 54.26 27.1388 54.245 27.1388 54.2265V48.0063C27.1388 46.6111 27.4795 45.5404 28.1608 44.7942C28.8584 44.0317 29.7263 43.6505 30.7645 43.6505C32.841 43.6505 33.8792 44.9077 33.8792 47.4222V54.2265C33.8792 54.245 33.8942 54.26 33.9127 54.26H35.8898C35.9083 54.26 35.9233 54.245 35.9233 54.2265V47.2032C35.9233 45.4025 35.4934 44.0723 34.6336 43.2125C33.79 42.3364 32.6545 41.8984 31.2269 41.8984C30.3022 41.8984 29.4748 42.1174 28.7448 42.5554C28.0501 42.9722 27.5097 43.5359 27.1235 44.2465C27.1072 44.2766 27.0607 44.2666 27.0588 44.2325L26.9459 42.2221C26.9449 42.2043 26.9302 42.1904 26.9124 42.1904H25.1282C25.1097 42.1904 25.0947 42.2054 25.0947 42.2239Z" fill="#9B9B9B"/>
<path d="M43.5681 54.2606C42.4326 54.2606 41.4105 54.001 40.5021 53.4818C39.5936 52.9627 38.8717 52.2327 38.3364 51.2918C37.8172 50.3346 37.5576 49.2153 37.5576 47.9337C37.5576 46.6521 37.8254 45.5409 38.3607 44.6C38.8961 43.6429 39.6179 42.9047 40.5264 42.3856C41.4511 41.8665 42.4812 41.6069 43.6168 41.6069C44.7523 41.6069 45.7744 41.8665 46.6828 42.3856C47.5913 42.9047 48.3051 43.6429 48.8243 44.6C49.3596 45.5409 49.6272 46.6521 49.6272 47.9337C49.6272 49.2153 49.3596 50.3346 48.8243 51.2918C48.2889 52.2327 47.5589 52.9627 46.6342 53.4818C45.7257 54.001 44.7037 54.2606 43.5681 54.2606ZM43.5681 52.5085C44.2657 52.5085 44.9146 52.3381 45.5148 51.9975C46.1151 51.6568 46.6017 51.1458 46.9749 50.4645C47.348 49.7831 47.5346 48.9395 47.5346 47.9337C47.5346 46.9279 47.348 46.0844 46.9749 45.403C46.6179 44.7216 46.1394 44.2106 45.5391 43.87C44.9389 43.5293 44.2982 43.359 43.6168 43.359C42.9192 43.359 42.2703 43.5293 41.6701 43.87C41.0698 44.2106 40.5831 44.7216 40.21 45.403C39.8369 46.0844 39.6503 46.9279 39.6503 47.9337C39.6503 48.9395 39.8369 49.7831 40.21 50.4645C40.5831 51.1458 41.0618 51.6568 41.6458 51.9975C42.246 52.3381 42.8868 52.5085 43.5681 52.5085Z" fill="#9B9B9B"/>
<path d="M51.306 42.1899C51.2835 42.1899 51.2674 42.2117 51.274 42.2332L54.9423 54.2358C54.9466 54.2499 54.9596 54.2595 54.9743 54.2595H57.1127C57.1274 54.2595 57.1403 54.25 57.1447 54.236L60.241 44.307L63.3447 54.2595L67.059 42.1899L64.333 51.0481L63.3447 54.2595L60.241 44.307L59.0582 42.2562C59.0436 42.2309 59.0059 42.2351 58.9972 42.263L56.1025 51.5481C56.0926 51.5799 56.0473 51.5793 56.0383 51.5472L53.4046 42.2143C53.4005 42.1999 53.3873 42.1899 53.3724 42.1899H51.306Z" fill="#9B9B9B"/>
<path d="M57.974 42.1903C57.9515 42.1903 57.9354 42.2121 57.9419 42.2336L61.6103 54.2362C61.6146 54.2503 61.6276 54.2599 61.6423 54.2599H63.7807C63.7954 54.2599 63.8083 54.2504 63.8127 54.2364L66.909 44.3073L67.5466 42.2333C67.5532 42.2117 67.5371 42.1899 67.5146 42.19L65.7126 42.1903C65.6979 42.1903 65.685 42.1998 65.6806 42.2138L62.7704 51.5485C62.7605 51.5803 62.7153 51.5797 62.7062 51.5476L60.0726 42.2147C60.0685 42.2003 60.0553 42.1903 60.0403 42.1903H57.974Z" fill="#9B9B9B"/>
<path d="M69.9093 54.2606C69.8908 54.2606 69.8758 54.2456 69.8758 54.2271V51.4375C69.8758 51.419 69.8608 51.404 69.8423 51.404H68.9332C68.9147 51.404 68.8997 51.389 68.8997 51.3705V50.9446C68.8997 50.9261 68.9147 50.9111 68.9332 50.9111H71.4357C71.4542 50.9111 71.4692 50.9261 71.4692 50.9446V51.3705C71.4692 51.389 71.4542 51.404 71.4357 51.404H70.5218C70.5033 51.404 70.4883 51.419 70.4883 51.4375V54.2271C70.4883 54.2456 70.4733 54.2606 70.4548 54.2606H69.9093ZM71.9564 54.2606C71.9379 54.2606 71.9229 54.2456 71.9229 54.2271V50.9446C71.9229 50.9261 71.9379 50.9111 71.9564 50.9111H72.6296C72.6423 50.9111 72.6538 50.9183 72.6595 50.9296L73.6872 52.9757C73.6996 53.0004 73.7348 53.0003 73.7471 52.9755L74.7608 50.9298C74.7664 50.9183 74.7781 50.9111 74.7908 50.9111H75.4638C75.4823 50.9111 75.4973 50.9261 75.4973 50.9446V54.2271C75.4973 54.2456 75.4823 54.2606 75.4638 54.2606H74.9183C74.8998 54.2606 74.8848 54.2456 74.8848 54.2271V52.0891C74.8848 52.0539 74.8375 52.0425 74.8215 52.0739L73.9611 53.7638C73.9554 53.7751 73.9438 53.7821 73.9312 53.7821H73.489C73.4764 53.7821 73.4649 53.7751 73.4592 53.7638L72.5988 52.0739C72.5828 52.0425 72.5354 52.0539 72.5354 52.0891V54.2271C72.5354 54.2456 72.5204 54.2606 72.5019 54.2606H71.9564Z" fill="#9B9B9B"/>
<path d="M142.385 59.7113L173.935 25.9316L179.407 31.3413L148.472 65.492L142.385 59.7113Z" fill="#EEEEEE" stroke="#CFCFCF" stroke-width="0.211553" stroke-miterlimit="10"/>
<path d="M174.081 28.0484L177.714 31.416L148.219 63.2342L144.368 59.9941L174.081 28.0484ZM173.971 25.085L141.329 60.179L148.398 66.1262L180.678 31.3025L173.971 25.085Z" fill="#9B9B9B"/>
<path d="M174.25 27.5687L178.251 31.3902L167.029 43.576L165.315 45.438L167.217 47.1096L179.3 57.7353L175.966 61.546L163.4 50.6587L161.563 49.0676L159.934 50.8708L148.548 63.4652L144.487 59.7583L155.774 47.8743L157.499 46.0571L155.66 44.3546L143.155 32.7693L146.579 29.1382L158.745 40.7637L160.579 42.5173L162.292 40.646L174.252 27.5703M174.131 24.0273L160.46 38.9744L146.488 25.6216L139.636 32.8854L153.974 46.1686L140.949 59.8821L148.717 66.9725L161.776 52.5285L176.208 65.0347L182.793 57.5078L168.855 45.2507L181.723 31.2772L174.131 24.0273Z" fill="#9B9B9B"/>
<path d="M160.47 27.5983C160.496 27.5983 160.524 27.5983 160.55 27.5999C160.997 27.6203 161.409 27.8198 161.711 28.1575C162.012 28.4953 162.167 28.9351 162.146 29.3938C162.104 30.3127 161.371 31.0322 160.476 31.0322C160.45 31.0322 160.423 31.0322 160.397 31.0306C159.475 30.9866 158.758 30.1823 158.801 29.2367C158.843 28.3177 159.576 27.5983 160.47 27.5983ZM160.47 25.085C158.279 25.085 156.455 26.8537 156.353 29.122C156.248 31.4563 158.008 33.4355 160.284 33.5424C160.348 33.5455 160.412 33.5471 160.476 33.5471C162.668 33.5471 164.492 31.7783 164.594 29.51C164.698 27.1757 162.939 25.1965 160.663 25.0897C160.599 25.0865 160.535 25.085 160.47 25.085Z" fill="#9B9B9B"/>
<path d="M162.163 60.8108C162.183 60.8108 162.202 60.8108 162.224 60.8108C162.918 60.8437 163.457 61.4513 163.425 62.1641C163.394 62.858 162.842 63.4012 162.169 63.4012C162.149 63.4012 162.129 63.4012 162.108 63.4012C161.413 63.3682 160.875 62.7607 160.907 62.0479C160.937 61.354 161.49 60.8108 162.163 60.8108ZM162.163 58.2988C160.197 58.2988 158.559 59.8908 158.468 61.9317C158.374 64.0323 159.953 65.8142 161.996 65.91C162.054 65.9132 162.112 65.9147 162.169 65.9147C164.135 65.9147 165.772 64.3228 165.864 62.2818C165.957 60.1812 164.379 58.3993 162.335 58.3035C162.277 58.3004 162.219 58.2988 162.163 58.2988Z" fill="#9B9B9B"/>
<path d="M136.463 40.3167C137.281 40.3167 137.944 39.6537 137.944 38.8358C137.944 38.018 137.281 37.355 136.463 37.355C135.645 37.355 134.982 38.018 134.982 38.8358C134.982 39.6537 135.645 40.3167 136.463 40.3167Z" fill="#9B9B9B"/>
<path d="M185.331 37.3553C186.149 37.3553 186.812 36.6923 186.812 35.8744C186.812 35.0566 186.149 34.3936 185.331 34.3936C184.513 34.3936 183.85 35.0566 183.85 35.8744C183.85 36.6923 184.513 37.3553 185.331 37.3553Z" fill="#ABABAB"/>
<path d="M186.601 53.6448C187.419 53.6448 188.082 52.9818 188.082 52.164C188.082 51.3461 187.419 50.6831 186.601 50.6831C185.783 50.6831 185.12 51.3461 185.12 52.164C185.12 52.9818 185.783 53.6448 186.601 53.6448Z" fill="#ABABAB"/>
<path d="M181.1 51.9521C181.568 51.9521 181.947 51.6206 181.947 51.2116C181.947 50.8027 181.568 50.4712 181.1 50.4712C180.633 50.4712 180.254 50.8027 180.254 51.2116C180.254 51.6206 180.633 51.9521 181.1 51.9521Z" fill="#9B9B9B"/>
<path d="M191.255 51.9523C191.839 51.9523 192.313 51.5261 192.313 51.0003C192.313 50.4746 191.839 50.0483 191.255 50.0483C190.671 50.0483 190.197 50.4746 190.197 51.0003C190.197 51.5261 190.671 51.9523 191.255 51.9523Z" fill="#9B9B9B"/>
<path d="M187.659 61.8953C188.243 61.8953 188.717 61.4217 188.717 60.8375C188.717 60.2534 188.243 59.7798 187.659 59.7798C187.075 59.7798 186.601 60.2534 186.601 60.8375C186.601 61.4217 187.075 61.8953 187.659 61.8953Z" fill="#9B9B9B"/>
<path d="M190.62 36.9322C191.321 36.9322 191.889 36.3639 191.889 35.6629C191.889 34.9618 191.321 34.3936 190.62 34.3936C189.919 34.3936 189.35 34.9618 189.35 35.6629C189.35 36.3639 189.919 36.9322 190.62 36.9322Z" fill="#9B9B9B"/>
<path d="M137.203 56.6063C138.079 56.6063 138.79 55.9433 138.79 55.1254C138.79 54.3075 138.079 53.6445 137.203 53.6445C136.327 53.6445 135.616 54.3075 135.616 55.1254C135.616 55.9433 136.327 56.6063 137.203 56.6063Z" fill="#9B9B9B"/>
<path d="M132.126 55.5485C132.652 55.5485 133.078 55.1223 133.078 54.5965C133.078 54.0707 132.652 53.6445 132.126 53.6445C131.6 53.6445 131.174 54.0707 131.174 54.5965C131.174 55.1223 131.6 55.5485 132.126 55.5485Z" fill="#9B9B9B"/>
<path d="M136.992 64.6457C137.517 64.6457 137.944 64.2195 137.944 63.6937C137.944 63.1679 137.517 62.7417 136.992 62.7417C136.466 62.7417 136.04 63.1679 136.04 63.6937C136.04 64.2195 136.466 64.6457 136.992 64.6457Z" fill="#9B9B9B"/>
<path d="M129.904 42.28L129.829 43.919C129.825 44.0061 129.892 44.0799 129.979 44.0839L144.737 44.7617C144.824 44.7657 144.898 44.6984 144.902 44.6113L144.977 42.9723C144.981 42.8852 144.914 42.8114 144.827 42.8074L130.069 42.1295C129.982 42.1255 129.908 42.1929 129.904 42.28Z" fill="#9B9B9B"/>
<path d="M137.718 45.7848L137.642 47.4439C137.638 47.531 137.705 47.6048 137.792 47.6088L148.809 48.1148C148.897 48.1188 148.97 48.0515 148.974 47.9644L149.051 46.3053C149.055 46.2182 148.987 46.1444 148.9 46.1404L137.883 45.6344C137.796 45.6304 137.722 45.6977 137.718 45.7848Z" fill="#9B9B9B"/>
<path d="M129.715 46.4168L129.636 48.147C129.631 48.2392 129.703 48.3174 129.795 48.3216L135.878 48.601C135.97 48.6053 136.048 48.5339 136.053 48.4417L136.132 46.7116C136.136 46.6193 136.065 46.5411 135.973 46.5369L129.89 46.2575C129.798 46.2533 129.719 46.3246 129.715 46.4168Z" fill="#9B9B9B"/>
<path d="M128.928 49.8296L128.852 51.4917C128.849 51.5532 128.897 51.6053 128.958 51.6081L145.155 52.3521C145.217 52.3549 145.269 52.3074 145.272 52.2459L145.348 50.5838C145.351 50.5223 145.303 50.4701 145.242 50.4673L129.045 49.7234C128.983 49.7205 128.931 49.7681 128.928 49.8296Z" fill="#9B9B9B"/>
<path d="M176.8 39.2059L176.713 41.0953C176.71 41.1611 176.761 41.2168 176.826 41.2198L194.443 42.029C194.509 42.032 194.565 41.9811 194.568 41.9154L194.654 40.026C194.657 39.9602 194.607 39.9045 194.541 39.9015L176.924 39.0923C176.858 39.0893 176.803 39.1401 176.8 39.2059Z" fill="#ABABAB"/>
<path d="M173.552 43.3714L173.479 44.9578C173.475 45.0372 173.537 45.1045 173.616 45.1082L185.801 45.6678C185.88 45.6715 185.947 45.6101 185.951 45.5306L186.024 43.9443C186.028 43.8649 185.966 43.7975 185.887 43.7939L173.702 43.2342C173.623 43.2306 173.555 43.292 173.552 43.3714Z" fill="#9B9B9B"/>
<path d="M188.412 42.8584L188.327 44.6952C188.323 44.7781 188.387 44.8483 188.47 44.8521L196.245 45.2092C196.328 45.213 196.398 45.1489 196.402 45.0661L196.486 43.2293C196.49 43.1464 196.426 43.0762 196.343 43.0724L188.568 42.7153C188.486 42.7115 188.415 42.7756 188.412 42.8584Z" fill="#ABABAB"/>
<path d="M177.512 47.2065L177.436 48.8687C177.433 48.9301 177.48 48.9823 177.542 48.9851L184.138 49.2881C184.2 49.2909 184.252 49.2433 184.255 49.1819L184.331 47.5197C184.334 47.4583 184.286 47.4061 184.225 47.4033L177.628 47.1003C177.567 47.0975 177.515 47.145 177.512 47.2065Z" fill="#ABABAB"/>
<path d="M185.915 46.28L185.824 48.2715C185.82 48.3535 185.884 48.423 185.966 48.4267L195.09 48.8458C195.172 48.8496 195.242 48.7862 195.245 48.7042L195.337 46.7128C195.341 46.6308 195.277 46.5613 195.195 46.5575L186.071 46.1384C185.989 46.1346 185.919 46.1981 185.915 46.28Z" fill="#ABABAB"/>
<path d="M215.331 32.6108C215 32.2076 214.594 31.9006 214.113 31.6847C213.632 31.4687 213.075 31.3621 212.443 31.3621C211.811 31.3621 211.225 31.4843 210.687 31.7289C210.148 31.9734 209.68 32.3142 209.284 32.7539C208.889 33.1935 208.579 33.7138 208.358 34.3174C208.134 34.9209 208.025 35.5739 208.025 36.2789C208.025 36.9839 208.137 37.6551 208.358 38.2509C208.582 38.8466 208.886 39.3643 209.274 39.8014C209.662 40.241 210.117 40.5818 210.642 40.8264C211.168 41.0709 211.73 41.1932 212.333 41.1932C213.023 41.1932 213.634 41.0501 214.165 40.7613C214.696 40.4752 215.136 40.0719 215.479 39.5542L218.281 41.6459C217.633 42.5512 216.816 43.2198 215.825 43.6516C214.834 44.0835 213.814 44.2994 212.765 44.2994C211.571 44.2994 210.473 44.1121 209.466 43.7401C208.46 43.3654 207.591 42.8321 206.86 42.1349C206.126 41.4377 205.556 40.5948 205.145 39.6011C204.737 38.6099 204.531 37.5042 204.531 36.2815C204.531 35.0588 204.737 33.9532 205.145 32.962C205.553 31.9708 206.126 31.1253 206.86 30.4281C207.593 29.7309 208.462 29.195 209.466 28.823C210.473 28.4484 211.571 28.2637 212.765 28.2637C213.197 28.2637 213.645 28.3027 214.113 28.3833C214.579 28.4614 215.039 28.5889 215.492 28.7606C215.945 28.9323 216.379 29.1638 216.795 29.45C217.212 29.7387 217.586 30.0899 217.917 30.5062L215.331 32.6186V32.6108Z" fill="#9B9B9B"/>
<path d="M220.331 28.6465H226.237C227.012 28.6465 227.748 28.7219 228.445 28.8728C229.143 29.0237 229.754 29.276 230.277 29.6273C230.803 29.9785 231.219 30.4545 231.528 31.0503C231.838 31.646 231.992 32.3901 231.992 33.2824C231.992 34.3594 231.711 35.2751 231.151 36.0296C230.592 36.784 229.772 37.2627 228.695 37.463L232.574 43.907H228.544L225.355 37.8064H223.695V43.907H220.333V28.6465H220.331ZM223.692 34.9604H225.675C225.976 34.9604 226.296 34.9499 226.635 34.9291C226.973 34.9083 227.277 34.8433 227.551 34.734C227.824 34.6274 228.05 34.4583 228.23 34.2267C228.409 33.9978 228.5 33.6752 228.5 33.2564C228.5 32.8687 228.422 32.5592 228.263 32.3302C228.105 32.1013 227.904 31.9244 227.66 31.8021C227.415 31.6798 227.134 31.5966 226.819 31.555C226.502 31.5107 226.195 31.4899 225.893 31.4899H223.695V34.9604H223.692Z" fill="#9B9B9B"/>
<path d="M233.696 36.2767C233.696 35.0565 233.901 33.9483 234.31 32.9571C234.718 31.9659 235.291 31.1205 236.024 30.4232C236.758 29.726 237.627 29.1901 238.631 28.8181C239.638 28.4435 240.736 28.2588 241.93 28.2588C243.124 28.2588 244.222 28.4461 245.229 28.8181C246.236 29.1927 247.105 29.726 247.836 30.4232C248.57 31.1205 249.139 31.9633 249.551 32.9571C249.962 33.9509 250.165 35.0539 250.165 36.2767C250.165 37.4994 249.959 38.605 249.551 39.5962C249.142 40.5874 248.57 41.4328 247.836 42.1301C247.102 42.8273 246.233 43.3632 245.229 43.7352C244.222 44.1098 243.124 44.2945 241.93 44.2945C240.736 44.2945 239.638 44.1072 238.631 43.7352C237.624 43.3606 236.755 42.8273 236.024 42.1301C235.291 41.4328 234.721 40.59 234.31 39.5962C233.901 38.605 233.696 37.4994 233.696 36.2767ZM237.187 36.2767C237.187 36.9947 237.299 37.6529 237.52 38.2486C237.744 38.8443 238.061 39.362 238.48 39.7991C238.897 40.2388 239.396 40.5796 239.979 40.8241C240.562 41.0686 241.212 41.1909 241.93 41.1909C242.648 41.1909 243.299 41.0686 243.881 40.8241C244.464 40.5796 244.964 40.2388 245.38 39.7991C245.796 39.362 246.116 38.8443 246.34 38.2486C246.564 37.6529 246.673 36.9947 246.673 36.2767C246.673 35.5586 246.561 34.9187 246.34 34.3151C246.116 33.7116 245.796 33.1913 245.38 32.7516C244.964 32.3146 244.464 31.9712 243.881 31.7266C243.299 31.4821 242.648 31.3598 241.93 31.3598C241.212 31.3598 240.562 31.4821 239.979 31.7266C239.396 31.9712 238.897 32.3119 238.48 32.7516C238.064 33.1913 237.744 33.7116 237.52 34.3151C237.297 34.9187 237.187 35.5716 237.187 36.2767Z" fill="#9B9B9B"/>
<path d="M260.207 32.3741C259.934 32.0281 259.565 31.7731 259.096 31.6092C258.628 31.4453 258.188 31.3621 257.769 31.3621C257.525 31.3621 257.273 31.3907 257.015 31.4479C256.757 31.5052 256.513 31.5962 256.281 31.7185C256.052 31.8408 255.865 32.002 255.722 32.2024C255.579 32.4027 255.506 32.6472 255.506 32.936C255.506 33.3965 255.678 33.7477 256.024 33.9922C256.37 34.2367 256.804 34.4449 257.327 34.6166C257.853 34.7883 258.415 34.9626 259.018 35.1343C259.622 35.306 260.186 35.5505 260.709 35.8679C261.235 36.1853 261.669 36.6093 262.013 37.14C262.359 37.6707 262.531 38.3836 262.531 39.2733C262.531 40.163 262.372 40.8602 262.057 41.4924C261.74 42.1245 261.313 42.65 260.774 43.0663C260.236 43.4825 259.611 43.7921 258.899 43.9924C258.188 44.1927 257.436 44.2942 256.646 44.2942C255.654 44.2942 254.733 44.1433 253.888 43.8415C253.04 43.5398 252.249 43.0507 251.518 42.3769L253.911 39.7467C254.257 40.2072 254.692 40.5636 255.215 40.8134C255.74 41.0657 256.281 41.1906 256.841 41.1906C257.114 41.1906 257.39 41.1594 257.671 41.0943C257.952 41.0293 258.201 40.933 258.425 40.803C258.649 40.6729 258.828 40.509 258.964 40.3061C259.099 40.1057 259.169 39.869 259.169 39.5959C259.169 39.1354 258.992 38.7738 258.641 38.5084C258.29 38.2431 257.847 38.0167 257.314 37.8294C256.783 37.6421 256.208 37.4548 255.589 37.2701C254.97 37.0828 254.395 36.8331 253.864 36.5157C253.334 36.2009 252.891 35.782 252.537 35.2669C252.186 34.7492 252.009 34.0676 252.009 33.2195C252.009 32.3715 252.171 31.6821 252.493 31.0629C252.816 30.4463 253.248 29.9286 253.786 29.5124C254.325 29.0962 254.947 28.784 255.652 28.5758C256.357 28.3677 257.083 28.2637 257.829 28.2637C258.69 28.2637 259.526 28.3859 260.33 28.6305C261.133 28.875 261.859 29.2835 262.507 29.8584L260.199 32.3793L260.207 32.3741Z" fill="#9B9B9B"/>
<path d="M272.794 32.3741C272.521 32.0281 272.152 31.7731 271.683 31.6092C271.215 31.4453 270.775 31.3621 270.357 31.3621C270.112 31.3621 269.86 31.3907 269.602 31.4479C269.344 31.5052 269.1 31.5962 268.868 31.7185C268.639 31.8408 268.452 32.002 268.309 32.2024C268.166 32.4027 268.093 32.6472 268.093 32.936C268.093 33.3965 268.265 33.7477 268.611 33.9922C268.957 34.2367 269.391 34.4449 269.914 34.6166C270.44 34.7883 271.002 34.9626 271.605 35.1343C272.209 35.306 272.773 35.5505 273.296 35.8679C273.822 36.1853 274.256 36.6093 274.6 37.14C274.946 37.6707 275.118 38.3836 275.118 39.2733C275.118 40.163 274.959 40.8602 274.644 41.4924C274.327 42.1245 273.9 42.65 273.361 43.0663C272.823 43.4825 272.199 43.7921 271.486 43.9924C270.775 44.1927 270.024 44.2942 269.233 44.2942C268.241 44.2942 267.32 44.1433 266.472 43.8415C265.624 43.5398 264.833 43.0507 264.102 42.3769L266.496 39.7467C266.842 40.2072 267.276 40.5636 267.799 40.8134C268.325 41.0657 268.866 41.1906 269.425 41.1906C269.698 41.1906 269.974 41.1594 270.255 41.0943C270.536 41.0293 270.786 40.933 271.01 40.803C271.233 40.6729 271.413 40.509 271.548 40.3061C271.683 40.1057 271.754 39.869 271.754 39.5959C271.754 39.1354 271.577 38.7738 271.225 38.5084C270.874 38.2431 270.432 38.0167 269.901 37.8294C269.37 37.6421 268.796 37.4548 268.176 37.2701C267.557 37.0854 266.985 36.8331 266.451 36.5157C265.921 36.2009 265.478 35.782 265.127 35.2669C264.776 34.7492 264.599 34.0676 264.599 33.2195C264.599 32.3715 264.76 31.6821 265.083 31.0629C265.406 30.4463 265.837 29.9286 266.376 29.5124C266.914 29.0962 267.536 28.784 268.241 28.5758C268.946 28.3677 269.672 28.2637 270.419 28.2637C271.28 28.2637 272.115 28.3859 272.919 28.6305C273.723 28.875 274.449 29.2835 275.097 29.8584L272.789 32.3793L272.794 32.3741Z" fill="#9B9B9B"/>
<path d="M277.02 36.2767C277.02 35.0565 277.225 33.9483 277.634 32.9571C278.042 31.9659 278.614 31.1205 279.348 30.4232C280.082 29.726 280.951 29.1901 281.958 28.8181C282.964 28.4435 284.062 28.2588 285.256 28.2588C286.451 28.2588 287.549 28.4461 288.555 28.8181C289.562 29.1927 290.431 29.726 291.165 30.4232C291.899 31.1205 292.468 31.9633 292.879 32.9571C293.291 33.9509 293.493 35.0539 293.493 36.2767C293.493 37.4994 293.288 38.605 292.879 39.5962C292.471 40.5874 291.899 41.4328 291.165 42.1301C290.431 42.8273 289.562 43.3632 288.555 43.7352C287.549 44.1098 286.451 44.2945 285.256 44.2945C284.062 44.2945 282.964 44.1072 281.958 43.7352C280.951 43.3606 280.082 42.8273 279.348 42.1301C278.614 41.4328 278.045 40.59 277.634 39.5962C277.225 38.605 277.02 37.4994 277.02 36.2767ZM280.511 36.2767C280.511 36.9947 280.623 37.6529 280.844 38.2486C281.068 38.8443 281.385 39.362 281.804 39.7991C282.22 40.2388 282.72 40.5796 283.303 40.8241C283.885 41.0686 284.536 41.1909 285.254 41.1909C285.972 41.1909 286.622 41.0686 287.205 40.8241C287.788 40.5796 288.287 40.2388 288.704 39.7991C289.12 39.362 289.44 38.8443 289.664 38.2486C289.888 37.6529 289.997 36.9947 289.997 36.2767C289.997 35.5586 289.885 34.9187 289.664 34.3151C289.44 33.7116 289.123 33.1913 288.704 32.7516C288.287 32.3146 287.788 31.9712 287.205 31.7266C286.622 31.4821 285.972 31.3598 285.254 31.3598C284.536 31.3598 283.885 31.4821 283.303 31.7266C282.72 31.9712 282.22 32.3119 281.804 32.7516C281.388 33.1913 281.068 33.7116 280.844 34.3151C280.62 34.9187 280.511 35.5716 280.511 36.2767Z" fill="#9B9B9B"/>
<path d="M294.479 28.6465H298.317L302.089 38.6467H302.133L305.971 28.6465H309.572L303.278 43.907H300.583L294.482 28.6465H294.479Z" fill="#9B9B9B"/>
<path d="M311.508 28.6465H321.876V31.7501H314.869V34.5961H321.488V37.6997H314.869V40.8033H322.263V43.907H311.508V28.6465Z" fill="#9B9B9B"/>
<path d="M325.174 28.6465H331.08C331.855 28.6465 332.592 28.7219 333.289 28.8728C333.986 29.0237 334.598 29.276 335.121 29.6273C335.646 29.9785 336.062 30.4545 336.372 31.0503C336.682 31.646 336.835 32.3901 336.835 33.2824C336.835 34.3594 336.554 35.2751 335.995 36.0296C335.435 36.784 334.616 37.2627 333.539 37.463L337.418 43.907H333.388L330.198 37.8064H328.538V43.907H325.177V28.6465H325.174ZM328.536 34.9604H330.518C330.82 34.9604 331.14 34.9499 331.478 34.9291C331.816 34.9083 332.121 34.8433 332.394 34.734C332.667 34.6274 332.894 34.4583 333.073 34.2267C333.253 33.9978 333.344 33.6752 333.344 33.2564C333.344 32.8687 333.266 32.5592 333.107 32.3302C332.948 32.1013 332.748 31.9244 332.503 31.8021C332.259 31.6798 331.978 31.5966 331.663 31.555C331.346 31.5107 331.039 31.4899 330.737 31.4899H328.538V34.9604H328.536Z" fill="#9B9B9B"/>
<path d="M205.444 50.6411H208.194C208.587 50.6411 208.964 50.6796 209.326 50.7566C209.696 50.8337 210.02 50.9646 210.297 51.1495C210.574 51.3267 210.794 51.5693 210.956 51.8775C211.125 52.1779 211.21 52.5554 211.21 53.0099C211.21 53.5261 211.121 53.9421 210.944 54.2579C210.767 54.5737 210.528 54.8203 210.228 54.9974C209.927 55.1669 209.577 55.2825 209.176 55.3441C208.783 55.4057 208.371 55.4365 207.94 55.4365H206.9V58.8223H205.444V50.6411ZM207.778 54.1886C207.986 54.1886 208.202 54.1809 208.425 54.1655C208.648 54.15 208.852 54.1038 209.037 54.0268C209.23 53.9498 209.384 53.8342 209.5 53.6801C209.623 53.5261 209.684 53.3104 209.684 53.033C209.684 52.7788 209.631 52.5785 209.523 52.4321C209.415 52.2781 209.276 52.1625 209.107 52.0855C208.937 52.0007 208.748 51.9468 208.54 51.9237C208.332 51.9006 208.132 51.889 207.94 51.889H206.9V54.1886H207.778ZM214.819 50.6411H217.661C218.054 50.6411 218.432 50.6796 218.794 50.7566C219.164 50.826 219.491 50.9492 219.776 51.1264C220.061 51.3036 220.288 51.5424 220.458 51.8428C220.627 52.1433 220.712 52.5246 220.712 52.9868C220.712 53.58 220.546 54.0769 220.215 54.4774C219.892 54.878 219.426 55.1207 218.817 55.2054L220.989 58.8223H219.233L217.338 55.3557H216.275V58.8223H214.819V50.6411ZM217.407 54.1077C217.615 54.1077 217.823 54.1 218.031 54.0846C218.239 54.0615 218.428 54.0152 218.597 53.9459C218.775 53.8689 218.917 53.7572 219.025 53.6108C219.133 53.4567 219.187 53.2449 219.187 52.9753C219.187 52.7364 219.137 52.5439 219.037 52.3975C218.936 52.2511 218.805 52.1433 218.644 52.0739C218.482 51.9969 218.301 51.9468 218.101 51.9237C217.908 51.9006 217.719 51.889 217.534 51.889H216.275V54.1077H217.407ZM223.969 54.7663C223.969 54.1115 224.077 53.5184 224.293 52.9868C224.509 52.4476 224.805 51.9892 225.183 51.6117C225.568 51.2342 226.022 50.9454 226.546 50.7451C227.078 50.5371 227.659 50.4331 228.291 50.4331C228.93 50.4254 229.516 50.5217 230.047 50.722C230.579 50.9145 231.037 51.1996 231.423 51.5771C231.808 51.9545 232.108 52.409 232.324 52.9406C232.54 53.4721 232.647 54.0653 232.647 54.7201C232.647 55.3595 232.54 55.9411 232.324 56.465C232.108 56.9888 231.808 57.4395 231.423 57.8169C231.037 58.1944 230.579 58.491 230.047 58.7067C229.516 58.9147 228.93 59.0226 228.291 59.0303C227.659 59.0303 227.078 58.9301 226.546 58.7298C226.022 58.5218 225.568 58.2329 225.183 57.8632C224.805 57.4857 224.509 57.035 224.293 56.5112C224.077 55.9873 223.969 55.4057 223.969 54.7663ZM225.495 54.6739C225.495 55.113 225.56 55.5174 225.691 55.8872C225.83 56.257 226.022 56.5767 226.269 56.8463C226.515 57.1159 226.808 57.3278 227.147 57.4818C227.494 57.6359 227.879 57.713 228.303 57.713C228.726 57.713 229.111 57.6359 229.458 57.4818C229.805 57.3278 230.101 57.1159 230.348 56.8463C230.594 56.5767 230.783 56.257 230.914 55.8872C231.053 55.5174 231.122 55.113 231.122 54.6739C231.122 54.2656 231.053 53.8843 230.914 53.5299C230.783 53.1755 230.594 52.8674 230.348 52.6055C230.101 52.3359 229.805 52.1279 229.458 51.9815C229.111 51.8274 228.726 51.7504 228.303 51.7504C227.879 51.7504 227.494 51.8274 227.147 51.9815C226.808 52.1279 226.515 52.3359 226.269 52.6055C226.022 52.8674 225.83 53.1755 225.691 53.5299C225.56 53.8843 225.495 54.2656 225.495 54.6739ZM236.311 50.6411H237.767V58.8223H236.311V50.6411ZM241.872 50.6411H243.802L247.766 56.7192H247.789V50.6411H249.245V58.8223H247.396L243.351 52.5477H243.328V58.8223H241.872V50.6411ZM257.39 52.3975C257.236 52.1741 257.028 52.0123 256.766 51.9122C256.512 51.8043 256.242 51.7504 255.957 51.7504C255.788 51.7504 255.622 51.7696 255.46 51.8082C255.306 51.8467 255.164 51.9083 255.033 51.993C254.909 52.0778 254.809 52.1895 254.732 52.3282C254.655 52.4591 254.617 52.617 254.617 52.8019C254.617 53.0793 254.713 53.2911 254.906 53.4375C255.098 53.5838 255.337 53.7109 255.622 53.8188C255.907 53.9266 256.219 54.0306 256.558 54.1308C256.897 54.2309 257.209 54.3696 257.494 54.5468C257.779 54.724 258.018 54.9589 258.21 55.2517C258.403 55.5444 258.499 55.9334 258.499 56.4188C258.499 56.8579 258.418 57.243 258.257 57.5743C258.095 57.8978 257.875 58.1675 257.598 58.3832C257.328 58.5989 257.013 58.7606 256.651 58.8685C256.288 58.9763 255.907 59.0303 255.507 59.0303C254.998 59.0303 254.509 58.9455 254.039 58.776C253.569 58.6066 253.165 58.3215 252.826 57.9209L253.923 56.8579C254.101 57.1275 254.332 57.3393 254.617 57.4934C254.909 57.6398 255.218 57.713 255.541 57.713C255.711 57.713 255.88 57.6898 256.05 57.6436C256.219 57.5974 256.373 57.5281 256.512 57.4356C256.651 57.3432 256.762 57.2276 256.847 57.089C256.932 56.9426 256.974 56.777 256.974 56.5921C256.974 56.2916 256.878 56.0605 256.685 55.8988C256.493 55.737 256.254 55.6022 255.969 55.4943C255.684 55.3788 255.372 55.2709 255.033 55.1708C254.694 55.0706 254.382 54.9358 254.097 54.7663C253.812 54.5892 253.573 54.358 253.38 54.073C253.188 53.7803 253.091 53.3912 253.091 52.9059C253.091 52.4822 253.176 52.1163 253.346 51.8082C253.523 51.5 253.75 51.2458 254.027 51.0455C254.312 50.8375 254.636 50.6834 254.998 50.5833C255.36 50.4831 255.73 50.4331 256.107 50.4331C256.539 50.4331 256.955 50.4986 257.355 50.6295C257.764 50.7605 258.13 50.9762 258.453 51.2766L257.39 52.3975ZM262.327 50.6411H265.077C265.47 50.6411 265.847 50.6796 266.209 50.7566C266.579 50.8337 266.903 50.9646 267.18 51.1495C267.457 51.3267 267.677 51.5693 267.839 51.8775C268.008 52.1779 268.093 52.5554 268.093 53.0099C268.093 53.5261 268.004 53.9421 267.827 54.2579C267.65 54.5737 267.411 54.8203 267.111 54.9974C266.81 55.1669 266.46 55.2825 266.059 55.3441C265.666 55.4057 265.254 55.4365 264.823 55.4365H263.783V58.8223H262.327V50.6411ZM264.661 54.1886C264.869 54.1886 265.085 54.1809 265.308 54.1655C265.531 54.15 265.736 54.1038 265.92 54.0268C266.113 53.9498 266.267 53.8342 266.383 53.6801C266.506 53.5261 266.568 53.3104 266.568 53.033C266.568 52.7788 266.514 52.5785 266.406 52.4321C266.298 52.2781 266.159 52.1625 265.99 52.0855C265.82 52.0007 265.632 51.9468 265.424 51.9237C265.216 51.9006 265.015 51.889 264.823 51.889H263.783V54.1886H264.661ZM271.702 50.6411H277.121V51.9584H273.158V53.969H276.913V55.2863H273.158V57.505H277.329V58.8223H271.702V50.6411ZM286.693 52.5593C286.393 52.2357 286.1 52.02 285.815 51.9122C285.537 51.8043 285.256 51.7504 284.971 51.7504C284.548 51.7504 284.162 51.8274 283.816 51.9815C283.477 52.1279 283.184 52.3359 282.938 52.6055C282.691 52.8674 282.498 53.1755 282.36 53.5299C282.229 53.8843 282.163 54.2656 282.163 54.6739C282.163 55.113 282.229 55.5174 282.36 55.8872C282.498 56.257 282.691 56.5767 282.938 56.8463C283.184 57.1159 283.477 57.3278 283.816 57.4818C284.162 57.6359 284.548 57.713 284.971 57.713C285.303 57.713 285.622 57.6359 285.93 57.4818C286.246 57.3201 286.539 57.0659 286.809 56.7192L288.01 57.5743C287.641 58.0827 287.19 58.4525 286.658 58.6836C286.127 58.9147 285.561 59.0303 284.96 59.0303C284.328 59.0303 283.746 58.9301 283.215 58.7298C282.691 58.5218 282.236 58.2329 281.851 57.8632C281.474 57.4857 281.177 57.035 280.962 56.5112C280.746 55.9873 280.638 55.4057 280.638 54.7663C280.638 54.1115 280.746 53.5184 280.962 52.9868C281.177 52.4476 281.474 51.9892 281.851 51.6117C282.236 51.2342 282.691 50.9454 283.215 50.7451C283.746 50.5371 284.328 50.4331 284.96 50.4331C285.514 50.4331 286.027 50.5332 286.497 50.7335C286.974 50.9261 287.417 51.2574 287.825 51.7273L286.693 52.5593ZM292.974 51.9584H290.467V50.6411H296.938V51.9584H294.43V58.8223H292.974V51.9584Z" fill="#9B9B9B"/>
<path d="M403.864 44.5011L409.737 37.8246L405.338 32.8232C404.906 32.333 404.209 32.333 403.778 32.8232L393.506 44.5011C393.075 44.9913 393.075 45.7836 393.506 46.2738L403.778 57.9517C404.209 58.4419 404.906 58.4419 405.338 57.9517L409.737 52.9503L403.864 46.2738C403.433 45.7836 403.433 44.9913 403.864 44.5011Z" fill="#9B9B9B"/>
<path d="M425.967 44.5011L415.695 32.8232C415.264 32.333 414.567 32.333 414.136 32.8232L409.737 37.8246L415.609 44.5011C416.041 44.9913 416.041 45.7836 415.609 46.2738L409.737 52.9503L414.136 57.9517C414.567 58.4419 415.264 58.4419 415.695 57.9517L425.967 46.2738C426.398 45.7836 426.398 44.9913 425.967 44.5011Z" fill="#9B9B9B"/>
<path d="M410.953 34.87C410.286 35.629 409.193 35.629 408.523 34.87C407.856 34.1109 406.763 32.8665 406.093 32.1075C405.426 31.3485 405.87 30.7251 407.083 30.7251H412.393C413.605 30.7251 414.051 31.3461 413.383 32.1075C412.715 32.8689 411.623 34.1109 410.953 34.87Z" fill="#AAAAAA"/>
<path d="M408.523 56.1293C409.191 55.3703 410.285 55.3703 410.953 56.1293C411.62 56.8883 412.713 58.1328 413.383 58.8918C414.052 59.6508 413.604 60.2742 412.393 60.2742H407.083C405.871 60.2742 405.425 59.6532 406.093 58.8918C406.761 58.1328 407.853 56.8883 408.523 56.1293Z" fill="#AAAAAA"/>
<path d="M438.754 48.5705C437.678 49.6567 436.361 50.1998 434.804 50.1998C433.246 50.1998 431.929 49.6567 430.853 48.5705C429.777 47.4842 429.239 46.1674 429.239 44.62C429.239 43.0624 429.777 41.7456 430.853 40.6696C431.929 39.5834 433.246 39.0403 434.804 39.0403C436.361 39.0403 437.678 39.5834 438.754 40.6696C439.84 41.7456 440.384 43.0624 440.384 44.62C440.384 46.1674 439.84 47.4842 438.754 48.5705ZM431.837 47.6021C432.636 48.4014 433.625 48.801 434.804 48.801C435.982 48.801 436.966 48.4014 437.755 47.6021C438.554 46.7925 438.954 45.7985 438.954 44.62C438.954 43.4313 438.554 42.4373 437.755 41.638C436.966 40.8285 435.982 40.4237 434.804 40.4237C433.625 40.4237 432.636 40.8285 431.837 41.638C431.048 42.4373 430.654 43.4313 430.654 44.62C430.654 45.7985 431.048 46.7925 431.837 47.6021ZM448.481 50L446.068 45.8805H443.532V50H442.102V39.2401H446.406C447.328 39.2401 448.117 39.568 448.773 40.2239C449.429 40.8694 449.757 41.6534 449.757 42.5757C449.757 43.2725 449.547 43.9078 449.127 44.4817C448.717 45.0556 448.184 45.4603 447.528 45.696L450.064 50H448.481ZM443.532 40.5774V44.5893H446.406C446.939 44.5893 447.39 44.3946 447.759 44.0052C448.138 43.6055 448.328 43.129 448.328 42.5757C448.328 42.0223 448.138 41.5509 447.759 41.1615C447.39 40.7721 446.939 40.5774 446.406 40.5774H443.532ZM451.499 39.2401H452.929V50H451.499V39.2401ZM456.666 48.6473H461.662V50H455.237V39.2401H461.585V40.5928H456.666V43.8976H461.201V45.2349H456.666V48.6473ZM470.074 39.2401H471.504V50H470.351L464.817 41.9608V50H463.388V39.2401H464.541L470.074 47.2639V39.2401ZM480.692 39.2401V40.5928H477.51V50H476.096V40.5928H472.929V39.2401H480.692ZM488.412 50L487.536 47.5867H482.694L481.818 50H480.296L484.308 39.2401H485.922L489.934 50H488.412ZM483.186 46.2494H487.044L485.107 40.9463L483.186 46.2494ZM492.633 48.6473H497.275V50H491.203V39.2401H492.633V48.6473ZM508.7 44.4202C509.192 44.6559 509.581 44.9941 509.868 45.4347C510.166 45.8754 510.314 46.3826 510.314 46.9565C510.314 47.8173 510.012 48.5397 509.407 49.1238C508.803 49.7079 508.065 50 507.194 50H502.552V39.2401H506.856C507.696 39.2401 508.408 39.5219 508.992 40.0855C509.576 40.6491 509.868 41.346 509.868 42.176C509.868 43.129 509.479 43.8771 508.7 44.4202ZM506.856 40.5774H503.981V43.8669H506.856C507.306 43.8669 507.686 43.708 507.993 43.3903C508.3 43.0727 508.454 42.6833 508.454 42.2221C508.454 41.7712 508.295 41.3869 507.978 41.0693C507.67 40.7414 507.296 40.5774 506.856 40.5774ZM507.194 48.6627C507.675 48.6627 508.08 48.4936 508.408 48.1554C508.736 47.8173 508.9 47.4022 508.9 46.9104C508.9 46.4287 508.731 46.0188 508.393 45.6807C508.065 45.3425 507.665 45.1734 507.194 45.1734H503.981V48.6627H507.194ZM518.743 49.1699C517.995 49.8565 517.027 50.1998 515.838 50.1998C514.649 50.1998 513.676 49.8565 512.917 49.1699C512.169 48.4731 511.795 47.5457 511.795 46.3877V39.2401H513.225V46.3263C513.225 47.0846 513.45 47.6892 513.901 48.1401C514.352 48.5807 514.998 48.801 515.838 48.801C516.678 48.801 517.324 48.5807 517.775 48.1401C518.225 47.6892 518.451 47.0846 518.451 46.3263V39.2401H519.865V46.3877C519.865 47.5457 519.491 48.4731 518.743 49.1699ZM522.051 39.2401H523.48V50H522.051V39.2401ZM527.218 48.6473H531.86V50H525.789V39.2401H527.218V48.6473ZM537.491 39.2401C538.956 39.2401 540.17 39.7627 541.134 40.808C542.107 41.843 542.594 43.1137 542.594 44.62C542.594 46.1264 542.107 47.4022 541.134 48.4475C540.17 49.4825 538.956 50 537.491 50H533.294V39.2401H537.491ZM537.491 48.6473C538.587 48.6473 539.484 48.263 540.181 47.4945C540.877 46.7259 541.226 45.7678 541.226 44.62C541.226 43.4723 540.877 42.5142 540.181 41.7456C539.484 40.977 538.587 40.5928 537.491 40.5928H534.724V48.6473H537.491ZM544.327 39.2401H545.757V50H544.327V39.2401ZM554.752 39.2401H556.181V50H555.028L549.495 41.9608V50H548.065V39.2401H549.218L554.752 47.2639V39.2401ZM568.858 44.6662V45.3118C568.858 46.7157 568.377 47.8839 567.413 48.8164C566.45 49.7387 565.174 50.1998 563.586 50.1998C561.946 50.1998 560.589 49.6618 559.513 48.5858C558.447 47.4996 557.914 46.1777 557.914 44.62C557.914 43.0624 558.447 41.7456 559.513 40.6696C560.589 39.5834 561.936 39.0403 563.555 39.0403C564.549 39.0403 565.461 39.2811 566.291 39.7627C567.121 40.2341 567.762 40.8592 568.213 41.638L566.983 42.3605C566.676 41.7764 566.209 41.3101 565.584 40.9617C564.969 40.603 564.288 40.4237 563.54 40.4237C562.31 40.4237 561.301 40.8285 560.512 41.638C559.723 42.4373 559.328 43.4313 559.328 44.62C559.328 45.8088 559.723 46.8028 560.512 47.6021C561.311 48.4014 562.341 48.801 563.601 48.801C564.677 48.801 565.548 48.5397 566.214 48.0171C566.881 47.4842 567.285 46.7976 567.429 45.9573H563.478V44.6662H568.858Z" fill="#9B9B9B"/>
<path fill-rule="evenodd" clip-rule="evenodd" d="M639.303 47.2814C639.303 47.281 639.303 47.2806 639.304 47.2803L655.541 29.0645C655.71 28.875 655.845 28.6642 655.948 28.4406C657.982 28.6291 659.574 30.3403 659.574 32.4233V58.577C659.574 60.7861 657.783 62.577 655.574 62.577H635.746L645.955 52.5452L654.662 58.6603C655.558 59.29 656.762 59.0439 657.377 58.1041C657.931 57.2588 657.835 56.1094 657.149 55.3829L645.955 43.5142V43.5148L629.717 61.731C629.494 61.9808 629.329 62.2676 629.222 62.5721C627.105 62.4688 625.42 60.7196 625.42 58.577V32.4233C625.42 30.2142 627.211 28.4233 629.42 28.4233H649.303L639.303 38.2503L630.596 32.1352C629.699 31.5055 628.496 31.7517 627.881 32.6914C627.327 33.5367 627.423 34.6862 628.109 35.4126L639.303 47.2814Z" fill="#9B9B9B"/>
<path d="M773.725 51.4752C772.518 51.4752 771.241 51.3489 769.894 51.0963C768.547 50.8437 767.34 50.4086 766.273 49.7912C765.824 49.5105 765.501 49.1878 765.305 48.8229C765.136 48.43 765.066 48.0511 765.094 47.6862C765.151 47.2933 765.291 46.9565 765.515 46.6758C765.768 46.3951 766.077 46.2127 766.442 46.1285C766.835 46.0443 767.256 46.1145 767.705 46.339C768.827 46.8723 769.88 47.2512 770.862 47.4757C771.844 47.6722 772.813 47.7704 773.767 47.7704C775.114 47.7704 776.111 47.5459 776.756 47.0968C777.43 46.6197 777.766 46.0022 777.766 45.2444C777.766 44.5989 777.542 44.1077 777.093 43.7709C776.672 43.4061 776.026 43.1394 775.156 42.971L770.946 42.1711C769.206 41.8343 767.873 41.2028 766.947 40.2766C766.049 39.3224 765.6 38.1015 765.6 36.614C765.6 35.2668 765.964 34.102 766.694 33.1197C767.452 32.1373 768.49 31.3795 769.81 30.8463C771.129 30.313 772.644 30.0464 774.356 30.0464C775.591 30.0464 776.742 30.1867 777.809 30.4674C778.903 30.72 779.956 31.1269 780.966 31.6883C781.387 31.9128 781.668 32.2075 781.808 32.5724C781.976 32.9372 782.019 33.3161 781.934 33.7091C781.85 34.0739 781.682 34.4107 781.429 34.7195C781.177 35.0001 780.854 35.1826 780.461 35.2668C780.096 35.3229 779.675 35.2387 779.198 35.0142C778.328 34.5651 777.486 34.2423 776.672 34.0459C775.886 33.8494 775.128 33.7512 774.398 33.7512C773.023 33.7512 771.999 33.9897 771.325 34.4669C770.68 34.944 770.357 35.5755 770.357 36.3614C770.357 36.9508 770.553 37.4419 770.946 37.8348C771.339 38.2278 771.943 38.4944 772.757 38.6347L776.967 39.4346C778.791 39.7714 780.166 40.3889 781.092 41.287C782.047 42.1852 782.524 43.392 782.524 44.9076C782.524 46.9565 781.724 48.5703 780.124 49.7491C778.524 50.8998 776.391 51.4752 773.725 51.4752Z" fill="#9B9B9B"/>
<path d="M748.84 51.475C747.128 51.475 745.711 51.1662 744.588 50.5488C743.465 49.9032 742.623 48.949 742.062 47.686C741.529 46.423 741.262 44.8513 741.262 42.9708V32.7827C741.262 31.8845 741.487 31.225 741.936 30.804C742.385 30.3549 743.03 30.1304 743.872 30.1304C744.714 30.1304 745.36 30.3549 745.809 30.804C746.286 31.225 746.525 31.8845 746.525 32.7827V43.055C746.525 44.5145 746.819 45.595 747.409 46.2967C747.998 46.9984 748.938 47.3492 750.229 47.3492C751.633 47.3492 752.784 46.8721 753.682 45.9178C754.58 44.9355 755.029 43.6444 755.029 42.0446V32.7827C755.029 31.8845 755.253 31.225 755.702 30.804C756.151 30.3549 756.797 30.1304 757.639 30.1304C758.481 30.1304 759.127 30.3549 759.576 30.804C760.053 31.225 760.291 31.8845 760.291 32.7827V48.6964C760.291 50.4926 759.435 51.3908 757.723 51.3908C756.909 51.3908 756.278 51.1662 755.829 50.7172C755.38 50.24 755.155 49.5664 755.155 48.6964V45.4968L755.745 46.7598C755.155 48.2754 754.257 49.4401 753.05 50.2541C751.871 51.068 750.468 51.475 748.84 51.475Z" fill="#9B9B9B"/>
<path d="M719.416 51.2645C718.799 51.2645 718.28 51.0961 717.859 50.7593C717.466 50.3944 717.255 49.9313 717.227 49.37C717.227 48.8086 717.466 48.2192 717.943 47.6018L724.763 39.1818V41.6657L718.364 33.7931C717.859 33.1756 717.62 32.5862 717.648 32.0249C717.676 31.4635 717.887 31.0145 718.28 30.6777C718.701 30.3128 719.22 30.1304 719.837 30.1304C720.483 30.1304 721.016 30.2426 721.437 30.4672C721.886 30.6917 722.293 31.0425 722.658 31.5197L727.71 38.003H725.858L730.952 31.5197C731.345 31.0425 731.751 30.6917 732.172 30.4672C732.593 30.2426 733.113 30.1304 733.73 30.1304C734.376 30.1304 734.895 30.3128 735.288 30.6777C735.681 31.0425 735.877 31.5056 735.877 32.067C735.905 32.6283 735.667 33.2177 735.162 33.8352L728.804 41.6236V39.266L735.625 47.6018C736.13 48.1912 736.368 48.7665 736.34 49.3279C736.312 49.8892 736.088 50.3523 735.667 50.7172C735.274 51.082 734.755 51.2645 734.109 51.2645C733.492 51.2645 732.972 51.1522 732.551 50.9277C732.13 50.7031 731.723 50.3523 731.33 49.8752L725.858 42.9708H727.626L722.195 49.8752C721.83 50.3242 721.437 50.6751 721.016 50.9277C720.595 51.1522 720.062 51.2645 719.416 51.2645Z" fill="#9B9B9B"/>
<path d="M705.016 51.4752C702.686 51.4752 700.679 51.0401 698.995 50.1701C697.311 49.3 696.006 48.0651 695.08 46.4653C694.182 44.8655 693.733 42.971 693.733 40.7818C693.733 38.6488 694.168 36.7824 695.038 35.1826C695.936 33.5828 697.157 32.3338 698.701 31.4357C700.272 30.5095 702.055 30.0464 704.047 30.0464C705.507 30.0464 706.812 30.285 707.963 30.7621C709.141 31.2392 710.138 31.9268 710.952 32.825C711.794 33.7231 712.425 34.8177 712.846 36.1088C713.295 37.3717 713.52 38.8031 713.52 40.4029C713.52 40.9081 713.337 41.3011 712.973 41.5817C712.636 41.8343 712.145 41.9606 711.499 41.9606H697.985V38.9294H709.815L709.141 39.5609C709.141 38.2699 708.945 37.1893 708.552 36.3193C708.187 35.4492 707.64 34.7896 706.91 34.3406C706.208 33.8634 705.324 33.6249 704.258 33.6249C703.079 33.6249 702.069 33.9055 701.227 34.4669C700.413 35.0001 699.781 35.772 699.332 36.7824C698.911 37.7647 698.701 38.9435 698.701 40.3187V40.6134C698.701 42.9149 699.234 44.641 700.3 45.7917C701.395 46.9144 702.995 47.4757 705.1 47.4757C705.83 47.4757 706.644 47.3915 707.542 47.2231C708.468 47.0266 709.338 46.7039 710.152 46.2548C710.741 45.918 711.26 45.7777 711.71 45.8338C712.159 45.8619 712.509 46.0162 712.762 46.2969C713.043 46.5776 713.211 46.9284 713.267 47.3494C713.323 47.7423 713.239 48.1493 713.015 48.5703C712.818 48.9913 712.467 49.3562 711.962 49.6649C710.98 50.2823 709.843 50.7454 708.552 51.0542C707.289 51.3348 706.11 51.4752 705.016 51.4752Z" fill="#9B9B9B"/>
<path d="M672.433 51.391C671.591 51.391 670.945 51.1664 670.496 50.7174C670.047 50.2402 669.823 49.5667 669.823 48.6966V32.7829C669.823 31.9128 670.047 31.2532 670.496 30.8042C670.945 30.3551 671.577 30.1306 672.391 30.1306C673.205 30.1306 673.836 30.3551 674.285 30.8042C674.734 31.2532 674.959 31.9128 674.959 32.7829V35.6457L674.496 34.5932C675.113 33.1056 676.068 31.983 677.359 31.2252C678.678 30.4393 680.165 30.0464 681.821 30.0464C683.477 30.0464 684.838 30.3551 685.905 30.9726C686.971 31.59 687.771 32.5303 688.305 33.7933C688.838 35.0282 689.104 36.5999 689.104 38.5084V48.6966C689.104 49.5667 688.88 50.2402 688.431 50.7174C687.982 51.1664 687.336 51.391 686.494 51.391C685.652 51.391 684.993 51.1664 684.516 50.7174C684.067 50.2402 683.842 49.5667 683.842 48.6966V38.761C683.842 37.1613 683.533 35.9965 682.916 35.2668C682.326 34.537 681.4 34.1722 680.137 34.1722C678.594 34.1722 677.359 34.6633 676.432 35.6457C675.534 36.5999 675.085 37.8769 675.085 39.4767V48.6966C675.085 50.4928 674.201 51.391 672.433 51.391Z" fill="#9B9B9B"/>
<path d="M774.794 61.1715C774.713 61.1715 774.65 61.149 774.605 61.104C774.56 61.0545 774.538 60.9871 774.538 60.9016V56.5907C774.538 56.5007 774.56 56.4332 774.605 56.3883C774.65 56.3433 774.713 56.3208 774.794 56.3208C774.866 56.3208 774.922 56.3365 774.963 56.368C775.008 56.395 775.048 56.4422 775.084 56.5097L776.933 59.9908H776.73L778.572 56.5097C778.608 56.4422 778.646 56.395 778.687 56.368C778.727 56.3365 778.786 56.3208 778.862 56.3208C778.939 56.3208 778.999 56.3433 779.044 56.3883C779.089 56.4332 779.112 56.5007 779.112 56.5907V60.9016C779.112 60.9871 779.089 61.0545 779.044 61.104C779.004 61.149 778.941 61.1715 778.855 61.1715C778.774 61.1715 778.711 61.149 778.666 61.104C778.621 61.0545 778.599 60.9871 778.599 60.9016V57.1101H778.761L777.074 60.2742C777.043 60.3327 777.009 60.3754 776.973 60.4024C776.942 60.4249 776.894 60.4361 776.831 60.4361C776.768 60.4361 776.719 60.4226 776.683 60.3956C776.647 60.3686 776.615 60.3282 776.589 60.2742L774.882 57.1034H775.044V60.9016C775.044 60.9871 775.021 61.0545 774.976 61.104C774.936 61.149 774.875 61.1715 774.794 61.1715Z" fill="#9B9B9B"/>
<path d="M770.142 61.185C769.827 61.185 769.551 61.1445 769.312 61.0635C769.078 60.9781 768.881 60.8544 768.719 60.6925C768.557 60.5261 768.435 60.3214 768.354 60.0785C768.273 59.8357 768.233 59.5568 768.233 59.242V56.6041C768.233 56.5097 768.255 56.44 768.3 56.395C768.35 56.3455 768.42 56.3208 768.51 56.3208C768.599 56.3208 768.667 56.3455 768.712 56.395C768.761 56.44 768.786 56.5097 768.786 56.6041V59.215C768.786 59.7097 768.901 60.0808 769.13 60.3282C769.36 60.571 769.697 60.6925 770.142 60.6925C770.587 60.6925 770.922 60.571 771.147 60.3282C771.372 60.0808 771.485 59.7097 771.485 59.215V56.6041C771.485 56.5097 771.509 56.44 771.559 56.395C771.608 56.3455 771.678 56.3208 771.768 56.3208C771.853 56.3208 771.919 56.3455 771.964 56.395C772.013 56.44 772.038 56.5097 772.038 56.6041V59.242C772.038 59.6603 771.966 60.0156 771.822 60.3079C771.683 60.6003 771.471 60.8206 771.188 60.9691C770.904 61.113 770.556 61.185 770.142 61.185Z" fill="#9B9B9B"/>
<path d="M763.715 61.1244C763.626 61.1244 763.556 61.0997 763.506 61.0502C763.457 60.9962 763.432 60.9243 763.432 60.8343V56.6246C763.432 56.5301 763.455 56.4582 763.5 56.4087C763.549 56.3592 763.619 56.3345 763.709 56.3345C763.799 56.3345 763.866 56.3592 763.911 56.4087C763.961 56.4582 763.985 56.5301 763.985 56.6246V60.6387H766.198C766.279 60.6387 766.342 60.6612 766.387 60.7061C766.432 60.7466 766.455 60.8051 766.455 60.8815C766.455 60.958 766.432 61.0187 766.387 61.0637C766.342 61.1042 766.279 61.1244 766.198 61.1244H763.715Z" fill="#9B9B9B"/>
<path d="M758.092 61.1711C758.002 61.1711 757.932 61.1464 757.882 61.0969C757.837 61.0429 757.815 60.971 757.815 60.881V56.651C757.815 56.5566 757.84 56.4869 757.889 56.4419C757.939 56.3924 758.008 56.3677 758.098 56.3677H759.697C760.205 56.3677 760.597 56.4936 760.871 56.7455C761.145 56.9928 761.283 57.3437 761.283 57.7979C761.283 58.2477 761.145 58.5985 760.871 58.8503C760.597 59.1022 760.205 59.2281 759.697 59.2281H758.368V60.881C758.368 60.971 758.346 61.0429 758.301 61.0969C758.256 61.1464 758.186 61.1711 758.092 61.1711ZM758.368 58.7626H759.63C759.994 58.7626 760.268 58.6817 760.453 58.5198C760.642 58.3534 760.736 58.1127 760.736 57.7979C760.736 57.4786 760.642 57.238 760.453 57.076C760.268 56.9096 759.994 56.8264 759.63 56.8264H758.368V58.7626Z" fill="#9B9B9B"/>
<path d="M753.983 61.1848C753.516 61.1848 753.115 61.0858 752.782 60.8879C752.45 60.69 752.193 60.4089 752.013 60.0446C751.838 59.6803 751.75 59.2463 751.75 58.7426C751.75 58.3648 751.8 58.0275 751.899 57.7306C752.002 57.4293 752.148 57.1752 752.337 56.9683C752.531 56.7569 752.767 56.595 753.046 56.4825C753.324 56.3656 753.637 56.3071 753.983 56.3071C754.262 56.3071 754.528 56.3476 754.779 56.4286C755.031 56.505 755.249 56.6197 755.434 56.7726C755.492 56.8176 755.53 56.8693 755.548 56.9278C755.571 56.9818 755.573 57.0357 755.555 57.0897C755.542 57.1392 755.515 57.1819 755.474 57.2179C755.438 57.2494 755.393 57.2651 755.339 57.2651C755.285 57.2651 755.225 57.2426 755.157 57.1977C754.995 57.0672 754.818 56.9705 754.624 56.9076C754.431 56.8446 754.222 56.8131 753.997 56.8131C753.641 56.8131 753.34 56.8896 753.093 57.0425C752.845 57.1909 752.659 57.409 752.533 57.6969C752.407 57.9847 752.344 58.3333 752.344 58.7426C752.344 59.1519 752.407 59.5027 752.533 59.795C752.659 60.0829 752.845 60.3032 753.093 60.4562C753.34 60.6046 753.641 60.6788 753.997 60.6788C754.217 60.6788 754.426 60.6473 754.624 60.5843C754.822 60.5169 755.004 60.4179 755.171 60.2875C755.238 60.2425 755.299 60.2223 755.353 60.2268C755.407 60.2268 755.452 60.2425 755.488 60.274C755.524 60.3055 755.548 60.346 755.562 60.3954C755.58 60.4449 755.58 60.4966 755.562 60.5506C755.548 60.6046 755.515 60.6518 755.461 60.6923C755.272 60.8542 755.049 60.9779 754.793 61.0633C754.541 61.1443 754.271 61.1848 753.983 61.1848Z" fill="#9B9B9B"/>
<path d="M749.121 61.1715C749.031 61.1715 748.961 61.1467 748.912 61.0972C748.867 61.0433 748.844 60.9713 748.844 60.8814V56.6109C748.844 56.5164 748.867 56.4445 748.912 56.395C748.961 56.3455 749.031 56.3208 749.121 56.3208C749.211 56.3208 749.278 56.3455 749.323 56.395C749.373 56.4445 749.397 56.5164 749.397 56.6109V60.8814C749.397 60.9713 749.375 61.0433 749.33 61.0972C749.285 61.1467 749.215 61.1715 749.121 61.1715Z" fill="#9B9B9B"/>
<path d="M744.772 61.1848C744.264 61.1848 743.834 61.0881 743.484 60.8947C743.137 60.7013 742.874 60.4224 742.694 60.0581C742.514 59.6938 742.424 59.2576 742.424 58.7493C742.424 58.3715 742.474 58.032 742.573 57.7306C742.676 57.4293 742.825 57.1752 743.018 56.9683C743.216 56.7569 743.454 56.595 743.733 56.4825C744.016 56.3656 744.336 56.3071 744.691 56.3071C744.974 56.3071 745.249 56.3476 745.514 56.4286C745.78 56.505 746.016 56.6287 746.223 56.7996C746.277 56.8401 746.31 56.8851 746.324 56.9345C746.337 56.984 746.335 57.0335 746.317 57.083C746.303 57.1324 746.279 57.1752 746.243 57.2111C746.211 57.2426 746.169 57.2606 746.115 57.2651C746.065 57.2696 746.013 57.2539 745.959 57.2179C745.775 57.074 745.579 56.9705 745.372 56.9076C745.166 56.8401 744.936 56.8064 744.684 56.8064C744.325 56.8064 744.019 56.8828 743.767 57.0357C743.519 57.1887 743.331 57.409 743.2 57.6969C743.074 57.9847 743.011 58.3355 743.011 58.7493C743.011 59.379 743.157 59.8602 743.45 60.1931C743.747 60.5259 744.192 60.6923 744.786 60.6923C745.001 60.6923 745.213 60.672 745.42 60.6316C745.627 60.5866 745.822 60.5259 746.007 60.4494L745.885 60.7665V59.0866H744.92C744.84 59.0866 744.779 59.0664 744.738 59.0259C744.698 58.9854 744.678 58.9315 744.678 58.864C744.678 58.7921 744.698 58.7381 744.738 58.7021C744.779 58.6661 744.84 58.6481 744.92 58.6481H746.128C746.205 58.6481 746.263 58.6684 746.303 58.7088C746.344 58.7493 746.364 58.8078 746.364 58.8843V60.6451C746.364 60.7125 746.353 60.7687 746.33 60.8137C746.308 60.8587 746.27 60.8924 746.216 60.9149C746.027 60.9914 745.8 61.0566 745.534 61.1106C745.274 61.16 745.019 61.1848 744.772 61.1848Z" fill="#9B9B9B"/>
<path d="M738.075 61.1848C737.634 61.1848 737.25 61.0858 736.921 60.8879C736.597 60.6855 736.346 60.4022 736.166 60.0379C735.99 59.6736 735.903 59.2418 735.903 58.7426C735.903 58.3648 735.952 58.0275 736.051 57.7306C736.154 57.4293 736.301 57.1752 736.49 56.9683C736.678 56.7569 736.906 56.595 737.171 56.4825C737.441 56.3656 737.742 56.3071 738.075 56.3071C738.525 56.3071 738.911 56.4061 739.235 56.604C739.564 56.8019 739.815 57.083 739.991 57.4473C740.171 57.8071 740.261 58.2366 740.261 58.7358C740.261 59.1136 740.209 59.4532 740.106 59.7545C740.002 60.0559 739.856 60.3122 739.667 60.5236C739.478 60.735 739.249 60.8992 738.979 61.0161C738.714 61.1286 738.412 61.1848 738.075 61.1848ZM738.075 60.6923C738.417 60.6923 738.705 60.6158 738.938 60.4629C739.177 60.31 739.359 60.0874 739.485 59.795C739.611 59.5027 739.674 59.1519 739.674 58.7426C739.674 58.1264 739.534 57.6497 739.256 57.3123C738.981 56.9705 738.588 56.7996 738.075 56.7996C737.742 56.7996 737.457 56.8761 737.218 57.029C736.984 57.1819 736.804 57.4045 736.678 57.6969C736.552 57.9847 736.49 58.3333 736.49 58.7426C736.49 59.3543 736.629 59.8332 736.908 60.1796C737.187 60.5214 737.576 60.6923 738.075 60.6923Z" fill="#9B9B9B"/>
<path d="M731.592 61.1244C731.502 61.1244 731.433 61.0997 731.383 61.0502C731.334 60.9962 731.309 60.9243 731.309 60.8343V56.6246C731.309 56.5301 731.332 56.4582 731.377 56.4087C731.426 56.3592 731.496 56.3345 731.586 56.3345C731.676 56.3345 731.743 56.3592 731.788 56.4087C731.838 56.4582 731.862 56.5301 731.862 56.6246V60.6387H734.075C734.156 60.6387 734.219 60.6612 734.264 60.7061C734.309 60.7466 734.331 60.8051 734.331 60.8815C734.331 60.958 734.309 61.0187 734.264 61.0637C734.219 61.1042 734.156 61.1244 734.075 61.1244H731.592Z" fill="#9B9B9B"/>
<path d="M724.277 61.1715C724.187 61.1715 724.117 61.1467 724.068 61.0972C724.023 61.0433 724 60.9691 724 60.8746V58.6618L724.122 59.0463L722.428 56.7121C722.388 56.6536 722.368 56.5952 722.368 56.5367C722.372 56.4737 722.397 56.422 722.442 56.3815C722.487 56.341 722.545 56.3208 722.617 56.3208C722.68 56.3208 722.736 56.3365 722.786 56.368C722.835 56.395 722.88 56.44 722.921 56.503L724.358 58.4864H724.216L725.653 56.503C725.703 56.4355 725.75 56.3883 725.795 56.3613C725.84 56.3343 725.894 56.3208 725.957 56.3208C726.029 56.3208 726.085 56.341 726.125 56.3815C726.166 56.4175 726.186 56.467 726.186 56.5299C726.191 56.5884 726.17 56.6514 726.125 56.7188L724.439 59.0463L724.554 58.6618V60.8746C724.554 61.0725 724.461 61.1715 724.277 61.1715Z" fill="#9B9B9B"/>
<path d="M717.341 61.1239C717.242 61.1239 717.166 61.0991 717.112 61.0497C717.062 60.9957 717.038 60.9192 717.038 60.8203V56.6713C717.038 56.5723 717.062 56.4981 717.112 56.4486C717.166 56.3947 717.242 56.3677 717.341 56.3677H718.94C719.268 56.3677 719.545 56.4171 719.77 56.5161C719.999 56.6105 720.175 56.75 720.296 56.9344C720.418 57.1188 720.478 57.3437 720.478 57.609C720.478 57.9059 720.391 58.1532 720.215 58.3511C720.044 58.549 719.81 58.6794 719.514 58.7424V58.648C719.851 58.6884 720.114 58.8099 720.303 59.0123C720.496 59.2147 720.593 59.4823 720.593 59.8151C720.593 60.2379 720.456 60.5617 720.181 60.7866C719.907 61.0114 719.52 61.1239 719.021 61.1239H717.341ZM717.577 60.6786H718.967C719.327 60.6786 719.597 60.6067 719.777 60.4627C719.957 60.3188 720.046 60.1007 720.046 59.8083C720.046 59.5115 719.957 59.2934 719.777 59.1539C719.597 59.01 719.327 58.9381 718.967 58.9381H717.577V60.6786ZM717.577 58.4928H718.859C719.21 58.4928 719.475 58.4208 719.655 58.2769C719.84 58.133 719.932 57.9261 719.932 57.6562C719.932 57.3774 719.84 57.1682 719.655 57.0288C719.475 56.8849 719.21 56.8129 718.859 56.8129H717.577V58.4928Z" fill="#9B9B9B"/>
<path d="M707.896 61.1239C707.797 61.1239 707.72 61.0991 707.666 61.0497C707.617 60.9957 707.592 60.9192 707.592 60.8203V56.6713C707.592 56.5723 707.617 56.4981 707.666 56.4486C707.72 56.3947 707.797 56.3677 707.896 56.3677H709.198C709.967 56.3677 710.561 56.5701 710.979 56.9749C711.397 57.3796 711.606 57.9688 711.606 58.7424C711.606 59.1292 711.552 59.471 711.444 59.7679C711.341 60.0602 711.186 60.3076 710.979 60.51C710.772 60.7124 710.52 60.8653 710.223 60.9687C709.927 61.0722 709.585 61.1239 709.198 61.1239H707.896ZM708.145 60.6516H709.157C709.472 60.6516 709.744 60.6112 709.974 60.5302C710.208 60.4492 710.401 60.3301 710.554 60.1726C710.711 60.0152 710.828 59.8173 710.905 59.579C710.981 59.3361 711.019 59.0572 711.019 58.7424C711.019 58.1082 710.864 57.6337 710.554 57.3189C710.244 56.9996 709.778 56.8399 709.157 56.8399H708.145V60.6516Z" fill="#9B9B9B"/>
<path d="M702.613 61.1239C702.514 61.1239 702.437 61.0991 702.383 61.0497C702.334 60.9957 702.309 60.9192 702.309 60.8203V56.6713C702.309 56.5723 702.334 56.4981 702.383 56.4486C702.437 56.3947 702.514 56.3677 702.613 56.3677H705.122C705.199 56.3677 705.257 56.3879 705.298 56.4284C705.338 56.4689 705.358 56.5251 705.358 56.5971C705.358 56.6735 705.338 56.732 705.298 56.7725C705.257 56.8129 705.199 56.8332 705.122 56.8332H702.849V58.4793H704.981C705.057 58.4793 705.116 58.4995 705.156 58.54C705.197 58.576 705.217 58.6322 705.217 58.7087C705.217 58.7851 705.197 58.8436 705.156 58.8841C705.116 58.9246 705.057 58.9448 704.981 58.9448H702.849V60.6584H705.122C705.199 60.6584 705.257 60.6786 705.298 60.7191C705.338 60.7596 705.358 60.8158 705.358 60.8878C705.358 60.9642 705.338 61.0227 705.298 61.0632C705.257 61.1036 705.199 61.1239 705.122 61.1239H702.613Z" fill="#9B9B9B"/>
<path d="M696.724 61.1711C696.634 61.1711 696.565 61.1464 696.515 61.0969C696.47 61.0429 696.448 60.971 696.448 60.881V56.651C696.448 56.5566 696.472 56.4869 696.522 56.4419C696.571 56.3924 696.641 56.3677 696.731 56.3677H698.33C698.838 56.3677 699.23 56.4869 699.504 56.7252C699.778 56.9636 699.915 57.3032 699.915 57.7439C699.915 58.0228 699.852 58.2657 699.727 58.4726C699.605 58.6749 699.425 58.8301 699.187 58.9381C698.948 59.0415 698.663 59.0932 698.33 59.0932L698.397 59.0055H698.532C698.708 59.0055 698.861 59.0505 698.991 59.1404C699.122 59.2304 699.241 59.3743 699.349 59.5722L699.996 60.7798C700.032 60.8428 700.048 60.9058 700.044 60.9687C700.044 61.0272 700.023 61.0767 699.983 61.1171C699.942 61.1531 699.884 61.1711 699.807 61.1711C699.731 61.1711 699.668 61.1531 699.619 61.1171C699.569 61.0812 699.526 61.0294 699.49 60.962L698.755 59.5992C698.652 59.4058 698.532 59.2776 698.397 59.2147C698.263 59.1472 698.085 59.1135 697.864 59.1135H697.001V60.881C697.001 60.971 696.978 61.0429 696.933 61.0969C696.889 61.1464 696.819 61.1711 696.724 61.1711ZM697.001 58.6749H698.249C698.618 58.6749 698.897 58.5985 699.086 58.4456C699.274 58.2881 699.369 58.0543 699.369 57.7439C699.369 57.4426 699.274 57.2155 699.086 57.0626C698.897 56.9051 698.618 56.8264 698.249 56.8264H697.001V58.6749Z" fill="#9B9B9B"/>
<path d="M691.468 61.1239C691.369 61.1239 691.293 61.0991 691.239 61.0497C691.189 60.9957 691.165 60.9192 691.165 60.8203V56.6713C691.165 56.5723 691.189 56.4981 691.239 56.4486C691.293 56.3947 691.369 56.3677 691.468 56.3677H693.978C694.054 56.3677 694.113 56.3879 694.153 56.4284C694.194 56.4689 694.214 56.5251 694.214 56.5971C694.214 56.6735 694.194 56.732 694.153 56.7725C694.113 56.8129 694.054 56.8332 693.978 56.8332H691.704V58.4793H693.836C693.913 58.4793 693.971 58.4995 694.012 58.54C694.052 58.576 694.072 58.6322 694.072 58.7087C694.072 58.7851 694.052 58.8436 694.012 58.8841C693.971 58.9246 693.913 58.9448 693.836 58.9448H691.704V60.6584H693.978C694.054 60.6584 694.113 60.6786 694.153 60.7191C694.194 60.7596 694.214 60.8158 694.214 60.8878C694.214 60.9642 694.194 61.0227 694.153 61.0632C694.113 61.1036 694.054 61.1239 693.978 61.1239H691.468Z" fill="#9B9B9B"/>
<path d="M683.914 61.1715C683.833 61.1715 683.768 61.1512 683.718 61.1107C683.669 61.0658 683.628 61.0006 683.597 60.9151L682.106 56.6581C682.074 56.5637 682.081 56.485 682.126 56.422C682.176 56.3545 682.252 56.3208 682.355 56.3208C682.432 56.3208 682.493 56.341 682.538 56.3815C682.583 56.4175 682.621 56.476 682.652 56.5569L684.049 60.652H683.813L685.236 56.5772C685.268 56.4917 685.306 56.4287 685.351 56.3883C685.396 56.3433 685.457 56.3208 685.533 56.3208C685.605 56.3208 685.661 56.3433 685.702 56.3883C685.747 56.4287 685.785 56.4917 685.816 56.5772L687.22 60.652H687.01L688.42 56.5569C688.443 56.4805 688.477 56.422 688.522 56.3815C688.571 56.341 688.634 56.3208 688.711 56.3208C688.805 56.3208 688.875 56.3523 688.92 56.4153C688.965 56.4782 688.969 56.5592 688.933 56.6581L687.436 60.9151C687.404 61.0006 687.364 61.0658 687.314 61.1107C687.269 61.1512 687.204 61.1715 687.118 61.1715C687.037 61.1715 686.972 61.1512 686.923 61.1107C686.878 61.0658 686.837 61.0006 686.801 60.9151L685.445 57.0089H685.594L684.224 60.9151C684.193 61.0006 684.155 61.0658 684.11 61.1107C684.065 61.1512 683.999 61.1715 683.914 61.1715Z" fill="#9B9B9B"/>
<path d="M677.972 61.1848C677.531 61.1848 677.146 61.0858 676.818 60.8879C676.494 60.6855 676.242 60.4022 676.062 60.0379C675.887 59.6736 675.799 59.2418 675.799 58.7426C675.799 58.3648 675.849 58.0275 675.948 57.7306C676.051 57.4293 676.197 57.1752 676.386 56.9683C676.575 56.7569 676.802 56.595 677.068 56.4825C677.337 56.3656 677.639 56.3071 677.972 56.3071C678.421 56.3071 678.808 56.4061 679.132 56.604C679.46 56.8019 679.712 57.083 679.888 57.4473C680.068 57.8071 680.157 58.2366 680.157 58.7358C680.157 59.1136 680.106 59.4532 680.002 59.7545C679.899 60.0559 679.753 60.3122 679.564 60.5236C679.375 60.735 679.146 60.8992 678.876 61.0161C678.61 61.1286 678.309 61.1848 677.972 61.1848ZM677.972 60.6923C678.313 60.6923 678.601 60.6158 678.835 60.4629C679.074 60.31 679.256 60.0874 679.382 59.795C679.508 59.5027 679.571 59.1519 679.571 58.7426C679.571 58.1264 679.431 57.6497 679.152 57.3123C678.878 56.9705 678.484 56.7996 677.972 56.7996C677.639 56.7996 677.353 56.8761 677.115 57.029C676.881 57.1819 676.701 57.4045 676.575 57.6969C676.449 57.9847 676.386 58.3333 676.386 58.7426C676.386 59.3543 676.526 59.8332 676.805 60.1796C677.083 60.5214 677.472 60.6923 677.972 60.6923Z" fill="#9B9B9B"/>
<path d="M670.685 61.1711C670.595 61.1711 670.526 61.1464 670.476 61.0969C670.431 61.0429 670.409 60.971 670.409 60.881V56.651C670.409 56.5566 670.433 56.4869 670.483 56.4419C670.532 56.3924 670.602 56.3677 670.692 56.3677H672.291C672.799 56.3677 673.19 56.4936 673.465 56.7455C673.739 56.9928 673.876 57.3437 673.876 57.7979C673.876 58.2477 673.739 58.5985 673.465 58.8503C673.19 59.1022 672.799 59.2281 672.291 59.2281H670.962V60.881C670.962 60.971 670.939 61.0429 670.894 61.0969C670.849 61.1464 670.78 61.1711 670.685 61.1711ZM670.962 58.7626H672.223C672.588 58.7626 672.862 58.6817 673.047 58.5198C673.235 58.3534 673.33 58.1127 673.33 57.7979C673.33 57.4786 673.235 57.238 673.047 57.076C672.862 56.9096 672.588 56.8264 672.223 56.8264H670.962V58.7626Z" fill="#9B9B9B"/>
<path opacity="0.9" d="M855.552 44.4669C858.013 42.049 858.013 38.1287 855.552 35.7108C853.091 33.2929 849.102 33.2929 846.641 35.7108C844.181 38.1287 844.181 42.049 846.641 44.4669C849.102 46.8849 853.091 46.8849 855.552 44.4669Z" fill="#9B9B9B"/>
<path opacity="0.9" d="M851.009 35.5649C851.009 31.6204 854.206 28.4229 858.151 28.4229C862.095 28.4229 865.293 31.6204 865.293 35.5649V44.3873C865.293 48.3318 862.095 51.5294 858.151 51.5294C854.206 51.5294 851.009 48.3318 851.009 44.3873V35.5649Z" fill="#E3E3E3"/>
<path opacity="0.9" d="M861.09 31.7836C861.09 27.8392 864.288 24.6416 868.232 24.6416C872.177 24.6416 875.374 27.8392 875.374 31.7836V47.7481C875.374 51.6925 872.177 54.8901 868.232 54.8901C864.288 54.8901 861.09 51.6925 861.09 47.7481V31.7836Z" fill="#9B9B9B"/>
<path opacity="0.9" d="M870.754 35.5649C870.754 31.6204 873.952 28.4229 877.896 28.4229C881.841 28.4229 885.038 31.6204 885.038 35.5649V44.3873C885.038 48.3318 881.841 51.5294 877.896 51.5294C873.952 51.5294 870.754 48.3318 870.754 44.3873V35.5649Z" fill="#E3E3E3"/>
<path opacity="0.9" d="M889.581 44.4669C892.042 42.049 892.042 38.1287 889.581 35.7108C887.121 33.2929 883.131 33.2929 880.671 35.7108C878.21 38.1287 878.21 42.049 880.671 44.4669C883.131 46.8849 887.121 46.8849 889.581 44.4669Z" fill="#9B9B9B"/>
<rect x="832.864" y="40.5254" width="70.3203" height="14.0244" rx="7.0122" fill="white" stroke="#9B9B9B" stroke-width="0.679742"/>
<path d="M839.661 44.8677H840.722L843.254 50.689H841.807L841.305 49.4557H839.044L838.559 50.689H837.145L839.661 44.8677ZM840.154 46.5615L839.447 48.3704H840.87L840.154 46.5615Z" fill="#9B9B9B"/>
<path d="M849.159 48.4444C849.159 48.7897 849.107 49.1076 849.003 49.3981C848.899 49.6886 848.743 49.9408 848.534 50.1546C848.332 50.3683 848.077 50.5355 847.77 50.6561C847.463 50.7767 847.109 50.837 846.709 50.837C846.303 50.837 845.947 50.7767 845.64 50.6561C845.333 50.5355 845.076 50.3683 844.867 50.1546C844.665 49.9408 844.511 49.6886 844.407 49.3981C844.303 49.1076 844.251 48.7897 844.251 48.4444V44.8677H845.533V48.395C845.533 48.5759 845.561 48.7431 845.616 48.8966C845.676 49.0501 845.758 49.1843 845.862 49.2995C845.966 49.4091 846.09 49.4968 846.232 49.5626C846.38 49.6229 846.539 49.653 846.709 49.653C846.879 49.653 847.035 49.6229 847.178 49.5626C847.32 49.4968 847.444 49.4091 847.548 49.2995C847.652 49.1843 847.731 49.0501 847.786 48.8966C847.846 48.7431 847.877 48.5759 847.877 48.395V44.8677H849.159V48.4444Z" fill="#9B9B9B"/>
<path d="M851.883 46.0024H850.222V44.8677H854.826V46.0024H853.165V50.689H851.883V46.0024Z" fill="#9B9B9B"/>
<path d="M855.576 47.7784C855.576 47.3124 855.653 46.8904 855.806 46.5122C855.965 46.1339 856.185 45.8133 856.464 45.5502C856.744 45.2816 857.075 45.076 857.459 44.9335C857.843 44.791 858.262 44.7197 858.717 44.7197C859.172 44.7197 859.591 44.791 859.975 44.9335C860.359 45.076 860.69 45.2816 860.97 45.5502C861.249 45.8133 861.466 46.1339 861.619 46.5122C861.778 46.8904 861.858 47.3124 861.858 47.7784C861.858 48.2443 861.778 48.6664 861.619 49.0446C861.466 49.4228 861.249 49.7462 860.97 50.0148C860.69 50.2779 860.359 50.4807 859.975 50.6232C859.591 50.7657 859.172 50.837 858.717 50.837C858.262 50.837 857.843 50.7657 857.459 50.6232C857.075 50.4807 856.744 50.2779 856.464 50.0148C856.185 49.7462 855.965 49.4228 855.806 49.0446C855.653 48.6664 855.576 48.2443 855.576 47.7784ZM856.908 47.7784C856.908 48.0524 856.949 48.3046 857.031 48.5348C857.119 48.7595 857.242 48.9569 857.401 49.1268C857.56 49.2912 857.749 49.42 857.969 49.5132C858.193 49.6064 858.443 49.653 858.717 49.653C858.991 49.653 859.238 49.6064 859.457 49.5132C859.682 49.42 859.874 49.2912 860.032 49.1268C860.191 48.9569 860.312 48.7595 860.394 48.5348C860.482 48.3046 860.526 48.0524 860.526 47.7784C860.526 47.5098 860.482 47.2604 860.394 47.0301C860.312 46.7999 860.191 46.6026 860.032 46.4382C859.874 46.2682 859.682 46.1367 859.457 46.0435C859.238 45.9503 858.991 45.9037 858.717 45.9037C858.443 45.9037 858.193 45.9503 857.969 46.0435C857.749 46.1367 857.56 46.2682 857.401 46.4382C857.242 46.6026 857.119 46.7999 857.031 47.0301C856.949 47.2604 856.908 47.5098 856.908 47.7784Z" fill="#9B9B9B"/>
<path d="M874.116 44.8677H875.398V49.505H877.775V50.689H874.116V44.8677Z" fill="#9B9B9B"/>
<path d="M878.581 47.7784C878.581 47.3124 878.658 46.8904 878.811 46.5122C878.97 46.1339 879.19 45.8133 879.469 45.5502C879.749 45.2816 880.08 45.076 880.464 44.9335C880.848 44.791 881.267 44.7197 881.722 44.7197C882.177 44.7197 882.596 44.791 882.98 44.9335C883.364 45.076 883.695 45.2816 883.975 45.5502C884.255 45.8133 884.471 46.1339 884.625 46.5122C884.783 46.8904 884.863 47.3124 884.863 47.7784C884.863 48.2443 884.783 48.6664 884.625 49.0446C884.471 49.4228 884.255 49.7462 883.975 50.0148C883.695 50.2779 883.364 50.4807 882.98 50.6232C882.596 50.7657 882.177 50.837 881.722 50.837C881.267 50.837 880.848 50.7657 880.464 50.6232C880.08 50.4807 879.749 50.2779 879.469 50.0148C879.19 49.7462 878.97 49.4228 878.811 49.0446C878.658 48.6664 878.581 48.2443 878.581 47.7784ZM879.913 47.7784C879.913 48.0524 879.954 48.3046 880.037 48.5348C880.124 48.7595 880.248 48.9569 880.407 49.1268C880.566 49.2912 880.755 49.42 880.974 49.5132C881.199 49.6064 881.448 49.653 881.722 49.653C881.996 49.653 882.243 49.6064 882.462 49.5132C882.687 49.42 882.879 49.2912 883.038 49.1268C883.197 48.9569 883.317 48.7595 883.399 48.5348C883.487 48.3046 883.531 48.0524 883.531 47.7784C883.531 47.5098 883.487 47.2604 883.399 47.0301C883.317 46.7999 883.197 46.6026 883.038 46.4382C882.879 46.2682 882.687 46.1367 882.462 46.0435C882.243 45.9503 881.996 45.9037 881.722 45.9037C881.448 45.9037 881.199 45.9503 880.974 46.0435C880.755 46.1367 880.566 46.2682 880.407 46.4382C880.248 46.6026 880.124 46.7999 880.037 47.0301C879.954 47.2604 879.913 47.5098 879.913 47.7784Z" fill="#9B9B9B"/>
<path d="M891.054 48.4444C891.054 48.7897 891.002 49.1076 890.898 49.3981C890.794 49.6886 890.638 49.9408 890.43 50.1546C890.227 50.3683 889.972 50.5355 889.665 50.6561C889.358 50.7767 889.004 50.837 888.604 50.837C888.199 50.837 887.842 50.7767 887.535 50.6561C887.228 50.5355 886.971 50.3683 886.763 50.1546C886.56 49.9408 886.406 49.6886 886.302 49.3981C886.198 49.1076 886.146 48.7897 886.146 48.4444V44.8677H887.429V48.395C887.429 48.5759 887.456 48.7431 887.511 48.8966C887.571 49.0501 887.653 49.1843 887.757 49.2995C887.862 49.4091 887.985 49.4968 888.127 49.5626C888.275 49.6229 888.434 49.653 888.604 49.653C888.774 49.653 888.93 49.6229 889.073 49.5626C889.215 49.4968 889.339 49.4091 889.443 49.2995C889.547 49.1843 889.627 49.0501 889.681 48.8966C889.742 48.7431 889.772 48.5759 889.772 48.395V44.8677H891.054V48.4444Z" fill="#9B9B9B"/>
<path d="M892.651 44.8677H894.575C895.041 44.8677 895.482 44.9198 895.899 45.0239C896.321 45.1281 896.688 45.298 897.001 45.5337C897.313 45.7639 897.56 46.0654 897.741 46.4382C897.927 46.8109 898.02 47.2631 898.02 47.7948C898.02 48.2662 897.93 48.6828 897.749 49.0446C897.574 49.4009 897.335 49.7023 897.034 49.949C896.732 50.1902 896.384 50.3738 895.99 50.4999C895.595 50.626 895.181 50.689 894.748 50.689H892.651V44.8677ZM893.934 49.505H894.6C894.896 49.505 895.17 49.4749 895.422 49.4146C895.68 49.3543 895.902 49.2556 896.088 49.1186C896.275 48.9761 896.42 48.7924 896.524 48.5677C896.634 48.3375 896.688 48.0579 896.688 47.729C896.688 47.444 896.634 47.1973 896.524 46.989C896.42 46.7753 896.277 46.5999 896.096 46.4628C895.916 46.3258 895.702 46.2244 895.455 46.1586C895.214 46.0873 894.959 46.0517 894.69 46.0517H893.934V49.505Z" fill="#9B9B9B"/>
<path d="M870.63 45.3305C870.428 45.0881 870.178 44.9019 869.879 44.772C869.589 44.6422 869.251 44.5772 868.865 44.5772C868.479 44.5772 868.119 44.6508 867.785 44.798C867.46 44.9452 867.175 45.153 866.929 45.4214C866.692 45.6812 866.503 45.9929 866.363 46.3565C866.231 46.7202 866.165 47.1141 866.165 47.5384C866.165 47.9713 866.231 48.3696 866.363 48.7332C866.503 49.0882 866.692 49.3999 866.929 49.6683C867.166 49.9281 867.443 50.1316 867.759 50.2788C868.084 50.426 868.43 50.4995 868.799 50.4995C869.221 50.4995 869.594 50.413 869.919 50.2398C870.244 50.0666 870.511 49.8242 870.722 49.5125L872.434 50.7723C872.039 51.3178 871.539 51.7204 870.933 51.9801C870.327 52.2399 869.704 52.3698 869.063 52.3698C868.334 52.3698 867.662 52.2572 867.048 52.0321C866.433 51.807 865.902 51.4866 865.454 51.071C865.006 50.6467 864.655 50.1359 864.4 49.5385C864.155 48.941 864.032 48.2744 864.032 47.5384C864.032 46.8024 864.155 46.1357 864.4 45.5383C864.655 44.9409 865.006 44.4344 865.454 44.0188C865.902 43.5945 866.433 43.2698 867.048 43.0447C867.662 42.8196 868.334 42.707 869.063 42.707C869.326 42.707 869.598 42.733 869.879 42.785C870.169 42.8282 870.45 42.9018 870.722 43.0057C871.003 43.1096 871.271 43.2482 871.525 43.4213C871.78 43.5945 872.008 43.8066 872.21 44.0577L870.63 45.3305Z" fill="#9B9B9B"/>
<path d="M868.85 49.9257C868.578 49.9257 868.356 49.7089 868.356 49.4448V47.687C868.356 47.4219 868.579 47.2061 868.85 47.2061C869.123 47.2061 869.345 47.4229 869.345 47.687V49.4448C869.345 49.7098 869.122 49.9257 868.85 49.9257Z" fill="#9B9B9B"/>
<path d="M870.09 46.9482C870.225 46.2677 869.785 45.6067 869.107 45.4718C868.429 45.3368 867.771 45.779 867.636 46.4594C867.502 47.1398 867.942 47.8008 868.62 47.9358C869.298 48.0708 869.956 47.6286 870.09 46.9482Z" fill="#9B9B9B"/>
<path d="M869.345 46.7113C869.345 46.9844 869.124 47.2058 868.85 47.2058C868.577 47.2058 868.356 46.9844 868.356 46.7113C868.356 46.4381 868.577 46.2168 868.85 46.2168C869.124 46.2168 869.345 46.4381 869.345 46.7113Z" fill="#E3E3E3"/>
<path d="M856.213 59.8227C857.235 59.8227 858.102 60.5035 858.39 61.4379H860.976C861.225 61.4379 861.428 61.2339 861.428 60.9831V57.2658C861.428 56.8921 861.729 56.5892 862.1 56.5892C862.472 56.5892 862.773 56.8921 862.773 57.2658V60.9831C862.773 61.98 861.967 62.7911 860.976 62.7911H858.39C858.102 63.7255 857.235 64.4062 856.213 64.4062C854.958 64.4062 853.936 63.3782 853.936 62.1145C853.936 60.8508 854.958 59.8227 856.213 59.8227ZM856.213 63.0531C856.728 63.0531 857.146 62.6321 857.146 62.1145C857.146 61.5969 856.728 61.1759 856.213 61.1759C855.699 61.1759 855.281 61.5969 855.281 62.1145C855.281 62.6321 855.699 63.0531 856.213 63.0531Z" fill="#9B9B9B"/>
<path d="M868.835 56.5894C869.269 56.5894 869.621 56.9416 869.621 57.376V61.148C870.708 61.4843 871.499 62.4983 871.499 63.6939C871.499 65.1632 870.304 66.3584 868.835 66.3584C867.366 66.3584 866.17 65.1632 866.17 63.6939C866.17 62.4984 866.962 61.4843 868.048 61.148V57.376C868.048 56.9416 868.4 56.5894 868.835 56.5894ZM867.744 63.6939C867.744 64.2956 868.233 64.7852 868.835 64.7852C869.437 64.7852 869.926 64.2957 869.926 63.6939C869.926 63.0921 869.437 62.6026 868.835 62.6026C868.233 62.6026 867.744 63.0922 867.744 63.6939Z" fill="#9B9B9B"/>
<path d="M881.228 64.4062C880.206 64.4062 879.339 63.7255 879.052 62.7911H876.465C875.474 62.7911 874.668 61.98 874.668 60.9831V57.2658C874.668 56.8921 874.969 56.5892 875.341 56.5892C875.712 56.5892 876.013 56.8921 876.013 57.2658V60.9831C876.013 61.2339 876.216 61.4379 876.465 61.4379H879.052C879.339 60.5035 880.206 59.8227 881.228 59.8227C882.483 59.8227 883.505 60.8508 883.505 62.1145C883.505 63.3782 882.483 64.4062 881.228 64.4062ZM881.228 61.1759C880.713 61.1759 880.295 61.5969 880.295 62.1145C880.295 62.6321 880.713 63.0531 881.228 63.0531C881.742 63.0531 882.16 62.6321 882.16 62.1145C882.16 61.5969 881.742 61.1759 881.228 61.1759Z" fill="#9B9B9B"/>
<path d="M996.93 24C998.976 27.5833 1001.02 31.1666 1003.07 34.7224C998.976 34.75 994.856 34.75 990.765 34.7775C990.156 34.7775 989.576 34.75 988.968 34.75C985.456 34.7224 981.917 34.7224 978.406 34.7224C979.761 32.407 981.116 30.1192 982.443 27.8038C983.162 26.5635 983.825 25.2679 984.489 24C988.636 24 992.783 24 996.93 24Z" fill="#9B9B9B"/>
<path d="M984.489 24C983.798 25.2679 983.162 26.5359 982.443 27.8038C981.116 30.1192 979.761 32.407 978.406 34.7224C978.351 34.7775 978.268 34.8051 978.185 34.8051C974.121 34.7775 970.057 34.75 965.993 34.75C966.794 33.2615 967.596 31.7731 968.426 30.3122C969.614 28.1897 970.831 26.0949 972.047 24C976.195 24 980.342 24 984.489 24Z" fill="#ADADAD"/>
<path d="M953.524 55.6984C953.8 55.3401 954.105 55.0093 954.326 54.651C956.012 51.7568 957.699 48.8626 959.385 45.9408C959.413 45.8581 959.523 45.8305 959.579 45.7754C959.8 45.9132 960.076 45.9959 960.187 46.1889C960.795 47.1536 961.376 48.1183 961.956 49.0831C963.118 51.0952 964.251 53.1074 965.412 55.092C965.578 55.3401 965.938 55.4779 966.214 55.6709C965.993 56.1395 965.772 56.6356 965.523 57.1042C963.975 59.833 962.426 62.5619 960.878 65.2631C960.629 65.7317 960.325 66.1452 959.938 66.724C958.86 64.9048 957.837 63.1683 956.842 61.4593C955.902 59.8606 954.962 58.2343 954.022 56.6356C953.911 56.4427 953.69 56.3324 953.524 56.1946C953.524 56.0568 953.524 55.8914 953.524 55.6984Z" fill="#EFEFEF"/>
<path d="M984.489 67.0002C984.489 66.9175 984.489 66.8348 984.489 66.7521C984.572 66.7246 984.682 66.697 984.765 66.6694C988.829 66.697 992.866 66.697 996.93 66.7246C996.93 66.8073 996.93 66.89 996.93 67.0002C992.783 67.0002 988.636 67.0002 984.489 67.0002Z" fill="#EFEFEF"/>
<path d="M1009.12 45.5C1008.79 46.134 1008.49 46.7955 1008.13 47.4295C1006.33 50.4891 1004.53 53.5211 1002.74 56.5807C1002.32 56.4705 1001.91 56.3051 1001.49 56.2775C997.925 56.25 994.387 56.25 990.82 56.25C990.82 56.1397 990.82 56.0295 990.792 55.9192C990.958 55.5884 991.097 55.2577 991.262 54.9545C993.087 51.8122 994.884 48.6699 996.709 45.5C1000.88 45.5 1005 45.5 1009.12 45.5Z" fill="#909090"/>
<path d="M1009.12 45.5C1005 45.5 1000.88 45.5 996.736 45.5C996.488 44.9763 996.239 44.425 995.962 43.9288C994.248 40.8692 992.506 37.8372 990.765 34.8051C994.856 34.7776 998.976 34.7776 1003.07 34.75C1005.06 38.1679 1007.08 41.5859 1009.07 45.0038C1009.15 45.1141 1009.09 45.3346 1009.12 45.5Z" fill="#B7B7B7"/>
<path d="M990.848 56.25C994.414 56.25 997.981 56.25 1001.52 56.2776C1001.93 56.2776 1002.35 56.4705 1002.76 56.5808C1001.05 59.5852 999.335 62.5897 997.649 65.5942C997.428 65.9801 997.179 66.366 996.958 66.7794C992.894 66.7519 988.857 66.7519 984.793 66.7243C984.876 66.4762 984.931 66.2006 985.069 65.9525C986.092 64.1884 987.088 62.3968 988.138 60.6327C988.995 59.1442 989.935 57.7109 990.848 56.25Z" fill="#9B9B9B"/>
<path d="M990.848 56.25C989.936 57.7109 988.996 59.1442 988.111 60.6327C987.061 62.3968 986.065 64.1609 985.042 65.9525C984.904 66.173 984.849 66.4487 984.766 66.7243C984.683 66.7519 984.572 66.7794 984.489 66.807C982.388 63.2237 980.315 59.6128 978.213 56.0295C978.352 56.0295 978.517 56.0019 978.656 56.0019C982.637 56.0019 986.646 56.0019 990.627 56.0019C990.682 55.9743 990.738 55.9743 990.821 55.9468C990.821 56.0295 990.821 56.1397 990.848 56.25Z" fill="#949494"/>
<path d="M966.242 55.6987C965.965 55.5058 965.578 55.3955 965.44 55.1199C964.251 53.1353 963.145 51.1231 961.984 49.1109C961.431 48.1186 960.823 47.1539 960.215 46.2167C960.104 46.0237 959.8 45.9411 959.606 45.8032C959.717 45.6103 959.8 45.4449 959.911 45.252C963.975 45.252 968.011 45.252 972.075 45.252C972.186 45.2795 972.297 45.2795 972.407 45.3071H972.379C972.352 45.4725 972.324 45.6378 972.297 45.8032C971.909 46.2718 971.439 46.6853 971.135 47.209C969.449 49.993 967.845 52.8596 966.242 55.6987Z" fill="#9B9B9B"/>
<path d="M972.269 45.7754C972.297 45.6101 972.324 45.4447 972.352 45.2793C972.85 45.3069 973.347 45.362 973.845 45.362C977.301 45.3896 980.784 45.3896 984.24 45.4171C984.102 45.803 984.019 46.2165 983.826 46.5472C982.664 48.5594 981.476 50.5165 980.342 52.5562C979.734 53.6588 978.794 54.5959 978.683 55.9466C978.545 55.9466 978.379 55.9741 978.241 55.9741C976.223 52.5838 974.232 49.1658 972.269 45.7754Z" fill="#9B9B9B"/>
<path d="M972.048 45.2245C967.983 45.2245 963.947 45.2245 959.883 45.2245C960.961 43.2675 962.039 41.338 963.145 39.3809C963.726 38.3611 964.306 37.3136 964.915 36.2938C965.191 35.8252 965.551 35.4117 965.882 34.9707C966.131 35.2188 966.408 35.4393 966.601 35.7425C967.182 36.6797 967.735 37.6169 968.288 38.554C969.532 40.7867 970.776 43.0194 972.048 45.2245Z" fill="#C8C8C8"/>
<path d="M972.048 45.2243C970.804 43.0192 969.532 40.7865 968.26 38.5814C967.707 37.6442 967.154 36.6795 966.574 35.7699C966.38 35.4942 966.104 35.2737 965.855 34.9981C965.883 34.9154 965.938 34.8327 965.966 34.75C970.03 34.7776 974.094 34.7776 978.186 34.8051C977.246 36.5141 976.278 38.2231 975.338 39.9045C974.343 41.6961 973.375 43.4878 972.38 45.2519C972.269 45.2519 972.159 45.2519 972.048 45.2243Z" fill="#D5D9DA"/>
<path d="M984.24 45.4448C984.461 45.6378 984.766 45.7756 984.904 45.9961C986.839 49.3038 988.747 52.639 990.654 55.9467C986.673 55.9467 982.664 55.9467 978.683 55.9467C978.794 54.5961 979.734 53.6589 980.342 52.5563C981.475 50.5442 982.664 48.5596 983.826 46.5474C983.991 46.2166 984.102 45.8032 984.24 45.4448Z" fill="#9B9B9B"/>
<rect y="-1" width="46" height="92" fill="url(#paint0_linear_36_19669)"/>
<rect width="46" height="92" transform="matrix(-1 0 0 1 1009 -1)" fill="url(#paint1_linear_36_19669)"/>
</g>
<defs>
<linearGradient id="paint0_linear_36_19669" x1="46" y1="45" x2="-1.37091e-06" y2="45" gradientUnits="userSpaceOnUse">
<stop stop-color="#F6F6F6" stop-opacity="0"/>
<stop offset="0.76" stop-color="#F6F6F6"/>
</linearGradient>
<linearGradient id="paint1_linear_36_19669" x1="46" y1="46" x2="-1.37091e-06" y2="46" gradientUnits="userSpaceOnUse">
<stop stop-color="#F6F6F6" stop-opacity="0"/>
<stop offset="0.76" stop-color="#F6F6F6"/>
</linearGradient>
<clipPath id="clip0_36_19669">
<rect width="1009" height="91" fill="white"/>
</clipPath>
</defs>
</svg>
