<svg width="129" height="38" viewBox="0 0 129 38" fill="none" xmlns="http://www.w3.org/2000/svg">
<rect x="0.5" y="0.5" width="128" height="37" rx="18.5" stroke="#D6CDCD"/>
<circle cx="14" cy="19" r="6" fill="#14C42B" stroke="#E2FFE6" stroke-width="4"/>
<path d="M31.716 23.084C30.94 23.084 30.232 22.904 29.592 22.544C28.952 22.176 28.444 21.668 28.068 21.02C27.7 20.364 27.516 19.628 27.516 18.812C27.516 17.996 27.7 17.264 28.068 16.616C28.444 15.96 28.952 15.452 29.592 15.092C30.232 14.724 30.94 14.54 31.716 14.54C32.5 14.54 33.212 14.724 33.852 15.092C34.492 15.452 34.996 15.956 35.364 16.604C35.732 17.252 35.916 17.988 35.916 18.812C35.916 19.636 35.732 20.372 35.364 21.02C34.996 21.668 34.492 22.176 33.852 22.544C33.212 22.904 32.5 23.084 31.716 23.084ZM31.716 22.136C32.3 22.136 32.824 22 33.288 21.728C33.76 21.456 34.128 21.068 34.392 20.564C34.664 20.06 34.8 19.476 34.8 18.812C34.8 18.14 34.664 17.556 34.392 17.06C34.128 16.556 33.764 16.168 33.3 15.896C32.836 15.624 32.308 15.488 31.716 15.488C31.124 15.488 30.596 15.624 30.132 15.896C29.668 16.168 29.3 16.556 29.028 17.06C28.764 17.556 28.632 18.14 28.632 18.812C28.632 19.476 28.764 20.06 29.028 20.564C29.3 21.068 29.668 21.456 30.132 21.728C30.604 22 31.132 22.136 31.716 22.136ZM39.166 17.636C39.382 17.26 39.702 16.948 40.126 16.7C40.558 16.444 41.058 16.316 41.626 16.316C42.21 16.316 42.738 16.456 43.21 16.736C43.69 17.016 44.066 17.412 44.338 17.924C44.61 18.428 44.746 19.016 44.746 19.688C44.746 20.352 44.61 20.944 44.338 21.464C44.066 21.984 43.69 22.388 43.21 22.676C42.738 22.964 42.21 23.108 41.626 23.108C41.066 23.108 40.57 22.984 40.138 22.736C39.714 22.48 39.39 22.164 39.166 21.788V26.12H38.074V16.424H39.166V17.636ZM43.63 19.688C43.63 19.192 43.53 18.76 43.33 18.392C43.13 18.024 42.858 17.744 42.514 17.552C42.178 17.36 41.806 17.264 41.398 17.264C40.998 17.264 40.626 17.364 40.282 17.564C39.946 17.756 39.674 18.04 39.466 18.416C39.266 18.784 39.166 19.212 39.166 19.7C39.166 20.196 39.266 20.632 39.466 21.008C39.674 21.376 39.946 21.66 40.282 21.86C40.626 22.052 40.998 22.148 41.398 22.148C41.806 22.148 42.178 22.052 42.514 21.86C42.858 21.66 43.13 21.376 43.33 21.008C43.53 20.632 43.63 20.192 43.63 19.688ZM52.8997 19.46C52.8997 19.668 52.8877 19.888 52.8637 20.12H47.6077C47.6477 20.768 47.8677 21.276 48.2677 21.644C48.6757 22.004 49.1677 22.184 49.7437 22.184C50.2157 22.184 50.6077 22.076 50.9197 21.86C51.2397 21.636 51.4637 21.34 51.5917 20.972H52.7677C52.5917 21.604 52.2397 22.12 51.7117 22.52C51.1837 22.912 50.5277 23.108 49.7437 23.108C49.1197 23.108 48.5597 22.968 48.0637 22.688C47.5757 22.408 47.1917 22.012 46.9117 21.5C46.6317 20.98 46.4917 20.38 46.4917 19.7C46.4917 19.02 46.6277 18.424 46.8997 17.912C47.1717 17.4 47.5517 17.008 48.0397 16.736C48.5357 16.456 49.1037 16.316 49.7437 16.316C50.3677 16.316 50.9197 16.452 51.3997 16.724C51.8797 16.996 52.2477 17.372 52.5037 17.852C52.7677 18.324 52.8997 18.86 52.8997 19.46ZM51.7717 19.232C51.7717 18.816 51.6797 18.46 51.4957 18.164C51.3117 17.86 51.0597 17.632 50.7397 17.48C50.4277 17.32 50.0797 17.24 49.6957 17.24C49.1437 17.24 48.6717 17.416 48.2797 17.768C47.8957 18.12 47.6757 18.608 47.6197 19.232H51.7717ZM58.2615 16.304C59.0615 16.304 59.7095 16.548 60.2055 17.036C60.7015 17.516 60.9495 18.212 60.9495 19.124V23H59.8695V19.28C59.8695 18.624 59.7055 18.124 59.3775 17.78C59.0495 17.428 58.6015 17.252 58.0335 17.252C57.4575 17.252 56.9975 17.432 56.6535 17.792C56.3175 18.152 56.1495 18.676 56.1495 19.364V23H55.0575V16.424H56.1495V17.36C56.3655 17.024 56.6575 16.764 57.0255 16.58C57.4015 16.396 57.8135 16.304 58.2615 16.304ZM72.5133 14.636V15.524H70.2333V23H69.1413V15.524H66.8493V14.636H72.5133ZM77.4419 23.108C76.8259 23.108 76.2659 22.968 75.7619 22.688C75.2659 22.408 74.8739 22.012 74.5859 21.5C74.3059 20.98 74.1659 20.38 74.1659 19.7C74.1659 19.028 74.3099 18.436 74.5979 17.924C74.8939 17.404 75.2939 17.008 75.7979 16.736C76.3019 16.456 76.8659 16.316 77.4899 16.316C78.1139 16.316 78.6779 16.456 79.1819 16.736C79.6859 17.008 80.0819 17.4 80.3699 17.912C80.6659 18.424 80.8139 19.02 80.8139 19.7C80.8139 20.38 80.6619 20.98 80.3579 21.5C80.0619 22.012 79.6579 22.408 79.1459 22.688C78.6339 22.968 78.0659 23.108 77.4419 23.108ZM77.4419 22.148C77.8339 22.148 78.2019 22.056 78.5459 21.872C78.8899 21.688 79.1659 21.412 79.3739 21.044C79.5899 20.676 79.6979 20.228 79.6979 19.7C79.6979 19.172 79.5939 18.724 79.3859 18.356C79.1779 17.988 78.9059 17.716 78.5699 17.54C78.2339 17.356 77.8699 17.264 77.4779 17.264C77.0779 17.264 76.7099 17.356 76.3739 17.54C76.0459 17.716 75.7819 17.988 75.5819 18.356C75.3819 18.724 75.2819 19.172 75.2819 19.7C75.2819 20.236 75.3779 20.688 75.5699 21.056C75.7699 21.424 76.0339 21.7 76.3619 21.884C76.6899 22.06 77.0499 22.148 77.4419 22.148ZM97.3936 14.636L94.9696 23H93.7456L91.8016 16.268L89.7856 23L88.5736 23.012L86.2336 14.636H87.3976L89.2216 21.728L91.2376 14.636H92.4616L94.3816 21.704L96.2176 14.636H97.3936ZM102.173 23.108C101.557 23.108 100.997 22.968 100.493 22.688C99.9971 22.408 99.6051 22.012 99.3171 21.5C99.0371 20.98 98.8971 20.38 98.8971 19.7C98.8971 19.028 99.0411 18.436 99.3291 17.924C99.6251 17.404 100.025 17.008 100.529 16.736C101.033 16.456 101.597 16.316 102.221 16.316C102.845 16.316 103.409 16.456 103.913 16.736C104.417 17.008 104.813 17.4 105.101 17.912C105.397 18.424 105.545 19.02 105.545 19.7C105.545 20.38 105.393 20.98 105.089 21.5C104.793 22.012 104.389 22.408 103.877 22.688C103.365 22.968 102.797 23.108 102.173 23.108ZM102.173 22.148C102.565 22.148 102.933 22.056 103.277 21.872C103.621 21.688 103.897 21.412 104.105 21.044C104.321 20.676 104.429 20.228 104.429 19.7C104.429 19.172 104.325 18.724 104.117 18.356C103.909 17.988 103.637 17.716 103.301 17.54C102.965 17.356 102.601 17.264 102.209 17.264C101.809 17.264 101.441 17.356 101.105 17.54C100.777 17.716 100.513 17.988 100.313 18.356C100.113 18.724 100.013 19.172 100.013 19.7C100.013 20.236 100.109 20.688 100.301 21.056C100.501 21.424 100.765 21.7 101.093 21.884C101.421 22.06 101.781 22.148 102.173 22.148ZM108.789 17.492C108.981 17.116 109.253 16.824 109.605 16.616C109.965 16.408 110.401 16.304 110.913 16.304V17.432H110.625C109.401 17.432 108.789 18.096 108.789 19.424V23H107.697V16.424H108.789V17.492ZM116.562 23L113.982 20.096V23H112.89V14.12H113.982V19.34L116.514 16.424H118.038L114.942 19.7L118.05 23H116.562Z" fill="black"/>
</svg>
