<svg width="103" height="44" viewBox="0 0 103 44" fill="none" xmlns="http://www.w3.org/2000/svg">
<rect width="103" height="44" rx="22" fill="#CB0003"/>
<path d="M10.688 22.416C10.688 21.328 10.9333 20.352 11.424 19.488C11.9147 18.6133 12.5813 17.9307 13.424 17.44C14.2773 16.9493 15.2213 16.704 16.256 16.704C17.472 16.704 18.5333 16.9973 19.44 17.584C20.3467 18.1707 21.008 19.0027 21.424 20.08H19.68C19.3707 19.408 18.9227 18.8907 18.336 18.528C17.76 18.1653 17.0667 17.984 16.256 17.984C15.4773 17.984 14.7787 18.1653 14.16 18.528C13.5413 18.8907 13.056 19.408 12.704 20.08C12.352 20.7413 12.176 21.52 12.176 22.416C12.176 23.3013 12.352 24.08 12.704 24.752C13.056 25.4133 13.5413 25.9253 14.16 26.288C14.7787 26.6507 15.4773 26.832 16.256 26.832C17.0667 26.832 17.76 26.656 18.336 26.304C18.9227 25.9413 19.3707 25.424 19.68 24.752H21.424C21.008 25.8187 20.3467 26.6453 19.44 27.232C18.5333 27.808 17.472 28.096 16.256 28.096C15.2213 28.096 14.2773 27.856 13.424 27.376C12.5813 26.8853 11.9147 26.208 11.424 25.344C10.9333 24.48 10.688 23.504 10.688 22.416ZM25.7638 16.16V28H24.3078V16.16H25.7638ZM32.7856 28.144C31.9643 28.144 31.2176 27.9573 30.5456 27.584C29.8843 27.2107 29.3616 26.6827 28.9776 26C28.6043 25.3067 28.4176 24.5067 28.4176 23.6C28.4176 22.704 28.6096 21.9147 28.9936 21.232C29.3883 20.5387 29.9216 20.0107 30.5936 19.648C31.2656 19.2747 32.0176 19.088 32.8496 19.088C33.6816 19.088 34.4336 19.2747 35.1056 19.648C35.7776 20.0107 36.3056 20.5333 36.6896 21.216C37.0843 21.8987 37.2816 22.6933 37.2816 23.6C37.2816 24.5067 37.079 25.3067 36.6736 26C36.279 26.6827 35.7403 27.2107 35.0576 27.584C34.375 27.9573 33.6176 28.144 32.7856 28.144ZM32.7856 26.864C33.3083 26.864 33.799 26.7413 34.2576 26.496C34.7163 26.2507 35.0843 25.8827 35.3616 25.392C35.6496 24.9013 35.7936 24.304 35.7936 23.6C35.7936 22.896 35.655 22.2987 35.3776 21.808C35.1003 21.3173 34.7376 20.9547 34.2896 20.72C33.8416 20.4747 33.3563 20.352 32.8336 20.352C32.3003 20.352 31.8096 20.4747 31.3616 20.72C30.9243 20.9547 30.5723 21.3173 30.3056 21.808C30.039 22.2987 29.9056 22.896 29.9056 23.6C29.9056 24.3147 30.0336 24.9173 30.2896 25.408C30.5563 25.8987 30.9083 26.2667 31.3456 26.512C31.783 26.7467 32.263 26.864 32.7856 26.864ZM43.0164 28.144C42.3444 28.144 41.7417 28.032 41.2084 27.808C40.6751 27.5733 40.2537 27.2533 39.9444 26.848C39.6351 26.432 39.4644 25.9573 39.4324 25.424H40.9364C40.9791 25.8613 41.1817 26.2187 41.5444 26.496C41.9177 26.7733 42.4031 26.912 43.0004 26.912C43.5551 26.912 43.9924 26.7893 44.3124 26.544C44.6324 26.2987 44.7924 25.9893 44.7924 25.616C44.7924 25.232 44.6217 24.9493 44.2804 24.768C43.9391 24.576 43.4111 24.3893 42.6964 24.208C42.0457 24.0373 41.5124 23.8667 41.0964 23.696C40.6911 23.5147 40.3391 23.2533 40.0404 22.912C39.7524 22.56 39.6084 22.1013 39.6084 21.536C39.6084 21.088 39.7417 20.6773 40.0084 20.304C40.2751 19.9307 40.6537 19.6373 41.1444 19.424C41.6351 19.2 42.1951 19.088 42.8244 19.088C43.7951 19.088 44.5791 19.3333 45.1764 19.824C45.7737 20.3147 46.0937 20.9867 46.1364 21.84H44.6804C44.6484 21.3813 44.4617 21.0133 44.1204 20.736C43.7897 20.4587 43.3417 20.32 42.7764 20.32C42.2537 20.32 41.8377 20.432 41.5284 20.656C41.2191 20.88 41.0644 21.1733 41.0644 21.536C41.0644 21.824 41.1551 22.064 41.3364 22.256C41.5284 22.4373 41.7631 22.5867 42.0404 22.704C42.3284 22.8107 42.7231 22.9333 43.2244 23.072C43.8537 23.2427 44.3657 23.4133 44.7604 23.584C45.1551 23.744 45.4911 23.9893 45.7684 24.32C46.0564 24.6507 46.2057 25.0827 46.2164 25.616C46.2164 26.096 46.0831 26.528 45.8164 26.912C45.5497 27.296 45.1711 27.6 44.6804 27.824C44.2004 28.0373 43.6457 28.144 43.0164 28.144ZM56.9882 23.28C56.9882 23.5573 56.9722 23.8507 56.9402 24.16H49.9322C49.9855 25.024 50.2788 25.7013 50.8122 26.192C51.3562 26.672 52.0122 26.912 52.7802 26.912C53.4095 26.912 53.9322 26.768 54.3482 26.48C54.7748 26.1813 55.0735 25.7867 55.2442 25.296H56.8122C56.5775 26.1387 56.1082 26.8267 55.4042 27.36C54.7002 27.8827 53.8255 28.144 52.7802 28.144C51.9482 28.144 51.2015 27.9573 50.5402 27.584C49.8895 27.2107 49.3775 26.6827 49.0042 26C48.6308 25.3067 48.4442 24.5067 48.4442 23.6C48.4442 22.6933 48.6255 21.8987 48.9882 21.216C49.3508 20.5333 49.8575 20.0107 50.5082 19.648C51.1695 19.2747 51.9268 19.088 52.7802 19.088C53.6122 19.088 54.3482 19.2693 54.9882 19.632C55.6282 19.9947 56.1188 20.496 56.4602 21.136C56.8122 21.7653 56.9882 22.48 56.9882 23.28ZM55.4842 22.976C55.4842 22.4213 55.3615 21.9467 55.1162 21.552C54.8708 21.1467 54.5348 20.8427 54.1082 20.64C53.6922 20.4267 53.2282 20.32 52.7162 20.32C51.9802 20.32 51.3508 20.5547 50.8282 21.024C50.3162 21.4933 50.0228 22.144 49.9482 22.976H55.4842Z" fill="white"/>
<mask id="mask0_36_21707" style="mask-type:alpha" maskUnits="userSpaceOnUse" x="69" y="10" width="24" height="24">
<rect x="69" y="10" width="24" height="24" fill="#D9D9D9"/>
</mask>
<g mask="url(#mask0_36_21707)">
<path d="M75.3999 28.3076L74.6921 27.5999L80.2921 21.9999L74.6921 16.3999L75.3999 15.6921L80.9999 21.2921L86.5999 15.6921L87.3076 16.3999L81.7076 21.9999L87.3076 27.5999L86.5999 28.3076L80.9999 22.7076L75.3999 28.3076Z" fill="white"/>
</g>
</svg>
