<svg width="131" height="44" viewBox="0 0 131 44" fill="none" xmlns="http://www.w3.org/2000/svg">
<rect x="0.5" y="0.5" width="130" height="43" rx="19.5" fill="url(#paint0_linear_275_1140)"/>
<rect x="0.5" y="0.5" width="130" height="43" rx="19.5" stroke="black"/>
<path d="M37.6 15.1L33.48 29H30.9L27.98 18.48L24.88 29L22.32 29.02L18.38 15.1H20.8L23.68 26.42L26.8 15.1H29.36L32.26 26.36L35.16 15.1H37.6ZM45.8969 17.8C46.7369 17.8 47.4835 17.98 48.1369 18.34C48.8035 18.7 49.3235 19.2333 49.6969 19.94C50.0835 20.6467 50.2769 21.5 50.2769 22.5V29H48.0169V22.84C48.0169 21.8533 47.7702 21.1 47.2769 20.58C46.7835 20.0467 46.1102 19.78 45.2569 19.78C44.4035 19.78 43.7235 20.0467 43.2169 20.58C42.7235 21.1 42.4769 21.8533 42.4769 22.84V29H40.1969V14.2H42.4769V19.26C42.8635 18.7933 43.3502 18.4333 43.9369 18.18C44.5369 17.9267 45.1902 17.8 45.8969 17.8ZM63.8215 17.98L57.0615 34.18H54.7015L56.9415 28.82L52.6015 17.98H55.1415L58.2415 26.38L61.4615 17.98H63.8215ZM86.8102 15.1V29H84.5302V19.48L80.2902 29H78.7102L74.4502 19.48V29H72.1702V15.1H74.6302L79.5102 26L84.3702 15.1H86.8102ZM100.623 23.22C100.623 23.6333 100.597 24.0067 100.543 24.34H92.1233C92.19 25.22 92.5167 25.9267 93.1033 26.46C93.69 26.9933 94.41 27.26 95.2633 27.26C96.49 27.26 97.3567 26.7467 97.8633 25.72H100.323C99.99 26.7333 99.3833 27.5667 98.5033 28.22C97.6367 28.86 96.5567 29.18 95.2633 29.18C94.21 29.18 93.2633 28.9467 92.4233 28.48C91.5967 28 90.9433 27.3333 90.4633 26.48C89.9967 25.6133 89.7633 24.6133 89.7633 23.48C89.7633 22.3467 89.99 21.3533 90.4433 20.5C90.91 19.6333 91.5567 18.9667 92.3833 18.5C93.2233 18.0333 94.1833 17.8 95.2633 17.8C96.3033 17.8 97.23 18.0267 98.0433 18.48C98.8567 18.9333 99.49 19.5733 99.9433 20.4C100.397 21.2133 100.623 22.1533 100.623 23.22ZM98.2433 22.5C98.23 21.66 97.93 20.9867 97.3433 20.48C96.7567 19.9733 96.03 19.72 95.1633 19.72C94.3767 19.72 93.7033 19.9733 93.1433 20.48C92.5833 20.9733 92.25 21.6467 92.1433 22.5H98.2433ZM107.323 14.9C108.683 14.9 109.77 15.2733 110.583 16.02C111.41 16.7667 111.823 17.7867 111.823 19.08C111.823 20.4267 111.397 21.44 110.543 22.12C109.69 22.8 108.557 23.14 107.143 23.14L107.063 24.72H105.083L104.983 21.58H105.643C106.937 21.58 107.923 21.4067 108.603 21.06C109.297 20.7133 109.643 20.0533 109.643 19.08C109.643 18.3733 109.437 17.82 109.023 17.42C108.623 17.02 108.063 16.82 107.343 16.82C106.623 16.82 106.057 17.0133 105.643 17.4C105.23 17.7867 105.023 18.3267 105.023 19.02H102.883C102.883 18.22 103.063 17.5067 103.423 16.88C103.783 16.2533 104.297 15.7667 104.963 15.42C105.643 15.0733 106.43 14.9 107.323 14.9ZM106.043 29.14C105.63 29.14 105.283 29 105.003 28.72C104.723 28.44 104.583 28.0933 104.583 27.68C104.583 27.2667 104.723 26.92 105.003 26.64C105.283 26.36 105.63 26.22 106.043 26.22C106.443 26.22 106.783 26.36 107.063 26.64C107.343 26.92 107.483 27.2667 107.483 27.68C107.483 28.0933 107.343 28.44 107.063 28.72C106.783 29 106.443 29.14 106.043 29.14Z" fill="white"/>
<defs>
<linearGradient id="paint0_linear_275_1140" x1="65.5" y1="0" x2="65.5" y2="44" gradientUnits="userSpaceOnUse">
<stop stop-color="#090202"/>
<stop offset="1" stop-color="#2D1F1F"/>
</linearGradient>
</defs>
</svg>
