<svg width="702" height="303" viewBox="0 0 702 303" fill="none" xmlns="http://www.w3.org/2000/svg">
<rect x="166" y="262" width="116" height="41" rx="20" fill="white"/>
<path d="M178.058 277.214V283.374C178.058 284.345 178.287 285.063 178.744 285.53C179.211 285.997 179.845 286.23 180.648 286.23C181.451 286.23 182.076 286.001 182.524 285.544C182.981 285.077 183.21 284.354 183.21 283.374V277.214H184.19V283.36C184.19 284.601 183.859 285.535 183.196 286.16C182.543 286.785 181.689 287.098 180.634 287.098C179.579 287.098 178.721 286.785 178.058 286.16C177.405 285.535 177.078 284.601 177.078 283.36V277.214H178.058ZM188.072 277.214V287H187.092V277.214H188.072ZM195.362 273.84L191.498 289.324H190.532L194.368 273.84H195.362ZM198.842 277.214V283.374C198.842 284.345 199.071 285.063 199.528 285.53C199.995 285.997 200.629 286.23 201.432 286.23C202.235 286.23 202.86 286.001 203.308 285.544C203.765 285.077 203.994 284.354 203.994 283.374V277.214H204.974V283.36C204.974 284.601 204.643 285.535 203.98 286.16C203.327 286.785 202.473 287.098 201.418 287.098C200.363 287.098 199.505 286.785 198.842 286.16C198.189 285.535 197.862 284.601 197.862 283.36V277.214H198.842ZM211.404 282.114L214.372 287H213.28L210.788 282.912L208.422 287H207.33L210.284 282.072L207.33 277.214H208.422L210.9 281.288L213.294 277.214H214.386L211.404 282.114ZM224.238 277.214C225.321 277.214 226.25 277.41 227.024 277.802C227.799 278.194 228.392 278.759 228.802 279.496C229.213 280.233 229.418 281.111 229.418 282.128C229.418 283.136 229.213 284.009 228.802 284.746C228.392 285.474 227.799 286.034 227.024 286.426C226.25 286.809 225.321 287 224.238 287H221.34V277.214H224.238ZM224.238 286.188C225.601 286.188 226.637 285.833 227.346 285.124C228.065 284.405 228.424 283.407 228.424 282.128C228.424 280.84 228.065 279.837 227.346 279.118C226.637 278.39 225.601 278.026 224.238 278.026H222.32V286.188H224.238ZM238.857 282.786C238.857 283.122 238.848 283.379 238.829 283.556H232.487C232.515 284.135 232.655 284.629 232.907 285.04C233.159 285.451 233.491 285.763 233.901 285.978C234.312 286.183 234.76 286.286 235.245 286.286C235.88 286.286 236.412 286.132 236.841 285.824C237.28 285.516 237.569 285.101 237.709 284.578H238.745C238.559 285.325 238.157 285.936 237.541 286.412C236.935 286.879 236.169 287.112 235.245 287.112C234.527 287.112 233.883 286.953 233.313 286.636C232.744 286.309 232.296 285.852 231.969 285.264C231.652 284.667 231.493 283.971 231.493 283.178C231.493 282.385 231.652 281.689 231.969 281.092C232.287 280.495 232.73 280.037 233.299 279.72C233.869 279.403 234.517 279.244 235.245 279.244C235.973 279.244 236.608 279.403 237.149 279.72C237.7 280.037 238.12 280.467 238.409 281.008C238.708 281.54 238.857 282.133 238.857 282.786ZM237.863 282.758C237.873 282.189 237.756 281.703 237.513 281.302C237.28 280.901 236.958 280.597 236.547 280.392C236.137 280.187 235.689 280.084 235.203 280.084C234.475 280.084 233.855 280.317 233.341 280.784C232.828 281.251 232.543 281.909 232.487 282.758H237.863ZM243.999 287.112C243.121 287.112 242.403 286.911 241.843 286.51C241.292 286.099 240.984 285.544 240.919 284.844H241.927C241.973 285.273 242.174 285.623 242.529 285.894C242.893 286.155 243.378 286.286 243.985 286.286C244.517 286.286 244.932 286.16 245.231 285.908C245.539 285.656 245.693 285.343 245.693 284.97C245.693 284.709 245.609 284.494 245.441 284.326C245.273 284.158 245.058 284.027 244.797 283.934C244.545 283.831 244.199 283.724 243.761 283.612C243.191 283.463 242.729 283.313 242.375 283.164C242.02 283.015 241.717 282.795 241.465 282.506C241.222 282.207 241.101 281.811 241.101 281.316C241.101 280.943 241.213 280.597 241.437 280.28C241.661 279.963 241.978 279.711 242.389 279.524C242.799 279.337 243.266 279.244 243.789 279.244C244.61 279.244 245.273 279.454 245.777 279.874C246.281 280.285 246.551 280.854 246.589 281.582H245.609C245.581 281.134 245.403 280.775 245.077 280.504C244.759 280.224 244.321 280.084 243.761 280.084C243.266 280.084 242.865 280.201 242.557 280.434C242.249 280.667 242.095 280.957 242.095 281.302C242.095 281.601 242.183 281.848 242.361 282.044C242.547 282.231 242.776 282.38 243.047 282.492C243.317 282.595 243.681 282.711 244.139 282.842C244.689 282.991 245.128 283.136 245.455 283.276C245.781 283.416 246.061 283.621 246.295 283.892C246.528 284.163 246.649 284.522 246.659 284.97C246.659 285.381 246.547 285.749 246.323 286.076C246.099 286.393 245.786 286.645 245.385 286.832C244.983 287.019 244.521 287.112 243.999 287.112ZM249.71 277.914C249.514 277.914 249.346 277.844 249.206 277.704C249.066 277.564 248.996 277.391 248.996 277.186C248.996 276.981 249.066 276.813 249.206 276.682C249.346 276.542 249.514 276.472 249.71 276.472C249.906 276.472 250.074 276.542 250.214 276.682C250.354 276.813 250.424 276.981 250.424 277.186C250.424 277.391 250.354 277.564 250.214 277.704C250.074 277.844 249.906 277.914 249.71 277.914ZM250.2 279.356V287H249.22V279.356H250.2ZM256.341 279.244C257.06 279.244 257.685 279.412 258.217 279.748C258.749 280.084 259.132 280.509 259.365 281.022V279.356H260.345V287.196C260.345 287.896 260.191 288.517 259.883 289.058C259.585 289.599 259.165 290.015 258.623 290.304C258.082 290.603 257.466 290.752 256.775 290.752C255.795 290.752 254.979 290.519 254.325 290.052C253.681 289.585 253.28 288.951 253.121 288.148H254.087C254.255 288.68 254.573 289.105 255.039 289.422C255.515 289.739 256.094 289.898 256.775 289.898C257.27 289.898 257.713 289.791 258.105 289.576C258.497 289.371 258.805 289.063 259.029 288.652C259.253 288.241 259.365 287.756 259.365 287.196V285.306C259.123 285.829 258.735 286.263 258.203 286.608C257.681 286.944 257.06 287.112 256.341 287.112C255.641 287.112 255.011 286.949 254.451 286.622C253.901 286.295 253.467 285.833 253.149 285.236C252.841 284.639 252.687 283.948 252.687 283.164C252.687 282.38 252.841 281.694 253.149 281.106C253.467 280.509 253.901 280.051 254.451 279.734C255.011 279.407 255.641 279.244 256.341 279.244ZM259.365 283.178C259.365 282.562 259.239 282.021 258.987 281.554C258.735 281.087 258.39 280.728 257.951 280.476C257.522 280.224 257.046 280.098 256.523 280.098C255.982 280.098 255.497 280.219 255.067 280.462C254.638 280.705 254.297 281.059 254.045 281.526C253.803 281.983 253.681 282.529 253.681 283.164C253.681 283.789 253.803 284.34 254.045 284.816C254.297 285.283 254.638 285.642 255.067 285.894C255.497 286.137 255.982 286.258 256.523 286.258C257.046 286.258 257.522 286.132 257.951 285.88C258.39 285.628 258.735 285.269 258.987 284.802C259.239 284.335 259.365 283.794 259.365 283.178ZM266.883 279.216C267.798 279.216 268.544 279.501 269.123 280.07C269.702 280.63 269.991 281.447 269.991 282.52V287H269.025V282.632C269.025 281.801 268.815 281.167 268.395 280.728C267.984 280.289 267.42 280.07 266.701 280.07C265.964 280.07 265.376 280.303 264.937 280.77C264.498 281.237 264.279 281.923 264.279 282.828V287H263.299V279.356H264.279V280.658C264.522 280.191 264.872 279.837 265.329 279.594C265.786 279.342 266.304 279.216 266.883 279.216Z" fill="#5F5F5F"/>
<rect x="406.402" y="256.917" width="135" height="41" rx="20" transform="rotate(-10.7282 406.402 256.917)" fill="white"/>
<path d="M426.833 271.395C426.989 272.22 426.844 272.937 426.399 273.543C425.953 274.15 425.19 274.556 424.108 274.761L422.168 275.129L422.945 279.228L421.982 279.41L420.16 269.795L423.062 269.245C424.135 269.042 424.99 269.141 425.627 269.543C426.273 269.943 426.674 270.561 426.833 271.395ZM423.951 273.936C425.455 273.651 426.085 272.867 425.842 271.583C425.721 270.941 425.45 270.489 425.029 270.226C424.609 269.964 424.005 269.907 423.216 270.057L421.277 270.424L422.012 274.303L423.951 273.936ZM430.243 271.447C430.365 270.94 430.617 270.517 431 270.178C431.391 269.838 431.903 269.608 432.536 269.488L432.726 270.492L432.465 270.542C431.768 270.674 431.244 270.968 430.894 271.424C430.543 271.88 430.451 272.548 430.618 273.428L431.413 277.623L430.45 277.806L429.027 270.295L429.99 270.113L430.243 271.447ZM439.446 276.215C438.74 276.349 438.073 276.314 437.445 276.11C436.825 275.895 436.295 275.53 435.855 275.015C435.423 274.489 435.133 273.836 434.986 273.056C434.838 272.277 434.875 271.567 435.095 270.927C435.314 270.277 435.678 269.743 436.188 269.323C436.696 268.895 437.302 268.614 438.009 268.48C438.715 268.346 439.382 268.386 440.012 268.599C440.649 268.801 441.183 269.165 441.615 269.692C442.055 270.207 442.348 270.854 442.496 271.634C442.642 272.404 442.606 273.114 442.387 273.763C442.168 274.413 441.8 274.952 441.283 275.383C440.764 275.804 440.152 276.082 439.446 276.215ZM439.287 275.376C439.782 275.283 440.22 275.086 440.6 274.786C440.978 274.476 441.253 274.073 441.425 273.575C441.604 273.066 441.631 272.481 441.506 271.821C441.381 271.161 441.147 270.63 440.805 270.23C440.462 269.82 440.058 269.545 439.594 269.405C439.129 269.255 438.649 269.228 438.154 269.321C437.659 269.415 437.222 269.617 436.843 269.926C436.463 270.226 436.188 270.629 436.018 271.137C435.856 271.633 435.837 272.211 435.962 272.871C436.087 273.532 436.317 274.068 436.652 274.479C436.994 274.88 437.393 275.156 437.849 275.307C438.312 275.447 438.792 275.47 439.287 275.376ZM444.512 271.237C444.366 270.467 444.395 269.763 444.597 269.127C444.798 268.481 445.139 267.951 445.621 267.536C446.11 267.111 446.699 266.833 447.387 266.703C448.047 266.578 448.673 266.625 449.266 266.846C449.859 267.066 450.327 267.409 450.672 267.876L449.859 263.584L450.822 263.402L452.751 273.581L451.788 273.763L451.47 272.085C451.34 272.651 451.045 273.153 450.587 273.592C450.127 274.021 449.544 274.302 448.837 274.436C448.15 274.566 447.5 274.523 446.889 274.306C446.287 274.088 445.775 273.715 445.352 273.187C444.938 272.657 444.658 272.008 444.512 271.237ZM451.076 270.008C450.962 269.403 450.737 268.894 450.403 268.483C450.068 268.071 449.662 267.782 449.184 267.616C448.715 267.449 448.224 267.413 447.711 267.511C447.179 267.612 446.724 267.821 446.348 268.139C445.971 268.458 445.702 268.87 445.542 269.375C445.388 269.87 445.371 270.429 445.489 271.052C445.605 271.667 445.827 272.185 446.154 272.608C446.489 273.019 446.89 273.309 447.359 273.476C447.826 273.635 448.325 273.664 448.857 273.563C449.371 273.466 449.815 273.253 450.19 272.926C450.574 272.597 450.846 272.179 451.007 271.674C451.168 271.168 451.191 270.613 451.076 270.008ZM460.736 264.288L462.159 271.798L461.196 271.981L460.946 270.66C460.814 271.169 460.543 271.591 460.131 271.926C459.72 272.26 459.23 272.481 458.661 272.589C457.762 272.759 456.977 272.623 456.304 272.181C455.629 271.729 455.192 270.976 454.992 269.921L454.161 265.533L455.11 265.354L455.921 269.632C456.075 270.448 456.395 271.033 456.88 271.388C457.375 271.74 457.975 271.85 458.681 271.716C459.405 271.579 459.94 271.24 460.284 270.7C460.628 270.16 460.716 269.445 460.547 268.555L459.773 264.47L460.736 264.288ZM463.909 267.576C463.762 266.797 463.789 266.089 463.991 265.452C464.192 264.806 464.538 264.275 465.029 263.859C465.518 263.434 466.116 263.154 466.822 263.021C467.748 262.845 468.553 262.93 469.236 263.276C469.928 263.62 470.436 264.169 470.76 264.925L469.728 265.12C469.497 264.604 469.137 264.235 468.649 264.014C468.168 263.782 467.611 263.726 466.979 263.846C466.474 263.942 466.042 264.142 465.682 264.448C465.322 264.754 465.066 265.158 464.915 265.662C464.77 266.155 464.761 266.731 464.886 267.391C465.011 268.052 465.232 268.589 465.548 269.004C465.873 269.418 466.259 269.701 466.706 269.854C467.153 270.006 467.629 270.035 468.133 269.94C468.766 269.82 469.264 269.568 469.629 269.186C470.001 268.792 470.199 268.308 470.223 267.734L471.255 267.538C471.226 268.342 470.954 269.035 470.437 269.617C469.921 270.199 469.204 270.577 468.287 270.751C467.581 270.885 466.923 270.848 466.314 270.64C465.703 270.424 465.187 270.056 464.765 269.537C464.342 269.01 464.057 268.356 463.909 267.576ZM474.183 262.581L475.067 267.244C475.154 267.702 475.301 268.002 475.508 268.143C475.715 268.285 476.039 268.313 476.479 268.23L477.359 268.063L477.516 268.889L476.484 269.084C475.806 269.213 475.272 269.152 474.882 268.903C474.492 268.645 474.227 268.153 474.09 267.429L473.207 262.766L472.161 262.964L472.008 262.152L473.053 261.954L472.696 260.07L473.673 259.885L474.03 261.769L476.093 261.378L476.247 262.19L474.183 262.581ZM485.312 257.451C486.376 257.25 487.324 257.27 488.159 257.511C488.993 257.751 489.68 258.196 490.221 258.844C490.762 259.492 491.127 260.316 491.316 261.315C491.504 262.306 491.464 263.201 491.198 264.002C490.93 264.794 490.452 265.454 489.764 265.984C489.074 266.504 488.197 266.865 487.133 267.066L484.286 267.606L482.464 257.991L485.312 257.451ZM486.982 266.269C488.321 266.015 489.273 265.474 489.838 264.645C490.41 263.805 490.577 262.757 490.339 261.5C490.1 260.235 489.56 259.316 488.72 258.744C487.887 258.16 486.802 257.996 485.463 258.249L483.578 258.606L485.098 266.626L486.982 266.269ZM500.713 260.205C500.775 260.535 500.814 260.789 500.828 260.966L494.597 262.147C494.733 262.71 494.962 263.17 495.286 263.527C495.61 263.883 495.994 264.129 496.437 264.263C496.879 264.389 497.338 264.406 497.815 264.316C498.439 264.198 498.933 263.947 499.297 263.565C499.671 263.181 499.878 262.719 499.918 262.179L500.936 261.986C500.892 262.755 500.611 263.43 500.095 264.012C499.585 264.584 498.877 264.955 497.969 265.127C497.263 265.261 496.601 265.225 495.982 265.019C495.362 264.804 494.837 264.438 494.406 263.922C493.983 263.394 493.698 262.74 493.55 261.961C493.403 261.181 493.429 260.468 493.63 259.822C493.83 259.177 494.181 258.645 494.681 258.227C495.181 257.809 495.789 257.532 496.504 257.397C497.22 257.261 497.873 257.299 498.464 257.51C499.064 257.719 499.556 258.063 499.942 258.541C500.334 259.008 500.591 259.563 500.713 260.205ZM499.731 260.362C499.634 259.801 499.429 259.346 499.116 258.997C498.812 258.646 498.439 258.408 497.997 258.283C497.556 258.157 497.096 258.14 496.62 258.23C495.904 258.366 495.338 258.71 494.92 259.264C494.503 259.819 494.346 260.518 494.449 261.363L499.731 260.362ZM506.569 263.498C505.707 263.661 504.964 263.598 504.339 263.308C503.722 263.007 503.316 262.519 503.121 261.843L504.111 261.655C504.237 262.068 504.5 262.375 504.898 262.575C505.305 262.764 505.806 262.802 506.402 262.689C506.925 262.59 507.309 262.389 507.556 262.086C507.812 261.781 507.905 261.445 507.835 261.078C507.786 260.821 507.664 260.626 507.468 260.492C507.271 260.358 507.036 260.27 506.762 260.227C506.495 260.173 506.136 260.132 505.684 260.103C505.097 260.063 504.615 260.002 504.239 259.921C503.863 259.841 503.524 259.682 503.222 259.444C502.928 259.196 502.735 258.829 502.643 258.343C502.574 257.976 502.619 257.616 502.78 257.262C502.941 256.909 503.206 256.602 503.575 256.342C503.944 256.082 504.385 255.904 504.898 255.807C505.705 255.654 506.396 255.737 506.969 256.056C507.541 256.365 507.913 256.874 508.085 257.583L507.122 257.765C507.011 257.33 506.77 257.01 506.399 256.805C506.035 256.589 505.578 256.533 505.027 256.637C504.541 256.729 504.169 256.919 503.91 257.205C503.65 257.492 503.553 257.805 503.617 258.144C503.673 258.437 503.806 258.664 504.017 258.823C504.235 258.972 504.487 259.076 504.774 259.136C505.059 259.186 505.438 259.233 505.912 259.277C506.481 259.321 506.939 259.381 507.286 259.458C507.633 259.535 507.946 259.684 508.226 259.907C508.506 260.129 508.692 260.46 508.784 260.898C508.861 261.302 508.819 261.685 508.66 262.047C508.499 262.401 508.239 262.707 507.879 262.965C507.52 263.223 507.083 263.401 506.569 263.498ZM510.469 253.398C510.276 253.434 510.098 253.397 509.934 253.285C509.771 253.174 509.67 253.017 509.631 252.815C509.593 252.614 509.631 252.435 509.744 252.281C509.855 252.117 510.008 252.017 510.2 251.981C510.393 251.944 510.571 251.982 510.734 252.093C510.896 252.196 510.996 252.348 511.035 252.549C511.073 252.751 511.036 252.934 510.925 253.097C510.813 253.261 510.661 253.361 510.469 253.398ZM511.218 254.723L512.641 262.234L511.678 262.416L510.256 254.906L511.218 254.723ZM517.232 253.47C517.938 253.336 518.584 253.385 519.169 253.616C519.754 253.847 520.209 254.193 520.534 254.654L520.224 253.017L521.187 252.835L522.646 260.538C522.776 261.225 522.741 261.864 522.539 262.453C522.346 263.04 522.011 263.527 521.533 263.912C521.056 264.306 520.479 264.567 519.8 264.696C518.838 264.878 517.992 264.801 517.263 264.464C516.543 264.126 516.031 263.577 515.726 262.818L516.675 262.638C516.939 263.129 517.33 263.487 517.847 263.712C518.374 263.936 518.972 263.984 519.641 263.857C520.127 263.765 520.543 263.577 520.888 263.293C521.235 263.018 521.48 262.658 521.624 262.213C521.768 261.768 521.787 261.27 521.683 260.72L521.331 258.863C521.19 259.422 520.89 259.92 520.432 260.359C519.981 260.786 519.403 261.067 518.696 261.2C518.009 261.331 517.359 261.287 516.748 261.071C516.146 260.852 515.634 260.479 515.211 259.951C514.797 259.422 514.517 258.772 514.371 258.002C514.225 257.231 514.249 256.529 514.442 255.894C514.643 255.248 514.984 254.717 515.466 254.303C515.955 253.878 516.544 253.6 517.232 253.47ZM520.935 256.772C520.821 256.167 520.596 255.659 520.262 255.247C519.927 254.835 519.521 254.547 519.043 254.381C518.574 254.213 518.083 254.178 517.57 254.275C517.038 254.376 516.583 254.585 516.207 254.904C515.83 255.222 515.561 255.634 515.401 256.139C515.247 256.634 515.23 257.193 515.348 257.817C515.464 258.431 515.686 258.949 516.013 259.372C516.348 259.784 516.749 260.073 517.218 260.241C517.685 260.399 518.184 260.428 518.716 260.327C519.23 260.23 519.674 260.018 520.049 259.69C520.433 259.361 520.705 258.944 520.866 258.438C521.027 257.933 521.05 257.377 520.935 256.772ZM527.584 251.48C528.483 251.31 529.269 251.45 529.944 251.902C530.617 252.345 531.053 253.093 531.253 254.148L532.087 258.549L531.138 258.729L530.324 254.438C530.17 253.621 529.845 253.037 529.351 252.684C528.866 252.33 528.27 252.219 527.564 252.353C526.84 252.49 526.305 252.829 525.961 253.369C525.617 253.909 525.529 254.624 525.698 255.514L526.474 259.613L525.512 259.795L524.089 252.285L525.052 252.102L525.294 253.382C525.445 252.878 525.723 252.464 526.128 252.141C526.53 251.808 527.015 251.588 527.584 251.48Z" fill="#5F5F5F"/>
<rect x="302" y="262" width="93" height="41" rx="20" fill="white"/>
<path d="M320.386 277.214V287H319.406V282.422H314.1V287H313.12V277.214H314.1V281.61H319.406V277.214H320.386ZM329.064 277.214V278.026H326.348V287H325.368V278.026H322.638V277.214H329.064ZM340.89 277.34V287H339.91V279.286L336.466 287H335.752L332.308 279.314V287H331.328V277.34H332.364L336.102 285.712L339.84 277.34H340.89ZM344.81 286.202H348.324V287H343.83V277.214H344.81V286.202ZM354.793 273.84L350.929 289.324H349.963L353.799 273.84H354.793ZM356.887 282.1C356.887 281.139 357.097 280.28 357.517 279.524C357.937 278.759 358.511 278.166 359.239 277.746C359.967 277.317 360.779 277.102 361.675 277.102C362.767 277.102 363.7 277.363 364.475 277.886C365.259 278.399 365.828 279.127 366.183 280.07H365.035C364.755 279.407 364.325 278.889 363.747 278.516C363.177 278.143 362.487 277.956 361.675 277.956C360.956 277.956 360.307 278.124 359.729 278.46C359.159 278.796 358.711 279.281 358.385 279.916C358.058 280.541 357.895 281.269 357.895 282.1C357.895 282.931 358.058 283.659 358.385 284.284C358.711 284.909 359.159 285.39 359.729 285.726C360.307 286.062 360.956 286.23 361.675 286.23C362.487 286.23 363.177 286.048 363.747 285.684C364.325 285.311 364.755 284.797 365.035 284.144H366.183C365.828 285.077 365.259 285.801 364.475 286.314C363.691 286.827 362.757 287.084 361.675 287.084C360.779 287.084 359.967 286.874 359.239 286.454C358.511 286.025 357.937 285.432 357.517 284.676C357.097 283.92 356.887 283.061 356.887 282.1ZM371.82 287.098C371.176 287.098 370.607 286.986 370.112 286.762C369.627 286.538 369.244 286.225 368.964 285.824C368.684 285.423 368.535 284.975 368.516 284.48H369.552C369.599 284.956 369.809 285.376 370.182 285.74C370.555 286.095 371.101 286.272 371.82 286.272C372.483 286.272 373.005 286.104 373.388 285.768C373.78 285.423 373.976 284.989 373.976 284.466C373.976 284.046 373.869 283.71 373.654 283.458C373.439 283.197 373.173 283.005 372.856 282.884C372.539 282.753 372.1 282.613 371.54 282.464C370.887 282.287 370.369 282.114 369.986 281.946C369.603 281.778 369.277 281.517 369.006 281.162C368.735 280.807 368.6 280.327 368.6 279.72C368.6 279.216 368.731 278.768 368.992 278.376C369.253 277.975 369.622 277.662 370.098 277.438C370.574 277.214 371.12 277.102 371.736 277.102C372.641 277.102 373.369 277.326 373.92 277.774C374.48 278.213 374.802 278.782 374.886 279.482H373.822C373.757 279.081 373.537 278.726 373.164 278.418C372.791 278.101 372.287 277.942 371.652 277.942C371.064 277.942 370.574 278.101 370.182 278.418C369.79 278.726 369.594 279.151 369.594 279.692C369.594 280.103 369.701 280.434 369.916 280.686C370.131 280.938 370.397 281.129 370.714 281.26C371.041 281.391 371.479 281.531 372.03 281.68C372.665 281.857 373.178 282.035 373.57 282.212C373.962 282.38 374.293 282.641 374.564 282.996C374.835 283.351 374.97 283.827 374.97 284.424C374.97 284.881 374.849 285.315 374.606 285.726C374.363 286.137 374.004 286.468 373.528 286.72C373.052 286.972 372.483 287.098 371.82 287.098ZM380.548 287.098C379.904 287.098 379.335 286.986 378.84 286.762C378.355 286.538 377.972 286.225 377.692 285.824C377.412 285.423 377.263 284.975 377.244 284.48H378.28C378.327 284.956 378.537 285.376 378.91 285.74C379.283 286.095 379.829 286.272 380.548 286.272C381.211 286.272 381.733 286.104 382.116 285.768C382.508 285.423 382.704 284.989 382.704 284.466C382.704 284.046 382.597 283.71 382.382 283.458C382.167 283.197 381.901 283.005 381.584 282.884C381.267 282.753 380.828 282.613 380.268 282.464C379.615 282.287 379.097 282.114 378.714 281.946C378.331 281.778 378.005 281.517 377.734 281.162C377.463 280.807 377.328 280.327 377.328 279.72C377.328 279.216 377.459 278.768 377.72 278.376C377.981 277.975 378.35 277.662 378.826 277.438C379.302 277.214 379.848 277.102 380.464 277.102C381.369 277.102 382.097 277.326 382.648 277.774C383.208 278.213 383.53 278.782 383.614 279.482H382.55C382.485 279.081 382.265 278.726 381.892 278.418C381.519 278.101 381.015 277.942 380.38 277.942C379.792 277.942 379.302 278.101 378.91 278.418C378.518 278.726 378.322 279.151 378.322 279.692C378.322 280.103 378.429 280.434 378.644 280.686C378.859 280.938 379.125 281.129 379.442 281.26C379.769 281.391 380.207 281.531 380.758 281.68C381.393 281.857 381.906 282.035 382.298 282.212C382.69 282.38 383.021 282.641 383.292 282.996C383.563 283.351 383.698 283.827 383.698 284.424C383.698 284.881 383.577 285.315 383.334 285.726C383.091 286.137 382.732 286.468 382.256 286.72C381.78 286.972 381.211 287.098 380.548 287.098Z" fill="#5F5F5F"/>
<rect y="262" width="128" height="41" rx="20" fill="white"/>
<path d="M12.058 277.214V283.374C12.058 284.345 12.2867 285.063 12.744 285.53C13.2107 285.997 13.8453 286.23 14.648 286.23C15.4507 286.23 16.076 286.001 16.524 285.544C16.9813 285.077 17.21 284.354 17.21 283.374V277.214H18.19V283.36C18.19 284.601 17.8587 285.535 17.196 286.16C16.5427 286.785 15.6887 287.098 14.634 287.098C13.5793 287.098 12.7207 286.785 12.058 286.16C11.4047 285.535 11.078 284.601 11.078 283.36V277.214H12.058ZM23.7242 287.112C22.8469 287.112 22.1282 286.911 21.5682 286.51C21.0176 286.099 20.7096 285.544 20.6442 284.844H21.6522C21.6989 285.273 21.8996 285.623 22.2542 285.894C22.6182 286.155 23.1036 286.286 23.7102 286.286C24.2422 286.286 24.6576 286.16 24.9562 285.908C25.2642 285.656 25.4182 285.343 25.4182 284.97C25.4182 284.709 25.3342 284.494 25.1662 284.326C24.9982 284.158 24.7836 284.027 24.5222 283.934C24.2702 283.831 23.9249 283.724 23.4862 283.612C22.9169 283.463 22.4549 283.313 22.1002 283.164C21.7456 283.015 21.4422 282.795 21.1902 282.506C20.9476 282.207 20.8262 281.811 20.8262 281.316C20.8262 280.943 20.9382 280.597 21.1622 280.28C21.3862 279.963 21.7036 279.711 22.1142 279.524C22.5249 279.337 22.9916 279.244 23.5142 279.244C24.3356 279.244 24.9982 279.454 25.5022 279.874C26.0062 280.285 26.2769 280.854 26.3142 281.582H25.3342C25.3062 281.134 25.1289 280.775 24.8022 280.504C24.4849 280.224 24.0462 280.084 23.4862 280.084C22.9916 280.084 22.5902 280.201 22.2822 280.434C21.9742 280.667 21.8202 280.957 21.8202 281.302C21.8202 281.601 21.9089 281.848 22.0862 282.044C22.2729 282.231 22.5016 282.38 22.7722 282.492C23.0429 282.595 23.4069 282.711 23.8642 282.842C24.4149 282.991 24.8536 283.136 25.1802 283.276C25.5069 283.416 25.7869 283.621 26.0202 283.892C26.2536 284.163 26.3749 284.522 26.3842 284.97C26.3842 285.381 26.2722 285.749 26.0482 286.076C25.8242 286.393 25.5116 286.645 25.1102 286.832C24.7089 287.019 24.2469 287.112 23.7242 287.112ZM35.8613 282.786C35.8613 283.122 35.852 283.379 35.8333 283.556H29.4913C29.5193 284.135 29.6593 284.629 29.9113 285.04C30.1633 285.451 30.4947 285.763 30.9053 285.978C31.316 286.183 31.764 286.286 32.2493 286.286C32.884 286.286 33.416 286.132 33.8453 285.824C34.284 285.516 34.5733 285.101 34.7133 284.578H35.7493C35.5627 285.325 35.1613 285.936 34.5453 286.412C33.9387 286.879 33.1733 287.112 32.2493 287.112C31.5307 287.112 30.8867 286.953 30.3173 286.636C29.748 286.309 29.3 285.852 28.9733 285.264C28.656 284.667 28.4973 283.971 28.4973 283.178C28.4973 282.385 28.656 281.689 28.9733 281.092C29.2907 280.495 29.734 280.037 30.3033 279.72C30.8727 279.403 31.5213 279.244 32.2493 279.244C32.9773 279.244 33.612 279.403 34.1533 279.72C34.704 280.037 35.124 280.467 35.4133 281.008C35.712 281.54 35.8613 282.133 35.8613 282.786ZM34.8673 282.758C34.8767 282.189 34.76 281.703 34.5173 281.302C34.284 280.901 33.962 280.597 33.5513 280.392C33.1407 280.187 32.6927 280.084 32.2073 280.084C31.4793 280.084 30.8587 280.317 30.3453 280.784C29.832 281.251 29.5473 281.909 29.4913 282.758H34.8673ZM39.3507 280.714C39.5654 280.238 39.8921 279.869 40.3307 279.608C40.7787 279.347 41.3247 279.216 41.9687 279.216V280.238H41.7027C40.9934 280.238 40.4241 280.429 39.9947 280.812C39.5654 281.195 39.3507 281.834 39.3507 282.73V287H38.3707V279.356H39.3507V280.714ZM53.9255 287L51.5035 282.912H49.6975V287H48.7175V277.214H51.6575C52.7495 277.214 53.5755 277.475 54.1355 277.998C54.7049 278.521 54.9895 279.207 54.9895 280.056C54.9895 280.765 54.7842 281.372 54.3735 281.876C53.9722 282.371 53.3749 282.693 52.5815 282.842L55.1015 287H53.9255ZM49.6975 282.114H51.6715C52.4369 282.114 53.0109 281.927 53.3935 281.554C53.7855 281.181 53.9815 280.681 53.9815 280.056C53.9815 279.412 53.7949 278.917 53.4215 278.572C53.0482 278.217 52.4602 278.04 51.6575 278.04H49.6975V282.114ZM64.5667 282.786C64.5667 283.122 64.5574 283.379 64.5387 283.556H58.1967C58.2247 284.135 58.3647 284.629 58.6167 285.04C58.8687 285.451 59.2001 285.763 59.6107 285.978C60.0214 286.183 60.4694 286.286 60.9547 286.286C61.5894 286.286 62.1214 286.132 62.5507 285.824C62.9894 285.516 63.2787 285.101 63.4187 284.578H64.4547C64.2681 285.325 63.8667 285.936 63.2507 286.412C62.6441 286.879 61.8787 287.112 60.9547 287.112C60.2361 287.112 59.5921 286.953 59.0227 286.636C58.4534 286.309 58.0054 285.852 57.6787 285.264C57.3614 284.667 57.2027 283.971 57.2027 283.178C57.2027 282.385 57.3614 281.689 57.6787 281.092C57.9961 280.495 58.4394 280.037 59.0087 279.72C59.5781 279.403 60.2267 279.244 60.9547 279.244C61.6827 279.244 62.3174 279.403 62.8587 279.72C63.4094 280.037 63.8294 280.467 64.1187 281.008C64.4174 281.54 64.5667 282.133 64.5667 282.786ZM63.5727 282.758C63.5821 282.189 63.4654 281.703 63.2227 281.302C62.9894 280.901 62.6674 280.597 62.2567 280.392C61.8461 280.187 61.3981 280.084 60.9127 280.084C60.1847 280.084 59.5641 280.317 59.0507 280.784C58.5374 281.251 58.2527 281.909 58.1967 282.758H63.5727ZM69.7081 287.112C68.8308 287.112 68.1121 286.911 67.5521 286.51C67.0014 286.099 66.6934 285.544 66.6281 284.844H67.6361C67.6828 285.273 67.8834 285.623 68.2381 285.894C68.6021 286.155 69.0874 286.286 69.6941 286.286C70.2261 286.286 70.6414 286.16 70.9401 285.908C71.2481 285.656 71.4021 285.343 71.4021 284.97C71.4021 284.709 71.3181 284.494 71.1501 284.326C70.9821 284.158 70.7674 284.027 70.5061 283.934C70.2541 283.831 69.9088 283.724 69.4701 283.612C68.9008 283.463 68.4388 283.313 68.0841 283.164C67.7294 283.015 67.4261 282.795 67.1741 282.506C66.9314 282.207 66.8101 281.811 66.8101 281.316C66.8101 280.943 66.9221 280.597 67.1461 280.28C67.3701 279.963 67.6874 279.711 68.0981 279.524C68.5088 279.337 68.9754 279.244 69.4981 279.244C70.3194 279.244 70.9821 279.454 71.4861 279.874C71.9901 280.285 72.2608 280.854 72.2981 281.582H71.3181C71.2901 281.134 71.1128 280.775 70.7861 280.504C70.4688 280.224 70.0301 280.084 69.4701 280.084C68.9754 280.084 68.5741 280.201 68.2661 280.434C67.9581 280.667 67.8041 280.957 67.8041 281.302C67.8041 281.601 67.8928 281.848 68.0701 282.044C68.2568 282.231 68.4854 282.38 68.7561 282.492C69.0268 282.595 69.3908 282.711 69.8481 282.842C70.3988 282.991 70.8374 283.136 71.1641 283.276C71.4908 283.416 71.7708 283.621 72.0041 283.892C72.2374 284.163 72.3588 284.522 72.3681 284.97C72.3681 285.381 72.2561 285.749 72.0321 286.076C71.8081 286.393 71.4954 286.645 71.0941 286.832C70.6928 287.019 70.2308 287.112 69.7081 287.112ZM81.8452 282.786C81.8452 283.122 81.8359 283.379 81.8172 283.556H75.4752C75.5032 284.135 75.6432 284.629 75.8952 285.04C76.1472 285.451 76.4785 285.763 76.8892 285.978C77.2999 286.183 77.7479 286.286 78.2332 286.286C78.8679 286.286 79.3999 286.132 79.8292 285.824C80.2679 285.516 80.5572 285.101 80.6972 284.578H81.7332C81.5465 285.325 81.1452 285.936 80.5292 286.412C79.9225 286.879 79.1572 287.112 78.2332 287.112C77.5145 287.112 76.8705 286.953 76.3012 286.636C75.7319 286.309 75.2839 285.852 74.9572 285.264C74.6399 284.667 74.4812 283.971 74.4812 283.178C74.4812 282.385 74.6399 281.689 74.9572 281.092C75.2745 280.495 75.7179 280.037 76.2872 279.72C76.8565 279.403 77.5052 279.244 78.2332 279.244C78.9612 279.244 79.5959 279.403 80.1372 279.72C80.6879 280.037 81.1079 280.467 81.3972 281.008C81.6959 281.54 81.8452 282.133 81.8452 282.786ZM80.8512 282.758C80.8605 282.189 80.7439 281.703 80.5012 281.302C80.2679 280.901 79.9459 280.597 79.5352 280.392C79.1245 280.187 78.6765 280.084 78.1912 280.084C77.4632 280.084 76.8425 280.317 76.3292 280.784C75.8159 281.251 75.5312 281.909 75.4752 282.758H80.8512ZM83.9066 283.164C83.9066 282.38 84.0606 281.694 84.3686 281.106C84.6859 280.509 85.1199 280.051 85.6706 279.734C86.2306 279.407 86.8606 279.244 87.5606 279.244C88.2886 279.244 88.9139 279.412 89.4366 279.748C89.9686 280.084 90.3512 280.513 90.5846 281.036V279.356H91.5646V287H90.5846V285.306C90.3419 285.829 89.9546 286.263 89.4226 286.608C88.8999 286.944 88.2746 287.112 87.5466 287.112C86.8559 287.112 86.2306 286.949 85.6706 286.622C85.1199 286.295 84.6859 285.833 84.3686 285.236C84.0606 284.639 83.9066 283.948 83.9066 283.164ZM90.5846 283.178C90.5846 282.562 90.4586 282.021 90.2066 281.554C89.9546 281.087 89.6092 280.728 89.1706 280.476C88.7412 280.224 88.2652 280.098 87.7426 280.098C87.2012 280.098 86.7159 280.219 86.2866 280.462C85.8572 280.705 85.5166 281.059 85.2646 281.526C85.0219 281.983 84.9006 282.529 84.9006 283.164C84.9006 283.789 85.0219 284.34 85.2646 284.816C85.5166 285.283 85.8572 285.642 86.2866 285.894C86.7159 286.137 87.2012 286.258 87.7426 286.258C88.2652 286.258 88.7412 286.132 89.1706 285.88C89.6092 285.628 89.9546 285.269 90.2066 284.802C90.4586 284.335 90.5846 283.794 90.5846 283.178ZM95.4982 280.714C95.7129 280.238 96.0396 279.869 96.4782 279.608C96.9262 279.347 97.4722 279.216 98.1162 279.216V280.238H97.8502C97.1409 280.238 96.5716 280.429 96.1422 280.812C95.7129 281.195 95.4982 281.834 95.4982 282.73V287H94.5182V279.356H95.4982V280.714ZM99.8589 283.178C99.8589 282.385 100.018 281.694 100.335 281.106C100.652 280.509 101.091 280.051 101.651 279.734C102.211 279.407 102.85 279.244 103.569 279.244C104.512 279.244 105.286 279.477 105.893 279.944C106.509 280.411 106.906 281.045 107.083 281.848H106.033C105.902 281.297 105.618 280.868 105.179 280.56C104.75 280.243 104.213 280.084 103.569 280.084C103.056 280.084 102.594 280.201 102.183 280.434C101.772 280.667 101.446 281.017 101.203 281.484C100.97 281.941 100.853 282.506 100.853 283.178C100.853 283.85 100.97 284.419 101.203 284.886C101.446 285.353 101.772 285.703 102.183 285.936C102.594 286.169 103.056 286.286 103.569 286.286C104.213 286.286 104.75 286.132 105.179 285.824C105.618 285.507 105.902 285.068 106.033 284.508H107.083C106.906 285.292 106.509 285.922 105.893 286.398C105.277 286.874 104.502 287.112 103.569 287.112C102.85 287.112 102.211 286.953 101.651 286.636C101.091 286.309 100.652 285.852 100.335 285.264C100.018 284.667 99.8589 283.971 99.8589 283.178ZM113.249 279.216C113.828 279.216 114.346 279.337 114.803 279.58C115.27 279.823 115.634 280.196 115.895 280.7C116.166 281.195 116.301 281.801 116.301 282.52V287H115.335V282.632C115.335 281.801 115.125 281.167 114.705 280.728C114.295 280.289 113.73 280.07 113.011 280.07C112.274 280.07 111.686 280.303 111.247 280.77C110.809 281.237 110.589 281.923 110.589 282.828V287H109.609V276.64H110.589V280.658C110.832 280.201 111.187 279.846 111.653 279.594C112.129 279.342 112.661 279.216 113.249 279.216Z" fill="#5F5F5F"/>
<rect x="547" y="262" width="136" height="41" rx="20" fill="white"/>
<path d="M565.82 280.07C565.54 279.426 565.111 278.922 564.532 278.558C563.963 278.185 563.291 277.998 562.516 277.998C561.788 277.998 561.135 278.166 560.556 278.502C559.977 278.838 559.52 279.319 559.184 279.944C558.848 280.56 558.68 281.279 558.68 282.1C558.68 282.921 558.848 283.645 559.184 284.27C559.52 284.895 559.977 285.376 560.556 285.712C561.135 286.048 561.788 286.216 562.516 286.216C563.197 286.216 563.809 286.071 564.35 285.782C564.901 285.483 565.339 285.063 565.666 284.522C566.002 283.971 566.193 283.332 566.24 282.604H562.124V281.806H567.276V282.52C567.229 283.379 566.996 284.158 566.576 284.858C566.156 285.549 565.591 286.095 564.882 286.496C564.182 286.897 563.393 287.098 562.516 287.098C561.611 287.098 560.789 286.888 560.052 286.468C559.315 286.039 558.731 285.446 558.302 284.69C557.882 283.925 557.672 283.061 557.672 282.1C557.672 281.139 557.882 280.28 558.302 279.524C558.731 278.759 559.315 278.166 560.052 277.746C560.789 277.317 561.611 277.102 562.516 277.102C563.561 277.102 564.476 277.363 565.26 277.886C566.044 278.409 566.613 279.137 566.968 280.07H565.82ZM570.768 280.714C570.982 280.238 571.309 279.869 571.748 279.608C572.196 279.347 572.742 279.216 573.386 279.216V280.238H573.12C572.41 280.238 571.841 280.429 571.412 280.812C570.982 281.195 570.768 281.834 570.768 282.73V287H569.788V279.356H570.768V280.714ZM575.128 283.164C575.128 282.38 575.282 281.694 575.59 281.106C575.908 280.509 576.342 280.051 576.892 279.734C577.452 279.407 578.082 279.244 578.782 279.244C579.51 279.244 580.136 279.412 580.658 279.748C581.19 280.084 581.573 280.513 581.806 281.036V279.356H582.786V287H581.806V285.306C581.564 285.829 581.176 286.263 580.644 286.608C580.122 286.944 579.496 287.112 578.768 287.112C578.078 287.112 577.452 286.949 576.892 286.622C576.342 286.295 575.908 285.833 575.59 285.236C575.282 284.639 575.128 283.948 575.128 283.164ZM581.806 283.178C581.806 282.562 581.68 282.021 581.428 281.554C581.176 281.087 580.831 280.728 580.392 280.476C579.963 280.224 579.487 280.098 578.964 280.098C578.423 280.098 577.938 280.219 577.508 280.462C577.079 280.705 576.738 281.059 576.486 281.526C576.244 281.983 576.122 282.529 576.122 283.164C576.122 283.789 576.244 284.34 576.486 284.816C576.738 285.283 577.079 285.642 577.508 285.894C577.938 286.137 578.423 286.258 578.964 286.258C579.487 286.258 579.963 286.132 580.392 285.88C580.831 285.628 581.176 285.269 581.428 284.802C581.68 284.335 581.806 283.794 581.806 283.178ZM586.706 281.036C586.949 280.523 587.331 280.098 587.854 279.762C588.386 279.417 589.016 279.244 589.744 279.244C590.435 279.244 591.055 279.407 591.606 279.734C592.166 280.051 592.6 280.509 592.908 281.106C593.225 281.694 593.384 282.38 593.384 283.164C593.384 283.948 593.225 284.639 592.908 285.236C592.6 285.833 592.166 286.295 591.606 286.622C591.055 286.949 590.435 287.112 589.744 287.112C589.025 287.112 588.4 286.944 587.868 286.608C587.336 286.263 586.949 285.833 586.706 285.32V290.612H585.74V279.356H586.706V281.036ZM592.39 283.164C592.39 282.529 592.264 281.983 592.012 281.526C591.769 281.059 591.433 280.705 591.004 280.462C590.575 280.219 590.089 280.098 589.548 280.098C589.025 280.098 588.545 280.224 588.106 280.476C587.677 280.728 587.336 281.087 587.084 281.554C586.832 282.021 586.706 282.562 586.706 283.178C586.706 283.794 586.832 284.335 587.084 284.802C587.336 285.269 587.677 285.628 588.106 285.88C588.545 286.132 589.025 286.258 589.548 286.258C590.089 286.258 590.575 286.137 591.004 285.894C591.433 285.642 591.769 285.283 592.012 284.816C592.264 284.34 592.39 283.789 592.39 283.164ZM599.544 279.216C600.122 279.216 600.64 279.337 601.098 279.58C601.564 279.823 601.928 280.196 602.19 280.7C602.46 281.195 602.596 281.801 602.596 282.52V287H601.63V282.632C601.63 281.801 601.42 281.167 601 280.728C600.589 280.289 600.024 280.07 599.306 280.07C598.568 280.07 597.98 280.303 597.542 280.77C597.103 281.237 596.884 281.923 596.884 282.828V287H595.904V276.64H596.884V280.658C597.126 280.201 597.481 279.846 597.948 279.594C598.424 279.342 598.956 279.216 599.544 279.216ZM605.969 277.914C605.773 277.914 605.605 277.844 605.465 277.704C605.325 277.564 605.255 277.391 605.255 277.186C605.255 276.981 605.325 276.813 605.465 276.682C605.605 276.542 605.773 276.472 605.969 276.472C606.165 276.472 606.333 276.542 606.473 276.682C606.613 276.813 606.683 276.981 606.683 277.186C606.683 277.391 606.613 277.564 606.473 277.704C606.333 277.844 606.165 277.914 605.969 277.914ZM606.459 279.356V287H605.479V279.356H606.459ZM608.947 283.178C608.947 282.385 609.106 281.694 609.423 281.106C609.74 280.509 610.179 280.051 610.739 279.734C611.299 279.407 611.938 279.244 612.657 279.244C613.6 279.244 614.374 279.477 614.981 279.944C615.597 280.411 615.994 281.045 616.171 281.848H615.121C614.99 281.297 614.706 280.868 614.267 280.56C613.838 280.243 613.301 280.084 612.657 280.084C612.144 280.084 611.682 280.201 611.271 280.434C610.86 280.667 610.534 281.017 610.291 281.484C610.058 281.941 609.941 282.506 609.941 283.178C609.941 283.85 610.058 284.419 610.291 284.886C610.534 285.353 610.86 285.703 611.271 285.936C611.682 286.169 612.144 286.286 612.657 286.286C613.301 286.286 613.838 286.132 614.267 285.824C614.706 285.507 614.99 285.068 615.121 284.508H616.171C615.994 285.292 615.597 285.922 614.981 286.398C614.365 286.874 613.59 287.112 612.657 287.112C611.938 287.112 611.299 286.953 610.739 286.636C610.179 286.309 609.74 285.852 609.423 285.264C609.106 284.667 608.947 283.971 608.947 283.178ZM626.153 277.214C627.236 277.214 628.165 277.41 628.939 277.802C629.714 278.194 630.307 278.759 630.717 279.496C631.128 280.233 631.333 281.111 631.333 282.128C631.333 283.136 631.128 284.009 630.717 284.746C630.307 285.474 629.714 286.034 628.939 286.426C628.165 286.809 627.236 287 626.153 287H623.255V277.214H626.153ZM626.153 286.188C627.516 286.188 628.552 285.833 629.261 285.124C629.98 284.405 630.339 283.407 630.339 282.128C630.339 280.84 629.98 279.837 629.261 279.118C628.552 278.39 627.516 278.026 626.153 278.026H624.235V286.188H626.153ZM640.773 282.786C640.773 283.122 640.763 283.379 640.745 283.556H634.403C634.431 284.135 634.571 284.629 634.823 285.04C635.075 285.451 635.406 285.763 635.817 285.978C636.227 286.183 636.675 286.286 637.161 286.286C637.795 286.286 638.327 286.132 638.757 285.824C639.195 285.516 639.485 285.101 639.625 284.578H640.661C640.474 285.325 640.073 285.936 639.457 286.412C638.85 286.879 638.085 287.112 637.161 287.112C636.442 287.112 635.798 286.953 635.229 286.636C634.659 286.309 634.211 285.852 633.885 285.264C633.567 284.667 633.409 283.971 633.409 283.178C633.409 282.385 633.567 281.689 633.885 281.092C634.202 280.495 634.645 280.037 635.215 279.72C635.784 279.403 636.433 279.244 637.161 279.244C637.889 279.244 638.523 279.403 639.065 279.72C639.615 280.037 640.035 280.467 640.325 281.008C640.623 281.54 640.773 282.133 640.773 282.786ZM639.779 282.758C639.788 282.189 639.671 281.703 639.429 281.302C639.195 280.901 638.873 280.597 638.463 280.392C638.052 280.187 637.604 280.084 637.119 280.084C636.391 280.084 635.77 280.317 635.257 280.784C634.743 281.251 634.459 281.909 634.403 282.758H639.779ZM645.914 287.112C645.037 287.112 644.318 286.911 643.758 286.51C643.207 286.099 642.899 285.544 642.834 284.844H643.842C643.889 285.273 644.089 285.623 644.444 285.894C644.808 286.155 645.293 286.286 645.9 286.286C646.432 286.286 646.847 286.16 647.146 285.908C647.454 285.656 647.608 285.343 647.608 284.97C647.608 284.709 647.524 284.494 647.356 284.326C647.188 284.158 646.973 284.027 646.712 283.934C646.46 283.831 646.115 283.724 645.676 283.612C645.107 283.463 644.645 283.313 644.29 283.164C643.935 283.015 643.632 282.795 643.38 282.506C643.137 282.207 643.016 281.811 643.016 281.316C643.016 280.943 643.128 280.597 643.352 280.28C643.576 279.963 643.893 279.711 644.304 279.524C644.715 279.337 645.181 279.244 645.704 279.244C646.525 279.244 647.188 279.454 647.692 279.874C648.196 280.285 648.467 280.854 648.504 281.582H647.524C647.496 281.134 647.319 280.775 646.992 280.504C646.675 280.224 646.236 280.084 645.676 280.084C645.181 280.084 644.78 280.201 644.472 280.434C644.164 280.667 644.01 280.957 644.01 281.302C644.01 281.601 644.099 281.848 644.276 282.044C644.463 282.231 644.691 282.38 644.962 282.492C645.233 282.595 645.597 282.711 646.054 282.842C646.605 282.991 647.043 283.136 647.37 283.276C647.697 283.416 647.977 283.621 648.21 283.892C648.443 284.163 648.565 284.522 648.574 284.97C648.574 285.381 648.462 285.749 648.238 286.076C648.014 286.393 647.701 286.645 647.3 286.832C646.899 287.019 646.437 287.112 645.914 287.112ZM651.625 277.914C651.429 277.914 651.261 277.844 651.121 277.704C650.981 277.564 650.911 277.391 650.911 277.186C650.911 276.981 650.981 276.813 651.121 276.682C651.261 276.542 651.429 276.472 651.625 276.472C651.821 276.472 651.989 276.542 652.129 276.682C652.269 276.813 652.339 276.981 652.339 277.186C652.339 277.391 652.269 277.564 652.129 277.704C651.989 277.844 651.821 277.914 651.625 277.914ZM652.115 279.356V287H651.135V279.356H652.115ZM658.257 279.244C658.975 279.244 659.601 279.412 660.133 279.748C660.665 280.084 661.047 280.509 661.281 281.022V279.356H662.261V287.196C662.261 287.896 662.107 288.517 661.799 289.058C661.5 289.599 661.08 290.015 660.539 290.304C659.997 290.603 659.381 290.752 658.691 290.752C657.711 290.752 656.894 290.519 656.241 290.052C655.597 289.585 655.195 288.951 655.037 288.148H656.003C656.171 288.68 656.488 289.105 656.955 289.422C657.431 289.739 658.009 289.898 658.691 289.898C659.185 289.898 659.629 289.791 660.021 289.576C660.413 289.371 660.721 289.063 660.945 288.652C661.169 288.241 661.281 287.756 661.281 287.196V285.306C661.038 285.829 660.651 286.263 660.119 286.608C659.596 286.944 658.975 287.112 658.257 287.112C657.557 287.112 656.927 286.949 656.367 286.622C655.816 286.295 655.382 285.833 655.065 285.236C654.757 284.639 654.603 283.948 654.603 283.164C654.603 282.38 654.757 281.694 655.065 281.106C655.382 280.509 655.816 280.051 656.367 279.734C656.927 279.407 657.557 279.244 658.257 279.244ZM661.281 283.178C661.281 282.562 661.155 282.021 660.903 281.554C660.651 281.087 660.305 280.728 659.867 280.476C659.437 280.224 658.961 280.098 658.439 280.098C657.897 280.098 657.412 280.219 656.983 280.462C656.553 280.705 656.213 281.059 655.961 281.526C655.718 281.983 655.597 282.529 655.597 283.164C655.597 283.789 655.718 284.34 655.961 284.816C656.213 285.283 656.553 285.642 656.983 285.894C657.412 286.137 657.897 286.258 658.439 286.258C658.961 286.258 659.437 286.132 659.867 285.88C660.305 285.628 660.651 285.269 660.903 284.802C661.155 284.335 661.281 283.794 661.281 283.178ZM668.798 279.216C669.713 279.216 670.46 279.501 671.038 280.07C671.617 280.63 671.906 281.447 671.906 282.52V287H670.94V282.632C670.94 281.801 670.73 281.167 670.31 280.728C669.9 280.289 669.335 280.07 668.616 280.07C667.879 280.07 667.291 280.303 666.852 280.77C666.414 281.237 666.194 281.923 666.194 282.828V287H665.214V279.356H666.194V280.658C666.437 280.191 666.787 279.837 667.244 279.594C667.702 279.342 668.22 279.216 668.798 279.216Z" fill="#5F5F5F"/>
</svg>
