<svg width="702" height="303" viewBox="0 0 702 303" fill="none" xmlns="http://www.w3.org/2000/svg">
<rect x="169.994" y="242.016" width="116" height="41" rx="20" transform="rotate(-0.0158183 169.994 242.016)" fill="white"/>
<path d="M182.056 257.226L182.058 263.386C182.058 264.357 182.287 265.075 182.745 265.542C183.211 266.008 183.846 266.242 184.649 266.241C185.451 266.241 186.077 266.012 186.525 265.555C186.982 265.088 187.21 264.365 187.21 263.385L187.208 257.225L188.188 257.224L188.19 263.37C188.19 264.612 187.859 265.545 187.197 266.171C186.544 266.796 185.69 267.109 184.635 267.109C183.58 267.11 182.722 266.797 182.059 266.172C181.405 265.547 181.078 264.614 181.078 263.372L181.076 257.226L182.056 257.226ZM192.071 257.223L192.073 267.009L191.093 267.01L191.091 257.224L192.071 257.223ZM199.359 253.847L195.499 269.332L194.533 269.333L198.365 253.848L199.359 253.847ZM202.84 257.22L202.842 263.38C202.842 264.351 203.071 265.07 203.528 265.536C203.995 266.003 204.63 266.236 205.433 266.236C206.235 266.235 206.861 266.007 207.308 265.549C207.766 265.082 207.994 264.359 207.994 263.379L207.992 257.219L208.972 257.219L208.974 263.365C208.974 264.606 208.643 265.539 207.981 266.165C207.327 266.79 206.474 267.103 205.419 267.104C204.364 267.104 203.505 266.792 202.843 266.166C202.189 265.541 201.862 264.608 201.862 263.367L201.86 257.221L202.84 257.22ZM215.404 262.117L218.373 267.002L217.281 267.002L214.788 262.915L212.423 267.004L211.331 267.004L214.284 262.075L211.328 257.218L212.42 257.218L214.9 261.291L217.292 257.216L218.384 257.216L215.404 262.117ZM228.236 257.213C229.319 257.213 230.248 257.409 231.023 257.801C231.797 258.192 232.39 258.757 232.801 259.494C233.212 260.231 233.418 261.109 233.418 262.126C233.418 263.134 233.213 264.007 232.803 264.744C232.392 265.472 231.8 266.032 231.025 266.425C230.25 266.807 229.322 266.999 228.239 266.999L225.341 267L225.338 257.214L228.236 257.213ZM228.239 266.187C229.602 266.187 230.637 265.832 231.347 265.123C232.065 264.404 232.424 263.405 232.424 262.126C232.423 260.838 232.064 259.835 231.345 259.117C230.635 258.389 229.599 258.025 228.237 258.025L226.319 258.026L226.321 266.188L228.239 266.187ZM242.857 262.781C242.857 263.117 242.848 263.374 242.829 263.551L236.487 263.553C236.516 264.132 236.656 264.626 236.908 265.037C237.16 265.448 237.491 265.76 237.902 265.975C238.313 266.18 238.761 266.282 239.246 266.282C239.881 266.282 240.413 266.128 240.842 265.82C241.281 265.512 241.57 265.096 241.71 264.574L242.746 264.573C242.559 265.32 242.158 265.932 241.542 266.408C240.936 266.875 240.17 267.108 239.246 267.108C238.528 267.109 237.884 266.95 237.314 266.633C236.745 266.306 236.297 265.849 235.97 265.261C235.652 264.664 235.493 263.969 235.493 263.175C235.493 262.382 235.651 261.687 235.969 261.089C236.286 260.492 236.729 260.034 237.298 259.717C237.868 259.399 238.516 259.241 239.244 259.24C239.972 259.24 240.607 259.399 241.148 259.716C241.699 260.033 242.119 260.462 242.409 261.003C242.707 261.535 242.857 262.128 242.857 262.781ZM241.863 262.754C241.872 262.184 241.756 261.699 241.513 261.298C241.279 260.896 240.957 260.593 240.546 260.388C240.136 260.183 239.688 260.08 239.202 260.08C238.474 260.081 237.854 260.314 237.341 260.781C236.827 261.248 236.543 261.906 236.487 262.755L241.863 262.754ZM248 267.106C247.122 267.106 246.404 266.906 245.844 266.505C245.293 266.094 244.985 265.539 244.919 264.839L245.927 264.838C245.974 265.268 246.175 265.618 246.529 265.888C246.893 266.15 247.379 266.28 247.985 266.28C248.517 266.28 248.933 266.154 249.231 265.902C249.539 265.649 249.693 265.337 249.693 264.963C249.693 264.702 249.609 264.487 249.441 264.32C249.273 264.152 249.058 264.021 248.797 263.928C248.545 263.825 248.199 263.718 247.761 263.606C247.191 263.457 246.729 263.308 246.375 263.158C246.02 263.009 245.717 262.79 245.464 262.501C245.222 262.202 245.1 261.805 245.1 261.311C245.1 260.937 245.212 260.592 245.436 260.275C245.66 259.957 245.977 259.705 246.388 259.518C246.798 259.332 247.265 259.238 247.788 259.238C248.609 259.238 249.272 259.448 249.776 259.867C250.28 260.278 250.551 260.847 250.588 261.575L249.608 261.575C249.58 261.127 249.403 260.768 249.076 260.498C248.758 260.218 248.32 260.078 247.76 260.078C247.265 260.078 246.864 260.195 246.556 260.428C246.248 260.662 246.094 260.951 246.094 261.296C246.094 261.595 246.183 261.842 246.36 262.038C246.547 262.225 246.776 262.374 247.046 262.486C247.317 262.589 247.681 262.705 248.139 262.836C248.689 262.985 249.128 263.13 249.455 263.27C249.781 263.409 250.061 263.615 250.295 263.885C250.528 264.156 250.65 264.515 250.659 264.963C250.659 265.374 250.547 265.743 250.323 266.069C250.1 266.387 249.787 266.639 249.386 266.826C248.984 267.012 248.522 267.106 248 267.106ZM253.708 257.906C253.512 257.906 253.344 257.836 253.204 257.696C253.064 257.557 252.994 257.384 252.994 257.179C252.994 256.973 253.064 256.805 253.204 256.674C253.344 256.534 253.512 256.464 253.708 256.464C253.904 256.464 254.072 256.534 254.212 256.674C254.352 256.805 254.422 256.973 254.422 257.178C254.422 257.383 254.352 257.556 254.212 257.696C254.072 257.836 253.904 257.906 253.708 257.906ZM254.199 259.348L254.201 266.992L253.221 266.992L253.219 259.348L254.199 259.348ZM260.34 259.235C261.059 259.234 261.684 259.402 262.216 259.738C262.748 260.074 263.131 260.498 263.365 261.012L263.364 259.346L264.344 259.345L264.346 267.185C264.347 267.885 264.193 268.506 263.885 269.048C263.586 269.589 263.167 270.004 262.625 270.294C262.084 270.593 261.468 270.742 260.777 270.742C259.797 270.743 258.981 270.51 258.327 270.043C257.683 269.577 257.282 268.942 257.123 268.139L258.089 268.139C258.257 268.671 258.574 269.096 259.041 269.413C259.517 269.73 260.096 269.889 260.777 269.888C261.272 269.888 261.715 269.781 262.107 269.566C262.499 269.361 262.807 269.052 263.031 268.642C263.255 268.231 263.367 267.746 263.366 267.186L263.366 265.296C263.123 265.818 262.736 266.253 262.204 266.598C261.682 266.934 261.061 267.102 260.342 267.103C259.642 267.103 259.012 266.94 258.452 266.613C257.902 266.287 257.467 265.825 257.15 265.227C256.842 264.63 256.688 263.94 256.687 263.156C256.687 262.372 256.841 261.685 257.149 261.097C257.466 260.5 257.9 260.043 258.45 259.725C259.01 259.398 259.64 259.235 260.34 259.235ZM263.365 263.168C263.365 262.552 263.239 262.01 262.987 261.544C262.735 261.077 262.389 260.718 261.951 260.466C261.521 260.214 261.045 260.088 260.522 260.088C259.981 260.089 259.496 260.21 259.067 260.453C258.637 260.696 258.297 261.05 258.045 261.517C257.802 261.975 257.681 262.521 257.681 263.155C257.681 263.781 257.803 264.331 258.046 264.807C258.298 265.274 258.639 265.633 259.068 265.885C259.497 266.127 259.983 266.249 260.524 266.248C261.047 266.248 261.523 266.122 261.952 265.87C262.391 265.618 262.736 265.259 262.988 264.792C263.24 264.325 263.365 263.784 263.365 263.168ZM270.882 259.204C271.797 259.203 272.543 259.488 273.122 260.057C273.701 260.617 273.99 261.433 273.991 262.507L273.992 266.987L273.026 266.987L273.025 262.619C273.025 261.788 272.814 261.154 272.394 260.715C271.984 260.277 271.419 260.057 270.7 260.058C269.963 260.058 269.375 260.291 268.936 260.758C268.498 261.225 268.279 261.911 268.279 262.816L268.28 266.988L267.3 266.989L267.298 259.345L268.278 259.344L268.278 260.646C268.521 260.18 268.871 259.825 269.328 259.582C269.785 259.33 270.303 259.204 270.882 259.204Z" fill="#5F5F5F"/>
<rect x="489.006" y="185.038" width="135" height="41" rx="20" transform="rotate(10.2954 489.006 185.038)" fill="white"/>
<path d="M502.882 205.882C502.732 206.708 502.34 207.325 501.707 207.732C501.073 208.138 500.214 208.243 499.131 208.046L497.189 207.694L496.443 211.798L495.479 211.623L497.228 201.995L500.134 202.523C501.209 202.718 501.971 203.117 502.421 203.721C502.88 204.326 503.034 205.046 502.882 205.882ZM499.281 207.22C500.787 207.493 501.657 206.987 501.89 205.702C502.007 205.059 501.916 204.54 501.618 204.144C501.32 203.748 500.776 203.479 499.987 203.335L498.044 202.983L497.339 206.867L499.281 207.22ZM506.046 207.154C506.343 206.724 506.73 206.42 507.208 206.241C507.696 206.064 508.256 206.033 508.89 206.148L508.707 207.153L508.446 207.106C507.748 206.979 507.153 207.066 506.662 207.365C506.172 207.665 505.846 208.256 505.686 209.137L504.923 213.339L503.959 213.164L505.325 205.643L506.289 205.818L506.046 207.154ZM512.926 214.906C512.219 214.778 511.609 214.506 511.097 214.09C510.595 213.667 510.231 213.136 510.006 212.498C509.791 211.852 509.755 211.138 509.896 210.358C510.038 209.577 510.327 208.928 510.763 208.409C511.2 207.881 511.732 207.513 512.358 207.304C512.985 207.086 513.653 207.042 514.36 207.17C515.067 207.298 515.676 207.575 516.187 208C516.709 208.417 517.077 208.949 517.292 209.595C517.517 210.234 517.559 210.943 517.417 211.724C517.277 212.495 516.989 213.145 516.551 213.672C516.114 214.2 515.577 214.572 514.94 214.788C514.305 214.995 513.633 215.035 512.926 214.906ZM513.079 214.066C513.575 214.156 514.054 214.129 514.516 213.986C514.981 213.833 515.382 213.555 515.721 213.152C516.071 212.741 516.305 212.205 516.426 211.544C516.546 210.882 516.518 210.304 516.343 209.807C516.169 209.301 515.891 208.899 515.509 208.602C515.128 208.296 514.689 208.098 514.194 208.008C513.698 207.918 513.218 207.949 512.754 208.102C512.291 208.246 511.89 208.524 511.549 208.936C511.219 209.341 510.995 209.874 510.874 210.535C510.754 211.196 510.777 211.779 510.941 212.283C511.116 212.78 511.39 213.181 511.761 213.485C512.144 213.782 512.583 213.976 513.079 214.066ZM519.442 212.077C519.582 211.306 519.86 210.659 520.278 210.137C520.697 209.606 521.205 209.234 521.804 209.02C522.413 208.799 523.062 208.751 523.751 208.876C524.412 208.996 524.98 209.265 525.454 209.683C525.928 210.101 526.243 210.59 526.397 211.149L527.178 206.852L528.142 207.027L526.291 217.22L525.326 217.045L525.632 215.364C525.307 215.846 524.852 216.209 524.267 216.454C523.684 216.69 523.038 216.743 522.331 216.615C521.642 216.49 521.052 216.216 520.559 215.795C520.076 215.375 519.731 214.843 519.526 214.198C519.33 213.556 519.301 212.849 519.442 212.077ZM526.01 213.285C526.12 212.678 526.092 212.123 525.928 211.619C525.763 211.115 525.488 210.7 525.101 210.373C524.724 210.049 524.278 209.84 523.764 209.746C523.231 209.649 522.732 209.682 522.266 209.844C521.8 210.006 521.402 210.294 521.07 210.708C520.75 211.115 520.533 211.63 520.42 212.255C520.308 212.87 520.329 213.434 520.482 213.945C520.647 214.45 520.918 214.864 521.295 215.189C521.674 215.504 522.13 215.71 522.663 215.807C523.177 215.9 523.668 215.862 524.135 215.69C524.612 215.521 525.016 215.229 525.347 214.815C525.679 214.401 525.899 213.891 526.01 213.285ZM537.078 211.411L535.712 218.932L534.748 218.756L534.988 217.434C534.683 217.862 534.278 218.159 533.774 218.323C533.269 218.488 532.733 218.518 532.163 218.415C531.263 218.251 530.579 217.843 530.11 217.188C529.642 216.525 529.504 215.665 529.696 214.609L530.494 210.215L531.445 210.387L530.666 214.671C530.518 215.488 530.607 216.15 530.932 216.655C531.267 217.161 531.788 217.479 532.495 217.607C533.221 217.739 533.841 217.615 534.356 217.234C534.871 216.853 535.209 216.217 535.371 215.327L536.114 211.235L537.078 211.411ZM538.861 215.619C539.002 214.838 539.282 214.187 539.699 213.665C540.118 213.134 540.632 212.763 541.239 212.551C541.849 212.329 542.507 212.283 543.214 212.411C544.142 212.58 544.862 212.948 545.376 213.515C545.898 214.085 546.175 214.78 546.206 215.601L545.173 215.414C545.143 214.849 544.939 214.375 544.563 213.994C544.197 213.605 543.698 213.353 543.064 213.238C542.559 213.146 542.083 213.178 541.638 213.334C541.192 213.491 540.808 213.777 540.486 214.192C540.174 214.601 539.959 215.135 539.839 215.797C539.719 216.458 539.732 217.039 539.878 217.54C540.033 218.042 540.292 218.445 540.654 218.748C541.017 219.051 541.45 219.248 541.955 219.34C542.589 219.455 543.145 219.399 543.622 219.173C544.11 218.939 544.469 218.559 544.698 218.031L545.731 218.219C545.416 218.958 544.913 219.507 544.222 219.865C543.531 220.224 542.726 220.319 541.808 220.153C541.101 220.024 540.5 219.754 540.006 219.341C539.513 218.92 539.163 218.392 538.956 217.756C538.751 217.112 538.719 216.399 538.861 215.619ZM550.243 214.641L549.395 219.311C549.311 219.77 549.341 220.103 549.484 220.309C549.627 220.515 549.918 220.658 550.359 220.738L551.241 220.899L551.091 221.725L550.058 221.537C549.378 221.414 548.901 221.166 548.627 220.794C548.355 220.412 548.285 219.859 548.417 219.133L549.265 214.464L548.218 214.274L548.366 213.461L549.413 213.651L549.755 211.764L550.733 211.942L550.391 213.829L552.457 214.204L552.309 215.017L550.243 214.641ZM562.471 213.846C563.536 214.04 564.415 214.398 565.107 214.922C565.799 215.447 566.281 216.108 566.553 216.907C566.826 217.706 566.871 218.606 566.689 219.607C566.509 220.598 566.151 221.42 565.615 222.072C565.081 222.715 564.398 223.16 563.566 223.408C562.735 223.646 561.787 223.668 560.722 223.474L557.87 222.957L559.619 213.328L562.471 213.846ZM560.867 222.676C562.208 222.919 563.29 222.755 564.115 222.184C564.951 221.605 565.483 220.687 565.711 219.429C565.941 218.162 565.767 217.11 565.188 216.275C564.621 215.432 563.666 214.888 562.326 214.645L560.439 214.302L558.98 222.333L560.867 222.676ZM575.859 221.941C575.799 222.272 575.744 222.523 575.694 222.694L569.454 221.56C569.378 222.135 569.427 222.646 569.602 223.095C569.776 223.544 570.046 223.911 570.412 224.196C570.779 224.471 571.202 224.652 571.679 224.739C572.304 224.853 572.855 224.796 573.332 224.57C573.819 224.345 574.178 223.988 574.409 223.499L575.428 223.684C575.111 224.386 574.607 224.915 573.916 225.274C573.236 225.624 572.441 225.717 571.532 225.552C570.825 225.423 570.219 225.152 569.716 224.738C569.214 224.315 568.855 223.785 568.639 223.148C568.433 222.504 568.401 221.791 568.543 221.011C568.685 220.23 568.965 219.574 569.384 219.043C569.803 218.512 570.321 218.142 570.938 217.931C571.555 217.721 572.222 217.68 572.938 217.811C573.654 217.941 574.25 218.21 574.726 218.619C575.211 219.03 575.548 219.527 575.736 220.112C575.934 220.688 575.975 221.298 575.859 221.941ZM574.886 221.736C574.997 221.177 574.969 220.679 574.802 220.241C574.644 219.804 574.381 219.448 574.014 219.173C573.646 218.897 573.224 218.716 572.746 218.63C572.03 218.499 571.378 218.618 570.789 218.985C570.201 219.353 569.803 219.949 569.596 220.775L574.886 221.736ZM580.144 227.116C579.281 226.96 578.61 226.634 578.13 226.139C577.662 225.636 577.458 225.035 577.519 224.334L578.511 224.515C578.48 224.945 578.615 225.326 578.916 225.655C579.227 225.977 579.681 226.193 580.278 226.301C580.801 226.396 581.233 226.346 581.572 226.152C581.92 225.959 582.127 225.679 582.194 225.312C582.24 225.054 582.196 224.828 582.061 224.633C581.926 224.438 581.738 224.271 581.497 224.132C581.268 223.986 580.947 223.819 580.536 223.63C580.002 223.381 579.574 223.152 579.252 222.942C578.93 222.731 578.67 222.461 578.474 222.132C578.289 221.794 578.24 221.382 578.329 220.896C578.395 220.528 578.567 220.209 578.844 219.936C579.122 219.664 579.479 219.473 579.916 219.363C580.354 219.252 580.829 219.244 581.344 219.337C582.152 219.484 582.766 219.809 583.187 220.313C583.61 220.807 583.774 221.415 583.681 222.138L582.717 221.963C582.769 221.517 582.659 221.132 582.386 220.807C582.124 220.475 581.717 220.259 581.166 220.159C580.679 220.071 580.264 220.114 579.919 220.288C579.574 220.463 579.371 220.72 579.309 221.06C579.256 221.353 579.299 221.613 579.438 221.837C579.589 222.054 579.787 222.242 580.033 222.401C580.281 222.55 580.618 222.73 581.045 222.94C581.56 223.185 581.966 223.406 582.262 223.602C582.559 223.798 582.797 224.051 582.979 224.359C583.16 224.667 583.215 225.042 583.144 225.484C583.071 225.888 582.895 226.231 582.616 226.512C582.339 226.785 581.986 226.977 581.558 227.089C581.13 227.2 580.658 227.21 580.144 227.116ZM587.407 219.087C587.214 219.052 587.062 218.953 586.949 218.79C586.836 218.628 586.798 218.445 586.835 218.243C586.872 218.041 586.97 217.888 587.132 217.785C587.294 217.672 587.472 217.633 587.665 217.668C587.858 217.703 588.011 217.802 588.123 217.965C588.238 218.119 588.277 218.296 588.24 218.498C588.203 218.7 588.103 218.858 587.941 218.971C587.778 219.083 587.6 219.122 587.407 219.087ZM587.632 220.593L586.265 228.114L585.301 227.939L586.667 220.418L587.632 220.593ZM593.694 221.581C594.401 221.709 594.987 221.986 595.45 222.412C595.913 222.838 596.214 223.324 596.352 223.871L596.65 222.232L597.614 222.407L596.213 230.121C596.088 230.809 595.825 231.392 595.425 231.87C595.035 232.349 594.547 232.683 593.963 232.871C593.377 233.068 592.744 233.105 592.065 232.981C591.1 232.806 590.339 232.431 589.779 231.855C589.229 231.28 588.947 230.584 588.935 229.766L589.885 229.939C589.955 230.492 590.192 230.967 590.594 231.362C591.006 231.76 591.547 232.019 592.217 232.141C592.704 232.229 593.159 232.203 593.583 232.062C594.006 231.93 594.364 231.682 594.658 231.318C594.951 230.954 595.148 230.496 595.248 229.945L595.586 228.086C595.254 228.557 594.795 228.914 594.21 229.159C593.636 229.396 592.995 229.451 592.288 229.322C591.599 229.197 591.009 228.924 590.516 228.502C590.033 228.083 589.688 227.55 589.483 226.906C589.287 226.263 589.258 225.556 589.399 224.785C589.539 224.013 589.813 223.366 590.221 222.842C590.64 222.311 591.149 221.939 591.747 221.725C592.357 221.504 593.006 221.456 593.694 221.581ZM595.967 225.992C596.077 225.386 596.049 224.831 595.885 224.327C595.72 223.822 595.445 223.407 595.058 223.081C594.681 222.756 594.235 222.547 593.721 222.454C593.188 222.357 592.689 222.39 592.223 222.552C591.757 222.714 591.359 223.002 591.027 223.416C590.707 223.822 590.49 224.338 590.377 224.962C590.265 225.578 590.286 226.141 590.439 226.653C590.604 227.157 590.875 227.572 591.252 227.896C591.631 228.212 592.087 228.418 592.62 228.515C593.134 228.608 593.625 228.569 594.092 228.398C594.569 228.228 594.973 227.936 595.304 227.522C595.636 227.108 595.856 226.598 595.967 225.992ZM604.071 223.437C604.971 223.601 605.655 224.014 606.123 224.678C606.592 225.332 606.731 226.188 606.539 227.244L605.738 231.652L604.788 231.479L605.568 227.181C605.717 226.364 605.624 225.702 605.289 225.195C604.963 224.69 604.447 224.374 603.74 224.245C603.014 224.113 602.394 224.238 601.879 224.619C601.364 224.999 601.025 225.635 600.864 226.526L600.118 230.631L599.154 230.456L600.52 222.935L601.484 223.11L601.251 224.391C601.574 223.975 601.981 223.689 602.475 223.532C602.97 223.365 603.502 223.334 604.071 223.437Z" fill="#5F5F5F"/>
<rect x="375.371" y="245.056" width="93" height="41" rx="20" transform="rotate(-1.84286 375.371 245.056)" fill="white"/>
<path d="M394.237 259.671L394.552 269.452L393.572 269.483L393.425 264.907L388.122 265.078L388.269 269.654L387.289 269.685L386.975 259.904L387.954 259.873L388.095 264.267L393.399 264.096L393.257 259.702L394.237 259.671ZM402.911 259.392L402.937 260.203L400.222 260.29L400.511 269.26L399.531 269.291L399.243 260.322L396.514 260.41L396.488 259.598L402.911 259.392ZM414.734 259.137L415.045 268.792L414.066 268.824L413.818 261.114L410.623 268.934L409.91 268.957L406.22 261.386L406.468 269.068L405.488 269.1L405.177 259.445L406.213 259.411L410.218 267.659L413.685 259.171L414.734 259.137ZM418.937 267.869L422.449 267.756L422.475 268.553L417.983 268.698L417.668 258.917L418.648 258.885L418.937 267.869ZM428.517 255.192L425.153 270.792L424.188 270.823L427.524 255.224L428.517 255.192ZM430.876 263.38C430.845 262.419 431.027 261.554 431.423 260.785C431.818 260.007 432.372 259.396 433.087 258.953C433.8 258.5 434.605 258.26 435.501 258.231C436.592 258.196 437.533 258.427 438.324 258.924C439.124 259.412 439.717 260.122 440.102 261.052L438.954 261.089C438.653 260.436 438.207 259.932 437.617 259.578C437.036 259.223 436.34 259.058 435.528 259.084C434.81 259.108 434.167 259.296 433.599 259.651C433.041 260.005 432.609 260.504 432.303 261.149C431.996 261.785 431.857 262.518 431.883 263.348C431.91 264.178 432.097 264.9 432.443 265.515C432.79 266.129 433.253 266.596 433.833 266.913C434.422 267.23 435.076 267.377 435.794 267.354C436.606 267.328 437.29 267.124 437.848 266.742C438.414 266.35 438.826 265.823 439.085 265.161L440.233 265.124C439.908 266.069 439.362 266.81 438.595 267.348C437.828 267.886 436.904 268.173 435.822 268.208C434.926 268.237 434.108 268.053 433.367 267.656C432.625 267.251 432.032 266.677 431.588 265.935C431.144 265.193 430.907 264.341 430.876 263.38ZM445.962 267.895C445.318 267.916 444.746 267.823 444.244 267.615C443.752 267.406 443.359 267.106 443.066 266.714C442.774 266.322 442.61 265.879 442.576 265.385L443.611 265.352C443.673 265.826 443.896 266.239 444.281 266.591C444.666 266.933 445.217 267.093 445.935 267.07C446.598 267.049 447.115 266.864 447.486 266.516C447.867 266.158 448.049 265.718 448.032 265.196C448.019 264.776 447.901 264.443 447.678 264.198C447.455 263.944 447.183 263.761 446.862 263.65C446.541 263.53 446.098 263.404 445.533 263.273C444.874 263.117 444.351 262.961 443.963 262.805C443.575 262.65 443.24 262.399 442.959 262.053C442.677 261.707 442.526 261.231 442.506 260.625C442.49 260.121 442.606 259.669 442.855 259.269C443.103 258.859 443.462 258.535 443.93 258.296C444.399 258.057 444.941 257.927 445.557 257.907C446.461 257.878 447.196 258.079 447.761 258.509C448.335 258.929 448.675 259.488 448.781 260.185L447.718 260.219C447.64 259.82 447.409 259.473 447.026 259.177C446.643 258.872 446.134 258.729 445.5 258.75C444.912 258.769 444.427 258.943 444.046 259.273C443.664 259.593 443.482 260.024 443.499 260.565C443.512 260.975 443.63 261.303 443.853 261.548C444.075 261.793 444.347 261.976 444.669 262.096C445 262.216 445.442 262.342 445.998 262.474C446.638 262.63 447.156 262.791 447.554 262.956C447.951 263.111 448.291 263.362 448.573 263.707C448.855 264.053 449.005 264.525 449.024 265.122C449.039 265.579 448.932 266.016 448.702 266.435C448.473 266.853 448.125 267.196 447.657 267.463C447.189 267.73 446.624 267.874 445.962 267.895ZM454.686 267.615C454.042 267.636 453.469 267.542 452.968 267.334C452.475 267.126 452.083 266.825 451.79 266.433C451.497 266.041 451.334 265.598 451.299 265.104L452.335 265.071C452.397 265.545 452.62 265.958 453.005 266.31C453.389 266.653 453.941 266.812 454.659 266.789C455.321 266.768 455.838 266.583 456.21 266.235C456.591 265.877 456.773 265.437 456.756 264.915C456.742 264.495 456.624 264.163 456.402 263.918C456.179 263.663 455.907 263.481 455.586 263.37C455.264 263.249 454.821 263.123 454.257 262.992C453.598 262.836 453.075 262.68 452.687 262.524C452.299 262.369 451.964 262.118 451.682 261.772C451.4 261.427 451.249 260.951 451.23 260.344C451.214 259.84 451.33 259.388 451.579 258.988C451.827 258.579 452.185 258.254 452.654 258.015C453.122 257.776 453.664 257.646 454.28 257.627C455.185 257.598 455.92 257.798 456.485 258.228C457.058 258.649 457.399 259.207 457.505 259.904L456.442 259.938C456.363 259.539 456.133 259.192 455.75 258.896C455.366 258.591 454.858 258.449 454.223 258.469C453.636 258.488 453.151 258.662 452.769 258.992C452.387 259.312 452.205 259.743 452.223 260.284C452.236 260.695 452.354 261.022 452.576 261.267C452.799 261.512 453.071 261.695 453.392 261.815C453.723 261.935 454.166 262.061 454.721 262.193C455.361 262.35 455.88 262.51 456.278 262.675C456.675 262.83 457.014 263.081 457.296 263.427C457.578 263.772 457.729 264.244 457.748 264.841C457.763 265.298 457.655 265.736 457.426 266.154C457.197 266.572 456.848 266.915 456.381 267.182C455.913 267.449 455.348 267.593 454.686 267.615Z" fill="#5F5F5F"/>
<rect y="262" width="128" height="41" rx="20" fill="white"/>
<path d="M12.058 277.214V283.374C12.058 284.345 12.2867 285.063 12.744 285.53C13.2107 285.997 13.8453 286.23 14.648 286.23C15.4507 286.23 16.076 286.001 16.524 285.544C16.9813 285.077 17.21 284.354 17.21 283.374V277.214H18.19V283.36C18.19 284.601 17.8587 285.535 17.196 286.16C16.5427 286.785 15.6887 287.098 14.634 287.098C13.5793 287.098 12.7207 286.785 12.058 286.16C11.4047 285.535 11.078 284.601 11.078 283.36V277.214H12.058ZM23.7242 287.112C22.8469 287.112 22.1282 286.911 21.5682 286.51C21.0176 286.099 20.7096 285.544 20.6442 284.844H21.6522C21.6989 285.273 21.8996 285.623 22.2542 285.894C22.6182 286.155 23.1036 286.286 23.7102 286.286C24.2422 286.286 24.6576 286.16 24.9562 285.908C25.2642 285.656 25.4182 285.343 25.4182 284.97C25.4182 284.709 25.3342 284.494 25.1662 284.326C24.9982 284.158 24.7836 284.027 24.5222 283.934C24.2702 283.831 23.9249 283.724 23.4862 283.612C22.9169 283.463 22.4549 283.313 22.1002 283.164C21.7456 283.015 21.4422 282.795 21.1902 282.506C20.9476 282.207 20.8262 281.811 20.8262 281.316C20.8262 280.943 20.9382 280.597 21.1622 280.28C21.3862 279.963 21.7036 279.711 22.1142 279.524C22.5249 279.337 22.9916 279.244 23.5142 279.244C24.3356 279.244 24.9982 279.454 25.5022 279.874C26.0062 280.285 26.2769 280.854 26.3142 281.582H25.3342C25.3062 281.134 25.1289 280.775 24.8022 280.504C24.4849 280.224 24.0462 280.084 23.4862 280.084C22.9916 280.084 22.5902 280.201 22.2822 280.434C21.9742 280.667 21.8202 280.957 21.8202 281.302C21.8202 281.601 21.9089 281.848 22.0862 282.044C22.2729 282.231 22.5016 282.38 22.7722 282.492C23.0429 282.595 23.4069 282.711 23.8642 282.842C24.4149 282.991 24.8536 283.136 25.1802 283.276C25.5069 283.416 25.7869 283.621 26.0202 283.892C26.2536 284.163 26.3749 284.522 26.3842 284.97C26.3842 285.381 26.2722 285.749 26.0482 286.076C25.8242 286.393 25.5116 286.645 25.1102 286.832C24.7089 287.019 24.2469 287.112 23.7242 287.112ZM35.8613 282.786C35.8613 283.122 35.852 283.379 35.8333 283.556H29.4913C29.5193 284.135 29.6593 284.629 29.9113 285.04C30.1633 285.451 30.4947 285.763 30.9053 285.978C31.316 286.183 31.764 286.286 32.2493 286.286C32.884 286.286 33.416 286.132 33.8453 285.824C34.284 285.516 34.5733 285.101 34.7133 284.578H35.7493C35.5627 285.325 35.1613 285.936 34.5453 286.412C33.9387 286.879 33.1733 287.112 32.2493 287.112C31.5307 287.112 30.8867 286.953 30.3173 286.636C29.748 286.309 29.3 285.852 28.9733 285.264C28.656 284.667 28.4973 283.971 28.4973 283.178C28.4973 282.385 28.656 281.689 28.9733 281.092C29.2907 280.495 29.734 280.037 30.3033 279.72C30.8727 279.403 31.5213 279.244 32.2493 279.244C32.9773 279.244 33.612 279.403 34.1533 279.72C34.704 280.037 35.124 280.467 35.4133 281.008C35.712 281.54 35.8613 282.133 35.8613 282.786ZM34.8673 282.758C34.8767 282.189 34.76 281.703 34.5173 281.302C34.284 280.901 33.962 280.597 33.5513 280.392C33.1407 280.187 32.6927 280.084 32.2073 280.084C31.4793 280.084 30.8587 280.317 30.3453 280.784C29.832 281.251 29.5473 281.909 29.4913 282.758H34.8673ZM39.3507 280.714C39.5654 280.238 39.8921 279.869 40.3307 279.608C40.7787 279.347 41.3247 279.216 41.9687 279.216V280.238H41.7027C40.9934 280.238 40.4241 280.429 39.9947 280.812C39.5654 281.195 39.3507 281.834 39.3507 282.73V287H38.3707V279.356H39.3507V280.714ZM53.9255 287L51.5035 282.912H49.6975V287H48.7175V277.214H51.6575C52.7495 277.214 53.5755 277.475 54.1355 277.998C54.7049 278.521 54.9895 279.207 54.9895 280.056C54.9895 280.765 54.7842 281.372 54.3735 281.876C53.9722 282.371 53.3749 282.693 52.5815 282.842L55.1015 287H53.9255ZM49.6975 282.114H51.6715C52.4369 282.114 53.0109 281.927 53.3935 281.554C53.7855 281.181 53.9815 280.681 53.9815 280.056C53.9815 279.412 53.7949 278.917 53.4215 278.572C53.0482 278.217 52.4602 278.04 51.6575 278.04H49.6975V282.114ZM64.5667 282.786C64.5667 283.122 64.5574 283.379 64.5387 283.556H58.1967C58.2247 284.135 58.3647 284.629 58.6167 285.04C58.8687 285.451 59.2001 285.763 59.6107 285.978C60.0214 286.183 60.4694 286.286 60.9547 286.286C61.5894 286.286 62.1214 286.132 62.5507 285.824C62.9894 285.516 63.2787 285.101 63.4187 284.578H64.4547C64.2681 285.325 63.8667 285.936 63.2507 286.412C62.6441 286.879 61.8787 287.112 60.9547 287.112C60.2361 287.112 59.5921 286.953 59.0227 286.636C58.4534 286.309 58.0054 285.852 57.6787 285.264C57.3614 284.667 57.2027 283.971 57.2027 283.178C57.2027 282.385 57.3614 281.689 57.6787 281.092C57.9961 280.495 58.4394 280.037 59.0087 279.72C59.5781 279.403 60.2267 279.244 60.9547 279.244C61.6827 279.244 62.3174 279.403 62.8587 279.72C63.4094 280.037 63.8294 280.467 64.1187 281.008C64.4174 281.54 64.5667 282.133 64.5667 282.786ZM63.5727 282.758C63.5821 282.189 63.4654 281.703 63.2227 281.302C62.9894 280.901 62.6674 280.597 62.2567 280.392C61.8461 280.187 61.3981 280.084 60.9127 280.084C60.1847 280.084 59.5641 280.317 59.0507 280.784C58.5374 281.251 58.2527 281.909 58.1967 282.758H63.5727ZM69.7081 287.112C68.8308 287.112 68.1121 286.911 67.5521 286.51C67.0014 286.099 66.6934 285.544 66.6281 284.844H67.6361C67.6828 285.273 67.8834 285.623 68.2381 285.894C68.6021 286.155 69.0874 286.286 69.6941 286.286C70.2261 286.286 70.6414 286.16 70.9401 285.908C71.2481 285.656 71.4021 285.343 71.4021 284.97C71.4021 284.709 71.3181 284.494 71.1501 284.326C70.9821 284.158 70.7674 284.027 70.5061 283.934C70.2541 283.831 69.9088 283.724 69.4701 283.612C68.9008 283.463 68.4388 283.313 68.0841 283.164C67.7294 283.015 67.4261 282.795 67.1741 282.506C66.9314 282.207 66.8101 281.811 66.8101 281.316C66.8101 280.943 66.9221 280.597 67.1461 280.28C67.3701 279.963 67.6874 279.711 68.0981 279.524C68.5088 279.337 68.9754 279.244 69.4981 279.244C70.3194 279.244 70.9821 279.454 71.4861 279.874C71.9901 280.285 72.2608 280.854 72.2981 281.582H71.3181C71.2901 281.134 71.1128 280.775 70.7861 280.504C70.4688 280.224 70.0301 280.084 69.4701 280.084C68.9754 280.084 68.5741 280.201 68.2661 280.434C67.9581 280.667 67.8041 280.957 67.8041 281.302C67.8041 281.601 67.8928 281.848 68.0701 282.044C68.2568 282.231 68.4854 282.38 68.7561 282.492C69.0268 282.595 69.3908 282.711 69.8481 282.842C70.3988 282.991 70.8374 283.136 71.1641 283.276C71.4908 283.416 71.7708 283.621 72.0041 283.892C72.2374 284.163 72.3588 284.522 72.3681 284.97C72.3681 285.381 72.2561 285.749 72.0321 286.076C71.8081 286.393 71.4954 286.645 71.0941 286.832C70.6928 287.019 70.2308 287.112 69.7081 287.112ZM81.8452 282.786C81.8452 283.122 81.8359 283.379 81.8172 283.556H75.4752C75.5032 284.135 75.6432 284.629 75.8952 285.04C76.1472 285.451 76.4785 285.763 76.8892 285.978C77.2999 286.183 77.7479 286.286 78.2332 286.286C78.8679 286.286 79.3999 286.132 79.8292 285.824C80.2679 285.516 80.5572 285.101 80.6972 284.578H81.7332C81.5465 285.325 81.1452 285.936 80.5292 286.412C79.9225 286.879 79.1572 287.112 78.2332 287.112C77.5145 287.112 76.8705 286.953 76.3012 286.636C75.7319 286.309 75.2839 285.852 74.9572 285.264C74.6399 284.667 74.4812 283.971 74.4812 283.178C74.4812 282.385 74.6399 281.689 74.9572 281.092C75.2745 280.495 75.7179 280.037 76.2872 279.72C76.8565 279.403 77.5052 279.244 78.2332 279.244C78.9612 279.244 79.5959 279.403 80.1372 279.72C80.6879 280.037 81.1079 280.467 81.3972 281.008C81.6959 281.54 81.8452 282.133 81.8452 282.786ZM80.8512 282.758C80.8605 282.189 80.7439 281.703 80.5012 281.302C80.2679 280.901 79.9459 280.597 79.5352 280.392C79.1245 280.187 78.6765 280.084 78.1912 280.084C77.4632 280.084 76.8425 280.317 76.3292 280.784C75.8159 281.251 75.5312 281.909 75.4752 282.758H80.8512ZM83.9066 283.164C83.9066 282.38 84.0606 281.694 84.3686 281.106C84.6859 280.509 85.1199 280.051 85.6706 279.734C86.2306 279.407 86.8606 279.244 87.5606 279.244C88.2886 279.244 88.9139 279.412 89.4366 279.748C89.9686 280.084 90.3512 280.513 90.5846 281.036V279.356H91.5646V287H90.5846V285.306C90.3419 285.829 89.9546 286.263 89.4226 286.608C88.8999 286.944 88.2746 287.112 87.5466 287.112C86.8559 287.112 86.2306 286.949 85.6706 286.622C85.1199 286.295 84.6859 285.833 84.3686 285.236C84.0606 284.639 83.9066 283.948 83.9066 283.164ZM90.5846 283.178C90.5846 282.562 90.4586 282.021 90.2066 281.554C89.9546 281.087 89.6092 280.728 89.1706 280.476C88.7412 280.224 88.2652 280.098 87.7426 280.098C87.2012 280.098 86.7159 280.219 86.2866 280.462C85.8572 280.705 85.5166 281.059 85.2646 281.526C85.0219 281.983 84.9006 282.529 84.9006 283.164C84.9006 283.789 85.0219 284.34 85.2646 284.816C85.5166 285.283 85.8572 285.642 86.2866 285.894C86.7159 286.137 87.2012 286.258 87.7426 286.258C88.2652 286.258 88.7412 286.132 89.1706 285.88C89.6092 285.628 89.9546 285.269 90.2066 284.802C90.4586 284.335 90.5846 283.794 90.5846 283.178ZM95.4982 280.714C95.7129 280.238 96.0396 279.869 96.4782 279.608C96.9262 279.347 97.4722 279.216 98.1162 279.216V280.238H97.8502C97.1409 280.238 96.5716 280.429 96.1422 280.812C95.7129 281.195 95.4982 281.834 95.4982 282.73V287H94.5182V279.356H95.4982V280.714ZM99.8589 283.178C99.8589 282.385 100.018 281.694 100.335 281.106C100.652 280.509 101.091 280.051 101.651 279.734C102.211 279.407 102.85 279.244 103.569 279.244C104.512 279.244 105.286 279.477 105.893 279.944C106.509 280.411 106.906 281.045 107.083 281.848H106.033C105.902 281.297 105.618 280.868 105.179 280.56C104.75 280.243 104.213 280.084 103.569 280.084C103.056 280.084 102.594 280.201 102.183 280.434C101.772 280.667 101.446 281.017 101.203 281.484C100.97 281.941 100.853 282.506 100.853 283.178C100.853 283.85 100.97 284.419 101.203 284.886C101.446 285.353 101.772 285.703 102.183 285.936C102.594 286.169 103.056 286.286 103.569 286.286C104.213 286.286 104.75 286.132 105.179 285.824C105.618 285.507 105.902 285.068 106.033 284.508H107.083C106.906 285.292 106.509 285.922 105.893 286.398C105.277 286.874 104.502 287.112 103.569 287.112C102.85 287.112 102.211 286.953 101.651 286.636C101.091 286.309 100.652 285.852 100.335 285.264C100.018 284.667 99.8589 283.971 99.8589 283.178ZM113.249 279.216C113.828 279.216 114.346 279.337 114.803 279.58C115.27 279.823 115.634 280.196 115.895 280.7C116.166 281.195 116.301 281.801 116.301 282.52V287H115.335V282.632C115.335 281.801 115.125 281.167 114.705 280.728C114.295 280.289 113.73 280.07 113.011 280.07C112.274 280.07 111.686 280.303 111.247 280.77C110.809 281.237 110.589 281.923 110.589 282.828V287H109.609V276.64H110.589V280.658C110.832 280.201 111.187 279.846 111.653 279.594C112.129 279.342 112.661 279.216 113.249 279.216Z" fill="#5F5F5F"/>
<rect x="540" y="262" width="136" height="41" rx="20" fill="white"/>
<path d="M558.82 280.07C558.54 279.426 558.111 278.922 557.532 278.558C556.963 278.185 556.291 277.998 555.516 277.998C554.788 277.998 554.135 278.166 553.556 278.502C552.977 278.838 552.52 279.319 552.184 279.944C551.848 280.56 551.68 281.279 551.68 282.1C551.68 282.921 551.848 283.645 552.184 284.27C552.52 284.895 552.977 285.376 553.556 285.712C554.135 286.048 554.788 286.216 555.516 286.216C556.197 286.216 556.809 286.071 557.35 285.782C557.901 285.483 558.339 285.063 558.666 284.522C559.002 283.971 559.193 283.332 559.24 282.604H555.124V281.806H560.276V282.52C560.229 283.379 559.996 284.158 559.576 284.858C559.156 285.549 558.591 286.095 557.882 286.496C557.182 286.897 556.393 287.098 555.516 287.098C554.611 287.098 553.789 286.888 553.052 286.468C552.315 286.039 551.731 285.446 551.302 284.69C550.882 283.925 550.672 283.061 550.672 282.1C550.672 281.139 550.882 280.28 551.302 279.524C551.731 278.759 552.315 278.166 553.052 277.746C553.789 277.317 554.611 277.102 555.516 277.102C556.561 277.102 557.476 277.363 558.26 277.886C559.044 278.409 559.613 279.137 559.968 280.07H558.82ZM563.768 280.714C563.982 280.238 564.309 279.869 564.748 279.608C565.196 279.347 565.742 279.216 566.386 279.216V280.238H566.12C565.41 280.238 564.841 280.429 564.412 280.812C563.982 281.195 563.768 281.834 563.768 282.73V287H562.788V279.356H563.768V280.714ZM568.128 283.164C568.128 282.38 568.282 281.694 568.59 281.106C568.908 280.509 569.342 280.051 569.892 279.734C570.452 279.407 571.082 279.244 571.782 279.244C572.51 279.244 573.136 279.412 573.658 279.748C574.19 280.084 574.573 280.513 574.806 281.036V279.356H575.786V287H574.806V285.306C574.564 285.829 574.176 286.263 573.644 286.608C573.122 286.944 572.496 287.112 571.768 287.112C571.078 287.112 570.452 286.949 569.892 286.622C569.342 286.295 568.908 285.833 568.59 285.236C568.282 284.639 568.128 283.948 568.128 283.164ZM574.806 283.178C574.806 282.562 574.68 282.021 574.428 281.554C574.176 281.087 573.831 280.728 573.392 280.476C572.963 280.224 572.487 280.098 571.964 280.098C571.423 280.098 570.938 280.219 570.508 280.462C570.079 280.705 569.738 281.059 569.486 281.526C569.244 281.983 569.122 282.529 569.122 283.164C569.122 283.789 569.244 284.34 569.486 284.816C569.738 285.283 570.079 285.642 570.508 285.894C570.938 286.137 571.423 286.258 571.964 286.258C572.487 286.258 572.963 286.132 573.392 285.88C573.831 285.628 574.176 285.269 574.428 284.802C574.68 284.335 574.806 283.794 574.806 283.178ZM579.706 281.036C579.949 280.523 580.331 280.098 580.854 279.762C581.386 279.417 582.016 279.244 582.744 279.244C583.435 279.244 584.055 279.407 584.606 279.734C585.166 280.051 585.6 280.509 585.908 281.106C586.225 281.694 586.384 282.38 586.384 283.164C586.384 283.948 586.225 284.639 585.908 285.236C585.6 285.833 585.166 286.295 584.606 286.622C584.055 286.949 583.435 287.112 582.744 287.112C582.025 287.112 581.4 286.944 580.868 286.608C580.336 286.263 579.949 285.833 579.706 285.32V290.612H578.74V279.356H579.706V281.036ZM585.39 283.164C585.39 282.529 585.264 281.983 585.012 281.526C584.769 281.059 584.433 280.705 584.004 280.462C583.575 280.219 583.089 280.098 582.548 280.098C582.025 280.098 581.545 280.224 581.106 280.476C580.677 280.728 580.336 281.087 580.084 281.554C579.832 282.021 579.706 282.562 579.706 283.178C579.706 283.794 579.832 284.335 580.084 284.802C580.336 285.269 580.677 285.628 581.106 285.88C581.545 286.132 582.025 286.258 582.548 286.258C583.089 286.258 583.575 286.137 584.004 285.894C584.433 285.642 584.769 285.283 585.012 284.816C585.264 284.34 585.39 283.789 585.39 283.164ZM592.544 279.216C593.122 279.216 593.64 279.337 594.098 279.58C594.564 279.823 594.928 280.196 595.19 280.7C595.46 281.195 595.596 281.801 595.596 282.52V287H594.63V282.632C594.63 281.801 594.42 281.167 594 280.728C593.589 280.289 593.024 280.07 592.306 280.07C591.568 280.07 590.98 280.303 590.542 280.77C590.103 281.237 589.884 281.923 589.884 282.828V287H588.904V276.64H589.884V280.658C590.126 280.201 590.481 279.846 590.948 279.594C591.424 279.342 591.956 279.216 592.544 279.216ZM598.969 277.914C598.773 277.914 598.605 277.844 598.465 277.704C598.325 277.564 598.255 277.391 598.255 277.186C598.255 276.981 598.325 276.813 598.465 276.682C598.605 276.542 598.773 276.472 598.969 276.472C599.165 276.472 599.333 276.542 599.473 276.682C599.613 276.813 599.683 276.981 599.683 277.186C599.683 277.391 599.613 277.564 599.473 277.704C599.333 277.844 599.165 277.914 598.969 277.914ZM599.459 279.356V287H598.479V279.356H599.459ZM601.947 283.178C601.947 282.385 602.106 281.694 602.423 281.106C602.74 280.509 603.179 280.051 603.739 279.734C604.299 279.407 604.938 279.244 605.657 279.244C606.6 279.244 607.374 279.477 607.981 279.944C608.597 280.411 608.994 281.045 609.171 281.848H608.121C607.99 281.297 607.706 280.868 607.267 280.56C606.838 280.243 606.301 280.084 605.657 280.084C605.144 280.084 604.682 280.201 604.271 280.434C603.86 280.667 603.534 281.017 603.291 281.484C603.058 281.941 602.941 282.506 602.941 283.178C602.941 283.85 603.058 284.419 603.291 284.886C603.534 285.353 603.86 285.703 604.271 285.936C604.682 286.169 605.144 286.286 605.657 286.286C606.301 286.286 606.838 286.132 607.267 285.824C607.706 285.507 607.99 285.068 608.121 284.508H609.171C608.994 285.292 608.597 285.922 607.981 286.398C607.365 286.874 606.59 287.112 605.657 287.112C604.938 287.112 604.299 286.953 603.739 286.636C603.179 286.309 602.74 285.852 602.423 285.264C602.106 284.667 601.947 283.971 601.947 283.178ZM619.153 277.214C620.236 277.214 621.165 277.41 621.939 277.802C622.714 278.194 623.307 278.759 623.717 279.496C624.128 280.233 624.333 281.111 624.333 282.128C624.333 283.136 624.128 284.009 623.717 284.746C623.307 285.474 622.714 286.034 621.939 286.426C621.165 286.809 620.236 287 619.153 287H616.255V277.214H619.153ZM619.153 286.188C620.516 286.188 621.552 285.833 622.261 285.124C622.98 284.405 623.339 283.407 623.339 282.128C623.339 280.84 622.98 279.837 622.261 279.118C621.552 278.39 620.516 278.026 619.153 278.026H617.235V286.188H619.153ZM633.773 282.786C633.773 283.122 633.763 283.379 633.745 283.556H627.403C627.431 284.135 627.571 284.629 627.823 285.04C628.075 285.451 628.406 285.763 628.817 285.978C629.227 286.183 629.675 286.286 630.161 286.286C630.795 286.286 631.327 286.132 631.757 285.824C632.195 285.516 632.485 285.101 632.625 284.578H633.661C633.474 285.325 633.073 285.936 632.457 286.412C631.85 286.879 631.085 287.112 630.161 287.112C629.442 287.112 628.798 286.953 628.229 286.636C627.659 286.309 627.211 285.852 626.885 285.264C626.567 284.667 626.409 283.971 626.409 283.178C626.409 282.385 626.567 281.689 626.885 281.092C627.202 280.495 627.645 280.037 628.215 279.72C628.784 279.403 629.433 279.244 630.161 279.244C630.889 279.244 631.523 279.403 632.065 279.72C632.615 280.037 633.035 280.467 633.325 281.008C633.623 281.54 633.773 282.133 633.773 282.786ZM632.779 282.758C632.788 282.189 632.671 281.703 632.429 281.302C632.195 280.901 631.873 280.597 631.463 280.392C631.052 280.187 630.604 280.084 630.119 280.084C629.391 280.084 628.77 280.317 628.257 280.784C627.743 281.251 627.459 281.909 627.403 282.758H632.779ZM638.914 287.112C638.037 287.112 637.318 286.911 636.758 286.51C636.207 286.099 635.899 285.544 635.834 284.844H636.842C636.889 285.273 637.089 285.623 637.444 285.894C637.808 286.155 638.293 286.286 638.9 286.286C639.432 286.286 639.847 286.16 640.146 285.908C640.454 285.656 640.608 285.343 640.608 284.97C640.608 284.709 640.524 284.494 640.356 284.326C640.188 284.158 639.973 284.027 639.712 283.934C639.46 283.831 639.115 283.724 638.676 283.612C638.107 283.463 637.645 283.313 637.29 283.164C636.935 283.015 636.632 282.795 636.38 282.506C636.137 282.207 636.016 281.811 636.016 281.316C636.016 280.943 636.128 280.597 636.352 280.28C636.576 279.963 636.893 279.711 637.304 279.524C637.715 279.337 638.181 279.244 638.704 279.244C639.525 279.244 640.188 279.454 640.692 279.874C641.196 280.285 641.467 280.854 641.504 281.582H640.524C640.496 281.134 640.319 280.775 639.992 280.504C639.675 280.224 639.236 280.084 638.676 280.084C638.181 280.084 637.78 280.201 637.472 280.434C637.164 280.667 637.01 280.957 637.01 281.302C637.01 281.601 637.099 281.848 637.276 282.044C637.463 282.231 637.691 282.38 637.962 282.492C638.233 282.595 638.597 282.711 639.054 282.842C639.605 282.991 640.043 283.136 640.37 283.276C640.697 283.416 640.977 283.621 641.21 283.892C641.443 284.163 641.565 284.522 641.574 284.97C641.574 285.381 641.462 285.749 641.238 286.076C641.014 286.393 640.701 286.645 640.3 286.832C639.899 287.019 639.437 287.112 638.914 287.112ZM644.625 277.914C644.429 277.914 644.261 277.844 644.121 277.704C643.981 277.564 643.911 277.391 643.911 277.186C643.911 276.981 643.981 276.813 644.121 276.682C644.261 276.542 644.429 276.472 644.625 276.472C644.821 276.472 644.989 276.542 645.129 276.682C645.269 276.813 645.339 276.981 645.339 277.186C645.339 277.391 645.269 277.564 645.129 277.704C644.989 277.844 644.821 277.914 644.625 277.914ZM645.115 279.356V287H644.135V279.356H645.115ZM651.257 279.244C651.975 279.244 652.601 279.412 653.133 279.748C653.665 280.084 654.047 280.509 654.281 281.022V279.356H655.261V287.196C655.261 287.896 655.107 288.517 654.799 289.058C654.5 289.599 654.08 290.015 653.539 290.304C652.997 290.603 652.381 290.752 651.691 290.752C650.711 290.752 649.894 290.519 649.241 290.052C648.597 289.585 648.195 288.951 648.037 288.148H649.003C649.171 288.68 649.488 289.105 649.955 289.422C650.431 289.739 651.009 289.898 651.691 289.898C652.185 289.898 652.629 289.791 653.021 289.576C653.413 289.371 653.721 289.063 653.945 288.652C654.169 288.241 654.281 287.756 654.281 287.196V285.306C654.038 285.829 653.651 286.263 653.119 286.608C652.596 286.944 651.975 287.112 651.257 287.112C650.557 287.112 649.927 286.949 649.367 286.622C648.816 286.295 648.382 285.833 648.065 285.236C647.757 284.639 647.603 283.948 647.603 283.164C647.603 282.38 647.757 281.694 648.065 281.106C648.382 280.509 648.816 280.051 649.367 279.734C649.927 279.407 650.557 279.244 651.257 279.244ZM654.281 283.178C654.281 282.562 654.155 282.021 653.903 281.554C653.651 281.087 653.305 280.728 652.867 280.476C652.437 280.224 651.961 280.098 651.439 280.098C650.897 280.098 650.412 280.219 649.983 280.462C649.553 280.705 649.213 281.059 648.961 281.526C648.718 281.983 648.597 282.529 648.597 283.164C648.597 283.789 648.718 284.34 648.961 284.816C649.213 285.283 649.553 285.642 649.983 285.894C650.412 286.137 650.897 286.258 651.439 286.258C651.961 286.258 652.437 286.132 652.867 285.88C653.305 285.628 653.651 285.269 653.903 284.802C654.155 284.335 654.281 283.794 654.281 283.178ZM661.798 279.216C662.713 279.216 663.46 279.501 664.038 280.07C664.617 280.63 664.906 281.447 664.906 282.52V287H663.94V282.632C663.94 281.801 663.73 281.167 663.31 280.728C662.9 280.289 662.335 280.07 661.616 280.07C660.879 280.07 660.291 280.303 659.852 280.77C659.414 281.237 659.194 281.923 659.194 282.828V287H658.214V279.356H659.194V280.658C659.437 280.191 659.787 279.837 660.244 279.594C660.702 279.342 661.22 279.216 661.798 279.216Z" fill="#5F5F5F"/>
</svg>
