<svg width="38" height="37" viewBox="0 0 38 37" fill="none" xmlns="http://www.w3.org/2000/svg">
<path d="M25.2439 10.7337C25.2439 10.3278 25.4052 9.93847 25.6922 9.65143C25.9792 9.36438 26.3685 9.20312 26.7745 9.20312C27.1804 9.20312 27.5697 9.36438 27.8568 9.65143C28.1438 9.93847 28.3051 10.3278 28.3051 10.7337C28.3051 11.1397 28.1438 11.529 27.8568 11.816C27.5697 12.103 27.1804 12.2643 26.7745 12.2643C26.3685 12.2643 25.9792 12.103 25.6922 11.816C25.4052 11.529 25.2439 11.1397 25.2439 10.7337Z" fill="black"/>
<path fill-rule="evenodd" clip-rule="evenodd" d="M19.1224 11.1162C17.1942 11.1162 15.3449 11.8822 13.9815 13.2456C12.618 14.6091 11.8521 16.4583 11.8521 18.3865C11.8521 20.3147 12.618 22.164 13.9815 23.5274C15.3449 24.8909 17.1942 25.6568 19.1224 25.6568C21.0506 25.6568 22.8998 24.8909 24.2632 23.5274C25.6267 22.164 26.3927 20.3147 26.3927 18.3865C26.3927 16.4583 25.6267 14.6091 24.2632 13.2456C22.8998 11.8822 21.0506 11.1162 19.1224 11.1162ZM14.1479 18.3865C14.1479 17.0672 14.672 15.802 15.6049 14.8691C16.5378 13.9362 17.8031 13.4121 19.1224 13.4121C20.4417 13.4121 21.7069 13.9362 22.6398 14.8691C23.5727 15.802 24.0968 17.0672 24.0968 18.3865C24.0968 19.7058 23.5727 20.9711 22.6398 21.904C21.7069 22.8369 20.4417 23.3609 19.1224 23.3609C17.8031 23.3609 16.5378 22.8369 15.6049 21.904C14.672 20.9711 14.1479 19.7058 14.1479 18.3865Z" fill="black"/>
<path fill-rule="evenodd" clip-rule="evenodd" d="M27.1697 4.35605C21.8209 3.76283 16.4228 3.76283 11.074 4.35605C7.99445 4.70043 5.50724 7.12642 5.14602 10.2213C4.51252 15.6466 4.51252 21.1273 5.14602 26.5527C5.50724 29.6475 7.99292 32.0735 11.074 32.4179C16.4229 33.0099 21.8208 33.0099 27.1697 32.4179C30.2492 32.0735 32.7365 29.6475 33.0977 26.5527C33.7312 21.1273 33.7312 15.6466 33.0977 10.2213C32.7365 7.12642 30.2508 4.70043 27.1697 4.35605ZM11.3281 6.63663C16.5081 6.06221 21.7356 6.06221 26.9156 6.63663C28.9513 6.86622 30.5814 8.47181 30.8186 10.4891C31.4326 15.7365 31.4326 21.0375 30.8186 26.2848C30.6959 27.2721 30.244 28.1892 29.5358 28.888C28.8276 29.5867 27.9045 30.0263 26.9156 30.1358C21.7356 30.7102 16.5081 30.7102 11.3281 30.1358C10.3392 30.0263 9.41615 29.5867 8.70795 28.888C7.99975 28.1892 7.54779 27.2721 7.42507 26.2848C6.81109 21.0375 6.81109 15.7365 7.42507 10.4891C7.54779 9.50183 7.99975 8.58473 8.70795 7.88598C9.41615 7.18722 10.3392 6.74608 11.3281 6.63663Z" fill="black"/>
</svg>
