<svg width="38" height="37" viewBox="0 0 38 37" fill="none" xmlns="http://www.w3.org/2000/svg">
<path d="M8.0435 4.40576C7.18635 4.41254 6.36623 4.75605 5.76011 5.36216C5.154 5.96828 4.81049 6.7884 4.80371 7.64555V29.6761C4.80371 31.4476 6.27198 32.9159 8.0435 32.9159H30.074C31.8456 32.9159 33.3138 31.4476 33.3138 29.6761V7.64555C33.3138 5.87403 31.8456 4.40576 30.074 4.40576H8.0435ZM8.0435 6.99759H30.074C30.4434 6.99759 30.722 7.27621 30.722 7.64555V29.6761C30.7238 29.7617 30.7082 29.8467 30.6763 29.9261C30.6443 30.0055 30.5967 30.0777 30.5361 30.1382C30.4756 30.1987 30.4035 30.2464 30.3241 30.2783C30.2447 30.3103 30.1596 30.3258 30.074 30.324H8.0435C7.95792 30.3258 7.87287 30.3103 7.79346 30.2783C7.71405 30.2464 7.64191 30.1987 7.58139 30.1382C7.52087 30.0777 7.4732 30.0055 7.44127 29.9261C7.40933 29.8467 7.39377 29.7617 7.39554 29.6761V7.64555C7.39554 7.27621 7.67416 6.99759 8.0435 6.99759ZM11.8509 9.22527C11.5539 9.2181 11.2585 9.27041 10.982 9.37911C10.7056 9.48781 10.4536 9.6507 10.2411 9.85821C10.0285 10.0657 9.85957 10.3136 9.74424 10.5874C9.62891 10.8612 9.56949 11.1552 9.56949 11.4523C9.56949 11.7494 9.62891 12.0434 9.74424 12.3172C9.85957 12.5909 10.0285 12.8389 10.2411 13.0464C10.4536 13.2539 10.7056 13.4168 10.982 13.5255C11.2585 13.6342 11.5539 13.6865 11.8509 13.6793C12.4322 13.6653 12.9851 13.4245 13.3913 13.0084C13.7975 12.5923 14.0248 12.0338 14.0248 11.4523C14.0248 10.8708 13.7975 10.3123 13.3913 9.8962C12.9851 9.48008 12.4322 9.23929 11.8509 9.22527ZM23.553 15.1372C21.696 15.1372 20.4609 16.1545 19.9504 17.1213H19.8687V15.421H16.2233V27.7322H20.0307V21.657C20.0307 20.0526 20.3495 18.4988 22.3387 18.4988C24.2981 18.4988 24.3241 20.3105 24.3241 21.7386V27.7322H28.1302V20.9688C28.1302 17.6591 27.4252 15.1372 23.553 15.1372ZM9.98737 15.421V27.7322H13.8349V15.421H9.98737Z" fill="black"/>
</svg>
