<svg width="1009" height="91" viewBox="0 0 1009 91" fill="none" xmlns="http://www.w3.org/2000/svg">
<g clip-path="url(#clip0_36_21289)">
<rect width="1009" height="91" fill="#F6F6F6"/>
<path d="M-10 0H1019" stroke="#F6F6F6" stroke-width="3"/>
<path d="M-10 91H1019" stroke="#F6F6F6" stroke-width="3"/>
<path fill-rule="evenodd" clip-rule="evenodd" d="M53.3032 47.2814C53.3032 47.281 53.3033 47.2806 53.3036 47.2803L69.5408 29.0645C69.7098 28.875 69.8455 28.6642 69.9479 28.4406C71.9817 28.6291 73.574 30.3403 73.574 32.4233V58.577C73.574 60.7861 71.7832 62.577 69.574 62.577H49.7459L59.9545 52.5452L68.6618 58.6603C69.5585 59.29 70.7617 59.0439 71.377 58.1041C71.9308 57.2588 71.8346 56.1094 71.1488 55.3829L59.9545 43.5142V43.5148L43.7169 61.731C43.4941 61.9808 43.3292 62.2676 43.2221 62.5721C41.1051 62.4688 39.4204 60.7196 39.4204 58.577V32.4233C39.4204 30.2142 41.2113 28.4233 43.4204 28.4233H63.3034L53.3032 38.2503L44.5959 32.1352C43.6992 31.5055 42.496 31.7517 41.8807 32.6914C41.3269 33.5367 41.4231 34.6862 42.1089 35.4126L53.3032 47.2814Z" fill="#9B9B9B"/>
<path d="M187.725 51.4752C186.518 51.4752 185.241 51.3489 183.894 51.0963C182.547 50.8437 181.34 50.4086 180.273 49.7912C179.824 49.5105 179.501 49.1878 179.305 48.8229C179.136 48.43 179.066 48.0511 179.094 47.6862C179.151 47.2933 179.291 46.9565 179.515 46.6758C179.768 46.3951 180.077 46.2127 180.442 46.1285C180.835 46.0443 181.256 46.1145 181.705 46.339C182.827 46.8723 183.88 47.2512 184.862 47.4757C185.844 47.6722 186.813 47.7704 187.767 47.7704C189.114 47.7704 190.111 47.5459 190.756 47.0968C191.43 46.6197 191.766 46.0022 191.766 45.2444C191.766 44.5989 191.542 44.1077 191.093 43.7709C190.672 43.4061 190.026 43.1394 189.156 42.971L184.946 42.1711C183.206 41.8343 181.873 41.2028 180.947 40.2766C180.049 39.3224 179.6 38.1015 179.6 36.614C179.6 35.2668 179.964 34.102 180.694 33.1197C181.452 32.1373 182.49 31.3795 183.81 30.8463C185.129 30.313 186.644 30.0464 188.356 30.0464C189.591 30.0464 190.742 30.1867 191.809 30.4674C192.903 30.72 193.956 31.1269 194.966 31.6883C195.387 31.9128 195.668 32.2075 195.808 32.5724C195.976 32.9372 196.019 33.3161 195.934 33.7091C195.85 34.0739 195.682 34.4107 195.429 34.7195C195.177 35.0001 194.854 35.1826 194.461 35.2668C194.096 35.3229 193.675 35.2387 193.198 35.0142C192.328 34.5651 191.486 34.2423 190.672 34.0459C189.886 33.8494 189.128 33.7512 188.398 33.7512C187.023 33.7512 185.999 33.9897 185.325 34.4669C184.68 34.944 184.357 35.5755 184.357 36.3614C184.357 36.9508 184.553 37.4419 184.946 37.8348C185.339 38.2278 185.943 38.4944 186.757 38.6347L190.967 39.4346C192.791 39.7714 194.166 40.3889 195.092 41.287C196.047 42.1852 196.524 43.392 196.524 44.9076C196.524 46.9565 195.724 48.5703 194.124 49.7491C192.524 50.8998 190.391 51.4752 187.725 51.4752Z" fill="#9B9B9B"/>
<path d="M162.84 51.475C161.128 51.475 159.711 51.1662 158.588 50.5488C157.465 49.9032 156.623 48.949 156.062 47.686C155.529 46.423 155.262 44.8513 155.262 42.9708V32.7827C155.262 31.8845 155.487 31.225 155.936 30.804C156.385 30.3549 157.03 30.1304 157.872 30.1304C158.714 30.1304 159.36 30.3549 159.809 30.804C160.286 31.225 160.525 31.8845 160.525 32.7827V43.055C160.525 44.5145 160.819 45.595 161.409 46.2967C161.998 46.9984 162.938 47.3492 164.229 47.3492C165.633 47.3492 166.784 46.8721 167.682 45.9178C168.58 44.9355 169.029 43.6444 169.029 42.0446V32.7827C169.029 31.8845 169.253 31.225 169.702 30.804C170.151 30.3549 170.797 30.1304 171.639 30.1304C172.481 30.1304 173.127 30.3549 173.576 30.804C174.053 31.225 174.291 31.8845 174.291 32.7827V48.6964C174.291 50.4926 173.435 51.3908 171.723 51.3908C170.909 51.3908 170.278 51.1662 169.829 50.7172C169.38 50.24 169.155 49.5664 169.155 48.6964V45.4968L169.745 46.7598C169.155 48.2754 168.257 49.4401 167.05 50.2541C165.871 51.068 164.468 51.475 162.84 51.475Z" fill="#9B9B9B"/>
<path d="M133.416 51.2645C132.799 51.2645 132.28 51.0961 131.859 50.7593C131.466 50.3944 131.255 49.9313 131.227 49.37C131.227 48.8086 131.466 48.2192 131.943 47.6018L138.763 39.1818V41.6657L132.364 33.7931C131.859 33.1756 131.62 32.5862 131.648 32.0249C131.676 31.4635 131.887 31.0145 132.28 30.6777C132.701 30.3128 133.22 30.1304 133.837 30.1304C134.483 30.1304 135.016 30.2426 135.437 30.4672C135.886 30.6917 136.293 31.0425 136.658 31.5197L141.71 38.003H139.858L144.952 31.5197C145.345 31.0425 145.751 30.6917 146.172 30.4672C146.593 30.2426 147.113 30.1304 147.73 30.1304C148.376 30.1304 148.895 30.3128 149.288 30.6777C149.681 31.0425 149.877 31.5056 149.877 32.067C149.905 32.6283 149.667 33.2177 149.162 33.8352L142.804 41.6236V39.266L149.625 47.6018C150.13 48.1912 150.368 48.7665 150.34 49.3279C150.312 49.8892 150.088 50.3523 149.667 50.7172C149.274 51.082 148.755 51.2645 148.109 51.2645C147.492 51.2645 146.972 51.1522 146.551 50.9277C146.13 50.7031 145.723 50.3523 145.33 49.8752L139.858 42.9708H141.626L136.195 49.8752C135.83 50.3242 135.437 50.6751 135.016 50.9277C134.595 51.1522 134.062 51.2645 133.416 51.2645Z" fill="#9B9B9B"/>
<path d="M119.016 51.4752C116.686 51.4752 114.679 51.0401 112.995 50.1701C111.311 49.3 110.006 48.0651 109.08 46.4653C108.182 44.8655 107.733 42.971 107.733 40.7818C107.733 38.6488 108.168 36.7824 109.038 35.1826C109.936 33.5828 111.157 32.3338 112.701 31.4357C114.272 30.5095 116.055 30.0464 118.047 30.0464C119.507 30.0464 120.812 30.285 121.963 30.7621C123.141 31.2392 124.138 31.9268 124.952 32.825C125.794 33.7231 126.425 34.8177 126.846 36.1088C127.295 37.3717 127.52 38.8031 127.52 40.4029C127.52 40.9081 127.337 41.3011 126.973 41.5817C126.636 41.8343 126.145 41.9606 125.499 41.9606H111.985V38.9294H123.815L123.141 39.5609C123.141 38.2699 122.945 37.1893 122.552 36.3193C122.187 35.4492 121.64 34.7896 120.91 34.3406C120.208 33.8634 119.324 33.6249 118.258 33.6249C117.079 33.6249 116.069 33.9055 115.227 34.4669C114.413 35.0001 113.781 35.772 113.332 36.7824C112.911 37.7647 112.701 38.9435 112.701 40.3187V40.6134C112.701 42.9149 113.234 44.641 114.3 45.7917C115.395 46.9144 116.995 47.4757 119.1 47.4757C119.83 47.4757 120.644 47.3915 121.542 47.2231C122.468 47.0266 123.338 46.7039 124.152 46.2548C124.741 45.918 125.26 45.7777 125.71 45.8338C126.159 45.8619 126.509 46.0162 126.762 46.2969C127.043 46.5776 127.211 46.9284 127.267 47.3494C127.323 47.7423 127.239 48.1493 127.015 48.5703C126.818 48.9913 126.467 49.3562 125.962 49.6649C124.98 50.2823 123.843 50.7454 122.552 51.0542C121.289 51.3348 120.11 51.4752 119.016 51.4752Z" fill="#9B9B9B"/>
<path d="M86.4329 51.391C85.5909 51.391 84.9454 51.1664 84.4964 50.7174C84.0473 50.2402 83.8228 49.5667 83.8228 48.6966V32.7829C83.8228 31.9128 84.0473 31.2532 84.4964 30.8042C84.9454 30.3551 85.5769 30.1306 86.3908 30.1306C87.2048 30.1306 87.8363 30.3551 88.2853 30.8042C88.7344 31.2532 88.9589 31.9128 88.9589 32.7829V35.6457L88.4958 34.5932C89.1133 33.1056 90.0676 31.983 91.3586 31.2252C92.6777 30.4393 94.1653 30.0464 95.8212 30.0464C97.4771 30.0464 98.8383 30.3551 99.9049 30.9726C100.971 31.59 101.771 32.5303 102.305 33.7933C102.838 35.0282 103.104 36.5999 103.104 38.5084V48.6966C103.104 49.5667 102.88 50.2402 102.431 50.7174C101.982 51.1664 101.336 51.391 100.494 51.391C99.6523 51.391 98.9927 51.1664 98.5156 50.7174C98.0665 50.2402 97.842 49.5667 97.842 48.6966V38.761C97.842 37.1613 97.5333 35.9965 96.9158 35.2668C96.3264 34.537 95.4002 34.1722 94.1372 34.1722C92.5935 34.1722 91.3586 34.6633 90.4324 35.6457C89.5343 36.5999 89.0852 37.8769 89.0852 39.4767V48.6966C89.0852 50.4928 88.2011 51.391 86.4329 51.391Z" fill="#9B9B9B"/>
<path d="M188.794 61.1715C188.713 61.1715 188.65 61.149 188.605 61.104C188.56 61.0545 188.538 60.9871 188.538 60.9016V56.5907C188.538 56.5007 188.56 56.4332 188.605 56.3883C188.65 56.3433 188.713 56.3208 188.794 56.3208C188.866 56.3208 188.922 56.3365 188.963 56.368C189.008 56.395 189.048 56.4422 189.084 56.5097L190.933 59.9908H190.73L192.572 56.5097C192.608 56.4422 192.646 56.395 192.687 56.368C192.727 56.3365 192.786 56.3208 192.862 56.3208C192.939 56.3208 192.999 56.3433 193.044 56.3883C193.089 56.4332 193.112 56.5007 193.112 56.5907V60.9016C193.112 60.9871 193.089 61.0545 193.044 61.104C193.004 61.149 192.941 61.1715 192.855 61.1715C192.774 61.1715 192.711 61.149 192.666 61.104C192.621 61.0545 192.599 60.9871 192.599 60.9016V57.1101H192.761L191.074 60.2742C191.043 60.3327 191.009 60.3754 190.973 60.4024C190.942 60.4249 190.894 60.4361 190.831 60.4361C190.768 60.4361 190.719 60.4226 190.683 60.3956C190.647 60.3686 190.615 60.3282 190.589 60.2742L188.882 57.1034H189.044V60.9016C189.044 60.9871 189.021 61.0545 188.976 61.104C188.936 61.149 188.875 61.1715 188.794 61.1715Z" fill="#9B9B9B"/>
<path d="M184.142 61.185C183.827 61.185 183.551 61.1445 183.312 61.0635C183.078 60.9781 182.881 60.8544 182.719 60.6925C182.557 60.5261 182.435 60.3214 182.354 60.0785C182.273 59.8357 182.233 59.5568 182.233 59.242V56.6041C182.233 56.5097 182.255 56.44 182.3 56.395C182.35 56.3455 182.42 56.3208 182.51 56.3208C182.599 56.3208 182.667 56.3455 182.712 56.395C182.761 56.44 182.786 56.5097 182.786 56.6041V59.215C182.786 59.7097 182.901 60.0808 183.13 60.3282C183.36 60.571 183.697 60.6925 184.142 60.6925C184.587 60.6925 184.922 60.571 185.147 60.3282C185.372 60.0808 185.485 59.7097 185.485 59.215V56.6041C185.485 56.5097 185.509 56.44 185.559 56.395C185.608 56.3455 185.678 56.3208 185.768 56.3208C185.853 56.3208 185.919 56.3455 185.964 56.395C186.013 56.44 186.038 56.5097 186.038 56.6041V59.242C186.038 59.6603 185.966 60.0156 185.822 60.3079C185.683 60.6003 185.471 60.8206 185.188 60.9691C184.904 61.113 184.556 61.185 184.142 61.185Z" fill="#9B9B9B"/>
<path d="M177.715 61.1244C177.626 61.1244 177.556 61.0997 177.506 61.0502C177.457 60.9962 177.432 60.9243 177.432 60.8343V56.6246C177.432 56.5301 177.455 56.4582 177.5 56.4087C177.549 56.3592 177.619 56.3345 177.709 56.3345C177.799 56.3345 177.866 56.3592 177.911 56.4087C177.961 56.4582 177.985 56.5301 177.985 56.6246V60.6387H180.198C180.279 60.6387 180.342 60.6612 180.387 60.7061C180.432 60.7466 180.455 60.8051 180.455 60.8815C180.455 60.958 180.432 61.0187 180.387 61.0637C180.342 61.1042 180.279 61.1244 180.198 61.1244H177.715Z" fill="#9B9B9B"/>
<path d="M172.092 61.1711C172.002 61.1711 171.932 61.1464 171.882 61.0969C171.837 61.0429 171.815 60.971 171.815 60.881V56.651C171.815 56.5566 171.84 56.4869 171.889 56.4419C171.939 56.3924 172.008 56.3677 172.098 56.3677H173.697C174.205 56.3677 174.597 56.4936 174.871 56.7455C175.145 56.9928 175.283 57.3437 175.283 57.7979C175.283 58.2477 175.145 58.5985 174.871 58.8503C174.597 59.1022 174.205 59.2281 173.697 59.2281H172.368V60.881C172.368 60.971 172.346 61.0429 172.301 61.0969C172.256 61.1464 172.186 61.1711 172.092 61.1711ZM172.368 58.7626H173.63C173.994 58.7626 174.268 58.6817 174.453 58.5198C174.642 58.3534 174.736 58.1127 174.736 57.7979C174.736 57.4786 174.642 57.238 174.453 57.076C174.268 56.9096 173.994 56.8264 173.63 56.8264H172.368V58.7626Z" fill="#9B9B9B"/>
<path d="M167.983 61.1848C167.516 61.1848 167.115 61.0858 166.782 60.8879C166.45 60.69 166.193 60.4089 166.013 60.0446C165.838 59.6803 165.75 59.2463 165.75 58.7426C165.75 58.3648 165.8 58.0275 165.899 57.7306C166.002 57.4293 166.148 57.1752 166.337 56.9683C166.531 56.7569 166.767 56.595 167.046 56.4825C167.324 56.3656 167.637 56.3071 167.983 56.3071C168.262 56.3071 168.528 56.3476 168.779 56.4286C169.031 56.505 169.249 56.6197 169.434 56.7726C169.492 56.8176 169.53 56.8693 169.548 56.9278C169.571 56.9818 169.573 57.0357 169.555 57.0897C169.542 57.1392 169.515 57.1819 169.474 57.2179C169.438 57.2494 169.393 57.2651 169.339 57.2651C169.285 57.2651 169.225 57.2426 169.157 57.1977C168.995 57.0672 168.818 56.9705 168.624 56.9076C168.431 56.8446 168.222 56.8131 167.997 56.8131C167.641 56.8131 167.34 56.8896 167.093 57.0425C166.845 57.1909 166.659 57.409 166.533 57.6969C166.407 57.9847 166.344 58.3333 166.344 58.7426C166.344 59.1519 166.407 59.5027 166.533 59.795C166.659 60.0829 166.845 60.3032 167.093 60.4562C167.34 60.6046 167.641 60.6788 167.997 60.6788C168.217 60.6788 168.426 60.6473 168.624 60.5843C168.822 60.5169 169.004 60.4179 169.171 60.2875C169.238 60.2425 169.299 60.2223 169.353 60.2268C169.407 60.2268 169.452 60.2425 169.488 60.274C169.524 60.3055 169.548 60.346 169.562 60.3954C169.58 60.4449 169.58 60.4966 169.562 60.5506C169.548 60.6046 169.515 60.6518 169.461 60.6923C169.272 60.8542 169.049 60.9779 168.793 61.0633C168.541 61.1443 168.271 61.1848 167.983 61.1848Z" fill="#9B9B9B"/>
<path d="M163.121 61.1715C163.031 61.1715 162.961 61.1467 162.912 61.0972C162.867 61.0433 162.844 60.9713 162.844 60.8814V56.6109C162.844 56.5164 162.867 56.4445 162.912 56.395C162.961 56.3455 163.031 56.3208 163.121 56.3208C163.211 56.3208 163.278 56.3455 163.323 56.395C163.373 56.4445 163.397 56.5164 163.397 56.6109V60.8814C163.397 60.9713 163.375 61.0433 163.33 61.0972C163.285 61.1467 163.215 61.1715 163.121 61.1715Z" fill="#9B9B9B"/>
<path d="M158.772 61.1848C158.264 61.1848 157.834 61.0881 157.484 60.8947C157.137 60.7013 156.874 60.4224 156.694 60.0581C156.514 59.6938 156.424 59.2576 156.424 58.7493C156.424 58.3715 156.474 58.032 156.573 57.7306C156.676 57.4293 156.825 57.1752 157.018 56.9683C157.216 56.7569 157.454 56.595 157.733 56.4825C158.016 56.3656 158.336 56.3071 158.691 56.3071C158.974 56.3071 159.249 56.3476 159.514 56.4286C159.78 56.505 160.016 56.6287 160.223 56.7996C160.277 56.8401 160.31 56.8851 160.324 56.9345C160.337 56.984 160.335 57.0335 160.317 57.083C160.303 57.1324 160.279 57.1752 160.243 57.2111C160.211 57.2426 160.169 57.2606 160.115 57.2651C160.065 57.2696 160.013 57.2539 159.959 57.2179C159.775 57.074 159.579 56.9705 159.372 56.9076C159.166 56.8401 158.936 56.8064 158.684 56.8064C158.325 56.8064 158.019 56.8828 157.767 57.0357C157.519 57.1887 157.331 57.409 157.2 57.6969C157.074 57.9847 157.011 58.3355 157.011 58.7493C157.011 59.379 157.157 59.8602 157.45 60.1931C157.747 60.5259 158.192 60.6923 158.786 60.6923C159.001 60.6923 159.213 60.672 159.42 60.6316C159.627 60.5866 159.822 60.5259 160.007 60.4494L159.885 60.7665V59.0866H158.92C158.84 59.0866 158.779 59.0664 158.738 59.0259C158.698 58.9854 158.678 58.9315 158.678 58.864C158.678 58.7921 158.698 58.7381 158.738 58.7021C158.779 58.6661 158.84 58.6481 158.92 58.6481H160.128C160.205 58.6481 160.263 58.6684 160.303 58.7088C160.344 58.7493 160.364 58.8078 160.364 58.8843V60.6451C160.364 60.7125 160.353 60.7687 160.33 60.8137C160.308 60.8587 160.27 60.8924 160.216 60.9149C160.027 60.9914 159.8 61.0566 159.534 61.1106C159.274 61.16 159.019 61.1848 158.772 61.1848Z" fill="#9B9B9B"/>
<path d="M152.075 61.1848C151.634 61.1848 151.25 61.0858 150.921 60.8879C150.597 60.6855 150.346 60.4022 150.166 60.0379C149.99 59.6736 149.903 59.2418 149.903 58.7426C149.903 58.3648 149.952 58.0275 150.051 57.7306C150.154 57.4293 150.301 57.1752 150.49 56.9683C150.678 56.7569 150.906 56.595 151.171 56.4825C151.441 56.3656 151.742 56.3071 152.075 56.3071C152.525 56.3071 152.911 56.4061 153.235 56.604C153.564 56.8019 153.815 57.083 153.991 57.4473C154.171 57.8071 154.261 58.2366 154.261 58.7358C154.261 59.1136 154.209 59.4532 154.106 59.7545C154.002 60.0559 153.856 60.3122 153.667 60.5236C153.478 60.735 153.249 60.8992 152.979 61.0161C152.714 61.1286 152.412 61.1848 152.075 61.1848ZM152.075 60.6923C152.417 60.6923 152.705 60.6158 152.938 60.4629C153.177 60.31 153.359 60.0874 153.485 59.795C153.611 59.5027 153.674 59.1519 153.674 58.7426C153.674 58.1264 153.534 57.6497 153.256 57.3123C152.981 56.9705 152.588 56.7996 152.075 56.7996C151.742 56.7996 151.457 56.8761 151.218 57.029C150.984 57.1819 150.804 57.4045 150.678 57.6969C150.552 57.9847 150.49 58.3333 150.49 58.7426C150.49 59.3543 150.629 59.8332 150.908 60.1796C151.187 60.5214 151.576 60.6923 152.075 60.6923Z" fill="#9B9B9B"/>
<path d="M145.592 61.1244C145.502 61.1244 145.433 61.0997 145.383 61.0502C145.334 60.9962 145.309 60.9243 145.309 60.8343V56.6246C145.309 56.5301 145.332 56.4582 145.377 56.4087C145.426 56.3592 145.496 56.3345 145.586 56.3345C145.676 56.3345 145.743 56.3592 145.788 56.4087C145.838 56.4582 145.862 56.5301 145.862 56.6246V60.6387H148.075C148.156 60.6387 148.219 60.6612 148.264 60.7061C148.309 60.7466 148.331 60.8051 148.331 60.8815C148.331 60.958 148.309 61.0187 148.264 61.0637C148.219 61.1042 148.156 61.1244 148.075 61.1244H145.592Z" fill="#9B9B9B"/>
<path d="M138.277 61.1715C138.187 61.1715 138.117 61.1467 138.068 61.0972C138.023 61.0433 138 60.9691 138 60.8746V58.6618L138.122 59.0463L136.428 56.7121C136.388 56.6536 136.368 56.5952 136.368 56.5367C136.372 56.4737 136.397 56.422 136.442 56.3815C136.487 56.341 136.545 56.3208 136.617 56.3208C136.68 56.3208 136.736 56.3365 136.786 56.368C136.835 56.395 136.88 56.44 136.921 56.503L138.358 58.4864H138.216L139.653 56.503C139.703 56.4355 139.75 56.3883 139.795 56.3613C139.84 56.3343 139.894 56.3208 139.957 56.3208C140.029 56.3208 140.085 56.341 140.125 56.3815C140.166 56.4175 140.186 56.467 140.186 56.5299C140.191 56.5884 140.17 56.6514 140.125 56.7188L138.439 59.0463L138.554 58.6618V60.8746C138.554 61.0725 138.461 61.1715 138.277 61.1715Z" fill="#9B9B9B"/>
<path d="M131.341 61.1239C131.242 61.1239 131.166 61.0991 131.112 61.0497C131.062 60.9957 131.038 60.9192 131.038 60.8203V56.6713C131.038 56.5723 131.062 56.4981 131.112 56.4486C131.166 56.3947 131.242 56.3677 131.341 56.3677H132.94C133.268 56.3677 133.545 56.4171 133.77 56.5161C133.999 56.6105 134.175 56.75 134.296 56.9344C134.418 57.1188 134.478 57.3437 134.478 57.609C134.478 57.9059 134.391 58.1532 134.215 58.3511C134.044 58.549 133.81 58.6794 133.514 58.7424V58.648C133.851 58.6884 134.114 58.8099 134.303 59.0123C134.496 59.2147 134.593 59.4823 134.593 59.8151C134.593 60.2379 134.456 60.5617 134.181 60.7866C133.907 61.0114 133.52 61.1239 133.021 61.1239H131.341ZM131.577 60.6786H132.967C133.327 60.6786 133.597 60.6067 133.777 60.4627C133.957 60.3188 134.046 60.1007 134.046 59.8083C134.046 59.5115 133.957 59.2934 133.777 59.1539C133.597 59.01 133.327 58.9381 132.967 58.9381H131.577V60.6786ZM131.577 58.4928H132.859C133.21 58.4928 133.475 58.4208 133.655 58.2769C133.84 58.133 133.932 57.9261 133.932 57.6562C133.932 57.3774 133.84 57.1682 133.655 57.0288C133.475 56.8849 133.21 56.8129 132.859 56.8129H131.577V58.4928Z" fill="#9B9B9B"/>
<path d="M121.896 61.1239C121.797 61.1239 121.72 61.0991 121.666 61.0497C121.617 60.9957 121.592 60.9192 121.592 60.8203V56.6713C121.592 56.5723 121.617 56.4981 121.666 56.4486C121.72 56.3947 121.797 56.3677 121.896 56.3677H123.198C123.967 56.3677 124.561 56.5701 124.979 56.9749C125.397 57.3796 125.606 57.9688 125.606 58.7424C125.606 59.1292 125.552 59.471 125.444 59.7679C125.341 60.0602 125.186 60.3076 124.979 60.51C124.772 60.7124 124.52 60.8653 124.223 60.9687C123.927 61.0722 123.585 61.1239 123.198 61.1239H121.896ZM122.145 60.6516H123.157C123.472 60.6516 123.744 60.6112 123.974 60.5302C124.208 60.4492 124.401 60.3301 124.554 60.1726C124.711 60.0152 124.828 59.8173 124.905 59.579C124.981 59.3361 125.019 59.0572 125.019 58.7424C125.019 58.1082 124.864 57.6337 124.554 57.3189C124.244 56.9996 123.778 56.8399 123.157 56.8399H122.145V60.6516Z" fill="#9B9B9B"/>
<path d="M116.613 61.1239C116.514 61.1239 116.437 61.0991 116.383 61.0497C116.334 60.9957 116.309 60.9192 116.309 60.8203V56.6713C116.309 56.5723 116.334 56.4981 116.383 56.4486C116.437 56.3947 116.514 56.3677 116.613 56.3677H119.122C119.199 56.3677 119.257 56.3879 119.298 56.4284C119.338 56.4689 119.358 56.5251 119.358 56.5971C119.358 56.6735 119.338 56.732 119.298 56.7725C119.257 56.8129 119.199 56.8332 119.122 56.8332H116.849V58.4793H118.981C119.057 58.4793 119.116 58.4995 119.156 58.54C119.197 58.576 119.217 58.6322 119.217 58.7087C119.217 58.7851 119.197 58.8436 119.156 58.8841C119.116 58.9246 119.057 58.9448 118.981 58.9448H116.849V60.6584H119.122C119.199 60.6584 119.257 60.6786 119.298 60.7191C119.338 60.7596 119.358 60.8158 119.358 60.8878C119.358 60.9642 119.338 61.0227 119.298 61.0632C119.257 61.1036 119.199 61.1239 119.122 61.1239H116.613Z" fill="#9B9B9B"/>
<path d="M110.724 61.1711C110.634 61.1711 110.565 61.1464 110.515 61.0969C110.47 61.0429 110.448 60.971 110.448 60.881V56.651C110.448 56.5566 110.472 56.4869 110.522 56.4419C110.571 56.3924 110.641 56.3677 110.731 56.3677H112.33C112.838 56.3677 113.23 56.4869 113.504 56.7252C113.778 56.9636 113.915 57.3032 113.915 57.7439C113.915 58.0228 113.852 58.2657 113.727 58.4726C113.605 58.6749 113.425 58.8301 113.187 58.9381C112.948 59.0415 112.663 59.0932 112.33 59.0932L112.397 59.0055H112.532C112.708 59.0055 112.861 59.0505 112.991 59.1404C113.122 59.2304 113.241 59.3743 113.349 59.5722L113.996 60.7798C114.032 60.8428 114.048 60.9058 114.044 60.9687C114.044 61.0272 114.023 61.0767 113.983 61.1171C113.942 61.1531 113.884 61.1711 113.807 61.1711C113.731 61.1711 113.668 61.1531 113.619 61.1171C113.569 61.0812 113.526 61.0294 113.49 60.962L112.755 59.5992C112.652 59.4058 112.532 59.2776 112.397 59.2147C112.263 59.1472 112.085 59.1135 111.864 59.1135H111.001V60.881C111.001 60.971 110.978 61.0429 110.933 61.0969C110.889 61.1464 110.819 61.1711 110.724 61.1711ZM111.001 58.6749H112.249C112.618 58.6749 112.897 58.5985 113.086 58.4456C113.274 58.2881 113.369 58.0543 113.369 57.7439C113.369 57.4426 113.274 57.2155 113.086 57.0626C112.897 56.9051 112.618 56.8264 112.249 56.8264H111.001V58.6749Z" fill="#9B9B9B"/>
<path d="M105.468 61.1239C105.369 61.1239 105.293 61.0991 105.239 61.0497C105.189 60.9957 105.165 60.9192 105.165 60.8203V56.6713C105.165 56.5723 105.189 56.4981 105.239 56.4486C105.293 56.3947 105.369 56.3677 105.468 56.3677H107.978C108.054 56.3677 108.113 56.3879 108.153 56.4284C108.194 56.4689 108.214 56.5251 108.214 56.5971C108.214 56.6735 108.194 56.732 108.153 56.7725C108.113 56.8129 108.054 56.8332 107.978 56.8332H105.704V58.4793H107.836C107.913 58.4793 107.971 58.4995 108.012 58.54C108.052 58.576 108.072 58.6322 108.072 58.7087C108.072 58.7851 108.052 58.8436 108.012 58.8841C107.971 58.9246 107.913 58.9448 107.836 58.9448H105.704V60.6584H107.978C108.054 60.6584 108.113 60.6786 108.153 60.7191C108.194 60.7596 108.214 60.8158 108.214 60.8878C108.214 60.9642 108.194 61.0227 108.153 61.0632C108.113 61.1036 108.054 61.1239 107.978 61.1239H105.468Z" fill="#9B9B9B"/>
<path d="M97.9139 61.1715C97.8329 61.1715 97.7677 61.1512 97.7183 61.1107C97.6688 61.0658 97.6283 61.0006 97.5968 60.9151L96.1059 56.6581C96.0744 56.5637 96.0811 56.485 96.1261 56.422C96.1756 56.3545 96.252 56.3208 96.3555 56.3208C96.4319 56.3208 96.4927 56.341 96.5376 56.3815C96.5826 56.4175 96.6208 56.476 96.6523 56.5569L98.0488 60.652H97.8127L99.2362 56.5772C99.2677 56.4917 99.3059 56.4287 99.3509 56.3883C99.3959 56.3433 99.4566 56.3208 99.533 56.3208C99.605 56.3208 99.6612 56.3433 99.7017 56.3883C99.7467 56.4287 99.7849 56.4917 99.8164 56.5772L101.22 60.652H101.01L102.42 56.5569C102.443 56.4805 102.477 56.422 102.522 56.3815C102.571 56.341 102.634 56.3208 102.711 56.3208C102.805 56.3208 102.875 56.3523 102.92 56.4153C102.965 56.4782 102.969 56.5592 102.933 56.6581L101.436 60.9151C101.404 61.0006 101.364 61.0658 101.314 61.1107C101.269 61.1512 101.204 61.1715 101.118 61.1715C101.037 61.1715 100.972 61.1512 100.923 61.1107C100.878 61.0658 100.837 61.0006 100.801 60.9151L99.4453 57.0089H99.5938L98.2242 60.9151C98.1928 61.0006 98.1545 61.0658 98.1096 61.1107C98.0646 61.1512 97.9994 61.1715 97.9139 61.1715Z" fill="#9B9B9B"/>
<path d="M91.9717 61.1848C91.5309 61.1848 91.1463 61.0858 90.818 60.8879C90.4942 60.6855 90.2423 60.4022 90.0624 60.0379C89.887 59.6736 89.7993 59.2418 89.7993 58.7426C89.7993 58.3648 89.8488 58.0275 89.9477 57.7306C90.0512 57.4293 90.1974 57.1752 90.3863 56.9683C90.5752 56.7569 90.8023 56.595 91.0676 56.4825C91.3375 56.3656 91.6388 56.3071 91.9717 56.3071C92.4214 56.3071 92.8082 56.4061 93.132 56.604C93.4604 56.8019 93.7122 57.083 93.8876 57.4473C94.0675 57.8071 94.1575 58.2366 94.1575 58.7358C94.1575 59.1136 94.1058 59.4532 94.0023 59.7545C93.8989 60.0559 93.7527 60.3122 93.5638 60.5236C93.3749 60.735 93.1455 60.8992 92.8757 61.0161C92.6103 61.1286 92.309 61.1848 91.9717 61.1848ZM91.9717 60.6923C92.3135 60.6923 92.6013 60.6158 92.8352 60.4629C93.0736 60.31 93.2557 60.0874 93.3817 59.795C93.5076 59.5027 93.5706 59.1519 93.5706 58.7426C93.5706 58.1264 93.4311 57.6497 93.1523 57.3123C92.8779 56.9705 92.4844 56.7996 91.9717 56.7996C91.6388 56.7996 91.3532 56.8761 91.1149 57.029C90.881 57.1819 90.7011 57.4045 90.5752 57.6969C90.4492 57.9847 90.3863 58.3333 90.3863 58.7426C90.3863 59.3543 90.5257 59.8332 90.8045 60.1796C91.0834 60.5214 91.4724 60.6923 91.9717 60.6923Z" fill="#9B9B9B"/>
<path d="M84.6853 61.1711C84.5953 61.1711 84.5256 61.1464 84.4762 61.0969C84.4312 61.0429 84.4087 60.971 84.4087 60.881V56.651C84.4087 56.5566 84.4334 56.4869 84.4829 56.4419C84.5324 56.3924 84.6021 56.3677 84.692 56.3677H86.2909C86.7992 56.3677 87.1905 56.4936 87.4648 56.7455C87.7392 56.9928 87.8763 57.3437 87.8763 57.7979C87.8763 58.2477 87.7392 58.5985 87.4648 58.8503C87.1905 59.1022 86.7992 59.2281 86.2909 59.2281H84.9619V60.881C84.9619 60.971 84.9394 61.0429 84.8944 61.0969C84.8495 61.1464 84.7797 61.1711 84.6853 61.1711ZM84.9619 58.7626H86.2235C86.5878 58.7626 86.8621 58.6817 87.0465 58.5198C87.2354 58.3534 87.3299 58.1127 87.3299 57.7979C87.3299 57.4786 87.2354 57.238 87.0465 57.076C86.8621 56.9096 86.5878 56.8264 86.2235 56.8264H84.9619V58.7626Z" fill="#9B9B9B"/>
<path opacity="0.9" d="M269.552 44.4669C272.013 42.049 272.013 38.1287 269.552 35.7108C267.091 33.2929 263.102 33.2929 260.641 35.7108C258.181 38.1287 258.181 42.049 260.641 44.4669C263.102 46.8849 267.091 46.8849 269.552 44.4669Z" fill="#9B9B9B"/>
<path opacity="0.9" d="M265.009 35.5649C265.009 31.6204 268.206 28.4229 272.151 28.4229C276.095 28.4229 279.293 31.6204 279.293 35.5649V44.3873C279.293 48.3318 276.095 51.5294 272.151 51.5294C268.206 51.5294 265.009 48.3318 265.009 44.3873V35.5649Z" fill="#E3E3E3"/>
<path opacity="0.9" d="M275.09 31.7836C275.09 27.8392 278.288 24.6416 282.232 24.6416C286.177 24.6416 289.374 27.8392 289.374 31.7836V47.7481C289.374 51.6925 286.177 54.8901 282.232 54.8901C278.288 54.8901 275.09 51.6925 275.09 47.7481V31.7836Z" fill="#9B9B9B"/>
<path opacity="0.9" d="M284.754 35.5649C284.754 31.6204 287.952 28.4229 291.896 28.4229C295.841 28.4229 299.038 31.6204 299.038 35.5649V44.3873C299.038 48.3318 295.841 51.5294 291.896 51.5294C287.952 51.5294 284.754 48.3318 284.754 44.3873V35.5649Z" fill="#E3E3E3"/>
<path opacity="0.9" d="M303.581 44.4669C306.042 42.049 306.042 38.1287 303.581 35.7108C301.121 33.2929 297.131 33.2929 294.671 35.7108C292.21 38.1287 292.21 42.049 294.671 44.4669C297.131 46.8849 301.121 46.8849 303.581 44.4669Z" fill="#9B9B9B"/>
<rect x="246.864" y="40.5254" width="70.3203" height="14.0244" rx="7.0122" fill="white" stroke="#9B9B9B" stroke-width="0.679742"/>
<path d="M253.661 44.8677H254.722L257.254 50.689H255.807L255.305 49.4557H253.044L252.559 50.689H251.145L253.661 44.8677ZM254.154 46.5615L253.447 48.3704H254.87L254.154 46.5615Z" fill="#9B9B9B"/>
<path d="M263.159 48.4444C263.159 48.7897 263.107 49.1076 263.003 49.3981C262.899 49.6886 262.743 49.9408 262.534 50.1546C262.332 50.3683 262.077 50.5355 261.77 50.6561C261.463 50.7767 261.109 50.837 260.709 50.837C260.303 50.837 259.947 50.7767 259.64 50.6561C259.333 50.5355 259.076 50.3683 258.867 50.1546C258.665 49.9408 258.511 49.6886 258.407 49.3981C258.303 49.1076 258.251 48.7897 258.251 48.4444V44.8677H259.533V48.395C259.533 48.5759 259.561 48.7431 259.616 48.8966C259.676 49.0501 259.758 49.1843 259.862 49.2995C259.966 49.4091 260.09 49.4968 260.232 49.5626C260.38 49.6229 260.539 49.653 260.709 49.653C260.879 49.653 261.035 49.6229 261.178 49.5626C261.32 49.4968 261.444 49.4091 261.548 49.2995C261.652 49.1843 261.731 49.0501 261.786 48.8966C261.846 48.7431 261.877 48.5759 261.877 48.395V44.8677H263.159V48.4444Z" fill="#9B9B9B"/>
<path d="M265.883 46.0024H264.222V44.8677H268.826V46.0024H267.165V50.689H265.883V46.0024Z" fill="#9B9B9B"/>
<path d="M269.576 47.7784C269.576 47.3124 269.653 46.8904 269.806 46.5122C269.965 46.1339 270.185 45.8133 270.464 45.5502C270.744 45.2816 271.075 45.076 271.459 44.9335C271.843 44.791 272.262 44.7197 272.717 44.7197C273.172 44.7197 273.591 44.791 273.975 44.9335C274.359 45.076 274.69 45.2816 274.97 45.5502C275.249 45.8133 275.466 46.1339 275.619 46.5122C275.778 46.8904 275.858 47.3124 275.858 47.7784C275.858 48.2443 275.778 48.6664 275.619 49.0446C275.466 49.4228 275.249 49.7462 274.97 50.0148C274.69 50.2779 274.359 50.4807 273.975 50.6232C273.591 50.7657 273.172 50.837 272.717 50.837C272.262 50.837 271.843 50.7657 271.459 50.6232C271.075 50.4807 270.744 50.2779 270.464 50.0148C270.185 49.7462 269.965 49.4228 269.806 49.0446C269.653 48.6664 269.576 48.2443 269.576 47.7784ZM270.908 47.7784C270.908 48.0524 270.949 48.3046 271.031 48.5348C271.119 48.7595 271.242 48.9569 271.401 49.1268C271.56 49.2912 271.749 49.42 271.969 49.5132C272.193 49.6064 272.443 49.653 272.717 49.653C272.991 49.653 273.238 49.6064 273.457 49.5132C273.682 49.42 273.874 49.2912 274.032 49.1268C274.191 48.9569 274.312 48.7595 274.394 48.5348C274.482 48.3046 274.526 48.0524 274.526 47.7784C274.526 47.5098 274.482 47.2604 274.394 47.0301C274.312 46.7999 274.191 46.6026 274.032 46.4382C273.874 46.2682 273.682 46.1367 273.457 46.0435C273.238 45.9503 272.991 45.9037 272.717 45.9037C272.443 45.9037 272.193 45.9503 271.969 46.0435C271.749 46.1367 271.56 46.2682 271.401 46.4382C271.242 46.6026 271.119 46.7999 271.031 47.0301C270.949 47.2604 270.908 47.5098 270.908 47.7784Z" fill="#9B9B9B"/>
<path d="M288.116 44.8677H289.398V49.505H291.775V50.689H288.116V44.8677Z" fill="#9B9B9B"/>
<path d="M292.581 47.7784C292.581 47.3124 292.658 46.8904 292.811 46.5122C292.97 46.1339 293.19 45.8133 293.469 45.5502C293.749 45.2816 294.08 45.076 294.464 44.9335C294.848 44.791 295.267 44.7197 295.722 44.7197C296.177 44.7197 296.596 44.791 296.98 44.9335C297.364 45.076 297.695 45.2816 297.975 45.5502C298.255 45.8133 298.471 46.1339 298.625 46.5122C298.783 46.8904 298.863 47.3124 298.863 47.7784C298.863 48.2443 298.783 48.6664 298.625 49.0446C298.471 49.4228 298.255 49.7462 297.975 50.0148C297.695 50.2779 297.364 50.4807 296.98 50.6232C296.596 50.7657 296.177 50.837 295.722 50.837C295.267 50.837 294.848 50.7657 294.464 50.6232C294.08 50.4807 293.749 50.2779 293.469 50.0148C293.19 49.7462 292.97 49.4228 292.811 49.0446C292.658 48.6664 292.581 48.2443 292.581 47.7784ZM293.913 47.7784C293.913 48.0524 293.954 48.3046 294.037 48.5348C294.124 48.7595 294.248 48.9569 294.407 49.1268C294.566 49.2912 294.755 49.42 294.974 49.5132C295.199 49.6064 295.448 49.653 295.722 49.653C295.996 49.653 296.243 49.6064 296.462 49.5132C296.687 49.42 296.879 49.2912 297.038 49.1268C297.197 48.9569 297.317 48.7595 297.399 48.5348C297.487 48.3046 297.531 48.0524 297.531 47.7784C297.531 47.5098 297.487 47.2604 297.399 47.0301C297.317 46.7999 297.197 46.6026 297.038 46.4382C296.879 46.2682 296.687 46.1367 296.462 46.0435C296.243 45.9503 295.996 45.9037 295.722 45.9037C295.448 45.9037 295.199 45.9503 294.974 46.0435C294.755 46.1367 294.566 46.2682 294.407 46.4382C294.248 46.6026 294.124 46.7999 294.037 47.0301C293.954 47.2604 293.913 47.5098 293.913 47.7784Z" fill="#9B9B9B"/>
<path d="M305.054 48.4444C305.054 48.7897 305.002 49.1076 304.898 49.3981C304.794 49.6886 304.638 49.9408 304.43 50.1546C304.227 50.3683 303.972 50.5355 303.665 50.6561C303.358 50.7767 303.004 50.837 302.604 50.837C302.199 50.837 301.842 50.7767 301.535 50.6561C301.228 50.5355 300.971 50.3683 300.763 50.1546C300.56 49.9408 300.406 49.6886 300.302 49.3981C300.198 49.1076 300.146 48.7897 300.146 48.4444V44.8677H301.429V48.395C301.429 48.5759 301.456 48.7431 301.511 48.8966C301.571 49.0501 301.653 49.1843 301.757 49.2995C301.862 49.4091 301.985 49.4968 302.127 49.5626C302.275 49.6229 302.434 49.653 302.604 49.653C302.774 49.653 302.93 49.6229 303.073 49.5626C303.215 49.4968 303.339 49.4091 303.443 49.2995C303.547 49.1843 303.627 49.0501 303.681 48.8966C303.742 48.7431 303.772 48.5759 303.772 48.395V44.8677H305.054V48.4444Z" fill="#9B9B9B"/>
<path d="M306.651 44.8677H308.575C309.041 44.8677 309.482 44.9198 309.899 45.0239C310.321 45.1281 310.688 45.298 311.001 45.5337C311.313 45.7639 311.56 46.0654 311.741 46.4382C311.927 46.8109 312.02 47.2631 312.02 47.7948C312.02 48.2662 311.93 48.6828 311.749 49.0446C311.574 49.4009 311.335 49.7023 311.034 49.949C310.732 50.1902 310.384 50.3738 309.99 50.4999C309.595 50.626 309.181 50.689 308.748 50.689H306.651V44.8677ZM307.934 49.505H308.6C308.896 49.505 309.17 49.4749 309.422 49.4146C309.68 49.3543 309.902 49.2556 310.088 49.1186C310.275 48.9761 310.42 48.7924 310.524 48.5677C310.634 48.3375 310.688 48.0579 310.688 47.729C310.688 47.444 310.634 47.1973 310.524 46.989C310.42 46.7753 310.277 46.5999 310.096 46.4628C309.916 46.3258 309.702 46.2244 309.455 46.1586C309.214 46.0873 308.959 46.0517 308.69 46.0517H307.934V49.505Z" fill="#9B9B9B"/>
<path d="M284.63 45.3305C284.428 45.0881 284.178 44.9019 283.879 44.772C283.589 44.6422 283.251 44.5772 282.865 44.5772C282.479 44.5772 282.119 44.6508 281.785 44.798C281.46 44.9452 281.175 45.153 280.929 45.4214C280.692 45.6812 280.503 45.9929 280.363 46.3565C280.231 46.7202 280.165 47.1141 280.165 47.5384C280.165 47.9713 280.231 48.3696 280.363 48.7332C280.503 49.0882 280.692 49.3999 280.929 49.6683C281.166 49.9281 281.443 50.1316 281.759 50.2788C282.084 50.426 282.43 50.4995 282.799 50.4995C283.221 50.4995 283.594 50.413 283.919 50.2398C284.244 50.0666 284.511 49.8242 284.722 49.5125L286.434 50.7723C286.039 51.3178 285.539 51.7204 284.933 51.9801C284.327 52.2399 283.704 52.3698 283.063 52.3698C282.334 52.3698 281.662 52.2572 281.048 52.0321C280.433 51.807 279.902 51.4866 279.454 51.071C279.006 50.6467 278.655 50.1359 278.4 49.5385C278.155 48.941 278.032 48.2744 278.032 47.5384C278.032 46.8024 278.155 46.1357 278.4 45.5383C278.655 44.9409 279.006 44.4344 279.454 44.0188C279.902 43.5945 280.433 43.2698 281.048 43.0447C281.662 42.8196 282.334 42.707 283.063 42.707C283.326 42.707 283.598 42.733 283.879 42.785C284.169 42.8282 284.45 42.9018 284.722 43.0057C285.003 43.1096 285.271 43.2482 285.525 43.4213C285.78 43.5945 286.008 43.8066 286.21 44.0577L284.63 45.3305Z" fill="#9B9B9B"/>
<path d="M282.85 49.9257C282.578 49.9257 282.356 49.7089 282.356 49.4448V47.687C282.356 47.4219 282.579 47.2061 282.85 47.2061C283.123 47.2061 283.345 47.4229 283.345 47.687V49.4448C283.345 49.7098 283.122 49.9257 282.85 49.9257Z" fill="#9B9B9B"/>
<path d="M284.09 46.9482C284.225 46.2677 283.785 45.6067 283.107 45.4718C282.429 45.3368 281.771 45.779 281.636 46.4594C281.502 47.1398 281.942 47.8008 282.62 47.9358C283.298 48.0708 283.956 47.6286 284.09 46.9482Z" fill="#9B9B9B"/>
<path d="M283.345 46.7113C283.345 46.9844 283.124 47.2058 282.85 47.2058C282.577 47.2058 282.356 46.9844 282.356 46.7113C282.356 46.4381 282.577 46.2168 282.85 46.2168C283.124 46.2168 283.345 46.4381 283.345 46.7113Z" fill="#E3E3E3"/>
<path d="M270.213 59.8227C271.235 59.8227 272.102 60.5035 272.39 61.4379H274.976C275.225 61.4379 275.428 61.2339 275.428 60.9831V57.2658C275.428 56.8921 275.729 56.5892 276.1 56.5892C276.472 56.5892 276.773 56.8921 276.773 57.2658V60.9831C276.773 61.98 275.967 62.7911 274.976 62.7911H272.39C272.102 63.7255 271.235 64.4062 270.213 64.4062C268.958 64.4062 267.936 63.3782 267.936 62.1145C267.936 60.8508 268.958 59.8227 270.213 59.8227ZM270.213 63.0531C270.728 63.0531 271.146 62.6321 271.146 62.1145C271.146 61.5969 270.728 61.1759 270.213 61.1759C269.699 61.1759 269.281 61.5969 269.281 62.1145C269.281 62.6321 269.699 63.0531 270.213 63.0531Z" fill="#9B9B9B"/>
<path d="M282.835 56.5894C283.269 56.5894 283.621 56.9416 283.621 57.376V61.148C284.708 61.4843 285.499 62.4983 285.499 63.6939C285.499 65.1632 284.304 66.3584 282.835 66.3584C281.366 66.3584 280.17 65.1632 280.17 63.6939C280.17 62.4984 280.962 61.4843 282.048 61.148V57.376C282.048 56.9416 282.4 56.5894 282.835 56.5894ZM281.744 63.6939C281.744 64.2956 282.233 64.7852 282.835 64.7852C283.437 64.7852 283.926 64.2957 283.926 63.6939C283.926 63.0921 283.437 62.6026 282.835 62.6026C282.233 62.6026 281.744 63.0922 281.744 63.6939Z" fill="#9B9B9B"/>
<path d="M295.228 64.4062C294.206 64.4062 293.339 63.7255 293.052 62.7911H290.465C289.474 62.7911 288.668 61.98 288.668 60.9831V57.2658C288.668 56.8921 288.969 56.5892 289.341 56.5892C289.712 56.5892 290.013 56.8921 290.013 57.2658V60.9831C290.013 61.2339 290.216 61.4379 290.465 61.4379H293.052C293.339 60.5035 294.206 59.8227 295.228 59.8227C296.483 59.8227 297.505 60.8508 297.505 62.1145C297.505 63.3782 296.483 64.4062 295.228 64.4062ZM295.228 61.1759C294.713 61.1759 294.295 61.5969 294.295 62.1145C294.295 62.6321 294.713 63.0531 295.228 63.0531C295.742 63.0531 296.16 62.6321 296.16 62.1145C296.16 61.5969 295.742 61.1759 295.228 61.1759Z" fill="#9B9B9B"/>
<path d="M410.93 24C412.976 27.5833 415.022 31.1666 417.068 34.7224C412.976 34.75 408.857 34.75 404.765 34.7775C404.157 34.7775 403.576 34.75 402.968 34.75C399.457 34.7224 395.918 34.7224 392.406 34.7224C393.761 32.407 395.116 30.1192 396.443 27.8038C397.162 26.5635 397.825 25.2679 398.489 24C402.636 24 406.783 24 410.93 24Z" fill="#9B9B9B"/>
<path d="M398.489 24C397.798 25.2679 397.162 26.5359 396.443 27.8038C395.116 30.1192 393.761 32.407 392.407 34.7224C392.351 34.7775 392.268 34.8051 392.185 34.8051C388.121 34.7775 384.057 34.75 379.993 34.75C380.795 33.2615 381.596 31.7731 382.426 30.3122C383.615 28.1897 384.831 26.0949 386.048 24C390.195 24 394.342 24 398.489 24Z" fill="#ADADAD"/>
<path d="M367.524 55.6984C367.8 55.3401 368.105 55.0093 368.326 54.651C370.012 51.7568 371.699 48.8626 373.385 45.9408C373.413 45.8581 373.523 45.8305 373.579 45.7754C373.8 45.9132 374.076 45.9959 374.187 46.1889C374.795 47.1536 375.376 48.1183 375.956 49.0831C377.118 51.0952 378.251 53.1074 379.412 55.092C379.578 55.3401 379.938 55.4779 380.214 55.6709C379.993 56.1395 379.772 56.6356 379.523 57.1042C377.975 59.833 376.426 62.5619 374.878 65.2631C374.629 65.7317 374.325 66.1452 373.938 66.724C372.86 64.9048 371.837 63.1683 370.842 61.4593C369.902 59.8606 368.962 58.2343 368.022 56.6356C367.911 56.4427 367.69 56.3324 367.524 56.1946C367.524 56.0568 367.524 55.8914 367.524 55.6984Z" fill="#EFEFEF"/>
<path d="M563.571 37.5342C563.377 37.7822 563.184 38.0303 562.935 38.3611C562.714 38.113 562.52 37.8925 562.271 37.6169C562.188 38.0579 562.106 38.4438 561.967 39.0502C561.248 38.2233 561.774 37.3963 561.414 36.6246C561.193 36.6521 560.889 36.6521 560.557 36.7072C560.53 37.4515 560.474 38.1406 560.447 38.8572C559.7 38.306 560.032 37.5893 559.866 36.9002C559.673 36.7624 559.396 36.597 559.12 36.4316C559.147 36.3765 559.175 36.2938 559.175 36.2387C560.143 36.2387 561.083 36.2387 562.161 36.2387C562.354 36.5143 562.603 36.8726 562.852 37.231C563.46 37.0931 563.267 36.0181 564.124 36.2111C564.207 36.9278 564.29 37.672 564.373 38.3887C564.373 38.5816 564.373 38.747 564.373 38.9399C564.179 38.8848 563.958 38.8572 563.681 38.8021C563.709 38.4162 563.709 38.0303 563.737 37.672C563.737 37.5893 563.737 37.5066 563.709 37.4239C563.681 37.3963 563.626 37.479 563.571 37.5342Z" fill="#9B9B9B"/>
<path d="M398.489 67.0002C398.489 66.9175 398.489 66.8348 398.489 66.7521C398.572 66.7246 398.682 66.697 398.765 66.6694C402.829 66.697 406.866 66.697 410.93 66.7246C410.93 66.8073 410.93 66.89 410.93 67.0002C406.783 67.0002 402.636 67.0002 398.489 67.0002Z" fill="#EFEFEF"/>
<path d="M564.372 38.3333C564.289 37.6166 564.206 36.8724 564.124 36.1557C564.206 36.0455 564.289 35.9628 564.372 35.8525C564.372 36.6795 564.372 37.5064 564.372 38.3333Z" fill="#909090"/>
<path d="M434.928 53.5762C434.928 57.1595 434.928 60.4397 434.928 63.83C433.407 63.83 431.942 63.83 430.394 63.83C430.366 63.582 430.283 63.2788 430.283 62.9755C430.283 57.1871 430.2 51.3987 430.311 45.6378C430.394 41.0897 432.716 36.7346 437.942 35.4391C442.531 34.309 446.678 35.1083 449.802 38.9122C454.143 44.2045 452.512 54.1551 444.218 56.0845C441.176 56.8012 438.273 56.3602 435.785 54.2929C435.592 54.1275 435.37 53.9621 434.928 53.5762ZM447.259 45.7205C447.231 45.307 447.203 44.8936 447.148 44.4801C446.789 41.641 444.715 39.6288 441.591 39.2705C439.352 39.0224 436.532 40.1525 435.398 42.9089C434.873 44.1769 434.817 45.5 434.956 46.823C435.453 51.0128 439.905 53.4384 443.72 51.6192C446.208 50.4339 447.176 48.3115 447.259 45.7205Z" fill="#9B9B9B"/>
<path d="M509.078 55.8087C507.862 55.9465 506.784 56.1395 505.678 56.1671C502.885 56.2222 500.065 56.3324 497.273 56.1946C495.918 56.1395 494.564 55.726 493.292 55.2023C490.555 54.0998 489.698 52.0876 489.863 49.2485C490.112 45.169 492.573 43.7357 496.526 43.3222C498.794 43.0741 501.116 43.2671 503.411 43.2671C503.715 43.2671 504.047 43.2671 504.351 43.2671C504.461 41.0895 503.494 39.6286 501.475 39.1601C498.932 38.5812 496.361 38.5536 493.9 39.6562C493.568 39.794 493.236 39.9594 492.905 40.0972C491.135 38.7466 491.273 36.762 493.264 35.8524C494.176 35.4389 495.199 35.1908 496.167 35.1081C498.517 34.8876 500.839 34.9428 503.162 35.5767C506.977 36.5966 509.078 39.2427 509.106 43.1293C509.134 47.0709 509.106 51.0126 509.106 54.9818C509.134 55.2023 509.106 55.4228 509.078 55.8087ZM504.517 46.8229C503.632 46.7126 502.83 46.5472 502.001 46.4921C500.176 46.3818 498.324 46.2716 496.554 46.878C495.199 47.3466 494.508 48.4216 494.536 49.8273C494.564 51.178 495.227 52.1703 496.609 52.5562C499.208 53.2453 501.835 53.0799 504.489 52.6113C504.517 50.6818 504.517 48.8626 504.517 46.8229Z" fill="#9B9B9B"/>
<path d="M477.339 45.7203C477.533 51.2331 473.054 56.36 466.28 56.4152C459.949 56.4703 455.083 51.7293 455.138 45.6376C455.166 39.5184 459.921 35.0255 466.28 35.0255C472.805 34.9979 477.56 40.0422 477.339 45.7203ZM466.225 39.1325C462.631 39.1325 459.977 41.9441 459.977 45.7479C459.977 49.4139 462.686 52.2806 466.17 52.2806C469.847 52.2806 472.501 49.5793 472.473 45.7203C472.473 41.1447 469.294 39.105 466.225 39.1325Z" fill="#9B9B9B"/>
<path d="M556.106 40.5662C553.507 38.9123 550.604 38.4162 547.563 38.6367C546.872 38.6918 546.181 38.8296 545.545 39.0777C544.522 39.436 544.052 40.1251 544.079 41.0348C544.107 41.9995 544.688 42.6059 545.545 42.7989C547.01 43.1296 548.503 43.3501 549.996 43.5982C551.406 43.8463 552.788 44.0944 554.198 44.37C554.558 44.4527 554.889 44.5905 555.249 44.7283C559.037 46.4097 559.866 51.1507 556.908 54.045C555.747 55.1751 554.336 55.7815 552.761 56.0571C548.226 56.8841 543.886 56.2501 539.739 54.293C539.545 54.2104 539.352 54.045 539.075 53.852C539.628 52.8322 540.181 51.8398 540.679 50.9302C542.586 51.454 544.383 52.0879 546.263 52.4738C548.116 52.8597 550.024 52.8873 551.876 52.3636C552.484 52.1706 553.175 51.7847 553.535 51.2886C554.309 50.1584 553.618 48.7251 552.097 48.3392C550.825 48.0085 549.471 47.8706 548.143 47.7052C546.374 47.4572 544.577 47.3469 542.891 46.6027C541.011 45.7758 539.711 44.4251 539.462 42.3027C539.213 39.9322 539.905 37.9751 541.978 36.5969C543.305 35.7149 544.826 35.3014 546.374 35.1361C548.945 34.888 551.516 34.9431 554.06 35.6046C554.724 35.77 555.387 36.0181 555.968 36.3489C558.014 37.479 558.069 39.1053 556.106 40.5662Z" fill="#9B9B9B"/>
<path d="M485.965 55.8086C484.389 55.8086 482.979 55.8086 481.458 55.8086C481.431 55.3952 481.375 54.9817 481.375 54.5958C481.375 45.9958 481.375 37.4234 481.375 28.8235C481.375 26.701 482.094 26.0119 484.223 26.1773C484.804 26.2049 485.384 26.3978 485.965 26.5081C485.965 36.3209 485.965 45.9958 485.965 55.8086Z" fill="#9B9B9B"/>
<path d="M423.123 45.5C422.791 46.134 422.487 46.7955 422.128 47.4295C420.33 50.4891 418.533 53.5211 416.736 56.5807C416.322 56.4705 415.907 56.3051 415.492 56.2775C411.926 56.25 408.387 56.25 404.82 56.25C404.82 56.1397 404.82 56.0295 404.793 55.9192C404.959 55.5884 405.097 55.2577 405.263 54.9545C407.087 51.8122 408.885 48.6699 410.709 45.5C414.884 45.5 419.003 45.5 423.123 45.5Z" fill="#909090"/>
<path d="M423.122 45.5C419.003 45.5 414.884 45.5 410.736 45.5C410.488 44.9763 410.239 44.425 409.962 43.9288C408.248 40.8692 406.506 37.8372 404.765 34.8051C408.856 34.7776 412.976 34.7776 417.068 34.75C419.058 38.1679 421.077 41.5859 423.067 45.0038C423.15 45.1141 423.095 45.3346 423.122 45.5Z" fill="#B7B7B7"/>
<path d="M518.478 55.809C516.902 55.809 515.437 55.809 513.889 55.809C513.861 55.4782 513.806 55.1199 513.778 54.7891C513.778 50.9853 513.778 47.1539 513.778 43.3501C513.778 42.661 513.778 41.9719 513.917 41.2828C514.552 37.6995 516.764 35.6322 520.663 35.1084C522.487 34.8604 524.34 34.9155 526.109 35.5495C528.404 36.3488 528.846 38.1405 527.187 39.9597C526.247 39.7392 525.335 39.3809 524.395 39.2982C523.372 39.2155 522.266 39.2155 521.271 39.4635C519.363 39.9873 518.7 41.5309 518.506 43.3501C518.423 44.1219 518.478 44.9212 518.478 45.693C518.478 48.5872 518.478 51.4815 518.478 54.3757C518.478 54.8443 518.478 55.2853 518.478 55.809Z" fill="#9B9B9B"/>
<path d="M404.848 56.25C408.414 56.25 411.981 56.25 415.52 56.2776C415.934 56.2776 416.349 56.4705 416.764 56.5808C415.05 59.5852 413.335 62.5897 411.649 65.5942C411.428 65.9801 411.179 66.366 410.958 66.7794C406.894 66.7519 402.857 66.7519 398.793 66.7243C398.876 66.4762 398.931 66.2006 399.069 65.9525C400.092 64.1884 401.088 62.3968 402.138 60.6327C402.995 59.1442 403.935 57.7109 404.848 56.25Z" fill="#9B9B9B"/>
<path d="M535.343 35.9906C535.343 42.6335 535.343 49.1662 535.343 55.8091C533.85 55.8091 532.385 55.8091 530.809 55.8091C530.781 55.3129 530.754 54.8719 530.754 54.4309C530.754 49.1386 530.836 43.8739 530.726 38.5816C530.671 35.5771 532.412 35.3566 534.431 35.7149C534.679 35.7425 534.956 35.8527 535.343 35.9906Z" fill="#9B9B9B"/>
<path d="M535.896 29.3198C535.896 30.9736 534.68 32.214 533.076 32.1865C531.5 32.1589 530.339 30.9736 530.311 29.3749C530.311 27.7211 531.528 26.4807 533.131 26.5083C534.707 26.5358 535.896 27.7486 535.896 29.3198Z" fill="#9B9B9B"/>
<path d="M563.571 37.534C563.626 37.4789 563.654 37.4238 563.709 37.3687C563.709 37.4513 563.709 37.534 563.737 37.6167C563.681 37.5892 563.626 37.5616 563.571 37.534Z" fill="#909090"/>
<path d="M404.848 56.25C403.936 57.7109 402.996 59.1442 402.111 60.6327C401.06 62.3968 400.065 64.1609 399.042 65.9525C398.904 66.173 398.848 66.4487 398.766 66.7243C398.683 66.7519 398.572 66.7794 398.489 66.807C396.388 63.2237 394.314 59.6128 392.213 56.0295C392.351 56.0295 392.517 56.0019 392.655 56.0019C396.637 56.0019 400.646 56.0019 404.627 56.0019C404.682 55.9743 404.737 55.9743 404.82 55.9468C404.82 56.0295 404.82 56.1397 404.848 56.25Z" fill="#949494"/>
<path d="M380.242 55.6987C379.965 55.5058 379.578 55.3955 379.44 55.1199C378.251 53.1353 377.145 51.1231 375.984 49.1109C375.431 48.1186 374.823 47.1539 374.214 46.2167C374.104 46.0237 373.8 45.9411 373.606 45.8032C373.717 45.6103 373.8 45.4449 373.91 45.252C377.974 45.252 382.011 45.252 386.075 45.252C386.186 45.2795 386.296 45.2795 386.407 45.3071H386.379C386.352 45.4725 386.324 45.6378 386.296 45.8032C385.909 46.2718 385.439 46.6853 385.135 47.209C383.449 49.993 381.845 52.8596 380.242 55.6987Z" fill="#9B9B9B"/>
<path d="M386.269 45.7754C386.296 45.6101 386.324 45.4447 386.352 45.2793C386.849 45.3069 387.347 45.362 387.845 45.362C391.301 45.3896 394.784 45.3896 398.24 45.4171C398.102 45.803 398.019 46.2165 397.825 46.5472C396.664 48.5594 395.475 50.5165 394.342 52.5562C393.734 53.6588 392.794 54.5959 392.683 55.9466C392.545 55.9466 392.379 55.9741 392.241 55.9741C390.222 52.5838 388.232 49.1658 386.269 45.7754Z" fill="#9B9B9B"/>
<path d="M386.047 45.2245C381.983 45.2245 377.947 45.2245 373.883 45.2245C374.961 43.2675 376.039 41.338 377.145 39.3809C377.726 38.3611 378.306 37.3136 378.914 36.2938C379.191 35.8252 379.55 35.4117 379.882 34.9707C380.131 35.2188 380.407 35.4393 380.601 35.7425C381.181 36.6797 381.734 37.6169 382.287 38.554C383.531 40.7867 384.776 43.0194 386.047 45.2245Z" fill="#C8C8C8"/>
<path d="M386.048 45.2243C384.804 43.0192 383.532 40.7865 382.26 38.5814C381.707 37.6442 381.154 36.6795 380.574 35.7699C380.38 35.4942 380.104 35.2737 379.855 34.9981C379.882 34.9154 379.938 34.8327 379.965 34.75C384.029 34.7776 388.094 34.7776 392.185 34.8051C391.245 36.5141 390.278 38.2231 389.338 39.9045C388.342 41.6961 387.375 43.4878 386.379 45.2519C386.269 45.2519 386.158 45.2519 386.048 45.2243Z" fill="#D5D9DA"/>
<path d="M398.24 45.4448C398.461 45.6378 398.765 45.7756 398.904 45.9961C400.839 49.3038 402.746 52.639 404.654 55.9467C400.673 55.9467 396.664 55.9467 392.683 55.9467C392.793 54.5961 393.733 53.6589 394.342 52.5563C395.475 50.5442 396.664 48.5596 397.825 46.5474C397.991 46.2166 398.102 45.8032 398.24 45.4448Z" fill="#9B9B9B"/>
<g clip-path="url(#clip1_36_21289)">
<path d="M634.389 25.5C623.337 25.5 614.373 34.4573 614.373 45.5007V65.5H618.554V45.5007C618.554 36.6988 625.58 29.6783 634.389 29.6783H644.841V25.5H634.389Z" fill="#B9B9B9"/>
<path d="M650.221 25.5V45.5007C650.221 50.2826 648.147 54.5386 644.841 57.4276V34.2009H640.659V60.053C639.35 60.6112 637.947 60.9979 636.478 61.1884V41.362H632.296V61.3217H628.115V48.5231H623.933V65.4985H634.387C645.439 65.4985 654.401 56.5427 654.401 45.4993V25.5H650.221Z" fill="#9B9B9B"/>
<path d="M662.622 42.4391C661.939 42.1592 661.393 41.7446 660.984 41.1967C660.575 40.6488 660.36 39.9881 660.338 39.216H663.395C663.439 39.6526 663.59 39.9851 663.848 40.2151C664.106 40.4451 664.441 40.5594 664.855 40.5594C665.268 40.5594 665.616 40.4613 665.864 40.2649C666.11 40.0701 666.233 39.7976 666.233 39.4504C666.233 39.1588 666.135 38.9186 665.94 38.7281C665.743 38.5377 665.503 38.3809 665.217 38.2578C664.931 38.1348 664.525 37.9956 663.999 37.8388C663.236 37.6044 662.616 37.3686 662.134 37.1342C661.653 36.8997 661.238 36.5525 660.89 36.094C660.543 35.6354 660.37 35.0362 660.37 34.2978C660.37 33.202 660.767 32.342 661.562 31.7208C662.357 31.0997 663.393 30.7891 664.67 30.7891C665.947 30.7891 667.016 31.0997 667.812 31.7208C668.607 32.342 669.032 33.2064 669.089 34.314H665.981C665.959 33.933 665.818 33.6342 665.562 33.4159C665.304 33.1976 664.974 33.0892 664.57 33.0892C664.223 33.0892 663.943 33.1815 663.73 33.3661C663.518 33.5507 663.411 33.8173 663.411 34.1631C663.411 34.544 663.59 34.8399 663.949 35.0523C664.307 35.2648 664.867 35.4948 665.629 35.7409C666.39 35.9987 667.009 36.2449 667.485 36.4793C667.962 36.7137 668.372 37.055 668.72 37.5033C669.067 37.9516 669.24 38.5274 669.24 39.2321C669.24 39.9368 669.069 40.514 668.728 41.0619C668.387 41.6099 667.891 42.0464 667.242 42.3717C666.592 42.6969 665.825 42.8581 664.94 42.8581C664.054 42.8581 663.305 42.7189 662.622 42.4391Z" fill="#9B9B9B"/>
<path d="M671.272 33.7191C671.776 32.8064 672.478 32.0959 673.38 31.5875C674.282 31.0791 675.304 30.8242 676.446 30.8242C677.846 30.8242 679.044 31.1934 680.041 31.9318C681.038 32.6702 681.703 33.6781 682.039 34.9527H678.881C678.646 34.4604 678.312 34.0854 677.881 33.8276C677.45 33.5697 676.96 33.4422 676.411 33.4422C675.525 33.4422 674.809 33.7499 674.26 34.3652C673.711 34.9805 673.437 35.8039 673.437 36.8323C673.437 37.8608 673.711 38.6842 674.26 39.2995C674.808 39.9148 675.525 40.2225 676.411 40.2225C676.959 40.2225 677.449 40.0935 677.881 39.8371C678.312 39.5793 678.645 39.2057 678.881 38.712H682.039C681.703 39.988 681.036 40.9916 680.041 41.7256C679.044 42.4581 677.846 42.8244 676.446 42.8244C675.304 42.8244 674.282 42.5694 673.38 42.0611C672.478 41.5527 671.776 40.8436 671.272 39.9382C670.767 39.0314 670.515 37.9971 670.515 36.8323C670.515 35.6676 670.767 34.6304 671.272 33.7191Z" fill="#9B9B9B"/>
<path d="M686.332 42.0879C685.408 41.5737 684.674 40.8544 684.131 39.9314C683.587 39.0084 683.316 37.9697 683.316 36.8182C683.316 35.6667 683.587 34.6309 684.131 33.7123C684.674 32.7952 685.408 32.0788 686.332 31.5631C687.256 31.0489 688.272 30.791 689.38 30.791C690.489 30.791 691.505 31.0489 692.43 31.5631C693.353 32.0773 694.082 32.7937 694.613 33.7123C695.145 34.6294 695.41 35.6652 695.41 36.8182C695.41 37.9712 695.142 39.0084 694.604 39.9314C694.066 40.8544 693.339 41.5737 692.421 42.0879C691.503 42.6022 690.489 42.86 689.38 42.86C688.272 42.86 687.256 42.6022 686.332 42.0879ZM691.641 39.3014C692.207 38.6744 692.49 37.8467 692.49 36.8167C692.49 35.7868 692.207 34.9444 691.641 34.3247C691.075 33.7035 690.321 33.3929 689.382 33.3929C688.442 33.3929 687.671 33.7006 687.106 34.3159C686.54 34.9312 686.257 35.7648 686.257 36.8167C686.257 37.8686 686.54 38.689 687.106 39.3088C687.672 39.9299 688.43 40.2405 689.382 40.2405C690.333 40.2405 691.075 39.927 691.641 39.3V39.3014Z" fill="#9B9B9B"/>
<path d="M699.829 30.959V38.0088C699.829 38.7134 700.002 39.257 700.35 39.6364C700.697 40.0173 701.206 40.2078 701.879 40.2078C702.552 40.2078 703.065 40.0173 703.424 39.6364C703.782 39.2555 703.963 38.7134 703.963 38.0088V30.959H706.835V37.9926C706.835 39.0445 706.61 39.9338 706.163 40.6619C705.715 41.3901 705.113 41.938 704.357 42.3072C703.6 42.6764 702.759 42.861 701.829 42.861C700.9 42.861 700.068 42.6793 699.335 42.316C698.602 41.9526 698.022 41.4047 697.597 40.6707C697.171 39.9382 696.959 39.046 696.959 37.9941V30.9604H699.831L699.829 30.959Z" fill="#9B9B9B"/>
<path d="M717.334 30.9595V33.2596H714.209V42.7443H711.337V33.2581H708.213V30.958H717.334V30.9595Z" fill="#9B9B9B"/>
<path d="M667.627 53.364C667.347 53.8899 666.898 54.3177 666.282 54.6473C665.667 54.977 664.876 55.1425 663.914 55.1425H661.797V59.8761H659.883V48.21H663.914C664.81 48.21 665.57 48.3638 666.19 48.6715C666.812 48.9791 667.276 49.3966 667.584 49.9226C667.892 50.4485 668.046 51.036 668.046 51.685C668.046 52.2784 667.905 52.838 667.625 53.364H667.627ZM665.543 53.0871C665.901 52.7574 666.081 52.2901 666.081 51.685C666.081 50.409 665.359 49.7717 663.914 49.7717H661.797V53.5823H663.914C664.642 53.5823 665.186 53.4167 665.543 53.0871Z" fill="#B9B9B9"/>
<path d="M675.943 59.8761L673.255 55.2099H671.794V59.8761H669.879V48.21H673.911C674.807 48.21 675.566 48.3667 676.186 48.6802C676.808 48.9938 677.273 49.4128 677.581 49.9387C677.888 50.4647 678.042 51.0521 678.042 51.7012C678.042 52.463 677.821 53.153 677.378 53.7742C676.936 54.3954 676.255 54.8173 675.337 55.0414L678.227 59.8761H675.943ZM671.794 53.6819H673.911C674.628 53.6819 675.167 53.5032 675.532 53.1442C675.896 52.7867 676.078 52.3047 676.078 51.7012C676.078 51.0976 675.899 50.6243 675.54 50.283C675.181 49.9416 674.638 49.7717 673.911 49.7717H671.794V53.6834V53.6819Z" fill="#B9B9B9"/>
<path d="M682.82 59.2295C681.906 58.7212 681.185 58.0106 680.653 57.0979C680.121 56.1866 679.855 55.1596 679.855 54.0169C679.855 52.8742 680.121 51.8516 680.653 50.9447C681.185 50.0379 681.906 49.3303 682.82 48.8219C683.732 48.3135 684.732 48.0586 685.818 48.0586C686.904 48.0586 687.921 48.3135 688.834 48.8219C689.746 49.3317 690.466 50.0393 690.992 50.9447C691.518 51.8516 691.781 52.8756 691.781 54.0169C691.781 55.1582 691.517 56.1852 690.992 57.0979C690.466 58.0106 689.746 58.7212 688.834 59.2295C687.921 59.7394 686.916 59.9928 685.818 59.9928C684.72 59.9928 683.732 59.7379 682.82 59.2295ZM687.884 57.8026C688.488 57.4495 688.961 56.947 689.303 56.2921C689.645 55.6372 689.815 54.8798 689.815 54.0169C689.815 53.154 689.643 52.3995 689.303 51.7505C688.961 51.1015 688.488 50.6034 687.884 50.2562C687.28 49.9089 686.591 49.7361 685.818 49.7361C685.045 49.7361 684.356 49.9104 683.752 50.2562C683.148 50.6034 682.675 51.1015 682.333 51.7505C681.991 52.3995 681.82 53.1555 681.82 54.0169C681.82 54.8784 681.99 55.6372 682.333 56.2921C682.675 56.947 683.148 57.451 683.752 57.8026C684.356 58.1557 685.045 58.3315 685.818 58.3315C686.591 58.3315 687.28 58.1557 687.884 57.8026Z" fill="#B9B9B9"/>
<path d="M695.395 59.5831C694.767 59.3091 694.274 58.9194 693.917 58.4169C693.558 57.9129 693.379 57.3255 693.379 56.6545H695.428C695.472 57.1584 695.672 57.5716 696.025 57.8968C696.378 58.2221 696.874 58.3832 697.512 58.3832C698.15 58.3832 698.688 58.2235 699.057 57.9042C699.427 57.5848 699.611 57.1746 699.611 56.6706C699.611 56.2794 699.497 55.96 699.267 55.7139C699.037 55.4678 698.752 55.2773 698.41 55.1426C698.069 55.0078 697.595 54.8627 696.991 54.706C696.229 54.5038 695.61 54.3002 695.135 54.0936C694.659 53.887 694.254 53.5647 693.917 53.1281C693.581 52.6915 693.412 52.1099 693.412 51.3818C693.412 50.7108 693.581 50.1233 693.917 49.6194C694.252 49.1154 694.723 48.7301 695.327 48.4605C695.931 48.1924 696.632 48.0576 697.427 48.0576C698.557 48.0576 699.485 48.3404 700.207 48.9059C700.929 49.4714 701.33 50.2464 701.407 51.2309H699.29C699.256 50.806 699.056 50.4427 698.686 50.1394C698.317 49.8362 697.83 49.6867 697.224 49.6867C696.676 49.6867 696.227 49.8274 695.88 50.1072C695.532 50.387 695.359 50.7899 695.359 51.3159C695.359 51.6748 695.469 51.9678 695.686 52.1978C695.905 52.4278 696.182 52.6095 696.518 52.7428C696.853 52.8776 697.312 53.0226 697.894 53.1794C698.667 53.3918 699.298 53.6043 699.784 53.8167C700.271 54.0291 700.686 54.3573 701.028 54.7983C701.369 55.2407 701.539 55.8311 701.539 56.5695C701.539 57.1628 701.379 57.7225 701.06 58.2484C700.74 58.7744 700.275 59.1963 699.666 59.5157C699.056 59.8351 698.336 59.9933 697.507 59.9933C696.723 59.9933 696.018 59.8571 695.39 59.5816L695.395 59.5831Z" fill="#B9B9B9"/>
<path d="M711.555 53.364C711.274 53.8899 710.826 54.3177 710.21 54.6473C709.594 54.977 708.804 55.1425 707.842 55.1425H705.725V59.8761H703.81V48.21H707.842C708.738 48.21 709.498 48.3638 710.118 48.6715C710.739 48.9791 711.204 49.3966 711.512 49.9226C711.82 50.4485 711.974 51.036 711.974 51.685C711.974 52.2784 711.833 52.838 711.553 53.364H711.555ZM709.471 53.0871C709.829 52.7574 710.009 52.2901 710.009 51.685C710.009 50.409 709.286 49.7717 707.842 49.7717H705.725V53.5823H707.842C708.569 53.5823 709.113 53.4167 709.471 53.0871Z" fill="#B9B9B9"/>
<path d="M715.721 49.7536V53.1774H719.753V54.7392H715.721V58.3153H720.256V59.8771H713.804V48.1934H720.256V49.7551H715.721V49.7536Z" fill="#B9B9B9"/>
<path d="M722.768 50.9467C723.3 50.0398 724.022 49.3322 724.935 48.8238C725.847 48.3155 726.847 48.0605 727.933 48.0605C729.177 48.0605 730.282 48.3653 731.251 48.9747C732.22 49.5842 732.923 50.4486 733.36 51.5679H731.058C730.756 50.9525 730.335 50.494 729.798 50.1907C729.26 49.8889 728.639 49.738 727.933 49.738C727.161 49.738 726.472 49.9124 725.867 50.2581C725.263 50.6053 724.79 51.1034 724.448 51.7524C724.107 52.4015 723.935 53.1574 723.935 54.0189C723.935 54.8803 724.105 55.6363 724.448 56.2853C724.79 56.9343 725.263 57.4353 725.867 57.787C726.472 58.14 727.161 58.3158 727.933 58.3158C728.639 58.3158 729.26 58.1649 729.798 57.8631C730.336 57.5613 730.756 57.1028 731.058 56.486H733.36C732.923 57.6053 732.22 58.4667 731.251 59.0703C730.282 59.6739 729.177 59.9772 727.933 59.9772C726.835 59.9772 725.834 59.7223 724.926 59.2139C724.019 58.7041 723.299 57.9965 722.768 57.0911C722.236 56.1842 721.97 55.1601 721.97 54.0189C721.97 52.8776 722.236 51.8535 722.768 50.9467Z" fill="#B9B9B9"/>
<path d="M743.135 48.21V49.7717H740.027V59.8761H738.112V49.7717H734.988V48.21H743.135Z" fill="#B9B9B9"/>
</g>
<g clip-path="url(#clip2_36_21289)">
<path d="M839.464 36.5859H836.141L835.95 34.8086H831.897L831.062 36.5859H827.629L833.787 24.2646H837.579L839.464 36.5859ZM835.203 27.8385L833.185 32.0974H835.664L835.203 27.8385Z" fill="#ACACAC"/>
<path d="M846.999 24.2646L845.381 33.5408H849.577L849.055 36.5859H841.748L843.888 24.2646H846.999Z" fill="#ACACAC"/>
<path d="M851.572 36.5859L853.712 24.2646H856.827L854.687 36.5859H851.572Z" fill="#ACACAC"/>
<path d="M865.177 29.527H871.318L871.108 30.7775C870.818 32.6442 870.036 34.1236 868.76 35.2159C867.485 36.3081 865.931 36.8542 864.099 36.8542C862.192 36.8542 860.73 36.2206 859.712 34.9534C858.695 33.6862 858.33 32.1193 858.616 30.2526C858.882 28.5035 859.762 26.9101 861.095 25.7641C862.401 24.6012 864.088 23.9735 865.827 24.0042C866.903 23.9825 867.964 24.2488 868.905 24.776C869.772 25.2714 870.474 26.0154 870.923 26.9142L868.062 28.458C867.554 27.5433 866.701 27.0859 865.505 27.0859C864.593 27.0785 863.711 27.4102 863.025 28.018C862.327 28.6442 861.865 29.4971 861.721 30.4301C861.548 31.4143 861.704 32.2351 862.19 32.8925C862.676 33.5499 863.406 33.8715 864.381 33.8573C865.867 33.8573 866.916 33.3176 867.53 32.2383H864.713L865.177 29.527Z" fill="#ACACAC"/>
<path d="M876.05 36.5859H872.936L875.076 24.2646H877.494L880.66 30.706L881.791 24.2646H884.887L882.747 36.5859H880.347L877.181 30.1445L876.05 36.5859Z" fill="#ACACAC"/>
<path d="M897.325 24.2646H900.63L898.49 36.5859H895.399L896.543 29.9322L892.728 34.8955H892.416L890.344 29.8454L889.179 36.5859H886.064L888.204 24.2646H891.319L893.303 29.581L897.325 24.2646Z" fill="#ACACAC"/>
<path d="M911.694 24.2646L911.172 27.2036H906.562L906.249 28.9288H910.466L909.944 31.8234H905.769L905.456 33.6373H910.153L909.648 36.5936H901.828L903.968 24.2724L911.694 24.2646Z" fill="#ACACAC"/>
<path d="M915.626 36.5859H912.512L914.652 24.2646H917.07L920.236 30.706L921.367 24.2646H924.463L922.325 36.5859H919.923L916.761 30.1387L915.626 36.5859Z" fill="#ACACAC"/>
<path d="M927.003 24.2646H936.137L935.597 27.3097H932.605L930.988 36.5859H927.873L929.49 27.3097H926.488L927.003 24.2646Z" fill="#ACACAC"/>
<path d="M832.026 66.9963C828.355 66.9963 825.505 65.7503 823.474 63.2584C821.467 60.7909 820.76 57.7105 821.353 54.017C821.858 50.5831 823.57 47.4488 826.177 45.1904C828.823 42.8825 831.924 41.7285 835.482 41.7285C837.784 41.7285 839.768 42.2303 841.435 43.2337C843.102 44.2425 844.436 45.7295 845.266 47.5061L839.655 50.5184C838.744 48.6968 837.159 47.7852 834.9 47.784C833.102 47.7653 831.36 48.4188 830.008 49.6191C828.635 50.8504 827.728 52.5267 827.443 54.3605C827.123 56.2979 827.419 57.8784 828.332 59.1018C829.266 60.3253 830.635 60.937 832.438 60.937C834.741 60.937 836.611 59.9676 838.047 58.0289L843.077 61.3094C841.834 63.0789 840.185 64.5161 838.271 65.4969C836.337 66.4943 834.196 67.0085 832.026 66.9963Z" fill="#9B9B9B"/>
<path d="M862.575 51.2184L864.148 42.2529H870.238L866.027 66.4806H859.939L861.547 57.1716H854.806L853.199 66.4806H847.076L851.284 42.2529H857.408L855.834 51.2184H862.575Z" fill="#9B9B9B"/>
<path d="M893.773 66.4806H887.24L886.859 62.9859H878.888L877.246 66.4806H870.508L882.621 42.2529H890.078L893.773 66.4806ZM885.392 49.279L881.423 57.656H886.281L885.392 49.279Z" fill="#9B9B9B"/>
<path d="M898.26 66.4806L902.456 42.2529H908.578L904.371 66.4806H898.26Z" fill="#9B9B9B"/>
<path d="M916.999 66.4806H910.877L915.084 42.2529H919.839L926.065 54.9215L928.288 42.2529H934.378L930.171 66.4806H925.45L919.223 53.8139L916.999 66.4806Z" fill="#9B9B9B"/>
<path d="M807.536 28.8845L802.553 37.8442C803.479 37.41 804.459 37.1055 805.467 36.9392C806.286 36.8026 807.118 36.7592 807.947 36.8099L811.153 31.0439C812.488 28.6433 815.539 27.7421 817.895 29.1335C818.994 29.7872 819.796 30.8509 820.129 32.0963C820.462 33.3416 820.3 34.6695 819.676 35.7949L816.434 41.6362L815.257 43.7589L814.624 44.8954C814.052 45.9257 813.132 46.7119 812.032 47.1088C811.361 47.3543 810.644 47.4473 809.934 47.3809C809.251 47.3195 808.588 47.1116 807.99 46.7711C807.887 46.7132 807.788 46.6515 807.691 46.5781C807.261 46.2841 806.737 46.1667 806.224 46.2498C805.712 46.333 805.25 46.6105 804.933 47.0259L804.843 47.1436C804.677 47.3654 804.557 47.619 804.49 47.8892C804.424 48.1594 804.412 48.4404 804.456 48.7153C804.5 48.9901 804.599 49.253 804.747 49.488C804.894 49.7231 805.087 49.9254 805.314 50.0826C805.505 50.2176 805.719 50.3469 805.931 50.4685C806.748 50.935 807.633 51.2696 808.553 51.4604C809.314 51.6191 810.091 51.6768 810.867 51.6321C812.832 51.5234 814.71 50.7725 816.218 49.492C817.048 48.7842 817.745 47.9312 818.276 46.9738L818.353 46.8387L823.336 37.8771C823.92 36.8273 824.294 35.6715 824.436 34.4756C824.578 33.2797 824.486 32.0672 824.165 30.9073C823.844 29.7474 823.301 28.6628 822.566 27.7154C821.83 26.7681 820.918 25.9765 819.88 25.3859C817.785 24.194 815.307 23.8929 812.992 24.549C810.677 25.2051 808.715 26.7646 807.536 28.8845Z" fill="#9B9B9B"/>
<path d="M809.085 39.0985C808.324 38.9398 807.546 38.8821 806.771 38.9267C805.846 38.9792 804.934 39.1745 804.067 39.5057C803.103 39.8724 802.208 40.4023 801.419 41.0726C800.59 41.7775 799.892 42.6271 799.359 43.5812L799.285 43.7163L794.301 52.6779C793.718 53.7277 793.344 54.8835 793.202 56.0794C793.059 57.2753 793.151 58.4877 793.472 59.6476C793.793 60.8076 794.337 61.8922 795.072 62.8395C795.807 63.7869 796.72 64.5785 797.757 65.169C798.795 65.7596 799.937 66.1377 801.119 66.2816C802.301 66.4255 803.5 66.3324 804.646 66.0077C805.792 65.683 806.864 65.133 807.801 64.3892C808.737 63.6453 809.519 62.7221 810.103 61.6723L815.087 52.7127C813.4 53.503 811.546 53.8584 809.691 53.747L806.485 59.513C805.15 61.9136 802.098 62.8148 799.743 61.4235C798.643 60.77 797.84 59.7064 797.507 58.4608C797.174 57.2153 797.337 55.8873 797.961 54.762L801.204 48.9188L802.382 46.7961L803.014 45.6595C803.218 45.294 803.467 44.9562 803.756 44.6541C804.273 44.1129 804.907 43.6996 805.608 43.4461C806.279 43.2008 806.995 43.1073 807.706 43.1721C808.389 43.2352 809.051 43.4436 809.649 43.7838C809.75 43.8417 809.851 43.9035 809.949 43.9768C810.378 44.2709 810.903 44.3883 811.415 44.3051C811.927 44.222 812.389 43.9445 812.706 43.5291L812.796 43.4114C812.963 43.1896 813.083 42.9359 813.149 42.6656C813.216 42.3953 813.228 42.1141 813.183 41.8392C813.139 41.5642 813.04 41.3013 812.892 41.0663C812.744 40.8314 812.551 40.6293 812.323 40.4724C812.132 40.3374 811.921 40.2081 811.707 40.0865C810.889 39.6209 810.004 39.2875 809.085 39.0985Z" fill="#9B9B9B"/>
</g>
<rect y="-1" width="46" height="92" fill="url(#paint0_linear_36_21289)"/>
<rect width="46" height="92" transform="matrix(-1 0 0 1 1009 -1)" fill="url(#paint1_linear_36_21289)"/>
</g>
<defs>
<linearGradient id="paint0_linear_36_21289" x1="46" y1="45" x2="-1.37091e-06" y2="45" gradientUnits="userSpaceOnUse">
<stop stop-color="#F6F6F6" stop-opacity="0"/>
<stop offset="0.76" stop-color="#F6F6F6"/>
</linearGradient>
<linearGradient id="paint1_linear_36_21289" x1="46" y1="46" x2="-1.37091e-06" y2="46" gradientUnits="userSpaceOnUse">
<stop stop-color="#F6F6F6" stop-opacity="0"/>
<stop offset="0.76" stop-color="#F6F6F6"/>
</linearGradient>
<clipPath id="clip0_36_21289">
<rect width="1009" height="91" fill="white"/>
</clipPath>
<clipPath id="clip1_36_21289">
<rect width="128.762" height="40" fill="white" transform="translate(614.373 25.5)"/>
</clipPath>
<clipPath id="clip2_36_21289">
<rect width="143" height="43" fill="white" transform="translate(793.135 24)"/>
</clipPath>
</defs>
</svg>
