<svg width="1009" height="91" viewBox="0 0 1009 91" fill="none" xmlns="http://www.w3.org/2000/svg">
<g clip-path="url(#clip0_36_20479)">
<rect width="1009" height="91" fill="#F6F6F6"/>
<path d="M-10 0H1019" stroke="#F6F6F6" stroke-width="3"/>
<path d="M-10 91H1019" stroke="#F6F6F6" stroke-width="3"/>
<path d="M-3.52075 28.6465H0.316746L4.0892 38.6467H4.13343L7.97092 28.6465H11.5717L5.27817 43.907H2.58282L-3.51816 28.6465H-3.52075Z" fill="#9B9B9B"/>
<path d="M13.5078 28.6465H23.8756V31.7501H16.8692V34.5961H23.4879V37.6997H16.8692V40.8033H24.2632V43.907H13.5078V28.6465Z" fill="#9B9B9B"/>
<path d="M27.1743 28.6465H33.0802C33.8555 28.6465 34.5917 28.7219 35.289 28.8728C35.9863 29.0237 36.5977 29.276 37.1206 29.6273C37.6461 29.9785 38.0624 30.4545 38.372 31.0503C38.6816 31.646 38.8351 32.3901 38.8351 33.2824C38.8351 34.3594 38.5541 35.2751 37.9948 36.0296C37.4354 36.784 36.6159 37.2627 35.5388 37.463L39.4179 43.907H35.3879L32.1982 37.8064H30.5383V43.907H27.1769V28.6465H27.1743ZM30.5357 34.9604H32.5182C32.82 34.9604 33.14 34.9499 33.4782 34.9291C33.8164 34.9083 34.1208 34.8433 34.394 34.734C34.6672 34.6274 34.8935 34.4583 35.0731 34.2267C35.2526 33.9978 35.3436 33.6752 35.3436 33.2564C35.3436 32.8687 35.2656 32.5592 35.1069 32.3302C34.9482 32.1013 34.7478 31.9244 34.5033 31.8021C34.2587 31.6798 33.9777 31.5966 33.6629 31.555C33.3455 31.5107 33.0385 31.4899 32.7367 31.4899H30.5383V34.9604H30.5357Z" fill="#9B9B9B"/>
<path d="M105.864 44.5011L111.737 37.8246L107.338 32.8232C106.906 32.333 106.209 32.333 105.778 32.8232L95.5065 44.5011C95.0753 44.9913 95.0753 45.7836 95.5065 46.2738L105.778 57.9517C106.209 58.4419 106.906 58.4419 107.338 57.9517L111.737 52.9503L105.864 46.2738C105.433 45.7836 105.433 44.9913 105.864 44.5011Z" fill="#9B9B9B"/>
<path d="M127.967 44.5011L117.695 32.8232C117.264 32.333 116.567 32.333 116.136 32.8232L111.737 37.8246L117.609 44.5011C118.041 44.9913 118.041 45.7836 117.609 46.2738L111.737 52.9503L116.136 57.9517C116.567 58.4419 117.264 58.4419 117.695 57.9517L127.967 46.2738C128.398 45.7836 128.398 44.9913 127.967 44.5011Z" fill="#9B9B9B"/>
<path d="M112.953 34.87C112.286 35.629 111.193 35.629 110.523 34.87C109.856 34.1109 108.763 32.8665 108.093 32.1075C107.426 31.3485 107.87 30.7251 109.083 30.7251H114.393C115.605 30.7251 116.051 31.3461 115.383 32.1075C114.715 32.8689 113.623 34.1109 112.953 34.87Z" fill="#AAAAAA"/>
<path d="M110.523 56.1293C111.191 55.3703 112.285 55.3703 112.953 56.1293C113.62 56.8883 114.713 58.1328 115.383 58.8918C116.052 59.6508 115.604 60.2742 114.393 60.2742H109.083C107.871 60.2742 107.425 59.6532 108.093 58.8918C108.761 58.1328 109.853 56.8883 110.523 56.1293Z" fill="#AAAAAA"/>
<path d="M140.754 48.5705C139.678 49.6567 138.361 50.1998 136.804 50.1998C135.246 50.1998 133.929 49.6567 132.853 48.5705C131.777 47.4842 131.239 46.1674 131.239 44.62C131.239 43.0624 131.777 41.7456 132.853 40.6696C133.929 39.5834 135.246 39.0403 136.804 39.0403C138.361 39.0403 139.678 39.5834 140.754 40.6696C141.84 41.7456 142.384 43.0624 142.384 44.62C142.384 46.1674 141.84 47.4842 140.754 48.5705ZM133.837 47.6021C134.636 48.4014 135.625 48.801 136.804 48.801C137.982 48.801 138.966 48.4014 139.755 47.6021C140.554 46.7925 140.954 45.7985 140.954 44.62C140.954 43.4313 140.554 42.4373 139.755 41.638C138.966 40.8285 137.982 40.4237 136.804 40.4237C135.625 40.4237 134.636 40.8285 133.837 41.638C133.048 42.4373 132.654 43.4313 132.654 44.62C132.654 45.7985 133.048 46.7925 133.837 47.6021ZM150.481 50L148.068 45.8805H145.532V50H144.102V39.2401H148.406C149.328 39.2401 150.117 39.568 150.773 40.2239C151.429 40.8694 151.757 41.6534 151.757 42.5757C151.757 43.2725 151.547 43.9078 151.127 44.4817C150.717 45.0556 150.184 45.4603 149.528 45.696L152.064 50H150.481ZM145.532 40.5774V44.5893H148.406C148.939 44.5893 149.39 44.3946 149.759 44.0052C150.138 43.6055 150.328 43.129 150.328 42.5757C150.328 42.0223 150.138 41.5509 149.759 41.1615C149.39 40.7721 148.939 40.5774 148.406 40.5774H145.532ZM153.499 39.2401H154.929V50H153.499V39.2401ZM158.666 48.6473H163.662V50H157.237V39.2401H163.585V40.5928H158.666V43.8976H163.201V45.2349H158.666V48.6473ZM172.074 39.2401H173.504V50H172.351L166.817 41.9608V50H165.388V39.2401H166.541L172.074 47.2639V39.2401ZM182.692 39.2401V40.5928H179.51V50H178.096V40.5928H174.929V39.2401H182.692ZM190.412 50L189.536 47.5867H184.694L183.818 50H182.296L186.308 39.2401H187.922L191.934 50H190.412ZM185.186 46.2494H189.044L187.107 40.9463L185.186 46.2494ZM194.633 48.6473H199.275V50H193.203V39.2401H194.633V48.6473ZM210.7 44.4202C211.192 44.6559 211.581 44.9941 211.868 45.4347C212.166 45.8754 212.314 46.3826 212.314 46.9565C212.314 47.8173 212.012 48.5397 211.407 49.1238C210.803 49.7079 210.065 50 209.194 50H204.552V39.2401H208.856C209.696 39.2401 210.408 39.5219 210.992 40.0855C211.576 40.6491 211.868 41.346 211.868 42.176C211.868 43.129 211.479 43.8771 210.7 44.4202ZM208.856 40.5774H205.981V43.8669H208.856C209.306 43.8669 209.686 43.708 209.993 43.3903C210.3 43.0727 210.454 42.6833 210.454 42.2221C210.454 41.7712 210.295 41.3869 209.978 41.0693C209.67 40.7414 209.296 40.5774 208.856 40.5774ZM209.194 48.6627C209.675 48.6627 210.08 48.4936 210.408 48.1554C210.736 47.8173 210.9 47.4022 210.9 46.9104C210.9 46.4287 210.731 46.0188 210.393 45.6807C210.065 45.3425 209.665 45.1734 209.194 45.1734H205.981V48.6627H209.194ZM220.743 49.1699C219.995 49.8565 219.027 50.1998 217.838 50.1998C216.649 50.1998 215.676 49.8565 214.917 49.1699C214.169 48.4731 213.795 47.5457 213.795 46.3877V39.2401H215.225V46.3263C215.225 47.0846 215.45 47.6892 215.901 48.1401C216.352 48.5807 216.998 48.801 217.838 48.801C218.678 48.801 219.324 48.5807 219.775 48.1401C220.225 47.6892 220.451 47.0846 220.451 46.3263V39.2401H221.865V46.3877C221.865 47.5457 221.491 48.4731 220.743 49.1699ZM224.051 39.2401H225.48V50H224.051V39.2401ZM229.218 48.6473H233.86V50H227.789V39.2401H229.218V48.6473ZM239.491 39.2401C240.956 39.2401 242.17 39.7627 243.134 40.808C244.107 41.843 244.594 43.1137 244.594 44.62C244.594 46.1264 244.107 47.4022 243.134 48.4475C242.17 49.4825 240.956 50 239.491 50H235.294V39.2401H239.491ZM239.491 48.6473C240.587 48.6473 241.484 48.263 242.181 47.4945C242.877 46.7259 243.226 45.7678 243.226 44.62C243.226 43.4723 242.877 42.5142 242.181 41.7456C241.484 40.977 240.587 40.5928 239.491 40.5928H236.724V48.6473H239.491ZM246.327 39.2401H247.757V50H246.327V39.2401ZM256.752 39.2401H258.181V50H257.028L251.495 41.9608V50H250.065V39.2401H251.218L256.752 47.2639V39.2401ZM270.858 44.6662V45.3118C270.858 46.7157 270.377 47.8839 269.413 48.8164C268.45 49.7387 267.174 50.1998 265.586 50.1998C263.946 50.1998 262.589 49.6618 261.513 48.5858C260.447 47.4996 259.914 46.1777 259.914 44.62C259.914 43.0624 260.447 41.7456 261.513 40.6696C262.589 39.5834 263.936 39.0403 265.555 39.0403C266.549 39.0403 267.461 39.2811 268.291 39.7627C269.121 40.2341 269.762 40.8592 270.213 41.638L268.983 42.3605C268.676 41.7764 268.209 41.3101 267.584 40.9617C266.969 40.603 266.288 40.4237 265.54 40.4237C264.31 40.4237 263.301 40.8285 262.512 41.638C261.723 42.4373 261.328 43.4313 261.328 44.62C261.328 45.8088 261.723 46.8028 262.512 47.6021C263.311 48.4014 264.341 48.801 265.601 48.801C266.677 48.801 267.548 48.5397 268.214 48.0171C268.881 47.4842 269.285 46.7976 269.429 45.9573H265.478V44.6662H270.858Z" fill="#9B9B9B"/>
<path fill-rule="evenodd" clip-rule="evenodd" d="M341.303 47.2814C341.303 47.281 341.303 47.2806 341.304 47.2803L357.541 29.0645C357.71 28.875 357.845 28.6642 357.948 28.4406C359.982 28.6291 361.574 30.3403 361.574 32.4233V58.577C361.574 60.7861 359.783 62.577 357.574 62.577H337.746L347.955 52.5452L356.662 58.6603C357.558 59.29 358.762 59.0439 359.377 58.1041C359.931 57.2588 359.835 56.1094 359.149 55.3829L347.955 43.5142V43.5148L331.717 61.731C331.494 61.9808 331.329 62.2676 331.222 62.5721C329.105 62.4688 327.42 60.7196 327.42 58.577V32.4233C327.42 30.2142 329.211 28.4233 331.42 28.4233H351.303L341.303 38.2503L332.596 32.1352C331.699 31.5055 330.496 31.7517 329.881 32.6914C329.327 33.5367 329.423 34.6862 330.109 35.4126L341.303 47.2814Z" fill="#9B9B9B"/>
<path d="M475.725 51.4752C474.518 51.4752 473.241 51.3489 471.894 51.0963C470.547 50.8437 469.34 50.4086 468.273 49.7912C467.824 49.5105 467.501 49.1878 467.305 48.8229C467.136 48.43 467.066 48.0511 467.094 47.6862C467.151 47.2933 467.291 46.9565 467.515 46.6758C467.768 46.3951 468.077 46.2127 468.442 46.1285C468.835 46.0443 469.256 46.1145 469.705 46.339C470.827 46.8723 471.88 47.2512 472.862 47.4757C473.844 47.6722 474.813 47.7704 475.767 47.7704C477.114 47.7704 478.111 47.5459 478.756 47.0968C479.43 46.6197 479.766 46.0022 479.766 45.2444C479.766 44.5989 479.542 44.1077 479.093 43.7709C478.672 43.4061 478.026 43.1394 477.156 42.971L472.946 42.1711C471.206 41.8343 469.873 41.2028 468.947 40.2766C468.049 39.3224 467.6 38.1015 467.6 36.614C467.6 35.2668 467.964 34.102 468.694 33.1197C469.452 32.1373 470.49 31.3795 471.81 30.8463C473.129 30.313 474.644 30.0464 476.356 30.0464C477.591 30.0464 478.742 30.1867 479.809 30.4674C480.903 30.72 481.956 31.1269 482.966 31.6883C483.387 31.9128 483.668 32.2075 483.808 32.5724C483.976 32.9372 484.019 33.3161 483.934 33.7091C483.85 34.0739 483.682 34.4107 483.429 34.7195C483.177 35.0001 482.854 35.1826 482.461 35.2668C482.096 35.3229 481.675 35.2387 481.198 35.0142C480.328 34.5651 479.486 34.2423 478.672 34.0459C477.886 33.8494 477.128 33.7512 476.398 33.7512C475.023 33.7512 473.999 33.9897 473.325 34.4669C472.68 34.944 472.357 35.5755 472.357 36.3614C472.357 36.9508 472.553 37.4419 472.946 37.8348C473.339 38.2278 473.943 38.4944 474.757 38.6347L478.967 39.4346C480.791 39.7714 482.166 40.3889 483.092 41.287C484.047 42.1852 484.524 43.392 484.524 44.9076C484.524 46.9565 483.724 48.5703 482.124 49.7491C480.524 50.8998 478.391 51.4752 475.725 51.4752Z" fill="#9B9B9B"/>
<path d="M450.84 51.475C449.128 51.475 447.711 51.1662 446.588 50.5488C445.465 49.9032 444.623 48.949 444.062 47.686C443.529 46.423 443.262 44.8513 443.262 42.9708V32.7827C443.262 31.8845 443.487 31.225 443.936 30.804C444.385 30.3549 445.03 30.1304 445.872 30.1304C446.714 30.1304 447.36 30.3549 447.809 30.804C448.286 31.225 448.525 31.8845 448.525 32.7827V43.055C448.525 44.5145 448.819 45.595 449.409 46.2967C449.998 46.9984 450.938 47.3492 452.229 47.3492C453.633 47.3492 454.784 46.8721 455.682 45.9178C456.58 44.9355 457.029 43.6444 457.029 42.0446V32.7827C457.029 31.8845 457.253 31.225 457.702 30.804C458.151 30.3549 458.797 30.1304 459.639 30.1304C460.481 30.1304 461.127 30.3549 461.576 30.804C462.053 31.225 462.291 31.8845 462.291 32.7827V48.6964C462.291 50.4926 461.435 51.3908 459.723 51.3908C458.909 51.3908 458.278 51.1662 457.829 50.7172C457.38 50.24 457.155 49.5664 457.155 48.6964V45.4968L457.745 46.7598C457.155 48.2754 456.257 49.4401 455.05 50.2541C453.871 51.068 452.468 51.475 450.84 51.475Z" fill="#9B9B9B"/>
<path d="M421.416 51.2645C420.799 51.2645 420.28 51.0961 419.859 50.7593C419.466 50.3944 419.255 49.9313 419.227 49.37C419.227 48.8086 419.466 48.2192 419.943 47.6018L426.763 39.1818V41.6657L420.364 33.7931C419.859 33.1756 419.62 32.5862 419.648 32.0249C419.676 31.4635 419.887 31.0145 420.28 30.6777C420.701 30.3128 421.22 30.1304 421.837 30.1304C422.483 30.1304 423.016 30.2426 423.437 30.4672C423.886 30.6917 424.293 31.0425 424.658 31.5197L429.71 38.003H427.858L432.952 31.5197C433.345 31.0425 433.751 30.6917 434.172 30.4672C434.593 30.2426 435.113 30.1304 435.73 30.1304C436.376 30.1304 436.895 30.3128 437.288 30.6777C437.681 31.0425 437.877 31.5056 437.877 32.067C437.905 32.6283 437.667 33.2177 437.162 33.8352L430.804 41.6236V39.266L437.625 47.6018C438.13 48.1912 438.368 48.7665 438.34 49.3279C438.312 49.8892 438.088 50.3523 437.667 50.7172C437.274 51.082 436.755 51.2645 436.109 51.2645C435.492 51.2645 434.972 51.1522 434.551 50.9277C434.13 50.7031 433.723 50.3523 433.33 49.8752L427.858 42.9708H429.626L424.195 49.8752C423.83 50.3242 423.437 50.6751 423.016 50.9277C422.595 51.1522 422.062 51.2645 421.416 51.2645Z" fill="#9B9B9B"/>
<path d="M407.016 51.4752C404.686 51.4752 402.679 51.0401 400.995 50.1701C399.311 49.3 398.006 48.0651 397.08 46.4653C396.182 44.8655 395.733 42.971 395.733 40.7818C395.733 38.6488 396.168 36.7824 397.038 35.1826C397.936 33.5828 399.157 32.3338 400.701 31.4357C402.272 30.5095 404.055 30.0464 406.047 30.0464C407.507 30.0464 408.812 30.285 409.963 30.7621C411.141 31.2392 412.138 31.9268 412.952 32.825C413.794 33.7231 414.425 34.8177 414.846 36.1088C415.295 37.3717 415.52 38.8031 415.52 40.4029C415.52 40.9081 415.337 41.3011 414.973 41.5817C414.636 41.8343 414.145 41.9606 413.499 41.9606H399.985V38.9294H411.815L411.141 39.5609C411.141 38.2699 410.945 37.1893 410.552 36.3193C410.187 35.4492 409.64 34.7896 408.91 34.3406C408.208 33.8634 407.324 33.6249 406.258 33.6249C405.079 33.6249 404.069 33.9055 403.227 34.4669C402.413 35.0001 401.781 35.772 401.332 36.7824C400.911 37.7647 400.701 38.9435 400.701 40.3187V40.6134C400.701 42.9149 401.234 44.641 402.3 45.7917C403.395 46.9144 404.995 47.4757 407.1 47.4757C407.83 47.4757 408.644 47.3915 409.542 47.2231C410.468 47.0266 411.338 46.7039 412.152 46.2548C412.741 45.918 413.26 45.7777 413.71 45.8338C414.159 45.8619 414.509 46.0162 414.762 46.2969C415.043 46.5776 415.211 46.9284 415.267 47.3494C415.323 47.7423 415.239 48.1493 415.015 48.5703C414.818 48.9913 414.467 49.3562 413.962 49.6649C412.98 50.2823 411.843 50.7454 410.552 51.0542C409.289 51.3348 408.11 51.4752 407.016 51.4752Z" fill="#9B9B9B"/>
<path d="M374.433 51.391C373.591 51.391 372.945 51.1664 372.496 50.7174C372.047 50.2402 371.823 49.5667 371.823 48.6966V32.7829C371.823 31.9128 372.047 31.2532 372.496 30.8042C372.945 30.3551 373.577 30.1306 374.391 30.1306C375.205 30.1306 375.836 30.3551 376.285 30.8042C376.734 31.2532 376.959 31.9128 376.959 32.7829V35.6457L376.496 34.5932C377.113 33.1056 378.068 31.983 379.359 31.2252C380.678 30.4393 382.165 30.0464 383.821 30.0464C385.477 30.0464 386.838 30.3551 387.905 30.9726C388.971 31.59 389.771 32.5303 390.305 33.7933C390.838 35.0282 391.104 36.5999 391.104 38.5084V48.6966C391.104 49.5667 390.88 50.2402 390.431 50.7174C389.982 51.1664 389.336 51.391 388.494 51.391C387.652 51.391 386.993 51.1664 386.516 50.7174C386.067 50.2402 385.842 49.5667 385.842 48.6966V38.761C385.842 37.1613 385.533 35.9965 384.916 35.2668C384.326 34.537 383.4 34.1722 382.137 34.1722C380.594 34.1722 379.359 34.6633 378.432 35.6457C377.534 36.5999 377.085 37.8769 377.085 39.4767V48.6966C377.085 50.4928 376.201 51.391 374.433 51.391Z" fill="#9B9B9B"/>
<path d="M476.794 61.1715C476.713 61.1715 476.65 61.149 476.605 61.104C476.56 61.0545 476.538 60.9871 476.538 60.9016V56.5907C476.538 56.5007 476.56 56.4332 476.605 56.3883C476.65 56.3433 476.713 56.3208 476.794 56.3208C476.866 56.3208 476.922 56.3365 476.963 56.368C477.008 56.395 477.048 56.4422 477.084 56.5097L478.933 59.9908H478.73L480.572 56.5097C480.608 56.4422 480.646 56.395 480.687 56.368C480.727 56.3365 480.786 56.3208 480.862 56.3208C480.939 56.3208 480.999 56.3433 481.044 56.3883C481.089 56.4332 481.112 56.5007 481.112 56.5907V60.9016C481.112 60.9871 481.089 61.0545 481.044 61.104C481.004 61.149 480.941 61.1715 480.855 61.1715C480.774 61.1715 480.711 61.149 480.666 61.104C480.621 61.0545 480.599 60.9871 480.599 60.9016V57.1101H480.761L479.074 60.2742C479.043 60.3327 479.009 60.3754 478.973 60.4024C478.942 60.4249 478.894 60.4361 478.831 60.4361C478.768 60.4361 478.719 60.4226 478.683 60.3956C478.647 60.3686 478.615 60.3282 478.589 60.2742L476.882 57.1034H477.044V60.9016C477.044 60.9871 477.021 61.0545 476.976 61.104C476.936 61.149 476.875 61.1715 476.794 61.1715Z" fill="#9B9B9B"/>
<path d="M472.142 61.185C471.827 61.185 471.551 61.1445 471.312 61.0635C471.078 60.9781 470.881 60.8544 470.719 60.6925C470.557 60.5261 470.435 60.3214 470.354 60.0785C470.273 59.8357 470.233 59.5568 470.233 59.242V56.6041C470.233 56.5097 470.255 56.44 470.3 56.395C470.35 56.3455 470.42 56.3208 470.51 56.3208C470.599 56.3208 470.667 56.3455 470.712 56.395C470.761 56.44 470.786 56.5097 470.786 56.6041V59.215C470.786 59.7097 470.901 60.0808 471.13 60.3282C471.36 60.571 471.697 60.6925 472.142 60.6925C472.587 60.6925 472.922 60.571 473.147 60.3282C473.372 60.0808 473.485 59.7097 473.485 59.215V56.6041C473.485 56.5097 473.509 56.44 473.559 56.395C473.608 56.3455 473.678 56.3208 473.768 56.3208C473.853 56.3208 473.919 56.3455 473.964 56.395C474.013 56.44 474.038 56.5097 474.038 56.6041V59.242C474.038 59.6603 473.966 60.0156 473.822 60.3079C473.683 60.6003 473.471 60.8206 473.188 60.9691C472.904 61.113 472.556 61.185 472.142 61.185Z" fill="#9B9B9B"/>
<path d="M465.715 61.1244C465.626 61.1244 465.556 61.0997 465.506 61.0502C465.457 60.9962 465.432 60.9243 465.432 60.8343V56.6246C465.432 56.5301 465.455 56.4582 465.5 56.4087C465.549 56.3592 465.619 56.3345 465.709 56.3345C465.799 56.3345 465.866 56.3592 465.911 56.4087C465.961 56.4582 465.985 56.5301 465.985 56.6246V60.6387H468.198C468.279 60.6387 468.342 60.6612 468.387 60.7061C468.432 60.7466 468.455 60.8051 468.455 60.8815C468.455 60.958 468.432 61.0187 468.387 61.0637C468.342 61.1042 468.279 61.1244 468.198 61.1244H465.715Z" fill="#9B9B9B"/>
<path d="M460.092 61.1711C460.002 61.1711 459.932 61.1464 459.882 61.0969C459.837 61.0429 459.815 60.971 459.815 60.881V56.651C459.815 56.5566 459.84 56.4869 459.889 56.4419C459.939 56.3924 460.008 56.3677 460.098 56.3677H461.697C462.205 56.3677 462.597 56.4936 462.871 56.7455C463.145 56.9928 463.283 57.3437 463.283 57.7979C463.283 58.2477 463.145 58.5985 462.871 58.8503C462.597 59.1022 462.205 59.2281 461.697 59.2281H460.368V60.881C460.368 60.971 460.346 61.0429 460.301 61.0969C460.256 61.1464 460.186 61.1711 460.092 61.1711ZM460.368 58.7626H461.63C461.994 58.7626 462.268 58.6817 462.453 58.5198C462.642 58.3534 462.736 58.1127 462.736 57.7979C462.736 57.4786 462.642 57.238 462.453 57.076C462.268 56.9096 461.994 56.8264 461.63 56.8264H460.368V58.7626Z" fill="#9B9B9B"/>
<path d="M455.983 61.1848C455.516 61.1848 455.115 61.0858 454.782 60.8879C454.45 60.69 454.193 60.4089 454.013 60.0446C453.838 59.6803 453.75 59.2463 453.75 58.7426C453.75 58.3648 453.8 58.0275 453.899 57.7306C454.002 57.4293 454.148 57.1752 454.337 56.9683C454.531 56.7569 454.767 56.595 455.046 56.4825C455.324 56.3656 455.637 56.3071 455.983 56.3071C456.262 56.3071 456.528 56.3476 456.779 56.4286C457.031 56.505 457.249 56.6197 457.434 56.7726C457.492 56.8176 457.53 56.8693 457.548 56.9278C457.571 56.9818 457.573 57.0357 457.555 57.0897C457.542 57.1392 457.515 57.1819 457.474 57.2179C457.438 57.2494 457.393 57.2651 457.339 57.2651C457.285 57.2651 457.225 57.2426 457.157 57.1977C456.995 57.0672 456.818 56.9705 456.624 56.9076C456.431 56.8446 456.222 56.8131 455.997 56.8131C455.641 56.8131 455.34 56.8896 455.093 57.0425C454.845 57.1909 454.659 57.409 454.533 57.6969C454.407 57.9847 454.344 58.3333 454.344 58.7426C454.344 59.1519 454.407 59.5027 454.533 59.795C454.659 60.0829 454.845 60.3032 455.093 60.4562C455.34 60.6046 455.641 60.6788 455.997 60.6788C456.217 60.6788 456.426 60.6473 456.624 60.5843C456.822 60.5169 457.004 60.4179 457.171 60.2875C457.238 60.2425 457.299 60.2223 457.353 60.2268C457.407 60.2268 457.452 60.2425 457.488 60.274C457.524 60.3055 457.548 60.346 457.562 60.3954C457.58 60.4449 457.58 60.4966 457.562 60.5506C457.548 60.6046 457.515 60.6518 457.461 60.6923C457.272 60.8542 457.049 60.9779 456.793 61.0633C456.541 61.1443 456.271 61.1848 455.983 61.1848Z" fill="#9B9B9B"/>
<path d="M451.121 61.1715C451.031 61.1715 450.961 61.1467 450.912 61.0972C450.867 61.0433 450.844 60.9713 450.844 60.8814V56.6109C450.844 56.5164 450.867 56.4445 450.912 56.395C450.961 56.3455 451.031 56.3208 451.121 56.3208C451.211 56.3208 451.278 56.3455 451.323 56.395C451.373 56.4445 451.397 56.5164 451.397 56.6109V60.8814C451.397 60.9713 451.375 61.0433 451.33 61.0972C451.285 61.1467 451.215 61.1715 451.121 61.1715Z" fill="#9B9B9B"/>
<path d="M446.772 61.1848C446.264 61.1848 445.834 61.0881 445.484 60.8947C445.137 60.7013 444.874 60.4224 444.694 60.0581C444.514 59.6938 444.424 59.2576 444.424 58.7493C444.424 58.3715 444.474 58.032 444.573 57.7306C444.676 57.4293 444.825 57.1752 445.018 56.9683C445.216 56.7569 445.454 56.595 445.733 56.4825C446.016 56.3656 446.336 56.3071 446.691 56.3071C446.974 56.3071 447.249 56.3476 447.514 56.4286C447.78 56.505 448.016 56.6287 448.223 56.7996C448.277 56.8401 448.31 56.8851 448.324 56.9345C448.337 56.984 448.335 57.0335 448.317 57.083C448.303 57.1324 448.279 57.1752 448.243 57.2111C448.211 57.2426 448.169 57.2606 448.115 57.2651C448.065 57.2696 448.013 57.2539 447.959 57.2179C447.775 57.074 447.579 56.9705 447.372 56.9076C447.166 56.8401 446.936 56.8064 446.684 56.8064C446.325 56.8064 446.019 56.8828 445.767 57.0357C445.519 57.1887 445.331 57.409 445.2 57.6969C445.074 57.9847 445.011 58.3355 445.011 58.7493C445.011 59.379 445.157 59.8602 445.45 60.1931C445.747 60.5259 446.192 60.6923 446.786 60.6923C447.001 60.6923 447.213 60.672 447.42 60.6316C447.627 60.5866 447.822 60.5259 448.007 60.4494L447.885 60.7665V59.0866H446.92C446.84 59.0866 446.779 59.0664 446.738 59.0259C446.698 58.9854 446.678 58.9315 446.678 58.864C446.678 58.7921 446.698 58.7381 446.738 58.7021C446.779 58.6661 446.84 58.6481 446.92 58.6481H448.128C448.205 58.6481 448.263 58.6684 448.303 58.7088C448.344 58.7493 448.364 58.8078 448.364 58.8843V60.6451C448.364 60.7125 448.353 60.7687 448.33 60.8137C448.308 60.8587 448.27 60.8924 448.216 60.9149C448.027 60.9914 447.8 61.0566 447.534 61.1106C447.274 61.16 447.019 61.1848 446.772 61.1848Z" fill="#9B9B9B"/>
<path d="M440.075 61.1848C439.634 61.1848 439.25 61.0858 438.921 60.8879C438.597 60.6855 438.346 60.4022 438.166 60.0379C437.99 59.6736 437.903 59.2418 437.903 58.7426C437.903 58.3648 437.952 58.0275 438.051 57.7306C438.154 57.4293 438.301 57.1752 438.49 56.9683C438.678 56.7569 438.906 56.595 439.171 56.4825C439.441 56.3656 439.742 56.3071 440.075 56.3071C440.525 56.3071 440.911 56.4061 441.235 56.604C441.564 56.8019 441.815 57.083 441.991 57.4473C442.171 57.8071 442.261 58.2366 442.261 58.7358C442.261 59.1136 442.209 59.4532 442.106 59.7545C442.002 60.0559 441.856 60.3122 441.667 60.5236C441.478 60.735 441.249 60.8992 440.979 61.0161C440.714 61.1286 440.412 61.1848 440.075 61.1848ZM440.075 60.6923C440.417 60.6923 440.705 60.6158 440.938 60.4629C441.177 60.31 441.359 60.0874 441.485 59.795C441.611 59.5027 441.674 59.1519 441.674 58.7426C441.674 58.1264 441.534 57.6497 441.256 57.3123C440.981 56.9705 440.588 56.7996 440.075 56.7996C439.742 56.7996 439.457 56.8761 439.218 57.029C438.984 57.1819 438.804 57.4045 438.678 57.6969C438.552 57.9847 438.49 58.3333 438.49 58.7426C438.49 59.3543 438.629 59.8332 438.908 60.1796C439.187 60.5214 439.576 60.6923 440.075 60.6923Z" fill="#9B9B9B"/>
<path d="M433.592 61.1244C433.502 61.1244 433.433 61.0997 433.383 61.0502C433.334 60.9962 433.309 60.9243 433.309 60.8343V56.6246C433.309 56.5301 433.332 56.4582 433.377 56.4087C433.426 56.3592 433.496 56.3345 433.586 56.3345C433.676 56.3345 433.743 56.3592 433.788 56.4087C433.838 56.4582 433.862 56.5301 433.862 56.6246V60.6387H436.075C436.156 60.6387 436.219 60.6612 436.264 60.7061C436.309 60.7466 436.331 60.8051 436.331 60.8815C436.331 60.958 436.309 61.0187 436.264 61.0637C436.219 61.1042 436.156 61.1244 436.075 61.1244H433.592Z" fill="#9B9B9B"/>
<path d="M426.277 61.1715C426.187 61.1715 426.117 61.1467 426.068 61.0972C426.023 61.0433 426 60.9691 426 60.8746V58.6618L426.122 59.0463L424.428 56.7121C424.388 56.6536 424.368 56.5952 424.368 56.5367C424.372 56.4737 424.397 56.422 424.442 56.3815C424.487 56.341 424.545 56.3208 424.617 56.3208C424.68 56.3208 424.736 56.3365 424.786 56.368C424.835 56.395 424.88 56.44 424.921 56.503L426.358 58.4864H426.216L427.653 56.503C427.703 56.4355 427.75 56.3883 427.795 56.3613C427.84 56.3343 427.894 56.3208 427.957 56.3208C428.029 56.3208 428.085 56.341 428.125 56.3815C428.166 56.4175 428.186 56.467 428.186 56.5299C428.191 56.5884 428.17 56.6514 428.125 56.7188L426.439 59.0463L426.554 58.6618V60.8746C426.554 61.0725 426.461 61.1715 426.277 61.1715Z" fill="#9B9B9B"/>
<path d="M419.341 61.1239C419.242 61.1239 419.166 61.0991 419.112 61.0497C419.062 60.9957 419.038 60.9192 419.038 60.8203V56.6713C419.038 56.5723 419.062 56.4981 419.112 56.4486C419.166 56.3947 419.242 56.3677 419.341 56.3677H420.94C421.268 56.3677 421.545 56.4171 421.77 56.5161C421.999 56.6105 422.175 56.75 422.296 56.9344C422.418 57.1188 422.478 57.3437 422.478 57.609C422.478 57.9059 422.391 58.1532 422.215 58.3511C422.044 58.549 421.81 58.6794 421.514 58.7424V58.648C421.851 58.6884 422.114 58.8099 422.303 59.0123C422.496 59.2147 422.593 59.4823 422.593 59.8151C422.593 60.2379 422.456 60.5617 422.181 60.7866C421.907 61.0114 421.52 61.1239 421.021 61.1239H419.341ZM419.577 60.6786H420.967C421.327 60.6786 421.597 60.6067 421.777 60.4627C421.957 60.3188 422.046 60.1007 422.046 59.8083C422.046 59.5115 421.957 59.2934 421.777 59.1539C421.597 59.01 421.327 58.9381 420.967 58.9381H419.577V60.6786ZM419.577 58.4928H420.859C421.21 58.4928 421.475 58.4208 421.655 58.2769C421.84 58.133 421.932 57.9261 421.932 57.6562C421.932 57.3774 421.84 57.1682 421.655 57.0288C421.475 56.8849 421.21 56.8129 420.859 56.8129H419.577V58.4928Z" fill="#9B9B9B"/>
<path d="M409.896 61.1239C409.797 61.1239 409.72 61.0991 409.666 61.0497C409.617 60.9957 409.592 60.9192 409.592 60.8203V56.6713C409.592 56.5723 409.617 56.4981 409.666 56.4486C409.72 56.3947 409.797 56.3677 409.896 56.3677H411.198C411.967 56.3677 412.561 56.5701 412.979 56.9749C413.397 57.3796 413.606 57.9688 413.606 58.7424C413.606 59.1292 413.552 59.471 413.444 59.7679C413.341 60.0602 413.186 60.3076 412.979 60.51C412.772 60.7124 412.52 60.8653 412.223 60.9687C411.927 61.0722 411.585 61.1239 411.198 61.1239H409.896ZM410.145 60.6516H411.157C411.472 60.6516 411.744 60.6112 411.974 60.5302C412.208 60.4492 412.401 60.3301 412.554 60.1726C412.711 60.0152 412.828 59.8173 412.905 59.579C412.981 59.3361 413.019 59.0572 413.019 58.7424C413.019 58.1082 412.864 57.6337 412.554 57.3189C412.244 56.9996 411.778 56.8399 411.157 56.8399H410.145V60.6516Z" fill="#9B9B9B"/>
<path d="M404.613 61.1239C404.514 61.1239 404.437 61.0991 404.383 61.0497C404.334 60.9957 404.309 60.9192 404.309 60.8203V56.6713C404.309 56.5723 404.334 56.4981 404.383 56.4486C404.437 56.3947 404.514 56.3677 404.613 56.3677H407.122C407.199 56.3677 407.257 56.3879 407.298 56.4284C407.338 56.4689 407.358 56.5251 407.358 56.5971C407.358 56.6735 407.338 56.732 407.298 56.7725C407.257 56.8129 407.199 56.8332 407.122 56.8332H404.849V58.4793H406.981C407.057 58.4793 407.116 58.4995 407.156 58.54C407.197 58.576 407.217 58.6322 407.217 58.7087C407.217 58.7851 407.197 58.8436 407.156 58.8841C407.116 58.9246 407.057 58.9448 406.981 58.9448H404.849V60.6584H407.122C407.199 60.6584 407.257 60.6786 407.298 60.7191C407.338 60.7596 407.358 60.8158 407.358 60.8878C407.358 60.9642 407.338 61.0227 407.298 61.0632C407.257 61.1036 407.199 61.1239 407.122 61.1239H404.613Z" fill="#9B9B9B"/>
<path d="M398.724 61.1711C398.634 61.1711 398.565 61.1464 398.515 61.0969C398.47 61.0429 398.448 60.971 398.448 60.881V56.651C398.448 56.5566 398.472 56.4869 398.522 56.4419C398.571 56.3924 398.641 56.3677 398.731 56.3677H400.33C400.838 56.3677 401.23 56.4869 401.504 56.7252C401.778 56.9636 401.915 57.3032 401.915 57.7439C401.915 58.0228 401.852 58.2657 401.727 58.4726C401.605 58.6749 401.425 58.8301 401.187 58.9381C400.948 59.0415 400.663 59.0932 400.33 59.0932L400.397 59.0055H400.532C400.708 59.0055 400.861 59.0505 400.991 59.1404C401.122 59.2304 401.241 59.3743 401.349 59.5722L401.996 60.7798C402.032 60.8428 402.048 60.9058 402.044 60.9687C402.044 61.0272 402.023 61.0767 401.983 61.1171C401.942 61.1531 401.884 61.1711 401.807 61.1711C401.731 61.1711 401.668 61.1531 401.619 61.1171C401.569 61.0812 401.526 61.0294 401.49 60.962L400.755 59.5992C400.652 59.4058 400.532 59.2776 400.397 59.2147C400.263 59.1472 400.085 59.1135 399.864 59.1135H399.001V60.881C399.001 60.971 398.978 61.0429 398.933 61.0969C398.889 61.1464 398.819 61.1711 398.724 61.1711ZM399.001 58.6749H400.249C400.618 58.6749 400.897 58.5985 401.086 58.4456C401.274 58.2881 401.369 58.0543 401.369 57.7439C401.369 57.4426 401.274 57.2155 401.086 57.0626C400.897 56.9051 400.618 56.8264 400.249 56.8264H399.001V58.6749Z" fill="#9B9B9B"/>
<path d="M393.468 61.1239C393.369 61.1239 393.293 61.0991 393.239 61.0497C393.189 60.9957 393.165 60.9192 393.165 60.8203V56.6713C393.165 56.5723 393.189 56.4981 393.239 56.4486C393.293 56.3947 393.369 56.3677 393.468 56.3677H395.978C396.054 56.3677 396.113 56.3879 396.153 56.4284C396.194 56.4689 396.214 56.5251 396.214 56.5971C396.214 56.6735 396.194 56.732 396.153 56.7725C396.113 56.8129 396.054 56.8332 395.978 56.8332H393.704V58.4793H395.836C395.913 58.4793 395.971 58.4995 396.012 58.54C396.052 58.576 396.072 58.6322 396.072 58.7087C396.072 58.7851 396.052 58.8436 396.012 58.8841C395.971 58.9246 395.913 58.9448 395.836 58.9448H393.704V60.6584H395.978C396.054 60.6584 396.113 60.6786 396.153 60.7191C396.194 60.7596 396.214 60.8158 396.214 60.8878C396.214 60.9642 396.194 61.0227 396.153 61.0632C396.113 61.1036 396.054 61.1239 395.978 61.1239H393.468Z" fill="#9B9B9B"/>
<path d="M385.914 61.1715C385.833 61.1715 385.768 61.1512 385.718 61.1107C385.669 61.0658 385.628 61.0006 385.597 60.9151L384.106 56.6581C384.074 56.5637 384.081 56.485 384.126 56.422C384.176 56.3545 384.252 56.3208 384.355 56.3208C384.432 56.3208 384.493 56.341 384.538 56.3815C384.583 56.4175 384.621 56.476 384.652 56.5569L386.049 60.652H385.813L387.236 56.5772C387.268 56.4917 387.306 56.4287 387.351 56.3883C387.396 56.3433 387.457 56.3208 387.533 56.3208C387.605 56.3208 387.661 56.3433 387.702 56.3883C387.747 56.4287 387.785 56.4917 387.816 56.5772L389.22 60.652H389.01L390.42 56.5569C390.443 56.4805 390.477 56.422 390.522 56.3815C390.571 56.341 390.634 56.3208 390.711 56.3208C390.805 56.3208 390.875 56.3523 390.92 56.4153C390.965 56.4782 390.969 56.5592 390.933 56.6581L389.436 60.9151C389.404 61.0006 389.364 61.0658 389.314 61.1107C389.269 61.1512 389.204 61.1715 389.118 61.1715C389.037 61.1715 388.972 61.1512 388.923 61.1107C388.878 61.0658 388.837 61.0006 388.801 60.9151L387.445 57.0089H387.594L386.224 60.9151C386.193 61.0006 386.155 61.0658 386.11 61.1107C386.065 61.1512 385.999 61.1715 385.914 61.1715Z" fill="#9B9B9B"/>
<path d="M379.972 61.1848C379.531 61.1848 379.146 61.0858 378.818 60.8879C378.494 60.6855 378.242 60.4022 378.062 60.0379C377.887 59.6736 377.799 59.2418 377.799 58.7426C377.799 58.3648 377.849 58.0275 377.948 57.7306C378.051 57.4293 378.197 57.1752 378.386 56.9683C378.575 56.7569 378.802 56.595 379.068 56.4825C379.337 56.3656 379.639 56.3071 379.972 56.3071C380.421 56.3071 380.808 56.4061 381.132 56.604C381.46 56.8019 381.712 57.083 381.888 57.4473C382.068 57.8071 382.157 58.2366 382.157 58.7358C382.157 59.1136 382.106 59.4532 382.002 59.7545C381.899 60.0559 381.753 60.3122 381.564 60.5236C381.375 60.735 381.146 60.8992 380.876 61.0161C380.61 61.1286 380.309 61.1848 379.972 61.1848ZM379.972 60.6923C380.313 60.6923 380.601 60.6158 380.835 60.4629C381.074 60.31 381.256 60.0874 381.382 59.795C381.508 59.5027 381.571 59.1519 381.571 58.7426C381.571 58.1264 381.431 57.6497 381.152 57.3123C380.878 56.9705 380.484 56.7996 379.972 56.7996C379.639 56.7996 379.353 56.8761 379.115 57.029C378.881 57.1819 378.701 57.4045 378.575 57.6969C378.449 57.9847 378.386 58.3333 378.386 58.7426C378.386 59.3543 378.526 59.8332 378.805 60.1796C379.083 60.5214 379.472 60.6923 379.972 60.6923Z" fill="#9B9B9B"/>
<path d="M372.685 61.1711C372.595 61.1711 372.526 61.1464 372.476 61.0969C372.431 61.0429 372.409 60.971 372.409 60.881V56.651C372.409 56.5566 372.433 56.4869 372.483 56.4419C372.532 56.3924 372.602 56.3677 372.692 56.3677H374.291C374.799 56.3677 375.19 56.4936 375.465 56.7455C375.739 56.9928 375.876 57.3437 375.876 57.7979C375.876 58.2477 375.739 58.5985 375.465 58.8503C375.19 59.1022 374.799 59.2281 374.291 59.2281H372.962V60.881C372.962 60.971 372.939 61.0429 372.894 61.0969C372.849 61.1464 372.78 61.1711 372.685 61.1711ZM372.962 58.7626H374.223C374.588 58.7626 374.862 58.6817 375.047 58.5198C375.235 58.3534 375.33 58.1127 375.33 57.7979C375.33 57.4786 375.235 57.238 375.047 57.076C374.862 56.9096 374.588 56.8264 374.223 56.8264H372.962V58.7626Z" fill="#9B9B9B"/>
<path opacity="0.9" d="M557.552 44.4669C560.013 42.049 560.013 38.1287 557.552 35.7108C555.091 33.2929 551.102 33.2929 548.641 35.7108C546.181 38.1287 546.181 42.049 548.641 44.4669C551.102 46.8849 555.091 46.8849 557.552 44.4669Z" fill="#9B9B9B"/>
<path opacity="0.9" d="M553.009 35.5649C553.009 31.6204 556.206 28.4229 560.151 28.4229C564.095 28.4229 567.293 31.6204 567.293 35.5649V44.3873C567.293 48.3318 564.095 51.5294 560.151 51.5294C556.206 51.5294 553.009 48.3318 553.009 44.3873V35.5649Z" fill="#E3E3E3"/>
<path opacity="0.9" d="M563.09 31.7836C563.09 27.8392 566.288 24.6416 570.232 24.6416C574.177 24.6416 577.374 27.8392 577.374 31.7836V47.7481C577.374 51.6925 574.177 54.8901 570.232 54.8901C566.288 54.8901 563.09 51.6925 563.09 47.7481V31.7836Z" fill="#9B9B9B"/>
<path opacity="0.9" d="M572.754 35.5649C572.754 31.6204 575.952 28.4229 579.896 28.4229C583.841 28.4229 587.038 31.6204 587.038 35.5649V44.3873C587.038 48.3318 583.841 51.5294 579.896 51.5294C575.952 51.5294 572.754 48.3318 572.754 44.3873V35.5649Z" fill="#E3E3E3"/>
<path opacity="0.9" d="M591.581 44.4669C594.042 42.049 594.042 38.1287 591.581 35.7108C589.121 33.2929 585.131 33.2929 582.671 35.7108C580.21 38.1287 580.21 42.049 582.671 44.4669C585.131 46.8849 589.121 46.8849 591.581 44.4669Z" fill="#9B9B9B"/>
<rect x="534.864" y="40.5254" width="70.3203" height="14.0244" rx="7.0122" fill="white" stroke="#9B9B9B" stroke-width="0.679742"/>
<path d="M541.661 44.8677H542.722L545.254 50.689H543.807L543.305 49.4557H541.044L540.559 50.689H539.145L541.661 44.8677ZM542.154 46.5615L541.447 48.3704H542.87L542.154 46.5615Z" fill="#9B9B9B"/>
<path d="M551.159 48.4444C551.159 48.7897 551.107 49.1076 551.003 49.3981C550.899 49.6886 550.743 49.9408 550.534 50.1546C550.332 50.3683 550.077 50.5355 549.77 50.6561C549.463 50.7767 549.109 50.837 548.709 50.837C548.303 50.837 547.947 50.7767 547.64 50.6561C547.333 50.5355 547.076 50.3683 546.867 50.1546C546.665 49.9408 546.511 49.6886 546.407 49.3981C546.303 49.1076 546.251 48.7897 546.251 48.4444V44.8677H547.533V48.395C547.533 48.5759 547.561 48.7431 547.616 48.8966C547.676 49.0501 547.758 49.1843 547.862 49.2995C547.966 49.4091 548.09 49.4968 548.232 49.5626C548.38 49.6229 548.539 49.653 548.709 49.653C548.879 49.653 549.035 49.6229 549.178 49.5626C549.32 49.4968 549.444 49.4091 549.548 49.2995C549.652 49.1843 549.731 49.0501 549.786 48.8966C549.846 48.7431 549.877 48.5759 549.877 48.395V44.8677H551.159V48.4444Z" fill="#9B9B9B"/>
<path d="M553.883 46.0024H552.222V44.8677H556.826V46.0024H555.165V50.689H553.883V46.0024Z" fill="#9B9B9B"/>
<path d="M557.576 47.7784C557.576 47.3124 557.653 46.8904 557.806 46.5122C557.965 46.1339 558.185 45.8133 558.464 45.5502C558.744 45.2816 559.075 45.076 559.459 44.9335C559.843 44.791 560.262 44.7197 560.717 44.7197C561.172 44.7197 561.591 44.791 561.975 44.9335C562.359 45.076 562.69 45.2816 562.97 45.5502C563.249 45.8133 563.466 46.1339 563.619 46.5122C563.778 46.8904 563.858 47.3124 563.858 47.7784C563.858 48.2443 563.778 48.6664 563.619 49.0446C563.466 49.4228 563.249 49.7462 562.97 50.0148C562.69 50.2779 562.359 50.4807 561.975 50.6232C561.591 50.7657 561.172 50.837 560.717 50.837C560.262 50.837 559.843 50.7657 559.459 50.6232C559.075 50.4807 558.744 50.2779 558.464 50.0148C558.185 49.7462 557.965 49.4228 557.806 49.0446C557.653 48.6664 557.576 48.2443 557.576 47.7784ZM558.908 47.7784C558.908 48.0524 558.949 48.3046 559.031 48.5348C559.119 48.7595 559.242 48.9569 559.401 49.1268C559.56 49.2912 559.749 49.42 559.969 49.5132C560.193 49.6064 560.443 49.653 560.717 49.653C560.991 49.653 561.238 49.6064 561.457 49.5132C561.682 49.42 561.874 49.2912 562.032 49.1268C562.191 48.9569 562.312 48.7595 562.394 48.5348C562.482 48.3046 562.526 48.0524 562.526 47.7784C562.526 47.5098 562.482 47.2604 562.394 47.0301C562.312 46.7999 562.191 46.6026 562.032 46.4382C561.874 46.2682 561.682 46.1367 561.457 46.0435C561.238 45.9503 560.991 45.9037 560.717 45.9037C560.443 45.9037 560.193 45.9503 559.969 46.0435C559.749 46.1367 559.56 46.2682 559.401 46.4382C559.242 46.6026 559.119 46.7999 559.031 47.0301C558.949 47.2604 558.908 47.5098 558.908 47.7784Z" fill="#9B9B9B"/>
<path d="M576.116 44.8677H577.398V49.505H579.775V50.689H576.116V44.8677Z" fill="#9B9B9B"/>
<path d="M580.581 47.7784C580.581 47.3124 580.658 46.8904 580.811 46.5122C580.97 46.1339 581.19 45.8133 581.469 45.5502C581.749 45.2816 582.08 45.076 582.464 44.9335C582.848 44.791 583.267 44.7197 583.722 44.7197C584.177 44.7197 584.596 44.791 584.98 44.9335C585.364 45.076 585.695 45.2816 585.975 45.5502C586.255 45.8133 586.471 46.1339 586.625 46.5122C586.783 46.8904 586.863 47.3124 586.863 47.7784C586.863 48.2443 586.783 48.6664 586.625 49.0446C586.471 49.4228 586.255 49.7462 585.975 50.0148C585.695 50.2779 585.364 50.4807 584.98 50.6232C584.596 50.7657 584.177 50.837 583.722 50.837C583.267 50.837 582.848 50.7657 582.464 50.6232C582.08 50.4807 581.749 50.2779 581.469 50.0148C581.19 49.7462 580.97 49.4228 580.811 49.0446C580.658 48.6664 580.581 48.2443 580.581 47.7784ZM581.913 47.7784C581.913 48.0524 581.954 48.3046 582.037 48.5348C582.124 48.7595 582.248 48.9569 582.407 49.1268C582.566 49.2912 582.755 49.42 582.974 49.5132C583.199 49.6064 583.448 49.653 583.722 49.653C583.996 49.653 584.243 49.6064 584.462 49.5132C584.687 49.42 584.879 49.2912 585.038 49.1268C585.197 48.9569 585.317 48.7595 585.399 48.5348C585.487 48.3046 585.531 48.0524 585.531 47.7784C585.531 47.5098 585.487 47.2604 585.399 47.0301C585.317 46.7999 585.197 46.6026 585.038 46.4382C584.879 46.2682 584.687 46.1367 584.462 46.0435C584.243 45.9503 583.996 45.9037 583.722 45.9037C583.448 45.9037 583.199 45.9503 582.974 46.0435C582.755 46.1367 582.566 46.2682 582.407 46.4382C582.248 46.6026 582.124 46.7999 582.037 47.0301C581.954 47.2604 581.913 47.5098 581.913 47.7784Z" fill="#9B9B9B"/>
<path d="M593.054 48.4444C593.054 48.7897 593.002 49.1076 592.898 49.3981C592.794 49.6886 592.638 49.9408 592.43 50.1546C592.227 50.3683 591.972 50.5355 591.665 50.6561C591.358 50.7767 591.004 50.837 590.604 50.837C590.199 50.837 589.842 50.7767 589.535 50.6561C589.228 50.5355 588.971 50.3683 588.763 50.1546C588.56 49.9408 588.406 49.6886 588.302 49.3981C588.198 49.1076 588.146 48.7897 588.146 48.4444V44.8677H589.429V48.395C589.429 48.5759 589.456 48.7431 589.511 48.8966C589.571 49.0501 589.653 49.1843 589.757 49.2995C589.862 49.4091 589.985 49.4968 590.127 49.5626C590.275 49.6229 590.434 49.653 590.604 49.653C590.774 49.653 590.93 49.6229 591.073 49.5626C591.215 49.4968 591.339 49.4091 591.443 49.2995C591.547 49.1843 591.627 49.0501 591.681 48.8966C591.742 48.7431 591.772 48.5759 591.772 48.395V44.8677H593.054V48.4444Z" fill="#9B9B9B"/>
<path d="M594.651 44.8677H596.575C597.041 44.8677 597.482 44.9198 597.899 45.0239C598.321 45.1281 598.688 45.298 599.001 45.5337C599.313 45.7639 599.56 46.0654 599.741 46.4382C599.927 46.8109 600.02 47.2631 600.02 47.7948C600.02 48.2662 599.93 48.6828 599.749 49.0446C599.574 49.4009 599.335 49.7023 599.034 49.949C598.732 50.1902 598.384 50.3738 597.99 50.4999C597.595 50.626 597.181 50.689 596.748 50.689H594.651V44.8677ZM595.934 49.505H596.6C596.896 49.505 597.17 49.4749 597.422 49.4146C597.68 49.3543 597.902 49.2556 598.088 49.1186C598.275 48.9761 598.42 48.7924 598.524 48.5677C598.634 48.3375 598.688 48.0579 598.688 47.729C598.688 47.444 598.634 47.1973 598.524 46.989C598.42 46.7753 598.277 46.5999 598.096 46.4628C597.916 46.3258 597.702 46.2244 597.455 46.1586C597.214 46.0873 596.959 46.0517 596.69 46.0517H595.934V49.505Z" fill="#9B9B9B"/>
<path d="M572.63 45.3305C572.428 45.0881 572.178 44.9019 571.879 44.772C571.589 44.6422 571.251 44.5772 570.865 44.5772C570.479 44.5772 570.119 44.6508 569.785 44.798C569.46 44.9452 569.175 45.153 568.929 45.4214C568.692 45.6812 568.503 45.9929 568.363 46.3565C568.231 46.7202 568.165 47.1141 568.165 47.5384C568.165 47.9713 568.231 48.3696 568.363 48.7332C568.503 49.0882 568.692 49.3999 568.929 49.6683C569.166 49.9281 569.443 50.1316 569.759 50.2788C570.084 50.426 570.43 50.4995 570.799 50.4995C571.221 50.4995 571.594 50.413 571.919 50.2398C572.244 50.0666 572.511 49.8242 572.722 49.5125L574.434 50.7723C574.039 51.3178 573.539 51.7204 572.933 51.9801C572.327 52.2399 571.704 52.3698 571.063 52.3698C570.334 52.3698 569.662 52.2572 569.048 52.0321C568.433 51.807 567.902 51.4866 567.454 51.071C567.006 50.6467 566.655 50.1359 566.4 49.5385C566.155 48.941 566.032 48.2744 566.032 47.5384C566.032 46.8024 566.155 46.1357 566.4 45.5383C566.655 44.9409 567.006 44.4344 567.454 44.0188C567.902 43.5945 568.433 43.2698 569.048 43.0447C569.662 42.8196 570.334 42.707 571.063 42.707C571.326 42.707 571.598 42.733 571.879 42.785C572.169 42.8282 572.45 42.9018 572.722 43.0057C573.003 43.1096 573.271 43.2482 573.525 43.4213C573.78 43.5945 574.008 43.8066 574.21 44.0577L572.63 45.3305Z" fill="#9B9B9B"/>
<path d="M570.85 49.9257C570.578 49.9257 570.356 49.7089 570.356 49.4448V47.687C570.356 47.4219 570.579 47.2061 570.85 47.2061C571.123 47.2061 571.345 47.4229 571.345 47.687V49.4448C571.345 49.7098 571.122 49.9257 570.85 49.9257Z" fill="#9B9B9B"/>
<path d="M572.09 46.9482C572.225 46.2677 571.785 45.6067 571.107 45.4718C570.429 45.3368 569.771 45.779 569.636 46.4594C569.502 47.1398 569.942 47.8008 570.62 47.9358C571.298 48.0708 571.956 47.6286 572.09 46.9482Z" fill="#9B9B9B"/>
<path d="M571.345 46.7113C571.345 46.9844 571.124 47.2058 570.85 47.2058C570.577 47.2058 570.356 46.9844 570.356 46.7113C570.356 46.4381 570.577 46.2168 570.85 46.2168C571.124 46.2168 571.345 46.4381 571.345 46.7113Z" fill="#E3E3E3"/>
<path d="M558.213 59.8227C559.235 59.8227 560.102 60.5035 560.39 61.4379H562.976C563.225 61.4379 563.428 61.2339 563.428 60.9831V57.2658C563.428 56.8921 563.729 56.5892 564.1 56.5892C564.472 56.5892 564.773 56.8921 564.773 57.2658V60.9831C564.773 61.98 563.967 62.7911 562.976 62.7911H560.39C560.102 63.7255 559.235 64.4062 558.213 64.4062C556.958 64.4062 555.936 63.3782 555.936 62.1145C555.936 60.8508 556.958 59.8227 558.213 59.8227ZM558.213 63.0531C558.728 63.0531 559.146 62.6321 559.146 62.1145C559.146 61.5969 558.728 61.1759 558.213 61.1759C557.699 61.1759 557.281 61.5969 557.281 62.1145C557.281 62.6321 557.699 63.0531 558.213 63.0531Z" fill="#9B9B9B"/>
<path d="M570.835 56.5894C571.269 56.5894 571.621 56.9416 571.621 57.376V61.148C572.708 61.4843 573.499 62.4983 573.499 63.6939C573.499 65.1632 572.304 66.3584 570.835 66.3584C569.366 66.3584 568.17 65.1632 568.17 63.6939C568.17 62.4984 568.962 61.4843 570.048 61.148V57.376C570.048 56.9416 570.4 56.5894 570.835 56.5894ZM569.744 63.6939C569.744 64.2956 570.233 64.7852 570.835 64.7852C571.437 64.7852 571.926 64.2957 571.926 63.6939C571.926 63.0921 571.437 62.6026 570.835 62.6026C570.233 62.6026 569.744 63.0922 569.744 63.6939Z" fill="#9B9B9B"/>
<path d="M583.228 64.4062C582.206 64.4062 581.339 63.7255 581.052 62.7911H578.465C577.474 62.7911 576.668 61.98 576.668 60.9831V57.2658C576.668 56.8921 576.969 56.5892 577.341 56.5892C577.712 56.5892 578.013 56.8921 578.013 57.2658V60.9831C578.013 61.2339 578.216 61.4379 578.465 61.4379H581.052C581.339 60.5035 582.206 59.8227 583.228 59.8227C584.483 59.8227 585.505 60.8508 585.505 62.1145C585.505 63.3782 584.483 64.4062 583.228 64.4062ZM583.228 61.1759C582.713 61.1759 582.295 61.5969 582.295 62.1145C582.295 62.6321 582.713 63.0531 583.228 63.0531C583.742 63.0531 584.16 62.6321 584.16 62.1145C584.16 61.5969 583.742 61.1759 583.228 61.1759Z" fill="#9B9B9B"/>
<path d="M698.93 24C700.976 27.5833 703.022 31.1666 705.068 34.7224C700.976 34.75 696.857 34.75 692.765 34.7775C692.157 34.7775 691.576 34.75 690.968 34.75C687.457 34.7224 683.918 34.7224 680.406 34.7224C681.761 32.407 683.116 30.1192 684.443 27.8038C685.162 26.5635 685.825 25.2679 686.489 24C690.636 24 694.783 24 698.93 24Z" fill="#9B9B9B"/>
<path d="M686.489 24C685.798 25.2679 685.162 26.5359 684.443 27.8038C683.116 30.1192 681.761 32.407 680.407 34.7224C680.351 34.7775 680.268 34.8051 680.185 34.8051C676.121 34.7775 672.057 34.75 667.993 34.75C668.795 33.2615 669.596 31.7731 670.426 30.3122C671.615 28.1897 672.831 26.0949 674.048 24C678.195 24 682.342 24 686.489 24Z" fill="#ADADAD"/>
<path d="M655.524 55.6984C655.8 55.3401 656.105 55.0093 656.326 54.651C658.012 51.7568 659.699 48.8626 661.385 45.9408C661.413 45.8581 661.523 45.8305 661.579 45.7754C661.8 45.9132 662.076 45.9959 662.187 46.1889C662.795 47.1536 663.376 48.1183 663.956 49.0831C665.118 51.0952 666.251 53.1074 667.412 55.092C667.578 55.3401 667.938 55.4779 668.214 55.6709C667.993 56.1395 667.772 56.6356 667.523 57.1042C665.975 59.833 664.426 62.5619 662.878 65.2631C662.629 65.7317 662.325 66.1452 661.938 66.724C660.86 64.9048 659.837 63.1683 658.842 61.4593C657.902 59.8606 656.962 58.2343 656.022 56.6356C655.911 56.4427 655.69 56.3324 655.524 56.1946C655.524 56.0568 655.524 55.8914 655.524 55.6984Z" fill="#EFEFEF"/>
<path d="M851.571 37.5342C851.377 37.7822 851.184 38.0303 850.935 38.3611C850.714 38.113 850.52 37.8925 850.271 37.6169C850.188 38.0579 850.106 38.4438 849.967 39.0502C849.248 38.2233 849.774 37.3963 849.414 36.6246C849.193 36.6521 848.889 36.6521 848.557 36.7072C848.53 37.4515 848.474 38.1406 848.447 38.8572C847.7 38.306 848.032 37.5893 847.866 36.9002C847.673 36.7624 847.396 36.597 847.12 36.4316C847.147 36.3765 847.175 36.2938 847.175 36.2387C848.143 36.2387 849.083 36.2387 850.161 36.2387C850.354 36.5143 850.603 36.8726 850.852 37.231C851.46 37.0931 851.267 36.0181 852.124 36.2111C852.207 36.9278 852.29 37.672 852.373 38.3887C852.373 38.5816 852.373 38.747 852.373 38.9399C852.179 38.8848 851.958 38.8572 851.681 38.8021C851.709 38.4162 851.709 38.0303 851.737 37.672C851.737 37.5893 851.737 37.5066 851.709 37.4239C851.681 37.3963 851.626 37.479 851.571 37.5342Z" fill="#9B9B9B"/>
<path d="M686.489 67.0002C686.489 66.9175 686.489 66.8348 686.489 66.7521C686.572 66.7246 686.682 66.697 686.765 66.6694C690.829 66.697 694.866 66.697 698.93 66.7246C698.93 66.8073 698.93 66.89 698.93 67.0002C694.783 67.0002 690.636 67.0002 686.489 67.0002Z" fill="#EFEFEF"/>
<path d="M852.372 38.3333C852.289 37.6166 852.206 36.8724 852.124 36.1557C852.206 36.0455 852.289 35.9628 852.372 35.8525C852.372 36.6795 852.372 37.5064 852.372 38.3333Z" fill="#909090"/>
<path d="M722.928 53.5762C722.928 57.1595 722.928 60.4397 722.928 63.83C721.407 63.83 719.942 63.83 718.394 63.83C718.366 63.582 718.283 63.2788 718.283 62.9755C718.283 57.1871 718.2 51.3987 718.311 45.6378C718.394 41.0897 720.716 36.7346 725.942 35.4391C730.531 34.309 734.678 35.1083 737.802 38.9122C742.143 44.2045 740.512 54.1551 732.218 56.0845C729.176 56.8012 726.273 56.3602 723.785 54.2929C723.592 54.1275 723.37 53.9621 722.928 53.5762ZM735.259 45.7205C735.231 45.307 735.203 44.8936 735.148 44.4801C734.789 41.641 732.715 39.6288 729.591 39.2705C727.352 39.0224 724.532 40.1525 723.398 42.9089C722.873 44.1769 722.817 45.5 722.956 46.823C723.453 51.0128 727.905 53.4384 731.72 51.6192C734.208 50.4339 735.176 48.3115 735.259 45.7205Z" fill="#9B9B9B"/>
<path d="M797.078 55.8087C795.862 55.9465 794.784 56.1395 793.678 56.1671C790.885 56.2222 788.065 56.3324 785.273 56.1946C783.918 56.1395 782.564 55.726 781.292 55.2023C778.555 54.0998 777.698 52.0876 777.863 49.2485C778.112 45.169 780.573 43.7357 784.526 43.3222C786.794 43.0741 789.116 43.2671 791.411 43.2671C791.715 43.2671 792.047 43.2671 792.351 43.2671C792.461 41.0895 791.494 39.6286 789.475 39.1601C786.932 38.5812 784.361 38.5536 781.9 39.6562C781.568 39.794 781.236 39.9594 780.905 40.0972C779.135 38.7466 779.273 36.762 781.264 35.8524C782.176 35.4389 783.199 35.1908 784.167 35.1081C786.517 34.8876 788.839 34.9428 791.162 35.5767C794.977 36.5966 797.078 39.2427 797.106 43.1293C797.134 47.0709 797.106 51.0126 797.106 54.9818C797.134 55.2023 797.106 55.4228 797.078 55.8087ZM792.517 46.8229C791.632 46.7126 790.83 46.5472 790.001 46.4921C788.176 46.3818 786.324 46.2716 784.554 46.878C783.199 47.3466 782.508 48.4216 782.536 49.8273C782.564 51.178 783.227 52.1703 784.609 52.5562C787.208 53.2453 789.835 53.0799 792.489 52.6113C792.517 50.6818 792.517 48.8626 792.517 46.8229Z" fill="#9B9B9B"/>
<path d="M765.339 45.7203C765.533 51.2331 761.054 56.36 754.28 56.4152C747.949 56.4703 743.083 51.7293 743.138 45.6376C743.166 39.5184 747.921 35.0255 754.28 35.0255C760.805 34.9979 765.56 40.0422 765.339 45.7203ZM754.225 39.1325C750.631 39.1325 747.977 41.9441 747.977 45.7479C747.977 49.4139 750.686 52.2806 754.17 52.2806C757.847 52.2806 760.501 49.5793 760.473 45.7203C760.473 41.1447 757.294 39.105 754.225 39.1325Z" fill="#9B9B9B"/>
<path d="M844.106 40.5662C841.507 38.9123 838.604 38.4162 835.563 38.6367C834.872 38.6918 834.181 38.8296 833.545 39.0777C832.522 39.436 832.052 40.1251 832.079 41.0348C832.107 41.9995 832.688 42.6059 833.545 42.7989C835.01 43.1296 836.503 43.3501 837.996 43.5982C839.406 43.8463 840.788 44.0944 842.198 44.37C842.558 44.4527 842.889 44.5905 843.249 44.7283C847.037 46.4097 847.866 51.1507 844.908 54.045C843.747 55.1751 842.336 55.7815 840.761 56.0571C836.226 56.8841 831.886 56.2501 827.739 54.293C827.545 54.2104 827.352 54.045 827.075 53.852C827.628 52.8322 828.181 51.8398 828.679 50.9302C830.586 51.454 832.383 52.0879 834.263 52.4738C836.116 52.8597 838.024 52.8873 839.876 52.3636C840.484 52.1706 841.175 51.7847 841.535 51.2886C842.309 50.1584 841.618 48.7251 840.097 48.3392C838.825 48.0085 837.471 47.8706 836.143 47.7052C834.374 47.4572 832.577 47.3469 830.891 46.6027C829.011 45.7758 827.711 44.4251 827.462 42.3027C827.213 39.9322 827.905 37.9751 829.978 36.5969C831.305 35.7149 832.826 35.3014 834.374 35.1361C836.945 34.888 839.516 34.9431 842.06 35.6046C842.724 35.77 843.387 36.0181 843.968 36.3489C846.014 37.479 846.069 39.1053 844.106 40.5662Z" fill="#9B9B9B"/>
<path d="M773.965 55.8086C772.389 55.8086 770.979 55.8086 769.458 55.8086C769.431 55.3952 769.375 54.9817 769.375 54.5958C769.375 45.9958 769.375 37.4234 769.375 28.8235C769.375 26.701 770.094 26.0119 772.223 26.1773C772.804 26.2049 773.384 26.3978 773.965 26.5081C773.965 36.3209 773.965 45.9958 773.965 55.8086Z" fill="#9B9B9B"/>
<path d="M711.123 45.5C710.791 46.134 710.487 46.7955 710.128 47.4295C708.33 50.4891 706.533 53.5211 704.736 56.5807C704.322 56.4705 703.907 56.3051 703.492 56.2775C699.926 56.25 696.387 56.25 692.82 56.25C692.82 56.1397 692.82 56.0295 692.793 55.9192C692.959 55.5884 693.097 55.2577 693.263 54.9545C695.087 51.8122 696.885 48.6699 698.709 45.5C702.884 45.5 707.003 45.5 711.123 45.5Z" fill="#909090"/>
<path d="M711.122 45.5C707.003 45.5 702.884 45.5 698.736 45.5C698.488 44.9763 698.239 44.425 697.962 43.9288C696.248 40.8692 694.506 37.8372 692.765 34.8051C696.856 34.7776 700.976 34.7776 705.068 34.75C707.058 38.1679 709.077 41.5859 711.067 45.0038C711.15 45.1141 711.095 45.3346 711.122 45.5Z" fill="#B7B7B7"/>
<path d="M806.478 55.809C804.902 55.809 803.437 55.809 801.889 55.809C801.861 55.4782 801.806 55.1199 801.778 54.7891C801.778 50.9853 801.778 47.1539 801.778 43.3501C801.778 42.661 801.778 41.9719 801.917 41.2828C802.552 37.6995 804.764 35.6322 808.663 35.1084C810.487 34.8604 812.34 34.9155 814.109 35.5495C816.404 36.3488 816.846 38.1405 815.187 39.9597C814.247 39.7392 813.335 39.3809 812.395 39.2982C811.372 39.2155 810.266 39.2155 809.271 39.4635C807.363 39.9873 806.7 41.5309 806.506 43.3501C806.423 44.1219 806.478 44.9212 806.478 45.693C806.478 48.5872 806.478 51.4815 806.478 54.3757C806.478 54.8443 806.478 55.2853 806.478 55.809Z" fill="#9B9B9B"/>
<path d="M692.848 56.25C696.414 56.25 699.981 56.25 703.52 56.2776C703.934 56.2776 704.349 56.4705 704.764 56.5808C703.05 59.5852 701.335 62.5897 699.649 65.5942C699.428 65.9801 699.179 66.366 698.958 66.7794C694.894 66.7519 690.857 66.7519 686.793 66.7243C686.876 66.4762 686.931 66.2006 687.069 65.9525C688.092 64.1884 689.088 62.3968 690.138 60.6327C690.995 59.1442 691.935 57.7109 692.848 56.25Z" fill="#9B9B9B"/>
<path d="M823.343 35.9906C823.343 42.6335 823.343 49.1662 823.343 55.8091C821.85 55.8091 820.385 55.8091 818.809 55.8091C818.781 55.3129 818.754 54.8719 818.754 54.4309C818.754 49.1386 818.836 43.8739 818.726 38.5816C818.671 35.5771 820.412 35.3566 822.431 35.7149C822.679 35.7425 822.956 35.8527 823.343 35.9906Z" fill="#9B9B9B"/>
<path d="M823.896 29.3198C823.896 30.9736 822.68 32.214 821.076 32.1865C819.5 32.1589 818.339 30.9736 818.311 29.3749C818.311 27.7211 819.528 26.4807 821.131 26.5083C822.707 26.5358 823.896 27.7486 823.896 29.3198Z" fill="#9B9B9B"/>
<path d="M851.571 37.534C851.626 37.4789 851.654 37.4238 851.709 37.3687C851.709 37.4513 851.709 37.534 851.737 37.6167C851.681 37.5892 851.626 37.5616 851.571 37.534Z" fill="#909090"/>
<path d="M692.848 56.25C691.936 57.7109 690.996 59.1442 690.111 60.6327C689.06 62.3968 688.065 64.1609 687.042 65.9525C686.904 66.173 686.848 66.4487 686.766 66.7243C686.683 66.7519 686.572 66.7794 686.489 66.807C684.388 63.2237 682.314 59.6128 680.213 56.0295C680.351 56.0295 680.517 56.0019 680.655 56.0019C684.637 56.0019 688.646 56.0019 692.627 56.0019C692.682 55.9743 692.737 55.9743 692.82 55.9468C692.82 56.0295 692.82 56.1397 692.848 56.25Z" fill="#949494"/>
<path d="M668.242 55.6987C667.965 55.5058 667.578 55.3955 667.44 55.1199C666.251 53.1353 665.145 51.1231 663.984 49.1109C663.431 48.1186 662.823 47.1539 662.214 46.2167C662.104 46.0237 661.8 45.9411 661.606 45.8032C661.717 45.6103 661.8 45.4449 661.91 45.252C665.974 45.252 670.011 45.252 674.075 45.252C674.186 45.2795 674.296 45.2795 674.407 45.3071H674.379C674.352 45.4725 674.324 45.6378 674.296 45.8032C673.909 46.2718 673.439 46.6853 673.135 47.209C671.449 49.993 669.845 52.8596 668.242 55.6987Z" fill="#9B9B9B"/>
<path d="M674.269 45.7754C674.296 45.6101 674.324 45.4447 674.352 45.2793C674.849 45.3069 675.347 45.362 675.845 45.362C679.301 45.3896 682.784 45.3896 686.24 45.4171C686.102 45.803 686.019 46.2165 685.825 46.5472C684.664 48.5594 683.475 50.5165 682.342 52.5562C681.734 53.6588 680.794 54.5959 680.683 55.9466C680.545 55.9466 680.379 55.9741 680.241 55.9741C678.222 52.5838 676.232 49.1658 674.269 45.7754Z" fill="#9B9B9B"/>
<path d="M674.047 45.2245C669.983 45.2245 665.947 45.2245 661.883 45.2245C662.961 43.2675 664.039 41.338 665.145 39.3809C665.726 38.3611 666.306 37.3136 666.914 36.2938C667.191 35.8252 667.55 35.4117 667.882 34.9707C668.131 35.2188 668.407 35.4393 668.601 35.7425C669.181 36.6797 669.734 37.6169 670.287 38.554C671.531 40.7867 672.776 43.0194 674.047 45.2245Z" fill="#C8C8C8"/>
<path d="M674.048 45.2243C672.804 43.0192 671.532 40.7865 670.26 38.5814C669.707 37.6442 669.154 36.6795 668.574 35.7699C668.38 35.4942 668.104 35.2737 667.855 34.9981C667.882 34.9154 667.938 34.8327 667.965 34.75C672.029 34.7776 676.094 34.7776 680.185 34.8051C679.245 36.5141 678.278 38.2231 677.338 39.9045C676.342 41.6961 675.375 43.4878 674.379 45.2519C674.269 45.2519 674.158 45.2519 674.048 45.2243Z" fill="#D5D9DA"/>
<path d="M686.24 45.4448C686.461 45.6378 686.765 45.7756 686.904 45.9961C688.839 49.3038 690.746 52.639 692.654 55.9467C688.673 55.9467 684.664 55.9467 680.683 55.9467C680.793 54.5961 681.733 53.6589 682.342 52.5563C683.475 50.5442 684.664 48.5596 685.825 46.5474C685.991 46.2166 686.102 45.8032 686.24 45.4448Z" fill="#9B9B9B"/>
<g clip-path="url(#clip1_36_20479)">
<path d="M922.389 25.5C911.337 25.5 902.373 34.4573 902.373 45.5007V65.5H906.555V45.5007C906.555 36.6988 913.58 29.6783 922.389 29.6783H932.841V25.5H922.389Z" fill="#B9B9B9"/>
<path d="M938.222 25.5V45.5007C938.222 50.2826 936.147 54.5386 932.841 57.4276V34.2009H928.659V60.053C927.35 60.6112 925.947 60.9979 924.478 61.1884V41.362H920.297V61.3217H916.115V48.5231H911.934V65.4985H922.387C933.439 65.4985 942.402 56.5427 942.402 45.4993V25.5H938.222Z" fill="#9B9B9B"/>
<path d="M950.622 42.4391C949.939 42.1592 949.394 41.7446 948.984 41.1967C948.575 40.6488 948.36 39.9881 948.338 39.216H951.395C951.439 39.6526 951.59 39.9851 951.848 40.2151C952.106 40.4451 952.442 40.5594 952.855 40.5594C953.269 40.5594 953.616 40.4613 953.864 40.2649C954.11 40.0701 954.233 39.7976 954.233 39.4504C954.233 39.1588 954.135 38.9186 953.94 38.7281C953.744 38.5377 953.503 38.3809 953.217 38.2578C952.931 38.1348 952.525 37.9956 951.999 37.8388C951.236 37.6044 950.616 37.3686 950.134 37.1342C949.653 36.8997 949.238 36.5525 948.891 36.094C948.543 35.6354 948.37 35.0362 948.37 34.2978C948.37 33.202 948.767 32.342 949.562 31.7208C950.357 31.0997 951.393 30.7891 952.67 30.7891C953.947 30.7891 955.016 31.0997 955.812 31.7208C956.607 32.342 957.032 33.2064 957.089 34.314H953.981C953.959 33.933 953.818 33.6342 953.562 33.4159C953.304 33.1976 952.974 33.0892 952.571 33.0892C952.223 33.0892 951.943 33.1815 951.731 33.3661C951.518 33.5507 951.411 33.8173 951.411 34.1631C951.411 34.544 951.59 34.8399 951.949 35.0523C952.307 35.2648 952.867 35.4948 953.629 35.7409C954.39 35.9987 955.009 36.2449 955.485 36.4793C955.962 36.7137 956.372 37.055 956.72 37.5033C957.067 37.9516 957.24 38.5274 957.24 39.2321C957.24 39.9368 957.069 40.514 956.729 41.0619C956.387 41.6099 955.892 42.0464 955.242 42.3717C954.592 42.6969 953.826 42.8581 952.94 42.8581C952.055 42.8581 951.305 42.7189 950.622 42.4391Z" fill="#9B9B9B"/>
<path d="M959.272 33.7191C959.777 32.8064 960.479 32.0959 961.38 31.5875C962.282 31.0791 963.304 30.8242 964.446 30.8242C965.846 30.8242 967.044 31.1934 968.041 31.9318C969.038 32.6702 969.704 33.6781 970.04 34.9527H966.881C966.647 34.4604 966.313 34.0854 965.882 33.8276C965.451 33.5697 964.961 33.4422 964.411 33.4422C963.525 33.4422 962.81 33.7499 962.26 34.3652C961.712 34.9805 961.438 35.8039 961.438 36.8323C961.438 37.8608 961.712 38.6842 962.26 39.2995C962.809 39.9148 963.525 40.2225 964.411 40.2225C964.959 40.2225 965.449 40.0935 965.882 39.8371C966.313 39.5793 966.645 39.2057 966.881 38.712H970.04C969.704 39.988 969.037 40.9916 968.041 41.7256C967.044 42.4581 965.846 42.8244 964.446 42.8244C963.304 42.8244 962.282 42.5694 961.38 42.0611C960.479 41.5527 959.777 40.8436 959.272 39.9382C958.768 39.0314 958.516 37.9971 958.516 36.8323C958.516 35.6676 958.768 34.6304 959.272 33.7191Z" fill="#9B9B9B"/>
<path d="M974.332 42.0879C973.409 41.5737 972.674 40.8544 972.132 39.9314C971.588 39.0084 971.316 37.9697 971.316 36.8182C971.316 35.6667 971.588 34.6309 972.132 33.7123C972.674 32.7952 973.409 32.0788 974.332 31.5631C975.256 31.0489 976.272 30.791 977.38 30.791C978.489 30.791 979.505 31.0489 980.43 31.5631C981.354 32.0773 982.082 32.7937 982.613 33.7123C983.145 34.6294 983.411 35.6652 983.411 36.8182C983.411 37.9712 983.142 39.0084 982.604 39.9314C982.066 40.8544 981.339 41.5737 980.421 42.0879C979.503 42.6022 978.489 42.86 977.38 42.86C976.272 42.86 975.256 42.6022 974.332 42.0879ZM979.641 39.3014C980.207 38.6744 980.49 37.8467 980.49 36.8167C980.49 35.7868 980.207 34.9444 979.641 34.3247C979.075 33.7035 978.322 33.3929 977.382 33.3929C976.442 33.3929 975.671 33.7006 975.106 34.3159C974.54 34.9312 974.258 35.7648 974.258 36.8167C974.258 37.8686 974.54 38.689 975.106 39.3088C975.672 39.9299 976.43 40.2405 977.382 40.2405C978.333 40.2405 979.075 39.927 979.641 39.3V39.3014Z" fill="#9B9B9B"/>
<path d="M987.83 30.959V38.0088C987.83 38.7134 988.003 39.257 988.35 39.6364C988.698 40.0173 989.206 40.2078 989.879 40.2078C990.552 40.2078 991.066 40.0173 991.425 39.6364C991.782 39.2555 991.963 38.7134 991.963 38.0088V30.959H994.835V37.9926C994.835 39.0445 994.611 39.9338 994.163 40.6619C993.715 41.3901 993.114 41.938 992.357 42.3072C991.601 42.6764 990.759 42.861 989.83 42.861C988.9 42.861 988.069 42.6793 987.336 42.316C986.603 41.9526 986.022 41.4047 985.597 40.6707C985.172 39.9382 984.959 39.046 984.959 37.9941V30.9604H987.831L987.83 30.959Z" fill="#9B9B9B"/>
<path d="M1005.33 30.9595V33.2596H1002.21V42.7443H999.337V33.2581H996.213V30.958H1005.33V30.9595Z" fill="#9B9B9B"/>
<path d="M955.627 53.364C955.347 53.8899 954.898 54.3177 954.283 54.6473C953.667 54.977 952.877 55.1425 951.915 55.1425H949.798V59.8761H947.883V48.21H951.915C952.811 48.21 953.57 48.3638 954.19 48.6715C954.812 48.9791 955.277 49.3966 955.585 49.9226C955.892 50.4485 956.046 51.036 956.046 51.685C956.046 52.2784 955.906 52.838 955.626 53.364H955.627ZM953.544 53.0871C953.901 52.7574 954.082 52.2901 954.082 51.685C954.082 50.409 953.359 49.7717 951.915 49.7717H949.798V53.5823H951.915C952.642 53.5823 953.186 53.4167 953.544 53.0871Z" fill="#B9B9B9"/>
<path d="M963.943 59.8761L961.255 55.2099H959.794V59.8761H957.879V48.21H961.911C962.807 48.21 963.566 48.3667 964.186 48.6802C964.808 48.9938 965.273 49.4128 965.581 49.9387C965.888 50.4647 966.042 51.0521 966.042 51.7012C966.042 52.463 965.821 53.153 965.378 53.7742C964.936 54.3954 964.255 54.8173 963.337 55.0414L966.227 59.8761H963.943ZM959.794 53.6819H961.911C962.628 53.6819 963.167 53.5032 963.532 53.1442C963.896 52.7867 964.078 52.3047 964.078 51.7012C964.078 51.0976 963.899 50.6243 963.54 50.283C963.181 49.9416 962.638 49.7717 961.911 49.7717H959.794V53.6834V53.6819Z" fill="#B9B9B9"/>
<path d="M970.82 59.2295C969.907 58.7212 969.185 58.0106 968.653 57.0979C968.121 56.1866 967.855 55.1596 967.855 54.0169C967.855 52.8742 968.121 51.8516 968.653 50.9447C969.185 50.0379 969.907 49.3303 970.82 48.8219C971.732 48.3135 972.732 48.0586 973.818 48.0586C974.905 48.0586 975.921 48.3135 976.834 48.8219C977.746 49.3317 978.466 50.0393 978.992 50.9447C979.519 51.8516 979.781 52.8756 979.781 54.0169C979.781 55.1582 979.517 56.1852 978.992 57.0979C978.466 58.0106 977.746 58.7212 976.834 59.2295C975.921 59.7394 974.916 59.9928 973.818 59.9928C972.72 59.9928 971.732 59.7379 970.82 59.2295ZM975.884 57.8026C976.488 57.4495 976.962 56.947 977.303 56.2921C977.645 55.6372 977.815 54.8798 977.815 54.0169C977.815 53.154 977.644 52.3995 977.303 51.7505C976.962 51.1015 976.488 50.6034 975.884 50.2562C975.28 49.9089 974.591 49.7361 973.818 49.7361C973.046 49.7361 972.357 49.9104 971.752 50.2562C971.148 50.6034 970.675 51.1015 970.333 51.7505C969.992 52.3995 969.82 53.1555 969.82 54.0169C969.82 54.8784 969.99 55.6372 970.333 56.2921C970.675 56.947 971.148 57.451 971.752 57.8026C972.357 58.1557 973.046 58.3315 973.818 58.3315C974.591 58.3315 975.28 58.1557 975.884 57.8026Z" fill="#B9B9B9"/>
<path d="M983.395 59.5831C982.767 59.3091 982.275 58.9194 981.917 58.4169C981.558 57.9129 981.379 57.3255 981.379 56.6545H983.429C983.473 57.1584 983.672 57.5716 984.025 57.8968C984.379 58.2221 984.874 58.3832 985.512 58.3832C986.15 58.3832 986.688 58.2235 987.057 57.9042C987.427 57.5848 987.612 57.1746 987.612 56.6706C987.612 56.2794 987.497 55.96 987.267 55.7139C987.037 55.4678 986.752 55.2773 986.411 55.1426C986.069 55.0078 985.596 54.8627 984.992 54.706C984.229 54.5038 983.61 54.3002 983.135 54.0936C982.659 53.887 982.254 53.5647 981.917 53.1281C981.581 52.6915 981.413 52.1099 981.413 51.3818C981.413 50.7108 981.581 50.1233 981.917 49.6194C982.253 49.1154 982.723 48.7301 983.327 48.4605C983.931 48.1924 984.632 48.0576 985.427 48.0576C986.557 48.0576 987.485 48.3404 988.207 48.9059C988.93 49.4714 989.33 50.2464 989.408 51.2309H987.29C987.257 50.806 987.056 50.4427 986.686 50.1394C986.317 49.8362 985.83 49.6867 985.225 49.6867C984.676 49.6867 984.228 49.8274 983.88 50.1072C983.533 50.387 983.36 50.7899 983.36 51.3159C983.36 51.6748 983.47 51.9678 983.687 52.1978C983.905 52.4278 984.182 52.6095 984.518 52.7428C984.854 52.8776 985.313 53.0226 985.895 53.1794C986.667 53.3918 987.298 53.6043 987.785 53.8167C988.271 54.0291 988.686 54.3573 989.028 54.7983C989.369 55.2407 989.54 55.8311 989.54 56.5695C989.54 57.1628 989.38 57.7225 989.06 58.2484C988.74 58.7744 988.276 59.1963 987.666 59.5157C987.056 59.8351 986.336 59.9933 985.508 59.9933C984.723 59.9933 984.018 59.8571 983.39 59.5816L983.395 59.5831Z" fill="#B9B9B9"/>
<path d="M999.555 53.364C999.275 53.8899 998.826 54.3177 998.21 54.6473C997.595 54.977 996.804 55.1425 995.842 55.1425H993.725V59.8761H991.811V48.21H995.842C996.738 48.21 997.498 48.3638 998.118 48.6715C998.74 48.9791 999.204 49.3966 999.512 49.9226C999.82 50.4485 999.974 51.036 999.974 51.685C999.974 52.2784 999.833 52.838 999.553 53.364H999.555ZM997.471 53.0871C997.829 52.7574 998.009 52.2901 998.009 51.685C998.009 50.409 997.287 49.7717 995.842 49.7717H993.725V53.5823H995.842C996.57 53.5823 997.114 53.4167 997.471 53.0871Z" fill="#B9B9B9"/>
<path d="M1003.72 49.7536V53.1774H1007.75V54.7392H1003.72V58.3153H1008.26V59.8771H1001.8V48.1934H1008.26V49.7551H1003.72V49.7536Z" fill="#B9B9B9"/>
</g>
<rect y="-1" width="46" height="92" fill="url(#paint0_linear_36_20479)"/>
<rect width="46" height="92" transform="matrix(-1 0 0 1 1009 -1)" fill="url(#paint1_linear_36_20479)"/>
</g>
<defs>
<linearGradient id="paint0_linear_36_20479" x1="46" y1="45" x2="-1.37091e-06" y2="45" gradientUnits="userSpaceOnUse">
<stop stop-color="#F6F6F6" stop-opacity="0"/>
<stop offset="0.76" stop-color="#F6F6F6"/>
</linearGradient>
<linearGradient id="paint1_linear_36_20479" x1="46" y1="46" x2="-1.37091e-06" y2="46" gradientUnits="userSpaceOnUse">
<stop stop-color="#F6F6F6" stop-opacity="0"/>
<stop offset="0.76" stop-color="#F6F6F6"/>
</linearGradient>
<clipPath id="clip0_36_20479">
<rect width="1009" height="91" fill="white"/>
</clipPath>
<clipPath id="clip1_36_20479">
<rect width="128.762" height="40" fill="white" transform="translate(902.373 25.5)"/>
</clipPath>
</defs>
</svg>
