<svg width="1009" height="91" viewBox="0 0 1009 91" fill="none" xmlns="http://www.w3.org/2000/svg">
<g clip-path="url(#clip0_36_17644)">
<rect width="1009" height="91" fill="#F6F6F6"/>
<path d="M-10 0H1019" stroke="#F6F6F6" stroke-width="3"/>
<path d="M-10 91H1019" stroke="#F6F6F6" stroke-width="3"/>
<path fill-rule="evenodd" clip-rule="evenodd" d="M26.8828 47.2814C26.8828 47.281 26.8829 47.2806 26.8832 47.2803L43.1204 29.0645C43.2894 28.875 43.425 28.6642 43.5275 28.4406C45.5613 28.6291 47.1536 30.3403 47.1536 32.4233V58.577C47.1536 60.7861 45.3628 62.577 43.1536 62.577H23.3255L33.5341 52.5452L42.2414 58.6603C43.1381 59.29 44.3413 59.0439 44.9566 58.1041C45.5104 57.2588 45.4142 56.1094 44.7284 55.3829L33.5341 43.5142V43.5148L17.2965 61.731C17.0737 61.9808 16.9088 62.2676 16.8017 62.5721C14.6847 62.4688 13 60.7196 13 58.577V32.4233C13 30.2142 14.7909 28.4233 17 28.4233H36.883L26.8828 38.2503L18.1755 32.1352C17.2788 31.5055 16.0756 31.7517 15.4603 32.6914C14.9065 33.5367 15.0026 34.6862 15.6885 35.4126L26.8828 47.2814Z" fill="#9B9B9B"/>
<path d="M161.304 51.4752C160.098 51.4752 158.821 51.3489 157.473 51.0963C156.126 50.8437 154.919 50.4086 153.853 49.7912C153.404 49.5105 153.081 49.1878 152.884 48.8229C152.716 48.43 152.646 48.0511 152.674 47.6862C152.73 47.2933 152.87 46.9565 153.095 46.6758C153.348 46.3951 153.656 46.2127 154.021 46.1285C154.414 46.0443 154.835 46.1145 155.284 46.339C156.407 46.8723 157.459 47.2512 158.442 47.4757C159.424 47.6722 160.392 47.7704 161.347 47.7704C162.694 47.7704 163.69 47.5459 164.336 47.0968C165.009 46.6197 165.346 46.0022 165.346 45.2444C165.346 44.5989 165.121 44.1077 164.672 43.7709C164.251 43.4061 163.606 43.1394 162.736 42.971L158.526 42.1711C156.786 41.8343 155.453 41.2028 154.526 40.2766C153.628 39.3224 153.179 38.1015 153.179 36.614C153.179 35.2668 153.544 34.102 154.274 33.1197C155.032 32.1373 156.07 31.3795 157.389 30.8463C158.708 30.313 160.224 30.0464 161.936 30.0464C163.171 30.0464 164.322 30.1867 165.388 30.4674C166.483 30.72 167.535 31.1269 168.546 31.6883C168.967 31.9128 169.247 32.2075 169.388 32.5724C169.556 32.9372 169.598 33.3161 169.514 33.7091C169.43 34.0739 169.261 34.4107 169.009 34.7195C168.756 35.0001 168.433 35.1826 168.04 35.2668C167.676 35.3229 167.255 35.2387 166.777 35.0142C165.907 34.5651 165.065 34.2423 164.251 34.0459C163.466 33.8494 162.708 33.7512 161.978 33.7512C160.603 33.7512 159.578 33.9897 158.905 34.4669C158.259 34.944 157.936 35.5755 157.936 36.3614C157.936 36.9508 158.133 37.4419 158.526 37.8348C158.919 38.2278 159.522 38.4944 160.336 38.6347L164.546 39.4346C166.37 39.7714 167.746 40.3889 168.672 41.287C169.626 42.1852 170.103 43.392 170.103 44.9076C170.103 46.9565 169.303 48.5703 167.704 49.7491C166.104 50.8998 163.971 51.4752 161.304 51.4752Z" fill="#9B9B9B"/>
<path d="M136.42 51.475C134.708 51.475 133.29 51.1662 132.168 50.5488C131.045 49.9032 130.203 48.949 129.642 47.686C129.108 46.423 128.842 44.8513 128.842 42.9708V32.7827C128.842 31.8845 129.066 31.225 129.515 30.804C129.964 30.3549 130.61 30.1304 131.452 30.1304C132.294 30.1304 132.94 30.3549 133.389 30.804C133.866 31.225 134.104 31.8845 134.104 32.7827V43.055C134.104 44.5145 134.399 45.595 134.988 46.2967C135.578 46.9984 136.518 47.3492 137.809 47.3492C139.212 47.3492 140.363 46.8721 141.261 45.9178C142.159 44.9355 142.608 43.6444 142.608 42.0446V32.7827C142.608 31.8845 142.833 31.225 143.282 30.804C143.731 30.3549 144.377 30.1304 145.219 30.1304C146.061 30.1304 146.706 30.3549 147.155 30.804C147.632 31.225 147.871 31.8845 147.871 32.7827V48.6964C147.871 50.4926 147.015 51.3908 145.303 51.3908C144.489 51.3908 143.857 51.1662 143.408 50.7172C142.959 50.24 142.735 49.5664 142.735 48.6964V45.4968L143.324 46.7598C142.735 48.2754 141.837 49.4401 140.63 50.2541C139.451 51.068 138.048 51.475 136.42 51.475Z" fill="#9B9B9B"/>
<path d="M106.996 51.2645C106.378 51.2645 105.859 51.0961 105.438 50.7593C105.045 50.3944 104.835 49.9313 104.807 49.37C104.807 48.8086 105.045 48.2192 105.522 47.6018L112.343 39.1818V41.6657L105.943 33.7931C105.438 33.1756 105.2 32.5862 105.228 32.0249C105.256 31.4635 105.466 31.0145 105.859 30.6777C106.28 30.3128 106.799 30.1304 107.417 30.1304C108.062 30.1304 108.596 30.2426 109.017 30.4672C109.466 30.6917 109.873 31.0425 110.238 31.5197L115.289 38.003H113.437L118.531 31.5197C118.924 31.0425 119.331 30.6917 119.752 30.4672C120.173 30.2426 120.692 30.1304 121.31 30.1304C121.955 30.1304 122.475 30.3128 122.867 30.6777C123.26 31.0425 123.457 31.5056 123.457 32.067C123.485 32.6283 123.246 33.2177 122.741 33.8352L116.384 41.6236V39.266L123.204 47.6018C123.709 48.1912 123.948 48.7665 123.92 49.3279C123.892 49.8892 123.667 50.3523 123.246 50.7172C122.853 51.082 122.334 51.2645 121.689 51.2645C121.071 51.2645 120.552 51.1522 120.131 50.9277C119.71 50.7031 119.303 50.3523 118.91 49.8752L113.437 42.9708H115.205L109.774 49.8752C109.41 50.3242 109.017 50.6751 108.596 50.9277C108.175 51.1522 107.641 51.2645 106.996 51.2645Z" fill="#9B9B9B"/>
<path d="M92.5952 51.4752C90.2657 51.4752 88.259 51.0401 86.575 50.1701C84.891 49.3 83.5859 48.0651 82.6597 46.4653C81.7616 44.8655 81.3125 42.971 81.3125 40.7818C81.3125 38.6488 81.7475 36.7824 82.6176 35.1826C83.5157 33.5828 84.7366 32.3338 86.2803 31.4357C87.852 30.5095 89.6342 30.0464 91.627 30.0464C93.0864 30.0464 94.3915 30.285 95.5422 30.7621C96.721 31.2392 97.7174 31.9268 98.5313 32.825C99.3733 33.7231 100.005 34.8177 100.426 36.1088C100.875 37.3717 101.099 38.8031 101.099 40.4029C101.099 40.9081 100.917 41.3011 100.552 41.5817C100.215 41.8343 99.7241 41.9606 99.0786 41.9606H85.5646V38.9294H97.3946L96.721 39.5609C96.721 38.2699 96.5246 37.1893 96.1316 36.3193C95.7668 35.4492 95.2195 34.7896 94.4897 34.3406C93.7881 33.8634 92.904 33.6249 91.8374 33.6249C90.6587 33.6249 89.6483 33.9055 88.8063 34.4669C87.9923 35.0001 87.3608 35.772 86.9118 36.7824C86.4908 37.7647 86.2803 38.9435 86.2803 40.3187V40.6134C86.2803 42.9149 86.8135 44.641 87.8801 45.7917C88.9747 46.9144 90.5745 47.4757 92.6794 47.4757C93.4092 47.4757 94.2231 47.3915 95.1212 47.2231C96.0474 47.0266 96.9175 46.7039 97.7314 46.2548C98.3208 45.918 98.84 45.7777 99.2891 45.8338C99.7382 45.8619 100.089 46.0162 100.342 46.2969C100.622 46.5776 100.791 46.9284 100.847 47.3494C100.903 47.7423 100.819 48.1493 100.594 48.5703C100.398 48.9913 100.047 49.3562 99.5417 49.6649C98.5594 50.2823 97.4227 50.7454 96.1316 51.0542C94.8686 51.3348 93.6898 51.4752 92.5952 51.4752Z" fill="#9B9B9B"/>
<path d="M60.0125 51.391C59.1705 51.391 58.525 51.1664 58.0759 50.7174C57.6269 50.2402 57.4023 49.5667 57.4023 48.6966V32.7829C57.4023 31.9128 57.6269 31.2532 58.0759 30.8042C58.525 30.3551 59.1565 30.1306 59.9704 30.1306C60.7844 30.1306 61.4159 30.3551 61.8649 30.8042C62.314 31.2532 62.5385 31.9128 62.5385 32.7829V35.6457L62.0754 34.5932C62.6929 33.1056 63.6471 31.983 64.9382 31.2252C66.2573 30.4393 67.7449 30.0464 69.4008 30.0464C71.0567 30.0464 72.4179 30.3551 73.4845 30.9726C74.551 31.59 75.3509 32.5303 75.8841 33.7933C76.4174 35.0282 76.684 36.5999 76.684 38.5084V48.6966C76.684 49.5667 76.4595 50.2402 76.0105 50.7174C75.5614 51.1664 74.9159 51.391 74.0739 51.391C73.2319 51.391 72.5723 51.1664 72.0952 50.7174C71.6461 50.2402 71.4216 49.5667 71.4216 48.6966V38.761C71.4216 37.1613 71.1128 35.9965 70.4954 35.2668C69.906 34.537 68.9798 34.1722 67.7168 34.1722C66.1731 34.1722 64.9382 34.6633 64.012 35.6457C63.1139 36.5999 62.6648 37.8769 62.6648 39.4767V48.6966C62.6648 50.4928 61.7807 51.391 60.0125 51.391Z" fill="#9B9B9B"/>
<path d="M162.374 61.1715C162.293 61.1715 162.23 61.149 162.185 61.104C162.14 61.0545 162.117 60.9871 162.117 60.9016V56.5907C162.117 56.5007 162.14 56.4332 162.185 56.3883C162.23 56.3433 162.293 56.3208 162.374 56.3208C162.446 56.3208 162.502 56.3365 162.542 56.368C162.587 56.395 162.628 56.4422 162.664 56.5097L164.512 59.9908H164.31L166.152 56.5097C166.188 56.4422 166.226 56.395 166.266 56.368C166.307 56.3365 166.365 56.3208 166.442 56.3208C166.518 56.3208 166.579 56.3433 166.624 56.3883C166.669 56.4332 166.691 56.5007 166.691 56.5907V60.9016C166.691 60.9871 166.669 61.0545 166.624 61.104C166.583 61.149 166.52 61.1715 166.435 61.1715C166.354 61.1715 166.291 61.149 166.246 61.104C166.201 61.0545 166.179 60.9871 166.179 60.9016V57.1101H166.34L164.654 60.2742C164.622 60.3327 164.589 60.3754 164.553 60.4024C164.521 60.4249 164.474 60.4361 164.411 60.4361C164.348 60.4361 164.299 60.4226 164.263 60.3956C164.227 60.3686 164.195 60.3282 164.168 60.2742L162.461 57.1034H162.623V60.9016C162.623 60.9871 162.601 61.0545 162.556 61.104C162.515 61.149 162.455 61.1715 162.374 61.1715Z" fill="#9B9B9B"/>
<path d="M157.722 61.185C157.407 61.185 157.13 61.1445 156.892 61.0635C156.658 60.9781 156.46 60.8544 156.298 60.6925C156.136 60.5261 156.015 60.3214 155.934 60.0785C155.853 59.8357 155.812 59.5568 155.812 59.242V56.6041C155.812 56.5097 155.835 56.44 155.88 56.395C155.929 56.3455 155.999 56.3208 156.089 56.3208C156.179 56.3208 156.247 56.3455 156.291 56.395C156.341 56.44 156.366 56.5097 156.366 56.6041V59.215C156.366 59.7097 156.48 60.0808 156.71 60.3282C156.939 60.571 157.276 60.6925 157.722 60.6925C158.167 60.6925 158.502 60.571 158.727 60.3282C158.952 60.0808 159.064 59.7097 159.064 59.215V56.6041C159.064 56.5097 159.089 56.44 159.138 56.395C159.188 56.3455 159.258 56.3208 159.348 56.3208C159.433 56.3208 159.498 56.3455 159.543 56.395C159.593 56.44 159.617 56.5097 159.617 56.6041V59.242C159.617 59.6603 159.546 60.0156 159.402 60.3079C159.262 60.6003 159.051 60.8206 158.767 60.9691C158.484 61.113 158.136 61.185 157.722 61.185Z" fill="#9B9B9B"/>
<path d="M151.295 61.1244C151.205 61.1244 151.135 61.0997 151.086 61.0502C151.036 60.9962 151.012 60.9243 151.012 60.8343V56.6246C151.012 56.5301 151.034 56.4582 151.079 56.4087C151.129 56.3592 151.198 56.3345 151.288 56.3345C151.378 56.3345 151.446 56.3592 151.491 56.4087C151.54 56.4582 151.565 56.5301 151.565 56.6246V60.6387H153.778C153.859 60.6387 153.922 60.6612 153.967 60.7061C154.012 60.7466 154.034 60.8051 154.034 60.8815C154.034 60.958 154.012 61.0187 153.967 61.0637C153.922 61.1042 153.859 61.1244 153.778 61.1244H151.295Z" fill="#9B9B9B"/>
<path d="M145.671 61.1711C145.581 61.1711 145.511 61.1464 145.462 61.0969C145.417 61.0429 145.395 60.971 145.395 60.881V56.651C145.395 56.5566 145.419 56.4869 145.469 56.4419C145.518 56.3924 145.588 56.3677 145.678 56.3677H147.277C147.785 56.3677 148.176 56.4936 148.451 56.7455C148.725 56.9928 148.862 57.3437 148.862 57.7979C148.862 58.2477 148.725 58.5985 148.451 58.8503C148.176 59.1022 147.785 59.2281 147.277 59.2281H145.948V60.881C145.948 60.971 145.925 61.0429 145.88 61.0969C145.835 61.1464 145.766 61.1711 145.671 61.1711ZM145.948 58.7626H147.209C147.574 58.7626 147.848 58.6817 148.032 58.5198C148.221 58.3534 148.316 58.1127 148.316 57.7979C148.316 57.4786 148.221 57.238 148.032 57.076C147.848 56.9096 147.574 56.8264 147.209 56.8264H145.948V58.7626Z" fill="#9B9B9B"/>
<path d="M141.563 61.1848C141.095 61.1848 140.695 61.0858 140.362 60.8879C140.029 60.69 139.773 60.4089 139.593 60.0446C139.418 59.6803 139.33 59.2463 139.33 58.7426C139.33 58.3648 139.379 58.0275 139.478 57.7306C139.582 57.4293 139.728 57.1752 139.917 56.9683C140.11 56.7569 140.346 56.595 140.625 56.4825C140.904 56.3656 141.217 56.3071 141.563 56.3071C141.842 56.3071 142.107 56.3476 142.359 56.4286C142.611 56.505 142.829 56.6197 143.013 56.7726C143.072 56.8176 143.11 56.8693 143.128 56.9278C143.151 56.9818 143.153 57.0357 143.135 57.0897C143.121 57.1392 143.094 57.1819 143.054 57.2179C143.018 57.2494 142.973 57.2651 142.919 57.2651C142.865 57.2651 142.804 57.2426 142.737 57.1977C142.575 57.0672 142.397 56.9705 142.204 56.9076C142.01 56.8446 141.801 56.8131 141.576 56.8131C141.221 56.8131 140.92 56.8896 140.672 57.0425C140.425 57.1909 140.238 57.409 140.112 57.6969C139.986 57.9847 139.924 58.3333 139.924 58.7426C139.924 59.1519 139.986 59.5027 140.112 59.795C140.238 60.0829 140.425 60.3032 140.672 60.4562C140.92 60.6046 141.221 60.6788 141.576 60.6788C141.797 60.6788 142.006 60.6473 142.204 60.5843C142.402 60.5169 142.584 60.4179 142.75 60.2875C142.818 60.2425 142.878 60.2223 142.932 60.2268C142.986 60.2268 143.031 60.2425 143.067 60.274C143.103 60.3055 143.128 60.346 143.142 60.3954C143.16 60.4449 143.16 60.4966 143.142 60.5506C143.128 60.6046 143.094 60.6518 143.04 60.6923C142.851 60.8542 142.629 60.9779 142.372 61.0633C142.121 61.1443 141.851 61.1848 141.563 61.1848Z" fill="#9B9B9B"/>
<path d="M136.7 61.1715C136.61 61.1715 136.541 61.1467 136.491 61.0972C136.446 61.0433 136.424 60.9713 136.424 60.8814V56.6109C136.424 56.5164 136.446 56.4445 136.491 56.395C136.541 56.3455 136.61 56.3208 136.7 56.3208C136.79 56.3208 136.858 56.3455 136.903 56.395C136.952 56.4445 136.977 56.5164 136.977 56.6109V60.8814C136.977 60.9713 136.955 61.0433 136.91 61.0972C136.865 61.1467 136.795 61.1715 136.7 61.1715Z" fill="#9B9B9B"/>
<path d="M132.352 61.1848C131.843 61.1848 131.414 61.0881 131.063 60.8947C130.717 60.7013 130.454 60.4224 130.274 60.0581C130.094 59.6938 130.004 59.2576 130.004 58.7493C130.004 58.3715 130.053 58.032 130.152 57.7306C130.256 57.4293 130.404 57.1752 130.598 56.9683C130.795 56.7569 131.034 56.595 131.313 56.4825C131.596 56.3656 131.915 56.3071 132.271 56.3071C132.554 56.3071 132.828 56.3476 133.094 56.4286C133.359 56.505 133.595 56.6287 133.802 56.7996C133.856 56.8401 133.89 56.8851 133.903 56.9345C133.917 56.984 133.915 57.0335 133.897 57.083C133.883 57.1324 133.858 57.1752 133.822 57.2111C133.791 57.2426 133.748 57.2606 133.694 57.2651C133.645 57.2696 133.593 57.2539 133.539 57.2179C133.355 57.074 133.159 56.9705 132.952 56.9076C132.745 56.8401 132.516 56.8064 132.264 56.8064C131.904 56.8064 131.598 56.8828 131.346 57.0357C131.099 57.1887 130.91 57.409 130.78 57.6969C130.654 57.9847 130.591 58.3355 130.591 58.7493C130.591 59.379 130.737 59.8602 131.029 60.1931C131.326 60.5259 131.771 60.6923 132.365 60.6923C132.581 60.6923 132.792 60.672 132.999 60.6316C133.206 60.5866 133.402 60.5259 133.586 60.4494L133.465 60.7665V59.0866H132.5C132.419 59.0866 132.358 59.0664 132.318 59.0259C132.277 58.9854 132.257 58.9315 132.257 58.864C132.257 58.7921 132.277 58.7381 132.318 58.7021C132.358 58.6661 132.419 58.6481 132.5 58.6481H133.708C133.784 58.6481 133.843 58.6684 133.883 58.7088C133.924 58.7493 133.944 58.8078 133.944 58.8843V60.6451C133.944 60.7125 133.933 60.7687 133.91 60.8137C133.888 60.8587 133.849 60.8924 133.795 60.9149C133.606 60.9914 133.379 61.0566 133.114 61.1106C132.853 61.16 132.599 61.1848 132.352 61.1848Z" fill="#9B9B9B"/>
<path d="M125.655 61.1848C125.214 61.1848 124.829 61.0858 124.501 60.8879C124.177 60.6855 123.925 60.4022 123.745 60.0379C123.57 59.6736 123.482 59.2418 123.482 58.7426C123.482 58.3648 123.532 58.0275 123.631 57.7306C123.734 57.4293 123.88 57.1752 124.069 56.9683C124.258 56.7569 124.485 56.595 124.75 56.4825C125.02 56.3656 125.322 56.3071 125.655 56.3071C126.104 56.3071 126.491 56.4061 126.815 56.604C127.143 56.8019 127.395 57.083 127.57 57.4473C127.75 57.8071 127.84 58.2366 127.84 58.7358C127.84 59.1136 127.789 59.4532 127.685 59.7545C127.582 60.0559 127.436 60.3122 127.247 60.5236C127.058 60.735 126.828 60.8992 126.559 61.0161C126.293 61.1286 125.992 61.1848 125.655 61.1848ZM125.655 60.6923C125.996 60.6923 126.284 60.6158 126.518 60.4629C126.756 60.31 126.939 60.0874 127.065 59.795C127.19 59.5027 127.253 59.1519 127.253 58.7426C127.253 58.1264 127.114 57.6497 126.835 57.3123C126.561 56.9705 126.167 56.7996 125.655 56.7996C125.322 56.7996 125.036 56.8761 124.798 57.029C124.564 57.1819 124.384 57.4045 124.258 57.6969C124.132 57.9847 124.069 58.3333 124.069 58.7426C124.069 59.3543 124.209 59.8332 124.487 60.1796C124.766 60.5214 125.155 60.6923 125.655 60.6923Z" fill="#9B9B9B"/>
<path d="M119.172 61.1244C119.082 61.1244 119.012 61.0997 118.963 61.0502C118.913 60.9962 118.889 60.9243 118.889 60.8343V56.6246C118.889 56.5301 118.911 56.4582 118.956 56.4087C119.006 56.3592 119.075 56.3345 119.165 56.3345C119.255 56.3345 119.323 56.3592 119.368 56.4087C119.417 56.4582 119.442 56.5301 119.442 56.6246V60.6387H121.655C121.736 60.6387 121.799 60.6612 121.844 60.7061C121.889 60.7466 121.911 60.8051 121.911 60.8815C121.911 60.958 121.889 61.0187 121.844 61.0637C121.799 61.1042 121.736 61.1244 121.655 61.1244H119.172Z" fill="#9B9B9B"/>
<path d="M111.856 61.1715C111.767 61.1715 111.697 61.1467 111.647 61.0972C111.602 61.0433 111.58 60.9691 111.58 60.8746V58.6618L111.701 59.0463L110.008 56.7121C109.968 56.6536 109.947 56.5952 109.947 56.5367C109.952 56.4737 109.977 56.422 110.021 56.3815C110.066 56.341 110.125 56.3208 110.197 56.3208C110.26 56.3208 110.316 56.3365 110.366 56.368C110.415 56.395 110.46 56.44 110.5 56.503L111.937 58.4864H111.796L113.233 56.503C113.282 56.4355 113.329 56.3883 113.374 56.3613C113.419 56.3343 113.473 56.3208 113.536 56.3208C113.608 56.3208 113.665 56.341 113.705 56.3815C113.745 56.4175 113.766 56.467 113.766 56.5299C113.77 56.5884 113.75 56.6514 113.705 56.7188L112.018 59.0463L112.133 58.6618V60.8746C112.133 61.0725 112.041 61.1715 111.856 61.1715Z" fill="#9B9B9B"/>
<path d="M104.921 61.1239C104.822 61.1239 104.745 61.0991 104.691 61.0497C104.642 60.9957 104.617 60.9192 104.617 60.8203V56.6713C104.617 56.5723 104.642 56.4981 104.691 56.4486C104.745 56.3947 104.822 56.3677 104.921 56.3677H106.52C106.848 56.3677 107.125 56.4171 107.349 56.5161C107.579 56.6105 107.754 56.75 107.876 56.9344C107.997 57.1188 108.058 57.3437 108.058 57.609C108.058 57.9059 107.97 58.1532 107.795 58.3511C107.624 58.549 107.39 58.6794 107.093 58.7424V58.648C107.43 58.6884 107.694 58.8099 107.882 59.0123C108.076 59.2147 108.173 59.4823 108.173 59.8151C108.173 60.2379 108.035 60.5617 107.761 60.7866C107.487 61.0114 107.1 61.1239 106.601 61.1239H104.921ZM105.157 60.6786H106.547C106.906 60.6786 107.176 60.6067 107.356 60.4627C107.536 60.3188 107.626 60.1007 107.626 59.8083C107.626 59.5115 107.536 59.2934 107.356 59.1539C107.176 59.01 106.906 58.9381 106.547 58.9381H105.157V60.6786ZM105.157 58.4928H106.439C106.79 58.4928 107.055 58.4208 107.235 58.2769C107.419 58.133 107.511 57.9261 107.511 57.6562C107.511 57.3774 107.419 57.1682 107.235 57.0288C107.055 56.8849 106.79 56.8129 106.439 56.8129H105.157V58.4928Z" fill="#9B9B9B"/>
<path d="M95.4755 61.1239C95.3765 61.1239 95.3001 61.0991 95.2461 61.0497C95.1966 60.9957 95.1719 60.9192 95.1719 60.8203V56.6713C95.1719 56.5723 95.1966 56.4981 95.2461 56.4486C95.3001 56.3947 95.3765 56.3677 95.4755 56.3677H96.7775C97.5466 56.3677 98.1403 56.5701 98.5586 56.9749C98.9768 57.3796 99.186 57.9688 99.186 58.7424C99.186 59.1292 99.132 59.471 99.0241 59.7679C98.9206 60.0602 98.7655 60.3076 98.5586 60.51C98.3517 60.7124 98.0998 60.8653 97.803 60.9687C97.5061 61.0722 97.1643 61.1239 96.7775 61.1239H95.4755ZM95.7251 60.6516H96.737C97.0519 60.6516 97.324 60.6112 97.5534 60.5302C97.7872 60.4492 97.9806 60.3301 98.1335 60.1726C98.291 60.0152 98.4079 59.8173 98.4844 59.579C98.5608 59.3361 98.599 59.0572 98.599 58.7424C98.599 58.1082 98.4439 57.6337 98.1335 57.3189C97.8232 56.9996 97.3577 56.8399 96.737 56.8399H95.7251V60.6516Z" fill="#9B9B9B"/>
<path d="M90.1923 61.1239C90.0933 61.1239 90.0169 61.0991 89.9629 61.0497C89.9134 60.9957 89.8887 60.9192 89.8887 60.8203V56.6713C89.8887 56.5723 89.9134 56.4981 89.9629 56.4486C90.0169 56.3947 90.0933 56.3677 90.1923 56.3677H92.7019C92.7784 56.3677 92.8368 56.3879 92.8773 56.4284C92.9178 56.4689 92.938 56.5251 92.938 56.5971C92.938 56.6735 92.9178 56.732 92.8773 56.7725C92.8368 56.8129 92.7784 56.8332 92.7019 56.8332H90.4284V58.4793H92.5602C92.6367 58.4793 92.6952 58.4995 92.7357 58.54C92.7761 58.576 92.7964 58.6322 92.7964 58.7087C92.7964 58.7851 92.7761 58.8436 92.7357 58.8841C92.6952 58.9246 92.6367 58.9448 92.5602 58.9448H90.4284V60.6584H92.7019C92.7784 60.6584 92.8368 60.6786 92.8773 60.7191C92.9178 60.7596 92.938 60.8158 92.938 60.8878C92.938 60.9642 92.9178 61.0227 92.8773 61.0632C92.8368 61.1036 92.7784 61.1239 92.7019 61.1239H90.1923Z" fill="#9B9B9B"/>
<path d="M84.3039 61.1711C84.214 61.1711 84.1443 61.1464 84.0948 61.0969C84.0498 61.0429 84.0273 60.971 84.0273 60.881V56.651C84.0273 56.5566 84.0521 56.4869 84.1016 56.4419C84.151 56.3924 84.2207 56.3677 84.3107 56.3677H85.9096C86.4178 56.3677 86.8091 56.4869 87.0835 56.7252C87.3578 56.9636 87.495 57.3032 87.495 57.7439C87.495 58.0228 87.432 58.2657 87.3061 58.4726C87.1847 58.6749 87.0048 58.8301 86.7664 58.9381C86.528 59.0415 86.2424 59.0932 85.9096 59.0932L85.9771 59.0055H86.112C86.2874 59.0055 86.4403 59.0505 86.5707 59.1404C86.7012 59.2304 86.8204 59.3743 86.9283 59.5722L87.5759 60.7798C87.6119 60.8428 87.6277 60.9058 87.6232 60.9687C87.6232 61.0272 87.6029 61.0767 87.5625 61.1171C87.522 61.1531 87.4635 61.1711 87.3871 61.1711C87.3106 61.1711 87.2476 61.1531 87.1981 61.1171C87.1487 61.0812 87.1059 61.0294 87.07 60.962L86.3346 59.5992C86.2312 59.4058 86.112 59.2776 85.9771 59.2147C85.8421 59.1472 85.6645 59.1135 85.4441 59.1135H84.5805V60.881C84.5805 60.971 84.5581 61.0429 84.5131 61.0969C84.4681 61.1464 84.3984 61.1711 84.3039 61.1711ZM84.5805 58.6749H85.8286C86.1974 58.6749 86.4763 58.5985 86.6652 58.4456C86.8541 58.2881 86.9485 58.0543 86.9485 57.7439C86.9485 57.4426 86.8541 57.2155 86.6652 57.0626C86.4763 56.9051 86.1974 56.8264 85.8286 56.8264H84.5805V58.6749Z" fill="#9B9B9B"/>
<path d="M79.0477 61.1239C78.9488 61.1239 78.8723 61.0991 78.8184 61.0497C78.7689 60.9957 78.7441 60.9192 78.7441 60.8203V56.6713C78.7441 56.5723 78.7689 56.4981 78.8184 56.4486C78.8723 56.3947 78.9488 56.3677 79.0477 56.3677H81.5574C81.6338 56.3677 81.6923 56.3879 81.7328 56.4284C81.7733 56.4689 81.7935 56.5251 81.7935 56.5971C81.7935 56.6735 81.7733 56.732 81.7328 56.7725C81.6923 56.8129 81.6338 56.8332 81.5574 56.8332H79.2839V58.4793H81.4157C81.4922 58.4793 81.5506 58.4995 81.5911 58.54C81.6316 58.576 81.6518 58.6322 81.6518 58.7087C81.6518 58.7851 81.6316 58.8436 81.5911 58.8841C81.5506 58.9246 81.4922 58.9448 81.4157 58.9448H79.2839V60.6584H81.5574C81.6338 60.6584 81.6923 60.6786 81.7328 60.7191C81.7733 60.7596 81.7935 60.8158 81.7935 60.8878C81.7935 60.9642 81.7733 61.0227 81.7328 61.0632C81.6923 61.1036 81.6338 61.1239 81.5574 61.1239H79.0477Z" fill="#9B9B9B"/>
<path d="M71.4935 61.1715C71.4125 61.1715 71.3473 61.1512 71.2978 61.1107C71.2484 61.0658 71.2079 61.0006 71.1764 60.9151L69.6855 56.6581C69.654 56.5637 69.6607 56.485 69.7057 56.422C69.7552 56.3545 69.8316 56.3208 69.9351 56.3208C70.0115 56.3208 70.0723 56.341 70.1172 56.3815C70.1622 56.4175 70.2004 56.476 70.2319 56.5569L71.6284 60.652H71.3923L72.8158 56.5772C72.8473 56.4917 72.8855 56.4287 72.9305 56.3883C72.9755 56.3433 73.0362 56.3208 73.1126 56.3208C73.1846 56.3208 73.2408 56.3433 73.2813 56.3883C73.3263 56.4287 73.3645 56.4917 73.396 56.5772L74.7992 60.652H74.5901L76.0001 56.5569C76.0226 56.4805 76.0563 56.422 76.1013 56.3815C76.1508 56.341 76.2137 56.3208 76.2902 56.3208C76.3846 56.3208 76.4543 56.3523 76.4993 56.4153C76.5443 56.4782 76.5488 56.5592 76.5128 56.6581L75.0151 60.9151C74.9836 61.0006 74.9432 61.0658 74.8937 61.1107C74.8487 61.1512 74.7835 61.1715 74.698 61.1715C74.6171 61.1715 74.5519 61.1512 74.5024 61.1107C74.4574 61.0658 74.4169 61.0006 74.381 60.9151L73.0249 57.0089H73.1733L71.8038 60.9151C71.7723 61.0006 71.7341 61.0658 71.6891 61.1107C71.6442 61.1512 71.5789 61.1715 71.4935 61.1715Z" fill="#9B9B9B"/>
<path d="M65.5512 61.1848C65.1105 61.1848 64.7259 61.0858 64.3976 60.8879C64.0738 60.6855 63.8219 60.4022 63.642 60.0379C63.4666 59.6736 63.3789 59.2418 63.3789 58.7426C63.3789 58.3648 63.4284 58.0275 63.5273 57.7306C63.6308 57.4293 63.7769 57.1752 63.9658 56.9683C64.1547 56.7569 64.3819 56.595 64.6472 56.4825C64.9171 56.3656 65.2184 56.3071 65.5512 56.3071C66.001 56.3071 66.3878 56.4061 66.7116 56.604C67.0399 56.8019 67.2918 57.083 67.4672 57.4473C67.6471 57.8071 67.7371 58.2366 67.7371 58.7358C67.7371 59.1136 67.6854 59.4532 67.5819 59.7545C67.4785 60.0559 67.3323 60.3122 67.1434 60.5236C66.9545 60.735 66.7251 60.8992 66.4553 61.0161C66.1899 61.1286 65.8886 61.1848 65.5512 61.1848ZM65.5512 60.6923C65.8931 60.6923 66.1809 60.6158 66.4148 60.4629C66.6532 60.31 66.8353 60.0874 66.9612 59.795C67.0872 59.5027 67.1501 59.1519 67.1501 58.7426C67.1501 58.1264 67.0107 57.6497 66.7319 57.3123C66.4575 56.9705 66.064 56.7996 65.5512 56.7996C65.2184 56.7996 64.9328 56.8761 64.6945 57.029C64.4606 57.1819 64.2807 57.4045 64.1547 57.6969C64.0288 57.9847 63.9658 58.3333 63.9658 58.7426C63.9658 59.3543 64.1053 59.8332 64.3841 60.1796C64.663 60.5214 65.052 60.6923 65.5512 60.6923Z" fill="#9B9B9B"/>
<path d="M58.2649 61.1711C58.1749 61.1711 58.1052 61.1464 58.0557 61.0969C58.0108 61.0429 57.9883 60.971 57.9883 60.881V56.651C57.9883 56.5566 58.013 56.4869 58.0625 56.4419C58.112 56.3924 58.1817 56.3677 58.2716 56.3677H59.8705C60.3788 56.3677 60.77 56.4936 61.0444 56.7455C61.3188 56.9928 61.4559 57.3437 61.4559 57.7979C61.4559 58.2477 61.3188 58.5985 61.0444 58.8503C60.77 59.1022 60.3788 59.2281 59.8705 59.2281H58.5415V60.881C58.5415 60.971 58.519 61.0429 58.474 61.0969C58.429 61.1464 58.3593 61.1711 58.2649 61.1711ZM58.5415 58.7626H59.8031C60.1674 58.7626 60.4417 58.6817 60.6261 58.5198C60.815 58.3534 60.9095 58.1127 60.9095 57.7979C60.9095 57.4786 60.815 57.238 60.6261 57.076C60.4417 56.9096 60.1674 56.8264 59.8031 56.8264H58.5415V58.7626Z" fill="#9B9B9B"/>
<path opacity="0.9" d="M243.132 44.4669C245.592 42.049 245.592 38.1287 243.132 35.7108C240.671 33.2929 236.682 33.2929 234.221 35.7108C231.76 38.1287 231.76 42.049 234.221 44.4669C236.682 46.8849 240.671 46.8849 243.132 44.4669Z" fill="#9B9B9B"/>
<path opacity="0.9" d="M238.588 35.5649C238.588 31.6204 241.786 28.4229 245.73 28.4229C249.675 28.4229 252.872 31.6204 252.872 35.5649V44.3873C252.872 48.3318 249.675 51.5294 245.73 51.5294C241.786 51.5294 238.588 48.3318 238.588 44.3873V35.5649Z" fill="#E3E3E3"/>
<path opacity="0.9" d="M248.67 31.7836C248.67 27.8392 251.868 24.6416 255.812 24.6416C259.756 24.6416 262.954 27.8392 262.954 31.7836V47.7481C262.954 51.6925 259.756 54.8901 255.812 54.8901C251.868 54.8901 248.67 51.6925 248.67 47.7481V31.7836Z" fill="#9B9B9B"/>
<path opacity="0.9" d="M258.334 35.5649C258.334 31.6204 261.532 28.4229 265.476 28.4229C269.42 28.4229 272.618 31.6204 272.618 35.5649V44.3873C272.618 48.3318 269.42 51.5294 265.476 51.5294C261.532 51.5294 258.334 48.3318 258.334 44.3873V35.5649Z" fill="#E3E3E3"/>
<path opacity="0.9" d="M277.161 44.4669C279.622 42.049 279.622 38.1287 277.161 35.7108C274.7 33.2929 270.711 33.2929 268.25 35.7108C265.79 38.1287 265.79 42.049 268.25 44.4669C270.711 46.8849 274.7 46.8849 277.161 44.4669Z" fill="#9B9B9B"/>
<rect x="220.443" y="40.5254" width="70.3203" height="14.0244" rx="7.0122" fill="white" stroke="#9B9B9B" stroke-width="0.679742"/>
<path d="M227.241 44.8677H228.301L230.834 50.689H229.387L228.885 49.4557H226.624L226.139 50.689H224.725L227.241 44.8677ZM227.734 46.5615L227.027 48.3704H228.449L227.734 46.5615Z" fill="#9B9B9B"/>
<path d="M236.739 48.4444C236.739 48.7897 236.687 49.1076 236.583 49.3981C236.479 49.6886 236.322 49.9408 236.114 50.1546C235.911 50.3683 235.656 50.5355 235.349 50.6561C235.042 50.7767 234.689 50.837 234.289 50.837C233.883 50.837 233.527 50.7767 233.22 50.6561C232.913 50.5355 232.655 50.3683 232.447 50.1546C232.244 49.9408 232.091 49.6886 231.986 49.3981C231.882 49.1076 231.83 48.7897 231.83 48.4444V44.8677H233.113V48.395C233.113 48.5759 233.14 48.7431 233.195 48.8966C233.255 49.0501 233.338 49.1843 233.442 49.2995C233.546 49.4091 233.669 49.4968 233.812 49.5626C233.96 49.6229 234.119 49.653 234.289 49.653C234.459 49.653 234.615 49.6229 234.757 49.5626C234.9 49.4968 235.023 49.4091 235.127 49.2995C235.231 49.1843 235.311 49.0501 235.366 48.8966C235.426 48.7431 235.456 48.5759 235.456 48.395V44.8677H236.739V48.4444Z" fill="#9B9B9B"/>
<path d="M239.462 46.0024H237.801V44.8677H242.406V46.0024H240.745V50.689H239.462V46.0024Z" fill="#9B9B9B"/>
<path d="M243.156 47.7784C243.156 47.3124 243.232 46.8904 243.386 46.5122C243.545 46.1339 243.764 45.8133 244.044 45.5502C244.323 45.2816 244.655 45.076 245.039 44.9335C245.422 44.791 245.842 44.7197 246.297 44.7197C246.752 44.7197 247.171 44.791 247.555 44.9335C247.938 45.076 248.27 45.2816 248.549 45.5502C248.829 45.8133 249.045 46.1339 249.199 46.5122C249.358 46.8904 249.437 47.3124 249.437 47.7784C249.437 48.2443 249.358 48.6664 249.199 49.0446C249.045 49.4228 248.829 49.7462 248.549 50.0148C248.27 50.2779 247.938 50.4807 247.555 50.6232C247.171 50.7657 246.752 50.837 246.297 50.837C245.842 50.837 245.422 50.7657 245.039 50.6232C244.655 50.4807 244.323 50.2779 244.044 50.0148C243.764 49.7462 243.545 49.4228 243.386 49.0446C243.232 48.6664 243.156 48.2443 243.156 47.7784ZM244.488 47.7784C244.488 48.0524 244.529 48.3046 244.611 48.5348C244.699 48.7595 244.822 48.9569 244.981 49.1268C245.14 49.2912 245.329 49.42 245.548 49.5132C245.773 49.6064 246.022 49.653 246.297 49.653C246.571 49.653 246.817 49.6064 247.037 49.5132C247.261 49.42 247.453 49.2912 247.612 49.1268C247.771 48.9569 247.892 48.7595 247.974 48.5348C248.062 48.3046 248.105 48.0524 248.105 47.7784C248.105 47.5098 248.062 47.2604 247.974 47.0301C247.892 46.7999 247.771 46.6026 247.612 46.4382C247.453 46.2682 247.261 46.1367 247.037 46.0435C246.817 45.9503 246.571 45.9037 246.297 45.9037C246.022 45.9037 245.773 45.9503 245.548 46.0435C245.329 46.1367 245.14 46.2682 244.981 46.4382C244.822 46.6026 244.699 46.7999 244.611 47.0301C244.529 47.2604 244.488 47.5098 244.488 47.7784Z" fill="#9B9B9B"/>
<path d="M261.695 44.8677H262.978V49.505H265.354V50.689H261.695V44.8677Z" fill="#9B9B9B"/>
<path d="M266.161 47.7784C266.161 47.3124 266.238 46.8904 266.391 46.5122C266.55 46.1339 266.769 45.8133 267.049 45.5502C267.328 45.2816 267.66 45.076 268.044 44.9335C268.427 44.791 268.847 44.7197 269.302 44.7197C269.757 44.7197 270.176 44.791 270.56 44.9335C270.943 45.076 271.275 45.2816 271.555 45.5502C271.834 45.8133 272.051 46.1339 272.204 46.5122C272.363 46.8904 272.443 47.3124 272.443 47.7784C272.443 48.2443 272.363 48.6664 272.204 49.0446C272.051 49.4228 271.834 49.7462 271.555 50.0148C271.275 50.2779 270.943 50.4807 270.56 50.6232C270.176 50.7657 269.757 50.837 269.302 50.837C268.847 50.837 268.427 50.7657 268.044 50.6232C267.66 50.4807 267.328 50.2779 267.049 50.0148C266.769 49.7462 266.55 49.4228 266.391 49.0446C266.238 48.6664 266.161 48.2443 266.161 47.7784ZM267.493 47.7784C267.493 48.0524 267.534 48.3046 267.616 48.5348C267.704 48.7595 267.827 48.9569 267.986 49.1268C268.145 49.2912 268.334 49.42 268.553 49.5132C268.778 49.6064 269.028 49.653 269.302 49.653C269.576 49.653 269.822 49.6064 270.042 49.5132C270.266 49.42 270.458 49.2912 270.617 49.1268C270.776 48.9569 270.897 48.7595 270.979 48.5348C271.067 48.3046 271.111 48.0524 271.111 47.7784C271.111 47.5098 271.067 47.2604 270.979 47.0301C270.897 46.7999 270.776 46.6026 270.617 46.4382C270.458 46.2682 270.266 46.1367 270.042 46.0435C269.822 45.9503 269.576 45.9037 269.302 45.9037C269.028 45.9037 268.778 45.9503 268.553 46.0435C268.334 46.1367 268.145 46.2682 267.986 46.4382C267.827 46.6026 267.704 46.7999 267.616 47.0301C267.534 47.2604 267.493 47.5098 267.493 47.7784Z" fill="#9B9B9B"/>
<path d="M278.634 48.4444C278.634 48.7897 278.582 49.1076 278.478 49.3981C278.374 49.6886 278.217 49.9408 278.009 50.1546C277.806 50.3683 277.551 50.5355 277.245 50.6561C276.938 50.7767 276.584 50.837 276.184 50.837C275.778 50.837 275.422 50.7767 275.115 50.6561C274.808 50.5355 274.55 50.3683 274.342 50.1546C274.139 49.9408 273.986 49.6886 273.882 49.3981C273.778 49.1076 273.725 48.7897 273.725 48.4444V44.8677H275.008V48.395C275.008 48.5759 275.036 48.7431 275.09 48.8966C275.151 49.0501 275.233 49.1843 275.337 49.2995C275.441 49.4091 275.564 49.4968 275.707 49.5626C275.855 49.6229 276.014 49.653 276.184 49.653C276.354 49.653 276.51 49.6229 276.653 49.5626C276.795 49.4968 276.918 49.4091 277.023 49.2995C277.127 49.1843 277.206 49.0501 277.261 48.8966C277.321 48.7431 277.351 48.5759 277.351 48.395V44.8677H278.634V48.4444Z" fill="#9B9B9B"/>
<path d="M280.231 44.8677H282.155C282.621 44.8677 283.062 44.9198 283.479 45.0239C283.901 45.1281 284.268 45.298 284.58 45.5337C284.893 45.7639 285.14 46.0654 285.32 46.4382C285.507 46.8109 285.6 47.2631 285.6 47.7948C285.6 48.2662 285.51 48.6828 285.329 49.0446C285.153 49.4009 284.915 49.7023 284.613 49.949C284.312 50.1902 283.964 50.3738 283.569 50.4999C283.174 50.626 282.761 50.689 282.328 50.689H280.231V44.8677ZM281.514 49.505H282.18C282.476 49.505 282.75 49.4749 283.002 49.4146C283.259 49.3543 283.481 49.2556 283.668 49.1186C283.854 48.9761 283.999 48.7924 284.104 48.5677C284.213 48.3375 284.268 48.0579 284.268 47.729C284.268 47.444 284.213 47.1973 284.104 46.989C283.999 46.7753 283.857 46.5999 283.676 46.4628C283.495 46.3258 283.281 46.2244 283.035 46.1586C282.793 46.0873 282.539 46.0517 282.27 46.0517H281.514V49.505Z" fill="#9B9B9B"/>
<path d="M258.209 45.3305C258.007 45.0881 257.757 44.9019 257.459 44.772C257.169 44.6422 256.831 44.5772 256.445 44.5772C256.058 44.5772 255.698 44.6508 255.365 44.798C255.04 44.9452 254.755 45.153 254.509 45.4214C254.272 45.6812 254.083 45.9929 253.942 46.3565C253.811 46.7202 253.745 47.1141 253.745 47.5384C253.745 47.9713 253.811 48.3696 253.942 48.7332C254.083 49.0882 254.272 49.3999 254.509 49.6683C254.746 49.9281 255.022 50.1316 255.338 50.2788C255.663 50.426 256.01 50.4995 256.379 50.4995C256.8 50.4995 257.173 50.413 257.498 50.2398C257.823 50.0666 258.091 49.8242 258.302 49.5125L260.014 50.7723C259.619 51.3178 259.118 51.7204 258.512 51.9801C257.907 52.2399 257.283 52.3698 256.642 52.3698C255.913 52.3698 255.242 52.2572 254.627 52.0321C254.013 51.807 253.481 51.4866 253.034 51.071C252.586 50.6467 252.235 50.1359 251.98 49.5385C251.734 48.941 251.611 48.2744 251.611 47.5384C251.611 46.8024 251.734 46.1357 251.98 45.5383C252.235 44.9409 252.586 44.4344 253.034 44.0188C253.481 43.5945 254.013 43.2698 254.627 43.0447C255.242 42.8196 255.913 42.707 256.642 42.707C256.906 42.707 257.178 42.733 257.459 42.785C257.748 42.8282 258.029 42.9018 258.302 43.0057C258.583 43.1096 258.85 43.2482 259.105 43.4213C259.36 43.5945 259.588 43.8066 259.79 44.0577L258.209 45.3305Z" fill="#9B9B9B"/>
<path d="M256.43 49.9257C256.158 49.9257 255.936 49.7089 255.936 49.4448V47.687C255.936 47.4219 256.159 47.2061 256.43 47.2061C256.703 47.2061 256.925 47.4229 256.925 47.687V49.4448C256.925 49.7098 256.702 49.9257 256.43 49.9257Z" fill="#9B9B9B"/>
<path d="M257.67 46.9482C257.805 46.2677 257.364 45.6067 256.686 45.4718C256.009 45.3368 255.35 45.779 255.216 46.4594C255.082 47.1398 255.522 47.8008 256.2 47.9358C256.877 48.0708 257.536 47.6286 257.67 46.9482Z" fill="#9B9B9B"/>
<path d="M256.925 46.7113C256.925 46.9844 256.703 47.2058 256.43 47.2058C256.157 47.2058 255.936 46.9844 255.936 46.7113C255.936 46.4381 256.157 46.2168 256.43 46.2168C256.703 46.2168 256.925 46.4381 256.925 46.7113Z" fill="#E3E3E3"/>
<path d="M243.793 59.8227C244.815 59.8227 245.682 60.5035 245.969 61.4379H248.556C248.805 61.4379 249.008 61.2339 249.008 60.9831V57.2658C249.008 56.8921 249.309 56.5892 249.68 56.5892C250.051 56.5892 250.352 56.8921 250.352 57.2658V60.9831C250.352 61.98 249.546 62.7911 248.556 62.7911H245.969C245.682 63.7255 244.815 64.4062 243.793 64.4062C242.537 64.4062 241.516 63.3782 241.516 62.1145C241.516 60.8508 242.537 59.8227 243.793 59.8227ZM243.793 63.0531C244.307 63.0531 244.726 62.6321 244.726 62.1145C244.726 61.5969 244.307 61.1759 243.793 61.1759C243.279 61.1759 242.86 61.5969 242.86 62.1145C242.86 62.6321 243.279 63.0531 243.793 63.0531Z" fill="#9B9B9B"/>
<path d="M256.414 56.5894C256.849 56.5894 257.201 56.9416 257.201 57.376V61.148C258.288 61.4843 259.079 62.4983 259.079 63.6939C259.079 65.1632 257.884 66.3584 256.414 66.3584C254.945 66.3584 253.75 65.1632 253.75 63.6939C253.75 62.4984 254.541 61.4843 255.628 61.148V57.376C255.628 56.9416 255.98 56.5894 256.414 56.5894ZM255.323 63.6939C255.323 64.2956 255.813 64.7852 256.414 64.7852C257.016 64.7852 257.506 64.2957 257.506 63.6939C257.506 63.0921 257.016 62.6026 256.414 62.6026C255.813 62.6026 255.323 63.0922 255.323 63.6939Z" fill="#9B9B9B"/>
<path d="M268.807 64.4062C267.785 64.4062 266.919 63.7255 266.631 62.7911H264.045C263.054 62.7911 262.248 61.98 262.248 60.9831V57.2658C262.248 56.8921 262.549 56.5892 262.92 56.5892C263.292 56.5892 263.593 56.8921 263.593 57.2658V60.9831C263.593 61.2339 263.796 61.4379 264.045 61.4379H266.631C266.919 60.5035 267.785 59.8227 268.807 59.8227C270.063 59.8227 271.085 60.8508 271.085 62.1145C271.085 63.3782 270.063 64.4062 268.807 64.4062ZM268.807 61.1759C268.293 61.1759 267.875 61.5969 267.875 62.1145C267.875 62.6321 268.293 63.0531 268.807 63.0531C269.322 63.0531 269.74 62.6321 269.74 62.1145C269.74 61.5969 269.322 61.1759 268.807 61.1759Z" fill="#9B9B9B"/>
<path d="M384.51 24C386.556 27.5833 388.602 31.1666 390.647 34.7224C386.556 34.75 382.436 34.75 378.344 34.7775C377.736 34.7775 377.156 34.75 376.547 34.75C373.036 34.7224 369.497 34.7224 365.986 34.7224C367.341 32.407 368.696 30.1192 370.023 27.8038C370.741 26.5635 371.405 25.2679 372.068 24C376.216 24 380.363 24 384.51 24Z" fill="#9B9B9B"/>
<path d="M372.069 24C371.377 25.2679 370.741 26.5359 370.023 27.8038C368.696 30.1192 367.341 32.407 365.986 34.7224C365.931 34.7775 365.848 34.8051 365.765 34.8051C361.701 34.7775 357.637 34.75 353.573 34.75C354.374 33.2615 355.176 31.7731 356.005 30.3122C357.194 28.1897 358.411 26.0949 359.627 24C363.774 24 367.921 24 372.069 24Z" fill="#ADADAD"/>
<path d="M341.104 55.6984C341.38 55.3401 341.684 55.0093 341.905 54.651C343.592 51.7568 345.278 48.8626 346.965 45.9408C346.992 45.8581 347.103 45.8305 347.158 45.7754C347.379 45.9132 347.656 45.9959 347.767 46.1889C348.375 47.1536 348.955 48.1183 349.536 49.0831C350.697 51.0952 351.831 53.1074 352.992 55.092C353.158 55.3401 353.517 55.4779 353.794 55.6709C353.572 56.1395 353.351 56.6356 353.102 57.1042C351.554 59.833 350.006 62.5619 348.458 65.2631C348.209 65.7317 347.905 66.1452 347.518 66.724C346.439 64.9048 345.416 63.1683 344.421 61.4593C343.481 59.8606 342.541 58.2343 341.601 56.6356C341.491 56.4427 341.269 56.3324 341.104 56.1946C341.104 56.0568 341.104 55.8914 341.104 55.6984Z" fill="#EFEFEF"/>
<path d="M537.15 37.5342C536.957 37.7822 536.763 38.0303 536.515 38.3611C536.293 38.113 536.1 37.8925 535.851 37.6169C535.768 38.0579 535.685 38.4438 535.547 39.0502C534.828 38.2233 535.353 37.3963 534.994 36.6246C534.773 36.6521 534.469 36.6521 534.137 36.7072C534.109 37.4515 534.054 38.1406 534.026 38.8572C533.28 38.306 533.612 37.5893 533.446 36.9002C533.252 36.7624 532.976 36.597 532.699 36.4316C532.727 36.3765 532.755 36.2938 532.755 36.2387C533.722 36.2387 534.662 36.2387 535.74 36.2387C535.934 36.5143 536.183 36.8726 536.432 37.231C537.04 37.0931 536.846 36.0181 537.703 36.2111C537.786 36.9278 537.869 37.672 537.952 38.3887C537.952 38.5816 537.952 38.747 537.952 38.9399C537.759 38.8848 537.537 38.8572 537.261 38.8021C537.289 38.4162 537.289 38.0303 537.316 37.672C537.316 37.5893 537.316 37.5066 537.289 37.4239C537.261 37.3963 537.206 37.479 537.15 37.5342Z" fill="#9B9B9B"/>
<path d="M372.068 67.0002C372.068 66.9175 372.068 66.8348 372.068 66.7521C372.151 66.7246 372.262 66.697 372.345 66.6694C376.409 66.697 380.445 66.697 384.51 66.7246C384.51 66.8073 384.51 66.89 384.51 67.0002C380.363 67.0002 376.215 67.0002 372.068 67.0002Z" fill="#EFEFEF"/>
<path d="M537.952 38.3333C537.869 37.6166 537.786 36.8724 537.703 36.1557C537.786 36.0455 537.869 35.9628 537.952 35.8525C537.952 36.6795 537.952 37.5064 537.952 38.3333Z" fill="#909090"/>
<path d="M408.508 53.5762C408.508 57.1595 408.508 60.4397 408.508 63.83C406.987 63.83 405.522 63.83 403.973 63.83C403.946 63.582 403.863 63.2788 403.863 62.9755C403.863 57.1871 403.78 51.3987 403.891 45.6378C403.973 41.0897 406.296 36.7346 411.521 35.4391C416.111 34.309 420.258 35.1083 423.382 38.9122C427.722 44.2045 426.091 54.1551 417.797 56.0845C414.756 56.8012 411.853 56.3602 409.365 54.2929C409.171 54.1275 408.95 53.9621 408.508 53.5762ZM420.838 45.7205C420.811 45.307 420.783 44.8936 420.728 44.4801C420.368 41.641 418.295 39.6288 415.171 39.2705C412.931 39.0224 410.111 40.1525 408.978 42.9089C408.452 44.1769 408.397 45.5 408.535 46.823C409.033 51.0128 413.484 53.4384 417.299 51.6192C419.788 50.4339 420.755 48.3115 420.838 45.7205Z" fill="#9B9B9B"/>
<path d="M482.658 55.8087C481.441 55.9465 480.363 56.1395 479.257 56.1671C476.465 56.2222 473.645 56.3324 470.853 56.1946C469.498 56.1395 468.143 55.726 466.871 55.2023C464.134 54.0998 463.277 52.0876 463.443 49.2485C463.692 45.169 466.153 43.7357 470.106 43.3222C472.373 43.0741 474.696 43.2671 476.99 43.2671C477.294 43.2671 477.626 43.2671 477.93 43.2671C478.041 41.0895 477.073 39.6286 475.055 39.1601C472.511 38.5812 469.94 38.5536 467.48 39.6562C467.148 39.794 466.816 39.9594 466.484 40.0972C464.715 38.7466 464.853 36.762 466.844 35.8524C467.756 35.4389 468.779 35.1908 469.747 35.1081C472.097 34.8876 474.419 34.9428 476.741 35.5767C480.557 36.5966 482.658 39.2427 482.686 43.1293C482.713 47.0709 482.686 51.0126 482.686 54.9818C482.713 55.2023 482.686 55.4228 482.658 55.8087ZM478.096 46.8229C477.211 46.7126 476.41 46.5472 475.58 46.4921C473.756 46.3818 471.903 46.2716 470.134 46.878C468.779 47.3466 468.088 48.4216 468.115 49.8273C468.143 51.178 468.807 52.1703 470.189 52.5562C472.788 53.2453 475.414 53.0799 478.068 52.6113C478.096 50.6818 478.096 48.8626 478.096 46.8229Z" fill="#9B9B9B"/>
<path d="M450.919 45.7203C451.112 51.2331 446.633 56.36 439.86 56.4152C433.529 56.4703 428.663 51.7293 428.718 45.6376C428.746 39.5184 433.501 35.0255 439.86 35.0255C446.385 34.9979 451.14 40.0422 450.919 45.7203ZM439.805 39.1325C436.21 39.1325 433.556 41.9441 433.556 45.7479C433.556 49.4139 436.266 52.2806 439.749 52.2806C443.426 52.2806 446.081 49.5793 446.053 45.7203C446.053 41.1447 442.873 39.105 439.805 39.1325Z" fill="#9B9B9B"/>
<path d="M529.686 40.5662C527.087 38.9123 524.184 38.4162 521.143 38.6367C520.451 38.6918 519.76 38.8296 519.124 39.0777C518.101 39.436 517.631 40.1251 517.659 41.0348C517.687 41.9995 518.267 42.6059 519.124 42.7989C520.59 43.1296 522.083 43.3501 523.575 43.5982C524.985 43.8463 526.368 44.0944 527.778 44.37C528.137 44.4527 528.469 44.5905 528.828 44.7283C532.616 46.4097 533.446 51.1507 530.487 54.045C529.326 55.1751 527.916 55.7815 526.34 56.0571C521.806 56.8841 517.465 56.2501 513.318 54.293C513.125 54.2104 512.931 54.045 512.655 53.852C513.208 52.8322 513.761 51.8398 514.258 50.9302C516.166 51.454 517.963 52.0879 519.843 52.4738C521.695 52.8597 523.603 52.8873 525.455 52.3636C526.064 52.1706 526.755 51.7847 527.114 51.2886C527.888 50.1584 527.197 48.7251 525.677 48.3392C524.405 48.0085 523.05 47.8706 521.723 47.7052C519.954 47.4572 518.157 47.3469 516.47 46.6027C514.59 45.7758 513.291 44.4251 513.042 42.3027C512.793 39.9322 513.484 37.9751 515.558 36.5969C516.885 35.7149 518.405 35.3014 519.954 35.1361C522.525 34.888 525.096 34.9431 527.64 35.6046C528.303 35.77 528.967 36.0181 529.547 36.3489C531.593 37.479 531.648 39.1053 529.686 40.5662Z" fill="#9B9B9B"/>
<path d="M459.545 55.8086C457.969 55.8086 456.559 55.8086 455.038 55.8086C455.01 55.3952 454.955 54.9817 454.955 54.5958C454.955 45.9958 454.955 37.4234 454.955 28.8235C454.955 26.701 455.674 26.0119 457.803 26.1773C458.383 26.2049 458.964 26.3978 459.545 26.5081C459.545 36.3209 459.545 45.9958 459.545 55.8086Z" fill="#9B9B9B"/>
<path d="M396.702 45.5C396.371 46.134 396.067 46.7955 395.707 47.4295C393.91 50.4891 392.113 53.5211 390.316 56.5807C389.901 56.4705 389.487 56.3051 389.072 56.2775C385.505 56.25 381.966 56.25 378.4 56.25C378.4 56.1397 378.4 56.0295 378.372 55.9192C378.538 55.5884 378.676 55.2577 378.842 54.9545C380.667 51.8122 382.464 48.6699 384.289 45.5C388.464 45.5 392.583 45.5 396.702 45.5Z" fill="#909090"/>
<path d="M396.702 45.5C392.583 45.5 388.463 45.5 384.316 45.5C384.067 44.9763 383.818 44.425 383.542 43.9288C381.828 40.8692 380.086 37.8372 378.344 34.8051C382.436 34.7776 386.555 34.7776 390.647 34.75C392.638 38.1679 394.656 41.5859 396.647 45.0038C396.73 45.1141 396.674 45.3346 396.702 45.5Z" fill="#B7B7B7"/>
<path d="M492.058 55.809C490.482 55.809 489.017 55.809 487.469 55.809C487.441 55.4782 487.386 55.1199 487.358 54.7891C487.358 50.9853 487.358 47.1539 487.358 43.3501C487.358 42.661 487.358 41.9719 487.496 41.2828C488.132 37.6995 490.344 35.6322 494.242 35.1084C496.067 34.8604 497.919 34.9155 499.689 35.5495C501.983 36.3488 502.426 38.1405 500.767 39.9597C499.827 39.7392 498.914 39.3809 497.974 39.2982C496.952 39.2155 495.846 39.2155 494.85 39.4635C492.943 39.9873 492.279 41.5309 492.086 43.3501C492.003 44.1219 492.058 44.9212 492.058 45.693C492.058 48.5872 492.058 51.4815 492.058 54.3757C492.058 54.8443 492.058 55.2853 492.058 55.809Z" fill="#9B9B9B"/>
<path d="M378.427 56.25C381.994 56.25 385.56 56.25 389.099 56.2776C389.514 56.2776 389.929 56.4705 390.343 56.5808C388.629 59.5852 386.915 62.5897 385.229 65.5942C385.007 65.9801 384.759 66.366 384.537 66.7794C380.473 66.7519 376.437 66.7519 372.373 66.7243C372.456 66.4762 372.511 66.2006 372.649 65.9525C373.672 64.1884 374.667 62.3968 375.718 60.6327C376.575 59.1442 377.515 57.7109 378.427 56.25Z" fill="#9B9B9B"/>
<path d="M508.923 35.9906C508.923 42.6335 508.923 49.1662 508.923 55.8091C507.43 55.8091 505.964 55.8091 504.388 55.8091C504.361 55.3129 504.333 54.8719 504.333 54.4309C504.333 49.1386 504.416 43.8739 504.305 38.5816C504.25 35.5771 505.992 35.3566 508.01 35.7149C508.259 35.7425 508.536 35.8527 508.923 35.9906Z" fill="#9B9B9B"/>
<path d="M509.476 29.3198C509.476 30.9736 508.259 32.214 506.656 32.1865C505.08 32.1589 503.919 30.9736 503.891 29.3749C503.891 27.7211 505.107 26.4807 506.711 26.5083C508.287 26.5358 509.476 27.7486 509.476 29.3198Z" fill="#9B9B9B"/>
<path d="M537.15 37.534C537.206 37.4789 537.233 37.4238 537.289 37.3687C537.289 37.4513 537.289 37.534 537.316 37.6167C537.261 37.5892 537.206 37.5616 537.15 37.534Z" fill="#909090"/>
<path d="M378.428 56.25C377.515 57.7109 376.575 59.1442 375.69 60.6327C374.64 62.3968 373.645 64.1609 372.622 65.9525C372.483 66.173 372.428 66.4487 372.345 66.7243C372.262 66.7519 372.152 66.7794 372.069 66.807C369.967 63.2237 367.894 59.6128 365.793 56.0295C365.931 56.0295 366.097 56.0019 366.235 56.0019C370.216 56.0019 374.225 56.0019 378.206 56.0019C378.262 55.9743 378.317 55.9743 378.4 55.9468C378.4 56.0295 378.4 56.1397 378.428 56.25Z" fill="#949494"/>
<path d="M353.821 55.6987C353.545 55.5058 353.158 55.3955 353.019 55.1199C351.831 53.1353 350.725 51.1231 349.563 49.1109C349.011 48.1186 348.402 47.1539 347.794 46.2167C347.683 46.0237 347.379 45.9411 347.186 45.8032C347.296 45.6103 347.379 45.4449 347.49 45.252C351.554 45.252 355.591 45.252 359.655 45.252C359.765 45.2795 359.876 45.2795 359.986 45.3071H359.959C359.931 45.4725 359.904 45.6378 359.876 45.8032C359.489 46.2718 359.019 46.6853 358.715 47.209C357.028 49.993 355.425 52.8596 353.821 55.6987Z" fill="#9B9B9B"/>
<path d="M359.848 45.7754C359.876 45.6101 359.904 45.4447 359.931 45.2793C360.429 45.3069 360.927 45.362 361.424 45.362C364.88 45.3896 368.364 45.3896 371.82 45.4171C371.681 45.803 371.598 46.2165 371.405 46.5472C370.244 48.5594 369.055 50.5165 367.921 52.5562C367.313 53.6588 366.373 54.5959 366.263 55.9466C366.124 55.9466 365.958 55.9741 365.82 55.9741C363.802 52.5838 361.811 49.1658 359.848 45.7754Z" fill="#9B9B9B"/>
<path d="M359.627 45.2245C355.563 45.2245 351.526 45.2245 347.462 45.2245C348.54 43.2675 349.619 41.338 350.725 39.3809C351.305 38.3611 351.886 37.3136 352.494 36.2938C352.77 35.8252 353.13 35.4117 353.462 34.9707C353.71 35.2188 353.987 35.4393 354.18 35.7425C354.761 36.6797 355.314 37.6169 355.867 38.554C357.111 40.7867 358.355 43.0194 359.627 45.2245Z" fill="#C8C8C8"/>
<path d="M359.627 45.2243C358.383 43.0192 357.111 40.7865 355.84 38.5814C355.287 37.6442 354.734 36.6795 354.153 35.7699C353.96 35.4942 353.683 35.2737 353.434 34.9981C353.462 34.9154 353.517 34.8327 353.545 34.75C357.609 34.7776 361.673 34.7776 365.765 34.8051C364.825 36.5141 363.857 38.2231 362.917 39.9045C361.922 41.6961 360.954 43.4878 359.959 45.2519C359.848 45.2519 359.738 45.2519 359.627 45.2243Z" fill="#D5D9DA"/>
<path d="M371.82 45.4448C372.041 45.6378 372.345 45.7756 372.483 45.9961C374.418 49.3038 376.326 52.639 378.234 55.9467C374.253 55.9467 370.244 55.9467 366.262 55.9467C366.373 54.5961 367.313 53.6589 367.921 52.5563C369.055 50.5442 370.244 48.5596 371.405 46.5474C371.571 46.2166 371.681 45.8032 371.82 45.4448Z" fill="#9B9B9B"/>
<g clip-path="url(#clip1_36_17644)">
<path d="M607.968 25.5C596.916 25.5 587.952 34.4573 587.952 45.5007V65.5H592.134V45.5007C592.134 36.6988 599.159 29.6783 607.968 29.6783H618.42V25.5H607.968Z" fill="#B9B9B9"/>
<path d="M623.801 25.5V45.5007C623.801 50.2826 621.726 54.5386 618.42 57.4276V34.2009H614.239V60.053C612.929 60.6112 611.526 60.9979 610.057 61.1884V41.362H605.876V61.3217H601.694V48.5231H597.513V65.4985H607.966C619.018 65.4985 627.981 56.5427 627.981 45.4993V25.5H623.801Z" fill="#9B9B9B"/>
<path d="M636.201 42.4391C635.518 42.1592 634.973 41.7446 634.564 41.1967C634.155 40.6488 633.939 39.9881 633.917 39.216H636.974C637.018 39.6526 637.169 39.9851 637.427 40.2151C637.685 40.4451 638.021 40.5594 638.434 40.5594C638.848 40.5594 639.195 40.4613 639.443 40.2649C639.689 40.0701 639.812 39.7976 639.812 39.4504C639.812 39.1588 639.714 38.9186 639.519 38.7281C639.323 38.5377 639.082 38.3809 638.796 38.2578C638.51 38.1348 638.104 37.9956 637.578 37.8388C636.816 37.6044 636.195 37.3686 635.713 37.1342C635.232 36.8997 634.817 36.5525 634.47 36.094C634.122 35.6354 633.949 35.0362 633.949 34.2978C633.949 33.202 634.347 32.342 635.141 31.7208C635.936 31.0997 636.972 30.7891 638.249 30.7891C639.526 30.7891 640.595 31.0997 641.391 31.7208C642.186 32.342 642.611 33.2064 642.668 34.314H639.56C639.538 33.933 639.397 33.6342 639.141 33.4159C638.883 33.1976 638.553 33.0892 638.15 33.0892C637.802 33.0892 637.522 33.1815 637.31 33.3661C637.097 33.5507 636.99 33.8173 636.99 34.1631C636.99 34.544 637.169 34.8399 637.528 35.0523C637.886 35.2648 638.446 35.4948 639.208 35.7409C639.969 35.9987 640.588 36.2449 641.064 36.4793C641.541 36.7137 641.952 37.055 642.299 37.5033C642.646 37.9516 642.819 38.5274 642.819 39.2321C642.819 39.9368 642.648 40.514 642.308 41.0619C641.966 41.6099 641.471 42.0464 640.821 42.3717C640.172 42.6969 639.405 42.8581 638.519 42.8581C637.634 42.8581 636.884 42.7189 636.201 42.4391Z" fill="#9B9B9B"/>
<path d="M644.851 33.7191C645.355 32.8064 646.058 32.0959 646.959 31.5875C647.861 31.0791 648.883 30.8242 650.025 30.8242C651.425 30.8242 652.623 31.1934 653.62 31.9318C654.617 32.6702 655.283 33.6781 655.618 34.9527H652.46C652.226 34.4604 651.891 34.0854 651.46 33.8276C651.029 33.5697 650.54 33.4422 649.99 33.4422C649.104 33.4422 648.389 33.7499 647.839 34.3652C647.291 34.9805 647.017 35.8039 647.017 36.8323C647.017 37.8608 647.291 38.6842 647.839 39.2995C648.387 39.9148 649.104 40.2225 649.99 40.2225C650.538 40.2225 651.028 40.0935 651.46 39.8371C651.891 39.5793 652.224 39.2057 652.46 38.712H655.618C655.283 39.988 654.616 40.9916 653.62 41.7256C652.623 42.4581 651.425 42.8244 650.025 42.8244C648.883 42.8244 647.861 42.5694 646.959 42.0611C646.058 41.5527 645.355 40.8436 644.851 39.9382C644.347 39.0314 644.094 37.9971 644.094 36.8323C644.094 35.6676 644.347 34.6304 644.851 33.7191Z" fill="#9B9B9B"/>
<path d="M659.911 42.0879C658.988 41.5737 658.253 40.8544 657.711 39.9314C657.167 39.0084 656.896 37.9697 656.896 36.8182C656.896 35.6667 657.167 34.6309 657.711 33.7123C658.253 32.7952 658.988 32.0788 659.911 31.5631C660.835 31.0489 661.851 30.791 662.96 30.791C664.068 30.791 665.084 31.0489 666.009 31.5631C666.933 32.0773 667.661 32.7937 668.192 33.7123C668.724 34.6294 668.99 35.6652 668.99 36.8182C668.99 37.9712 668.721 39.0084 668.183 39.9314C667.645 40.8544 666.918 41.5737 666 42.0879C665.083 42.6022 664.068 42.86 662.96 42.86C661.851 42.86 660.835 42.6022 659.911 42.0879ZM665.22 39.3014C665.786 38.6744 666.069 37.8467 666.069 36.8167C666.069 35.7868 665.786 34.9444 665.22 34.3247C664.654 33.7035 663.901 33.3929 662.961 33.3929C662.021 33.3929 661.25 33.7006 660.686 34.3159C660.12 34.9312 659.837 35.7648 659.837 36.8167C659.837 37.8686 660.12 38.689 660.686 39.3088C661.251 39.9299 662.009 40.2405 662.961 40.2405C663.913 40.2405 664.654 39.927 665.22 39.3V39.3014Z" fill="#9B9B9B"/>
<path d="M673.409 30.959V38.0088C673.409 38.7134 673.582 39.257 673.929 39.6364C674.277 40.0173 674.786 40.2078 675.458 40.2078C676.131 40.2078 676.645 40.0173 677.004 39.6364C677.362 39.2555 677.542 38.7134 677.542 38.0088V30.959H680.414V37.9926C680.414 39.0445 680.19 39.9338 679.743 40.6619C679.294 41.3901 678.693 41.938 677.936 42.3072C677.18 42.6764 676.338 42.861 675.409 42.861C674.479 42.861 673.648 42.6793 672.915 42.316C672.182 41.9526 671.601 41.4047 671.176 40.6707C670.751 39.9382 670.538 39.046 670.538 37.9941V30.9604H673.41L673.409 30.959Z" fill="#9B9B9B"/>
<path d="M690.913 30.9595V33.2596H687.789V42.7443H684.916V33.2581H681.792V30.958H690.913V30.9595Z" fill="#9B9B9B"/>
<path d="M641.206 53.364C640.926 53.8899 640.477 54.3177 639.862 54.6473C639.246 54.977 638.456 55.1425 637.494 55.1425H635.377V59.8761H633.462V48.21H637.494C638.39 48.21 639.149 48.3638 639.769 48.6715C640.391 48.9791 640.856 49.3966 641.164 49.9226C641.472 50.4485 641.625 51.036 641.625 51.685C641.625 52.2784 641.485 52.838 641.205 53.364H641.206ZM639.123 53.0871C639.48 52.7574 639.661 52.2901 639.661 51.685C639.661 50.409 638.938 49.7717 637.494 49.7717H635.377V53.5823H637.494C638.221 53.5823 638.765 53.4167 639.123 53.0871Z" fill="#B9B9B9"/>
<path d="M649.522 59.8761L646.835 55.2099H645.373V59.8761H643.458V48.21H647.49C648.386 48.21 649.145 48.3667 649.766 48.6802C650.387 48.9938 650.852 49.4128 651.16 49.9387C651.468 50.4647 651.622 51.0521 651.622 51.7012C651.622 52.463 651.4 53.153 650.958 53.7742C650.515 54.3954 649.835 54.8173 648.917 55.0414L651.807 59.8761H649.522ZM645.373 53.6819H647.49C648.207 53.6819 648.747 53.5032 649.112 53.1442C649.475 52.7867 649.657 52.3047 649.657 51.7012C649.657 51.0976 649.478 50.6243 649.119 50.283C648.76 49.9416 648.217 49.7717 647.49 49.7717H645.373V53.6834V53.6819Z" fill="#B9B9B9"/>
<path d="M656.399 59.2295C655.486 58.7212 654.764 58.0106 654.232 57.0979C653.7 56.1866 653.435 55.1596 653.435 54.0169C653.435 52.8742 653.7 51.8516 654.232 50.9447C654.764 50.0379 655.486 49.3303 656.399 48.8219C657.311 48.3135 658.311 48.0586 659.397 48.0586C660.484 48.0586 661.5 48.3135 662.413 48.8219C663.325 49.3317 664.045 50.0393 664.571 50.9447C665.098 51.8516 665.36 52.8756 665.36 54.0169C665.36 55.1582 665.096 56.1852 664.571 57.0979C664.045 58.0106 663.325 58.7212 662.413 59.2295C661.5 59.7394 660.496 59.9928 659.397 59.9928C658.299 59.9928 657.311 59.7379 656.399 59.2295ZM661.463 57.8026C662.067 57.4495 662.541 56.947 662.882 56.2921C663.224 55.6372 663.394 54.8798 663.394 54.0169C663.394 53.154 663.223 52.3995 662.882 51.7505C662.541 51.1015 662.067 50.6034 661.463 50.2562C660.859 49.9089 660.17 49.7361 659.397 49.7361C658.625 49.7361 657.936 49.9104 657.332 50.2562C656.728 50.6034 656.254 51.1015 655.912 51.7505C655.571 52.3995 655.399 53.1555 655.399 54.0169C655.399 54.8784 655.569 55.6372 655.912 56.2921C656.254 56.947 656.728 57.451 657.332 57.8026C657.936 58.1557 658.625 58.3315 659.397 58.3315C660.17 58.3315 660.859 58.1557 661.463 57.8026Z" fill="#B9B9B9"/>
<path d="M668.974 59.5831C668.346 59.3091 667.854 58.9194 667.496 58.4169C667.137 57.9129 666.958 57.3255 666.958 56.6545H669.008C669.052 57.1584 669.251 57.5716 669.604 57.8968C669.958 58.2221 670.453 58.3832 671.091 58.3832C671.729 58.3832 672.267 58.2235 672.636 57.9042C673.006 57.5848 673.191 57.1746 673.191 56.6706C673.191 56.2794 673.076 55.96 672.846 55.7139C672.616 55.4678 672.331 55.2773 671.99 55.1426C671.648 55.0078 671.175 54.8627 670.571 54.706C669.808 54.5038 669.189 54.3002 668.714 54.0936C668.238 53.887 667.833 53.5647 667.496 53.1281C667.16 52.6915 666.992 52.1099 666.992 51.3818C666.992 50.7108 667.16 50.1233 667.496 49.6194C667.832 49.1154 668.302 48.7301 668.907 48.4605C669.511 48.1924 670.211 48.0576 671.006 48.0576C672.136 48.0576 673.065 48.3404 673.786 48.9059C674.509 49.4714 674.909 50.2464 674.987 51.2309H672.87C672.836 50.806 672.635 50.4427 672.265 50.1394C671.896 49.8362 671.409 49.6867 670.804 49.6867C670.255 49.6867 669.807 49.8274 669.459 50.1072C669.112 50.387 668.939 50.7899 668.939 51.3159C668.939 51.6748 669.049 51.9678 669.266 52.1978C669.484 52.4278 669.761 52.6095 670.097 52.7428C670.433 52.8776 670.892 53.0226 671.474 53.1794C672.246 53.3918 672.877 53.6043 673.364 53.8167C673.85 54.0291 674.265 54.3573 674.607 54.7983C674.949 55.2407 675.119 55.8311 675.119 56.5695C675.119 57.1628 674.959 57.7225 674.639 58.2484C674.32 58.7744 673.855 59.1963 673.245 59.5157C672.635 59.8351 671.915 59.9933 671.087 59.9933C670.302 59.9933 669.597 59.8571 668.97 59.5816L668.974 59.5831Z" fill="#B9B9B9"/>
<path d="M685.134 53.364C684.854 53.8899 684.405 54.3177 683.789 54.6473C683.174 54.977 682.383 55.1425 681.422 55.1425H679.304V59.8761H677.39V48.21H681.422C682.317 48.21 683.077 48.3638 683.697 48.6715C684.319 48.9791 684.783 49.3966 685.091 49.9226C685.399 50.4485 685.553 51.036 685.553 51.685C685.553 52.2784 685.412 52.838 685.132 53.364H685.134ZM683.05 53.0871C683.408 52.7574 683.589 52.2901 683.589 51.685C683.589 50.409 682.866 49.7717 681.422 49.7717H679.304V53.5823H681.422C682.149 53.5823 682.693 53.4167 683.05 53.0871Z" fill="#B9B9B9"/>
<path d="M689.3 49.7536V53.1774H693.332V54.7392H689.3V58.3153H693.835V59.8771H687.384V48.1934H693.835V49.7551H689.3V49.7536Z" fill="#B9B9B9"/>
<path d="M696.347 50.9467C696.88 50.0398 697.601 49.3322 698.514 48.8238C699.426 48.3155 700.426 48.0605 701.513 48.0605C702.756 48.0605 703.861 48.3653 704.831 48.9747C705.8 49.5842 706.502 50.4486 706.939 51.5679H704.637C704.335 50.9525 703.914 50.494 703.378 50.1907C702.84 49.8889 702.218 49.738 701.513 49.738C700.74 49.738 700.051 49.9124 699.447 50.2581C698.843 50.6053 698.369 51.1034 698.028 51.7524C697.686 52.4015 697.514 53.1574 697.514 54.0189C697.514 54.8803 697.685 55.6363 698.028 56.2853C698.369 56.9343 698.843 57.4353 699.447 57.787C700.051 58.14 700.74 58.3158 701.513 58.3158C702.218 58.3158 702.84 58.1649 703.378 57.8631C703.916 57.5613 704.335 57.1028 704.637 56.486H706.939C706.502 57.6053 705.8 58.4667 704.831 59.0703C703.861 59.6739 702.756 59.9772 701.513 59.9772C700.414 59.9772 699.413 59.7223 698.506 59.2139C697.598 58.7041 696.878 57.9965 696.347 57.0911C695.815 56.1842 695.55 55.1601 695.55 54.0189C695.55 52.8776 695.815 51.8535 696.347 50.9467Z" fill="#B9B9B9"/>
<path d="M716.715 48.21V49.7717H713.606V59.8761H711.692V49.7717H708.567V48.21H716.715Z" fill="#B9B9B9"/>
</g>
<g clip-path="url(#clip2_36_17644)">
<path d="M813.043 36.5859H809.72L809.53 34.8086H805.477L804.641 36.5859H801.208L807.367 24.2646H811.159L813.043 36.5859ZM808.782 27.8385L806.764 32.0974H809.244L808.782 27.8385Z" fill="#ACACAC"/>
<path d="M820.578 24.2646L818.961 33.5408H823.157L822.634 36.5859H815.327L817.467 24.2646H820.578Z" fill="#ACACAC"/>
<path d="M825.152 36.5859L827.292 24.2646H830.406L828.266 36.5859H825.152Z" fill="#ACACAC"/>
<path d="M838.756 29.527H844.897L844.688 30.7775C844.398 32.6442 843.615 34.1236 842.34 35.2159C841.065 36.3081 839.511 36.8542 837.678 36.8542C835.771 36.8542 834.309 36.2206 833.292 34.9534C832.275 33.6862 831.909 32.1193 832.195 30.2526C832.461 28.5035 833.342 26.9101 834.674 25.7641C835.98 24.6012 837.667 23.9735 839.406 24.0042C840.482 23.9825 841.544 24.2488 842.485 24.776C843.351 25.2714 844.054 26.0154 844.503 26.9142L841.642 28.458C841.133 27.5433 840.281 27.0859 839.084 27.0859C838.173 27.0785 837.29 27.4102 836.605 28.018C835.906 28.6442 835.445 29.4971 835.3 30.4301C835.127 31.4143 835.284 32.2351 835.769 32.8925C836.255 33.5499 836.985 33.8715 837.961 33.8573C839.446 33.8573 840.495 33.3176 841.11 32.2383H838.293L838.756 29.527Z" fill="#ACACAC"/>
<path d="M849.629 36.5859H846.515L848.655 24.2646H851.073L854.239 30.706L855.37 24.2646H858.466L856.326 36.5859H853.927L850.76 30.1445L849.629 36.5859Z" fill="#ACACAC"/>
<path d="M870.904 24.2646H874.21L872.07 36.5859H868.978L870.122 29.9322L866.308 34.8955H865.995L863.924 29.8454L862.758 36.5859H859.644L861.784 24.2646H864.898L866.882 29.581L870.904 24.2646Z" fill="#ACACAC"/>
<path d="M885.274 24.2646L884.751 27.2036H880.141L879.829 28.9288H884.046L883.523 31.8234H879.348L879.035 33.6373H883.733L883.227 36.5936H875.407L877.547 24.2724L885.274 24.2646Z" fill="#ACACAC"/>
<path d="M889.205 36.5859H886.091L888.231 24.2646H890.649L893.815 30.706L894.946 24.2646H898.042L895.904 36.5859H893.502L890.34 30.1387L889.205 36.5859Z" fill="#ACACAC"/>
<path d="M900.582 24.2646H909.716L909.177 27.3097H906.184L904.567 36.5859H901.452L903.069 27.3097H900.067L900.582 24.2646Z" fill="#ACACAC"/>
<path d="M805.605 66.9963C801.935 66.9963 799.084 65.7503 797.053 63.2584C795.047 60.7909 794.34 57.7105 794.932 54.017C795.437 50.5831 797.15 47.4488 799.756 45.1904C802.402 42.8825 805.504 41.7285 809.061 41.7285C811.363 41.7285 813.347 42.2303 815.014 43.2337C816.681 44.2425 818.015 45.7295 818.846 47.5061L813.235 50.5184C812.323 48.6968 810.738 47.7852 808.48 47.784C806.681 47.7653 804.939 48.4188 803.588 49.6191C802.214 50.8504 801.308 52.5267 801.022 54.3605C800.702 56.2979 800.998 57.8784 801.911 59.1018C802.846 60.3253 804.214 60.937 806.017 60.937C808.32 60.937 810.19 59.9676 811.627 58.0289L816.656 61.3094C815.413 63.0789 813.764 64.5161 811.85 65.4969C809.917 66.4943 807.775 67.0085 805.605 66.9963Z" fill="#9B9B9B"/>
<path d="M836.154 51.2184L837.728 42.2529H843.817L839.606 66.4806H833.518L835.126 57.1716H828.386L826.778 66.4806H820.656L824.863 42.2529H830.987L829.414 51.2184H836.154Z" fill="#9B9B9B"/>
<path d="M867.352 66.4806H860.82L860.438 62.9859H852.468L850.826 66.4806H844.087L856.2 42.2529H863.658L867.352 66.4806ZM858.972 49.279L855.003 57.656H859.86L858.972 49.279Z" fill="#9B9B9B"/>
<path d="M871.839 66.4806L876.035 42.2529H882.157L877.95 66.4806H871.839Z" fill="#9B9B9B"/>
<path d="M890.578 66.4806H884.456L888.664 42.2529H893.418L899.644 54.9215L901.868 42.2529H907.958L903.75 66.4806H899.03L892.802 53.8139L890.578 66.4806Z" fill="#9B9B9B"/>
<path d="M781.116 28.8845L776.132 37.8442C777.058 37.41 778.039 37.1055 779.046 36.9392C779.866 36.8026 780.697 36.7592 781.526 36.8099L784.732 31.0439C786.067 28.6433 789.119 27.7421 791.474 29.1335C792.574 29.7872 793.376 30.8509 793.709 32.0963C794.042 33.3416 793.879 34.6695 793.256 35.7949L790.013 41.6362L788.836 43.7589L788.203 44.8954C787.632 45.9257 786.711 46.7119 785.611 47.1088C784.94 47.3543 784.224 47.4473 783.513 47.3809C782.83 47.3195 782.167 47.1116 781.57 46.7711C781.467 46.7132 781.368 46.6515 781.27 46.5781C780.84 46.2841 780.316 46.1667 779.804 46.2498C779.291 46.333 778.83 46.6105 778.512 47.0259L778.423 47.1436C778.256 47.3654 778.136 47.619 778.07 47.8892C778.003 48.1594 777.991 48.4404 778.036 48.7153C778.08 48.9901 778.178 49.253 778.326 49.488C778.473 49.7231 778.667 49.9254 778.894 50.0826C779.085 50.2176 779.298 50.3469 779.51 50.4685C780.328 50.935 781.213 51.2696 782.132 51.4604C782.893 51.6191 783.671 51.6768 784.446 51.6321C786.412 51.5234 788.29 50.7725 789.798 49.492C790.627 48.7842 791.324 47.9312 791.856 46.9738L791.932 46.8387L796.916 37.8771C797.499 36.8273 797.873 35.6715 798.015 34.4756C798.158 33.2797 798.066 32.0672 797.745 30.9073C797.424 29.7474 796.88 28.6628 796.145 27.7154C795.41 26.7681 794.497 25.9765 793.46 25.3859C791.364 24.194 788.887 23.8929 786.572 24.549C784.257 25.2051 782.294 26.7646 781.116 28.8845Z" fill="#9B9B9B"/>
<path d="M782.664 39.0985C781.903 38.9398 781.126 38.8821 780.35 38.9267C779.425 38.9792 778.513 39.1745 777.646 39.5057C776.682 39.8724 775.787 40.4023 774.999 41.0726C774.169 41.7775 773.472 42.6271 772.939 43.5812L772.864 43.7163L767.881 52.6779C767.297 53.7277 766.923 54.8835 766.781 56.0794C766.639 57.2753 766.731 58.4877 767.052 59.6476C767.373 60.8076 767.916 61.8922 768.651 62.8395C769.387 63.7869 770.299 64.5785 771.337 65.169C772.374 65.7596 773.517 66.1377 774.698 66.2816C775.88 66.4255 777.079 66.3324 778.225 66.0077C779.372 65.683 780.444 65.133 781.38 64.3892C782.316 63.6453 783.099 62.7221 783.682 61.6723L788.666 52.7127C786.98 53.503 785.126 53.8584 783.27 53.747L780.064 59.513C778.729 61.9136 775.678 62.8148 773.322 61.4235C772.222 60.77 771.42 59.7064 771.087 58.4608C770.754 57.2153 770.917 55.8873 771.541 54.762L774.783 48.9188L775.962 46.7961L776.593 45.6595C776.797 45.294 777.047 44.9562 777.335 44.6541C777.852 44.1129 778.486 43.6996 779.187 43.4461C779.858 43.2008 780.574 43.1073 781.285 43.1721C781.968 43.2352 782.63 43.4436 783.228 43.7838C783.33 43.8417 783.431 43.9035 783.528 43.9768C783.958 44.2709 784.482 44.3883 784.994 44.3051C785.507 44.222 785.969 43.9445 786.286 43.5291L786.375 43.4114C786.542 43.1896 786.662 42.9359 786.729 42.6656C786.795 42.3953 786.807 42.1141 786.763 41.8392C786.718 41.5642 786.619 41.3013 786.471 41.0663C786.324 40.8314 786.13 40.6293 785.902 40.4724C785.712 40.3374 785.5 40.2081 785.286 40.0865C784.468 39.6209 783.584 39.2875 782.664 39.0985Z" fill="#9B9B9B"/>
</g>
<g clip-path="url(#clip3_36_17644)">
<path d="M990.694 38.9403L992.633 37.8062C992.193 36.6869 991.296 34.6709 990.694 33.6621V38.9403Z" fill="#9B9B9B"/>
<path d="M990.694 38.9408L992.588 40.0486C992.774 39.5391 993.006 38.9108 992.862 38.4361C992.82 38.2977 992.74 38.0782 992.633 37.8057L990.694 38.9408Z" fill="#9B9B9B"/>
<path d="M990.694 44.3215L993.398 42.7398C993.311 42.6504 993.222 42.5605 993.125 42.4688C992.622 41.992 992.392 41.2117 992.392 40.7546C992.392 40.5896 992.483 40.3382 992.588 40.0491L990.694 38.9414V44.3215Z" fill="#9B9B9B"/>
<path d="M990.694 44.321L994.523 46.5612C994.757 46.4376 994.943 46.2384 995.052 45.9952C995.246 45.5751 995.281 45.308 995.107 44.931C994.914 44.5111 994.703 44.3527 994.365 43.8958C994.088 43.5215 993.788 43.1408 993.398 42.7383L990.695 44.32L990.694 44.321Z" fill="#9B9B9B"/>
<path d="M990.694 49.7006L993.725 47.9276C993.625 47.6502 993.542 47.4127 993.52 47.3243C993.463 47.0958 993.707 47.0196 993.877 46.8481C993.975 46.7482 994.249 46.7121 994.524 46.5614L990.695 44.3213L990.694 49.7006Z" fill="#9B9B9B"/>
<path d="M990.691 49.7L993.925 51.5921C994.014 51.4324 994.08 51.294 994.08 51.2449C994.08 51.1306 993.967 50.7305 993.798 50.559C993.677 50.4326 993.564 50.299 993.459 50.1589L993.89 49.8101C993.89 49.8101 994.265 49.4619 994.152 49.1189C994.083 48.9087 993.881 48.3665 993.721 47.9258L990.69 49.699L990.691 49.7Z" fill="#9B9B9B"/>
<path d="M990.694 55.0811L993.506 53.4367C993.392 53.1768 993.273 52.9499 993.238 52.8096C993.181 52.5809 993.389 52.4116 993.558 52.1825C993.692 51.9931 993.816 51.7964 993.928 51.5933L990.694 49.7012V55.0811Z" fill="#9B9B9B"/>
<path d="M990.694 55.0816L993.018 56.4407C993.035 56.4299 993.053 56.4191 993.069 56.4086C993.407 56.1801 993.689 55.7227 993.802 55.323C993.915 54.9232 993.802 54.4087 993.689 53.9513C993.642 53.7745 993.581 53.6019 993.506 53.4355L990.694 55.08V55.0816Z" fill="#9B9B9B"/>
<path d="M991.433 56.9254C991.864 56.9254 992.652 56.6659 993.017 56.4437L990.694 55.085V56.9017C991.01 56.9124 991.281 56.9254 991.433 56.9254Z" fill="#9B9B9B"/>
<path d="M990.595 33.502L990.584 33.4843C989.851 32.3423 988.105 31.2681 987.09 30.4118C987.06 30.3865 987.03 30.3645 987 30.3398L986.095 30.8689L990.595 33.502Z" fill="#9B9B9B"/>
<path d="M990.648 33.5859C990.63 33.5571 990.613 33.5292 990.595 33.5022L986.095 30.8691V36.2495L990.648 33.5859Z" fill="#8A8A8A"/>
<path d="M990.693 38.9408V33.6626C990.678 33.6371 990.662 33.6112 990.647 33.5869L986.095 36.2505L990.693 38.9408Z" fill="#9B9B9B"/>
<path d="M990.693 38.9412L986.095 36.251H986.095V36.2512V41.6313H986.095L990.693 38.9412Z" fill="#8A8A8A"/>
<path d="M990.693 38.9414L986.095 41.6315L990.693 44.3217V38.9424V38.9416V38.9414H990.693Z" fill="#9B9B9B"/>
<path d="M990.693 44.3205L990.693 44.3201H990.693L986.095 41.6299H986.095V41.6301V47.0104L990.692 44.3207L990.693 44.3205Z" fill="#8A8A8A"/>
<path d="M990.693 44.3211V44.3203L990.693 44.3207L990.692 44.3209L986.095 47.0106L990.693 49.7006H990.693V49.7004V44.3211Z" fill="#9B9B9B"/>
<path d="M990.693 49.7008L986.095 47.0107H986.095V52.3911L990.693 49.7008Z" fill="#8A8A8A"/>
<path d="M986.095 52.3914H986.095L990.692 55.0811L990.693 55.0817H990.693V49.7022V49.7014V49.7012H990.693L986.095 52.3914Z" fill="#9B9B9B"/>
<path d="M990.693 55.0828L990.693 55.0824L990.692 55.0822L986.095 52.3926V57.7729H986.095L990.693 55.0828Z" fill="#8A8A8A"/>
<path d="M990.693 55.083L986.095 57.7731L987.576 58.6396C987.714 58.4001 987.831 58.2477 987.863 58.1889C988.053 57.835 988.269 57.147 988.838 56.9826C989.282 56.8544 990.077 56.8809 990.693 56.9017V55.0842V55.083Z" fill="#9B9B9B"/>
<path d="M986.095 57.7734V61.4096C986.596 60.4433 987.211 59.2748 987.576 58.6398L986.095 57.7734Z" fill="#8A8A8A"/>
<path d="M986.095 30.8685L987 30.3394C986.713 30.1036 986.411 29.888 986.095 29.6943V30.8685Z" fill="#8A8A8A"/>
<path d="M986.093 29.6951C985.396 29.2675 984.674 28.9681 983.875 28.698C983.327 28.5131 982.454 28.3771 981.673 28.2842L986.093 30.8708V29.6951Z" fill="#A8A8A8"/>
<path d="M981.495 33.5615L986.093 30.8718L981.671 28.2852C981.612 28.2782 981.553 28.2713 981.495 28.2656V33.5615Z" fill="#999999"/>
<path d="M981.496 33.559H981.495L981.496 33.5592V33.5598L986.093 36.2497V30.8691L981.496 33.5588V33.559Z" fill="#A8A8A8"/>
<path d="M981.495 38.9399L986.093 36.2502L981.495 33.5605V38.9399Z" fill="#999999"/>
<path d="M981.495 38.9408V38.9416L986.093 41.6313H986.093V36.251H986.093L981.495 38.9406V38.9408Z" fill="#A8A8A8"/>
<path d="M986.093 41.6311L981.495 38.9414V44.3207L986.093 41.6311Z" fill="#999999"/>
<path d="M981.496 44.3215L981.495 44.3219L981.495 44.3221L981.496 44.3217V44.3225L986.094 47.0122V41.632V41.6318H986.093L981.496 44.3215Z" fill="#A8A8A8"/>
<path d="M981.495 49.7006L986.093 47.011H986.093L981.495 44.3213V49.7006Z" fill="#999999"/>
<path d="M981.495 49.7006V49.7014L986.093 52.3911H986.093V47.0107L981.495 49.7006Z" fill="#A8A8A8"/>
<path d="M986.093 52.3918L981.495 49.7021V55.0817L986.093 52.3918Z" fill="#999999"/>
<path d="M981.496 55.0824H981.496L981.495 55.0828L981.496 55.0832V55.0834L986.094 57.7731V52.3928V52.3926H986.093L981.496 55.0824Z" fill="#A8A8A8"/>
<path d="M986.093 57.7746L981.495 55.085V60.4643L986.093 57.7746Z" fill="#999999"/>
<path d="M981.495 60.4631L985.403 62.7493C985.544 62.4736 985.799 61.9774 986.094 61.409V57.7734L981.495 60.4631Z" fill="#A8A8A8"/>
<path d="M981.498 33.561V28.2633C981.457 28.2586 981.417 28.2543 981.378 28.25L976.899 30.8699L981.497 33.5596L981.498 33.561Z" fill="#B8B8B8"/>
<path d="M981.498 33.5594L981.497 33.5592L981.497 33.559L976.899 30.8691V36.2497L981.498 33.5594Z" fill="#CFCFCF"/>
<path d="M981.498 38.9399V33.5605V33.5602V33.5596L976.899 36.2498L981.497 38.9395L981.498 38.9399H981.498Z" fill="#B8B8B8"/>
<path d="M981.498 44.3217V38.9424V38.9416V38.9414H981.498L981.497 38.9418L976.899 41.6315L981.498 44.3217Z" fill="#B8B8B8"/>
<path d="M981.497 44.3205L981.498 44.3201L976.899 41.6299V47.0104L981.497 44.3207L981.497 44.3205Z" fill="#E5E5E5"/>
<path d="M981.498 49.7006V49.7004V44.3211V44.3203L981.497 44.3207L981.497 44.3209L976.899 47.0106L981.498 49.7006Z" fill="#B8B8B8"/>
<path d="M981.498 49.7008L976.899 47.0107V52.3911L981.498 49.7008Z" fill="#CFCFCF"/>
<path d="M981.498 55.0817V49.7022V49.7014V49.7012L976.899 52.3914L981.497 55.0811L981.498 55.0817H981.498Z" fill="#B8B8B8"/>
<path d="M981.498 55.0828L981.497 55.0824L981.497 55.0822L976.899 52.3926V57.7731L981.498 55.0828Z" fill="#E5E5E5"/>
<path d="M981.498 60.4633V55.084V55.0832V55.083L976.899 57.7733L981.497 60.4629L981.498 60.4633H981.498Z" fill="#B8B8B8"/>
<path d="M976.858 36.3996L972.261 33.71V39.0893L976.858 36.3996Z" fill="#D6D6D6"/>
<path d="M976.859 36.4004L972.262 39.0901V39.0903V39.0901L972.261 39.0906L976.859 41.7807H976.859V36.4004Z" fill="#B4B4B4"/>
<path d="M972.262 44.469L976.859 47.1588V41.7785V41.7783H976.859L972.261 44.4686H972.261L972.262 44.4684V44.469Z" fill="#B4B4B4"/>
<path d="M972.262 49.8508L972.261 49.8512L976.859 52.5415V47.1611L972.262 49.8508V49.851V49.8508Z" fill="#B4B4B4"/>
<path d="M972.261 49.8506V55.2311L976.859 52.5408L972.261 49.8506Z" fill="#D6D6D6"/>
<path d="M972.26 33.7086V28.3281L967.661 31.0184L972.26 33.7086Z" fill="#E5E5E5"/>
<path d="M972.26 39.0885V39.0883V33.709V33.708L972.259 33.7086L967.661 36.3983L972.259 39.0879L972.26 39.0883V39.0885Z" fill="#E5E5E5"/>
<path d="M972.26 44.4697L972.259 44.4699L967.661 47.1598L972.26 49.85V49.8502V49.85V44.4703V44.4697Z" fill="#E5E5E5"/>
<path d="M963.062 39.0889V44.4694L967.66 41.7791L963.062 39.0889Z" fill="#D6D6D6"/>
</g>
<path d="M1000.29 42.1899C1000.27 42.1899 1000.25 42.2117 1000.26 42.2332L1003.92 54.2358C1003.93 54.2499 1003.94 54.2595 1003.96 54.2595H1006.09C1006.11 54.2595 1006.12 54.25 1006.13 54.236L1009.22 44.307L1012.33 54.2595L1016.04 42.1899L1013.31 51.0481L1012.33 54.2595L1009.22 44.307L1008.04 42.2562C1008.03 42.2309 1007.99 42.2351 1007.98 42.263L1005.08 51.5481C1005.07 51.5799 1005.03 51.5793 1005.02 51.5472L1002.39 42.2143C1002.38 42.1999 1002.37 42.1899 1002.35 42.1899H1000.29Z" fill="#9B9B9B"/>
<path d="M1006.96 42.1903C1006.93 42.1903 1006.92 42.2121 1006.92 42.2336L1010.59 54.2362C1010.6 54.2503 1010.61 54.2599 1010.62 54.2599H1012.76C1012.78 54.2599 1012.79 54.2504 1012.79 54.2364L1015.89 44.3073L1016.53 42.2333C1016.54 42.2117 1016.52 42.1899 1016.5 42.19L1014.69 42.1903C1014.68 42.1903 1014.67 42.1998 1014.66 42.2138L1011.75 51.5485C1011.74 51.5803 1011.7 51.5797 1011.69 51.5476L1009.05 42.2147C1009.05 42.2003 1009.04 42.1903 1009.02 42.1903H1006.96Z" fill="#9B9B9B"/>
<rect y="-1" width="46" height="92" fill="url(#paint0_linear_36_17644)"/>
<rect width="46" height="92" transform="matrix(-1 0 0 1 1009 -1)" fill="url(#paint1_linear_36_17644)"/>
</g>
<defs>
<linearGradient id="paint0_linear_36_17644" x1="46" y1="45" x2="-1.37091e-06" y2="45" gradientUnits="userSpaceOnUse">
<stop stop-color="#F6F6F6" stop-opacity="0"/>
<stop offset="0.76" stop-color="#F6F6F6"/>
</linearGradient>
<linearGradient id="paint1_linear_36_17644" x1="46" y1="46" x2="-1.37091e-06" y2="46" gradientUnits="userSpaceOnUse">
<stop stop-color="#F6F6F6" stop-opacity="0"/>
<stop offset="0.76" stop-color="#F6F6F6"/>
</linearGradient>
<clipPath id="clip0_36_17644">
<rect width="1009" height="91" fill="white"/>
</clipPath>
<clipPath id="clip1_36_17644">
<rect width="128.762" height="40" fill="white" transform="translate(587.952 25.5)"/>
</clipPath>
<clipPath id="clip2_36_17644">
<rect width="143" height="43" fill="white" transform="translate(766.714 24)"/>
</clipPath>
<clipPath id="clip3_36_17644">
<rect width="32.1553" height="34.4999" fill="white" transform="translate(963.063 28.25)"/>
</clipPath>
</defs>
</svg>
