<svg width="1009" height="91" viewBox="0 0 1009 91" fill="none" xmlns="http://www.w3.org/2000/svg">
<g clip-path="url(#clip0_36_19264)">
<rect width="1009" height="91" fill="#F6F6F6"/>
<path d="M-10 0H1019" stroke="#F6F6F6" stroke-width="3"/>
<path d="M-10 91H1019" stroke="#F6F6F6" stroke-width="3"/>
<g clip-path="url(#clip1_36_19264)">
<path d="M-3.24394 29.527H2.89749L2.6877 30.7775C2.39779 32.6442 1.61517 34.1236 0.339839 35.2159C-0.935493 36.3081 -2.48929 36.8542 -4.32155 36.8542C-6.22882 36.8542 -7.69107 36.2206 -8.70828 34.9534C-9.7255 33.6862 -10.0911 32.1193 -9.80497 30.2526C-9.53857 28.5035 -8.65835 26.9101 -7.32551 25.7641C-6.02014 24.6012 -4.33255 23.9735 -2.59355 24.0042C-1.51814 23.9825 -0.456167 24.2488 0.484794 24.776C1.35145 25.2714 2.05363 26.0154 2.50268 26.9142L-0.358232 28.458C-0.866838 27.5433 -1.71939 27.0859 -2.91588 27.0859C-3.82736 27.0785 -4.70976 27.4102 -5.39535 28.018C-6.09401 28.6442 -6.55529 29.4971 -6.69993 30.4301C-6.87285 31.4143 -6.71645 32.2351 -6.23073 32.8925C-5.74501 33.5499 -5.01453 33.8715 -4.03927 33.8573C-2.55414 33.8573 -1.5045 33.3176 -0.890357 32.2383H-3.70741L-3.24394 29.527Z" fill="#ACACAC"/>
<path d="M7.62948 36.5859H4.51489L6.65486 24.2646H9.07329L12.2394 30.706L13.3704 24.2646H16.4659L14.3259 36.5859H11.9266L8.76049 30.1445L7.62948 36.5859Z" fill="#ACACAC"/>
<path d="M28.9044 24.2646H32.2097L30.0697 36.5859H26.978L28.1224 29.9322L24.3078 34.8955H23.995L21.9237 29.8454L20.7584 36.5859H17.6438L19.7838 24.2646H22.8983L24.8819 29.581L28.9044 24.2646Z" fill="#ACACAC"/>
<path d="M43.2738 24.2646L42.7512 27.2036H38.1413L37.8285 28.9288H42.0455L41.5229 31.8234H37.3479L37.0351 33.6373H41.7327L41.2273 36.5936H33.4075L35.5474 24.2724L43.2738 24.2646Z" fill="#ACACAC"/>
<path d="M47.2056 36.5859H44.0911L46.231 24.2646H48.6495L51.8155 30.706L52.9466 24.2646H56.0421L53.904 36.5859H51.5027L48.3405 30.1387L47.2056 36.5859Z" fill="#ACACAC"/>
<path d="M58.5826 24.2646H67.7165L67.1768 27.3097H64.1843L62.5669 36.5859H59.4523L61.0697 27.3097H58.0676L58.5826 24.2646Z" fill="#ACACAC"/>
<path d="M-5.84595 51.2184L-4.27244 42.2529H1.81749L-2.39378 66.4806H-8.48181L-6.87397 57.1716H-13.6143L-15.2221 66.4806H-21.3445L-17.137 42.2529H-11.0128L-12.5863 51.2184H-5.84595Z" fill="#9B9B9B"/>
<path d="M25.3521 66.4806H18.8197L18.4382 62.9859H10.4677L8.82557 66.4806H2.08716L14.2003 42.2529H21.6577L25.3521 66.4806ZM16.9715 49.279L13.0025 57.656H17.8603L16.9715 49.279Z" fill="#9B9B9B"/>
<path d="M29.8391 66.4806L34.0351 42.2529H40.1575L35.95 66.4806H29.8391Z" fill="#9B9B9B"/>
<path d="M48.5787 66.4806H42.4563L46.6638 42.2529H51.4186L57.6439 54.9215L59.8678 42.2529H65.9578L61.7503 66.4806H57.0298L50.8025 53.8139L48.5787 66.4806Z" fill="#9B9B9B"/>
</g>
<g clip-path="url(#clip2_36_19264)">
<path d="M148.695 38.9403L150.633 37.8062C150.193 36.6869 149.296 34.6709 148.695 33.6621V38.9403Z" fill="#9B9B9B"/>
<path d="M148.695 38.9408L150.588 40.0486C150.775 39.5391 151.007 38.9108 150.862 38.4361C150.82 38.2977 150.74 38.0782 150.633 37.8057L148.695 38.9408Z" fill="#9B9B9B"/>
<path d="M148.695 44.3215L151.398 42.7398C151.312 42.6504 151.222 42.5605 151.125 42.4688C150.623 41.992 150.392 41.2117 150.392 40.7546C150.392 40.5896 150.483 40.3382 150.588 40.0491L148.695 38.9414V44.3215Z" fill="#9B9B9B"/>
<path d="M148.695 44.321L152.524 46.5612C152.757 46.4376 152.943 46.2384 153.052 45.9952C153.246 45.5751 153.281 45.308 153.108 44.931C152.914 44.5111 152.704 44.3527 152.366 43.8958C152.089 43.5215 151.789 43.1408 151.399 42.7383L148.695 44.32L148.695 44.321Z" fill="#9B9B9B"/>
<path d="M148.695 49.7006L151.725 47.9276C151.625 47.6502 151.542 47.4127 151.52 47.3243C151.464 47.0958 151.708 47.0196 151.877 46.8481C151.975 46.7482 152.249 46.7121 152.524 46.5614L148.695 44.3213L148.695 49.7006Z" fill="#9B9B9B"/>
<path d="M148.691 49.7L151.925 51.5921C152.014 51.4324 152.08 51.294 152.08 51.2449C152.08 51.1306 151.967 50.7305 151.798 50.559C151.677 50.4326 151.564 50.299 151.46 50.1589L151.89 49.8101C151.89 49.8101 152.265 49.4619 152.152 49.1189C152.083 48.9087 151.882 48.3665 151.722 47.9258L148.691 49.699L148.691 49.7Z" fill="#9B9B9B"/>
<path d="M148.695 55.0811L151.506 53.4367C151.392 53.1768 151.274 52.9499 151.238 52.8096C151.182 52.5809 151.389 52.4116 151.558 52.1825C151.692 51.9931 151.816 51.7964 151.929 51.5933L148.695 49.7012V55.0811Z" fill="#9B9B9B"/>
<path d="M148.695 55.0816L151.018 56.4407C151.036 56.4299 151.053 56.4191 151.069 56.4086C151.407 56.1801 151.689 55.7227 151.802 55.323C151.915 54.9232 151.802 54.4087 151.689 53.9513C151.643 53.7745 151.581 53.6019 151.506 53.4355L148.695 55.08V55.0816Z" fill="#9B9B9B"/>
<path d="M149.434 56.9254C149.864 56.9254 150.652 56.6659 151.017 56.4437L148.695 55.085V56.9017C149.01 56.9124 149.281 56.9254 149.434 56.9254Z" fill="#9B9B9B"/>
<path d="M148.595 33.502L148.584 33.4843C147.851 32.3423 146.105 31.2681 145.09 30.4118C145.06 30.3865 145.03 30.3645 145 30.3398L144.095 30.8689L148.595 33.502Z" fill="#9B9B9B"/>
<path d="M148.648 33.5859C148.63 33.5571 148.613 33.5292 148.596 33.5022L144.095 30.8691V36.2495L148.648 33.5859Z" fill="#8A8A8A"/>
<path d="M148.693 38.9408V33.6626C148.678 33.6371 148.662 33.6112 148.647 33.5869L144.095 36.2505L148.693 38.9408Z" fill="#9B9B9B"/>
<path d="M148.693 38.9412L144.095 36.251H144.095V36.2512V41.6313H144.095L148.693 38.9412Z" fill="#8A8A8A"/>
<path d="M148.693 38.9414L144.095 41.6315L148.693 44.3217V38.9424V38.9416V38.9414H148.693Z" fill="#9B9B9B"/>
<path d="M148.693 44.3205L148.693 44.3201H148.693L144.095 41.6299H144.095V41.6301V47.0104L148.692 44.3207L148.693 44.3205Z" fill="#8A8A8A"/>
<path d="M148.693 44.3211V44.3203L148.693 44.3207L148.692 44.3209L144.095 47.0106L148.693 49.7006H148.693V49.7004V44.3211Z" fill="#9B9B9B"/>
<path d="M148.693 49.7008L144.095 47.0107H144.095V52.3911L148.693 49.7008Z" fill="#8A8A8A"/>
<path d="M144.095 52.3914H144.095L148.692 55.0811L148.693 55.0817H148.693V49.7022V49.7014V49.7012H148.693L144.095 52.3914Z" fill="#9B9B9B"/>
<path d="M148.693 55.0828L148.693 55.0824L148.692 55.0822L144.095 52.3926V57.7729H144.095L148.693 55.0828Z" fill="#8A8A8A"/>
<path d="M148.693 55.083L144.095 57.7731L145.576 58.6396C145.714 58.4001 145.832 58.2477 145.863 58.1889C146.054 57.835 146.269 57.147 146.838 56.9826C147.282 56.8544 148.077 56.8809 148.693 56.9017V55.0842V55.083Z" fill="#9B9B9B"/>
<path d="M144.095 57.7734V61.4096C144.596 60.4433 145.211 59.2748 145.576 58.6398L144.095 57.7734Z" fill="#8A8A8A"/>
<path d="M144.095 30.8685L145 30.3394C144.713 30.1036 144.411 29.888 144.095 29.6943V30.8685Z" fill="#8A8A8A"/>
<path d="M144.093 29.6951C143.396 29.2675 142.675 28.9681 141.875 28.698C141.327 28.5131 140.454 28.3771 139.673 28.2842L144.093 30.8708V29.6951Z" fill="#A8A8A8"/>
<path d="M139.495 33.5615L144.093 30.8718L139.672 28.2852C139.612 28.2782 139.553 28.2713 139.495 28.2656V33.5615Z" fill="#999999"/>
<path d="M139.496 33.559H139.495L139.496 33.5592V33.5598L144.093 36.2497V30.8691L139.496 33.5588V33.559Z" fill="#A8A8A8"/>
<path d="M139.495 38.9399L144.093 36.2502L139.495 33.5605V38.9399Z" fill="#999999"/>
<path d="M139.495 38.9408V38.9416L144.093 41.6313H144.093V36.251H144.093L139.495 38.9406V38.9408Z" fill="#A8A8A8"/>
<path d="M144.093 41.6311L139.495 38.9414V44.3207L144.093 41.6311Z" fill="#999999"/>
<path d="M139.496 44.3215L139.495 44.3219L139.496 44.3221L139.496 44.3217V44.3225L144.094 47.0122V41.632V41.6318H144.094L139.496 44.3215Z" fill="#A8A8A8"/>
<path d="M139.495 49.7006L144.093 47.011H144.093L139.495 44.3213V49.7006Z" fill="#999999"/>
<path d="M139.495 49.7006V49.7014L144.093 52.3911H144.093V47.0107L139.495 49.7006Z" fill="#A8A8A8"/>
<path d="M144.093 52.3918L139.495 49.7021V55.0817L144.093 52.3918Z" fill="#999999"/>
<path d="M139.496 55.0824H139.496L139.496 55.0828L139.496 55.0832V55.0834L144.094 57.7731V52.3928V52.3926H144.094L139.496 55.0824Z" fill="#A8A8A8"/>
<path d="M144.093 57.7746L139.495 55.085V60.4643L144.093 57.7746Z" fill="#999999"/>
<path d="M139.495 60.4631L143.403 62.7493C143.544 62.4736 143.799 61.9774 144.094 61.409V57.7734L139.495 60.4631Z" fill="#A8A8A8"/>
<path d="M139.498 33.561V28.2633C139.458 28.2586 139.418 28.2543 139.378 28.25L134.9 30.8699L139.497 33.5596L139.498 33.561Z" fill="#B8B8B8"/>
<path d="M139.498 33.5594L139.498 33.5592L139.497 33.559L134.9 30.8691V36.2497L139.498 33.5594Z" fill="#CFCFCF"/>
<path d="M139.498 38.9399V33.5605V33.5602V33.5596L134.9 36.2498L139.497 38.9395L139.498 38.9399H139.498Z" fill="#B8B8B8"/>
<path d="M139.498 44.3217V38.9424V38.9416V38.9414H139.498L139.497 38.9418L134.9 41.6315L139.498 44.3217Z" fill="#B8B8B8"/>
<path d="M139.497 44.3205L139.498 44.3201L134.9 41.6299V47.0104L139.497 44.3207L139.497 44.3205Z" fill="#E5E5E5"/>
<path d="M139.498 49.7006V49.7004V44.3211V44.3203L139.497 44.3207L139.497 44.3209L134.9 47.0106L139.498 49.7006Z" fill="#B8B8B8"/>
<path d="M139.498 49.7008L134.9 47.0107V52.3911L139.498 49.7008Z" fill="#CFCFCF"/>
<path d="M139.498 55.0817V49.7022V49.7014V49.7012L134.9 52.3914L139.497 55.0811L139.498 55.0817H139.498Z" fill="#B8B8B8"/>
<path d="M139.498 55.0828L139.497 55.0824L139.497 55.0822L134.9 52.3926V57.7731L139.498 55.0828Z" fill="#E5E5E5"/>
<path d="M139.498 60.4633V55.084V55.0832V55.083L134.9 57.7733L139.497 60.4629L139.498 60.4633H139.498Z" fill="#B8B8B8"/>
<path d="M134.859 36.3996L130.261 33.71V39.0893L134.859 36.3996Z" fill="#D6D6D6"/>
<path d="M134.859 36.4004L130.262 39.0901V39.0903V39.0901L130.261 39.0906L134.859 41.7807H134.859V36.4004Z" fill="#B4B4B4"/>
<path d="M130.262 44.469L134.859 47.1588V41.7785V41.7783H134.859L130.261 44.4686H130.261L130.262 44.4684V44.469Z" fill="#B4B4B4"/>
<path d="M130.262 49.8508L130.261 49.8512L134.859 52.5415V47.1611L130.262 49.8508V49.851V49.8508Z" fill="#B4B4B4"/>
<path d="M130.261 49.8506V55.2311L134.859 52.5408L130.261 49.8506Z" fill="#D6D6D6"/>
<path d="M130.26 33.7086V28.3281L125.661 31.0184L130.26 33.7086Z" fill="#E5E5E5"/>
<path d="M130.26 39.0885V39.0883V33.709V33.708L130.259 33.7086L125.662 36.3983L130.259 39.0879L130.26 39.0883V39.0885Z" fill="#E5E5E5"/>
<path d="M130.26 44.4697L130.259 44.4699L125.661 47.1598L130.26 49.85V49.8502V49.85V44.4703V44.4697Z" fill="#E5E5E5"/>
<path d="M121.062 39.0889V44.4694L125.66 41.7791L121.062 39.0889Z" fill="#D6D6D6"/>
</g>
<path d="M158.288 42.1899C158.266 42.1899 158.25 42.2117 158.256 42.2332L161.925 54.2358C161.929 54.2499 161.942 54.2595 161.957 54.2595H164.095C164.11 54.2595 164.123 54.25 164.127 54.236L167.223 44.307L170.327 54.2595L174.041 42.1899L171.315 51.0481L170.327 54.2595L167.223 44.307L166.041 42.2562C166.026 42.2309 165.988 42.2351 165.98 42.263L163.085 51.5481C163.075 51.5799 163.03 51.5793 163.021 51.5472L160.387 42.2143C160.383 42.1999 160.37 42.1899 160.355 42.1899H158.288Z" fill="#9B9B9B"/>
<path d="M164.956 42.1903C164.934 42.1903 164.918 42.2121 164.924 42.2336L168.593 54.2362C168.597 54.2503 168.61 54.2599 168.625 54.2599H170.763C170.778 54.2599 170.791 54.2504 170.795 54.2364L173.891 44.3073L174.529 42.2333C174.536 42.2117 174.52 42.1899 174.497 42.19L172.695 42.1903C172.68 42.1903 172.667 42.1998 172.663 42.2138L169.753 51.5485C169.743 51.5803 169.698 51.5797 169.689 51.5476L167.055 42.2147C167.051 42.2003 167.038 42.1903 167.023 42.1903H164.956Z" fill="#9B9B9B"/>
<path d="M176.566 39.1245C176.842 39.384 177.183 39.5138 177.588 39.5138C177.978 39.5138 178.31 39.384 178.586 39.1245C178.862 38.8487 179 38.508 179 38.1024C179 37.7131 178.862 37.3886 178.586 37.1291C178.31 36.8695 177.978 36.7397 177.588 36.7397C177.183 36.7397 176.842 36.8695 176.566 37.1291C176.307 37.3886 176.177 37.7131 176.177 38.1024C176.177 38.508 176.307 38.8487 176.566 39.1245Z" fill="#9B9B9B"/>
<path d="M176.566 42.224V54.2266C176.566 54.2451 176.581 54.2601 176.6 54.2601H178.577C178.595 54.2601 178.61 54.2451 178.61 54.2266V42.224C178.61 42.2055 178.595 42.1905 178.577 42.1905H176.6C176.581 42.1905 176.566 42.2055 176.566 42.224Z" fill="#9B9B9B"/>
<path d="M180.633 42.2239V54.2265C180.633 54.245 180.648 54.26 180.667 54.26H182.644C182.662 54.26 182.677 54.245 182.677 54.2265V48.0063C182.677 46.6111 183.018 45.5404 183.699 44.7942C184.397 44.0317 185.265 43.6505 186.303 43.6505C188.379 43.6505 189.418 44.9077 189.418 47.4222V54.2265C189.418 54.245 189.433 54.26 189.451 54.26H191.428C191.447 54.26 191.462 54.245 191.462 54.2265V47.2032C191.462 45.4025 191.032 44.0723 190.172 43.2125C189.328 42.3364 188.193 41.8984 186.765 41.8984C185.841 41.8984 185.013 42.1174 184.283 42.5554C183.588 42.9722 183.048 43.5359 182.662 44.2465C182.646 44.2766 182.599 44.2666 182.597 44.2325L182.484 42.2221C182.483 42.2043 182.469 42.1904 182.451 42.1904H180.667C180.648 42.1904 180.633 42.2054 180.633 42.2239Z" fill="#9B9B9B"/>
<path d="M193.095 42.2239V54.2265C193.095 54.245 193.11 54.26 193.128 54.26H195.105C195.124 54.26 195.139 54.245 195.139 54.2265V48.0063C195.139 46.6111 195.479 45.5404 196.161 44.7942C196.858 44.0317 197.726 43.6505 198.764 43.6505C200.841 43.6505 201.879 44.9077 201.879 47.4222V54.2265C201.879 54.245 201.894 54.26 201.913 54.26H203.89C203.908 54.26 203.923 54.245 203.923 54.2265V47.2032C203.923 45.4025 203.493 44.0723 202.634 43.2125C201.79 42.3364 200.654 41.8984 199.227 41.8984C198.302 41.8984 197.475 42.1174 196.745 42.5554C196.05 42.9722 195.51 43.5359 195.124 44.2465C195.107 44.2766 195.061 44.2666 195.059 44.2325L194.946 42.2221C194.945 42.2043 194.93 42.1904 194.912 42.1904H193.128C193.11 42.1904 193.095 42.2054 193.095 42.2239Z" fill="#9B9B9B"/>
<path d="M211.568 54.2606C210.433 54.2606 209.41 54.001 208.502 53.4818C207.594 52.9627 206.872 52.2327 206.336 51.2918C205.817 50.3346 205.558 49.2153 205.558 47.9337C205.558 46.6521 205.825 45.5409 206.361 44.6C206.896 43.6429 207.618 42.9047 208.526 42.3856C209.451 41.8665 210.481 41.6069 211.617 41.6069C212.752 41.6069 213.774 41.8665 214.683 42.3856C215.591 42.9047 216.305 43.6429 216.824 44.6C217.36 45.5409 217.627 46.6521 217.627 47.9337C217.627 49.2153 217.36 50.3346 216.824 51.2918C216.289 52.2327 215.559 52.9627 214.634 53.4818C213.726 54.001 212.704 54.2606 211.568 54.2606ZM211.568 52.5085C212.266 52.5085 212.915 52.3381 213.515 51.9975C214.115 51.6568 214.602 51.1458 214.975 50.4645C215.348 49.7831 215.535 48.9395 215.535 47.9337C215.535 46.9279 215.348 46.0844 214.975 45.403C214.618 44.7216 214.139 44.2106 213.539 43.87C212.939 43.5293 212.298 43.359 211.617 43.359C210.919 43.359 210.27 43.5293 209.67 43.87C209.07 44.2106 208.583 44.7216 208.21 45.403C207.837 46.0844 207.65 46.9279 207.65 47.9337C207.65 48.9395 207.837 49.7831 208.21 50.4645C208.583 51.1458 209.062 51.6568 209.646 51.9975C210.246 52.3381 210.887 52.5085 211.568 52.5085Z" fill="#9B9B9B"/>
<path d="M219.306 42.1899C219.283 42.1899 219.267 42.2117 219.274 42.2332L222.942 54.2358C222.947 54.2499 222.96 54.2595 222.974 54.2595H225.113C225.127 54.2595 225.14 54.25 225.145 54.236L228.241 44.307L231.345 54.2595L235.059 42.1899L232.333 51.0481L231.345 54.2595L228.241 44.307L227.058 42.2562C227.044 42.2309 227.006 42.2351 226.997 42.263L224.102 51.5481C224.093 51.5799 224.047 51.5793 224.038 51.5472L221.405 42.2143C221.401 42.1999 221.387 42.1899 221.372 42.1899H219.306Z" fill="#9B9B9B"/>
<path d="M225.974 42.1903C225.951 42.1903 225.935 42.2121 225.942 42.2336L229.61 54.2362C229.615 54.2503 229.628 54.2599 229.642 54.2599H231.781C231.795 54.2599 231.808 54.2504 231.813 54.2364L234.909 44.3073L235.547 42.2333C235.553 42.2117 235.537 42.1899 235.515 42.19L233.713 42.1903C233.698 42.1903 233.685 42.1998 233.681 42.2138L230.77 51.5485C230.761 51.5803 230.715 51.5797 230.706 51.5476L228.073 42.2147C228.068 42.2003 228.055 42.1903 228.04 42.1903H225.974Z" fill="#9B9B9B"/>
<path d="M237.909 54.2606C237.891 54.2606 237.876 54.2456 237.876 54.2271V51.4375C237.876 51.419 237.861 51.404 237.842 51.404H236.933C236.915 51.404 236.9 51.389 236.9 51.3705V50.9446C236.9 50.9261 236.915 50.9111 236.933 50.9111H239.436C239.454 50.9111 239.469 50.9261 239.469 50.9446V51.3705C239.469 51.389 239.454 51.404 239.436 51.404H238.522C238.503 51.404 238.488 51.419 238.488 51.4375V54.2271C238.488 54.2456 238.473 54.2606 238.455 54.2606H237.909ZM239.956 54.2606C239.938 54.2606 239.923 54.2456 239.923 54.2271V50.9446C239.923 50.9261 239.938 50.9111 239.956 50.9111H240.63C240.642 50.9111 240.654 50.9183 240.66 50.9296L241.687 52.9757C241.7 53.0004 241.735 53.0003 241.747 52.9755L242.761 50.9298C242.766 50.9183 242.778 50.9111 242.791 50.9111H243.464C243.482 50.9111 243.497 50.9261 243.497 50.9446V54.2271C243.497 54.2456 243.482 54.2606 243.464 54.2606H242.918C242.9 54.2606 242.885 54.2456 242.885 54.2271V52.0891C242.885 52.0539 242.837 52.0425 242.822 52.0739L241.961 53.7638C241.955 53.7751 241.944 53.7821 241.931 53.7821H241.489C241.476 53.7821 241.465 53.7751 241.459 53.7638L240.599 52.0739C240.583 52.0425 240.535 52.0539 240.535 52.0891V54.2271C240.535 54.2456 240.52 54.2606 240.502 54.2606H239.956Z" fill="#9B9B9B"/>
<path d="M310.385 59.7113L341.935 25.9316L347.407 31.3413L316.472 65.492L310.385 59.7113Z" fill="#EEEEEE" stroke="#CFCFCF" stroke-width="0.211553" stroke-miterlimit="10"/>
<path d="M342.081 28.0484L345.714 31.416L316.219 63.2342L312.368 59.9941L342.081 28.0484ZM341.971 25.085L309.329 60.179L316.398 66.1262L348.678 31.3025L341.971 25.085Z" fill="#9B9B9B"/>
<path d="M342.25 27.5687L346.251 31.3902L335.029 43.576L333.315 45.438L335.217 47.1096L347.3 57.7353L343.966 61.546L331.4 50.6587L329.563 49.0676L327.934 50.8708L316.548 63.4652L312.487 59.7583L323.774 47.8743L325.499 46.0571L323.66 44.3546L311.155 32.7693L314.579 29.1382L326.745 40.7637L328.579 42.5173L330.292 40.646L342.252 27.5703M342.131 24.0273L328.46 38.9744L314.488 25.6216L307.636 32.8854L321.974 46.1686L308.949 59.8821L316.717 66.9725L329.776 52.5285L344.208 65.0347L350.793 57.5078L336.855 45.2507L349.723 31.2772L342.131 24.0273Z" fill="#9B9B9B"/>
<path d="M328.47 27.5983C328.496 27.5983 328.524 27.5983 328.55 27.5999C328.997 27.6203 329.409 27.8198 329.711 28.1575C330.012 28.4953 330.167 28.9351 330.146 29.3938C330.104 30.3127 329.371 31.0322 328.476 31.0322C328.45 31.0322 328.423 31.0322 328.397 31.0306C327.475 30.9866 326.758 30.1823 326.801 29.2367C326.843 28.3177 327.576 27.5983 328.47 27.5983ZM328.47 25.085C326.279 25.085 324.455 26.8537 324.353 29.122C324.248 31.4563 326.008 33.4355 328.284 33.5424C328.348 33.5455 328.412 33.5471 328.476 33.5471C330.668 33.5471 332.492 31.7783 332.594 29.51C332.698 27.1757 330.939 25.1965 328.663 25.0897C328.599 25.0865 328.535 25.085 328.47 25.085Z" fill="#9B9B9B"/>
<path d="M330.163 60.8108C330.183 60.8108 330.202 60.8108 330.224 60.8108C330.918 60.8437 331.457 61.4513 331.425 62.1641C331.394 62.858 330.842 63.4012 330.169 63.4012C330.149 63.4012 330.129 63.4012 330.108 63.4012C329.413 63.3682 328.875 62.7607 328.907 62.0479C328.937 61.354 329.49 60.8108 330.163 60.8108ZM330.163 58.2988C328.197 58.2988 326.559 59.8908 326.468 61.9317C326.374 64.0323 327.953 65.8142 329.996 65.91C330.054 65.9132 330.112 65.9147 330.169 65.9147C332.135 65.9147 333.772 64.3228 333.864 62.2818C333.957 60.1812 332.379 58.3993 330.335 58.3035C330.277 58.3004 330.219 58.2988 330.163 58.2988Z" fill="#9B9B9B"/>
<path d="M304.463 40.3167C305.281 40.3167 305.944 39.6537 305.944 38.8358C305.944 38.018 305.281 37.355 304.463 37.355C303.645 37.355 302.982 38.018 302.982 38.8358C302.982 39.6537 303.645 40.3167 304.463 40.3167Z" fill="#9B9B9B"/>
<path d="M353.331 37.3553C354.149 37.3553 354.812 36.6923 354.812 35.8744C354.812 35.0566 354.149 34.3936 353.331 34.3936C352.513 34.3936 351.85 35.0566 351.85 35.8744C351.85 36.6923 352.513 37.3553 353.331 37.3553Z" fill="#ABABAB"/>
<path d="M354.601 53.6448C355.419 53.6448 356.082 52.9818 356.082 52.164C356.082 51.3461 355.419 50.6831 354.601 50.6831C353.783 50.6831 353.12 51.3461 353.12 52.164C353.12 52.9818 353.783 53.6448 354.601 53.6448Z" fill="#ABABAB"/>
<path d="M349.1 51.9521C349.568 51.9521 349.947 51.6206 349.947 51.2116C349.947 50.8027 349.568 50.4712 349.1 50.4712C348.633 50.4712 348.254 50.8027 348.254 51.2116C348.254 51.6206 348.633 51.9521 349.1 51.9521Z" fill="#9B9B9B"/>
<path d="M359.255 51.9523C359.839 51.9523 360.313 51.5261 360.313 51.0003C360.313 50.4746 359.839 50.0483 359.255 50.0483C358.671 50.0483 358.197 50.4746 358.197 51.0003C358.197 51.5261 358.671 51.9523 359.255 51.9523Z" fill="#9B9B9B"/>
<path d="M355.659 61.8953C356.243 61.8953 356.717 61.4217 356.717 60.8375C356.717 60.2534 356.243 59.7798 355.659 59.7798C355.075 59.7798 354.601 60.2534 354.601 60.8375C354.601 61.4217 355.075 61.8953 355.659 61.8953Z" fill="#9B9B9B"/>
<path d="M358.62 36.9322C359.321 36.9322 359.889 36.3639 359.889 35.6629C359.889 34.9618 359.321 34.3936 358.62 34.3936C357.919 34.3936 357.35 34.9618 357.35 35.6629C357.35 36.3639 357.919 36.9322 358.62 36.9322Z" fill="#9B9B9B"/>
<path d="M305.203 56.6063C306.079 56.6063 306.79 55.9433 306.79 55.1254C306.79 54.3075 306.079 53.6445 305.203 53.6445C304.327 53.6445 303.616 54.3075 303.616 55.1254C303.616 55.9433 304.327 56.6063 305.203 56.6063Z" fill="#9B9B9B"/>
<path d="M300.126 55.5485C300.652 55.5485 301.078 55.1223 301.078 54.5965C301.078 54.0707 300.652 53.6445 300.126 53.6445C299.6 53.6445 299.174 54.0707 299.174 54.5965C299.174 55.1223 299.6 55.5485 300.126 55.5485Z" fill="#9B9B9B"/>
<path d="M304.992 64.6457C305.517 64.6457 305.944 64.2195 305.944 63.6937C305.944 63.1679 305.517 62.7417 304.992 62.7417C304.466 62.7417 304.04 63.1679 304.04 63.6937C304.04 64.2195 304.466 64.6457 304.992 64.6457Z" fill="#9B9B9B"/>
<path d="M297.904 42.28L297.829 43.919C297.825 44.0061 297.892 44.0799 297.979 44.0839L312.737 44.7617C312.824 44.7657 312.898 44.6984 312.902 44.6113L312.977 42.9723C312.981 42.8852 312.914 42.8114 312.827 42.8074L298.069 42.1295C297.982 42.1255 297.908 42.1929 297.904 42.28Z" fill="#9B9B9B"/>
<path d="M305.718 45.7848L305.642 47.4439C305.638 47.531 305.705 47.6048 305.792 47.6088L316.809 48.1148C316.897 48.1188 316.97 48.0515 316.974 47.9644L317.051 46.3053C317.055 46.2182 316.987 46.1444 316.9 46.1404L305.883 45.6344C305.796 45.6304 305.722 45.6977 305.718 45.7848Z" fill="#9B9B9B"/>
<path d="M297.715 46.4168L297.636 48.147C297.631 48.2392 297.703 48.3174 297.795 48.3216L303.878 48.601C303.97 48.6053 304.048 48.5339 304.053 48.4417L304.132 46.7116C304.136 46.6193 304.065 46.5411 303.973 46.5369L297.89 46.2575C297.798 46.2533 297.719 46.3246 297.715 46.4168Z" fill="#9B9B9B"/>
<path d="M296.928 49.8296L296.852 51.4917C296.849 51.5532 296.897 51.6053 296.958 51.6081L313.155 52.3521C313.217 52.3549 313.269 52.3074 313.272 52.2459L313.348 50.5838C313.351 50.5223 313.303 50.4701 313.242 50.4673L297.045 49.7234C296.983 49.7205 296.931 49.7681 296.928 49.8296Z" fill="#9B9B9B"/>
<path d="M344.8 39.2059L344.713 41.0953C344.71 41.1611 344.761 41.2168 344.826 41.2198L362.443 42.029C362.509 42.032 362.565 41.9811 362.568 41.9154L362.654 40.026C362.657 39.9602 362.607 39.9045 362.541 39.9015L344.924 39.0923C344.858 39.0893 344.803 39.1401 344.8 39.2059Z" fill="#ABABAB"/>
<path d="M341.552 43.3714L341.479 44.9578C341.475 45.0372 341.537 45.1045 341.616 45.1082L353.801 45.6678C353.88 45.6715 353.947 45.6101 353.951 45.5306L354.024 43.9443C354.028 43.8649 353.966 43.7975 353.887 43.7939L341.702 43.2342C341.623 43.2306 341.555 43.292 341.552 43.3714Z" fill="#9B9B9B"/>
<path d="M356.412 42.8584L356.327 44.6952C356.323 44.7781 356.387 44.8483 356.47 44.8521L364.245 45.2092C364.328 45.213 364.398 45.1489 364.402 45.0661L364.486 43.2293C364.49 43.1464 364.426 43.0762 364.343 43.0724L356.568 42.7153C356.486 42.7115 356.415 42.7756 356.412 42.8584Z" fill="#ABABAB"/>
<path d="M345.512 47.2065L345.436 48.8687C345.433 48.9301 345.48 48.9823 345.542 48.9851L352.138 49.2881C352.2 49.2909 352.252 49.2433 352.255 49.1819L352.331 47.5197C352.334 47.4583 352.286 47.4061 352.225 47.4033L345.628 47.1003C345.567 47.0975 345.515 47.145 345.512 47.2065Z" fill="#ABABAB"/>
<path d="M353.915 46.28L353.824 48.2715C353.82 48.3535 353.884 48.423 353.966 48.4267L363.09 48.8458C363.172 48.8496 363.242 48.7862 363.245 48.7042L363.337 46.7128C363.341 46.6308 363.277 46.5613 363.195 46.5575L354.071 46.1384C353.989 46.1346 353.919 46.1981 353.915 46.28Z" fill="#ABABAB"/>
<path d="M383.331 32.6108C383 32.2076 382.594 31.9006 382.113 31.6847C381.632 31.4687 381.075 31.3621 380.443 31.3621C379.811 31.3621 379.225 31.4843 378.687 31.7289C378.148 31.9734 377.68 32.3142 377.284 32.7539C376.889 33.1935 376.579 33.7138 376.358 34.3174C376.134 34.9209 376.025 35.5739 376.025 36.2789C376.025 36.9839 376.137 37.6551 376.358 38.2509C376.582 38.8466 376.886 39.3643 377.274 39.8014C377.662 40.241 378.117 40.5818 378.642 40.8264C379.168 41.0709 379.73 41.1932 380.333 41.1932C381.023 41.1932 381.634 41.0501 382.165 40.7613C382.696 40.4752 383.136 40.0719 383.479 39.5542L386.281 41.6459C385.633 42.5512 384.816 43.2198 383.825 43.6516C382.834 44.0835 381.814 44.2994 380.765 44.2994C379.571 44.2994 378.473 44.1121 377.466 43.7401C376.46 43.3654 375.591 42.8321 374.86 42.1349C374.126 41.4377 373.556 40.5948 373.145 39.6011C372.737 38.6099 372.531 37.5042 372.531 36.2815C372.531 35.0588 372.737 33.9532 373.145 32.962C373.553 31.9708 374.126 31.1253 374.86 30.4281C375.593 29.7309 376.462 29.195 377.466 28.823C378.473 28.4484 379.571 28.2637 380.765 28.2637C381.197 28.2637 381.645 28.3027 382.113 28.3833C382.579 28.4614 383.039 28.5889 383.492 28.7606C383.945 28.9323 384.379 29.1638 384.795 29.45C385.212 29.7387 385.586 30.0899 385.917 30.5062L383.331 32.6186V32.6108Z" fill="#9B9B9B"/>
<path d="M388.331 28.6465H394.237C395.012 28.6465 395.748 28.7219 396.445 28.8728C397.143 29.0237 397.754 29.276 398.277 29.6273C398.803 29.9785 399.219 30.4545 399.528 31.0503C399.838 31.646 399.992 32.3901 399.992 33.2824C399.992 34.3594 399.711 35.2751 399.151 36.0296C398.592 36.784 397.772 37.2627 396.695 37.463L400.574 43.907H396.544L393.355 37.8064H391.695V43.907H388.333V28.6465H388.331ZM391.692 34.9604H393.675C393.976 34.9604 394.296 34.9499 394.635 34.9291C394.973 34.9083 395.277 34.8433 395.551 34.734C395.824 34.6274 396.05 34.4583 396.23 34.2267C396.409 33.9978 396.5 33.6752 396.5 33.2564C396.5 32.8687 396.422 32.5592 396.263 32.3302C396.105 32.1013 395.904 31.9244 395.66 31.8021C395.415 31.6798 395.134 31.5966 394.819 31.555C394.502 31.5107 394.195 31.4899 393.893 31.4899H391.695V34.9604H391.692Z" fill="#9B9B9B"/>
<path d="M401.696 36.2767C401.696 35.0565 401.901 33.9483 402.31 32.9571C402.718 31.9659 403.291 31.1205 404.024 30.4232C404.758 29.726 405.627 29.1901 406.631 28.8181C407.638 28.4435 408.736 28.2588 409.93 28.2588C411.124 28.2588 412.222 28.4461 413.229 28.8181C414.236 29.1927 415.105 29.726 415.836 30.4232C416.57 31.1205 417.139 31.9633 417.551 32.9571C417.962 33.9509 418.165 35.0539 418.165 36.2767C418.165 37.4994 417.959 38.605 417.551 39.5962C417.142 40.5874 416.57 41.4328 415.836 42.1301C415.102 42.8273 414.233 43.3632 413.229 43.7352C412.222 44.1098 411.124 44.2945 409.93 44.2945C408.736 44.2945 407.638 44.1072 406.631 43.7352C405.624 43.3606 404.755 42.8273 404.024 42.1301C403.291 41.4328 402.721 40.59 402.31 39.5962C401.901 38.605 401.696 37.4994 401.696 36.2767ZM405.187 36.2767C405.187 36.9947 405.299 37.6529 405.52 38.2486C405.744 38.8443 406.061 39.362 406.48 39.7991C406.897 40.2388 407.396 40.5796 407.979 40.8241C408.562 41.0686 409.212 41.1909 409.93 41.1909C410.648 41.1909 411.299 41.0686 411.881 40.8241C412.464 40.5796 412.964 40.2388 413.38 39.7991C413.796 39.362 414.116 38.8443 414.34 38.2486C414.564 37.6529 414.673 36.9947 414.673 36.2767C414.673 35.5586 414.561 34.9187 414.34 34.3151C414.116 33.7116 413.796 33.1913 413.38 32.7516C412.964 32.3146 412.464 31.9712 411.881 31.7266C411.299 31.4821 410.648 31.3598 409.93 31.3598C409.212 31.3598 408.562 31.4821 407.979 31.7266C407.396 31.9712 406.897 32.3119 406.48 32.7516C406.064 33.1913 405.744 33.7116 405.52 34.3151C405.297 34.9187 405.187 35.5716 405.187 36.2767Z" fill="#9B9B9B"/>
<path d="M428.207 32.3741C427.934 32.0281 427.565 31.7731 427.096 31.6092C426.628 31.4453 426.188 31.3621 425.769 31.3621C425.525 31.3621 425.273 31.3907 425.015 31.4479C424.757 31.5052 424.513 31.5962 424.281 31.7185C424.052 31.8408 423.865 32.002 423.722 32.2024C423.579 32.4027 423.506 32.6472 423.506 32.936C423.506 33.3965 423.678 33.7477 424.024 33.9922C424.37 34.2367 424.804 34.4449 425.327 34.6166C425.853 34.7883 426.415 34.9626 427.018 35.1343C427.622 35.306 428.186 35.5505 428.709 35.8679C429.235 36.1853 429.669 36.6093 430.013 37.14C430.359 37.6707 430.531 38.3836 430.531 39.2733C430.531 40.163 430.372 40.8602 430.057 41.4924C429.74 42.1245 429.313 42.65 428.774 43.0663C428.236 43.4825 427.611 43.7921 426.899 43.9924C426.188 44.1927 425.436 44.2942 424.646 44.2942C423.654 44.2942 422.733 44.1433 421.888 43.8415C421.04 43.5398 420.249 43.0507 419.518 42.3769L421.911 39.7467C422.257 40.2072 422.692 40.5636 423.215 40.8134C423.74 41.0657 424.281 41.1906 424.841 41.1906C425.114 41.1906 425.39 41.1594 425.671 41.0943C425.952 41.0293 426.201 40.933 426.425 40.803C426.649 40.6729 426.828 40.509 426.964 40.3061C427.099 40.1057 427.169 39.869 427.169 39.5959C427.169 39.1354 426.992 38.7738 426.641 38.5084C426.29 38.2431 425.847 38.0167 425.314 37.8294C424.783 37.6421 424.208 37.4548 423.589 37.2701C422.97 37.0828 422.395 36.8331 421.864 36.5157C421.334 36.2009 420.891 35.782 420.537 35.2669C420.186 34.7492 420.009 34.0676 420.009 33.2195C420.009 32.3715 420.171 31.6821 420.493 31.0629C420.816 30.4463 421.248 29.9286 421.786 29.5124C422.325 29.0962 422.947 28.784 423.652 28.5758C424.357 28.3677 425.083 28.2637 425.829 28.2637C426.69 28.2637 427.526 28.3859 428.33 28.6305C429.133 28.875 429.859 29.2835 430.507 29.8584L428.199 32.3793L428.207 32.3741Z" fill="#9B9B9B"/>
<path d="M440.794 32.3741C440.521 32.0281 440.152 31.7731 439.683 31.6092C439.215 31.4453 438.775 31.3621 438.357 31.3621C438.112 31.3621 437.86 31.3907 437.602 31.4479C437.344 31.5052 437.1 31.5962 436.868 31.7185C436.639 31.8408 436.452 32.002 436.309 32.2024C436.166 32.4027 436.093 32.6472 436.093 32.936C436.093 33.3965 436.265 33.7477 436.611 33.9922C436.957 34.2367 437.391 34.4449 437.914 34.6166C438.44 34.7883 439.002 34.9626 439.605 35.1343C440.209 35.306 440.773 35.5505 441.296 35.8679C441.822 36.1853 442.256 36.6093 442.6 37.14C442.946 37.6707 443.118 38.3836 443.118 39.2733C443.118 40.163 442.959 40.8602 442.644 41.4924C442.327 42.1245 441.9 42.65 441.361 43.0663C440.823 43.4825 440.199 43.7921 439.486 43.9924C438.775 44.1927 438.024 44.2942 437.233 44.2942C436.241 44.2942 435.32 44.1433 434.472 43.8415C433.624 43.5398 432.833 43.0507 432.102 42.3769L434.496 39.7467C434.842 40.2072 435.276 40.5636 435.799 40.8134C436.325 41.0657 436.866 41.1906 437.425 41.1906C437.698 41.1906 437.974 41.1594 438.255 41.0943C438.536 41.0293 438.786 40.933 439.01 40.803C439.233 40.6729 439.413 40.509 439.548 40.3061C439.683 40.1057 439.754 39.869 439.754 39.5959C439.754 39.1354 439.577 38.7738 439.225 38.5084C438.874 38.2431 438.432 38.0167 437.901 37.8294C437.37 37.6421 436.796 37.4548 436.176 37.2701C435.557 37.0854 434.985 36.8331 434.451 36.5157C433.921 36.2009 433.478 35.782 433.127 35.2669C432.776 34.7492 432.599 34.0676 432.599 33.2195C432.599 32.3715 432.76 31.6821 433.083 31.0629C433.406 30.4463 433.837 29.9286 434.376 29.5124C434.914 29.0962 435.536 28.784 436.241 28.5758C436.946 28.3677 437.672 28.2637 438.419 28.2637C439.28 28.2637 440.115 28.3859 440.919 28.6305C441.723 28.875 442.449 29.2835 443.097 29.8584L440.789 32.3793L440.794 32.3741Z" fill="#9B9B9B"/>
<path d="M445.02 36.2767C445.02 35.0565 445.225 33.9483 445.634 32.9571C446.042 31.9659 446.614 31.1205 447.348 30.4232C448.082 29.726 448.951 29.1901 449.958 28.8181C450.964 28.4435 452.062 28.2588 453.256 28.2588C454.451 28.2588 455.549 28.4461 456.555 28.8181C457.562 29.1927 458.431 29.726 459.165 30.4232C459.899 31.1205 460.468 31.9633 460.879 32.9571C461.291 33.9509 461.493 35.0539 461.493 36.2767C461.493 37.4994 461.288 38.605 460.879 39.5962C460.471 40.5874 459.899 41.4328 459.165 42.1301C458.431 42.8273 457.562 43.3632 456.555 43.7352C455.549 44.1098 454.451 44.2945 453.256 44.2945C452.062 44.2945 450.964 44.1072 449.958 43.7352C448.951 43.3606 448.082 42.8273 447.348 42.1301C446.614 41.4328 446.045 40.59 445.634 39.5962C445.225 38.605 445.02 37.4994 445.02 36.2767ZM448.511 36.2767C448.511 36.9947 448.623 37.6529 448.844 38.2486C449.068 38.8443 449.385 39.362 449.804 39.7991C450.22 40.2388 450.72 40.5796 451.303 40.8241C451.885 41.0686 452.536 41.1909 453.254 41.1909C453.972 41.1909 454.622 41.0686 455.205 40.8241C455.788 40.5796 456.287 40.2388 456.704 39.7991C457.12 39.362 457.44 38.8443 457.664 38.2486C457.888 37.6529 457.997 36.9947 457.997 36.2767C457.997 35.5586 457.885 34.9187 457.664 34.3151C457.44 33.7116 457.123 33.1913 456.704 32.7516C456.287 32.3146 455.788 31.9712 455.205 31.7266C454.622 31.4821 453.972 31.3598 453.254 31.3598C452.536 31.3598 451.885 31.4821 451.303 31.7266C450.72 31.9712 450.22 32.3119 449.804 32.7516C449.388 33.1913 449.068 33.7116 448.844 34.3151C448.62 34.9187 448.511 35.5716 448.511 36.2767Z" fill="#9B9B9B"/>
<path d="M462.479 28.6465H466.317L470.089 38.6467H470.133L473.971 28.6465H477.572L471.278 43.907H468.583L462.482 28.6465H462.479Z" fill="#9B9B9B"/>
<path d="M479.508 28.6465H489.876V31.7501H482.869V34.5961H489.488V37.6997H482.869V40.8033H490.263V43.907H479.508V28.6465Z" fill="#9B9B9B"/>
<path d="M493.174 28.6465H499.08C499.855 28.6465 500.592 28.7219 501.289 28.8728C501.986 29.0237 502.598 29.276 503.121 29.6273C503.646 29.9785 504.062 30.4545 504.372 31.0503C504.682 31.646 504.835 32.3901 504.835 33.2824C504.835 34.3594 504.554 35.2751 503.995 36.0296C503.435 36.784 502.616 37.2627 501.539 37.463L505.418 43.907H501.388L498.198 37.8064H496.538V43.907H493.177V28.6465H493.174ZM496.536 34.9604H498.518C498.82 34.9604 499.14 34.9499 499.478 34.9291C499.816 34.9083 500.121 34.8433 500.394 34.734C500.667 34.6274 500.894 34.4583 501.073 34.2267C501.253 33.9978 501.344 33.6752 501.344 33.2564C501.344 32.8687 501.266 32.5592 501.107 32.3302C500.948 32.1013 500.748 31.9244 500.503 31.8021C500.259 31.6798 499.978 31.5966 499.663 31.555C499.346 31.5107 499.039 31.4899 498.737 31.4899H496.538V34.9604H496.536Z" fill="#9B9B9B"/>
<path d="M373.444 50.6411H376.194C376.587 50.6411 376.964 50.6796 377.326 50.7566C377.696 50.8337 378.02 50.9646 378.297 51.1495C378.574 51.3267 378.794 51.5693 378.956 51.8775C379.125 52.1779 379.21 52.5554 379.21 53.0099C379.21 53.5261 379.121 53.9421 378.944 54.2579C378.767 54.5737 378.528 54.8203 378.228 54.9974C377.927 55.1669 377.577 55.2825 377.176 55.3441C376.783 55.4057 376.371 55.4365 375.94 55.4365H374.9V58.8223H373.444V50.6411ZM375.778 54.1886C375.986 54.1886 376.202 54.1809 376.425 54.1655C376.648 54.15 376.852 54.1038 377.037 54.0268C377.23 53.9498 377.384 53.8342 377.5 53.6801C377.623 53.5261 377.684 53.3104 377.684 53.033C377.684 52.7788 377.631 52.5785 377.523 52.4321C377.415 52.2781 377.276 52.1625 377.107 52.0855C376.937 52.0007 376.748 51.9468 376.54 51.9237C376.332 51.9006 376.132 51.889 375.94 51.889H374.9V54.1886H375.778ZM382.819 50.6411H385.661C386.054 50.6411 386.432 50.6796 386.794 50.7566C387.164 50.826 387.491 50.9492 387.776 51.1264C388.061 51.3036 388.288 51.5424 388.458 51.8428C388.627 52.1433 388.712 52.5246 388.712 52.9868C388.712 53.58 388.546 54.0769 388.215 54.4774C387.892 54.878 387.426 55.1207 386.817 55.2054L388.989 58.8223H387.233L385.338 55.3557H384.275V58.8223H382.819V50.6411ZM385.407 54.1077C385.615 54.1077 385.823 54.1 386.031 54.0846C386.239 54.0615 386.428 54.0152 386.597 53.9459C386.775 53.8689 386.917 53.7572 387.025 53.6108C387.133 53.4567 387.187 53.2449 387.187 52.9753C387.187 52.7364 387.137 52.5439 387.037 52.3975C386.936 52.2511 386.805 52.1433 386.644 52.0739C386.482 51.9969 386.301 51.9468 386.101 51.9237C385.908 51.9006 385.719 51.889 385.534 51.889H384.275V54.1077H385.407ZM391.969 54.7663C391.969 54.1115 392.077 53.5184 392.293 52.9868C392.509 52.4476 392.805 51.9892 393.183 51.6117C393.568 51.2342 394.022 50.9454 394.546 50.7451C395.078 50.5371 395.659 50.4331 396.291 50.4331C396.93 50.4254 397.516 50.5217 398.047 50.722C398.579 50.9145 399.037 51.1996 399.423 51.5771C399.808 51.9545 400.108 52.409 400.324 52.9406C400.54 53.4721 400.647 54.0653 400.647 54.7201C400.647 55.3595 400.54 55.9411 400.324 56.465C400.108 56.9888 399.808 57.4395 399.423 57.8169C399.037 58.1944 398.579 58.491 398.047 58.7067C397.516 58.9147 396.93 59.0226 396.291 59.0303C395.659 59.0303 395.078 58.9301 394.546 58.7298C394.022 58.5218 393.568 58.2329 393.183 57.8632C392.805 57.4857 392.509 57.035 392.293 56.5112C392.077 55.9873 391.969 55.4057 391.969 54.7663ZM393.495 54.6739C393.495 55.113 393.56 55.5174 393.691 55.8872C393.83 56.257 394.022 56.5767 394.269 56.8463C394.515 57.1159 394.808 57.3278 395.147 57.4818C395.494 57.6359 395.879 57.713 396.303 57.713C396.726 57.713 397.111 57.6359 397.458 57.4818C397.805 57.3278 398.101 57.1159 398.348 56.8463C398.594 56.5767 398.783 56.257 398.914 55.8872C399.053 55.5174 399.122 55.113 399.122 54.6739C399.122 54.2656 399.053 53.8843 398.914 53.5299C398.783 53.1755 398.594 52.8674 398.348 52.6055C398.101 52.3359 397.805 52.1279 397.458 51.9815C397.111 51.8274 396.726 51.7504 396.303 51.7504C395.879 51.7504 395.494 51.8274 395.147 51.9815C394.808 52.1279 394.515 52.3359 394.269 52.6055C394.022 52.8674 393.83 53.1755 393.691 53.5299C393.56 53.8843 393.495 54.2656 393.495 54.6739ZM404.311 50.6411H405.767V58.8223H404.311V50.6411ZM409.872 50.6411H411.802L415.766 56.7192H415.789V50.6411H417.245V58.8223H415.396L411.351 52.5477H411.328V58.8223H409.872V50.6411ZM425.39 52.3975C425.236 52.1741 425.028 52.0123 424.766 51.9122C424.512 51.8043 424.242 51.7504 423.957 51.7504C423.788 51.7504 423.622 51.7696 423.46 51.8082C423.306 51.8467 423.164 51.9083 423.033 51.993C422.909 52.0778 422.809 52.1895 422.732 52.3282C422.655 52.4591 422.617 52.617 422.617 52.8019C422.617 53.0793 422.713 53.2911 422.906 53.4375C423.098 53.5838 423.337 53.7109 423.622 53.8188C423.907 53.9266 424.219 54.0306 424.558 54.1308C424.897 54.2309 425.209 54.3696 425.494 54.5468C425.779 54.724 426.018 54.9589 426.21 55.2517C426.403 55.5444 426.499 55.9334 426.499 56.4188C426.499 56.8579 426.418 57.243 426.257 57.5743C426.095 57.8978 425.875 58.1675 425.598 58.3832C425.328 58.5989 425.013 58.7606 424.651 58.8685C424.288 58.9763 423.907 59.0303 423.507 59.0303C422.998 59.0303 422.509 58.9455 422.039 58.776C421.569 58.6066 421.165 58.3215 420.826 57.9209L421.923 56.8579C422.101 57.1275 422.332 57.3393 422.617 57.4934C422.909 57.6398 423.218 57.713 423.541 57.713C423.711 57.713 423.88 57.6898 424.05 57.6436C424.219 57.5974 424.373 57.5281 424.512 57.4356C424.651 57.3432 424.762 57.2276 424.847 57.089C424.932 56.9426 424.974 56.777 424.974 56.5921C424.974 56.2916 424.878 56.0605 424.685 55.8988C424.493 55.737 424.254 55.6022 423.969 55.4943C423.684 55.3788 423.372 55.2709 423.033 55.1708C422.694 55.0706 422.382 54.9358 422.097 54.7663C421.812 54.5892 421.573 54.358 421.38 54.073C421.188 53.7803 421.091 53.3912 421.091 52.9059C421.091 52.4822 421.176 52.1163 421.346 51.8082C421.523 51.5 421.75 51.2458 422.027 51.0455C422.312 50.8375 422.636 50.6834 422.998 50.5833C423.36 50.4831 423.73 50.4331 424.107 50.4331C424.539 50.4331 424.955 50.4986 425.355 50.6295C425.764 50.7605 426.13 50.9762 426.453 51.2766L425.39 52.3975ZM430.327 50.6411H433.077C433.47 50.6411 433.847 50.6796 434.209 50.7566C434.579 50.8337 434.903 50.9646 435.18 51.1495C435.457 51.3267 435.677 51.5693 435.839 51.8775C436.008 52.1779 436.093 52.5554 436.093 53.0099C436.093 53.5261 436.004 53.9421 435.827 54.2579C435.65 54.5737 435.411 54.8203 435.111 54.9974C434.81 55.1669 434.46 55.2825 434.059 55.3441C433.666 55.4057 433.254 55.4365 432.823 55.4365H431.783V58.8223H430.327V50.6411ZM432.661 54.1886C432.869 54.1886 433.085 54.1809 433.308 54.1655C433.531 54.15 433.736 54.1038 433.92 54.0268C434.113 53.9498 434.267 53.8342 434.383 53.6801C434.506 53.5261 434.568 53.3104 434.568 53.033C434.568 52.7788 434.514 52.5785 434.406 52.4321C434.298 52.2781 434.159 52.1625 433.99 52.0855C433.82 52.0007 433.632 51.9468 433.424 51.9237C433.216 51.9006 433.015 51.889 432.823 51.889H431.783V54.1886H432.661ZM439.702 50.6411H445.121V51.9584H441.158V53.969H444.913V55.2863H441.158V57.505H445.329V58.8223H439.702V50.6411ZM454.693 52.5593C454.393 52.2357 454.1 52.02 453.815 51.9122C453.537 51.8043 453.256 51.7504 452.971 51.7504C452.548 51.7504 452.162 51.8274 451.816 51.9815C451.477 52.1279 451.184 52.3359 450.938 52.6055C450.691 52.8674 450.498 53.1755 450.36 53.5299C450.229 53.8843 450.163 54.2656 450.163 54.6739C450.163 55.113 450.229 55.5174 450.36 55.8872C450.498 56.257 450.691 56.5767 450.938 56.8463C451.184 57.1159 451.477 57.3278 451.816 57.4818C452.162 57.6359 452.548 57.713 452.971 57.713C453.303 57.713 453.622 57.6359 453.93 57.4818C454.246 57.3201 454.539 57.0659 454.809 56.7192L456.01 57.5743C455.641 58.0827 455.19 58.4525 454.658 58.6836C454.127 58.9147 453.561 59.0303 452.96 59.0303C452.328 59.0303 451.746 58.9301 451.215 58.7298C450.691 58.5218 450.236 58.2329 449.851 57.8632C449.474 57.4857 449.177 57.035 448.962 56.5112C448.746 55.9873 448.638 55.4057 448.638 54.7663C448.638 54.1115 448.746 53.5184 448.962 52.9868C449.177 52.4476 449.474 51.9892 449.851 51.6117C450.236 51.2342 450.691 50.9454 451.215 50.7451C451.746 50.5371 452.328 50.4331 452.96 50.4331C453.514 50.4331 454.027 50.5332 454.497 50.7335C454.974 50.9261 455.417 51.2574 455.825 51.7273L454.693 52.5593ZM460.974 51.9584H458.467V50.6411H464.938V51.9584H462.43V58.8223H460.974V51.9584Z" fill="#9B9B9B"/>
<path d="M571.864 44.5011L577.737 37.8246L573.338 32.8232C572.906 32.333 572.209 32.333 571.778 32.8232L561.506 44.5011C561.075 44.9913 561.075 45.7836 561.506 46.2738L571.778 57.9517C572.209 58.4419 572.906 58.4419 573.338 57.9517L577.737 52.9503L571.864 46.2738C571.433 45.7836 571.433 44.9913 571.864 44.5011Z" fill="#9B9B9B"/>
<path d="M593.967 44.5011L583.695 32.8232C583.264 32.333 582.567 32.333 582.136 32.8232L577.737 37.8246L583.609 44.5011C584.041 44.9913 584.041 45.7836 583.609 46.2738L577.737 52.9503L582.136 57.9517C582.567 58.4419 583.264 58.4419 583.695 57.9517L593.967 46.2738C594.398 45.7836 594.398 44.9913 593.967 44.5011Z" fill="#9B9B9B"/>
<path d="M578.953 34.87C578.286 35.629 577.193 35.629 576.523 34.87C575.856 34.1109 574.763 32.8665 574.093 32.1075C573.426 31.3485 573.87 30.7251 575.083 30.7251H580.393C581.605 30.7251 582.051 31.3461 581.383 32.1075C580.715 32.8689 579.623 34.1109 578.953 34.87Z" fill="#AAAAAA"/>
<path d="M576.523 56.1293C577.191 55.3703 578.285 55.3703 578.953 56.1293C579.62 56.8883 580.713 58.1328 581.383 58.8918C582.052 59.6508 581.604 60.2742 580.393 60.2742H575.083C573.871 60.2742 573.425 59.6532 574.093 58.8918C574.761 58.1328 575.853 56.8883 576.523 56.1293Z" fill="#AAAAAA"/>
<path d="M606.754 48.5705C605.678 49.6567 604.361 50.1998 602.804 50.1998C601.246 50.1998 599.929 49.6567 598.853 48.5705C597.777 47.4842 597.239 46.1674 597.239 44.62C597.239 43.0624 597.777 41.7456 598.853 40.6696C599.929 39.5834 601.246 39.0403 602.804 39.0403C604.361 39.0403 605.678 39.5834 606.754 40.6696C607.84 41.7456 608.384 43.0624 608.384 44.62C608.384 46.1674 607.84 47.4842 606.754 48.5705ZM599.837 47.6021C600.636 48.4014 601.625 48.801 602.804 48.801C603.982 48.801 604.966 48.4014 605.755 47.6021C606.554 46.7925 606.954 45.7985 606.954 44.62C606.954 43.4313 606.554 42.4373 605.755 41.638C604.966 40.8285 603.982 40.4237 602.804 40.4237C601.625 40.4237 600.636 40.8285 599.837 41.638C599.048 42.4373 598.654 43.4313 598.654 44.62C598.654 45.7985 599.048 46.7925 599.837 47.6021ZM616.481 50L614.068 45.8805H611.532V50H610.102V39.2401H614.406C615.328 39.2401 616.117 39.568 616.773 40.2239C617.429 40.8694 617.757 41.6534 617.757 42.5757C617.757 43.2725 617.547 43.9078 617.127 44.4817C616.717 45.0556 616.184 45.4603 615.528 45.696L618.064 50H616.481ZM611.532 40.5774V44.5893H614.406C614.939 44.5893 615.39 44.3946 615.759 44.0052C616.138 43.6055 616.328 43.129 616.328 42.5757C616.328 42.0223 616.138 41.5509 615.759 41.1615C615.39 40.7721 614.939 40.5774 614.406 40.5774H611.532ZM619.499 39.2401H620.929V50H619.499V39.2401ZM624.666 48.6473H629.662V50H623.237V39.2401H629.585V40.5928H624.666V43.8976H629.201V45.2349H624.666V48.6473ZM638.074 39.2401H639.504V50H638.351L632.817 41.9608V50H631.388V39.2401H632.541L638.074 47.2639V39.2401ZM648.692 39.2401V40.5928H645.51V50H644.096V40.5928H640.929V39.2401H648.692ZM656.412 50L655.536 47.5867H650.694L649.818 50H648.296L652.308 39.2401H653.922L657.934 50H656.412ZM651.186 46.2494H655.044L653.107 40.9463L651.186 46.2494ZM660.633 48.6473H665.275V50H659.203V39.2401H660.633V48.6473ZM676.7 44.4202C677.192 44.6559 677.581 44.9941 677.868 45.4347C678.166 45.8754 678.314 46.3826 678.314 46.9565C678.314 47.8173 678.012 48.5397 677.407 49.1238C676.803 49.7079 676.065 50 675.194 50H670.552V39.2401H674.856C675.696 39.2401 676.408 39.5219 676.992 40.0855C677.576 40.6491 677.868 41.346 677.868 42.176C677.868 43.129 677.479 43.8771 676.7 44.4202ZM674.856 40.5774H671.981V43.8669H674.856C675.306 43.8669 675.686 43.708 675.993 43.3903C676.3 43.0727 676.454 42.6833 676.454 42.2221C676.454 41.7712 676.295 41.3869 675.978 41.0693C675.67 40.7414 675.296 40.5774 674.856 40.5774ZM675.194 48.6627C675.675 48.6627 676.08 48.4936 676.408 48.1554C676.736 47.8173 676.9 47.4022 676.9 46.9104C676.9 46.4287 676.731 46.0188 676.393 45.6807C676.065 45.3425 675.665 45.1734 675.194 45.1734H671.981V48.6627H675.194ZM686.743 49.1699C685.995 49.8565 685.027 50.1998 683.838 50.1998C682.649 50.1998 681.676 49.8565 680.917 49.1699C680.169 48.4731 679.795 47.5457 679.795 46.3877V39.2401H681.225V46.3263C681.225 47.0846 681.45 47.6892 681.901 48.1401C682.352 48.5807 682.998 48.801 683.838 48.801C684.678 48.801 685.324 48.5807 685.775 48.1401C686.225 47.6892 686.451 47.0846 686.451 46.3263V39.2401H687.865V46.3877C687.865 47.5457 687.491 48.4731 686.743 49.1699ZM690.051 39.2401H691.48V50H690.051V39.2401ZM695.218 48.6473H699.86V50H693.789V39.2401H695.218V48.6473ZM705.491 39.2401C706.956 39.2401 708.17 39.7627 709.134 40.808C710.107 41.843 710.594 43.1137 710.594 44.62C710.594 46.1264 710.107 47.4022 709.134 48.4475C708.17 49.4825 706.956 50 705.491 50H701.294V39.2401H705.491ZM705.491 48.6473C706.587 48.6473 707.484 48.263 708.181 47.4945C708.877 46.7259 709.226 45.7678 709.226 44.62C709.226 43.4723 708.877 42.5142 708.181 41.7456C707.484 40.977 706.587 40.5928 705.491 40.5928H702.724V48.6473H705.491ZM712.327 39.2401H713.757V50H712.327V39.2401ZM722.752 39.2401H724.181V50H723.028L717.495 41.9608V50H716.065V39.2401H717.218L722.752 47.2639V39.2401ZM736.858 44.6662V45.3118C736.858 46.7157 736.377 47.8839 735.413 48.8164C734.45 49.7387 733.174 50.1998 731.586 50.1998C729.946 50.1998 728.589 49.6618 727.513 48.5858C726.447 47.4996 725.914 46.1777 725.914 44.62C725.914 43.0624 726.447 41.7456 727.513 40.6696C728.589 39.5834 729.936 39.0403 731.555 39.0403C732.549 39.0403 733.461 39.2811 734.291 39.7627C735.121 40.2341 735.762 40.8592 736.213 41.638L734.983 42.3605C734.676 41.7764 734.209 41.3101 733.584 40.9617C732.969 40.603 732.288 40.4237 731.54 40.4237C730.31 40.4237 729.301 40.8285 728.512 41.638C727.723 42.4373 727.328 43.4313 727.328 44.62C727.328 45.8088 727.723 46.8028 728.512 47.6021C729.311 48.4014 730.341 48.801 731.601 48.801C732.677 48.801 733.548 48.5397 734.214 48.0171C734.881 47.4842 735.285 46.7976 735.429 45.9573H731.478V44.6662H736.858Z" fill="#9B9B9B"/>
<path fill-rule="evenodd" clip-rule="evenodd" d="M807.303 47.2814C807.303 47.281 807.303 47.2806 807.304 47.2803L823.541 29.0645C823.71 28.875 823.845 28.6642 823.948 28.4406C825.982 28.6291 827.574 30.3403 827.574 32.4233V58.577C827.574 60.7861 825.783 62.577 823.574 62.577H803.746L813.955 52.5452L822.662 58.6603C823.558 59.29 824.762 59.0439 825.377 58.1041C825.931 57.2588 825.835 56.1094 825.149 55.3829L813.955 43.5142V43.5148L797.717 61.731C797.494 61.9808 797.329 62.2676 797.222 62.5721C795.105 62.4688 793.42 60.7196 793.42 58.577V32.4233C793.42 30.2142 795.211 28.4233 797.42 28.4233H817.303L807.303 38.2503L798.596 32.1352C797.699 31.5055 796.496 31.7517 795.881 32.6914C795.327 33.5367 795.423 34.6862 796.109 35.4126L807.303 47.2814Z" fill="#9B9B9B"/>
<path d="M941.725 51.4752C940.518 51.4752 939.241 51.3489 937.894 51.0963C936.547 50.8437 935.34 50.4086 934.273 49.7912C933.824 49.5105 933.501 49.1878 933.305 48.8229C933.136 48.43 933.066 48.0511 933.094 47.6862C933.151 47.2933 933.291 46.9565 933.515 46.6758C933.768 46.3951 934.077 46.2127 934.442 46.1285C934.835 46.0443 935.256 46.1145 935.705 46.339C936.827 46.8723 937.88 47.2512 938.862 47.4757C939.844 47.6722 940.813 47.7704 941.767 47.7704C943.114 47.7704 944.111 47.5459 944.756 47.0968C945.43 46.6197 945.766 46.0022 945.766 45.2444C945.766 44.5989 945.542 44.1077 945.093 43.7709C944.672 43.4061 944.026 43.1394 943.156 42.971L938.946 42.1711C937.206 41.8343 935.873 41.2028 934.947 40.2766C934.049 39.3224 933.6 38.1015 933.6 36.614C933.6 35.2668 933.964 34.102 934.694 33.1197C935.452 32.1373 936.49 31.3795 937.81 30.8463C939.129 30.313 940.644 30.0464 942.356 30.0464C943.591 30.0464 944.742 30.1867 945.809 30.4674C946.903 30.72 947.956 31.1269 948.966 31.6883C949.387 31.9128 949.668 32.2075 949.808 32.5724C949.976 32.9372 950.019 33.3161 949.934 33.7091C949.85 34.0739 949.682 34.4107 949.429 34.7195C949.177 35.0001 948.854 35.1826 948.461 35.2668C948.096 35.3229 947.675 35.2387 947.198 35.0142C946.328 34.5651 945.486 34.2423 944.672 34.0459C943.886 33.8494 943.128 33.7512 942.398 33.7512C941.023 33.7512 939.999 33.9897 939.325 34.4669C938.68 34.944 938.357 35.5755 938.357 36.3614C938.357 36.9508 938.553 37.4419 938.946 37.8348C939.339 38.2278 939.943 38.4944 940.757 38.6347L944.967 39.4346C946.791 39.7714 948.166 40.3889 949.092 41.287C950.047 42.1852 950.524 43.392 950.524 44.9076C950.524 46.9565 949.724 48.5703 948.124 49.7491C946.524 50.8998 944.391 51.4752 941.725 51.4752Z" fill="#9B9B9B"/>
<path d="M916.84 51.475C915.128 51.475 913.711 51.1662 912.588 50.5488C911.465 49.9032 910.623 48.949 910.062 47.686C909.529 46.423 909.262 44.8513 909.262 42.9708V32.7827C909.262 31.8845 909.487 31.225 909.936 30.804C910.385 30.3549 911.03 30.1304 911.872 30.1304C912.714 30.1304 913.36 30.3549 913.809 30.804C914.286 31.225 914.525 31.8845 914.525 32.7827V43.055C914.525 44.5145 914.819 45.595 915.409 46.2967C915.998 46.9984 916.938 47.3492 918.229 47.3492C919.633 47.3492 920.784 46.8721 921.682 45.9178C922.58 44.9355 923.029 43.6444 923.029 42.0446V32.7827C923.029 31.8845 923.253 31.225 923.702 30.804C924.151 30.3549 924.797 30.1304 925.639 30.1304C926.481 30.1304 927.127 30.3549 927.576 30.804C928.053 31.225 928.291 31.8845 928.291 32.7827V48.6964C928.291 50.4926 927.435 51.3908 925.723 51.3908C924.909 51.3908 924.278 51.1662 923.829 50.7172C923.38 50.24 923.155 49.5664 923.155 48.6964V45.4968L923.745 46.7598C923.155 48.2754 922.257 49.4401 921.05 50.2541C919.871 51.068 918.468 51.475 916.84 51.475Z" fill="#9B9B9B"/>
<path d="M887.416 51.2645C886.799 51.2645 886.28 51.0961 885.859 50.7593C885.466 50.3944 885.255 49.9313 885.227 49.37C885.227 48.8086 885.466 48.2192 885.943 47.6018L892.763 39.1818V41.6657L886.364 33.7931C885.859 33.1756 885.62 32.5862 885.648 32.0249C885.676 31.4635 885.887 31.0145 886.28 30.6777C886.701 30.3128 887.22 30.1304 887.837 30.1304C888.483 30.1304 889.016 30.2426 889.437 30.4672C889.886 30.6917 890.293 31.0425 890.658 31.5197L895.71 38.003H893.858L898.952 31.5197C899.345 31.0425 899.751 30.6917 900.172 30.4672C900.593 30.2426 901.113 30.1304 901.73 30.1304C902.376 30.1304 902.895 30.3128 903.288 30.6777C903.681 31.0425 903.877 31.5056 903.877 32.067C903.905 32.6283 903.667 33.2177 903.162 33.8352L896.804 41.6236V39.266L903.625 47.6018C904.13 48.1912 904.368 48.7665 904.34 49.3279C904.312 49.8892 904.088 50.3523 903.667 50.7172C903.274 51.082 902.755 51.2645 902.109 51.2645C901.492 51.2645 900.972 51.1522 900.551 50.9277C900.13 50.7031 899.723 50.3523 899.33 49.8752L893.858 42.9708H895.626L890.195 49.8752C889.83 50.3242 889.437 50.6751 889.016 50.9277C888.595 51.1522 888.062 51.2645 887.416 51.2645Z" fill="#9B9B9B"/>
<path d="M873.016 51.4752C870.686 51.4752 868.679 51.0401 866.995 50.1701C865.311 49.3 864.006 48.0651 863.08 46.4653C862.182 44.8655 861.733 42.971 861.733 40.7818C861.733 38.6488 862.168 36.7824 863.038 35.1826C863.936 33.5828 865.157 32.3338 866.701 31.4357C868.272 30.5095 870.055 30.0464 872.047 30.0464C873.507 30.0464 874.812 30.285 875.963 30.7621C877.141 31.2392 878.138 31.9268 878.952 32.825C879.794 33.7231 880.425 34.8177 880.846 36.1088C881.295 37.3717 881.52 38.8031 881.52 40.4029C881.52 40.9081 881.337 41.3011 880.973 41.5817C880.636 41.8343 880.145 41.9606 879.499 41.9606H865.985V38.9294H877.815L877.141 39.5609C877.141 38.2699 876.945 37.1893 876.552 36.3193C876.187 35.4492 875.64 34.7896 874.91 34.3406C874.208 33.8634 873.324 33.6249 872.258 33.6249C871.079 33.6249 870.069 33.9055 869.227 34.4669C868.413 35.0001 867.781 35.772 867.332 36.7824C866.911 37.7647 866.701 38.9435 866.701 40.3187V40.6134C866.701 42.9149 867.234 44.641 868.3 45.7917C869.395 46.9144 870.995 47.4757 873.1 47.4757C873.83 47.4757 874.644 47.3915 875.542 47.2231C876.468 47.0266 877.338 46.7039 878.152 46.2548C878.741 45.918 879.26 45.7777 879.71 45.8338C880.159 45.8619 880.509 46.0162 880.762 46.2969C881.043 46.5776 881.211 46.9284 881.267 47.3494C881.323 47.7423 881.239 48.1493 881.015 48.5703C880.818 48.9913 880.467 49.3562 879.962 49.6649C878.98 50.2823 877.843 50.7454 876.552 51.0542C875.289 51.3348 874.11 51.4752 873.016 51.4752Z" fill="#9B9B9B"/>
<path d="M840.433 51.391C839.591 51.391 838.945 51.1664 838.496 50.7174C838.047 50.2402 837.823 49.5667 837.823 48.6966V32.7829C837.823 31.9128 838.047 31.2532 838.496 30.8042C838.945 30.3551 839.577 30.1306 840.391 30.1306C841.205 30.1306 841.836 30.3551 842.285 30.8042C842.734 31.2532 842.959 31.9128 842.959 32.7829V35.6457L842.496 34.5932C843.113 33.1056 844.068 31.983 845.359 31.2252C846.678 30.4393 848.165 30.0464 849.821 30.0464C851.477 30.0464 852.838 30.3551 853.905 30.9726C854.971 31.59 855.771 32.5303 856.305 33.7933C856.838 35.0282 857.104 36.5999 857.104 38.5084V48.6966C857.104 49.5667 856.88 50.2402 856.431 50.7174C855.982 51.1664 855.336 51.391 854.494 51.391C853.652 51.391 852.993 51.1664 852.516 50.7174C852.067 50.2402 851.842 49.5667 851.842 48.6966V38.761C851.842 37.1613 851.533 35.9965 850.916 35.2668C850.326 34.537 849.4 34.1722 848.137 34.1722C846.594 34.1722 845.359 34.6633 844.432 35.6457C843.534 36.5999 843.085 37.8769 843.085 39.4767V48.6966C843.085 50.4928 842.201 51.391 840.433 51.391Z" fill="#9B9B9B"/>
<path d="M942.794 61.1715C942.713 61.1715 942.65 61.149 942.605 61.104C942.56 61.0545 942.538 60.9871 942.538 60.9016V56.5907C942.538 56.5007 942.56 56.4332 942.605 56.3883C942.65 56.3433 942.713 56.3208 942.794 56.3208C942.866 56.3208 942.922 56.3365 942.963 56.368C943.008 56.395 943.048 56.4422 943.084 56.5097L944.933 59.9908H944.73L946.572 56.5097C946.608 56.4422 946.646 56.395 946.687 56.368C946.727 56.3365 946.786 56.3208 946.862 56.3208C946.939 56.3208 946.999 56.3433 947.044 56.3883C947.089 56.4332 947.112 56.5007 947.112 56.5907V60.9016C947.112 60.9871 947.089 61.0545 947.044 61.104C947.004 61.149 946.941 61.1715 946.855 61.1715C946.774 61.1715 946.711 61.149 946.666 61.104C946.621 61.0545 946.599 60.9871 946.599 60.9016V57.1101H946.761L945.074 60.2742C945.043 60.3327 945.009 60.3754 944.973 60.4024C944.942 60.4249 944.894 60.4361 944.831 60.4361C944.768 60.4361 944.719 60.4226 944.683 60.3956C944.647 60.3686 944.615 60.3282 944.589 60.2742L942.882 57.1034H943.044V60.9016C943.044 60.9871 943.021 61.0545 942.976 61.104C942.936 61.149 942.875 61.1715 942.794 61.1715Z" fill="#9B9B9B"/>
<path d="M938.142 61.185C937.827 61.185 937.551 61.1445 937.312 61.0635C937.078 60.9781 936.881 60.8544 936.719 60.6925C936.557 60.5261 936.435 60.3214 936.354 60.0785C936.273 59.8357 936.233 59.5568 936.233 59.242V56.6041C936.233 56.5097 936.255 56.44 936.3 56.395C936.35 56.3455 936.42 56.3208 936.51 56.3208C936.599 56.3208 936.667 56.3455 936.712 56.395C936.761 56.44 936.786 56.5097 936.786 56.6041V59.215C936.786 59.7097 936.901 60.0808 937.13 60.3282C937.36 60.571 937.697 60.6925 938.142 60.6925C938.587 60.6925 938.922 60.571 939.147 60.3282C939.372 60.0808 939.485 59.7097 939.485 59.215V56.6041C939.485 56.5097 939.509 56.44 939.559 56.395C939.608 56.3455 939.678 56.3208 939.768 56.3208C939.853 56.3208 939.919 56.3455 939.964 56.395C940.013 56.44 940.038 56.5097 940.038 56.6041V59.242C940.038 59.6603 939.966 60.0156 939.822 60.3079C939.683 60.6003 939.471 60.8206 939.188 60.9691C938.904 61.113 938.556 61.185 938.142 61.185Z" fill="#9B9B9B"/>
<path d="M931.715 61.1244C931.626 61.1244 931.556 61.0997 931.506 61.0502C931.457 60.9962 931.432 60.9243 931.432 60.8343V56.6246C931.432 56.5301 931.455 56.4582 931.5 56.4087C931.549 56.3592 931.619 56.3345 931.709 56.3345C931.799 56.3345 931.866 56.3592 931.911 56.4087C931.961 56.4582 931.985 56.5301 931.985 56.6246V60.6387H934.198C934.279 60.6387 934.342 60.6612 934.387 60.7061C934.432 60.7466 934.455 60.8051 934.455 60.8815C934.455 60.958 934.432 61.0187 934.387 61.0637C934.342 61.1042 934.279 61.1244 934.198 61.1244H931.715Z" fill="#9B9B9B"/>
<path d="M926.092 61.1711C926.002 61.1711 925.932 61.1464 925.882 61.0969C925.837 61.0429 925.815 60.971 925.815 60.881V56.651C925.815 56.5566 925.84 56.4869 925.889 56.4419C925.939 56.3924 926.008 56.3677 926.098 56.3677H927.697C928.205 56.3677 928.597 56.4936 928.871 56.7455C929.145 56.9928 929.283 57.3437 929.283 57.7979C929.283 58.2477 929.145 58.5985 928.871 58.8503C928.597 59.1022 928.205 59.2281 927.697 59.2281H926.368V60.881C926.368 60.971 926.346 61.0429 926.301 61.0969C926.256 61.1464 926.186 61.1711 926.092 61.1711ZM926.368 58.7626H927.63C927.994 58.7626 928.268 58.6817 928.453 58.5198C928.642 58.3534 928.736 58.1127 928.736 57.7979C928.736 57.4786 928.642 57.238 928.453 57.076C928.268 56.9096 927.994 56.8264 927.63 56.8264H926.368V58.7626Z" fill="#9B9B9B"/>
<path d="M921.984 61.1848C921.516 61.1848 921.116 61.0858 920.783 60.8879C920.45 60.69 920.194 60.4089 920.014 60.0446C919.838 59.6803 919.75 59.2463 919.75 58.7426C919.75 58.3648 919.8 58.0275 919.899 57.7306C920.002 57.4293 920.149 57.1752 920.337 56.9683C920.531 56.7569 920.767 56.595 921.046 56.4825C921.325 56.3656 921.637 56.3071 921.984 56.3071C922.262 56.3071 922.528 56.3476 922.78 56.4286C923.031 56.505 923.25 56.6197 923.434 56.7726C923.492 56.8176 923.531 56.8693 923.549 56.9278C923.571 56.9818 923.573 57.0357 923.555 57.0897C923.542 57.1392 923.515 57.1819 923.474 57.2179C923.439 57.2494 923.394 57.2651 923.34 57.2651C923.286 57.2651 923.225 57.2426 923.157 57.1977C922.996 57.0672 922.818 56.9705 922.624 56.9076C922.431 56.8446 922.222 56.8131 921.997 56.8131C921.642 56.8131 921.34 56.8896 921.093 57.0425C920.846 57.1909 920.659 57.409 920.533 57.6969C920.407 57.9847 920.344 58.3333 920.344 58.7426C920.344 59.1519 920.407 59.5027 920.533 59.795C920.659 60.0829 920.846 60.3032 921.093 60.4562C921.34 60.6046 921.642 60.6788 921.997 60.6788C922.217 60.6788 922.427 60.6473 922.624 60.5843C922.822 60.5169 923.004 60.4179 923.171 60.2875C923.238 60.2425 923.299 60.2223 923.353 60.2268C923.407 60.2268 923.452 60.2425 923.488 60.274C923.524 60.3055 923.549 60.346 923.562 60.3954C923.58 60.4449 923.58 60.4966 923.562 60.5506C923.549 60.6046 923.515 60.6518 923.461 60.6923C923.272 60.8542 923.049 60.9779 922.793 61.0633C922.541 61.1443 922.271 61.1848 921.984 61.1848Z" fill="#9B9B9B"/>
<path d="M917.121 61.1715C917.031 61.1715 916.961 61.1467 916.912 61.0972C916.867 61.0433 916.844 60.9713 916.844 60.8814V56.6109C916.844 56.5164 916.867 56.4445 916.912 56.395C916.961 56.3455 917.031 56.3208 917.121 56.3208C917.211 56.3208 917.278 56.3455 917.323 56.395C917.373 56.4445 917.397 56.5164 917.397 56.6109V60.8814C917.397 60.9713 917.375 61.0433 917.33 61.0972C917.285 61.1467 917.215 61.1715 917.121 61.1715Z" fill="#9B9B9B"/>
<path d="M912.772 61.1848C912.264 61.1848 911.834 61.0881 911.484 60.8947C911.137 60.7013 910.874 60.4224 910.694 60.0581C910.514 59.6938 910.424 59.2576 910.424 58.7493C910.424 58.3715 910.474 58.032 910.573 57.7306C910.676 57.4293 910.825 57.1752 911.018 56.9683C911.216 56.7569 911.454 56.595 911.733 56.4825C912.016 56.3656 912.336 56.3071 912.691 56.3071C912.974 56.3071 913.249 56.3476 913.514 56.4286C913.78 56.505 914.016 56.6287 914.223 56.7996C914.277 56.8401 914.31 56.8851 914.324 56.9345C914.337 56.984 914.335 57.0335 914.317 57.083C914.303 57.1324 914.279 57.1752 914.243 57.2111C914.211 57.2426 914.169 57.2606 914.115 57.2651C914.065 57.2696 914.013 57.2539 913.959 57.2179C913.775 57.074 913.579 56.9705 913.372 56.9076C913.166 56.8401 912.936 56.8064 912.684 56.8064C912.325 56.8064 912.019 56.8828 911.767 57.0357C911.519 57.1887 911.331 57.409 911.2 57.6969C911.074 57.9847 911.011 58.3355 911.011 58.7493C911.011 59.379 911.157 59.8602 911.45 60.1931C911.747 60.5259 912.192 60.6923 912.786 60.6923C913.001 60.6923 913.213 60.672 913.42 60.6316C913.627 60.5866 913.822 60.5259 914.007 60.4494L913.885 60.7665V59.0866H912.92C912.84 59.0866 912.779 59.0664 912.738 59.0259C912.698 58.9854 912.678 58.9315 912.678 58.864C912.678 58.7921 912.698 58.7381 912.738 58.7021C912.779 58.6661 912.84 58.6481 912.92 58.6481H914.128C914.205 58.6481 914.263 58.6684 914.303 58.7088C914.344 58.7493 914.364 58.8078 914.364 58.8843V60.6451C914.364 60.7125 914.353 60.7687 914.33 60.8137C914.308 60.8587 914.27 60.8924 914.216 60.9149C914.027 60.9914 913.8 61.0566 913.534 61.1106C913.274 61.16 913.019 61.1848 912.772 61.1848Z" fill="#9B9B9B"/>
<path d="M906.075 61.1848C905.634 61.1848 905.25 61.0858 904.922 60.8879C904.598 60.6855 904.346 60.4022 904.166 60.0379C903.991 59.6736 903.903 59.2418 903.903 58.7426C903.903 58.3648 903.952 58.0275 904.051 57.7306C904.155 57.4293 904.301 57.1752 904.49 56.9683C904.679 56.7569 904.906 56.595 905.171 56.4825C905.441 56.3656 905.742 56.3071 906.075 56.3071C906.525 56.3071 906.912 56.4061 907.236 56.604C907.564 56.8019 907.816 57.083 907.991 57.4473C908.171 57.8071 908.261 58.2366 908.261 58.7358C908.261 59.1136 908.209 59.4532 908.106 59.7545C908.002 60.0559 907.856 60.3122 907.667 60.5236C907.478 60.735 907.249 60.8992 906.979 61.0161C906.714 61.1286 906.412 61.1848 906.075 61.1848ZM906.075 60.6923C906.417 60.6923 906.705 60.6158 906.939 60.4629C907.177 60.31 907.359 60.0874 907.485 59.795C907.611 59.5027 907.674 59.1519 907.674 58.7426C907.674 58.1264 907.535 57.6497 907.256 57.3123C906.981 56.9705 906.588 56.7996 906.075 56.7996C905.742 56.7996 905.457 56.8761 905.218 57.029C904.985 57.1819 904.805 57.4045 904.679 57.6969C904.553 57.9847 904.49 58.3333 904.49 58.7426C904.49 59.3543 904.629 59.8332 904.908 60.1796C905.187 60.5214 905.576 60.6923 906.075 60.6923Z" fill="#9B9B9B"/>
<path d="M899.592 61.1244C899.502 61.1244 899.433 61.0997 899.383 61.0502C899.334 60.9962 899.309 60.9243 899.309 60.8343V56.6246C899.309 56.5301 899.332 56.4582 899.377 56.4087C899.426 56.3592 899.496 56.3345 899.586 56.3345C899.676 56.3345 899.743 56.3592 899.788 56.4087C899.838 56.4582 899.862 56.5301 899.862 56.6246V60.6387H902.075C902.156 60.6387 902.219 60.6612 902.264 60.7061C902.309 60.7466 902.331 60.8051 902.331 60.8815C902.331 60.958 902.309 61.0187 902.264 61.0637C902.219 61.1042 902.156 61.1244 902.075 61.1244H899.592Z" fill="#9B9B9B"/>
<path d="M892.277 61.1715C892.187 61.1715 892.117 61.1467 892.068 61.0972C892.023 61.0433 892 60.9691 892 60.8746V58.6618L892.122 59.0463L890.428 56.7121C890.388 56.6536 890.368 56.5952 890.368 56.5367C890.372 56.4737 890.397 56.422 890.442 56.3815C890.487 56.341 890.545 56.3208 890.617 56.3208C890.68 56.3208 890.736 56.3365 890.786 56.368C890.835 56.395 890.88 56.44 890.921 56.503L892.358 58.4864H892.216L893.653 56.503C893.703 56.4355 893.75 56.3883 893.795 56.3613C893.84 56.3343 893.894 56.3208 893.957 56.3208C894.029 56.3208 894.085 56.341 894.125 56.3815C894.166 56.4175 894.186 56.467 894.186 56.5299C894.191 56.5884 894.17 56.6514 894.125 56.7188L892.439 59.0463L892.554 58.6618V60.8746C892.554 61.0725 892.461 61.1715 892.277 61.1715Z" fill="#9B9B9B"/>
<path d="M885.341 61.1239C885.242 61.1239 885.166 61.0991 885.112 61.0497C885.062 60.9957 885.038 60.9192 885.038 60.8203V56.6713C885.038 56.5723 885.062 56.4981 885.112 56.4486C885.166 56.3947 885.242 56.3677 885.341 56.3677H886.94C887.268 56.3677 887.545 56.4171 887.77 56.5161C887.999 56.6105 888.175 56.75 888.296 56.9344C888.418 57.1188 888.478 57.3437 888.478 57.609C888.478 57.9059 888.391 58.1532 888.215 58.3511C888.044 58.549 887.81 58.6794 887.514 58.7424V58.648C887.851 58.6884 888.114 58.8099 888.303 59.0123C888.496 59.2147 888.593 59.4823 888.593 59.8151C888.593 60.2379 888.456 60.5617 888.181 60.7866C887.907 61.0114 887.52 61.1239 887.021 61.1239H885.341ZM885.577 60.6786H886.967C887.327 60.6786 887.597 60.6067 887.777 60.4627C887.957 60.3188 888.046 60.1007 888.046 59.8083C888.046 59.5115 887.957 59.2934 887.777 59.1539C887.597 59.01 887.327 58.9381 886.967 58.9381H885.577V60.6786ZM885.577 58.4928H886.859C887.21 58.4928 887.475 58.4208 887.655 58.2769C887.84 58.133 887.932 57.9261 887.932 57.6562C887.932 57.3774 887.84 57.1682 887.655 57.0288C887.475 56.8849 887.21 56.8129 886.859 56.8129H885.577V58.4928Z" fill="#9B9B9B"/>
<path d="M875.896 61.1239C875.797 61.1239 875.72 61.0991 875.666 61.0497C875.617 60.9957 875.592 60.9192 875.592 60.8203V56.6713C875.592 56.5723 875.617 56.4981 875.666 56.4486C875.72 56.3947 875.797 56.3677 875.896 56.3677H877.198C877.967 56.3677 878.561 56.5701 878.979 56.9749C879.397 57.3796 879.606 57.9688 879.606 58.7424C879.606 59.1292 879.552 59.471 879.444 59.7679C879.341 60.0602 879.186 60.3076 878.979 60.51C878.772 60.7124 878.52 60.8653 878.223 60.9687C877.927 61.0722 877.585 61.1239 877.198 61.1239H875.896ZM876.145 60.6516H877.157C877.472 60.6516 877.744 60.6112 877.974 60.5302C878.208 60.4492 878.401 60.3301 878.554 60.1726C878.711 60.0152 878.828 59.8173 878.905 59.579C878.981 59.3361 879.019 59.0572 879.019 58.7424C879.019 58.1082 878.864 57.6337 878.554 57.3189C878.244 56.9996 877.778 56.8399 877.157 56.8399H876.145V60.6516Z" fill="#9B9B9B"/>
<path d="M870.613 61.1239C870.514 61.1239 870.437 61.0991 870.383 61.0497C870.334 60.9957 870.309 60.9192 870.309 60.8203V56.6713C870.309 56.5723 870.334 56.4981 870.383 56.4486C870.437 56.3947 870.514 56.3677 870.613 56.3677H873.122C873.199 56.3677 873.257 56.3879 873.298 56.4284C873.338 56.4689 873.358 56.5251 873.358 56.5971C873.358 56.6735 873.338 56.732 873.298 56.7725C873.257 56.8129 873.199 56.8332 873.122 56.8332H870.849V58.4793H872.981C873.057 58.4793 873.116 58.4995 873.156 58.54C873.197 58.576 873.217 58.6322 873.217 58.7087C873.217 58.7851 873.197 58.8436 873.156 58.8841C873.116 58.9246 873.057 58.9448 872.981 58.9448H870.849V60.6584H873.122C873.199 60.6584 873.257 60.6786 873.298 60.7191C873.338 60.7596 873.358 60.8158 873.358 60.8878C873.358 60.9642 873.338 61.0227 873.298 61.0632C873.257 61.1036 873.199 61.1239 873.122 61.1239H870.613Z" fill="#9B9B9B"/>
<path d="M864.724 61.1711C864.634 61.1711 864.565 61.1464 864.515 61.0969C864.47 61.0429 864.448 60.971 864.448 60.881V56.651C864.448 56.5566 864.472 56.4869 864.522 56.4419C864.571 56.3924 864.641 56.3677 864.731 56.3677H866.33C866.838 56.3677 867.23 56.4869 867.504 56.7252C867.778 56.9636 867.915 57.3032 867.915 57.7439C867.915 58.0228 867.852 58.2657 867.727 58.4726C867.605 58.6749 867.425 58.8301 867.187 58.9381C866.948 59.0415 866.663 59.0932 866.33 59.0932L866.397 59.0055H866.532C866.708 59.0055 866.861 59.0505 866.991 59.1404C867.122 59.2304 867.241 59.3743 867.349 59.5722L867.996 60.7798C868.032 60.8428 868.048 60.9058 868.044 60.9687C868.044 61.0272 868.023 61.0767 867.983 61.1171C867.942 61.1531 867.884 61.1711 867.807 61.1711C867.731 61.1711 867.668 61.1531 867.619 61.1171C867.569 61.0812 867.526 61.0294 867.49 60.962L866.755 59.5992C866.652 59.4058 866.532 59.2776 866.397 59.2147C866.263 59.1472 866.085 59.1135 865.864 59.1135H865.001V60.881C865.001 60.971 864.978 61.0429 864.933 61.0969C864.889 61.1464 864.819 61.1711 864.724 61.1711ZM865.001 58.6749H866.249C866.618 58.6749 866.897 58.5985 867.086 58.4456C867.274 58.2881 867.369 58.0543 867.369 57.7439C867.369 57.4426 867.274 57.2155 867.086 57.0626C866.897 56.9051 866.618 56.8264 866.249 56.8264H865.001V58.6749Z" fill="#9B9B9B"/>
<path d="M859.468 61.1239C859.369 61.1239 859.293 61.0991 859.239 61.0497C859.189 60.9957 859.165 60.9192 859.165 60.8203V56.6713C859.165 56.5723 859.189 56.4981 859.239 56.4486C859.293 56.3947 859.369 56.3677 859.468 56.3677H861.978C862.054 56.3677 862.113 56.3879 862.153 56.4284C862.194 56.4689 862.214 56.5251 862.214 56.5971C862.214 56.6735 862.194 56.732 862.153 56.7725C862.113 56.8129 862.054 56.8332 861.978 56.8332H859.704V58.4793H861.836C861.913 58.4793 861.971 58.4995 862.012 58.54C862.052 58.576 862.072 58.6322 862.072 58.7087C862.072 58.7851 862.052 58.8436 862.012 58.8841C861.971 58.9246 861.913 58.9448 861.836 58.9448H859.704V60.6584H861.978C862.054 60.6584 862.113 60.6786 862.153 60.7191C862.194 60.7596 862.214 60.8158 862.214 60.8878C862.214 60.9642 862.194 61.0227 862.153 61.0632C862.113 61.1036 862.054 61.1239 861.978 61.1239H859.468Z" fill="#9B9B9B"/>
<path d="M851.914 61.1715C851.833 61.1715 851.768 61.1512 851.718 61.1107C851.669 61.0658 851.628 61.0006 851.597 60.9151L850.106 56.6581C850.074 56.5637 850.081 56.485 850.126 56.422C850.176 56.3545 850.252 56.3208 850.355 56.3208C850.432 56.3208 850.493 56.341 850.538 56.3815C850.583 56.4175 850.621 56.476 850.652 56.5569L852.049 60.652H851.813L853.236 56.5772C853.268 56.4917 853.306 56.4287 853.351 56.3883C853.396 56.3433 853.457 56.3208 853.533 56.3208C853.605 56.3208 853.661 56.3433 853.702 56.3883C853.747 56.4287 853.785 56.4917 853.816 56.5772L855.22 60.652H855.01L856.42 56.5569C856.443 56.4805 856.477 56.422 856.522 56.3815C856.571 56.341 856.634 56.3208 856.711 56.3208C856.805 56.3208 856.875 56.3523 856.92 56.4153C856.965 56.4782 856.969 56.5592 856.933 56.6581L855.436 60.9151C855.404 61.0006 855.364 61.0658 855.314 61.1107C855.269 61.1512 855.204 61.1715 855.118 61.1715C855.037 61.1715 854.972 61.1512 854.923 61.1107C854.878 61.0658 854.837 61.0006 854.801 60.9151L853.445 57.0089H853.594L852.224 60.9151C852.193 61.0006 852.155 61.0658 852.11 61.1107C852.065 61.1512 851.999 61.1715 851.914 61.1715Z" fill="#9B9B9B"/>
<path d="M845.972 61.1848C845.531 61.1848 845.146 61.0858 844.818 60.8879C844.494 60.6855 844.242 60.4022 844.062 60.0379C843.887 59.6736 843.799 59.2418 843.799 58.7426C843.799 58.3648 843.849 58.0275 843.948 57.7306C844.051 57.4293 844.197 57.1752 844.386 56.9683C844.575 56.7569 844.802 56.595 845.068 56.4825C845.337 56.3656 845.639 56.3071 845.972 56.3071C846.421 56.3071 846.808 56.4061 847.132 56.604C847.46 56.8019 847.712 57.083 847.888 57.4473C848.068 57.8071 848.157 58.2366 848.157 58.7358C848.157 59.1136 848.106 59.4532 848.002 59.7545C847.899 60.0559 847.753 60.3122 847.564 60.5236C847.375 60.735 847.146 60.8992 846.876 61.0161C846.61 61.1286 846.309 61.1848 845.972 61.1848ZM845.972 60.6923C846.313 60.6923 846.601 60.6158 846.835 60.4629C847.074 60.31 847.256 60.0874 847.382 59.795C847.508 59.5027 847.571 59.1519 847.571 58.7426C847.571 58.1264 847.431 57.6497 847.152 57.3123C846.878 56.9705 846.484 56.7996 845.972 56.7996C845.639 56.7996 845.353 56.8761 845.115 57.029C844.881 57.1819 844.701 57.4045 844.575 57.6969C844.449 57.9847 844.386 58.3333 844.386 58.7426C844.386 59.3543 844.526 59.8332 844.805 60.1796C845.083 60.5214 845.472 60.6923 845.972 60.6923Z" fill="#9B9B9B"/>
<path d="M838.685 61.1711C838.595 61.1711 838.526 61.1464 838.476 61.0969C838.431 61.0429 838.409 60.971 838.409 60.881V56.651C838.409 56.5566 838.433 56.4869 838.483 56.4419C838.532 56.3924 838.602 56.3677 838.692 56.3677H840.291C840.799 56.3677 841.19 56.4936 841.465 56.7455C841.739 56.9928 841.876 57.3437 841.876 57.7979C841.876 58.2477 841.739 58.5985 841.465 58.8503C841.19 59.1022 840.799 59.2281 840.291 59.2281H838.962V60.881C838.962 60.971 838.939 61.0429 838.894 61.0969C838.849 61.1464 838.78 61.1711 838.685 61.1711ZM838.962 58.7626H840.223C840.588 58.7626 840.862 58.6817 841.047 58.5198C841.235 58.3534 841.33 58.1127 841.33 57.7979C841.33 57.4786 841.235 57.238 841.047 57.076C840.862 56.9096 840.588 56.8264 840.223 56.8264H838.962V58.7626Z" fill="#9B9B9B"/>
<rect x="1000.86" y="40.5254" width="70.3203" height="14.0244" rx="7.0122" fill="white" stroke="#9B9B9B" stroke-width="0.679742"/>
<path d="M1007.66 44.8677H1008.72L1011.25 50.689H1009.81L1009.31 49.4557H1007.04L1006.56 50.689H1005.15L1007.66 44.8677ZM1008.15 46.5615L1007.45 48.3704H1008.87L1008.15 46.5615Z" fill="#9B9B9B"/>
<path d="M1017.16 48.4444C1017.16 48.7897 1017.11 49.1076 1017 49.3981C1016.9 49.6886 1016.74 49.9408 1016.53 50.1546C1016.33 50.3683 1016.08 50.5355 1015.77 50.6561C1015.46 50.7767 1015.11 50.837 1014.71 50.837C1014.3 50.837 1013.95 50.7767 1013.64 50.6561C1013.33 50.5355 1013.08 50.3683 1012.87 50.1546C1012.66 49.9408 1012.51 49.6886 1012.41 49.3981C1012.3 49.1076 1012.25 48.7897 1012.25 48.4444V44.8677H1013.53V48.395C1013.53 48.5759 1013.56 48.7431 1013.62 48.8966C1013.68 49.0501 1013.76 49.1843 1013.86 49.2995C1013.97 49.4091 1014.09 49.4968 1014.23 49.5626C1014.38 49.6229 1014.54 49.653 1014.71 49.653C1014.88 49.653 1015.04 49.6229 1015.18 49.5626C1015.32 49.4968 1015.44 49.4091 1015.55 49.2995C1015.65 49.1843 1015.73 49.0501 1015.79 48.8966C1015.85 48.7431 1015.88 48.5759 1015.88 48.395V44.8677H1017.16V48.4444Z" fill="#9B9B9B"/>
<path d="M1019.88 46.0024H1018.22V44.8677H1022.83V46.0024H1021.17V50.689H1019.88V46.0024Z" fill="#9B9B9B"/>
<path d="M1023.58 47.7784C1023.58 47.3124 1023.65 46.8904 1023.81 46.5122C1023.97 46.1339 1024.18 45.8133 1024.46 45.5502C1024.74 45.2816 1025.08 45.076 1025.46 44.9335C1025.84 44.791 1026.26 44.7197 1026.72 44.7197C1027.17 44.7197 1027.59 44.791 1027.97 44.9335C1028.36 45.076 1028.69 45.2816 1028.97 45.5502C1029.25 45.8133 1029.47 46.1339 1029.62 46.5122C1029.78 46.8904 1029.86 47.3124 1029.86 47.7784C1029.86 48.2443 1029.78 48.6664 1029.62 49.0446C1029.47 49.4228 1029.25 49.7462 1028.97 50.0148C1028.69 50.2779 1028.36 50.4807 1027.97 50.6232C1027.59 50.7657 1027.17 50.837 1026.72 50.837C1026.26 50.837 1025.84 50.7657 1025.46 50.6232C1025.08 50.4807 1024.74 50.2779 1024.46 50.0148C1024.18 49.7462 1023.97 49.4228 1023.81 49.0446C1023.65 48.6664 1023.58 48.2443 1023.58 47.7784ZM1024.91 47.7784C1024.91 48.0524 1024.95 48.3046 1025.03 48.5348C1025.12 48.7595 1025.24 48.9569 1025.4 49.1268C1025.56 49.2912 1025.75 49.42 1025.97 49.5132C1026.19 49.6064 1026.44 49.653 1026.72 49.653C1026.99 49.653 1027.24 49.6064 1027.46 49.5132C1027.68 49.42 1027.87 49.2912 1028.03 49.1268C1028.19 48.9569 1028.31 48.7595 1028.39 48.5348C1028.48 48.3046 1028.53 48.0524 1028.53 47.7784C1028.53 47.5098 1028.48 47.2604 1028.39 47.0301C1028.31 46.7999 1028.19 46.6026 1028.03 46.4382C1027.87 46.2682 1027.68 46.1367 1027.46 46.0435C1027.24 45.9503 1026.99 45.9037 1026.72 45.9037C1026.44 45.9037 1026.19 45.9503 1025.97 46.0435C1025.75 46.1367 1025.56 46.2682 1025.4 46.4382C1025.24 46.6026 1025.12 46.7999 1025.03 47.0301C1024.95 47.2604 1024.91 47.5098 1024.91 47.7784Z" fill="#9B9B9B"/>
<rect y="-1" width="46" height="92" fill="url(#paint0_linear_36_19264)"/>
<rect width="46" height="92" transform="matrix(-1 0 0 1 1009 -1)" fill="url(#paint1_linear_36_19264)"/>
</g>
<defs>
<linearGradient id="paint0_linear_36_19264" x1="46" y1="45" x2="-1.37091e-06" y2="45" gradientUnits="userSpaceOnUse">
<stop stop-color="#F6F6F6" stop-opacity="0"/>
<stop offset="0.76" stop-color="#F6F6F6"/>
</linearGradient>
<linearGradient id="paint1_linear_36_19264" x1="46" y1="46" x2="-1.37091e-06" y2="46" gradientUnits="userSpaceOnUse">
<stop stop-color="#F6F6F6" stop-opacity="0"/>
<stop offset="0.76" stop-color="#F6F6F6"/>
</linearGradient>
<clipPath id="clip0_36_19264">
<rect width="1009" height="91" fill="white"/>
</clipPath>
<clipPath id="clip1_36_19264">
<rect width="143" height="43" fill="white" transform="translate(-75.2859 24)"/>
</clipPath>
<clipPath id="clip2_36_19264">
<rect width="32.1553" height="34.4999" fill="white" transform="translate(121.064 28.25)"/>
</clipPath>
</defs>
</svg>
