<svg width="88" height="44" viewBox="0 0 88 44" fill="none" xmlns="http://www.w3.org/2000/svg">
<rect x="0.423077" y="0.423077" width="86.3077" height="43.1538" rx="21.5769" fill="black"/>
<rect x="0.423077" y="0.423077" width="86.3077" height="43.1538" rx="21.5769" stroke="black" stroke-width="0.846154"/>
<path d="M12.4236 16.742C13.4876 16.742 14.407 16.9427 15.1816 17.344C15.9656 17.736 16.563 18.3007 16.9736 19.038C17.3936 19.7753 17.6036 20.6433 17.6036 21.642C17.6036 22.6407 17.3936 23.5087 16.9736 24.246C16.563 24.974 15.9656 25.534 15.1816 25.926C14.407 26.3087 13.4876 26.5 12.4236 26.5H9.38562V16.742H12.4236ZM12.4236 25.45C13.6836 25.45 14.645 25.1187 15.3076 24.456C15.9703 23.784 16.3016 22.846 16.3016 21.642C16.3016 20.4287 15.9656 19.4813 15.2936 18.8C14.631 18.1187 13.6743 17.778 12.4236 17.778H10.6596V25.45H12.4236ZM19.4142 22.636C19.4142 21.852 19.5729 21.166 19.8902 20.578C20.2076 19.9807 20.6416 19.5187 21.1922 19.192C21.7522 18.8653 22.3729 18.702 23.0542 18.702C23.7262 18.702 24.3096 18.8467 24.8042 19.136C25.2989 19.4253 25.6676 19.7893 25.9102 20.228V18.828H27.1982V26.5H25.9102V25.072C25.6582 25.52 25.2802 25.8933 24.7762 26.192C24.2816 26.4813 23.7029 26.626 23.0402 26.626C22.3589 26.626 21.7429 26.458 21.1922 26.122C20.6416 25.786 20.2076 25.3147 19.8902 24.708C19.5729 24.1013 19.4142 23.4107 19.4142 22.636ZM25.9102 22.65C25.9102 22.0713 25.7936 21.5673 25.5602 21.138C25.3269 20.7087 25.0096 20.382 24.6082 20.158C24.2162 19.9247 23.7822 19.808 23.3062 19.808C22.8302 19.808 22.3962 19.92 22.0042 20.144C21.6122 20.368 21.2996 20.6947 21.0662 21.124C20.8329 21.5533 20.7162 22.0573 20.7162 22.636C20.7162 23.224 20.8329 23.7373 21.0662 24.176C21.2996 24.6053 21.6122 24.9367 22.0042 25.17C22.3962 25.394 22.8302 25.506 23.3062 25.506C23.7822 25.506 24.2162 25.394 24.6082 25.17C25.0096 24.9367 25.3269 24.6053 25.5602 24.176C25.7936 23.7373 25.9102 23.2287 25.9102 22.65ZM31.2313 20.074C31.4553 19.6353 31.7727 19.2947 32.1833 19.052C32.6033 18.8093 33.112 18.688 33.7093 18.688V20.004H33.3733C31.9453 20.004 31.2313 20.7787 31.2313 22.328V26.5H29.9573V18.828H31.2313V20.074ZM40.0702 26.5L37.0602 23.112V26.5H35.7862V16.14H37.0602V22.23L40.0142 18.828H41.7922L38.1802 22.65L41.8062 26.5H40.0702Z" fill="white"/>
<path d="M65.193 9.28741C58.1953 9.28741 52.5122 14.9704 52.5122 21.9681C52.5122 28.9658 58.1953 34.6489 65.193 34.6489C72.1906 34.6489 77.8738 28.9659 77.8738 21.9682C77.8738 14.9705 72.1906 9.28735 65.193 9.28735L65.193 9.28741ZM65.193 10.2344C71.6794 10.2344 76.9284 15.4817 76.9284 21.9682C76.9284 23.5938 76.5973 25.1407 76.0012 26.5477L73.7619 24.7115C71.1381 25.4508 67.9268 25.1892 66.4159 21.4922L64.1963 29.5803C63.729 27.1725 62.9615 25.2818 61.6629 23.4869C60.6205 24.2196 59.952 25.2126 59.5623 26.1825L56.4737 20.9963C55.5298 22.4411 54.6878 23.9877 54.0922 25.7808C53.6827 24.5856 53.4593 23.303 53.4593 21.9681C53.4593 20.5924 53.6965 19.2724 54.1303 18.0464C54.2758 18.3959 54.6205 18.6414 55.0227 18.6414C55.5565 18.6414 55.9894 18.21 55.9894 17.6762C55.9894 17.1425 55.5565 16.7095 55.0227 16.7095C54.8966 16.7095 54.7763 16.7349 54.6657 16.7788C56.122 13.8262 58.7817 11.5766 62.0084 10.6706C61.9785 10.7754 61.9635 10.8839 61.9638 10.9929C61.9638 11.6353 62.4833 12.1564 63.1257 12.1564C63.7679 12.1564 64.2891 11.6353 64.2891 10.9929C64.2891 10.729 64.2008 10.4858 64.0527 10.2906C64.4278 10.2545 64.8085 10.2344 65.1931 10.2344H65.193ZM66.1846 11.697C66.1036 11.6969 66.0234 11.7129 65.9486 11.7438C65.8738 11.7748 65.8058 11.8202 65.7485 11.8774C65.6913 11.9347 65.6459 12.0027 65.6149 12.0775C65.584 12.1523 65.568 12.2325 65.5681 12.3135C65.5681 12.6542 65.8438 12.9315 66.1845 12.9315C66.5253 12.9315 66.8026 12.6543 66.8026 12.3135C66.8026 11.9727 66.5253 11.6971 66.1845 11.6971L66.1846 11.697ZM62.2429 13.2323C61.9246 13.2355 61.6013 13.2782 61.2795 13.3645C59.2199 13.9163 57.9975 16.0331 58.5493 18.0927C59.1012 20.1523 61.218 21.3747 63.2776 20.8229C64.4258 20.5152 65.3126 19.7202 65.7779 18.7207C65.4047 19.1233 64.9252 19.4121 64.3947 19.5536C62.8344 19.9717 61.2298 19.0465 60.8118 17.4862C60.3937 15.9259 61.3206 14.323 62.8809 13.9048C63.4314 13.7574 63.9865 13.777 64.4939 13.933C63.8444 13.4783 63.0598 13.2241 62.2429 13.2323ZM70.455 13.2752C69.9574 13.2752 69.5543 13.6784 69.5543 14.1759C69.5543 14.6735 69.9574 15.0766 70.455 15.0766C70.9526 15.0766 71.3557 14.6735 71.3557 14.176C71.3557 13.6784 70.9525 13.2752 70.4551 13.2752L70.455 13.2752ZM57.29 14.7229C56.9493 14.7229 56.6736 15.0003 56.6736 15.3411C56.6736 15.6818 56.9492 15.9575 57.29 15.9575C57.6307 15.9575 57.9064 15.6818 57.9064 15.3411C57.9064 15.0003 57.6308 14.7229 57.29 14.7229ZM71.8697 16.8813L71.8366 18.4596L70.3442 18.9785L71.8366 19.4974L71.8697 21.0757L72.8232 19.8181L74.3337 20.2742L73.4331 18.9785L74.3337 17.6813L72.8232 18.139L71.8697 16.8814L71.8697 16.8813ZM68.057 17.4944C67.7162 17.4944 67.4405 17.77 67.4405 18.1108C67.4405 18.4515 67.7162 18.7288 68.057 18.7288C68.3976 18.7288 68.675 18.4515 68.675 18.1108C68.675 17.7699 68.3976 17.4943 68.0569 17.4943L68.057 17.4944ZM75.408 21.4475C75.0671 21.4475 74.7914 21.7249 74.7914 22.0656C74.7914 22.4063 75.0671 22.682 75.4079 22.682C75.7486 22.682 76.0259 22.4063 76.0259 22.0656C76.0259 21.7249 75.7486 21.4475 75.4079 21.4475L75.408 21.4475ZM68.675 21.6326C68.3343 21.6326 68.0586 21.91 68.0586 22.2507C68.0586 22.5914 68.3343 22.8671 68.675 22.8671C68.756 22.8672 68.8362 22.8512 68.911 22.8203C68.9858 22.7893 69.0537 22.7439 69.111 22.6867C69.1682 22.6294 69.2136 22.5614 69.2446 22.4866C69.2756 22.4118 69.2915 22.3317 69.2914 22.2507C69.2914 21.91 69.0158 21.6326 68.675 21.6326Z" fill="white"/>
</svg>
