<svg width="89" height="44" viewBox="0 0 89 44" fill="none" xmlns="http://www.w3.org/2000/svg">
<rect x="0.423077" y="0.423077" width="87.6154" height="43.1538" rx="21.5769" fill="white"/>
<rect x="0.423077" y="0.423077" width="87.6154" height="43.1538" rx="21.5769" stroke="black" stroke-width="0.846154"/>
<g clip-path="url(#clip0_36_22101)">
<path d="M22.1792 9.31982C15.1815 9.31982 9.49854 15.0028 9.49854 22.0005C9.49854 28.9982 15.1815 34.6813 22.1792 34.6813C29.1769 34.6813 34.8599 28.9982 34.8599 22.0006C34.8599 15.0029 29.1769 9.31982 22.1792 9.31982ZM23.9508 10.399C25.3556 10.6113 26.6781 11.071 27.8726 11.7343L24.7987 19.5149C24.028 19.1334 23.1614 18.915 22.2437 18.9052L23.9508 10.399ZM20.3695 10.404L21.6371 18.93C20.7275 19.0125 19.8771 19.2995 19.135 19.7463L16.4379 11.7608C17.6565 11.0764 18.9883 10.6169 20.3695 10.404H20.3695ZM30.5894 13.815C31.5246 14.7756 32.2966 15.8944 32.8603 17.1302L27.1669 21.6502C26.6958 20.9051 26.0639 20.2749 25.3176 19.8058L30.5894 13.815ZM13.7144 13.8712L18.6425 20.0785C17.9351 20.6087 17.3556 21.2909 16.9469 22.0749L11.4502 17.2393C12.007 15.9846 12.7767 14.8475 13.7144 13.8712V13.8712ZM33.7444 20.0009C33.8576 20.6614 33.9146 21.3303 33.9146 22.0004C33.9146 22.6081 33.868 23.2045 33.7792 23.787L28.0743 24.6365C28.0511 23.7646 27.8343 22.9088 27.4396 22.1311L33.7445 20.0009H33.7444ZM10.5909 20.1529L16.7172 22.5723C16.45 23.2282 16.3033 23.9269 16.2842 24.6348L10.5809 23.7871C10.4907 23.1958 10.4454 22.5986 10.4454 22.0005C10.4454 21.3717 10.4959 20.7548 10.5909 20.1529ZM17.4956 24.8876H26.8628L33.1594 26.152C31.4843 30.5861 27.2035 33.7344 22.1792 33.7344C17.1542 33.7344 12.8732 30.5853 11.199 26.1505L17.4956 24.8878V24.8876Z" fill="black"/>
</g>
<path d="M46.352 25.464H49.768V26.5H45.078V16.742H46.352V25.464ZM52.3851 17.582C52.1425 17.582 51.9371 17.498 51.7691 17.33C51.6011 17.162 51.5171 16.9567 51.5171 16.714C51.5171 16.4713 51.6011 16.266 51.7691 16.098C51.9371 15.93 52.1425 15.846 52.3851 15.846C52.6185 15.846 52.8145 15.93 52.9731 16.098C53.1411 16.266 53.2251 16.4713 53.2251 16.714C53.2251 16.9567 53.1411 17.162 52.9731 17.33C52.8145 17.498 52.6185 17.582 52.3851 17.582ZM53.0011 18.828V26.5H51.7271V18.828H53.0011ZM58.9426 18.702C59.6053 18.702 60.184 18.8467 60.6786 19.136C61.1826 19.4253 61.556 19.7893 61.7986 20.228V18.828H63.0866V26.668C63.0866 27.368 62.9373 27.9887 62.6386 28.53C62.34 29.0807 61.9106 29.51 61.3506 29.818C60.8 30.126 60.156 30.28 59.4186 30.28C58.4106 30.28 57.5706 30.042 56.8986 29.566C56.2266 29.09 55.83 28.4413 55.7086 27.62H56.9686C57.1086 28.0867 57.398 28.46 57.8366 28.74C58.2753 29.0293 58.8026 29.174 59.4186 29.174C60.1186 29.174 60.688 28.9547 61.1266 28.516C61.5746 28.0773 61.7986 27.4613 61.7986 26.668V25.058C61.5466 25.506 61.1733 25.8793 60.6786 26.178C60.184 26.4767 59.6053 26.626 58.9426 26.626C58.2613 26.626 57.6406 26.458 57.0806 26.122C56.53 25.786 56.096 25.3147 55.7786 24.708C55.4613 24.1013 55.3026 23.4107 55.3026 22.636C55.3026 21.852 55.4613 21.166 55.7786 20.578C56.096 19.9807 56.53 19.5187 57.0806 19.192C57.6406 18.8653 58.2613 18.702 58.9426 18.702ZM61.7986 22.65C61.7986 22.0713 61.682 21.5673 61.4486 21.138C61.2153 20.7087 60.898 20.382 60.4966 20.158C60.1046 19.9247 59.6706 19.808 59.1946 19.808C58.7186 19.808 58.2846 19.92 57.8926 20.144C57.5006 20.368 57.188 20.6947 56.9546 21.124C56.7213 21.5533 56.6046 22.0573 56.6046 22.636C56.6046 23.224 56.7213 23.7373 56.9546 24.176C57.188 24.6053 57.5006 24.9367 57.8926 25.17C58.2846 25.394 58.7186 25.506 59.1946 25.506C59.6706 25.506 60.1046 25.394 60.4966 25.17C60.898 24.9367 61.2153 24.6053 61.4486 24.176C61.682 23.7373 61.7986 23.2287 61.7986 22.65ZM69.6537 18.688C70.2324 18.688 70.7551 18.814 71.2217 19.066C71.6884 19.3087 72.0524 19.6773 72.3137 20.172C72.5844 20.6667 72.7197 21.2687 72.7197 21.978V26.5H71.4597V22.16C71.4597 21.3947 71.2684 20.8113 70.8857 20.41C70.5031 19.9993 69.9804 19.794 69.3177 19.794C68.6457 19.794 68.1091 20.004 67.7077 20.424C67.3157 20.844 67.1197 21.4553 67.1197 22.258V26.5H65.8457V16.14H67.1197V19.92C67.3717 19.528 67.7171 19.2247 68.1557 19.01C68.6037 18.7953 69.1031 18.688 69.6537 18.688ZM76.961 19.878V24.4C76.961 24.7733 77.0403 25.0393 77.199 25.198C77.3577 25.3473 77.633 25.422 78.025 25.422H78.963V26.5H77.815C77.1057 26.5 76.5737 26.3367 76.219 26.01C75.8643 25.6833 75.687 25.1467 75.687 24.4V19.878H74.693V18.828H75.687V16.896H76.961V18.828H78.963V19.878H76.961Z" fill="black"/>
<defs>
<clipPath id="clip0_36_22101">
<rect width="27.0769" height="27.0769" fill="white" transform="translate(8.46143 8.46143)"/>
</clipPath>
</defs>
</svg>
